#N canvas 575 23 542 331 16;
#X obj 278 273 dac~ 3 4 5 6 7 8 9 10;
#X obj -12 13 noise~;
#X obj -12 223 *~;
#X obj 15 193 line~;
#X msg 15 163 \$1 2000;
#X obj 278 223 demux~ 1 2 3 4 5 6 7 8;
#X obj -12 273 *~;
#X obj 105 193 vline~;
#X obj 245 43 metro 1000;
#X obj 245 13 tgl 15 0 empty empty empty 17 7 0 10 -204786 -1 -1 0
1;
#X obj 245 93 cup;
#X obj 452 43 del;
#X floatatom 312 193 5 0 0 0 - - -;
#X obj 245 123 t b a a;
#X obj 392 13 loadbang;
#X obj 392 163 select 7;
#X msg 392 43 0;
#X text 109 7 start/stop ->;
#X obj 312 163 + 1;
#X text 367 191 <- channel;
#X msg 105 163 1 10 \, 0 10 200;
#X connect 1 0 2 0;
#X connect 2 0 6 0;
#X connect 3 0 2 1;
#X connect 4 0 3 0;
#X connect 5 0 0 0;
#X connect 5 1 0 1;
#X connect 5 2 0 2;
#X connect 5 3 0 3;
#X connect 5 4 0 4;
#X connect 5 5 0 5;
#X connect 5 6 0 6;
#X connect 5 7 0 7;
#X connect 6 0 5 0;
#X connect 7 0 6 1;
#X connect 8 0 10 0;
#X connect 9 0 8 0;
#X connect 9 0 4 0;
#X connect 10 0 13 0;
#X connect 11 0 16 0;
#X connect 13 0 20 0;
#X connect 13 1 5 0;
#X connect 13 2 15 0;
#X connect 13 2 18 0;
#X connect 14 0 16 0;
#X connect 15 0 11 0;
#X connect 16 0 10 0;
#X connect 18 0 12 0;
#X connect 20 0 7 0;
