#N canvas 396 0 532 659 16;
#X obj 125 -57 bng 20 250 50 0 empty \$0-reset_table empty 17 7 0 10
-262144 -1 -1;
#X obj -88 192 oscilloscope;
#X obj -88 -28 oscilloscope;
#X obj -88 72 oscilloscope;
#X obj 235 143 bng 20 250 50 0 \$0-reset_table empty empty 17 7 0 10
-262144 -1 -1;
#X obj 125 43 bng 20 250 50 0 empty \$0-reset_table empty 17 7 0 10
-262144 -1 -1;
#X obj 125 163 bng 20 250 50 0 empty \$0-reset_table empty 17 7 0 10
-262144 -1 -1;
#X text -131 504 Juan Ignacio Mendoza - 2017;
#X text 109 -74 |;
#X text 258 -74 |;
#X text 113 -89 _______________;
#X text 185 -89 |;
#X text 166 -103 reset;
#X obj -248 19 delta;
#X text -185 83 VELOCITY:;
#N canvas 1 3 398 516 mouse 0;
#X obj 40 39 cursor;
#X obj 40 79 route motion;
#X obj 13 453 outlet y;
#X obj 13 163 f;
#X obj 200 99 metro;
#X obj 13 193 expr ($f1/-400)+1;
#X obj 40 109 route y;
#X obj 53 299 s \$0-main_onoff_rcv;
#X obj 53 229 key;
#X obj 40 -31 inlet;
#X obj 40 9 t f f;
#X obj 53 269 select 32;
#X obj 247 -31 inlet;
#X obj 53 409 s \$0-period_slider_rcv;
#X obj 53 339 loadbang;
#X obj 247 19 expr 1000/$f1;
#X msg 53 369 20;
#X connect 0 0 1 0;
#X connect 1 0 6 0;
#X connect 3 0 5 0;
#X connect 4 0 3 0;
#X connect 5 0 2 0;
#X connect 6 0 3 1;
#X connect 8 0 11 0;
#X connect 9 0 10 0;
#X connect 10 0 0 0;
#X connect 10 1 4 0;
#X connect 11 0 7 0;
#X connect 12 0 15 0;
#X connect 14 0 16 0;
#X connect 15 0 4 1;
#X connect 16 0 13 0;
#X restore -248 -81 pd mouse;
#X text -205 -17 Y POSITION:;
#X obj -88 292 oscilloscope;
#X obj 125 263 bng 20 250 50 0 empty \$0-reset_table empty 17 7 0 10
-262144 -1 -1;
#X obj -248 239 delta;
#X text -225 303 ACCELERATION:;
#X text -195 203 VELOCITY :;
#X text -115 193 2;
#X obj -238 139 expr pow($f1 \, 2)*3;
#X obj -248 -111 tgl 15 0 empty \$0-main_onoff_rcv on/off 17 7 0 10
-262144 -1 -1 0 1;
#X obj -168 -112 hsl 98 15 2 100 0 0 empty \$0-period_slider_rcv frequency
24 8 0 10 -262144 -1 -1 9700 1;
#X floatatom -153 -81 5 0 0 0 - - -;
#X obj -88 412 oscilloscope;
#X obj 125 383 bng 20 250 50 0 empty \$0-reset_table empty 17 7 0 10
-262144 -1 -1;
#X text -235 423 ACCELERATION :;
#X text -115 413 2;
#X obj -248 359 expr pow($f1 \, 2)*3;
#X connect 0 0 2 1;
#X connect 5 0 3 1;
#X connect 6 0 1 1;
#X connect 13 0 3 0;
#X connect 13 0 19 0;
#X connect 13 0 23 0;
#X connect 15 0 2 0;
#X connect 15 0 13 0;
#X connect 18 0 17 1;
#X connect 19 0 17 0;
#X connect 19 0 31 0;
#X connect 23 0 1 0;
#X connect 24 0 15 0;
#X connect 25 0 15 1;
#X connect 25 0 26 0;
#X connect 28 0 27 1;
#X connect 31 0 27 0;
