#N canvas 0 0 1024 514 16;
#X obj 75 137 s \$0-metro;
#X obj 75 67 tgl 15 0 empty empty empty 17 7 0 10 -262144 -1 -1 1 1
;
#X obj 75 187 tgl 15 0 empty \$0-x_r empty 17 7 0 10 -262144 -1 -1
1 1;
#X obj 103 187 tgl 15 0 empty \$0-y_r empty 17 7 0 10 -262144 -1 -1
0 1;
#X obj 132 187 tgl 15 0 empty \$0-z_r empty 17 7 0 10 -262144 -1 -1
1 1;
#X obj 235 67 tgl 15 0 \$0-x_r empty empty 17 7 0 10 -262144 -1 -1
0 1;
#X obj 263 67 tgl 15 0 \$0-y_r empty empty 17 7 0 10 -262144 -1 -1
0 1;
#X obj 292 67 tgl 15 0 \$0-z_r empty empty 17 7 0 10 -262144 -1 -1
0 1;
#X floatatom 598 264 3 0 0 0 - - -;
#X floatatom 685 264 3 0 0 0 - - -;
#X floatatom 615 117 3 0 0 0 - - -;
#X floatatom 752 117 3 0 0 0 - - -;
#N canvas 0 0 714 443 center_BU_1 0;
#X obj 354 286 t b a;
#X obj 4 346 expr ($f2+$f3+$f4+$f5+$f6+$f7)/$f8;
#X obj 4 26 inlet;
#X obj 74 26 inlet;
#X obj 144 26 inlet;
#X obj 214 26 inlet;
#X obj 284 26 inlet;
#X obj 354 26 inlet;
#X msg 353 108 1;
#X obj 354 246 expr $f2+$f3+$f4+$f5+$f6+$f7;
#X obj 353 146 t b a;
#X msg 413 108 1;
#X obj 413 146 t b a;
#X msg 473 108 1;
#X obj 473 146 t b a;
#X msg 533 108 1;
#X obj 533 146 t b a;
#X msg 593 108 1;
#X obj 593 146 t b a;
#X msg 653 108 1;
#X obj 653 146 t b a;
#X obj 4 396 outlet center;
#X obj 401 396 outlet control;
#X connect 0 0 1 0;
#X connect 0 1 1 7;
#X connect 0 1 22 0;
#X connect 1 0 21 0;
#X connect 2 0 1 1;
#X connect 2 0 8 0;
#X connect 3 0 1 2;
#X connect 3 0 11 0;
#X connect 4 0 1 3;
#X connect 4 0 13 0;
#X connect 5 0 1 4;
#X connect 5 0 15 0;
#X connect 6 0 1 5;
#X connect 6 0 17 0;
#X connect 7 0 1 6;
#X connect 7 0 19 0;
#X connect 8 0 10 0;
#X connect 9 0 0 0;
#X connect 10 0 9 0;
#X connect 10 1 9 1;
#X connect 11 0 12 0;
#X connect 12 0 9 0;
#X connect 12 1 9 2;
#X connect 13 0 14 0;
#X connect 14 0 9 0;
#X connect 14 1 9 3;
#X connect 15 0 16 0;
#X connect 16 0 9 0;
#X connect 16 1 9 4;
#X connect 17 0 18 0;
#X connect 18 0 9 0;
#X connect 18 1 9 5;
#X connect 19 0 20 0;
#X connect 20 0 9 0;
#X connect 20 1 9 6;
#X restore 615 77 pd center_BU_1;
#N canvas 0 0 714 443 center 0;
#X obj 4 346 expr ($f2+$f3+$f4+$f5+$f6+$f7)/$f8;
#X obj 4 396 outlet center;
#X obj 401 396 outlet control;
#X obj 31 26 inlet;
#X obj 101 26 inlet;
#X obj 171 26 inlet;
#X obj 241 26 inlet;
#X obj 311 26 inlet;
#X obj 381 26 inlet;
#X connect 0 0 1 0;
#X restore 598 224 pd center;
#N canvas 283 5 532 391 gen 0;
#X obj -30 77 r \$0-metro;
#X obj -30 247 outlet x;
#X obj 110 247 outlet y;
#X obj 250 247 outlet z;
#X obj -30 207 random 100;
#X obj 110 207 random 100;
#X obj 250 207 random 100;
#X obj -30 167 spigot;
#X obj 110 167 spigot;
#X obj 250 167 spigot;
#X obj 307 77 inlet onoff;
#X connect 0 0 7 0;
#X connect 0 0 8 0;
#X connect 0 0 9 0;
#X connect 4 0 1 0;
#X connect 5 0 2 0;
#X connect 6 0 3 0;
#X connect 7 0 4 0;
#X connect 8 0 5 0;
#X connect 9 0 6 0;
#X connect 10 0 9 1;
#X connect 10 0 8 1;
#X connect 10 0 7 1;
#X restore 75 217 pd gen;
#X floatatom 162 63 5 10 500 0 - - -;
#X floatatom 75 277 3 0 0 0 - - -;
#X obj 75 377 -;
#X obj 105 337 f;
#X floatatom 75 408 5 0 0 0 - - -;
#X obj 75 97 metro 500;
#X msg 163 30 500;
#X obj 85 257 bng 15 250 50 0 empty empty empty 17 7 0 10 -262144 -1
-1;
#X floatatom 115 277 3 0 0 0 - - -;
#X obj 125 257 bng 15 250 50 0 empty empty empty 17 7 0 10 -262144
-1 -1;
#X floatatom 155 277 3 0 0 0 - - -;
#X obj 165 257 bng 15 250 50 0 empty empty empty 17 7 0 10 -262144
-1 -1;
#X connect 1 0 20 0;
#X connect 12 0 10 0;
#X connect 12 1 11 0;
#X connect 13 0 8 0;
#X connect 13 1 9 0;
#X connect 14 0 16 0;
#X connect 14 0 22 0;
#X connect 14 1 24 0;
#X connect 14 1 23 0;
#X connect 14 2 26 0;
#X connect 14 2 25 0;
#X connect 15 0 20 1;
#X connect 17 0 19 0;
#X connect 20 0 0 0;
#X connect 21 0 15 0;
