#N canvas 0 22 267 192 10;
#N canvas 16 80 277 282 sphere_color 0;
#X obj 12 27 bng 15 250 50 0 empty empty empty 0 -6 0 8 -262144 -1
-1;
#X msg 12 139 0;
#X obj 12 226 outlet;
#X obj 12 43 bng 15 250 50 0 empty empty empty 0 -6 0 8 -166441 -1
-1;
#X msg 12 160 1;
#X obj 12 59 bng 15 250 50 0 empty empty empty 0 -6 0 8 -66577 -1 -1
;
#X obj 60 27 bng 15 250 50 0 empty empty empty 0 -6 0 8 -261689 -1
-1;
#X msg 12 181 2;
#X msg 60 139 3;
#X obj 76 27 bng 15 250 50 0 empty empty empty 0 -6 0 8 -261681 -1
-1;
#X obj 92 27 bng 15 250 50 0 empty empty empty 0 -6 0 8 -262131 -1
-1;
#X obj 108 27 bng 15 250 50 0 empty empty empty 0 -6 0 8 -225271 -1
-1;
#X obj 124 27 bng 15 250 50 0 empty empty empty 0 -6 0 8 -225280 -1
-1;
#X msg 76 139 4;
#X msg 92 139 5;
#X msg 108 139 6;
#X msg 124 139 7;
#X obj 140 27 bng 15 250 50 0 empty empty empty 0 -6 0 8 -228992 -1
-1;
#X obj 156 27 bng 15 250 50 0 empty empty empty 0 -6 0 8 -257472 -1
-1;
#X msg 140 139 8;
#X msg 156 139 9;
#X obj 28 27 bng 15 250 50 0 empty empty empty 0 -6 0 8 -233017 -1
-1;
#X obj 28 43 bng 15 250 50 0 empty empty empty 0 -6 0 8 -128992 -1
-1;
#X obj 28 59 bng 15 250 50 0 empty empty empty 0 -6 0 8 -33289 -1 -1
;
#X obj 60 43 bng 15 250 50 0 empty empty empty 0 -6 0 8 -258699 -1
-1;
#X obj 76 43 bng 15 250 50 0 empty empty empty 0 -6 0 8 -260818 -1
-1;
#X obj 92 43 bng 15 250 50 0 empty empty empty 0 -6 0 8 -241291 -1
-1;
#X obj 108 43 bng 15 250 50 0 empty empty empty 0 -6 0 8 -24198 -1
-1;
#X obj 124 43 bng 15 250 50 0 empty empty empty 0 -6 0 8 -44926 -1
-1;
#X obj 140 43 bng 15 250 50 0 empty empty empty 0 -6 0 8 -62784 -1
-1;
#X obj 156 43 bng 15 250 50 0 empty empty empty 0 -6 0 8 -250685 -1
-1;
#X msg 60 160 13;
#X msg 76 160 14;
#X msg 92 160 15;
#X msg 108 160 16;
#X msg 124 160 17;
#X msg 140 160 18;
#X msg 156 160 19;
#X msg 28 139 10;
#X msg 28 160 11;
#X msg 28 181 12;
#X obj 44 27 bng 15 250 50 0 empty empty empty 0 -6 0 8 -195568 -1
-1;
#X obj 44 43 bng 15 250 50 0 empty empty empty 0 -6 0 8 -99865 -1 -1
;
#X obj 44 59 bng 15 250 50 0 empty empty empty 0 -6 0 8 -1 -1 -1;
#X obj 60 59 bng 15 250 50 0 empty empty empty 0 -6 0 8 -143491 -1
-1;
#X obj 76 59 bng 15 250 50 0 empty empty empty 0 -6 0 8 -90881 -1 -1
;
#X obj 92 59 bng 15 250 50 0 empty empty empty 0 -6 0 8 -123526 -1
-1;
#X obj 108 59 bng 15 250 50 0 empty empty empty 0 -6 0 8 -42246 -1
-1;
#X obj 124 59 bng 15 250 50 0 empty empty empty 0 -6 0 8 -1109 -1 -1
;
#X obj 140 59 bng 15 250 50 0 empty empty empty 0 -6 0 8 -355 -1 -1
;
#X obj 156 59 bng 15 250 50 0 empty empty empty 0 -6 0 8 -90133 -1
-1;
#X msg 60 181 23;
#X msg 76 181 24;
#X msg 92 181 25;
#X msg 108 181 26;
#X msg 124 181 27;
#X msg 140 181 28;
#X msg 156 181 29;
#X msg 44 139 20;
#X msg 44 160 21;
#X msg 44 181 22;
#X connect 0 0 1 0;
#X connect 1 0 2 0;
#X connect 3 0 4 0;
#X connect 4 0 2 0;
#X connect 5 0 7 0;
#X connect 6 0 8 0;
#X connect 7 0 2 0;
#X connect 8 0 2 0;
#X connect 9 0 13 0;
#X connect 10 0 14 0;
#X connect 11 0 15 0;
#X connect 12 0 16 0;
#X connect 13 0 2 0;
#X connect 14 0 2 0;
#X connect 15 0 2 0;
#X connect 16 0 2 0;
#X connect 17 0 19 0;
#X connect 18 0 20 0;
#X connect 19 0 2 0;
#X connect 20 0 2 0;
#X connect 21 0 38 0;
#X connect 22 0 39 0;
#X connect 23 0 40 0;
#X connect 24 0 31 0;
#X connect 25 0 32 0;
#X connect 26 0 33 0;
#X connect 27 0 34 0;
#X connect 28 0 35 0;
#X connect 29 0 36 0;
#X connect 30 0 37 0;
#X connect 31 0 2 0;
#X connect 32 0 2 0;
#X connect 33 0 2 0;
#X connect 34 0 2 0;
#X connect 35 0 2 0;
#X connect 36 0 2 0;
#X connect 37 0 2 0;
#X connect 38 0 2 0;
#X connect 39 0 2 0;
#X connect 40 0 2 0;
#X connect 41 0 58 0;
#X connect 42 0 59 0;
#X connect 43 0 60 0;
#X connect 44 0 51 0;
#X connect 45 0 52 0;
#X connect 46 0 53 0;
#X connect 47 0 54 0;
#X connect 48 0 55 0;
#X connect 49 0 56 0;
#X connect 50 0 57 0;
#X connect 51 0 2 0;
#X connect 52 0 2 0;
#X connect 53 0 2 0;
#X connect 54 0 2 0;
#X connect 55 0 2 0;
#X connect 56 0 2 0;
#X connect 57 0 2 0;
#X connect 58 0 2 0;
#X connect 59 0 2 0;
#X connect 60 0 2 0;
#X coords 0 0 1 1 200 100 2 0 0;
#X restore -127 21 pd sphere_color;
#X floatatom -127 135 5 0 0 0 - - -;
#X connect 0 0 1 0;
