#N canvas 339 22 325 631 10;
#X floatatom 96 209 5 0 100 0 - - -;
#N canvas 0 22 450 300 (subpatch) 0;
#X array \$0-Peak1 8 float 1;
#A 0 0 0 0 0 0 0 0 0;
#X coords 0 16 7 0 20 60 1;
#X restore -65 526 graph;
#X obj -64 428 tgl 15 0 empty empty empty 17 7 0 10 -262144 -1 -1 0
1;
#X obj 76 233 bng 15 250 50 0 empty empty empty 17 7 0 10 -262144 -1
-1;
#X obj 53 299 cup;
#X obj -64 149 tgl 15 0 empty empty empty 17 7 0 10 -262144 -1 -1 0
1;
#X msg -34 269 setbang 0;
#X obj 96 299 cup;
#X msg 112 269 setbang 0;
#X obj -34 209 tgl 15 0 empty empty empty 17 7 0 10 -262144 -1 -1 0
1;
#X obj -34 239 select 1 0;
#X obj 71 329 -;
#X obj 31 389 moses 0;
#X obj 31 419 * -1;
#X obj 71 359 t f b;
#X floatatom 53 539 5 0 0 0 - - -;
#N canvas 124 206 666 435 engine_\$0-Peak1 0;
#X obj 98 130 until;
#X msg 218 77 0;
#X obj 172 189 + 1;
#X obj 130 190 float;
#X obj 63 157 t b b;
#X obj 102 213 - 1;
#X obj 98 104 - 2;
#X floatatom 183 291 5 0 0 0 - - -;
#X obj 63 215 float;
#X obj 183 245 loadbang;
#X obj 47 77 float;
#X obj 15 27 inlet;
#X obj 96 27 inlet;
#X text 14 8 bang;
#X text 95 8 value;
#X obj 96 77 arraysize \$0-Peak1;
#X obj 172 212 tabread \$0-Peak1;
#X obj 63 245 tabwrite \$0-Peak1;
#X obj 47 310 tabwrite \$0-Peak1;
#X msg 183 267 7;
#X connect 0 0 4 0;
#X connect 1 0 3 0;
#X connect 2 0 3 1;
#X connect 2 0 5 0;
#X connect 2 0 16 0;
#X connect 3 0 2 0;
#X connect 4 0 8 0;
#X connect 4 1 3 0;
#X connect 5 0 17 1;
#X connect 6 0 0 0;
#X connect 7 0 18 1;
#X connect 8 0 17 0;
#X connect 9 0 19 0;
#X connect 10 0 18 0;
#X connect 11 0 10 0;
#X connect 11 0 1 0;
#X connect 11 0 15 0;
#X connect 12 0 10 0;
#X connect 15 0 6 0;
#X connect 16 0 8 0;
#X connect 16 0 17 0;
#X connect 19 0 7 0;
#X restore -64 488 pd engine_\$0-Peak1;
#X text 1 598 Juan Ignacio Mendoza - 2013;
#X obj 53 568 outlet;
#X obj 99 149 hsl 118 15 0 100 0 1 empty empty empty -2 -8 0 10 -262144
-1 -1 3300 0;
#X obj 96 179 i;
#X text -23 528 amount of;
#X text -21 548 activity;
#X text 29 537 ->;
#X text -35 537 <-;
#X text -74 72 To test it move the slider and watch the meter at;
#X text -74 89 the bottom.;
#X obj -64 458 metro 125;
#X obj 53 449 line;
#X msg 98 389 250;
#X obj -34 179 metro 250;
#X text -74 38 This abstraction measures the amount of activity;
#X text -74 55 of a control-rate signal.;
#X text 91 539 floats from 0 to 12;
#X obj 76 119 inlet signal;
#X obj -64 119 inlet on/off;
#X text -46 147 <-- on/off;
#X text 1 8 control_activity_meter v0.1;
#X connect 0 0 3 0;
#X connect 2 0 27 0;
#X connect 3 0 4 0;
#X connect 3 0 7 0;
#X connect 4 0 11 0;
#X connect 5 0 30 0;
#X connect 5 0 2 0;
#X connect 6 0 4 0;
#X connect 7 0 11 1;
#X connect 8 0 7 0;
#X connect 9 0 10 0;
#X connect 10 0 6 0;
#X connect 10 1 8 0;
#X connect 11 0 14 0;
#X connect 12 0 13 0;
#X connect 12 1 28 0;
#X connect 13 0 28 0;
#X connect 14 0 12 0;
#X connect 14 1 29 0;
#X connect 15 0 18 0;
#X connect 19 0 20 0;
#X connect 20 0 0 0;
#X connect 27 0 16 0;
#X connect 28 0 16 1;
#X connect 28 0 15 0;
#X connect 29 0 28 1;
#X connect 30 0 9 0;
#X connect 34 0 3 0;
#X connect 35 0 5 0;
