#N canvas 82 22 265 166 10;
#X obj 86 25 unpackOSC;
#X obj 86 -5 udpreceive 5600;
#X text 26 -33 DarwiinRemoteOSC+Nunchunpacker_v0.1;
#N canvas 241 143 663 535 unpack_Wiimote 0;
#X obj 12 206 vu 15 120 empty empty -1 -8 0 10 -262144 -1 0 0;
#X obj 533 10 cnv 15 100 478 empty empty empty 20 12 0 14 -1 -66577
0;
#X obj 25 25 routeOSC /wii;
#X obj 25 55 routeOSC /acc /orientation /point;
#X obj 25 85 unpack f f f;
#X floatatom 11 115 5 0 0 0 - - -;
#X floatatom 111 115 5 0 0 0 - - -;
#X floatatom 61 115 5 0 0 0 - - -;
#X floatatom 261 115 5 0 0 0 - - -;
#X floatatom 311 115 5 0 0 0 - - -;
#X obj 258 85 unpack f f;
#X obj 21 144 outlet;
#X floatatom 161 115 5 0 0 0 - - -;
#X floatatom 211 115 5 0 0 0 - - -;
#X obj 158 85 unpack f f;
#X obj 71 144 outlet;
#X obj 62 206 vu 15 120 empty empty -1 -8 0 10 -262144 -1 0 0;
#X obj 121 144 outlet;
#X obj 112 206 vu 15 120 empty empty -1 -8 0 10 -262144 -1 0 0;
#X obj 171 144 outlet;
#X obj 162 206 vu 15 120 empty empty -1 -8 0 10 -262144 -1 0 0;
#X obj 221 144 outlet;
#X obj 212 206 vu 15 120 empty empty -1 -8 0 10 -262144 -1 0 0;
#X obj 271 144 outlet;
#X obj 262 206 vu 15 120 empty empty -1 -8 0 10 -262144 -1 0 0;
#X obj 312 206 vu 15 120 empty empty -1 -8 0 10 -262144 -1 0 0;
#N canvas 222 275 169 154 r1 0;
#X floatatom 15 97 12 0 0 0 - - -;
#X obj 15 36 expr (log($f1))/2.303;
#X obj 15 122 outlet;
#X obj 15 11 inlet;
#X obj 16 66 expr ((($f1*112)/2))-112;
#X connect 0 0 2 0;
#X connect 1 0 4 0;
#X connect 3 0 1 0;
#X connect 4 0 0 0;
#X restore 11 174 pd r1;
#N canvas 222 275 169 154 r2 0;
#X floatatom 15 97 12 0 0 0 - - -;
#X obj 15 36 expr (log($f1))/2.303;
#X obj 15 122 outlet;
#X obj 15 11 inlet;
#X obj 16 66 expr ((($f1*112)/2))-112;
#X connect 0 0 2 0;
#X connect 1 0 4 0;
#X connect 3 0 1 0;
#X connect 4 0 0 0;
#X restore 61 174 pd r2;
#N canvas 222 275 169 154 r3 0;
#X floatatom 15 97 12 0 0 0 - - -;
#X obj 15 36 expr (log($f1))/2.303;
#X obj 15 122 outlet;
#X obj 15 11 inlet;
#X obj 16 66 expr ((($f1*112)/2))-112;
#X connect 0 0 2 0;
#X connect 1 0 4 0;
#X connect 3 0 1 0;
#X connect 4 0 0 0;
#X restore 111 174 pd r3;
#N canvas 222 275 223 242 r4 0;
#X floatatom 15 127 12 0 0 0 - - -;
#X obj 15 152 outlet;
#X obj 15 11 inlet;
#X floatatom 46 63 5 0 0 0 - - -;
#X obj 15 36 expr (log($f1+84))/2.303;
#X obj 16 96 expr ((($f1*112)/2.3))-99;
#X connect 0 0 1 0;
#X connect 2 0 4 0;
#X connect 4 0 3 0;
#X connect 4 0 5 0;
#X connect 5 0 0 0;
#X restore 161 174 pd r4;
#N canvas 222 275 247 227 r5 0;
#X floatatom 15 123 12 0 0 0 - - -;
#X obj 15 148 outlet;
#X obj 15 11 inlet;
#X obj 15 41 expr (log($f1+86))/2.303;
#X floatatom 48 69 5 0 0 0 - - -;
#X obj 14 93 expr ((($f1*112)/2.3))-99;
#X connect 0 0 1 0;
#X connect 2 0 3 0;
#X connect 3 0 4 0;
#X connect 3 0 5 0;
#X connect 5 0 0 0;
#X restore 211 174 pd r5;
#N canvas 222 275 250 247 r6 0;
#X floatatom 15 137 12 0 0 0 - - -;
#X obj 15 36 expr (log($f1))/2.303;
#X obj 15 162 outlet;
#X obj 15 11 inlet;
#X floatatom 43 69 5 0 0 0 - - -;
#X obj 16 105 expr ((($f1*112)/3))-101;
#X connect 0 0 2 0;
#X connect 1 0 4 0;
#X connect 1 0 5 0;
#X connect 3 0 1 0;
#X connect 5 0 0 0;
#X restore 261 173 pd r6;
#N canvas 222 275 250 206 r7 0;
#X floatatom 15 127 12 0 0 0 - - -;
#X obj 15 36 expr (log($f1))/2.303;
#X obj 15 152 outlet;
#X obj 15 11 inlet;
#X floatatom 45 66 5 0 0 0 - - -;
#X obj 15 94 expr ((($f1*112)/3))-96;
#X connect 0 0 2 0;
#X connect 1 0 4 0;
#X connect 1 0 5 0;
#X connect 3 0 1 0;
#X connect 5 0 0 0;
#X restore 311 173 pd r7;
#X text 16 328 x;
#X text 65 329 y;
#X text 115 329 z;
#X text 159 329 roll;
#X text 204 329 pitch;
#X text 259 329 roll;
#X text 304 329 pitch;
#X text 32 345 acceleration;
#X text 162 346 orientation;
#X text 278 345 point;
#X text 10 337 --------------------;
#X text 159 337 ------------;
#X text 259 337 ------------;
#X obj 543 49 cnv 15 80 35 empty empty empty 20 12 0 14 -203904 -66577
0;
#X obj 543 89 cnv 15 80 35 empty empty empty 20 12 0 14 -203904 -66577
0;
#X obj 543 129 cnv 15 80 35 empty empty empty 20 12 0 14 -203904 -66577
0;
#X obj 543 169 cnv 15 80 35 empty empty empty 20 12 0 14 -203904 -66577
0;
#X obj 543 209 cnv 15 80 35 empty empty empty 20 12 0 14 -203904 -66577
0;
#X obj 543 249 cnv 15 80 35 empty empty empty 20 12 0 14 -203904 -66577
0;
#X obj 543 289 cnv 15 80 35 empty empty empty 20 12 0 14 -203904 -66577
0;
#X obj 543 329 cnv 15 80 35 empty empty empty 20 12 0 14 -203904 -66577
0;
#X obj 543 369 cnv 15 80 35 empty empty empty 20 12 0 14 -203904 -66577
0;
#X obj 543 409 cnv 15 80 35 empty empty empty 20 12 0 14 -203904 -66577
0;
#X obj 543 449 cnv 15 80 35 empty empty empty 20 12 0 14 -203904 -66577
0;
#X obj 543 16 cnv 15 80 20 empty empty empty 20 12 0 14 -262144 -66577
0;
#X text 561 16 Buttons;
#X text 588 220 A;
#X text 588 259 B;
#X obj 320 144 outlet;
#X obj 340 -5 unpack s f;
#X obj 462 185 select /a;
#X obj 551 220 tgl 15 0 empty empty empty 17 7 0 10 -262144 -1 -1 0
1;
#X obj 551 260 tgl 15 0 empty empty empty 17 7 0 10 -262144 -1 -1 0
1;
#X obj 462 225 select /b;
#X obj 340 -35 routeOSC /button;
#X obj 551 300 tgl 15 0 empty empty empty 17 7 0 10 -262144 -1 -1 0
1;
#X obj 551 340 tgl 15 0 empty empty empty 17 7 0 10 -262144 -1 -1 0
1;
#X obj 450 265 select /one;
#X obj 450 305 select /two;
#X obj 551 380 tgl 15 0 empty empty empty 17 7 0 10 -262144 -1 -1 0
1;
#X obj 551 420 tgl 15 0 empty empty empty 17 7 0 10 -262144 -1 -1 0
1;
#X obj 445 345 select /plus;
#X obj 439 385 select /minus;
#X obj 551 140 tgl 15 0 empty empty empty 17 7 0 10 -262144 -1 -1 0
1;
#X obj 551 180 tgl 15 0 empty empty empty 17 7 0 10 -262144 -1 -1 0
1;
#X obj 444 105 select /left;
#X obj 438 145 select /right;
#X obj 551 60 tgl 15 0 empty empty empty 17 7 0 10 -262144 -1 -1 0
1;
#X obj 551 100 tgl 15 0 empty empty empty 17 7 0 10 -262144 -1 -1 0
1;
#X obj 456 25 select /up;
#X obj 444 65 select /down;
#X obj 551 460 tgl 15 0 empty empty empty 17 7 0 10 -262144 -1 -1 0
1;
#X obj 439 425 select /home;
#X text 588 300 1;
#X text 588 340 2;
#X text 588 379 +;
#X text 588 418 -;
#X text 580 458 home;
#X text 589 58 ^;
#X text 589 96 v;
#X text 585 178 >>;
#X text 585 139 <<;
#X text 589 102 v;
#X text 589 65 ^;
#X obj 25 -5 inlet;
#X connect 2 0 3 0;
#X connect 3 0 4 0;
#X connect 3 1 14 0;
#X connect 3 2 10 0;
#X connect 3 3 67 0;
#X connect 4 0 5 0;
#X connect 4 1 7 0;
#X connect 4 2 6 0;
#X connect 5 0 26 0;
#X connect 5 0 11 0;
#X connect 6 0 28 0;
#X connect 6 0 17 0;
#X connect 7 0 27 0;
#X connect 7 0 15 0;
#X connect 8 0 31 0;
#X connect 8 0 23 0;
#X connect 9 0 32 0;
#X connect 9 0 61 0;
#X connect 10 0 8 0;
#X connect 10 1 9 0;
#X connect 12 0 29 0;
#X connect 12 0 19 0;
#X connect 13 0 30 0;
#X connect 13 0 21 0;
#X connect 14 0 12 0;
#X connect 14 1 13 0;
#X connect 26 0 0 0;
#X connect 27 0 16 0;
#X connect 28 0 18 0;
#X connect 29 0 20 0;
#X connect 30 0 22 0;
#X connect 31 0 24 0;
#X connect 32 0 25 0;
#X connect 62 0 63 0;
#X connect 62 0 66 0;
#X connect 62 0 70 0;
#X connect 62 0 71 0;
#X connect 62 0 74 0;
#X connect 62 0 75 0;
#X connect 62 0 82 0;
#X connect 62 0 83 0;
#X connect 62 0 78 0;
#X connect 62 0 85 0;
#X connect 62 0 79 0;
#X connect 63 0 64 0;
#X connect 66 0 65 0;
#X connect 67 0 62 0;
#X connect 70 0 68 0;
#X connect 71 0 69 0;
#X connect 74 0 72 0;
#X connect 75 0 73 0;
#X connect 78 0 76 0;
#X connect 79 0 77 0;
#X connect 82 0 80 0;
#X connect 83 0 81 0;
#X connect 85 0 84 0;
#X connect 97 0 2 0;
#X restore 15 55 pd unpack_Wiimote;
#N canvas 393 26 547 419 unpack_Nunchuk 0;
#X obj -8 206 vu 15 120 empty empty -1 -8 0 10 -262144 -1 0 0;
#X obj 423 70 cnv 15 100 120 empty empty empty 20 12 0 14 -1 -66577
0;
#X obj 5 85 unpack f f f;
#X floatatom -9 115 5 0 0 0 - - -;
#X floatatom 91 115 5 0 0 0 - - -;
#X floatatom 41 115 5 0 0 0 - - -;
#X floatatom 241 115 5 0 0 0 - - -;
#X floatatom 291 115 5 0 0 0 - - -;
#X obj 238 85 unpack f f;
#X obj 1 144 outlet;
#X floatatom 141 115 5 0 0 0 - - -;
#X floatatom 191 115 5 0 0 0 - - -;
#X obj 138 85 unpack f f;
#X obj 51 144 outlet;
#X obj 42 206 vu 15 120 empty empty -1 -8 0 10 -262144 -1 0 0;
#X obj 101 144 outlet;
#X obj 92 206 vu 15 120 empty empty -1 -8 0 10 -262144 -1 0 0;
#X obj 151 144 outlet;
#X obj 142 206 vu 15 120 empty empty -1 -8 0 10 -262144 -1 0 0;
#X obj 201 144 outlet;
#X obj 192 206 vu 15 120 empty empty -1 -8 0 10 -262144 -1 0 0;
#X obj 251 144 outlet;
#X obj 242 206 vu 15 120 empty empty -1 -8 0 10 -262144 -1 0 0;
#X obj 292 206 vu 15 120 empty empty -1 -8 0 10 -262144 -1 0 0;
#N canvas 222 275 169 154 r1 0;
#X floatatom 15 97 12 0 0 0 - - -;
#X obj 15 36 expr (log($f1))/2.303;
#X obj 15 122 outlet;
#X obj 15 11 inlet;
#X obj 16 66 expr ((($f1*112)/2))-112;
#X connect 0 0 2 0;
#X connect 1 0 4 0;
#X connect 3 0 1 0;
#X connect 4 0 0 0;
#X restore -9 174 pd r1;
#N canvas 222 275 169 154 r2 0;
#X floatatom 15 97 12 0 0 0 - - -;
#X obj 15 36 expr (log($f1))/2.303;
#X obj 15 122 outlet;
#X obj 15 11 inlet;
#X obj 16 66 expr ((($f1*112)/2))-112;
#X connect 0 0 2 0;
#X connect 1 0 4 0;
#X connect 3 0 1 0;
#X connect 4 0 0 0;
#X restore 41 174 pd r2;
#N canvas 222 275 169 154 r3 0;
#X floatatom 15 97 12 0 0 0 - - -;
#X obj 15 36 expr (log($f1))/2.303;
#X obj 15 122 outlet;
#X obj 15 11 inlet;
#X obj 16 66 expr ((($f1*112)/2))-112;
#X connect 0 0 2 0;
#X connect 1 0 4 0;
#X connect 3 0 1 0;
#X connect 4 0 0 0;
#X restore 91 174 pd r3;
#N canvas 222 275 223 242 r4 0;
#X floatatom 15 127 12 0 0 0 - - -;
#X obj 15 152 outlet;
#X obj 15 11 inlet;
#X floatatom 46 63 5 0 0 0 - - -;
#X obj 15 36 expr (log($f1+84))/2.303;
#X obj 16 96 expr ((($f1*112)/2.3))-99;
#X connect 0 0 1 0;
#X connect 2 0 4 0;
#X connect 4 0 3 0;
#X connect 4 0 5 0;
#X connect 5 0 0 0;
#X restore 141 174 pd r4;
#N canvas 222 275 247 227 r5 0;
#X floatatom 15 123 12 0 0 0 - - -;
#X obj 15 148 outlet;
#X obj 15 11 inlet;
#X obj 15 41 expr (log($f1+86))/2.303;
#X floatatom 48 69 5 0 0 0 - - -;
#X obj 14 93 expr ((($f1*112)/2.3))-99;
#X connect 0 0 1 0;
#X connect 2 0 3 0;
#X connect 3 0 4 0;
#X connect 3 0 5 0;
#X connect 5 0 0 0;
#X restore 191 174 pd r5;
#N canvas 605 173 250 247 r6 0;
#X floatatom 15 172 12 0 0 0 - - -;
#X obj 15 197 outlet;
#X obj 15 11 inlet;
#X obj 15 41 expr (($f1+0.02)*50);
#X obj 15 71 expr (log($f1+50))/2.303;
#X obj 15 140 expr (($f1*112)/2)-100;
#X connect 0 0 1 0;
#X connect 2 0 3 0;
#X connect 3 0 4 0;
#X connect 4 0 5 0;
#X connect 5 0 0 0;
#X restore 241 173 pd r6;
#X text -4 328 x;
#X text 45 329 y;
#X text 95 329 z;
#X text 139 329 roll;
#X text 184 329 pitch;
#X text 12 345 acceleration;
#X text 142 346 orientation;
#X text -10 337 --------------------;
#X text 139 337 ------------;
#X text 239 337 ------------;
#X obj 433 109 cnv 15 80 35 empty empty empty 20 12 0 14 -203904 -66577
0;
#X obj 433 149 cnv 15 80 35 empty empty empty 20 12 0 14 -203904 -66577
0;
#X obj 433 76 cnv 15 80 20 empty empty empty 20 12 0 14 -262144 -66577
0;
#X text 451 76 Buttons;
#X obj 300 144 outlet;
#X obj 320 -5 unpack s f;
#X obj 441 120 tgl 15 0 empty empty empty 17 7 0 10 -262144 -1 -1 0
1;
#X obj 441 160 tgl 15 0 empty empty empty 17 7 0 10 -262144 -1 -1 0
1;
#X obj 320 -35 routeOSC /button;
#X obj 5 -5 inlet;
#X obj 5 25 routeOSC /nunchuk;
#X obj 5 55 routeOSC /acc /orientation /joystick;
#X text 246 329 x;
#X text 295 329 y;
#X text 249 345 joystick;
#N canvas 605 173 250 247 r7 0;
#X floatatom 15 172 12 0 0 0 - - -;
#X obj 15 197 outlet;
#X obj 15 11 inlet;
#X obj 15 41 expr (($f1+0.02)*50);
#X obj 15 71 expr (log($f1+50))/2.303;
#X obj 15 140 expr (($f1*112)/2)-100;
#X connect 0 0 1 0;
#X connect 2 0 3 0;
#X connect 3 0 4 0;
#X connect 4 0 5 0;
#X connect 5 0 0 0;
#X restore 291 173 pd r7;
#X obj 352 85 select /c;
#X obj 352 125 select /z;
#X text 476 120 c;
#X text 476 160 Z;
#X connect 2 0 3 0;
#X connect 2 1 5 0;
#X connect 2 2 4 0;
#X connect 3 0 24 0;
#X connect 3 0 9 0;
#X connect 4 0 26 0;
#X connect 4 0 15 0;
#X connect 5 0 25 0;
#X connect 5 0 13 0;
#X connect 6 0 29 0;
#X connect 6 0 21 0;
#X connect 7 0 44 0;
#X connect 7 0 55 0;
#X connect 8 0 6 0;
#X connect 8 1 7 0;
#X connect 10 0 27 0;
#X connect 10 0 17 0;
#X connect 11 0 28 0;
#X connect 11 0 19 0;
#X connect 12 0 10 0;
#X connect 12 1 11 0;
#X connect 24 0 0 0;
#X connect 25 0 14 0;
#X connect 26 0 16 0;
#X connect 27 0 18 0;
#X connect 28 0 20 0;
#X connect 29 0 22 0;
#X connect 45 0 56 0;
#X connect 45 0 57 0;
#X connect 48 0 45 0;
#X connect 49 0 50 0;
#X connect 50 0 51 0;
#X connect 51 0 2 0;
#X connect 51 1 12 0;
#X connect 51 2 8 0;
#X connect 51 3 48 0;
#X connect 55 0 23 0;
#X connect 56 0 46 0;
#X connect 57 0 47 0;
#X restore 135 55 pd unpack_Nunchuk;
#X text 45 87 Juan Ignacio Mendoza - 2013;
#X connect 0 0 3 0;
#X connect 0 0 4 0;
#X connect 1 0 0 0;
