#N canvas 97 17 642 291 10;
#X obj 142 14 tgl 15 0 empty empty empty 17 7 0 10 -262144 -1 -1 0
1;
#X obj 406 140 bng 15 250 50 0 \$0-s_bng_CHH \$0-r_bng_CHH empty 17
7 0 10 -262144 -1 -262144;
#X obj 406 154 bng 15 250 50 0 \$0-s_bng_SNR \$0-r_bng_SNR empty 17
7 0 10 -262144 -1 -262144;
#X obj 406 168 bng 15 250 50 0 \$0-s_bng_KCK \$0-r_bng_KCK empty 17
7 0 10 -262144 -1 -262144;
#X text 82 255 Juan Ignacio Mendoza G. - 2021;
#N canvas 191 265 572 295 synths 0;
#X obj 447 165 efficient-kick;
#X obj 215 266 dac~;
#X obj 337 164 efficient-snare;
#X obj 216 225 *~ 0.5;
#X obj 117 163 efficient-fmhh;
#X obj 6 163 efficient-fmride;
#X msg 117 133 2;
#X msg 227 133 1;
#X obj 447 13 r \$0-seq_row_5;
#X obj 337 13 r \$0-seq_row_4;
#X obj 227 13 r \$0-seq_row_3;
#X obj 117 13 r \$0-seq_row_2;
#X obj 6 13 r \$0-seq_row_1;
#X obj 457 105 r \$0-s_bng_KCK;
#X obj 347 105 r \$0-s_bng_SNR;
#X obj 126 105 r \$0-s_bng_OHH;
#X obj 238 105 r \$0-s_bng_CHH;
#X obj 16 105 r \$0-s_bng_RDE;
#X obj 457 75 s \$0-r_bng_KCK;
#N canvas 125 238 170 191 flash 0;
#X obj 61 156 outlet;
#X obj 61 16 inlet;
#X msg 61 126 color \$1 22 0;
#X msg 61 86 1;
#X msg 11 86 0;
#X obj 11 56 del 200;
#X connect 1 0 3 0;
#X connect 1 0 5 0;
#X connect 2 0 0 0;
#X connect 3 0 2 0;
#X connect 4 0 2 0;
#X connect 5 0 4 0;
#X restore 457 45 pd flash;
#N canvas 125 238 170 191 flash 0;
#X obj 61 156 outlet;
#X obj 61 16 inlet;
#X msg 61 126 color \$1 22 0;
#X msg 61 86 1;
#X msg 11 86 0;
#X obj 11 56 del 200;
#X connect 1 0 3 0;
#X connect 1 0 5 0;
#X connect 2 0 0 0;
#X connect 3 0 2 0;
#X connect 4 0 2 0;
#X connect 5 0 4 0;
#X restore 347 45 pd flash;
#N canvas 125 238 170 191 flash 0;
#X obj 61 156 outlet;
#X obj 61 16 inlet;
#X msg 61 126 color \$1 22 0;
#X msg 61 86 1;
#X msg 11 86 0;
#X obj 11 56 del 200;
#X connect 1 0 3 0;
#X connect 1 0 5 0;
#X connect 2 0 0 0;
#X connect 3 0 2 0;
#X connect 4 0 2 0;
#X connect 5 0 4 0;
#X restore 237 45 pd flash;
#N canvas 125 238 170 191 flash 0;
#X obj 61 156 outlet;
#X obj 61 16 inlet;
#X msg 61 126 color \$1 22 0;
#X msg 61 86 1;
#X msg 11 86 0;
#X obj 11 56 del 200;
#X connect 1 0 3 0;
#X connect 1 0 5 0;
#X connect 2 0 0 0;
#X connect 3 0 2 0;
#X connect 4 0 2 0;
#X connect 5 0 4 0;
#X restore 127 45 pd flash;
#N canvas 125 238 170 191 flash 0;
#X obj 61 156 outlet;
#X obj 61 16 inlet;
#X msg 61 126 color \$1 22 0;
#X msg 61 86 1;
#X msg 11 86 0;
#X obj 11 56 del 200;
#X connect 1 0 3 0;
#X connect 1 0 5 0;
#X connect 2 0 0 0;
#X connect 3 0 2 0;
#X connect 4 0 2 0;
#X connect 5 0 4 0;
#X restore 17 45 pd flash;
#X obj 17 75 s \$0-r_bng_RDE;
#X obj 127 75 s \$0-r_bng_OHH;
#X obj 237 75 s \$0-r_bng_CHH;
#X obj 347 75 s \$0-r_bng_SNR;
#X connect 0 0 3 0;
#X connect 2 0 3 0;
#X connect 3 0 1 0;
#X connect 3 0 1 1;
#X connect 4 0 3 0;
#X connect 5 0 3 0;
#X connect 6 0 4 0;
#X connect 7 0 4 0;
#X connect 8 0 0 0;
#X connect 8 0 19 0;
#X connect 9 0 2 0;
#X connect 9 0 20 0;
#X connect 10 0 7 0;
#X connect 10 0 21 0;
#X connect 11 0 6 0;
#X connect 11 0 22 0;
#X connect 12 0 5 0;
#X connect 12 0 23 0;
#X connect 13 0 0 0;
#X connect 14 0 2 0;
#X connect 15 0 6 0;
#X connect 16 0 7 0;
#X connect 17 0 5 0;
#X connect 19 0 18 0;
#X connect 20 0 27 0;
#X connect 21 0 26 0;
#X connect 22 0 25 0;
#X connect 23 0 24 0;
#X restore 142 228 pd synths;
#X obj 406 112 bng 15 250 50 0 \$0-s_bng_RDE \$0-r_bng_RDE empty 17
7 0 10 -262144 -1 -262144;
#X obj 406 126 bng 15 250 50 0 \$0-s_bng_OHH \$0-r_bng_OHH empty 17
7 0 10 -262144 -1 -262144;
#N canvas 237 353 381 202 clock 0;
#X obj 12 -75 inlet start/stop;
#X obj 129 -75 inlet bpm;
#X obj 12 54 cup;
#X obj 12 -36 trigger any bang;
#X msg 231 4 0;
#X msg 105 4 1;
#X obj 12 85 outlet trigger;
#X obj 12 4 metro;
#X obj 129 -36 expr 60000/$f1;
#X obj 311 55 s \$0-bpm;
#X obj 311 -55 loadbang;
#X obj 231 -55 r \$0-rewind;
#X msg 311 4 240;
#X connect 0 0 3 0;
#X connect 1 0 8 0;
#X connect 2 0 6 0;
#X connect 3 0 7 0;
#X connect 3 1 5 0;
#X connect 4 0 2 0;
#X connect 5 0 2 0;
#X connect 7 0 2 0;
#X connect 8 0 7 1;
#X connect 10 0 12 0;
#X connect 11 0 4 0;
#X connect 12 0 9 0;
#X restore 142 44 pd clock;
#X floatatom 187 14 5 0 0 0 - #0-bpm -;
#X obj 142 198 s \$0-rewind;
#X obj 142 84 seq_grid_5x16 \$0 2;
#X obj -122 84 seq_grid_5x16 \$0 1;
#X text 221 14 bpm;
#X text 75 14 start/stop;
#X text 425 111 ride;
#X text 425 125 open hihat;
#X text 425 139 closed hihat;
#X text 425 153 snare;
#X text 425 167 kick;
#X connect 0 0 8 0;
#X connect 8 0 11 0;
#X connect 8 0 12 0;
#X connect 9 0 8 1;
#X connect 11 0 10 0;
