#N canvas 509 22 1111 468 10;
#X floatatom -99 -40 5 0 0 0 - - -;
#X floatatom -49 -40 5 0 0 0 - - -;
#X floatatom 1 -40 5 0 0 0 - - -;
#X floatatom 101 -40 5 0 0 0 - - -;
#X floatatom 151 -40 5 0 0 0 - - -;
#X floatatom 201 -40 5 0 0 0 - - -;
#X floatatom 251 -40 5 0 0 0 - - -;
#X floatatom 301 -40 5 0 0 0 - - -;
#X obj -99 0 t a a;
#X text -96 -59 hpos;
#X text -45 -59 vpos;
#X text 141 -215 Juan Ignacio Mendoza - 2013;
#X obj 601 99 bng 15 250 50 0 empty empty empty 17 7 0 10 -262144 -1
-1;
#X obj -49 0 t a a;
#X obj 1 0 t a a;
#X obj 101 0 t a a;
#X obj 151 0 t a a;
#X obj 201 0 t a a;
#X obj 251 0 t a a;
#X obj 301 0 t a a;
#X msg -99 -110 100;
#X msg -49 -110 100;
#X text -223 -111 default values --->;
#X text -313 -41 number boxes to change values --->;
#X text -330 -53 2) click and move mouse over;
#X msg 151 -110 0;
#X obj -99 -160 bng 15 250 50 0 \$0-dt-setbng empty empty 17 7 0 10
-262144 -1 -1;
#X text -96 -90 1;
#X text -46 -90 2;
#X text 4 -90 3;
#X text 104 -90 5;
#X text 124 -90 6;
#X text 154 -90 7;
#X text 204 -90 8;
#X text 304 -90 10;
#X text 4 -59 size;
#X text 154 -59 x;
#X floatatom 351 -40 5 0 0 0 - - -;
#X floatatom 401 -40 5 0 0 0 - - -;
#X floatatom 451 -40 5 0 0 0 - - -;
#X text 453 -59 col;
#X obj 351 0 t a a;
#X obj 401 0 t a a;
#X obj 451 0 t a a;
#X msg 251 -110 0;
#X text 204 -59 y;
#X text 254 -59 font;
#X text 304 -59 size;
#X text 354 -90 11;
#X text 404 -90 12;
#X text 454 -90 13;
#X text 254 -90 9;
#X text 403 -59 col;
#X text 403 -70 btn;
#X text 354 -59 bgcol;
#X msg 401 -110 -1;
#X msg 201 -110 -12;
#X msg 301 -110 18;
#X text 114 -90 -;
#X text 104 -59 snd/rcv;
#X msg 101 -110 1;
#X msg -151 99 clear;
#X msg 351 -110 10;
#X text 354 -70 btn;
#X text 177 -235 Dynamic Toggle;
#N canvas 50 22 450 300 sub-dt 1;
#X obj 100 100 tgl 50 0 sdt-1 rdt-1 text 0 -12 0 18 -233017 -1 -1 0
1;
#X restore -120 -201 pd sub-dt;
#X obj -99 199 s pd-sub-dt;
#X obj 601 129 s \$0-trig_dt;
#X obj -210 -71 r \$0-trig_dt;
#X text 204 -70 label;
#X text 154 -70 label;
#X text 254 -70 label;
#X text 304 -70 label;
#X text 453 -70 label;
#X obj 601 0 t a a;
#X text 599 -75 something;
#X text 599 -64 here:;
#X obj 601 -41 entry 159 19 grey70 black;
#X msg 681 -134 set text;
#X obj 681 -197 r \$0-dc-setbng;
#X obj 678 30 s \$0-dc-r;
#X obj 678 0 select return;
#X text 599 -110 these --->;
#X text 599 -158 by;
#X text 599 -122 of;
#X text 599 -134 one --->;
#X text 599 -146 clicking;
#X text 599 -98 or;
#X text 599 -86 by typing;
#X text 599 -170 change label;
#X msg 691 -110 set hello;
#X msg 1 -110 50;
#X msg 451 -110 -1;
#X obj -99 99 pack f f f f f f f f f f f f f f f s;
#X floatatom 501 -40 5 0 0 0 - - -;
#X floatatom 551 -40 5 0 0 0 - - -;
#X obj 501 0 t a a;
#X obj 551 0 t a a;
#X text 504 -90 14;
#X text 554 -90 15;
#X text 694 -90 16;
#X msg -99 159 obj \$1 \$2 toggle \$3 \$4 sdt-\$5 rdt-\$6 \$16 \$7
\$8 \$9 \$10 \$11 \$12 \$13 \$14 \$15;
#X floatatom 51 -40 5 0 0 0 - - -;
#X text 54 -90 4;
#X msg 51 -110 0;
#X obj 51 0 t a a;
#X text 553 -59 value;
#X msg 551 -110 1;
#X msg 501 -110 0;
#X text 54 -59 init;
#N canvas 1008 236 125 225 t 0;
#X obj 42 28 t b a;
#X obj 42 -122 inlet;
#X obj 42 58 outlet;
#X obj -18 -2 t b b;
#X msg -18 28 clear;
#X obj -18 -92 r \$0-dc-r;
#X connect 0 0 2 0;
#X connect 0 1 2 0;
#X connect 1 0 0 0;
#X connect 3 0 4 0;
#X connect 3 1 0 0;
#X connect 4 0 2 0;
#X connect 5 0 3 0;
#X restore 681 -67 pd t;
#X obj -89 129 print dt;
#X obj 201 -170 r \$0-dt-setbng;
#X text -330 -161 1) click to apply default values --->;
#X connect 0 0 8 0;
#X connect 1 0 13 0;
#X connect 2 0 14 0;
#X connect 3 0 15 0;
#X connect 4 0 16 0;
#X connect 5 0 17 0;
#X connect 6 0 18 0;
#X connect 7 0 19 0;
#X connect 8 0 93 0;
#X connect 8 1 61 0;
#X connect 12 0 67 0;
#X connect 13 0 12 0;
#X connect 13 1 93 1;
#X connect 14 0 12 0;
#X connect 14 1 93 2;
#X connect 15 0 12 0;
#X connect 15 1 93 4;
#X connect 15 1 93 5;
#X connect 16 0 12 0;
#X connect 16 1 93 6;
#X connect 17 0 12 0;
#X connect 17 1 93 7;
#X connect 18 0 12 0;
#X connect 18 1 93 8;
#X connect 19 0 12 0;
#X connect 19 1 93 9;
#X connect 20 0 0 0;
#X connect 21 0 1 0;
#X connect 25 0 4 0;
#X connect 37 0 41 0;
#X connect 38 0 42 0;
#X connect 39 0 43 0;
#X connect 41 0 12 0;
#X connect 41 1 93 10;
#X connect 42 0 12 0;
#X connect 42 1 93 11;
#X connect 43 0 12 0;
#X connect 43 1 93 12;
#X connect 44 0 6 0;
#X connect 55 0 38 0;
#X connect 56 0 5 0;
#X connect 57 0 7 0;
#X connect 60 0 3 0;
#X connect 61 0 66 0;
#X connect 62 0 37 0;
#X connect 68 0 0 0;
#X connect 74 0 12 0;
#X connect 74 1 93 15;
#X connect 77 0 74 0;
#X connect 77 1 81 0;
#X connect 78 0 110 0;
#X connect 79 0 78 0;
#X connect 81 0 80 0;
#X connect 90 0 110 0;
#X connect 91 0 2 0;
#X connect 92 0 39 0;
#X connect 93 0 101 0;
#X connect 93 0 111 0;
#X connect 94 0 96 0;
#X connect 95 0 97 0;
#X connect 96 0 12 0;
#X connect 96 1 93 13;
#X connect 97 0 12 0;
#X connect 97 1 93 14;
#X connect 101 0 66 0;
#X connect 102 0 105 0;
#X connect 104 0 102 0;
#X connect 105 0 12 0;
#X connect 105 1 93 3;
#X connect 107 0 95 0;
#X connect 108 0 94 0;
#X connect 110 0 77 0;
#X connect 112 0 21 0;
#X connect 112 0 91 0;
#X connect 112 0 60 0;
#X connect 112 0 25 0;
#X connect 112 0 56 0;
#X connect 112 0 44 0;
#X connect 112 0 57 0;
#X connect 112 0 20 0;
#X connect 112 0 62 0;
#X connect 112 0 55 0;
#X connect 112 0 92 0;
#X connect 112 0 108 0;
#X connect 112 0 107 0;
#X connect 112 0 104 0;
