#N canvas 460 22 1017 361 10;
#X msg -189 110 clear;
#X floatatom -99 -40 5 0 0 0 - - -;
#X floatatom -49 -40 5 0 0 0 - - -;
#X floatatom 1 -40 5 0 0 0 - - -;
#X floatatom 51 -40 5 0 0 0 - - -;
#X floatatom 101 -40 5 0 0 0 - - -;
#X floatatom 151 -40 5 0 0 0 - - -;
#X floatatom 201 -40 5 0 0 0 - - -;
#X floatatom 251 -40 5 0 0 0 - - -;
#X floatatom 301 -40 5 0 0 0 - - -;
#X floatatom 351 -40 5 0 0 0 - - -;
#X floatatom 401 -40 5 0 0 0 - - -;
#X floatatom 451 -40 5 0 0 0 - - -;
#X obj -99 -9 t a a;
#X text 54 -59 hsize;
#X text 4 -59 sqr;
#X text 105 -59 vsize;
#X text -96 -59 hpos;
#X text -45 -59 vpos;
#X text 254 -59 vpos;
#X text 254 -70 txt;
#X text 204 -59 hpos;
#X text 204 -70 txt;
#X text 154 -59 rcv;
#X text 154 -70 snd/;
#X text 354 -70 txt;
#X text 354 -59 size;
#X text 404 -59 col;
#X text -96 -70 cnv;
#X text -45 -70 cnv;
#X text 4 -70 cnv;
#X text 54 -70 cnv;
#X text 104 -70 cnv;
#X text 404 -70 cnv;
#X text 453 -70 txt;
#X text 453 -59 col;
#X text 304 -70 txt;
#X text 304 -59 font;
#X obj -139 110 print;
#X obj -99 80 pack f f f f f f f f f f f f s;
#X msg -99 110 obj \$1 \$2 cnv \$3 \$4 \$5 scnv-\$6 rcnv-\$6 \$13 \$7
\$8 \$9 \$10 \$11 \$12;
#X text 152 -188 Dynamic Canvas;
#X text 115 -168 Juan Ignacio Mendoza - 2013;
#X obj 501 110 s \$0-trig;
#X obj -170 -71 r \$0-trig;
#X obj 501 80 bng 15 250 50 0 empty empty empty 17 7 0 10 -262144 -1
-1;
#X obj -49 -9 t a a;
#X obj 1 -9 t a a;
#X obj 51 -9 t a a;
#X obj 101 -9 t a a;
#X obj 151 -9 t a a;
#X obj 201 -9 t a a;
#X obj 251 -9 t a a;
#X obj 301 -9 t a a;
#X obj 351 -9 t a a;
#X obj 401 -9 t a a;
#X obj 451 -9 t a a;
#X obj 501 -9 t a a;
#X msg -99 -100 100;
#X msg -49 -100 100;
#X msg 51 -100 100;
#X msg 101 -100 100;
#X text -223 -101 default values --->;
#X text -313 -41 number boxes to change values --->;
#X text -331 -53 2) click and move mouse over;
#X msg 1 -100 20;
#X msg 151 -100 1;
#X msg 201 -100 10;
#X msg 251 -100 10;
#X msg 301 -100 0;
#X msg 351 -100 12;
#X msg 401 -100 1;
#X msg 451 -100 0;
#X text 499 -77 something;
#X text 499 -172 change text;
#X text 499 -66 here:;
#X obj 501 -43 entry 159 19 grey70 black;
#X obj -99 -150 bng 15 250 50 0 \$0-dcnv-setbng empty empty 17 7 0
10 -262144 -1 -1;
#X msg 581 -136 set text;
#X obj 581 -169 r \$0-dc-setbng;
#X msg 591 -112 set hello;
#X obj 578 21 s \$0-dc-r;
#X obj 578 -9 select return;
#X text 499 -112 these --->;
#X text 499 -160 by;
#X text 499 -124 of;
#X text 499 -136 one --->;
#X text 499 -148 clicking;
#X text 499 -100 or;
#X text 499 -88 by typing;
#N canvas 0 22 450 300 sub-dcnv 1;
#X obj 100 100 cnv 20 100 100 scnv-1 rcnv-1 text 10 10 0 12 -166441
-262144 0;
#X restore -120 -181 pd sub-dcnv;
#X obj -99 150 s pd-sub-dcnv;
#X obj 528 21 l2s;
#N canvas 1008 236 121 166 t 0;
#X obj 42 28 t b a;
#X obj 42 -62 inlet;
#X obj 42 58 outlet;
#X obj -18 -2 t b b;
#X msg -18 28 clear;
#X obj -18 -32 r \$0-dc-r;
#X connect 0 0 2 0;
#X connect 0 1 2 0;
#X connect 1 0 0 0;
#X connect 3 0 4 0;
#X connect 3 1 0 0;
#X connect 4 0 2 0;
#X connect 5 0 3 0;
#X restore 581 -69 pd t;
#X obj -49 -150 r \$0-dcnv-setbng;
#X text -331 -151 1) click to apply default values --->;
#X connect 0 0 91 0;
#X connect 1 0 13 0;
#X connect 2 0 46 0;
#X connect 3 0 47 0;
#X connect 4 0 48 0;
#X connect 5 0 49 0;
#X connect 6 0 50 0;
#X connect 7 0 51 0;
#X connect 8 0 52 0;
#X connect 9 0 53 0;
#X connect 10 0 54 0;
#X connect 11 0 55 0;
#X connect 12 0 56 0;
#X connect 13 0 39 0;
#X connect 13 1 0 0;
#X connect 39 0 40 0;
#X connect 39 0 38 0;
#X connect 40 0 91 0;
#X connect 44 0 1 0;
#X connect 45 0 43 0;
#X connect 46 0 45 0;
#X connect 46 1 39 1;
#X connect 47 0 45 0;
#X connect 47 1 39 2;
#X connect 48 0 45 0;
#X connect 48 1 39 3;
#X connect 49 0 45 0;
#X connect 49 1 39 4;
#X connect 50 0 45 0;
#X connect 50 1 39 5;
#X connect 51 0 45 0;
#X connect 51 1 39 6;
#X connect 52 0 45 0;
#X connect 52 1 39 7;
#X connect 53 0 45 0;
#X connect 53 1 39 8;
#X connect 54 0 45 0;
#X connect 54 1 39 9;
#X connect 55 0 45 0;
#X connect 55 1 39 10;
#X connect 56 0 45 0;
#X connect 56 1 39 11;
#X connect 57 0 45 0;
#X connect 57 1 92 0;
#X connect 58 0 1 0;
#X connect 59 0 2 0;
#X connect 60 0 4 0;
#X connect 61 0 5 0;
#X connect 65 0 3 0;
#X connect 66 0 6 0;
#X connect 67 0 7 0;
#X connect 68 0 8 0;
#X connect 69 0 9 0;
#X connect 70 0 10 0;
#X connect 71 0 11 0;
#X connect 72 0 12 0;
#X connect 76 0 57 0;
#X connect 76 1 82 0;
#X connect 78 0 93 0;
#X connect 79 0 78 0;
#X connect 80 0 93 0;
#X connect 82 0 81 0;
#X connect 92 0 39 12;
#X connect 93 0 76 0;
#X connect 94 0 59 0;
#X connect 94 0 65 0;
#X connect 94 0 60 0;
#X connect 94 0 61 0;
#X connect 94 0 66 0;
#X connect 94 0 67 0;
#X connect 94 0 68 0;
#X connect 94 0 69 0;
#X connect 94 0 70 0;
#X connect 94 0 71 0;
#X connect 94 0 72 0;
#X connect 94 0 58 0;
