#N canvas 610 199 684 380 16;
#X obj 71 19 bng 15 250 50 0 empty empty empty 17 7 0 10 -262144 -1
-1;
#X floatatom 74 81 5 0 0 0 - - -;
#N canvas 404 122 398 546 list-buffer 0;
#X obj -100 424 list-rot 1;
#X obj -46 312 list;
#X obj -90 360 list prepend;
#X obj -98 473 list split;
#X obj 166 242 list;
#X obj 73 155 until;
#X obj 49 294 list;
#X msg 78 201 0;
#X obj 77 242 list;
#X obj 73 95 t b a b a;
#X obj -100 514 outlet;
#X obj 71 37 inlet size;
#X obj -83 35 inlet element;
#X connect 0 0 3 0;
#X connect 1 0 2 1;
#X connect 2 0 0 0;
#X connect 3 0 1 0;
#X connect 3 0 10 0;
#X connect 4 0 8 1;
#X connect 5 0 7 0;
#X connect 6 0 2 1;
#X connect 7 0 8 0;
#X connect 8 0 4 0;
#X connect 8 0 6 1;
#X connect 9 0 6 0;
#X connect 9 1 5 0;
#X connect 9 2 4 0;
#X connect 9 3 3 1;
#X connect 11 0 9 0;
#X connect 12 0 2 0;
#X restore 80 157 pd list-buffer;
#X msg 292 25 5;
#X msg 342 24 8;
#X obj 82 240 print;
#X connect 0 0 1 0;
#X connect 1 0 2 0;
#X connect 2 0 5 0;
#X connect 3 0 2 1;
#X connect 4 0 2 1;
