#N canvas 996 20 127 333 16;
#X obj 16 -219 tgl 20 0 \$0-mtgl_snd \$0-mtgl_rcv empty 17 7 0 10 -262144
-1 -1 0 1;
#X obj 16 -186 vsl 20 215 35 145 0 0 \$0-ms_snd \$0-ms_rcv empty 0
-9 0 10 -262144 -1 -1 18622 0;
#X floatatom 16 43 5 0 0 0 - #0-ma_rcv #0-ma_snd;
#X text 70 43 bpm;
#X obj 39 -188 vradio 20 1 0 11 \$0-mr_snd \$0-mr_rcv empty 0 -8 0
10 -262144 -1 -1 1;
#N canvas 89 283 349 377 engine 0;
#X obj -14 -31 loadbang;
#X msg -14 59 \; pd dsp \$1;
#X obj -14 29 tgl 15 0 empty empty empty 17 7 0 10 -262144 -1 -1 1
1;
#X msg -14 -1 1;
#X obj -113 -161 metro;
#X obj -190 -11 osc~;
#X msg -190 -61 2000;
#X obj -113 -131 t b b;
#X obj -14 -211 expr 60000/$f1;
#X floatatom -14 -181 5 0 0 0 - - -;
#X obj -190 29 *~;
#X obj -190 -241 r \$0-mtgl_snd;
#N canvas 0 0 520 420 control 0;
#X msg -95 -18 set \$1;
#X obj 287 12 s \$0-ms_rcv;
#X msg 287 -18 set \$1;
#X obj -95 12 s \$0-ma_rcv;
#X obj -95 -318 r \$0-ms_snd;
#X obj 27 -108 r \$0-mr_snd;
#X obj 27 -68 expr (11 - $f1) * 10 + 30;
#X obj 27 72 outlet;
#X msg 27 -188 set \$1;
#X obj 27 -158 s \$0-mr_rcv;
#X obj 27 -218 i;
#X obj 27 -248 expr 11 - ($f1 - 35)/10;
#X obj -95 -288 i;
#X obj 287 -318 r \$0-ma_snd;
#X obj 35 -18 r \$0-ms_snd;
#X obj 77 12 r \$0-ma_snd;
#X obj 27 12 i;
#X obj 157 -218 loadbang;
#X msg 157 -188 8;
#X connect 0 0 3 0;
#X connect 2 0 1 0;
#X connect 4 0 12 0;
#X connect 5 0 6 0;
#X connect 6 0 2 0;
#X connect 6 0 0 0;
#X connect 6 0 16 0;
#X connect 8 0 9 0;
#X connect 10 0 8 0;
#X connect 11 0 10 0;
#X connect 12 0 11 0;
#X connect 12 0 0 0;
#X connect 13 0 11 0;
#X connect 13 0 2 0;
#X connect 14 0 16 0;
#X connect 15 0 7 0;
#X connect 16 0 7 0;
#X connect 17 0 18 0;
#X connect 18 0 9 0;
#X restore -14 -241 pd control;
#X obj -113 -11 line~;
#X obj -190 79 dac~;
#X text -187 108 Juan Ignacio Mendoza Garay - 2018;
#X obj -113 -90 del 20;
#X msg -113 -61 0 20;
#X msg -13 -61 1 2;
#X connect 0 0 3 0;
#X connect 2 0 1 0;
#X connect 3 0 2 0;
#X connect 4 0 7 0;
#X connect 5 0 10 0;
#X connect 6 0 5 0;
#X connect 7 0 16 0;
#X connect 7 1 18 0;
#X connect 8 0 4 1;
#X connect 8 0 9 0;
#X connect 10 0 14 1;
#X connect 10 0 14 0;
#X connect 11 0 4 0;
#X connect 11 0 6 0;
#X connect 12 0 8 0;
#X connect 13 0 10 1;
#X connect 16 0 17 0;
#X connect 17 0 13 0;
#X connect 18 0 13 0;
#X restore 16 76 pd engine;
#X text 62 -70 80;
#X text 62 -110 100;
#X text 62 -130 110;
#X text 62 -150 120;
#X text 62 -170 130;
#X text 62 -90 90;
#X text 63 10 40;
#X text 63 -10 50;
#X text 62 -30 60;
#X text 62 -50 70;
#X text 62 -190 140;
#X text 40 -223 on/off;
