#N canvas 588 67 435 219 10;
#N canvas 568 23 419 621 engine 0;
#X msg 308 320 range 0 \$1;
#X obj 178 350 pack s 0;
#X msg 178 380 open \$1 \$2;
#X msg 178 290 set \$1;
#X obj 20 261 s \$0stop;
#X obj 1 231 sel 1 0;
#X obj 48 410 gate;
#X obj 88 430 r \$0stop;
#X obj 48 432 bng 15 250 50 0 empty empty empty 17 7 0 10 -262144 -1
-1;
#X obj 1 200 r \$0playpause;
#X obj 265 524 bng 15 250 50 0 empty empty empty 17 7 0 10 -262144
-1 -1;
#X obj 308 500 s \$0iscroll;
#X obj 265 555 s \$0end;
#X obj 2 1 cnv 10 410 188 empty empty Middlesizedaudioplayer 10 15
0 15 -58931 -176064 0;
#N canvas 65 64 285 463 chronometer 0;
#X obj 136 17 sampstoms~;
#X msg -14 37 0;
#X obj -14 -33 loadbang;
#X obj 13 387 s \$0elapsedtime;
#X obj 136 -33 r \$0synchro;
#X text 15 36 reset;
#X obj 153 67 / 1000;
#X obj 173 227 mod 10;
#X obj 123 197 div;
#X obj 123 167 / 10;
#X obj 43 137 / 60;
#X obj 123 227 mod 6;
#X obj 63 227 mod 10;
#X obj 13 197 div;
#X obj 13 167 / 10;
#X obj 13 227 mod 6;
#X obj 153 97 div;
#X obj 223 167 / 100;
#X msg 13 357 label \$1\$2:\$3\$4:\$5;
#X obj 13 327 pack f f f f f;
#X obj 223 227 mod 10;
#X text 30 405 to display;
#X obj 6 2 r \$0tostart;
#X obj -14 67 t b f;
#X connect 0 1 6 0;
#X connect 0 1 17 0;
#X connect 1 0 23 0;
#X connect 2 0 1 0;
#X connect 4 0 0 0;
#X connect 6 0 16 0;
#X connect 7 0 19 3;
#X connect 8 0 11 0;
#X connect 9 0 8 0;
#X connect 10 0 14 0;
#X connect 10 0 12 0;
#X connect 11 0 19 2;
#X connect 12 0 19 1;
#X connect 13 0 15 0;
#X connect 14 0 13 0;
#X connect 15 0 19 0;
#X connect 16 0 10 0;
#X connect 16 0 9 0;
#X connect 16 0 7 0;
#X connect 17 0 20 0;
#X connect 18 0 3 0;
#X connect 19 0 18 0;
#X connect 20 0 19 4;
#X connect 22 0 1 0;
#X connect 23 0 19 0;
#X connect 23 1 16 0;
#X connect 23 1 17 0;
#X restore 322 200 pd chronometer;
#X symbolatom 178 321 4 0 0 0 - - -;
#X text 123 585 Juan Ignacio Mendoza - 2012;
#X obj 91 200 r \$0start;
#X obj 40 145 bng 20 250 50 0 \$0openpanel empty empty 27 10 0 10 -204786
-258113 -4032;
#X obj 200 145 tgl 20 0 \$0playpause \$0end empty 22 10 0 10 -203904
-1 -232576 0 1;
#X obj 120 145 bng 20 250 50 0 \$0tostart empty empty 22 10 0 10 -228856
-129081 -232576;
#X obj 293 150 hsl 95 15 0 1 0 1 \$0level nononorcv empty 17 8 0 10
-204800 -1 -1 7800 1;
#X obj 9 31 cnv 15 396 106 \$0VU empty empty 20 12 0 14 -1 -66577 0
;
#X obj 19 169 cnv 15 36 18 empty empty load 1 8 0 12 -58931 -262144
0;
#X obj 56 169 cnv 15 30 18 empty empty file 1 8 0 12 -58931 -262144
0;
#X obj 109 169 cnv 15 44 18 empty empty rewind 1 8 0 12 -58931 -262144
0;
#X obj 172 169 cnv 15 72 18 empty empty play/pause 1 8 0 12 -58931
-262144 0;
#X obj 322 170 cnv 15 44 18 empty empty level 1 8 0 12 -58931 -262144
0;
#X obj 36 64 cnv 15 364 48 \$0VU empty empty 20 12 0 14 -262144 -66577
0;
#X obj 38 123 hsl 360 10 0 4.50966e+06 0 0 \$0oscroll \$0iscroll empty
-2 -8 0 10 -228856 -1 -1 0 0;
#N canvas 60 37 450 300 (subpatch) 0;
#X array array2 4.50966e+06 float 2;
#X coords 0 -1 4.50966e+06 1 362 44 1;
#X restore 37 66 graph;
#X obj 15 44 vu 15 80 \$0VU empty -1 -8 0 10 -66577 -1 0 0;
#N canvas 60 37 450 300 (subpatch) 0;
#X array array1 4.50966e+06 float 2;
#X coords 0 -1 4.50966e+06 1 362 44 1;
#X restore 37 66 graph;
#X symbolatom 37 36 60 0 0 0 - #0textdisplay nononosnd;
#X obj 335 6 cnv 15 70 24 empty empty empty 20 12 0 14 -1 -66577 0
;
#X obj 342 12 cnv 15 57 18 empty \$0elapsedtime 00:00:0 4 9 0 12 -66577
-204800 0;
#N canvas 1 22 319 375 scrollsync 0;
#X msg 48 2 0;
#X msg 16 2 1;
#X obj 48 -58 r \$0stop;
#X obj 16 -88 r \$0start;
#X msg 115 122 0;
#X obj 115 -88 loadbang;
#X obj 60 -28 r \$0end;
#X obj 175 32 r \$0samplerate;
#X msg 35 212 set \$1;
#X obj 35 182 +;
#X obj 35 152 i;
#X msg 175 92 set \$1;
#X obj 35 242 outlet;
#X text 27 257 to scroll;
#X obj -45 122 r \$0scrollto;
#X obj 16 62 t b b b;
#X obj 175 242 s \$0synchro;
#X text 168 258 to chronometer;
#X msg 115 -48 set \$0;
#X msg 175 122 4410;
#X obj 175 62 / 10;
#X obj 16 32 metro 100;
#X connect 0 0 21 0;
#X connect 1 0 21 0;
#X connect 2 0 0 0;
#X connect 3 0 1 0;
#X connect 4 0 10 1;
#X connect 4 0 16 0;
#X connect 5 0 18 0;
#X connect 6 0 0 0;
#X connect 7 0 20 0;
#X connect 8 0 12 0;
#X connect 8 0 4 0;
#X connect 9 0 8 0;
#X connect 10 0 9 0;
#X connect 11 0 19 0;
#X connect 14 0 8 0;
#X connect 15 0 19 0;
#X connect 15 1 10 0;
#X connect 15 2 4 0;
#X connect 18 0 4 0;
#X connect 19 0 9 1;
#X connect 20 0 11 0;
#X connect 21 0 15 0;
#X restore 328 470 pd scrollsync;
#X text 216 10 v0.1;
#N canvas 541 196 255 212 startup 0;
#X obj 108 42 samplerate~;
#X obj 108 12 loadbang;
#X obj 108 72 s \$0samplerate;
#X obj 18 12 loadbang;
#X msg 18 42 \; pd dsp 1;
#X connect 0 0 2 0;
#X connect 1 0 0 0;
#X connect 3 0 4 0;
#X restore 242 200 pd startup;
#X obj 178 495 readsf~ 2 1e+06;
#X obj 48 380 r \$0playpause;
#X obj 158 230 t b f;
#X obj 158 200 r \$0oscroll;
#X obj 223 320 r \$0scrollto;
#X obj 185 260 s \$0scrollto;
#X msg 48 460 start;
#X msg 88 460 stop;
#X obj 1 291 t f b;
#X obj 1 344 s \$0start;
#X obj 28 322 s \$0triggposition;
#X obj 199 439 r \$0triggposition;
#X obj 148 290 bng 15 250 50 0 empty empty empty 17 7 0 10 -262144
-1 -1;
#X obj 328 410 r \$0tostart;
#X msg 318 440 0;
#X obj 318 350 r \$0end;
#N canvas 106 88 283 274 dac_level_VU 0;
#X obj -48 -14 inlet~;
#X obj 12 -14 inlet~;
#X obj -48 106 *~;
#X obj 13 106 *~;
#X obj 72 76 line;
#X msg 72 46 \$1 30;
#X obj -29 236 dac~;
#X obj 72 16 r \$0level;
#X obj 72 176 expr ($f1+$f2)/2;
#X obj 72 146 env~;
#X obj 165 146 env~;
#X obj 72 236 s \$0VU;
#X obj 72 207 expr (($f1-98)/100)*112;
#X connect 0 0 2 0;
#X connect 1 0 3 0;
#X connect 2 0 6 0;
#X connect 2 0 9 0;
#X connect 3 0 6 1;
#X connect 3 0 10 0;
#X connect 4 0 2 1;
#X connect 4 0 3 1;
#X connect 5 0 4 0;
#X connect 7 0 5 0;
#X connect 8 0 12 0;
#X connect 9 0 8 0;
#X connect 10 0 8 1;
#X connect 12 0 11 0;
#X restore 134 555 pd dac_level_VU;
#X obj 318 380 delay 100;
#N canvas 12 22 450 447 open_file 0;
#X obj -60 233 split_path;
#X obj -65 333 soundfiler;
#X obj -75 -27 r \$0openpanel;
#X msg 12 107 \; array1 resize 1 \; array2 resize 1 \;;
#X msg -65 303 read -maxsize 1.5876e+08 \$1 array1 array2;
#X obj -75 33 openpanel;
#X obj 243 361 s \$0textdisplay;
#X msg 114 46 please wait until the image is displayed;
#X obj -65 363 outlet;
#X obj -75 393 outlet;
#X text -21 362 total size of the file in samples;
#X text -31 393 name of the file;
#X obj -75 73 t s b;
#X symbolatom 177 263 10 0 0 0 - - -;
#X obj -55 133 loadbang;
#X obj -55 193 mergefilename space;
#X msg -55 163 please load a WAV or AIFF audio file;
#X obj 243 97 mergefilename space;
#X obj 177 97 bng 15 250 50 0 empty empty empty 17 7 0 10 -262144 -1
-1;
#X obj 177 123 delay 1000;
#X obj -75 3 t b b;
#X connect 0 1 13 0;
#X connect 1 0 8 0;
#X connect 2 0 20 0;
#X connect 4 0 1 0;
#X connect 5 0 12 0;
#X connect 7 0 17 0;
#X connect 7 0 18 0;
#X connect 12 0 4 0;
#X connect 12 0 9 0;
#X connect 12 0 0 0;
#X connect 12 1 3 0;
#X connect 13 0 6 0;
#X connect 14 0 16 0;
#X connect 15 0 13 0;
#X connect 16 0 15 0;
#X connect 17 0 6 0;
#X connect 18 0 19 0;
#X connect 19 0 13 0;
#X connect 20 0 5 0;
#X connect 20 1 7 0;
#X restore 278 260 pd open_file;
#X connect 0 0 11 0;
#X connect 1 0 2 0;
#X connect 2 0 39 0;
#X connect 2 0 6 1;
#X connect 3 0 15 0;
#X connect 5 0 47 0;
#X connect 5 1 4 0;
#X connect 6 0 8 0;
#X connect 7 0 46 0;
#X connect 8 0 45 0;
#X connect 9 0 5 0;
#X connect 10 0 12 0;
#X connect 15 0 1 0;
#X connect 17 0 51 0;
#X connect 36 0 11 0;
#X connect 39 0 55 0;
#X connect 39 1 55 1;
#X connect 39 2 10 0;
#X connect 40 0 6 0;
#X connect 41 0 15 0;
#X connect 41 1 44 0;
#X connect 42 0 41 0;
#X connect 43 0 1 1;
#X connect 45 0 39 0;
#X connect 46 0 39 0;
#X connect 47 0 48 0;
#X connect 47 1 49 0;
#X connect 50 0 11 0;
#X connect 51 0 15 0;
#X connect 52 0 53 0;
#X connect 53 0 11 0;
#X connect 54 0 56 0;
#X connect 56 0 53 0;
#X connect 57 0 3 0;
#X connect 57 1 0 0;
#X coords 0 -1 1 1 412 190 2 0 0;
#X restore -63 -116 pd engine;
#X coords 0 0 1 1 425 65 0;
