#N canvas 341 225 668 457 10;
#X obj 9 67 makenote 64 250;
#X obj 9 407 noteout 1;
#X obj 309 127 mtof;
#X text 11 -19 ctrl-click over an object and select "help" to learn
how the object works;
#X obj 309 407 dac~;
#X obj 309 167 osc~;
#X obj 569 -13 loadbang;
#X msg 569 17 \; pd dsp 1;
#X obj 309 357 *~;
#X obj 399 159 vsl 15 128 0 1 0 0 empty empty empty 0 -9 0 10 -262144
-1 -1 0 1;
#X floatatom 399 298 5 0 0 0 - - -;
#X obj 309 207 *~;
#X obj 399 127 / 127;
#X text 440 127 MIDI values range from 0 to 127;
#X text 472 29 turn audio on;
#X text 307 87 This part is to test with Pd sound:;
#X floatatom 263 169 5 0 0 0 - - -;
#X msg 9 27 60;
#X msg 49 27 61;
#X msg 89 27 62;
#X text 118 25 <--- MIDI notes;
#X text 465 408 Juan Ignacio Mendoza - 2017;
#X connect 0 0 1 0;
#X connect 0 0 2 0;
#X connect 0 1 1 1;
#X connect 0 1 12 0;
#X connect 2 0 5 0;
#X connect 2 0 16 0;
#X connect 5 0 11 0;
#X connect 6 0 7 0;
#X connect 8 0 4 0;
#X connect 8 0 4 1;
#X connect 9 0 8 1;
#X connect 9 0 10 0;
#X connect 11 0 8 0;
#X connect 12 0 11 1;
#X connect 17 0 0 0;
#X connect 18 0 0 0;
#X connect 19 0 0 0;
