#N canvas 629 -1085 142 214 16;
#N canvas 0 23 503 552 mouse_btn_engine 0;
#X obj 1 179 hid;
#X msg 168 129 open 6;
#X obj 1 1 tgl 60 0 \$0-btn_snd \$0-btn_rcv empty 17 7 0 10 -262144
-1 -1 1 1;
#X obj 1 209 route key;
#X obj 65 1 cnv 15 50 60 empty empty empty 12 30 0 40 -66577 -1 0;
#X obj 280 509 s \$0-cnv_rcv;
#X obj 1 239 route btn_0 btn_1 btn_2;
#X msg 1 449 label \$1 \, color 20 22;
#X obj 1 279 select 1 0;
#X obj 116 279 select 1 0;
#X obj 232 279 select 1 0;
#X msg 280 359 label \, color 20 22;
#X msg 1 359 1;
#X msg 116 359 2;
#X msg 232 359 3;
#X obj 1 409 l2s;
#X msg 90 129 close;
#X obj 90 89 select 0 1;
#X obj 1 88 pipe 200;
#X obj 67 3 cnv 15 46 56 empty \$0-cnv_rcv empty 12 30 0 40 -195568
-1 0;
#X connect 0 0 3 0;
#X connect 1 0 0 0;
#X connect 2 0 18 0;
#X connect 2 0 17 0;
#X connect 3 0 6 0;
#X connect 6 0 8 0;
#X connect 6 1 9 0;
#X connect 6 2 10 0;
#X connect 7 0 5 0;
#X connect 8 0 12 0;
#X connect 8 1 11 0;
#X connect 9 0 13 0;
#X connect 9 1 11 0;
#X connect 10 0 14 0;
#X connect 10 1 11 0;
#X connect 11 0 5 0;
#X connect 12 0 15 0;
#X connect 13 0 15 0;
#X connect 14 0 15 0;
#X connect 15 0 7 0;
#X connect 16 0 0 0;
#X connect 17 0 16 0;
#X connect 17 1 1 0;
#X connect 18 0 0 0;
#X coords 0 -1 1 1 116 62 2 0 0;
#X restore -17 22 pd mouse_btn_engine;
#X text -20 112 left square \,;
#X text -20 132 then click;
#X text -20 152 elsewhere;
#X text -20 172 in Pure Data.;
#X text -20 92 Click on the;
