#N canvas 0 22 500 314 16;
#X declare -lib iemmatrix;
#X declare -lib hexloader;
#X obj 162 114 t l;
#X obj 25 64 list append;
#X obj 25 154 list split;
#X obj 25 24 inlet signal;
#X obj 185 24 inlet size;
#X obj 25 224 mtx;
#X msg 288 114 zeros \$1 1;
#X obj 288 154 mtx;
#X text 279 220 window vector;
#X text 298 204 intialise;
#X text 336 187 |;
#X text 281 171 ____________;
#X text 277 171 |;
#X text 395 171 |;
#X text 281 78 ____________;
#X text 395 158 |;
#X text 277 158 |;
#X text 277 145 |;
#X text 277 132 |;
#X text 277 119 |;
#X text 277 106 |;
#X text 277 93 |;
#X text 395 93 |;
#X text 395 106 |;
#X text 395 119 |;
#X text 395 132 |;
#X text 395 145 |;
#X obj 310 25 import iemmatrix;
#X obj 310 55 import hexloader;
#X text 90 281 Juan Ignacio Mendoza Garay - 2018;
#X obj 25 254 outlet column vector;
#X connect 0 0 1 1;
#X connect 1 0 2 0;
#X connect 2 0 0 0;
#X connect 2 0 5 0;
#X connect 2 2 0 0;
#X connect 3 0 1 0;
#X connect 4 0 2 1;
#X connect 4 0 6 0;
#X connect 5 0 30 0;
#X connect 6 0 7 0;
#X connect 7 0 5 1;
