#N canvas 403 1 362 222 10;
#X declare -lib iemmatrix;
#X declare -lib hexloader;
#X obj 226 16 import iemmatrix;
#X obj 226 46 import hexloader;
#X obj 97 106 mtx;
#X text 44 14 n_N;
#X msg 17 76 zeros \$1 \$2;
#X msg 17 46 \$1 \$2;
#X msg 17 16 5 2;
#X obj 97 46 list;
#X obj 97 16 bng 15 250 50 0 empty empty empty 17 7 0 10 -262144 -1
-1;
#X obj 97 175 mtx_print input;
#N canvas 2 361 286 315 mtx_zcross 0;
#X obj -139 3 inlet;
#X obj -139 293 outlet;
#X obj -139 33 t a a;
#X obj -69 93 mtx_.* -1;
#X obj -139 63 mtx_gt 0;
#X obj -69 63 mtx_lt 0;
#X obj -139 113 mtx_+;
#X obj 31 143 mtx_print bool;
#X obj 31 203 mtx_print dif;
#X obj -139 143 mtx_diff col;
#X obj -139 173 mtx_slice 2 1 end end;
#X obj -139 203 mtx_abs;
#X obj -139 233 mtx_sum;
#X obj -139 263 list-apply / 2;
#X text -77 293 Juan Ignacio Mendoza Garay - 2022;
#X connect 0 0 2 0;
#X connect 2 0 4 0;
#X connect 2 1 5 0;
#X connect 3 0 6 1;
#X connect 4 0 6 0;
#X connect 5 0 3 0;
#X connect 6 0 7 0;
#X connect 6 0 9 0;
#X connect 9 0 10 0;
#X connect 10 0 8 0;
#X connect 10 0 11 0;
#X connect 11 0 12 0;
#X connect 12 0 13 0;
#X connect 13 0 1 0;
#X restore 207 146 pd mtx_zcross;
#X msg 97 76 matrix \$1 \$2 2 -2 1 -1 -1 0 -2 1 -3 2;
#X obj 207 175 print output;
#X connect 2 0 9 0;
#X connect 2 0 10 0;
#X connect 4 0 2 0;
#X connect 5 0 4 0;
#X connect 6 0 5 0;
#X connect 6 0 7 1;
#X connect 7 0 11 0;
#X connect 8 0 7 0;
#X connect 10 0 12 0;
#X connect 11 0 2 0;
