#N canvas 286 23 684 794 12;
#X declare -lib mrpeach;
#X obj 447 12 import mrpeach;
#X obj -121 533 udpsend;
#X obj -121 563 tgl 15 0 empty empty empty 17 7 0 10 -262144 -1 -1
0 1;
#X obj -101 503 packOSC;
#X msg -19 503 disconnect;
#X msg -121 132 connect 192.168.1.1 22225;
#X msg -21 172 7000;
#X msg -19 472 send /qtm disconnect;
#X msg -19 252 send /qtm Version;
#X msg -19 362 send /qtm StreamFrames AllFrames 3D;
#X msg -19 423 send /qtm StreamFrames Stop;
#X msg -21 202 send /qtm connect \$1;
#X obj -121 653 print cmd_res;
#X obj 7 713 bng 15 250 50 0 empty empty start -9 24 0 12 -66577 -4034
-1;
#X obj 123 713 bng 15 250 50 0 empty empty stop -6 24 0 12 -66577 -258113
-1;
#X msg -19 302 send /qtm GetCurrentFrame 6DEuler;
#X obj -121 623 routeOSC /cmd_res /6DEuler /event /3d;
#X msg -19 392 send /qtm StreamFrames AllFrames 6DEuler;
#X obj 19 653 print event;
#X obj 129 653 print 3d;
#X msg -19 332 send /qtm GetCurrentFrame 3D;
#X text -122 79 Data from Qualisys will be printed using the print
objects at the bottom of this patch.;
#X text 292 304 |;
#X text 292 313 |;
#X text 292 322 |;
#X text 292 331 |;
#X text 292 340 |;
#X text 292 349 |;
#X text 292 358 |;
#X text 292 367 |;
#X text 292 376 |;
#X text 292 385 |;
#X text 292 394 |;
#X text 292 403 |;
#X text 292 412 |;
#X text 292 421 |;
#X text 294 360 -;
#N canvas 500 22 344 367 start/stop_rec 0;
#X obj 9 35 strcmp;
#X obj 9 185 outlet;
#X obj 89 185 outlet;
#X msg 48 -55 list Capture Started;
#X obj 89 35 strcmp;
#X obj 9 65 select 0;
#X obj 48 -85 loadbang;
#X obj 89 65 select 0;
#X obj 9 -145 inlet;
#X obj 9 -115 symbol;
#X obj 9 -85 s2l;
#X msg 128 5 list Camera Settings Changed;
#X msg 184 35 list Capture Stopped;
#X obj 89 145 spigot;
#X msg 128 105 0;
#X msg 49 105 1;
#X obj 128 -25 loadbang;
#X connect 0 0 5 0;
#X connect 3 0 0 1;
#X connect 4 0 7 0;
#X connect 5 0 1 0;
#X connect 5 0 15 0;
#X connect 6 0 3 0;
#X connect 7 0 13 0;
#X connect 8 0 9 0;
#X connect 9 0 10 0;
#X connect 10 0 0 0;
#X connect 10 0 4 0;
#X connect 11 0 4 1;
#X connect 13 0 2 0;
#X connect 13 0 14 0;
#X connect 14 0 13 1;
#X connect 15 0 13 1;
#X connect 16 0 11 0;
#X restore 7 683 pd start/stop_rec;
#X text 292 577 |;
#X text 292 586 |;
#X text 292 595 |;
#X text 292 604 |;
#X text 292 613 |;
#X text 292 622 |;
#X text 292 631 |;
#X text 292 640 |;
#X text 292 649 |;
#X text 292 658 |;
#X text 292 667 |;
#X text 292 676 |;
#X text 292 685 |;
#X text 292 694 |;
#X text 292 703 |;
#X text 292 712 |;
#X text 292 721 |;
#X text 282 721 __;
#X text 281 568 __;
#X text 295 648 -;
#X text 111 764 Juan Ignacio Mendoza Garay - 2016;
#N canvas 867 22 468 423 receive_udp-osc 0;
#N canvas 1085 386 147 94 \$0-udp_prov 0;
#X obj 1 1 udpreceive 7000;
#X obj 1 50 send udprecout;
#X connect 0 0 1 0;
#X restore -102 206 pd \$0-udp_prov;
#X obj -102 176 s pd-\$0-udp_prov;
#X msg -102 135 clear \, obj 1 1 udpreceive \$1 \, obj 1 50 send udprecout
\, connect 0 0 1 0;
#X obj -102 236 r udprecout;
#X msg -154 135 clear;
#X msg -44 -15 set \$1;
#X obj -44 15 t a a;
#X obj -124 75 bng 15 250 50 0 empty empty empty 17 7 0 10 -262144
-1 -1;
#X obj -154 -15 route 0 1;
#X msg -124 105 7000;
#X obj -154 -45 inlet on/off;
#X obj -44 -45 inlet port;
#X obj -102 275 unpackOSC;
#X obj -102 305 routeOSC /qtm;
#X obj -102 335 outlet;
#X connect 2 0 1 0;
#X connect 3 0 12 0;
#X connect 4 0 1 0;
#X connect 5 0 6 0;
#X connect 6 0 7 0;
#X connect 6 1 9 0;
#X connect 7 0 9 0;
#X connect 8 0 4 0;
#X connect 8 1 7 0;
#X connect 9 0 2 0;
#X connect 10 0 8 0;
#X connect 11 0 5 0;
#X connect 12 0 13 0;
#X connect 13 0 14 0;
#X restore -121 593 pd receive_udp-osc;
#X text -122 39 Click on the messages pointed with an arrow and change
the message if needed;
#X text 310 252 3) Test the connection by asking;
#X text 331 266 Qualisys its version.;
#X text 70 132 <-------------------------------;
#X text 28 172 <-------------------------------------;
#X text 118 251 <------------------------;
#X text 199 331 <-------------;
#X text 234 299 <--------;
#X text 249 360 <------;
#X text 191 424 <--------------;
#X text 276 390 <--;
#X text 139 471 disconnect from Qualisys;
#X text 69 503 disconnect from UDP network;
#X text 310 132 1) IP and UDP port of the;
#X text -122 -1 This patch connects with a Qualisys mocap system to
get mocap and other data from it as OSC messages.;
#X text 310 172 2) Tell Qualisys to which;
#X text 331 186 UDP port send the OSC stream.;
#X text 331 146 Qualisys computer.;
#X text 310 358 4) Tell Qualisys what data to send.;
#X text 310 649 5) Get data from Qualisys.;
#X connect 1 0 2 0;
#X connect 3 0 1 0;
#X connect 4 0 1 0;
#X connect 5 0 1 0;
#X connect 6 0 11 0;
#X connect 6 0 59 1;
#X connect 7 0 3 0;
#X connect 8 0 3 0;
#X connect 9 0 3 0;
#X connect 10 0 3 0;
#X connect 11 0 3 0;
#X connect 15 0 3 0;
#X connect 16 0 12 0;
#X connect 16 2 37 0;
#X connect 16 2 18 0;
#X connect 16 3 19 0;
#X connect 17 0 3 0;
#X connect 20 0 3 0;
#X connect 37 0 13 0;
#X connect 37 1 14 0;
#X connect 59 0 16 0;
