#N canvas 486 22 954 351 12;
#X declare -lib mrpeach;
#X declare -lib iemgui;
#X obj 334 115 vsl 15 128 -30 30 0 0 empty empty empty 0 -9 0 10 -1
-260097 -1 0 1;
#X obj 314 115 vsl 15 128 -30 30 0 0 empty empty empty 0 -9 0 10 -1
-260097 -1 0 1;
#X obj 294 116 vsl 15 128 -30 30 0 0 empty empty empty 0 -9 0 10 -1
-260097 -1 0 1;
#X obj 274 115 vsl 15 128 -30 30 0 0 empty empty empty 0 -9 0 10 -1
-260097 -1 0 1;
#X obj 254 116 vsl 15 128 -30 30 0 0 empty empty empty 0 -9 0 10 -1
-260097 -1 0 1;
#X obj 234 115 vsl 15 128 -30 30 0 0 empty empty empty 0 -9 0 10 -1
-260097 -1 0 1;
#X obj 214 116 vsl 15 128 -30 30 0 0 empty empty empty 0 -9 0 10 -1
-260097 -1 0 1;
#X obj 194 115 vsl 15 128 -30 30 0 0 empty empty empty 0 -9 0 10 -1
-260097 -1 0 1;
#X obj 361 117 vsl 15 128 5 100 0 0 \$0-ave_value norcv empty 0 -9
0 10 -261682 -1 -1 0 1;
#X floatatom 361 258 5 0 0 0 - - -;
#N canvas 128 35 957 290 emg_processor 0;
#X obj 86 29 unpack s f f f f f f f f;
#X obj 556 187 average 10;
#X obj 446 187 average 10;
#X obj 336 187 average 10;
#X obj 226 187 average 10;
#X obj 116 187 average 10;
#X obj 6 187 average 10;
#X obj -104 187 average 10;
#X obj -214 187 average 10;
#X obj -214 237 outlet;
#X obj -104 237 outlet;
#X obj 6 237 outlet;
#X obj 116 237 outlet;
#X obj 226 237 outlet;
#X obj 336 237 outlet;
#X obj 446 237 outlet;
#X obj 556 237 outlet;
#X obj -207 157 r \$0-ave_value;
#X obj -97 157 r \$0-ave_value;
#X obj 13 157 r \$0-ave_value;
#X obj 123 157 r \$0-ave_value;
#X obj 233 157 r \$0-ave_value;
#X obj 343 157 r \$0-ave_value;
#X obj 453 157 r \$0-ave_value;
#X obj 563 157 r \$0-ave_value;
#X obj 86 -1 r \$0-emg;
#X connect 0 1 8 0;
#X connect 0 2 7 0;
#X connect 0 3 6 0;
#X connect 0 4 5 0;
#X connect 0 5 4 0;
#X connect 0 6 3 0;
#X connect 0 7 2 0;
#X connect 0 8 1 0;
#X connect 1 0 16 0;
#X connect 2 0 15 0;
#X connect 3 0 14 0;
#X connect 4 0 13 0;
#X connect 5 0 12 0;
#X connect 6 0 11 0;
#X connect 7 0 10 0;
#X connect 8 0 9 0;
#X connect 17 0 8 1;
#X connect 18 0 7 1;
#X connect 19 0 6 1;
#X connect 20 0 5 1;
#X connect 21 0 4 1;
#X connect 22 0 3 1;
#X connect 23 0 2 1;
#X connect 24 0 1 1;
#X connect 25 0 0 0;
#X restore 213 82 pd emg_processor;
#N canvas 567 22 232 112 accel_processor 0;
#X obj -23 38 unpack s f f f;
#X obj 8 69 outlet;
#X obj 70 69 outlet;
#X obj 130 69 outlet;
#X obj -23 8 r \$0-acc;
#X connect 0 1 1 0;
#X connect 0 2 2 0;
#X connect 0 3 3 0;
#X connect 4 0 0 0;
#X restore -7 81 pd accel_processor;
#X obj 57 213 hsl 80 35 1 -1 0 0 empty empty empty -2 -8 0 10 -1 -257985
-1 0 1;
#X floatatom 143 -38 5 0 0 1 - #0-osc_port_rcv #0-osc_port_snd;
#N canvas 248 22 819 359 osc_routing 0;
#X obj 116 16 import mrpeach;
#X obj -24 116 unpackOSC;
#X text 57 117 <-- interpret raw data as OSC messages;
#X obj -24 276 routeOSC /myo/accel;
#X msg -24 46 port \$1;
#X obj 126 276 routeOSC /myo/emg;
#X obj 266 276 routeOSC /myo/gyro;
#X obj 416 276 routeOSC /myo/orientation;
#X obj 616 276 routeOSC /myo/pose;
#X obj -24 146 s \$0-osc;
#X obj -24 246 spigot;
#X obj 126 246 spigot;
#X obj 266 246 spigot;
#X obj 416 246 spigot;
#X obj 616 246 spigot;
#X obj -24 186 r \$0-osc;
#X obj 126 186 r \$0-osc;
#X obj 266 186 r \$0-osc;
#X obj 416 186 r \$0-osc;
#X obj 616 186 r \$0-osc;
#X obj 15 216 r \$0-sel_acc;
#X obj 165 216 r \$0-sel_emg;
#X obj 305 216 r \$0-sel_gyr;
#X obj 455 216 r \$0-sel_ori;
#X obj 655 216 r \$0-sel_pos;
#X obj -24 76 udpreceive;
#X obj -24 16 r \$0-osc_port_snd;
#X obj 466 16 loadbang;
#X obj 466 76 s \$0-osc_port_rcv;
#X text 57 75 <-- receive raw data over UDP connection;
#X text 308 44 default UDP port --->;
#X msg 466 46 6000;
#X obj 616 76 spigot;
#X obj 616 116 print;
#X obj 655 46 r \$0-print;
#X obj 616 16 r \$0-osc;
#X obj -24 306 s \$0-acc;
#X obj 126 306 s \$0-emg;
#X obj 266 306 s \$0-gyr;
#X obj 416 306 s \$0-ori;
#X obj 616 306 s \$0-pos;
#X connect 1 0 9 0;
#X connect 3 0 36 0;
#X connect 5 0 37 0;
#X connect 6 0 38 0;
#X connect 7 0 39 0;
#X connect 8 0 40 0;
#X connect 10 0 3 0;
#X connect 11 0 5 0;
#X connect 12 0 6 0;
#X connect 13 0 7 0;
#X connect 14 0 8 0;
#X connect 15 0 10 0;
#X connect 16 0 11 0;
#X connect 17 0 12 0;
#X connect 18 0 13 0;
#X connect 19 0 14 0;
#X connect 20 0 10 1;
#X connect 21 0 11 1;
#X connect 22 0 12 1;
#X connect 23 0 13 1;
#X connect 24 0 14 1;
#X connect 25 0 1 0;
#X connect 26 0 4 0;
#X connect 27 0 31 0;
#X connect 31 0 28 0;
#X connect 32 0 33 0;
#X connect 34 0 32 1;
#X connect 35 0 32 0;
#X restore -7 -9 pd osc_routing;
#X obj -7 165 vsl 35 80 1 -1 0 0 empty empty empty 0 -9 0 10 -1 -257985
-1 0 1;
#X obj 464 213 hsl 80 35 600 -600 0 0 empty empty empty -2 -8 0 10
-1 -258113 -1 0 1;
#X obj 403 165 vsl 35 80 600 -600 0 0 empty empty empty 0 -9 0 10 -1
-258113 -1 0 1;
#N canvas 809 22 232 112 gyro_processor 0;
#X obj -23 38 unpack s f f f;
#X obj 8 69 outlet;
#X obj 70 69 outlet;
#X obj 130 69 outlet;
#X obj -23 8 r \$0-gyr;
#X connect 0 1 1 0;
#X connect 0 2 2 0;
#X connect 0 3 3 0;
#X connect 4 0 0 0;
#X restore 403 81 pd gyro_processor;
#N canvas 0 23 665 352 orientation_processor 0;
#X obj 134 38 unpack s f f f;
#X obj 367 294 outlet;
#X obj -23 207 pack;
#X obj 27 207 t b f;
#X msg -23 237 src_dp 1 \$1 \$2;
#X obj 27 107 expr ($f1 * 180)/3.14;
#X obj 147 207 pack;
#X obj 197 207 t b f;
#X obj 367 207 pack;
#X obj 417 207 t b f;
#X msg 147 237 src_dp 2 \$1 \$2;
#X msg 367 237 src_dp 3 \$1 \$2;
#X obj 417 107 expr ($f1 * 180)/3.14;
#X obj 197 107 expr (($f1 + 1.5) * 60) - 90;
#X msg -23 177 16;
#X msg 147 177 42;
#X msg 367 177 68;
#X obj -33 147 loadbang;
#X obj 137 147 loadbang;
#X obj 357 147 loadbang;
#N canvas 452 61 244 325 init_gui 0;
#X obj -45 288 outlet;
#X msg 45 218 frame_col 16;
#X msg 55 248 sphere_col 22;
#X msg 15 128 src_col 1 16;
#X msg 25 158 src_col 2 17;
#X msg 35 188 src_col 3 18;
#X msg -5 68 nr_src 3;
#X msg 5 98 src_font 18;
#X obj -45 8 import iemgui;
#X obj -5 38 loadbang;
#X connect 1 0 2 0;
#X connect 1 0 0 0;
#X connect 2 0 0 0;
#X connect 3 0 4 0;
#X connect 3 0 0 0;
#X connect 4 0 5 0;
#X connect 4 0 0 0;
#X connect 5 0 1 0;
#X connect 5 0 0 0;
#X connect 6 0 7 0;
#X connect 6 0 0 0;
#X connect 7 0 3 0;
#X connect 7 0 0 0;
#X connect 9 0 6 0;
#X restore 497 237 pd init_gui;
#X obj 134 8 r \$0-ori;
#X connect 0 1 5 0;
#X connect 0 2 13 0;
#X connect 0 3 12 0;
#X connect 2 0 4 0;
#X connect 3 0 2 0;
#X connect 3 1 2 1;
#X connect 4 0 1 0;
#X connect 5 0 3 0;
#X connect 6 0 10 0;
#X connect 7 0 6 0;
#X connect 7 1 6 1;
#X connect 8 0 11 0;
#X connect 9 0 8 0;
#X connect 9 1 8 1;
#X connect 10 0 1 0;
#X connect 11 0 1 0;
#X connect 12 0 9 0;
#X connect 13 0 7 0;
#X connect 14 0 2 0;
#X connect 15 0 6 0;
#X connect 16 0 8 0;
#X connect 17 0 14 0;
#X connect 18 0 15 0;
#X connect 19 0 16 0;
#X connect 20 0 1 0;
#X connect 21 0 0 0;
#X restore 583 81 pd orientation_processor;
#X obj 583 128 cube_sphere 3 60 18 0 24197 24197 60 10 44925 60 28
62783 60 45;
#X text 580 245 1 = yaw;
#X text 580 273 3 = roll;
#X text 580 259 2 = pitch;
#N canvas 502 86 472 290 instructions 0;
#X text -3 28 https://github.com/benkuper/MyOSC;
#X text -3 43 https://github.com/samyk/myo-osc;
#X text -3 -179 This patch shows the signals that can be acquired from
the;
#X text -3 -164 MYO armband via OSC.;
#X text -3 -12 https://www.myo.com/;
#X text -3 -149 An external piece of software is required to fetch
the raw;
#X text -3 -134 data from the MYO armband and send it using the OSC
protocol;
#X text -3 -119 through a UDP network.;
#X text -3 -57 Find below some internet addresses with useful resources.
;
#X text -3 -27 MYO manufacturer:;
#X text -3 13 Software to fetch raw data from MYO and send via OSC:
;
#X text -3 -104 To use the patch just explore it. If still insecure
\, then;
#X text -3 -88 consult the cornucopia of information available on the
;
#X text -3 -73 internet.;
#X restore -7 -39 pd instructions;
#X text 182 -38 osc port;
#X text 283 -39 acceleration;
#X text 283 -19 electromyography;
#X text 283 1 gyroscope;
#X text 283 21 orientation;
#X text 283 41 pose;
#X obj 262 -35 tgl 15 0 \$0-sel_acc norcv empty 17 7 0 10 -262144 -1
-1 0 1;
#X obj 262 -15 tgl 15 0 \$0-sel_emg norcv empty 17 7 0 10 -262144 -1
-1 0 1;
#X obj 262 5 tgl 15 0 \$0-sel_gyr norcv empty 17 7 0 10 -262144 -1
-1 0 1;
#X obj 262 25 tgl 15 0 \$0-sel_ori norcv empty 17 7 0 10 -262144 -1
-1 0 1;
#X obj 262 45 tgl 15 0 \$0-sel_pos norcv empty 17 7 0 10 -262144 -1
-1 0 1;
#X obj 422 -35 tgl 15 0 \$0-print norcv empty 17 7 0 10 -262144 -1
-1 0 1;
#X text 443 -39 Print;
#N canvas 171 22 797 285 pose_processor 0;
#X obj 267 8 r \$0-pos;
#X obj 267 38 unpack s s;
#X obj 14 138 select rest;
#X msg 14 168 0;
#X msg 114 168 1;
#X obj 334 248 outlet;
#X obj 114 138 select fist;
#X obj 334 138 select waveOut;
#X obj 454 138 select doubleTap;
#X obj 584 138 select fingersSpread;
#X msg 214 168 2;
#X obj 214 138 select waveIn;
#X msg 334 168 3;
#X msg 454 168 4;
#X msg 584 168 5;
#X connect 0 0 1 0;
#X connect 1 1 2 0;
#X connect 1 1 6 0;
#X connect 1 1 7 0;
#X connect 1 1 8 0;
#X connect 1 1 9 0;
#X connect 1 1 11 0;
#X connect 2 0 3 0;
#X connect 3 0 5 0;
#X connect 4 0 5 0;
#X connect 6 0 4 0;
#X connect 7 0 12 0;
#X connect 8 0 13 0;
#X connect 9 0 14 0;
#X connect 10 0 5 0;
#X connect 11 0 10 0;
#X connect 12 0 5 0;
#X connect 13 0 5 0;
#X connect 14 0 5 0;
#X restore 783 81 pd pose_processor;
#X obj 783 113 vradio 22 1 0 6 empty empty empty 0 -8 0 10 -1 -232576
-1 0;
#X text 810 113 rest;
#X text 810 135 fist;
#X text 810 179 wave out;
#X text 810 201 double tap;
#X text 810 223 fingers spread;
#X text 810 157 wave in;
#X text 543 -39 Tested in Puredata Extended 0.43.4;
#X text 543 -19 Juan Ignacio Mendoza Garay - 2016;
#X obj 57 163 hsl 80 35 1 -1 0 0 empty empty empty -2 -8 0 10 -1 -257985
-1 0 1;
#X obj 464 163 hsl 80 35 600 -600 0 0 empty empty empty -2 -8 0 10
-1 -258113 -1 0 1;
#X connect 8 0 9 0;
#X connect 10 0 7 0;
#X connect 10 1 6 0;
#X connect 10 2 5 0;
#X connect 10 3 4 0;
#X connect 10 4 3 0;
#X connect 10 5 2 0;
#X connect 10 6 1 0;
#X connect 10 7 0 0;
#X connect 11 0 15 0;
#X connect 11 1 12 0;
#X connect 11 2 48 0;
#X connect 18 0 17 0;
#X connect 18 1 16 0;
#X connect 18 2 49 0;
#X connect 19 0 20 0;
#X connect 38 0 39 0;
