#N canvas 1 0 1007 514 12;
#X obj -17 5 noise~;
#X obj -18 695 dac~;
#X text 264 728 amp out (db);
#X obj 259 670 env~ 8192;
#X floatatom 259 705 5 0 0 0 - - -;
#X obj -18 670 *~;
#X obj 942 490 vsl 30 87 0 2 0 0 empty empty L 10 50 0 14 -33289 -258113
-262144 7500 1;
#X obj 61 294 mtof;
#X floatatom 289 193 5 0 0 0 - - -;
#X floatatom 687 167 5 0 0 0 - - -;
#X obj 942 234 vsl 30 87 0 1 0 0 empty empty L 10 50 0 14 -33289 -257985
-262144 5300 1;
#X obj 882 234 vsl 30 87 1 1000 0 0 empty empty Q 10 50 0 14 -1 -232576
-232576 6600 1;
#X obj -17 427 resonant_filter;
#X obj 330 427 resonant_filter;
#X floatatom 546 228 5 0 0 0 - - -;
#X floatatom 548 351 10 0 0 0 - - -;
#X obj 554 299 expr $f1 * pow(1.059463 \, $f2);
#X obj 792 217 t b f;
#X floatatom 227 47 5 1 10 0 - - -;
#X obj 289 168 +;
#X msg 314 42 3;
#X msg 358 112 3;
#X msg 391 112 5;
#X msg 424 112 7;
#X msg 468 112 9;
#X msg 501 112 12;
#X obj 383 163 bang;
#X floatatom 81 331 5 0 0 0 - - -;
#X obj 228 14 bng 15 250 50 0 empty empty empty 17 7 0 10 -262144 -1
-1;
#X obj 204 85 * 12;
#X text 352 41 Eb = 3;
#X text 688 1 Eb0 = 19.45Hz = MIDI 15;
#X text 688 31 Eb1 = 38.89Hz = MIDI 27;
#X obj 285 130 +;
#X msg 318 112 0;
#X msg 598 112 3;
#X msg 631 112 5;
#X msg 664 112 7;
#X msg 708 112 9;
#X msg 741 112 12;
#X msg 558 112 0;
#X obj 67 366 f;
#X obj 164 10 vsl 15 128 0.01 2 0 0 empty empty empty 0 -9 0 10 -262144
-1 -1 6618 1;
#X floatatom 155 157 5 0 0 0 - - -;
#X text 252 193 MIDI;
#X text 350 85 semitones tonic;
#X text 600 85 semitones harmony;
#X text 122 331 Hz;
#X text 586 231 Hz;
#X text 834 194 semitones harmony;
#X obj 160 200 t b f;
#X obj 86 395 *;
#X obj 72 80 line;
#X msg 68 50 1 200;
#X connect 0 0 12 0;
#X connect 0 0 13 0;
#X connect 3 0 4 0;
#X connect 5 0 1 0;
#X connect 5 0 1 1;
#X connect 5 0 3 0;
#X connect 6 0 5 1;
#X connect 7 0 27 0;
#X connect 7 0 41 0;
#X connect 7 0 14 0;
#X connect 8 0 7 0;
#X connect 9 0 17 0;
#X connect 10 0 12 3;
#X connect 10 0 13 3;
#X connect 11 0 12 2;
#X connect 11 0 13 2;
#X connect 12 0 5 0;
#X connect 13 0 5 0;
#X connect 14 0 16 0;
#X connect 16 0 15 0;
#X connect 16 0 13 1;
#X connect 17 0 16 0;
#X connect 17 1 16 1;
#X connect 18 0 29 0;
#X connect 19 0 8 0;
#X connect 20 0 33 1;
#X connect 21 0 19 1;
#X connect 21 0 26 0;
#X connect 22 0 19 1;
#X connect 22 0 26 0;
#X connect 23 0 19 1;
#X connect 23 0 26 0;
#X connect 24 0 19 1;
#X connect 24 0 26 0;
#X connect 25 0 19 1;
#X connect 25 0 26 0;
#X connect 26 0 18 0;
#X connect 28 0 18 0;
#X connect 29 0 33 0;
#X connect 33 0 19 0;
#X connect 34 0 19 1;
#X connect 34 0 26 0;
#X connect 35 0 9 0;
#X connect 36 0 9 0;
#X connect 37 0 9 0;
#X connect 38 0 9 0;
#X connect 39 0 9 0;
#X connect 40 0 9 0;
#X connect 41 0 51 0;
#X connect 42 0 43 0;
#X connect 43 0 50 0;
#X connect 50 0 41 0;
#X connect 50 1 51 1;
#X connect 51 0 12 1;
#X connect 51 0 14 0;
#X connect 52 0 42 0;
#X connect 53 0 52 0;
