#N canvas 594 23 546 623 12;
#X msg -243 15 read -resize /Users/thesis/Desktop/Four_Clefs_I_Like_Pie.wav
ch1 ch2;
#X obj -243 65 soundfiler;
#X obj 187 15 loadbang;
#N canvas 0 22 450 300 (subpatch) 0;
#X array ch1 4e+06 float 2;
#X coords 0 1 4e+06 -1 400 20 1;
#X restore -243 125 graph;
#N canvas 0 22 450 300 (subpatch) 0;
#X array ch2 4e+06 float 2;
#X coords 0 1 4e+06 -1 400 20 1;
#X restore -243 175 graph;
#N canvas 106 284 609 541 engine 0;
#X obj 7 365 tabplay~ ch1;
#X obj 177 365 tabplay~ ch2;
#X obj 87 75 unpack f f;
#X obj 87 165 * 44100;
#X obj 154 165 * 44100;
#X obj 87 185 pack f f;
#X text -24 506 Juan gnacio Mendoza - 2017;
#X obj -138 255 metro 10;
#X msg -178 225 0;
#X obj -66 295 cup;
#X obj -6 165 +;
#X obj -66 325 / 100;
#X obj -45 365 select;
#X obj 87 5 inlet;
#X obj 275 5 inlet;
#X obj -178 475 outlet;
#X obj 297 485 dac~;
#X obj 256 445 *~;
#X obj 357 445 *~;
#X obj -45 475 outlet;
#X obj 15 475 s \$0-stopclock;
#X obj -178 5 r \$0-stopclock;
#X msg -138 225 1;
#X obj -98 165 * 100;
#X obj -38 125 t f f;
#X obj -98 195 t b f;
#X obj -45 395 t b b;
#X obj -23 5 r \$0-stop;
#X obj -178 325 r \$0-stop;
#X msg -178 385 0;
#X obj -178 355 delay 100;
#X obj 59 285 r \$0-stop;
#X msg 87 315 0 1;
#X connect 0 0 17 0;
#X connect 1 0 18 0;
#X connect 2 0 3 0;
#X connect 2 0 24 0;
#X connect 2 1 4 0;
#X connect 2 1 10 1;
#X connect 3 0 5 0;
#X connect 4 0 5 1;
#X connect 5 0 0 0;
#X connect 5 0 1 0;
#X connect 7 0 9 0;
#X connect 8 0 7 0;
#X connect 9 0 11 0;
#X connect 10 0 12 1;
#X connect 11 0 12 0;
#X connect 11 0 15 0;
#X connect 12 0 26 0;
#X connect 13 0 2 0;
#X connect 14 0 17 1;
#X connect 14 0 18 1;
#X connect 17 0 16 0;
#X connect 18 0 16 1;
#X connect 21 0 8 0;
#X connect 22 0 7 0;
#X connect 23 0 25 0;
#X connect 24 0 23 0;
#X connect 24 1 10 0;
#X connect 25 0 22 0;
#X connect 25 1 9 0;
#X connect 26 0 19 0;
#X connect 26 1 20 0;
#X connect 27 0 8 0;
#X connect 28 0 30 0;
#X connect 29 0 15 0;
#X connect 30 0 29 0;
#X connect 31 0 32 0;
#X connect 32 0 1 0;
#X connect 32 0 0 0;
#X restore 35 515 pd engine;
#X floatatom 35 545 5 0 0 0 - - -;
#X text -73 586 Juan gnacio Mendoza - 2017;
#X obj 187 344 vsl 30 126 0 1 0 0 empty empty empty 0 -9 0 10 -191407
-4160 -1 6350 1;
#X obj -42 231 bng 30 250 50 0 empty \$0-seg_1 1 9 15 0 20 -99865 -262144
-262144;
#X obj 8 231 bng 30 250 50 0 empty \$0-seg_2 2 9 15 0 20 -99865 -262144
-262144;
#X obj 58 231 bng 30 250 50 0 empty \$0-seg_3 3 9 15 0 20 -99865 -262144
-262144;
#X floatatom 8 374 5 0 0 0 - - -;
#X obj 8 405 select 1 2 3;
#X obj 95 545 s \$0-next;
#X msg -42 281 1;
#X msg 8 281 2;
#X msg 58 281 3;
#X msg 187 281 0.5;
#X obj -211 311 bng 30 250 50 0 \$0-play empty play -32 16 0 10 -4034
-1 -1;
#X obj -211 231 bng 30 250 50 0 \$0-stop empty stop -32 16 0 10 -258113
-1 -1;
#X obj -211 271 bng 30 250 50 0 \$0-end empty end -32 16 0 10 -257985
-1 -1;
#N canvas 7 23 483 267 Gates_not_Bill 0;
#X msg 332 121 set \$1;
#X obj 332 21 inlet;
#X obj 133 230 outlet;
#X obj -59 161 spigot;
#X msg -33 95 0;
#X msg 17 96 1;
#X obj -59 21 r \$0-play;
#X obj 133 161 spigot;
#X msg 252 95 0;
#X msg 172 96 1;
#X obj 96 21 r \$0-next;
#X obj 17 21 r \$0-stop;
#X obj 172 21 r \$0-play;
#X obj 262 51 r \$0-end;
#X obj 252 21 r \$0-stop;
#X obj 27 51 r \$0-end;
#X connect 0 0 2 0;
#X connect 1 0 0 0;
#X connect 3 0 4 0;
#X connect 3 0 2 0;
#X connect 4 0 3 1;
#X connect 5 0 3 1;
#X connect 6 0 3 0;
#X connect 7 0 2 0;
#X connect 8 0 7 1;
#X connect 9 0 7 1;
#X connect 10 0 7 0;
#X connect 11 0 5 0;
#X connect 12 0 9 0;
#X connect 13 0 8 0;
#X connect 14 0 8 0;
#X connect 15 0 5 0;
#X restore 8 342 pd Gates_not_Bill;
#X msg 207 65 1;
#X msg 207 125 \; pd dsp \$1;
#X msg 247 65 0;
#X msg -47 454 1.1 3.32;
#X msg 35 454 7.65 11.8;
#X msg 125 453 32 23;
#X text -164 236 next segment -->;
#X connect 0 0 1 0;
#X connect 2 0 18 0;
#X connect 2 0 23 0;
#X connect 5 0 6 0;
#X connect 5 1 14 0;
#X connect 8 0 5 1;
#X connect 9 0 15 0;
#X connect 10 0 16 0;
#X connect 11 0 17 0;
#X connect 12 0 13 0;
#X connect 13 0 26 0;
#X connect 13 1 27 0;
#X connect 13 2 28 0;
#X connect 15 0 22 0;
#X connect 16 0 22 0;
#X connect 17 0 22 0;
#X connect 18 0 8 0;
#X connect 22 0 12 0;
#X connect 23 0 24 0;
#X connect 25 0 24 0;
#X connect 26 0 5 0;
#X connect 27 0 5 0;
#X connect 28 0 5 0;
