#N canvas 614 65 385 435 12;
#N canvas 46 23 395 472 main 0;
#X obj 11 11 cnv 10 358 400 empty empty empty 20 12 0 14 -128992 -66577
0;
#X obj 13 13 cnv 15 354 396 empty empty empty 20 12 0 14 -191407 -66577
0;
#X obj 45 158 cnv 15 44 28 empty empty empty 20 12 0 14 -33289 -66577
0;
#X floatatom 49 163 5 0 0 0 - #0-sig_reset #0-raw_signal;
#X obj 17 78 cnv 15 72 42 empty empty empty 20 12 0 14 -33289 -228856
0;
#X obj 20 96 tgl 20 0 \$0-sig_1_onoff \$0-sig_reset 1 6 -8 0 14 -228856
-13330 -228856 0 1;
#X obj 43 96 tgl 20 0 \$0-sig_2_onoff \$0-sig_reset 2 6 -8 0 14 -228856
-13330 -228856 0 1;
#X obj 66 96 tgl 20 0 \$0-sig_3_onoff \$0-sig_reset 3 6 -8 0 14 -228856
-13330 -228856 0 1;
#X obj 63 191 cnv 15 26 28 empty empty empty 20 12 0 14 -33289 -66577
0;
#X obj 66 195 bng 20 250 50 0 \$0-savefile norcv empty 23 9 0 12 -4034
-1 -228856;
#N canvas 558 23 726 802 engine 0;
#X obj -29 732 textfile;
#X msg 11 692 clear;
#X obj 373 202 spigot;
#X obj 359 262 * 3;
#X obj 396 202 * 2;
#X obj 373 171 * 100;
#X obj 1 352 pack f f f f f f f f f f;
#X obj 373 232 t f f f;
#X obj 1 99 t b f;
#X obj 203 202 spigot;
#X obj 189 262 * 3;
#X obj 226 262 * 2;
#X obj 203 232 t f f f;
#X obj 33 202 spigot;
#X obj 19 262 * 3;
#X obj 56 262 * 2;
#X obj 33 232 t f f f;
#X obj 203 171 * 10;
#X obj 72 171 r \$0-sig_1_onoff;
#X obj 242 171 r \$0-sig_2_onoff;
#X obj 422 171 r \$0-sig_3_onoff;
#X obj 1 9 r \$0-raw_signal;
#X obj 93 732 s \$0-sig_reset;
#X msg 93 692 0;
#X obj 11 472 print;
#X msg 11 562 write \$1;
#X obj 1 69 spigot;
#X obj 93 622 r \$0-reset;
#X obj 93 652 bang;
#X obj 53 592 loadbang;
#X obj 11 502 r \$0-savefile;
#X obj 11 532 savepanel;
#X obj 1 382 s all_signals;
#X obj 1 412 r to_file;
#N canvas 43 22 522 572 make_add_signals 0;
#X msg 1 194 symbol $;
#X obj 1 224 makefilename %s;
#X obj 70 254 pack s f;
#X obj 91 164 t b f;
#X obj 70 314 l2s;
#X msg 70 284 \$1\$2;
#X obj 151 314 t l;
#X msg 191 314 bang;
#X obj 70 374 l2s;
#X msg 91 124 5 \, 6 \, 7;
#X msg 11 124 8 \, 9 \, 10;
#X msg 161 124 2 \, 3 \, 4;
#X obj 70 344 list prepend;
#X msg 70 404 clear \, obj 1 1 r all_signals \, msg 1 30 add \$1 \,
obj 1 60 s to_file \, connect 0 0 1 0 \, connect 1 0 2 0;
#X text -8 11 -------------------------;
#X text 167 11 -------------------------;
#X text 343 11 ---------------------;
#X text 485 16 |;
#X text 485 24 |;
#X text -10 16 |;
#X text -10 24 |;
#X text 116 53 corresponding to the selected signals;
#X text 485 33 |;
#X text 485 41 |;
#X text 485 50 |;
#X text 485 58 |;
#X text 485 67 |;
#X text 485 75 |;
#X text 485 84 |;
#X text 485 76 |;
#X text 485 84 |;
#X text 485 93 |;
#X text 485 99 |;
#X text 485 108 |;
#X text 485 116 |;
#X text 485 125 |;
#X text 485 133 |;
#X text 485 142 |;
#X text 485 149 |;
#X text 485 158 |;
#X text 485 166 |;
#X text 485 175 |;
#X text 485 183 |;
#X text 485 192 |;
#X text 485 198 |;
#X text 485 207 |;
#X text 485 215 |;
#X text 485 224 |;
#X text 485 232 |;
#X text 485 241 |;
#X text 485 248 |;
#X text 485 257 |;
#X text 485 265 |;
#X text 485 274 |;
#X text 485 282 |;
#X text 485 291 |;
#X text 485 300 |;
#X text 485 309 |;
#X text 485 317 |;
#X text 485 326 |;
#X text 485 333 |;
#X text 485 342 |;
#X text 485 350 |;
#X text 485 359 |;
#X text 485 367 |;
#X text 485 376 |;
#X text 485 382 |;
#X text 485 391 |;
#X text 485 399 |;
#X text 485 408 |;
#X text 485 416 |;
#X text 485 425 |;
#X text 485 432 |;
#X text 485 441 |;
#X text 485 449 |;
#X text 485 458 |;
#X text 485 466 |;
#X text 485 475 |;
#X text 485 483 |;
#X text 485 490 |;
#X text 485 499 |;
#X text 485 503 |;
#X text 485 512 |;
#X text -8 531 -------------------------;
#X text 167 531 -------------------------;
#X text 343 531 ---------------------;
#X text 485 502 |;
#X text 485 511 |;
#X text 485 519 |;
#X text 485 528 |;
#X text -10 16 |;
#X text -10 24 |;
#X text -10 33 |;
#X text -10 41 |;
#X text -10 50 |;
#X text -10 58 |;
#X text -10 67 |;
#X text -10 75 |;
#X text -10 84 |;
#X text -10 76 |;
#X text -10 84 |;
#X text -10 93 |;
#X text -10 99 |;
#X text -10 108 |;
#X text -10 116 |;
#X text -10 125 |;
#X text -10 133 |;
#X text -10 142 |;
#X text -10 149 |;
#X text -10 158 |;
#X text -10 166 |;
#X text -10 175 |;
#X text -10 183 |;
#X text -10 192 |;
#X text -10 198 |;
#X text -10 207 |;
#X text -10 215 |;
#X text -10 224 |;
#X text -10 232 |;
#X text -10 241 |;
#X text -10 248 |;
#X text -10 257 |;
#X text -10 265 |;
#X text -10 274 |;
#X text -10 282 |;
#X text -10 291 |;
#X text -10 300 |;
#X text -10 309 |;
#X text -10 317 |;
#X text -10 326 |;
#X text -10 333 |;
#X text -10 342 |;
#X text -10 350 |;
#X text -10 359 |;
#X text -10 367 |;
#X text -10 376 |;
#X text -10 382 |;
#X text -10 391 |;
#X text -10 399 |;
#X text -10 408 |;
#X text -10 416 |;
#X text -10 425 |;
#X text -10 432 |;
#X text -10 441 |;
#X text -10 449 |;
#X text -10 458 |;
#X text -10 466 |;
#X text -10 475 |;
#X text -10 483 |;
#X text -10 490 |;
#X text -10 499 |;
#X text -10 503 |;
#X text -10 512 |;
#X text -10 502 |;
#X text -10 511 |;
#X text -10 519 |;
#X text -10 528 |;
#X text 76 33 all this makes the "add" message with the variables;
#X obj 70 454 s pd-\$0-add_sig_prov;
#N canvas 45 22 399 239 \$0-add_sig_prov 0;
#X obj 1 1 r all_signals;
#X msg 1 30 add \$5 \$6 \$7 \$8 \$9 \$10;
#X obj 1 60 s to_file;
#X connect 0 0 1 0;
#X connect 1 0 2 0;
#X restore 70 484 pd \$0-add_sig_prov;
#X obj 11 94 inlet;
#X obj 91 94 inlet;
#X obj 161 94 inlet;
#X obj 191 284 r \$0-clear_lists;
#X connect 0 0 1 0;
#X connect 1 0 2 0;
#X connect 2 0 5 0;
#X connect 3 0 0 0;
#X connect 3 1 2 1;
#X connect 4 0 12 0;
#X connect 5 0 4 0;
#X connect 6 0 12 1;
#X connect 7 0 12 1;
#X connect 8 0 13 0;
#X connect 9 0 3 0;
#X connect 10 0 3 0;
#X connect 11 0 3 0;
#X connect 12 0 6 0;
#X connect 12 0 8 0;
#X connect 13 0 158 0;
#X connect 160 0 10 0;
#X connect 161 0 9 0;
#X connect 162 0 11 0;
#X connect 163 0 7 0;
#X restore 219 732 pd make_add_signals;
#N canvas 810 22 552 574 make_add_header 0;
#X text -8 11 -------------------------;
#X text 167 11 -------------------------;
#X text 343 11 ---------------------;
#X text 485 16 |;
#X text 485 24 |;
#X text -10 16 |;
#X text -10 24 |;
#X text 485 33 |;
#X text 485 41 |;
#X text 485 50 |;
#X text 485 58 |;
#X text 485 67 |;
#X text 485 90 |;
#X text 485 97 |;
#X text 485 106 |;
#X text 485 114 |;
#X text 485 123 |;
#X text 485 131 |;
#X text 485 140 |;
#X text 485 146 |;
#X text 485 155 |;
#X text 485 163 |;
#X text 485 172 |;
#X text 485 180 |;
#X text 485 189 |;
#X text 485 196 |;
#X text 485 205 |;
#X text 485 213 |;
#X text 485 222 |;
#X text 485 230 |;
#X text 485 239 |;
#X text 485 247 |;
#X text 485 254 |;
#X text 485 263 |;
#X text 485 271 |;
#X text 485 280 |;
#X text 485 288 |;
#X text 485 297 |;
#X text 485 303 |;
#X text 485 312 |;
#X text 485 320 |;
#X text 485 329 |;
#X text 485 337 |;
#X text 485 346 |;
#X text 485 353 |;
#X text 485 362 |;
#X text 485 370 |;
#X text 485 379 |;
#X text 485 387 |;
#X text 485 396 |;
#X text -8 525 -------------------------;
#X text 167 525 -------------------------;
#X text 343 525 ---------------------;
#X text 485 386 |;
#X text 485 395 |;
#X text 485 403 |;
#X text -10 16 |;
#X text -10 24 |;
#X text -10 33 |;
#X text -10 41 |;
#X text -10 50 |;
#X text -10 58 |;
#X text -10 67 |;
#X text -10 172 |;
#X text -10 180 |;
#X text -10 189 |;
#X text -10 196 |;
#X text -10 205 |;
#X text -10 263 |;
#X text -10 222 |;
#X text -10 230 |;
#X text -10 239 |;
#X text -10 247 |;
#X text -10 254 |;
#X text -10 263 |;
#X text -10 271 |;
#X text -10 280 |;
#X text -10 288 |;
#X text -10 297 |;
#X text -10 303 |;
#X text -10 312 |;
#X text -10 320 |;
#X text -10 329 |;
#X text -10 337 |;
#X text -10 346 |;
#X text -10 353 |;
#X text -10 362 |;
#X text -10 370 |;
#X text -10 522 |;
#X text 76 33 all this makes the "add" message with the header;
#X text 186 53 of the text file;
#X obj 50 348 s pd-\$0-add_head_prov;
#N canvas 815 22 399 239 \$0-add_head_prov 0;
#X obj 1 1 r trig_header;
#X msg 1 30 add s2x s2y s2z s3x s3y s3z;
#X obj 1 60 s to_file;
#X connect 0 0 1 0;
#X connect 1 0 2 0;
#X restore 50 378 pd \$0-add_head_prov;
#X obj 50 178 symbol;
#X text -10 210 |;
#X text -10 219 |;
#X text 485 410 |;
#X text 485 419 |;
#X text 485 427 |;
#X text 485 436 |;
#X text 485 473 |;
#X text 485 482 |;
#X text 485 490 |;
#X text 485 499 |;
#X text 485 507 |;
#X text 485 506 |;
#X text 485 512 |;
#X text -10 382 |;
#X text -10 373 |;
#X text -10 382 |;
#X text -10 390 |;
#X text -10 399 |;
#X text -10 407 |;
#X text -10 416 |;
#X text -10 422 |;
#X text -10 431 |;
#X text -10 439 |;
#X text -10 478 |;
#X text -10 486 |;
#X text -10 495 |;
#X text -10 502 |;
#X text -10 511 |;
#X text -10 519 |;
#X text 485 521 |;
#X obj 131 208 t l;
#X msg 171 208 bang;
#X obj 50 268 l2s;
#X obj 50 238 list prepend;
#X obj 171 178 r \$0-clear_lists;
#X obj 50 98 inlet;
#X obj 180 98 inlet;
#X obj 320 98 inlet;
#X text 485 75 |;
#X text 485 82 |;
#X text 485 440 |;
#X text 485 449 |;
#X text 485 457 |;
#X text 485 466 |;
#X text -10 446 |;
#X text -10 452 |;
#X text -10 461 |;
#X text -10 469 |;
#X msg 50 298 clear \, obj 1 1 r trig_header \, msg 1 30 add \$1 \,
obj 1 60 s to_file \, connect 0 0 1 0 \, connect 1 0 2 0;
#X obj 50 408 r trig_header;
#X obj 50 498 s add_header;
#X obj 50 468 spigot;
#X obj 89 438 r \$0-write_onoff;
#X msg 320 128 s1x \, s1y \, s1z;
#X text -10 81 |;
#X text -10 88 |;
#X text -10 97 |;
#X text -10 105 |;
#X text -10 114 |;
#X text -10 122 |;
#X text -10 131 |;
#X text -10 137 |;
#X text -10 146 |;
#X text -10 154 |;
#X text -10 163 |;
#X text -10 75 |;
#X msg 50 128 s3x \, s3y \, s3z;
#X msg 180 128 s2x \, s2y \, s2z;
#X connect 93 0 127 0;
#X connect 124 0 127 1;
#X connect 125 0 127 1;
#X connect 126 0 142 0;
#X connect 127 0 124 0;
#X connect 127 0 126 0;
#X connect 128 0 125 0;
#X connect 129 0 160 0;
#X connect 130 0 161 0;
#X connect 131 0 147 0;
#X connect 142 0 91 0;
#X connect 143 0 145 0;
#X connect 145 0 144 0;
#X connect 146 0 145 1;
#X connect 147 0 93 0;
#X connect 160 0 93 0;
#X connect 161 0 93 0;
#X restore 379 732 pd make_add_header;
#X obj 289 492 pack f f f;
#X obj 354 442 t b f;
#X obj 289 412 t b f;
#X obj 289 382 r \$0-sig_2_onoff;
#X obj 409 672 route 1;
#X obj 249 672 route 1;
#X obj 329 672 route 1;
#X obj 289 612 unpack f f f;
#X obj 289 552 t l b;
#X obj 321 582 s \$0-clear_lists;
#X obj 483 582 expr $f1 + $f2 + $f3;
#X obj 483 612 route 0;
#X obj 483 552 unpack f f f;
#X msg 483 642 0;
#X msg 529 642 1;
#X obj 483 682 s \$0-write_onoff;
#X obj 40 39 r \$0-write_onoff;
#X obj 249 352 r \$0-sig_3_onoff;
#X obj 354 412 r \$0-sig_1_onoff;
#X connect 1 0 0 0;
#X connect 2 0 7 0;
#X connect 3 0 6 7;
#X connect 4 0 6 8;
#X connect 5 0 2 0;
#X connect 6 0 32 0;
#X connect 7 0 3 0;
#X connect 7 1 4 0;
#X connect 7 2 6 9;
#X connect 8 0 6 0;
#X connect 8 1 13 0;
#X connect 8 1 17 0;
#X connect 8 1 5 0;
#X connect 9 0 12 0;
#X connect 10 0 6 4;
#X connect 11 0 6 5;
#X connect 12 0 10 0;
#X connect 12 1 11 0;
#X connect 12 2 6 6;
#X connect 13 0 16 0;
#X connect 14 0 6 1;
#X connect 15 0 6 2;
#X connect 16 0 14 0;
#X connect 16 1 15 0;
#X connect 16 2 6 3;
#X connect 17 0 9 0;
#X connect 18 0 13 1;
#X connect 19 0 9 1;
#X connect 20 0 2 1;
#X connect 21 0 26 0;
#X connect 23 0 22 0;
#X connect 25 0 0 0;
#X connect 26 0 8 0;
#X connect 27 0 28 0;
#X connect 28 0 23 0;
#X connect 28 0 1 0;
#X connect 29 0 28 0;
#X connect 30 0 31 0;
#X connect 31 0 25 0;
#X connect 33 0 0 0;
#X connect 33 0 24 0;
#X connect 36 0 44 0;
#X connect 36 0 48 0;
#X connect 37 0 36 0;
#X connect 37 1 36 2;
#X connect 38 0 36 0;
#X connect 38 1 36 1;
#X connect 39 0 38 0;
#X connect 40 0 35 2;
#X connect 40 0 34 2;
#X connect 41 0 35 0;
#X connect 41 0 34 0;
#X connect 42 0 35 1;
#X connect 42 0 34 1;
#X connect 43 0 41 0;
#X connect 43 1 42 0;
#X connect 43 2 40 0;
#X connect 44 0 43 0;
#X connect 44 1 45 0;
#X connect 46 0 47 0;
#X connect 47 0 49 0;
#X connect 47 1 50 0;
#X connect 48 0 46 0;
#X connect 48 1 46 1;
#X connect 48 2 46 2;
#X connect 49 0 51 0;
#X connect 50 0 51 0;
#X connect 52 0 26 1;
#X connect 53 0 36 0;
#X connect 54 0 37 0;
#X restore 11 433 pd engine;
#X obj 63 224 cnv 15 26 28 empty empty empty 20 12 0 14 -33289 -66577
0;
#X obj 66 228 bng 20 250 50 0 \$0-reset norcv empty 23 9 0 12 -258113
-1 -228856;
#X text 73 380 Juan Ignacio Mendoza Garay - 2016;
#X text 115 20 Write several signals;
#X text 83 40 to a space-separated text file;
#X text 95 305 Pd window preceded by the symbol;
#X text 95 325 "add".;
#X obj 63 125 cnv 15 26 28 empty empty empty 20 12 0 14 -33289 -66577
0;
#X obj 66 129 bng 20 250 50 0 trig_header norcv empty 23 9 0 12 -257985
-1 -228856;
#X text 95 96 1) select signal variants to record;
#X text 95 128 2) add header;
#X text 95 164 3) generate main signal;
#X text 95 194 4) write file;
#X text 95 228 5) reset;
#X text 95 285 Recorded data is displayed in the;
#X coords 0 -1 1 1 360 402 1 10 10;
#X restore -30 -95 pd main;
#X coords 0 0 1 1 360 402 0;
