#N canvas 412 164 757 760 12;
#X declare -lib mrpeach;
#X obj 219 266 hidin;
#X msg 221 0 start;
#X msg 234 29 stop;
#X msg 274 165 close;
#X msg 274 191 show;
#X floatatom 219 357 5 0 0 0 - - -;
#X floatatom 258 357 5 0 0 0 - - -;
#X text 348 65 the interval between each event (in ms);
#X msg 280 217 print;
#X msg 258 135 open 4;
#X text 313 190 print the available elements of the current device
;
#X text 324 216 print the available devices to the Pd window;
#X msg 248 66 interval 10;
#X msg 202 -29 bang;
#X text 238 -30 prints a list of devices to the right outlet;
#X obj 251 296 print DEVICES;
#N canvas 162 133 578 428 serin 0;
#X obj 209 61 cnv 15 15 15 empty \$0-open-canvas 4 4 8 0 14 -233017
-1 0;
#X obj 60 61 hradio 15 1 1 10 empty empty empty 0 -6 0 8 -225271 -1
-1 4;
#X obj 60 13 inlet;
#X msg 200 202 label \$1;
#X obj 200 180 makefilename %d;
#X obj 59 108 int;
#X obj 59 337 outlet;
#X msg 201 306 set \$1 \$2;
#X obj 59 266 trigger bang anything;
#X obj 201 286 list;
#X msg 60 210 open \$1;
#X obj 200 225 send \$0-open-canvas;
#X connect 1 0 5 0;
#X connect 2 0 1 0;
#X connect 3 0 11 0;
#X connect 4 0 3 0;
#X connect 5 0 4 0;
#X connect 5 0 10 0;
#X connect 7 0 6 0;
#X connect 8 0 6 0;
#X connect 8 1 9 0;
#X connect 9 0 7 0;
#X connect 10 0 8 0;
#X coords 0 -1 1 1 165 17 1 60 60;
#X restore 258 109 pd serin;
#X obj 29 -29 import mrpeach;
#X obj 219 487 packOSC;
#X obj 219 627 unpackOSC;
#X msg 219 457 send /joystick/\$1;
#X msg 219 387 y \$1;
#X obj 219 427 l2s;
#X msg 258 387 x \$1;
#X obj 219 326 route 1 2;
#X obj 219 517 udpsend;
#X msg 46 427 connect 127.0.0.1 6000;
#X obj 219 657 print CONNECTED;
#X obj 219 588 udpreceive 5000;
#X msg 46 487 disconnect;
#X obj 219 547 tgl 15 0 empty empty empty 17 7 0 10 -262144 -1 -1 1
1;
#X obj 289 517 print OSC_MESSAGE;
#X connect 0 0 24 0;
#X connect 0 1 15 0;
#X connect 1 0 0 0;
#X connect 2 0 0 0;
#X connect 3 0 0 0;
#X connect 4 0 0 0;
#X connect 5 0 21 0;
#X connect 6 0 23 0;
#X connect 8 0 0 0;
#X connect 9 0 0 0;
#X connect 12 0 0 0;
#X connect 13 0 0 0;
#X connect 16 0 9 0;
#X connect 18 0 25 0;
#X connect 18 0 31 0;
#X connect 19 0 27 0;
#X connect 20 0 18 0;
#X connect 21 0 22 0;
#X connect 22 0 20 0;
#X connect 23 0 22 0;
#X connect 24 0 5 0;
#X connect 24 1 6 0;
#X connect 25 0 30 0;
#X connect 26 0 25 0;
#X connect 28 0 19 0;
#X connect 29 0 25 0;
