#N canvas 361 194 371 377 10;
#X obj 31 175 select 1 2 3 4 5 6 7 8 9 10 11 12 13 14 15 16;
#X obj 146 105 expr ($f1-1)*16;
#X obj 46 45 loadbang;
#X obj 31 15 inlet col;
#X obj 281 315 outlet end;
#X text 94 345 Juan Ignacio Mendoza G. - 2021;
#N canvas 124 87 290 205 info 0;
#X text 21 20 ARGUMENTS:;
#X text 31 30 \$1: Parent canvas Pd number (\$0);
#X text 31 40 \$2: seq_grid chain number;
#X text 31 80 \$1-seq_row_1 (bang);
#X text 31 90 \$1-seq_row_2 (bang);
#X text 31 100 \$1-seq_row_3 (bang);
#X text 31 110 \$1-seq_row_4 (bang);
#X text 31 120 \$1-seq_row_5 (bang);
#X text 21 70 SENDS:;
#X text 21 150 RECEIVES:;
#X text 31 160 \$1-seq_grid_\$2 : [row \, col \, value] (msg);
#X restore 299 45 pd info;
#N canvas 107 370 527 101 sends 0;
#X obj 18 53 s \$1-seq_row_1;
#X obj 218 53 s \$1-seq_row_3;
#X obj 318 53 s \$1-seq_row_4;
#X obj 418 53 s \$1-seq_row_5;
#X obj 118 53 s \$1-seq_row_2;
#X obj 18 23 r \$0-s_row_1;
#X obj 118 23 r \$0-s_row_2;
#X obj 218 23 r \$0-s_row_3;
#X obj 318 23 r \$0-s_row_4;
#X obj 418 23 r \$0-s_row_5;
#X connect 5 0 0 0;
#X connect 6 0 4 0;
#X connect 7 0 1 0;
#X connect 8 0 2 0;
#X connect 9 0 3 0;
#X restore 293 75 pd sends;
#X obj 46 75 \$2;
#X obj 31 145 - 0;
#X obj 146 15 inlet n;
#X obj 86 75 s \$0-lb;
#X obj 21 205 seq_col_5 \$0 1;
#X obj 37 205 seq_col_5 \$0 2;
#X obj 53 205 seq_col_5 \$0 3;
#X obj 69 205 seq_col_5 \$0 4;
#X obj 85 205 seq_col_5 \$0 5;
#X obj 101 205 seq_col_5 \$0 6;
#X obj 117 205 seq_col_5 \$0 7;
#X obj 133 205 seq_col_5 \$0 8;
#X obj 149 205 seq_col_5 \$0 9;
#X obj 165 205 seq_col_5 \$0 10;
#X obj 181 205 seq_col_5 \$0 11;
#X obj 197 205 seq_col_5 \$0 12;
#X obj 213 205 seq_col_5 \$0 13;
#X obj 229 205 seq_col_5 \$0 14;
#X obj 245 205 seq_col_5 \$0 15;
#X obj 261 205 seq_col_5 \$0 16;
#N canvas 947 353 251 209 receive 0;
#X obj 24 14 r \$1-seq_grid_\$2;
#X obj 24 130 pack f f f \$0;
#X msg 24 153 \; \$4-r_col_\$2 \$1 \$3;
#X obj 24 44 unpack f f f;
#X obj 154 14 inlet;
#X obj 49 100 - 0;
#X connect 0 0 3 0;
#X connect 1 0 2 0;
#X connect 3 0 1 0;
#X connect 3 1 5 0;
#X connect 3 2 1 2;
#X connect 4 0 5 1;
#X connect 5 0 1 1;
#X restore 281 145 pd receive;
#X connect 0 0 12 0;
#X connect 0 1 13 0;
#X connect 0 2 14 0;
#X connect 0 3 15 0;
#X connect 0 4 16 0;
#X connect 0 5 17 0;
#X connect 0 6 18 0;
#X connect 0 7 19 0;
#X connect 0 8 20 0;
#X connect 0 9 21 0;
#X connect 0 10 22 0;
#X connect 0 11 23 0;
#X connect 0 12 24 0;
#X connect 0 13 25 0;
#X connect 0 14 26 0;
#X connect 0 15 4 0;
#X connect 0 15 27 0;
#X connect 1 0 9 1;
#X connect 1 0 28 0;
#X connect 2 0 8 0;
#X connect 2 0 11 0;
#X connect 3 0 9 0;
#X connect 8 0 1 0;
#X connect 9 0 0 0;
#X connect 10 0 1 0;
#X coords 0 -1 1 1 259 105 2 20 200;
