#N canvas 117 -777 682 523 10;
#X obj 108 79 metro 500;
#X obj 105 38 tgl 15 0 empty empty empty 17 7 0 10 -262144 -1 -1 0
1;
#X msg 84 289 60;
#X msg 126 288 64;
#X msg 165 289 67;
#X msg 231 286 70;
#X msg 283 292 72;
#X msg 195 288 69;
#X obj 84 328 makenote 64 250;
#X obj 83 398 noteout 1;
#X obj 108 109 counter;
#X floatatom 108 144 5 0 0 0 - - -;
#X obj 108 176 % 6;
#X floatatom 105 208 5 0 0 0 - - -;
#X obj 103 237 sel 0 1 2 3 4 5;
#X msg 329 291 74;
#X msg 223 41 250;
#X msg 223 66 500;
#X msg 222 91 1500;
#X obj 64 124 bng 15 250 50 0 empty empty empty 17 7 0 10 -262144 -1
-1;
#N canvas 522 99 695 439 Juan's_sound_machine 0;
#X obj 34 65 inlet;
#X obj 154 65 inlet;
#X obj 34 105 mtof;
#X text 11 11 ctrl-click over an object and select "help" to learn
how the object works;
#X obj 34 405 dac~;
#X obj 34 145 osc~;
#X obj 414 65 loadbang;
#X msg 414 95 \; pd dsp 1;
#X obj 34 355 *~;
#X obj 154 147 vsl 15 128 0 1 0 0 empty empty empty 0 -9 0 10 -262144
-1 -1 2500 1;
#X floatatom 154 286 5 0 0 0 - - -;
#X obj 34 185 *~;
#X obj 154 95 / 127;
#X text 195 95 MIDI values range from 0 to 127;
#X text 477 107 turn audio on;
#X connect 0 0 2 0;
#X connect 1 0 12 0;
#X connect 2 0 5 0;
#X connect 5 0 11 0;
#X connect 6 0 7 0;
#X connect 8 0 4 0;
#X connect 8 0 4 1;
#X connect 9 0 8 1;
#X connect 9 0 10 0;
#X connect 11 0 8 0;
#X connect 12 0 11 1;
#X restore 224 400 pd Juan's_sound_machine;
#X text 369 398 <--- open this (ctrl-click);
#X connect 0 0 10 0;
#X connect 0 0 19 0;
#X connect 1 0 0 0;
#X connect 2 0 8 0;
#X connect 3 0 8 0;
#X connect 4 0 8 0;
#X connect 5 0 8 0;
#X connect 6 0 8 0;
#X connect 7 0 8 0;
#X connect 8 0 9 0;
#X connect 8 0 20 0;
#X connect 8 1 9 1;
#X connect 8 1 20 1;
#X connect 10 0 11 0;
#X connect 11 0 12 0;
#X connect 12 0 13 0;
#X connect 13 0 14 0;
#X connect 14 0 2 0;
#X connect 14 1 15 0;
#X connect 14 2 4 0;
#X connect 14 4 6 0;
#X connect 14 4 3 0;
#X connect 14 5 7 0;
#X connect 14 6 5 0;
#X connect 16 0 0 1;
#X connect 17 0 0 1;
#X connect 18 0 0 1;
