#N canvas 241 42 379 429 16;
#X obj 29 285 spigot;
#X obj 179 335 outlet;
#X msg 66 253 1;
#X msg 116 253 0;
#X obj 179 285 spigot;
#X msg 216 253 1;
#X msg 266 253 0;
#X obj 29 335 outlet;
#X obj 169 75 select 1 2;
#X obj 169 35 inlet control;
#X obj 29 35 inlet data;
#X text 28 376 Juan Ignacio Mendoza Garay - 2018;
#X connect 0 0 7 0;
#X connect 2 0 0 1;
#X connect 3 0 0 1;
#X connect 4 0 1 0;
#X connect 5 0 4 1;
#X connect 6 0 4 1;
#X connect 8 0 6 0;
#X connect 8 0 2 0;
#X connect 8 1 3 0;
#X connect 8 1 5 0;
#X connect 8 2 3 0;
#X connect 8 2 6 0;
#X connect 9 0 8 0;
#X connect 10 0 4 0;
#X connect 10 0 0 0;
