#N canvas 371 92 335 342 10;
#X obj 222 9 inlet tap;
#X obj 221 129 phasor~;
#X obj 222 99 sig~;
#X obj -18 9 inlet~ ch1;
#X obj -1 249 *~;
#X obj 89 249 *~;
#X obj 152 9 inlet mix;
#X obj 222 39 timer;
#X obj 222 69 inv;
#X obj 72 9 inlet~ ch2;
#X obj -18 309 outlet~ ch1;
#X obj 72 309 outlet~ ch2;
#X obj 72 279 drywet;
#X obj -18 279 drywet;
#X connect 0 0 7 0;
#X connect 1 0 4 1;
#X connect 1 0 5 1;
#X connect 2 0 1 0;
#X connect 3 0 4 0;
#X connect 3 0 13 0;
#X connect 4 0 13 1;
#X connect 5 0 12 1;
#X connect 6 0 12 2;
#X connect 6 0 13 2;
#X connect 7 0 8 0;
#X connect 8 0 2 0;
#X connect 9 0 5 0;
#X connect 9 0 12 0;
#X connect 12 0 11 0;
#X connect 13 0 10 0;
