#N canvas 894 23 245 209 12;
#X declare -lib Gem;
#X declare -lib iemmatrix;
#N canvas 527 232 378 451 control 0;
#X text -277 158 controller -->;
#X obj -197 329 s \$0-c_x;
#X obj -109 329 s \$0-c_y;
#X obj -42 259 s \$0-c_s;
#N canvas 251 277 432 399 polling_xy 0;
#X obj 10 286 f;
#X obj 10 316 outlet;
#X obj 80 286 f;
#X obj 80 316 outlet;
#X obj 168 216 metro 25;
#X obj 98 6 r \$0-d_y;
#X obj 28 6 r \$0-d_x;
#X msg 168 186 1;
#X obj 168 156 loadbang;
#X connect 0 0 1 0;
#X connect 2 0 3 0;
#X connect 4 0 0 0;
#X connect 4 0 2 0;
#X connect 5 0 2 1;
#X connect 6 0 0 1;
#X connect 7 0 4 0;
#X connect 8 0 7 0;
#X restore -197 289 pd polling_xy;
#X obj -171 119 video_blob;
#X obj -197 259 s \$0-d_x;
#X obj -119 259 s \$0-d_y;
#X text -251 46 on/off -->;
#X obj -171 49 tgl 15 0 empty empty video 17 7 0 10 -262144 -1 -1 1
1;
#X obj -111 -31 loadbang;
#X obj -164 89 s \$0-h_3x4_d;
#X obj -164 69 tgl 15 0 empty empty ROI 17 7 0 10 -262144 -1 -1 1 1
;
#X msg -171 -31 set \$1;
#X obj -171 -61 tgl 15 0 empty empty empty 17 7 0 10 -262144 -1 -1
0 1;
#X msg -171 -1 1;
#N canvas 245 353 361 103 ROI_hub_5 0;
#N canvas 553 414 389 357 ROI 0;
#X msg 116 99 0.08 0.1 0.5 0.91;
#X obj 58 261 outlet;
#X obj 58 231 select 1;
#X obj -32 69 r \$0-d_x;
#X obj 46 69 r \$0-d_y;
#X obj 116 49 list_set_4_GUI;
#X obj 286 129 list;
#X obj 286 19 list;
#X text 121 26 pos.;
#X text 157 26 size;
#X text 201 26 pos.;
#X text 237 26 size;
#X text 117 6 __________;
#X text 184 15 |;
#X text 114 15 |;
#X text 197 6 __________;
#X text 264 15 |;
#X text 194 15 |;
#X text 149 0 X;
#X text 229 0 Y;
#X obj 58 199 rectangle_ROI;
#X obj 146 159 r \$0-ROI_onoff;
#X connect 0 0 6 0;
#X connect 0 0 20 2;
#X connect 2 0 1 0;
#X connect 3 0 20 0;
#X connect 4 0 20 1;
#X connect 5 0 0 0;
#X connect 6 0 7 0;
#X connect 7 0 5 4;
#X connect 20 0 2 0;
#X connect 21 0 20 4;
#X restore -195 10 pd ROI;
#X obj -158 41 bng 18 250 50 0 empty empty empty 17 7 0 10 -262144
-1 -1;
#X obj -195 70 s \$0-ROI;
#X msg -195 40 1;
#N canvas 553 414 389 357 ROI 0;
#X msg 116 99 0.27 0.1 0.5 0.91;
#X obj 58 261 outlet;
#X obj 58 231 select 1;
#X obj -32 69 r \$0-d_x;
#X obj 46 69 r \$0-d_y;
#X obj 116 49 list_set_4_GUI;
#X obj 286 129 list;
#X obj 286 19 list;
#X text 121 26 pos.;
#X text 157 26 size;
#X text 201 26 pos.;
#X text 237 26 size;
#X text 117 6 __________;
#X text 184 15 |;
#X text 114 15 |;
#X text 197 6 __________;
#X text 264 15 |;
#X text 194 15 |;
#X text 149 0 X;
#X text 229 0 Y;
#X obj 58 199 rectangle_ROI;
#X obj 146 159 r \$0-ROI_onoff;
#X connect 0 0 6 0;
#X connect 0 0 20 2;
#X connect 2 0 1 0;
#X connect 3 0 20 0;
#X connect 4 0 20 1;
#X connect 5 0 0 0;
#X connect 6 0 7 0;
#X connect 7 0 5 4;
#X connect 20 0 2 0;
#X connect 21 0 20 4;
#X restore -125 10 pd ROI;
#X obj -88 41 bng 18 250 50 0 empty empty empty 17 7 0 10 -262144 -1
-1;
#X obj -125 70 s \$0-ROI;
#X msg -125 40 2;
#N canvas 553 414 389 357 ROI 0;
#X msg 116 99 0.48 0.1 0.5 0.91;
#X obj 58 261 outlet;
#X obj 58 231 select 1;
#X obj -32 69 r \$0-d_x;
#X obj 46 69 r \$0-d_y;
#X obj 116 49 list_set_4_GUI;
#X obj 286 129 list;
#X obj 286 19 list;
#X text 121 26 pos.;
#X text 157 26 size;
#X text 201 26 pos.;
#X text 237 26 size;
#X text 117 6 __________;
#X text 184 15 |;
#X text 114 15 |;
#X text 197 6 __________;
#X text 264 15 |;
#X text 194 15 |;
#X text 149 0 X;
#X text 229 0 Y;
#X obj 58 199 rectangle_ROI;
#X obj 146 159 r \$0-ROI_onoff;
#X connect 0 0 6 0;
#X connect 0 0 20 2;
#X connect 2 0 1 0;
#X connect 3 0 20 0;
#X connect 4 0 20 1;
#X connect 5 0 0 0;
#X connect 6 0 7 0;
#X connect 7 0 5 4;
#X connect 20 0 2 0;
#X connect 21 0 20 4;
#X restore -55 10 pd ROI;
#X obj -18 41 bng 18 250 50 0 empty empty empty 17 7 0 10 -262144 -1
-1;
#X obj -55 70 s \$0-ROI;
#N canvas 553 414 389 357 ROI 0;
#X msg 116 99 0.69 0.1 0.5 0.91;
#X obj 58 261 outlet;
#X obj 58 231 select 1;
#X obj -32 69 r \$0-d_x;
#X obj 46 69 r \$0-d_y;
#X obj 116 49 list_set_4_GUI;
#X obj 286 129 list;
#X obj 286 19 list;
#X text 121 26 pos.;
#X text 157 26 size;
#X text 201 26 pos.;
#X text 237 26 size;
#X text 117 6 __________;
#X text 184 15 |;
#X text 114 15 |;
#X text 197 6 __________;
#X text 264 15 |;
#X text 194 15 |;
#X text 149 0 X;
#X text 229 0 Y;
#X obj 58 199 rectangle_ROI;
#X obj 146 159 r \$0-ROI_onoff;
#X connect 0 0 6 0;
#X connect 0 0 20 2;
#X connect 2 0 1 0;
#X connect 3 0 20 0;
#X connect 4 0 20 1;
#X connect 5 0 0 0;
#X connect 6 0 7 0;
#X connect 7 0 5 4;
#X connect 20 0 2 0;
#X connect 21 0 20 4;
#X restore 15 10 pd ROI;
#X obj 52 41 bng 18 250 50 0 empty empty empty 17 7 0 10 -262144 -1
-1;
#X obj 15 70 s \$0-ROI;
#X msg -55 40 3;
#X msg 15 40 4;
#N canvas 553 414 389 357 ROI 0;
#X msg 116 99 0.87 0.09 0.5 0.91;
#X obj 58 261 outlet;
#X obj 58 231 select 1;
#X obj -32 69 r \$0-d_x;
#X obj 46 69 r \$0-d_y;
#X obj 116 49 list_set_4_GUI;
#X obj 286 129 list;
#X obj 286 19 list;
#X text 121 26 pos.;
#X text 157 26 size;
#X text 201 26 pos.;
#X text 237 26 size;
#X text 117 6 __________;
#X text 184 15 |;
#X text 114 15 |;
#X text 197 6 __________;
#X text 264 15 |;
#X text 194 15 |;
#X text 149 0 X;
#X text 229 0 Y;
#X obj 58 199 rectangle_ROI;
#X obj 146 159 r \$0-ROI_onoff;
#X connect 0 0 6 0;
#X connect 0 0 20 2;
#X connect 2 0 1 0;
#X connect 3 0 20 0;
#X connect 4 0 20 1;
#X connect 5 0 0 0;
#X connect 6 0 7 0;
#X connect 7 0 5 4;
#X connect 20 0 2 0;
#X connect 21 0 20 4;
#X restore 85 10 pd ROI;
#X obj 122 41 bng 18 250 50 0 empty empty empty 17 7 0 10 -262144 -1
-1;
#X obj 85 70 s \$0-ROI;
#X msg 85 40 5;
#X connect 0 0 3 0;
#X connect 0 0 1 0;
#X connect 3 0 2 0;
#X connect 4 0 7 0;
#X connect 4 0 5 0;
#X connect 7 0 6 0;
#X connect 8 0 14 0;
#X connect 8 0 9 0;
#X connect 11 0 15 0;
#X connect 11 0 12 0;
#X connect 14 0 10 0;
#X connect 15 0 13 0;
#X connect 16 0 19 0;
#X connect 16 0 17 0;
#X connect 19 0 18 0;
#X restore -35 329 pd ROI_hub_5;
#X obj -80 38 s \$0-ROI_onoff;
#X connect 4 0 1 0;
#X connect 4 1 2 0;
#X connect 5 0 6 0;
#X connect 5 1 7 0;
#X connect 5 2 3 0;
#X connect 9 0 12 0;
#X connect 9 0 5 0;
#X connect 10 0 15 0;
#X connect 12 0 11 0;
#X connect 13 0 15 0;
#X connect 14 0 13 0;
#X connect 15 0 17 0;
#X connect 15 0 9 0;
#X restore 77 41 pd control;
#N canvas 429 219 806 596 mapping 0;
#X obj -81 -341 cnv 15 69 28 empty empty empty 20 12 0 14 -99865 -66577
0;
#X obj -79 -339 cnv 15 65 24 empty empty empty 20 12 0 14 -4160 -66577
0;
#X obj -66 -195 vsl 30 128 0.01 1 0 0 empty empty empty 0 -9 0 10 -1
-262144 -1 0 1;
#X obj -100 -48 cnv 15 115 26 empty empty empty 20 12 0 14 -162280
-66577 0;
#X obj -100 -48 cnv 15 113 24 empty empty empty 20 12 0 14 -1 -66577
0;
#X obj -76 -337 r \$0-c_s;
#X obj -76 -46 s \$0-size;
#X obj -345 72 cnv 15 157 28 empty empty empty 20 12 0 14 -1 -66577
0;
#X obj -343 74 cnv 15 153 24 empty empty empty 20 12 0 14 -204800 -66577
0;
#N canvas 0 23 301 297 balance_control_1 0;
#X obj 63 14 inlet;
#X obj 86 244 s \$0-SB_1_bal;
#X obj 63 154 moses 0;
#X obj 63 124 expr (-$f1 * 2) + 1;
#X obj 23 194 expr -sqrt(-$f1);
#X obj 149 194 expr sqrt($f1);
#X obj 63 94 line;
#X msg 63 64 \$1 400;
#X connect 0 0 7 0;
#X connect 2 0 4 0;
#X connect 2 1 5 0;
#X connect 3 0 2 0;
#X connect 4 0 1 0;
#X connect 5 0 1 0;
#X connect 6 0 3 0;
#X connect 7 0 6 0;
#X restore -338 76 pd balance_control_1;
#X obj -178 72 cnv 15 147 28 empty empty empty 20 12 0 14 -86277 -66577
0;
#X obj -176 74 cnv 15 143 24 empty empty empty 20 12 0 14 -262130 -66577
0;
#X obj -193 -341 cnv 15 69 28 empty empty empty 20 12 0 14 -99865 -66577
0;
#X obj -191 -339 cnv 15 65 24 empty empty empty 20 12 0 14 -261682
-66577 0;
#X obj -330 -341 cnv 15 69 28 empty empty empty 20 12 0 14 -99865 -66577
0;
#X obj -328 -339 cnv 15 65 24 empty empty empty 20 12 0 14 -261234
-66577 0;
#X obj -326 -337 r \$0-c_x;
#X obj -189 -337 r \$0-c_y;
#N canvas 435 459 546 272 euclidean_norm_2D 0;
#X obj -116 26 inlet x;
#X obj 79 26 inlet y;
#X obj -116 75 expr pow($f1 \, 2);
#X obj 79 75 expr pow($f1 \, 2);
#X obj -44 166 outlet;
#X obj -44 125 expr sqrt($f1+$f2);
#X connect 0 0 2 0;
#X connect 1 0 3 0;
#X connect 2 0 5 0;
#X connect 3 0 5 1;
#X connect 5 0 4 0;
#X restore -326 -117 pd euclidean_norm_2D;
#X obj -335 -48 cnv 15 115 26 empty empty empty 20 12 0 14 -162280
-66577 0;
#X obj -335 -48 cnv 15 113 24 empty empty empty 20 12 0 14 -1 -66577
0;
#X obj -326 -46 s \$0-velocity;
#N canvas 758 22 316 341 velocity 0;
#X obj -145 -1 delta;
#X obj 48 27 vsl 17 74 0 1 0 0 empty empty empty 0 -9 0 10 -228856
-258113 -1 0 1;
#X obj -145 29 abs;
#X obj -145 89 average 20;
#N canvas 0 22 245 182 settler 0;
#X obj 1 1 cnv 15 39 37 empty empty empty 20 12 0 14 -191407 -66577
0;
#X floatatom 2 18 5 0 0 0 - - -;
#X msg -138 -23 20;
#X text -138 -53 settler;
#X text -137 87 Juan Ignacio Mendoza - 2017;
#X msg -138 57 set \$1;
#X obj 2 2 bng 15 250 50 0 empty empty empty 17 7 0 10 -262144 -1 -1
;
#X obj 2 57 outlet;
#X obj -12 -53 loadbang;
#X msg -12 -23 20;
#X connect 1 0 5 0;
#X connect 1 0 7 0;
#X connect 2 0 1 0;
#X connect 5 0 2 0;
#X connect 6 0 1 0;
#X connect 8 0 9 0;
#X connect 9 0 1 0;
#X coords 0 -1 1 1 41 39 2 0 0;
#X restore 6 25 pd settler;
#N canvas 0 22 245 182 settler 0;
#X obj 1 1 cnv 15 39 37 empty empty empty 20 12 0 14 -191407 -66577
0;
#X floatatom 2 18 5 0 0 0 - - -;
#X msg -138 -23 2;
#X text -138 -53 settler;
#X text -137 87 Juan Ignacio Mendoza - 2017;
#X msg -138 57 set \$1;
#X obj 2 2 bng 15 250 50 0 empty empty empty 17 7 0 10 -262144 -1 -1
;
#X obj 2 57 outlet;
#X obj -12 -53 loadbang;
#X msg -12 -23 2;
#X connect 1 0 5 0;
#X connect 1 0 7 0;
#X connect 2 0 1 0;
#X connect 5 0 2 0;
#X connect 6 0 1 0;
#X connect 8 0 9 0;
#X connect 9 0 1 0;
#X coords 0 -1 1 1 41 39 2 0 0;
#X restore 6 65 pd settler;
#X obj -145 -31 inlet;
#X obj -145 249 outlet;
#X obj -145 219 rescaler;
#X obj -132 119 loadbang;
#X msg -132 149 0;
#X obj 6 153 / 100;
#X msg -92 152 1;
#X connect 0 0 2 0;
#X connect 2 0 3 0;
#X connect 3 0 8 0;
#X connect 4 0 3 1;
#X connect 5 0 11 0;
#X connect 6 0 0 0;
#X connect 8 0 7 0;
#X connect 8 0 1 0;
#X connect 9 0 10 0;
#X connect 9 0 12 0;
#X connect 10 0 8 1;
#X connect 10 0 8 3;
#X connect 11 0 8 2;
#X connect 12 0 8 4;
#X coords 0 -1 1 1 72 110 1 0 0;
#X restore -326 -237 pd velocity;
#N canvas 758 22 316 341 velocity 0;
#X obj -145 -1 delta;
#X obj 48 27 vsl 17 74 0 1 0 0 empty empty empty 0 -9 0 10 -228856
-258113 -1 0 1;
#X obj -145 29 abs;
#X obj -145 89 average 20;
#N canvas 0 22 245 182 settler 0;
#X obj 1 1 cnv 15 39 37 empty empty empty 20 12 0 14 -191407 -66577
0;
#X floatatom 2 18 5 0 0 0 - - -;
#X msg -138 -23 20;
#X text -138 -53 settler;
#X text -137 87 Juan Ignacio Mendoza - 2017;
#X msg -138 57 set \$1;
#X obj 2 2 bng 15 250 50 0 empty empty empty 17 7 0 10 -262144 -1 -1
;
#X obj 2 57 outlet;
#X obj -12 -53 loadbang;
#X msg -12 -23 20;
#X connect 1 0 5 0;
#X connect 1 0 7 0;
#X connect 2 0 1 0;
#X connect 5 0 2 0;
#X connect 6 0 1 0;
#X connect 8 0 9 0;
#X connect 9 0 1 0;
#X coords 0 -1 1 1 41 39 2 0 0;
#X restore 6 25 pd settler;
#N canvas 0 22 245 182 settler 0;
#X obj 1 1 cnv 15 39 37 empty empty empty 20 12 0 14 -191407 -66577
0;
#X floatatom 2 18 5 0 0 0 - - -;
#X msg -138 -23 2;
#X text -138 -53 settler;
#X text -137 87 Juan Ignacio Mendoza - 2017;
#X msg -138 57 set \$1;
#X obj 2 2 bng 15 250 50 0 empty empty empty 17 7 0 10 -262144 -1 -1
;
#X obj 2 57 outlet;
#X obj -12 -53 loadbang;
#X msg -12 -23 2;
#X connect 1 0 5 0;
#X connect 1 0 7 0;
#X connect 2 0 1 0;
#X connect 5 0 2 0;
#X connect 6 0 1 0;
#X connect 8 0 9 0;
#X connect 9 0 1 0;
#X coords 0 -1 1 1 41 39 2 0 0;
#X restore 6 65 pd settler;
#X obj -145 -31 inlet;
#X obj -145 249 outlet;
#X obj -145 219 rescaler;
#X obj -132 119 loadbang;
#X msg -132 149 0;
#X obj 6 153 / 100;
#X msg -92 152 1;
#X floatatom -25 232 5 0 0 0 - - -;
#X connect 0 0 2 0;
#X connect 2 0 3 0;
#X connect 3 0 8 0;
#X connect 4 0 3 1;
#X connect 5 0 11 0;
#X connect 6 0 0 0;
#X connect 8 0 7 0;
#X connect 8 0 1 0;
#X connect 8 0 13 0;
#X connect 9 0 10 0;
#X connect 9 0 12 0;
#X connect 10 0 8 1;
#X connect 10 0 8 3;
#X connect 11 0 8 2;
#X connect 12 0 8 4;
#X coords 0 -1 1 1 72 110 1 0 0;
#X restore -189 -237 pd velocity;
#X floatatom -316 -86 5 0 0 0 - - -;
#N canvas 373 105 688 569 Granny_control 0;
#X obj 297 521 s \$0-GS_1_randomness;
#X obj 297 281 t b b b b;
#X msg 317 321 0.9;
#X msg 353 321 0.8;
#X msg 403 321 0.6;
#X obj 297 211 bng 15 250 50 0 empty empty empty 17 7 0 10 -262144
-1 -1;
#X obj 297 151 loadbang;
#X obj 297 181 delay 500;
#X obj 467 11 inlet velocity;
#N canvas 1270 430 326 499 smooth_n_tail 0;
#X obj 142 36 inlet;
#X obj 103 456 outlet;
#X obj 3 126 < 0;
#X obj 73 126 > 0;
#X obj 103 266 gate 2;
#X obj 142 376 line;
#X msg 3 216 2;
#X msg 73 216 1;
#X obj 3 156 select 1;
#X obj 73 156 select 1;
#X obj 3 86 delta;
#X obj 103 426 average 20;
#X msg 142 346 \$1 \$2;
#X obj 195 36 inlet tail time;
#X obj 142 306 pack f f;
#X connect 0 0 10 0;
#X connect 0 0 4 1;
#X connect 2 0 8 0;
#X connect 3 0 9 0;
#X connect 4 0 11 0;
#X connect 4 1 14 0;
#X connect 5 0 11 0;
#X connect 6 0 4 0;
#X connect 7 0 4 0;
#X connect 8 0 6 0;
#X connect 9 0 7 0;
#X connect 10 0 2 0;
#X connect 10 0 3 0;
#X connect 11 0 1 0;
#X connect 12 0 5 0;
#X connect 13 0 14 1;
#X connect 14 0 12 0;
#X restore 467 101 pd smooth_n_tail;
#X obj 467 521 s \$0-GS_1_mix;
#X obj 17 521 s \$0-GS_1_levels;
#X floatatom 596 73 5 0 0 0 - - -;
#X msg 596 42 3000;
#X obj 17 491 pack f f f f f f f f f f f f f f;
#X obj 104 151 t b a;
#X obj 297 491 pack f f f f f f f f f;
#X msg 34 243 0.5;
#X obj 17 203 bang;
#X msg 51 273 0.3;
#X msg 68 303 0.2;
#X msg 102 363 0.7;
#X msg 85 333 0;
#X msg 118 394 0;
#X msg 187 394 0.8;
#X msg 153 334 0;
#X msg 204 424 0;
#X msg 170 364 0.7;
#X obj 244 424 * 0.02;
#X obj 467 321 expr ($f1 / 10);
#X obj 596 9 loadbang;
#X connect 1 0 16 0;
#X connect 1 1 2 0;
#X connect 1 2 3 0;
#X connect 1 3 4 0;
#X connect 2 0 16 2;
#X connect 3 0 16 3;
#X connect 4 0 16 7;
#X connect 5 0 1 0;
#X connect 5 0 17 0;
#X connect 5 0 25 0;
#X connect 6 0 7 0;
#X connect 7 0 5 0;
#X connect 8 0 9 0;
#X connect 9 0 15 0;
#X connect 9 0 29 0;
#X connect 12 0 9 1;
#X connect 13 0 12 0;
#X connect 14 0 11 0;
#X connect 15 0 18 0;
#X connect 15 1 14 7;
#X connect 15 1 28 0;
#X connect 16 0 0 0;
#X connect 17 0 14 1;
#X connect 17 0 19 0;
#X connect 18 0 14 0;
#X connect 19 0 14 2;
#X connect 19 0 20 0;
#X connect 20 0 14 3;
#X connect 20 0 22 0;
#X connect 21 0 14 5;
#X connect 21 0 23 0;
#X connect 22 0 14 4;
#X connect 22 0 21 0;
#X connect 23 0 14 6;
#X connect 24 0 14 10;
#X connect 24 0 26 0;
#X connect 25 0 14 8;
#X connect 25 0 27 0;
#X connect 26 0 14 12;
#X connect 26 0 14 13;
#X connect 27 0 14 9;
#X connect 27 0 24 0;
#X connect 28 0 14 11;
#X connect 29 0 10 0;
#X connect 30 0 13 0;
#X restore -166 76 pd Granny_control;
#X floatatom -179 -296 5 0 0 0 - - -;
#X floatatom -316 -296 5 0 0 0 - - -;
#X obj -166 26 r \$0-velocity;
#X obj -338 26 r \$0-c_x;
#X obj 204 -341 cnv 15 74 28 empty empty empty 20 12 0 14 -162280 -66577
0;
#X obj 206 -339 cnv 15 70 24 empty empty empty 20 12 0 14 -4034 -66577
0;
#X obj 205 -291 cnv 15 120 28 empty empty empty 20 12 0 14 -4160 -66577
0;
#N canvas 335 351 386 235 MIDI_control 0;
#X obj -120 -88 change;
#X obj -120 -118 inlet;
#N canvas 578 268 555 508 cols_pentamajor 0;
#X msg -112 -138 48;
#X obj -202 -208 inlet;
#X msg -72 -138 55;
#X msg -32 -138 62;
#X msg 8 -138 69;
#X msg -112 -28 50;
#X msg -72 -28 57;
#X msg -32 -28 64;
#X msg 8 -28 74;
#X msg -112 92 52;
#X msg -70 93 60;
#X msg -32 92 67;
#X obj -112 -178 select 1 4 7 10;
#X obj -112 -68 select 2 5 8 11;
#X obj -112 52 select 3 6 9 12;
#X msg 8 93 76;
#X obj -52 -98 s \$0-MIDI_notes_1;
#X obj -52 12 s \$0-MIDI_notes_1;
#X obj -52 132 s \$0-MIDI_notes_1;
#X obj -52 172 r \$0-MIDI_notes_1;
#X msg -52 202 \$1 1;
#X obj -52 232 outlet;
#X connect 0 0 16 0;
#X connect 1 0 12 0;
#X connect 1 0 13 0;
#X connect 1 0 14 0;
#X connect 2 0 16 0;
#X connect 3 0 16 0;
#X connect 4 0 16 0;
#X connect 5 0 17 0;
#X connect 6 0 17 0;
#X connect 7 0 17 0;
#X connect 8 0 17 0;
#X connect 9 0 18 0;
#X connect 10 0 18 0;
#X connect 11 0 18 0;
#X connect 12 0 0 0;
#X connect 12 1 2 0;
#X connect 12 2 3 0;
#X connect 12 3 4 0;
#X connect 13 0 5 0;
#X connect 13 1 6 0;
#X connect 13 2 7 0;
#X connect 13 3 8 0;
#X connect 14 0 9 0;
#X connect 14 1 10 0;
#X connect 14 2 11 0;
#X connect 14 3 15 0;
#X connect 15 0 18 0;
#X connect 19 0 20 0;
#X connect 20 0 21 0;
#X restore -120 -58 pd cols_pentamajor;
#N canvas 334 298 324 372 send_MIDI_notes 0;
#X obj 29 134 unpack f f f;
#X obj 110 172 outlet channel;
#X obj 29 232 outlet note;
#X obj 69 202 outlet velocity;
#X obj 73 3 r \$0-c_s;
#X obj 29 62 build_MIDI_IO;
#X obj 29 -39 inlet;
#X connect 0 0 2 0;
#X connect 0 1 3 0;
#X connect 0 2 1 0;
#X connect 4 0 5 1;
#X connect 5 0 0 0;
#X connect 6 0 5 0;
#X restore -120 -28 pd send_MIDI_notes;
#X obj -182 52 outlet cc/note;
#X obj 78 52 outlet channel;
#X obj -59 52 outlet value/vel;
#X connect 0 0 2 0;
#X connect 1 0 0 0;
#X connect 2 0 3 0;
#X connect 3 0 4 0;
#X connect 3 1 6 0;
#X connect 3 2 5 0;
#X restore 211 -287 pd MIDI_control;
#X obj 211 -337 r \$0-ROI;
#X floatatom 211 -247 5 0 0 0 - - -;
#X floatatom 371 -247 5 0 0 0 - - -;
#X floatatom -66 -236 5 0 0 0 - - -;
#X obj 43 -341 cnv 15 132 28 empty empty empty 20 12 0 14 -162280 -66577
0;
#X obj 45 -339 cnv 15 128 24 empty empty empty 20 12 0 14 -143751 -66577
0;
#X text -353 -17 ------------------------------------------------------------
;
#X obj 43 -48 cnv 15 115 26 empty empty empty 20 12 0 14 -162280 -66577
0;
#X obj 43 -48 cnv 15 113 24 empty empty empty 20 12 0 14 -1 -66577
0;
#X floatatom 69 -296 5 0 0 0 - - -;
#X obj 46 -46 s \$0-note_shift;
#N canvas 260 22 435 249 note_shifter 0;
#X obj 38 214 outlet;
#X obj 38 14 inlet dynamic note;
#X obj 38 184 -;
#X obj 198 14 inlet tgl set center note;
#X obj 56 154 spigot;
#X obj 198 214 outlet;
#X msg 198 154 68;
#X obj 198 120 loadbang;
#X text 235 152 default;
#X connect 1 0 2 0;
#X connect 1 0 4 0;
#X connect 2 0 0 0;
#X connect 3 0 4 1;
#X connect 4 0 2 1;
#X connect 4 0 5 0;
#X connect 6 0 2 1;
#X connect 7 0 6 0;
#X restore 46 -127 pd note_shifter;
#X floatatom 66 -96 5 0 0 0 - - -;
#X obj 148 -157 tgl 15 0 empty empty set_center -63 8 0 10 -258113
-262144 -1 0 1;
#X floatatom 128 -96 5 0 0 0 - - -;
#X obj 47 -337 r \$0-MIDI_notes_3;
#X floatatom 320 -247 5 0 0 0 - - -;
#X obj -67 192 cnv 15 147 28 empty empty empty 20 12 0 14 -1 -66577
0;
#X obj -65 194 cnv 15 143 24 empty empty empty 20 12 0 14 -240960 -66577
0;
#X obj 253 192 cnv 15 127 28 empty empty empty 20 12 0 14 -4160 -66577
0;
#X obj 255 194 cnv 15 123 24 empty empty empty 20 12 0 14 -13330 -66577
0;
#N canvas 316 150 277 219 wave_control 0;
#X obj 12 143 s \$0-wave_energy;
#X obj 12 -17 inlet;
#X obj 12 113 line;
#X obj 148 -17 inlet;
#X obj 148 113 line;
#X obj 148 143 s \$0-wave_level;
#X msg 12 83 \$1 1000;
#X obj 148 53 loadbang;
#X obj 12 53 *;
#X msg 148 83 0.6 1000;
#X obj 12 23 * 2;
#X connect 1 0 10 0;
#X connect 2 0 0 0;
#X connect 3 0 8 1;
#X connect 4 0 5 0;
#X connect 6 0 2 0;
#X connect 7 0 9 0;
#X connect 8 0 6 0;
#X connect 9 0 4 0;
#X connect 10 0 8 0;
#X restore 262 196 pd wave_control;
#X obj -345 192 cnv 15 127 28 empty empty empty 20 12 0 14 -179017
-66577 0;
#X obj -343 194 cnv 15 123 24 empty empty empty 20 12 0 14 -1 -66577
0;
#N canvas 493 447 299 230 AB_control 0;
#X obj 16 191 s \$0-AB_1;
#X obj 16 15 inlet;
#X obj 91 16 r \$0-instrument_select;
#X obj 16 116 spigot;
#X obj 91 46 select 5;
#X msg 91 76 1;
#X msg 144 76 0;
#X obj 16 146 expr $f1*40;
#X connect 1 0 3 0;
#X connect 2 0 4 0;
#X connect 3 0 7 0;
#X connect 4 0 5 0;
#X connect 4 1 6 0;
#X connect 5 0 3 1;
#X connect 6 0 3 1;
#X connect 7 0 0 0;
#X restore -329 196 pd AB_control;
#N canvas 760 111 255 416 panner_control_1 0;
#X obj 12 21 inlet;
#X obj 12 361 s \$0-st_panner_1;
#X obj 12 331 line;
#X msg 12 301 \$1 500;
#X msg 12 192 0;
#X obj 12 162 moses 0.1;
#X obj 12 261 expr ($f1);
#X connect 0 0 5 0;
#X connect 2 0 1 0;
#X connect 3 0 2 0;
#X connect 4 0 6 0;
#X connect 5 0 4 0;
#X connect 5 1 6 0;
#X connect 6 0 3 0;
#X restore -62 196 pd panner_control_1;
#X obj -62 156 r \$0-size;
#X obj -329 156 r \$0-size;
#X obj 262 156 r \$0-velocity;
#X obj 364 156 r \$0-size;
#X text 67 -17 -----------------------------------------------------
;
#X text -353 113 ------------------------------------------------------------
;
#N canvas 0 22 254 185 Instrument_gate 0;
#X obj 18 17 inlet;
#X obj 73 17 r \$0-instrument_select;
#X obj 18 117 spigot;
#X msg 73 77 1;
#X msg 126 77 0;
#X obj 73 47 select 4;
#X obj 18 150 outlet;
#X connect 0 0 2 0;
#X connect 1 0 5 0;
#X connect 2 0 6 0;
#X connect 3 0 2 1;
#X connect 4 0 2 1;
#X connect 5 0 3 0;
#X connect 5 1 4 0;
#X restore 46 -189 pd Instrument_gate;
#X text -340 -5 Kekkonen:;
#X text -340 125 Aaltoja:;
#X obj -205 192 cnv 15 127 28 empty empty empty 20 12 0 14 -232576
-66577 0;
#X obj -203 194 cnv 15 123 24 empty empty empty 20 12 0 14 -261682
-66577 0;
#N canvas 332 270 337 207 RF_control 0;
#X obj -32 -7 inlet note;
#X obj -32 141 s \$0-RF_note_v_1;
#X connect 0 0 1 0;
#X restore -189 196 pd RF_control;
#X obj 211 -99 s \$0-MIDI_n_v;
#X obj -189 156 r \$0-MIDI_n_v;
#X obj 93 192 cnv 15 147 28 empty empty empty 20 12 0 14 -1 -66577
0;
#X obj 95 194 cnv 15 143 24 empty empty empty 20 12 0 14 -240960 -66577
0;
#N canvas 649 22 163 181 panner_control_2 0;
#X obj 12 21 inlet;
#X obj 12 51 expr ($f1*2)-1;
#X obj 12 141 s \$0-st_panner_2;
#X obj 12 111 line;
#X msg 12 81 \$1 500;
#X connect 0 0 1 0;
#X connect 1 0 4 0;
#X connect 3 0 2 0;
#X connect 4 0 3 0;
#X restore 98 196 pd panner_control_2;
#X obj 98 156 r \$0-c_x;
#X obj 211 -129 pack float float;
#X obj 264 -168 - 12;
#X obj 211 -208 moses 74;
#X text -73 113 -----------------------------------------------------
;
#X obj -76 -267 * 20;
#X obj -76 -304 average 40;
#X connect 5 0 83 0;
#X connect 16 0 22 0;
#X connect 16 0 27 0;
#X connect 17 0 23 0;
#X connect 17 0 26 0;
#X connect 18 0 21 0;
#X connect 18 0 24 0;
#X connect 22 0 18 0;
#X connect 23 0 18 1;
#X connect 28 0 25 0;
#X connect 29 0 9 0;
#X connect 33 0 35 0;
#X connect 33 1 50 0;
#X connect 33 2 36 0;
#X connect 34 0 33 0;
#X connect 35 0 80 0;
#X connect 45 0 46 0;
#X connect 45 0 44 0;
#X connect 45 1 48 0;
#X connect 47 0 45 1;
#X connect 49 0 43 0;
#X connect 49 0 66 0;
#X connect 50 0 78 1;
#X connect 60 0 59 0;
#X connect 61 0 58 0;
#X connect 62 0 55 0;
#X connect 63 0 55 1;
#X connect 66 0 45 0;
#X connect 73 0 71 0;
#X connect 77 0 76 0;
#X connect 78 0 72 0;
#X connect 79 0 78 0;
#X connect 80 0 78 0;
#X connect 80 1 79 0;
#X connect 82 0 2 0;
#X connect 82 0 6 0;
#X connect 83 0 82 0;
#X restore 77 71 pd mapping;
#N canvas 110 565 323 328 synthesis 0;
#N canvas 777 152 412 293 init_audio_devices 0;
#X obj 117 247 s \$0-PS_1_bypass/on;
#X obj 170 217 s \$0-GS_1_bypass/on;
#X msg 17 167 \; pd dsp \$1;
#X obj 227 177 s \$0-seawave_onoff;
#X msg 63 107 1;
#X msg 17 107 0;
#X msg 227 107 1;
#X msg 280 107 0;
#X msg 117 107 1;
#X msg 170 107 0;
#X connect 4 0 2 0;
#X connect 5 0 2 0;
#X connect 6 0 3 0;
#X connect 7 0 3 0;
#X connect 8 0 0 0;
#X connect 8 0 1 0;
#X connect 9 0 0 0;
#X connect 9 0 1 0;
#X restore -207 7 pd init_audio_devices;
#X obj -26 148 audio_limiter;
#X obj -207 150 audio_limiter;
#X obj -207 117 catch~ \$0-out_1;
#X obj -26 115 catch~ \$0-out_2;
#N canvas 581 231 776 615 Aaltoja 0;
#X obj -279 -39 sea_wave;
#X obj -279 -109 r \$0-wave_energy;
#X obj -147 -109 r \$0-wave_level;
#N canvas 532 22 194 215 delay_at_1 0;
#X obj -11 13 inlet;
#X obj -11 43 select 1;
#X msg -81 131 1;
#X obj 42 163 outlet;
#X obj -81 73 delay 100;
#X connect 0 0 1 0;
#X connect 1 0 4 0;
#X connect 1 1 3 0;
#X connect 2 0 3 0;
#X connect 4 0 2 0;
#X restore 180 162 pd delay_at_1;
#X obj 180 132 r \$0-seawave_onoff;
#X obj -112 202 MIDI_resonant_filter;
#X floatatom 20 333 5 0 0 0 - - -;
#X floatatom 153 333 5 0 0 0 - - -;
#X obj 1 62 expr pow(2 \, $f1);
#X obj 60 -6 hradio 15 1 0 25 empty empty empty 0 -8 0 10 -262144 -1
-1 12;
#X obj 1 32 expr ($f1-12)/12;
#X obj -279 40 stereo_panner;
#X obj -112 -39 r \$0-st_panner_1;
#N canvas 532 22 194 215 delay_at_1 0;
#X obj -11 13 inlet;
#X obj -11 43 select 1;
#X msg -81 131 1;
#X obj 42 163 outlet;
#X obj -81 73 delay 100;
#X connect 0 0 1 0;
#X connect 1 0 4 0;
#X connect 1 1 3 0;
#X connect 2 0 3 0;
#X connect 4 0 2 0;
#X restore -25 -79 pd delay_at_1;
#X obj -25 -109 r \$0-seawave_onoff;
#X msg 125 -78 12;
#X obj 125 -109 loadbang;
#X obj -75 -8 r \$0-RF_note_v_1;
#X obj -279 364 stereo_panner;
#X obj -112 334 r \$0-st_panner_2;
#X obj -279 406 throw~ \$0-out_1;
#X obj -112 406 throw~ \$0-out_2;
#X msg -37 131 12;
#X obj 39 91 loadbang;
#X msg 39 133 0.1 0.2 5000;
#X msg 142 134 0.1;
#X connect 0 0 11 0;
#X connect 1 0 0 0;
#X connect 2 0 0 1;
#X connect 3 0 5 7;
#X connect 3 0 5 6;
#X connect 4 0 3 0;
#X connect 5 0 18 0;
#X connect 5 1 6 0;
#X connect 5 2 7 0;
#X connect 8 0 5 3;
#X connect 9 0 10 0;
#X connect 10 0 8 0;
#X connect 11 0 18 0;
#X connect 11 1 5 0;
#X connect 12 0 11 1;
#X connect 13 0 0 2;
#X connect 14 0 13 0;
#X connect 15 0 9 0;
#X connect 16 0 15 0;
#X connect 17 0 5 1;
#X connect 18 0 20 0;
#X connect 18 1 21 0;
#X connect 19 0 18 1;
#X connect 22 0 5 2;
#X connect 23 0 24 0;
#X connect 23 0 22 0;
#X connect 23 0 25 0;
#X connect 24 0 5 4;
#X connect 25 0 5 5;
#X restore -207 67 pd Aaltoja;
#X obj -216 233 cnv 15 243 40 empty empty empty 20 12 0 14 -191407
-66577 0;
#X obj -214 235 cnv 15 239 36 empty empty empty 20 12 0 14 -262130
-66577 0;
#X obj -212 237 cnv 15 235 32 empty empty empty 20 12 0 14 -128992
-66577 0;
#X obj -207 243 dac~ 1;
#X obj -26 243 dac~ 2;
#X obj -131 237 cnv 15 44 32 empty empty AUDIO 2 16 0 14 -128992 -262130
0;
#X obj -81 237 cnv 15 28 32 empty empty OUT 2 16 0 14 -128992 -262130
0;
#X text -210 24 ------------------------------------------;
#X connect 1 0 10 0;
#X connect 2 0 9 0;
#X connect 3 0 2 0;
#X connect 4 0 1 0;
#X restore 70 101 pd synthesis;
#X text 19 142 Juan Ignacio Mendoza - 2018;
#X text 47 11 video_INSTRUMENTTI;
