#N canvas 126 28 914 746 16;
#X declare -lib mrpeach;
#X floatatom 133 -2 5 0 0 0 - - -;
#X obj 219 -2 bng 30 100 50 0 empty empty empty 17 7 0 10 -99865 -4032
-1;
#X text 213 23 beat;
#X obj 47 117 miniplot;
#X text 248 226 y;
#X text 248 196 z;
#X text 249 256 x;
#X floatatom 239 -53 5 0 0 0 - - -;
#X obj 222 -75 hsl 122 15 0.1 10 0 0 empty empty beat_sensitivity 4
8 0 12 -66577 -258113 -262144 8433 1;
#X msg 219 -103 range 0.1 10;
#X text 142 23 bpm;
#X obj 167 -133 loadbang;
#X obj 45 193 plot_xyz;
#X text 256 121 norm;
#X msg 167 -103 7;
#N canvas 672 133 632 632 input_and_preprocessing 0;
#X obj -121 442 outlet x y z;
#X obj 156 442 outlet tempo;
#X obj 296 442 outlet beat;
#X obj -121 -22 Wiimote_OSC;
#X obj 219 377 acctempo;
#X obj -121 88 pack f f f;
#X obj -121 -92 tgl 15 0 empty empty empty 17 7 0 10 -262144 -1 -1
0 1;
#X obj 296 -132 inlet sensitivity;
#X obj -121 162 list-math - 266;
#N canvas 590 139 631 390 set_parameters 0;
#X obj 102 219 i;
#X obj 102 259 s \$0-poll_t;
#X obj 196 -11 r \$0-pf_sel_snd;
#X obj 196 29 select 0 1 2 3;
#X msg 214 99 10;
#X msg 2 99 0;
#X obj 2 319 s \$0-tgl_wii;
#X msg 22 219 1;
#X obj 2 279 change;
#X obj 264 179 s \$0-pf_disp_rcv;
#X obj 102 179 expr 1000/$f1;
#X msg 264 99 20;
#X msg 314 99 40;
#X obj 436 -11 loadbang;
#X obj 436 319 s \$0-pf_sel_rcv;
#X msg 436 99 1;
#X obj 263 334 print;
#X connect 0 0 1 0;
#X connect 0 0 16 0;
#X connect 2 0 3 0;
#X connect 3 0 5 0;
#X connect 3 1 4 0;
#X connect 3 2 11 0;
#X connect 3 3 12 0;
#X connect 4 0 9 0;
#X connect 4 0 10 0;
#X connect 5 0 1 0;
#X connect 5 0 8 0;
#X connect 5 0 9 0;
#X connect 7 0 8 0;
#X connect 8 0 6 0;
#X connect 10 0 0 0;
#X connect 10 0 7 0;
#X connect 11 0 9 0;
#X connect 11 0 10 0;
#X connect 12 0 9 0;
#X connect 12 0 10 0;
#X connect 13 0 15 0;
#X connect 15 0 14 0;
#X restore 35 -132 pd set_parameters;
#N canvas 435 459 575 211 euclidean_norm_3D 0;
#X obj -109 17 inlet x;
#X obj 72 17 inlet y;
#X obj -109 57 expr pow($f1 \, 2);
#X obj 72 57 expr pow($f1 \, 2);
#X obj -36 165 outlet;
#X obj -36 126 expr sqrt($f1+$f2+$f3);
#X obj 259 57 expr pow($f1 \, 2);
#X obj 259 17 inlet z;
#X connect 0 0 2 0;
#X connect 1 0 3 0;
#X connect 2 0 5 0;
#X connect 3 0 5 1;
#X connect 5 0 4 0;
#X connect 6 0 5 2;
#X connect 7 0 6 0;
#X restore 9 302 pd euclidean_norm_3D;
#X obj 9 252 unpack f f f;
#X obj 9 442 outlet norm;
#X obj 59 342 autoscale 0 100;
#X obj -121 -132 inlet;
#X obj -121 128 poll;
#X msg 129 88 25;
#X obj 129 -22 select 1;
#X msg 206 88 0;
#X obj -14 18 s \$0-wiibutt;
#X obj -121 212 list-dynascale;
#X msg 129 162 0.0001 0.9999;
#X connect 3 0 5 0;
#X connect 3 1 5 1;
#X connect 3 2 5 2;
#X connect 3 7 19 0;
#X connect 4 1 1 0;
#X connect 4 2 2 0;
#X connect 5 0 15 0;
#X connect 6 0 3 0;
#X connect 6 0 17 0;
#X connect 7 0 4 1;
#X connect 8 0 20 0;
#X connect 10 0 12 0;
#X connect 10 0 13 0;
#X connect 11 0 10 0;
#X connect 11 1 10 1;
#X connect 11 2 10 2;
#X connect 13 0 4 0;
#X connect 14 0 6 0;
#X connect 15 0 8 0;
#X connect 16 0 15 1;
#X connect 16 0 21 0;
#X connect 17 0 16 0;
#X connect 17 1 18 0;
#X connect 18 0 15 1;
#X connect 20 0 0 0;
#X connect 20 0 11 0;
#X connect 21 0 20 3;
#X restore -38 -38 pd input_and_preprocessing;
#N canvas 72 50 789 324 connect_Wekinator 0;
#X obj 33 125 udpsend;
#X obj 223 205 tgl 15 0 empty empty empty 17 7 0 10 -262144 -1 -1 0
1;
#X obj 663 275 packOSC;
#X obj 33 205 udpreceive 12000;
#X obj 33 239 unpackOSC;
#X obj 163 15 import mrpeach;
#X obj 33 15 inlet;
#X obj 393 15 inlet;
#X obj 33 275 outlet;
#X msg 153 86 connect localhost 6448;
#X obj 663 235 spigot;
#X obj 223 275 outlet;
#X msg 33 86 disconnect;
#X obj 33 55 select 0;
#X obj 663 15 inlet;
#X msg 393 85 send /wek/inputs \$1 \$2 \$3;
#X obj 720 205 tgl 15 0 empty empty empty 17 7 0 10 -262144 -1 -1 0
1;
#X connect 0 0 1 0;
#X connect 0 0 16 0;
#X connect 1 0 11 0;
#X connect 2 0 0 0;
#X connect 3 0 4 0;
#X connect 4 0 8 0;
#X connect 6 0 13 0;
#X connect 7 0 15 0;
#X connect 9 0 0 0;
#X connect 10 0 2 0;
#X connect 12 0 0 0;
#X connect 13 0 12 0;
#X connect 13 1 9 0;
#X connect 14 0 10 0;
#X connect 15 0 10 0;
#X connect 16 0 10 1;
#X restore -41 407 pd connect_Wekinator;
#X obj -81 -83 tgl 30 0 empty empty empty 17 7 0 10 -262144 -1 -1 0
1;
#X obj -81 367 tgl 30 0 empty empty empty 17 7 0 10 -262144 -1 -1 0
1;
#X obj 156 437 tgl 30 0 empty empty empty 17 7 0 10 -262144 -31307
-1 0 1;
#N canvas 37 382 1013 409 start/stop_DTW 0;
#X obj 497 18 inlet;
#X obj 157 358 outlet;
#N canvas 0 22 534 127 start_rec 0;
#X obj 17 18 inlet;
#X obj 17 78 outlet;
#X msg 17 48 send /wekinator/control/startDtwRecording \$1;
#X connect 0 0 2 0;
#X connect 2 0 1 0;
#X restore 17 308 pd start_rec;
#N canvas 886 22 534 127 stop_rec 0;
#X obj 17 18 inlet;
#X obj 17 78 outlet;
#X msg 17 48 send /wekinator/control/stopDtwRecording;
#X connect 0 0 2 0;
#X connect 2 0 1 0;
#X restore 157 308 pd stop_rec;
#N canvas 0 22 534 127 clear_rec 0;
#X obj 17 18 inlet;
#X obj 17 78 outlet;
#X msg 17 48 send /wekinator/control/deleteAllExamples;
#X connect 0 0 2 0;
#X connect 2 0 1 0;
#X restore 287 308 pd clear_rec;
#X obj 287 139 select 1;
#X obj 497 358 outlet count;
#X obj 83 188 t a b;
#X obj 16 157 route 0;
#N canvas 301 459 841 336 run 0;
#X obj 357 169 outlet;
#X obj 27 18 inlet;
#X msg 27 119 /wekinator/control/stopRunning;
#X msg 357 119 /wekinator/control/startRunning;
#X obj 27 58 select 0;
#X connect 1 0 4 0;
#X connect 2 0 0 0;
#X connect 3 0 0 0;
#X connect 4 0 2 0;
#X connect 4 1 3 0;
#X restore 427 308 pd run;
#X obj 644 358 outlet rec on/off;
#X obj 824 358 outlet run on/off;
#N canvas 306 151 672 522 count_n_switch 0;
#X obj 95 18 inlet;
#X obj 117 478 outlet;
#X obj 117 408 cup;
#X obj 17 278 spigot;
#X msg 117 198 1;
#X msg 217 198 0;
#X obj 277 278 tgl 15 0 empty empty empty 17 7 0 10 -262144 -1 -1 0
1;
#X msg 177 368 0;
#X msg 67 408 0;
#X obj 277 478 outlet rec on/off;
#X obj 467 478 outlet run on/off;
#X obj 95 58 route /a /one /two /plus /minus;
#X obj 317 138 select 1;
#X obj 417 138 select 1;
#X msg 317 198 1;
#X msg 417 198 0;
#X obj 137 448 select 4;
#X obj 117 138 select 1;
#X obj 217 138 select 1;
#X obj 17 138 select 1;
#X obj 467 428 spigot;
#X obj 524 388 abs;
#X msg 574 388 1;
#X obj 524 358 - 1;
#X connect 0 0 11 0;
#X connect 2 0 1 0;
#X connect 2 0 16 0;
#X connect 3 0 2 0;
#X connect 4 0 3 1;
#X connect 4 0 6 0;
#X connect 4 0 2 0;
#X connect 4 0 8 0;
#X connect 5 0 3 1;
#X connect 5 0 6 0;
#X connect 5 0 8 0;
#X connect 6 0 9 0;
#X connect 6 0 23 0;
#X connect 7 0 2 0;
#X connect 8 0 1 0;
#X connect 11 0 19 0;
#X connect 11 1 17 0;
#X connect 11 2 18 0;
#X connect 11 3 12 0;
#X connect 11 4 13 0;
#X connect 12 0 14 0;
#X connect 13 0 15 0;
#X connect 14 0 20 0;
#X connect 15 0 20 0;
#X connect 16 0 7 0;
#X connect 17 0 4 0;
#X connect 18 0 5 0;
#X connect 19 0 3 0;
#X connect 20 0 10 0;
#X connect 21 0 20 1;
#X connect 22 0 20 1;
#X connect 23 0 21 0;
#X restore 497 48 pd count_n_switch;
#X obj 157 139 select 4;
#X obj 16 117 moses 4;
#X obj 17 238 pipe 50;
#X obj 497 138 moses 4;
#N canvas 160 384 627 374 on/off_display 0;
#X obj 22 16 inlet;
#X obj 152 316 outlet;
#X obj 152 237 metro 250;
#X msg 152 197 1;
#X msg 202 197 0;
#X msg 415 237 0;
#X obj 12 197 delay 250;
#X msg 12 237 1;
#X obj 152 16 inlet;
#X obj 415 197 delay 250;
#X obj 22 56 select 0 4;
#X obj 152 56 select 1 0;
#X connect 0 0 10 0;
#X connect 2 0 1 0;
#X connect 3 0 2 0;
#X connect 4 0 2 0;
#X connect 5 0 1 0;
#X connect 6 0 7 0;
#X connect 7 0 1 0;
#X connect 8 0 11 0;
#X connect 9 0 5 0;
#X connect 10 1 3 0;
#X connect 10 2 6 0;
#X connect 10 2 4 0;
#X connect 11 0 3 0;
#X connect 11 1 9 0;
#X connect 11 1 4 0;
#X restore 644 138 pd on/off_display;
#X msg 564 308 0;
#X connect 0 0 12 0;
#X connect 2 0 1 0;
#X connect 3 0 1 0;
#X connect 4 0 1 0;
#X connect 5 0 4 0;
#X connect 7 0 15 0;
#X connect 7 1 3 0;
#X connect 8 1 7 0;
#X connect 9 0 1 0;
#X connect 12 0 13 0;
#X connect 12 0 14 0;
#X connect 12 0 16 0;
#X connect 12 0 17 0;
#X connect 12 1 5 0;
#X connect 12 1 17 1;
#X connect 12 2 11 0;
#X connect 12 2 9 0;
#X connect 13 0 3 0;
#X connect 14 0 8 0;
#X connect 15 0 2 0;
#X connect 16 0 6 0;
#X connect 16 1 18 0;
#X connect 17 0 10 0;
#X connect 18 0 6 0;
#X restore 156 367 pd start/stop_DTW;
#X obj 156 327 r \$0-wiibutt;
#X obj 323 519 tgl 30 0 empty empty empty 17 7 0 10 -66577 -258113
-1 0 1;
#X floatatom 268 527 5 0 0 0 - - -;
#X obj 323 465 tgl 30 0 empty empty empty 17 7 0 10 -66577 -4034 -1
0 1;
#X text 378 214 Wiimote buttons:;
#X text 408 304 A: start recording next example;
#X text 408 274 2: recording mode OFF;
#X text 408 364 +: run mode ON;
#X text 408 394 -: run mode OFF;
#X obj 47 67 autoscale 0.001 0.999;
#X text 359 465 run;
#X text 194 527 example;
#X text 359 534 solid = recording;
#X text 359 514 flashing = waiting;
#X text 437 327 (3 examples);
#X text 408 244 1: recording mode ON (clears examples);
#X text 61 440 connected;
#X text -44 -73 Wiimote;
#X text -44 -93 connect;
#X text -44 357 connect;
#X text -44 377 Wekinator;
#N canvas 347 186 617 318 Wekinator_output 0;
#X obj 17 19 inlet;
#X obj 17 159 routeOSC /output_1 /output_2 /output_3;
#X obj 37 109 print;
#X obj 37 69 spigot;
#X obj 94 29 tgl 30 0 empty empty empty 17 7 0 10 -262144 -1 -1 0 1
;
#X msg 17 199 1;
#X msg 142 199 2;
#X msg 268 199 3;
#X msg 417 199 0;
#X obj 417 269 outlet;
#X obj 417 19 r \$0-wiibutt;
#X obj 417 108 select 1;
#X obj 417 68 route /one /minus;
#X connect 0 0 1 0;
#X connect 0 0 3 0;
#X connect 1 0 5 0;
#X connect 1 1 6 0;
#X connect 1 2 7 0;
#X connect 3 0 2 0;
#X connect 4 0 3 1;
#X connect 5 0 9 0;
#X connect 6 0 9 0;
#X connect 7 0 9 0;
#X connect 8 0 9 0;
#X connect 10 0 12 0;
#X connect 11 0 8 0;
#X connect 12 0 11 0;
#X connect 12 1 11 0;
#X restore -41 487 pd Wekinator_output;
#X floatatom -41 527 5 0 0 0 - - -;
#X text 18 525 detected;
#X text 373 136 software starting order:;
#X text 393 -104 Gets accelerometer and buttons data from;
#X text 393 -84 a Wiimote \, via OSC.;
#X text 393 -53 Connects to Wekinator and controls its;
#X text 393 -33 DTW gesture recognition.;
#X text 373 6 Dependencies:;
#X text 403 36 Darwiin Remote OSC;
#X text 403 66 Wekinator;
#X text 403 96 Related Puredata abstractions;
#X text 373 -134 Patch description:;
#X text 403 166 Darwiin Remote OSC \, Wekinator \, Puredata.;
#X connect 8 0 7 0;
#X connect 8 0 15 1;
#X connect 9 0 8 0;
#X connect 11 0 14 0;
#X connect 14 0 8 0;
#X connect 15 0 12 0;
#X connect 15 0 16 1;
#X connect 15 1 30 0;
#X connect 15 2 0 0;
#X connect 15 3 1 0;
#X connect 16 0 42 0;
#X connect 16 1 19 0;
#X connect 17 0 15 0;
#X connect 18 0 16 0;
#X connect 20 0 16 2;
#X connect 20 1 23 0;
#X connect 20 2 22 0;
#X connect 20 3 24 0;
#X connect 21 0 20 0;
#X connect 30 0 3 0;
#X connect 42 0 43 0;
#X coords 0 0 1 1 85 60 0;
