#N canvas 592 67 565 620 16;
#X declare -lib Gem;
#X obj -41 -10 gemhead;
#X text 369 65 window:;
#X text 369 45 video monitor;
#X obj 371 167 gemwin;
#X msg 371 96 create \, 1;
#X obj 119 103 pix_movement 0.2;
#X obj 369 -4 import Gem;
#X floatatom 276 63 5 0 0 0 - - -;
#X msg 276 33 0.2;
#X obj -21 439 tgl 15 0 empty empty empty 17 7 0 10 -262144 -1 -1 0
1;
#X msg -21 459 quality \$1;
#X msg 381 126 0 \, destroy;
#X obj -41 529 rectangle 4 3;
#X obj -41 119 pix_grey;
#X obj -41 499 pix_texture;
#X obj 177 380 pix_dump;
#X obj 183 309 bng 15 250 50 0 empty empty empty 17 7 0 10 -262144
-1 -1;
#X floatatom 136 219 5 0 0 0 - - -;
#X msg 136 189 0.2;
#X obj -41 249 pix_background 0.2;
#X obj 275 449 print;
#X msg -21 219 reset;
#X msg -11 30 dimen 10 10;
#X obj -41 79 pix_video;
#X connect 0 0 23 0;
#X connect 4 0 3 0;
#X connect 7 0 5 1;
#X connect 8 0 7 0;
#X connect 9 0 10 0;
#X connect 10 0 14 0;
#X connect 11 0 3 0;
#X connect 13 0 19 0;
#X connect 14 0 12 0;
#X connect 15 1 20 0;
#X connect 16 0 15 0;
#X connect 17 0 19 1;
#X connect 18 0 17 0;
#X connect 19 0 14 0;
#X connect 19 0 15 0;
#X connect 21 0 19 0;
#X connect 22 0 23 0;
#X connect 23 0 13 0;
