#N canvas 608 25 630 432 16;
#X declare -lib Gem;
#X declare -lib iemmatrix;
#X obj 244 -54 cnv 15 182 70 empty empty empty 20 12 0 14 -99865 -66577
0;
#X obj 246 -52 cnv 15 178 66 empty empty empty 20 12 0 14 -233017 -66577
0;
#X obj -21 -121 import Gem;
#X obj 129 259 rectangle 4 3;
#X obj 129 229 pix_texture;
#X obj 272 -21 bng 23 250 50 0 empty empty empty 0 -6 0 8 -260097 -66577
-1;
#X obj 346 -21 tgl 23 0 empty \$0-playtgl_rcv empty 17 7 0 10 -66577
-4034 -1 1 1;
#X text 261 -46 load;
#X text 338 -46 play;
#N canvas 120 96 316 389 translation 0;
#X obj -31 122 translate;
#X msg 56 92 \$1 \$2 \$3;
#X obj 56 62 pack f f f;
#X floatatom 44 -68 5 0 0 0 - - -;
#X floatatom 104 -68 5 0 0 0 - - -;
#X floatatom 164 -68 5 0 0 0 - - -;
#X msg 12 92 1;
#X obj 104 -28 t b f;
#X obj 164 -28 t b f;
#X obj 164 -137 bng 15 250 50 0 empty empty empty 17 7 0 10 -262144
-1 -1;
#X obj -31 152 outlet gemlist;
#X obj -31 -178 inlet gemlist;
#X obj 164 -178 loadbang;
#X msg 104 -107 0;
#X msg 164 -107 0.89;
#X msg 44 -107 -5.29;
#X connect 0 0 10 0;
#X connect 1 0 0 2;
#X connect 2 0 1 0;
#X connect 2 0 6 0;
#X connect 3 0 2 0;
#X connect 4 0 7 0;
#X connect 5 0 8 0;
#X connect 6 0 0 1;
#X connect 7 0 2 0;
#X connect 7 1 2 1;
#X connect 8 0 2 0;
#X connect 8 1 2 2;
#X connect 9 0 15 0;
#X connect 9 0 13 0;
#X connect 9 0 14 0;
#X connect 11 0 0 0;
#X connect 12 0 9 0;
#X connect 13 0 4 0;
#X connect 14 0 5 0;
#X connect 15 0 3 0;
#X restore -31 149 pd translation;
#X obj -31 229 pix_texture;
#X obj -31 259 rectangle 4 3;
#N canvas 468 507 316 389 translation 0;
#X obj -31 122 translate;
#X msg 56 92 \$1 \$2 \$3;
#X obj 56 62 pack f f f;
#X floatatom 44 -68 5 0 0 0 - - -;
#X floatatom 104 -68 5 0 0 0 - - -;
#X floatatom 164 -68 5 0 0 0 - - -;
#X msg 12 92 1;
#X obj 104 -28 t b f;
#X obj 164 -28 t b f;
#X obj 164 -137 bng 15 250 50 0 empty empty empty 17 7 0 10 -262144
-1 -1;
#X obj -31 152 outlet gemlist;
#X obj -31 -178 inlet gemlist;
#X obj 164 -178 loadbang;
#X msg 104 -107 0;
#X msg 44 -107 10.47;
#X msg 164 -107 0.03;
#X connect 0 0 10 0;
#X connect 1 0 0 2;
#X connect 2 0 1 0;
#X connect 2 0 6 0;
#X connect 3 0 2 0;
#X connect 4 0 7 0;
#X connect 5 0 8 0;
#X connect 6 0 0 1;
#X connect 7 0 2 0;
#X connect 7 1 2 1;
#X connect 8 0 2 0;
#X connect 8 1 2 2;
#X connect 9 0 14 0;
#X connect 9 0 13 0;
#X connect 9 0 15 0;
#X connect 11 0 0 0;
#X connect 12 0 9 0;
#X connect 13 0 4 0;
#X connect 14 0 3 0;
#X connect 15 0 5 0;
#X restore 129 149 pd translation;
#N canvas 231 302 616 541 pxi_film_control 0;
#X obj 164 14 inlet load;
#X obj 14 494 outlet gemlist;
#X obj 14 14 inlet gemlist;
#X obj 14 394 pix_film;
#X obj 91 64 openpanel;
#X msg 91 94 open \$1;
#X obj 257 354 cup;
#X obj 257 294 metro;
#X obj 304 234 expr 1000/$f1;
#X msg 304 204 30;
#X text 343 202 <-- fps;
#X obj 304 14 inlet play;
#X obj 304 164 pipe 100;
#X msg 111 134 1;
#X obj 111 164 s \$0-playtgl_rcv;
#X obj 304 264 i;
#X obj 424 14 inlet reset;
#X obj 52 424 unpack f f f;
#X obj 424 44 s \$0-reset_movie;
#X obj 111 204 r \$0-reset_movie;
#X obj 52 454 s \$0-movie_length;
#X obj 257 394 moses;
#X obj 304 424 s \$0-reset_movie;
#X obj 304 354 r \$0-movie_length;
#X msg 91 264 setbang 0;
#X floatatom 462 94 5 0 0 0 - - -;
#X obj 462 124 * 100;
#X floatatom 478 164 5 0 0 0 - - -;
#X obj 478 194 t b f;
#X obj 462 234 +;
#X msg 344 294 setbang \$1;
#X connect 0 0 4 0;
#X connect 2 0 3 0;
#X connect 3 0 1 0;
#X connect 3 1 17 0;
#X connect 4 0 5 0;
#X connect 5 0 3 0;
#X connect 5 0 24 0;
#X connect 5 0 13 0;
#X connect 6 0 3 1;
#X connect 6 0 21 0;
#X connect 7 0 6 0;
#X connect 8 0 15 0;
#X connect 9 0 8 0;
#X connect 11 0 12 0;
#X connect 12 0 7 0;
#X connect 12 0 9 0;
#X connect 13 0 14 0;
#X connect 15 0 7 1;
#X connect 16 0 18 0;
#X connect 17 0 20 0;
#X connect 19 0 24 0;
#X connect 21 1 22 0;
#X connect 23 0 21 1;
#X connect 24 0 6 0;
#X connect 25 0 26 0;
#X connect 26 0 29 0;
#X connect 27 0 28 0;
#X connect 28 0 29 0;
#X connect 28 1 29 1;
#X connect 29 0 30 0;
#X connect 30 0 6 0;
#X restore 129 29 pd pxi_film_control;
#N canvas 0 22 399 341 gemwin_control 0;
#X obj 5 8 inlet on/off;
#X msg 265 208 0 \, destroy;
#X obj 5 289 gemwin;
#X msg 5 148 create \, 1;
#X msg 52 208 dimen 600 200;
#X obj 5 48 select 1 0;
#X obj 5 118 delay 200;
#X obj 5 178 t a a;
#X obj 135 8 inlet on/off;
#X obj 265 8 inlet close;
#X obj 211 288 s \$0-playtgl_rcv;
#X msg 211 258 0;
#X connect 0 0 5 0;
#X connect 1 0 2 0;
#X connect 1 0 11 0;
#X connect 3 0 7 0;
#X connect 4 0 2 0;
#X connect 5 0 6 0;
#X connect 6 0 3 0;
#X connect 7 0 2 0;
#X connect 7 1 4 0;
#X connect 8 0 5 0;
#X connect 9 0 1 0;
#X connect 11 0 10 0;
#X restore 263 69 pd gemwin_control;
#X msg 139 199 quality \$1;
#X obj 139 179 tgl 15 0 empty empty empty 17 7 0 10 -262144 -1 -1 0
1;
#N canvas 0 22 490 814 more_tools 0;
#X obj 24 113 pix_video;
#X msg 43 83 dimen 10 10;
#X obj 24 33 pix_contrast;
#X floatatom 101 3 5 0 0 0 - - -;
#X obj 24 193 pix_resize;
#X msg 41 163 dimen 100 100;
#X obj 24 273 pix_dump;
#X obj 44 243 bng 23 250 50 0 empty empty empty 17 7 0 10 -262144 -1
-1;
#X floatatom 77 343 3 0 100 2 threshold - -;
#X floatatom 176 343 3 0 100 2 blobsize - -;
#N canvas 48 31 698 824 pix_blobtracker 0;
#N canvas 0 22 571 399 matrix->indexlist 0;
#X obj 133 90 inlet;
#X obj 133 298 outlet;
#X obj 133 163 mtx;
#X msg 133 137 row;
#X obj 133 109 t b a b;
#X obj 212 227 i;
#X obj 239 228 + 1;
#X obj 133 248 pack 0 0 0 0;
#X obj 133 210 t l b;
#X msg 133 273 \$4 \$1 \$2 \$3;
#X msg 228 206 0;
#X msg 133 189 \$1 \$2 \$3;
#X connect 0 0 4 0;
#X connect 2 0 11 0;
#X connect 3 0 2 0;
#X connect 4 0 3 0;
#X connect 4 1 2 1;
#X connect 4 2 10 0;
#X connect 5 0 6 0;
#X connect 5 0 7 3;
#X connect 6 0 5 1;
#X connect 7 0 9 0;
#X connect 8 0 7 0;
#X connect 8 1 5 0;
#X connect 9 0 1 0;
#X connect 10 0 5 1;
#X connect 11 0 8 0;
#X restore 224 688 pd matrix->indexlist;
#X obj 11 187 inlet gemlist;
#X obj 41 732 outlet gemlist;
#X obj 424 519 t a;
#X obj 424 393 t a a;
#X obj 451 727 outlet numblobs;
#X obj 404 589 t a a;
#X obj 451 688 mtx_size;
#X obj 424 433 mtx_resize \$1 2;
#N canvas 0 22 669 614 mtx_matcher 0;
#X obj 61 220 mtx_distance2;
#X obj 61 176 t a a;
#X obj 61 314 t a a;
#X obj 61 395 outlet matched;
#X obj 241 395 outlet matcher;
#X obj 188 177 inlet dest;
#X obj 61 149 inlet source;
#X text 25 105 both "source" and "dest" must have the same number of
columns (dimension in feature-space);
#N canvas 0 22 622 378 mtx_rowpermutate 0;
#X obj 169 194 t b a;
#X obj 169 225 mtx;
#X obj 111 142 mtx_pivot -1;
#X text 17 19 this unfortunately does not guarantee to give as a minimum
trace of the result!;
#X obj 169 289 outlet rowpermutator;
#X obj 111 91 inlet permutans;
#X obj 169 256 mtx_mul;
#X text 67 327 TWEAKED PATCH: Juan Ignacio Mendoza Garay - 2016;
#X connect 0 0 1 0;
#X connect 0 1 6 1;
#X connect 1 0 6 0;
#X connect 2 1 0 0;
#X connect 2 2 1 1;
#X connect 5 0 2 0;
#X connect 6 0 4 0;
#X restore 61 271 pd mtx_rowpermutate;
#X text 34 433 this algorithm is _far_ from being perfect! the [mtx_rowpermutate]
does not really guarantee that the trace of the result is a global
mimimum \; if it is not \, than the match will be sub-optimal! this
will be even worse \, if there are several _equal_ (sub)minima in the
distance-matrix.;
#X text 198 211 greater distances have an extra penalty (^2) \; is
this ok?;
#X text 22 52 we calculate the euclidean distance between the vectors
of the 2 sets and try to find a trace with minimum penalty;
#X text 22 12 this tries to get the best (weighted) match between 2
sets of feature-vectors.;
#X obj 61 359 mtx_mul;
#X text 87 579 TWEAKED PATCH: Juan Ignacio Mendoza Garay - 2016;
#X connect 0 0 8 0;
#X connect 1 0 0 0;
#X connect 1 1 13 1;
#X connect 2 0 13 0;
#X connect 2 1 4 0;
#X connect 5 0 0 1;
#X connect 6 0 1 0;
#X connect 8 0 2 0;
#X connect 13 0 3 0;
#X restore 424 487 pd mtx_matcher;
#X text 11 114 this blobtracker is far from being perfect. for an explanation
read the comments in [pd mtx_matcher];
#X text 12 66 copyright (c) IOhannes m zmoelnig \, 2005 \; you may
use this under the terms of the GnuGPL v0.2;
#X text 29 487 this is the work-horse for the tracking;
#X text 15 10 part of Gem;
#X text 12 29 depends on "Gem" and "iemmatrix";
#X text 9 323 the work-horse for detection;
#X obj 524 214 loadbang;
#X obj 524 272 moses 1;
#X msg 571 393 6 2;
#X obj 524 301 t b b;
#X text 10 155 TODO: output only those blobs that are really detected
;
#X obj 424 362 mtx_resize \$1 0;
#X msg 571 332 6 0;
#X obj 512 21 import iemmatrix;
#X obj 404 568 mtx_mul;
#X text 105 773 TWEAKED PATCH: Juan Ignacio Mendoza Garay - 2016;
#X obj 504 214 bng 15 250 50 0 empty empty empty 17 7 0 10 -262144
-1 -1;
#X obj 151 187 inlet threshold;
#X obj 327 187 inlet size;
#X obj 151 217 / 100;
#X msg 151 248 treshold \$1;
#X obj 327 217 / 100;
#X msg 327 248 blobSize \$1;
#N canvas 585 213 450 300 showblobs 0;
#X obj 67 113 route 1 2 3 4 5 6;
#N canvas 0 22 451 339 showblob 0;
#X obj 76 184 gemhead;
#X obj 76 266 translateXYZ;
#X obj 102 58 pack;
#X obj 102 34 inlet x|y;
#X obj 76 225 color 1 1 1;
#X obj 219 75 loadbang;
#X obj 219 122 random 256;
#X obj 219 143 / 256;
#X obj 219 185 hsv2rgb;
#X msg 219 166 \$1 1 1;
#X obj 219 97 t b b;
#X obj 76 286 sphere 0.2;
#X msg 249 233 0;
#X msg 216 233 0.2;
#X obj 216 254 f;
#X obj 298 47 t b;
#X obj 298 24 inlet reset;
#X obj 139 183 t f b;
#X obj 102 85 unpack;
#X obj 102 108 * 8;
#X obj 102 131 - 4;
#X obj 145 106 * 8;
#X obj 145 129 - 4;
#X connect 0 0 4 0;
#X connect 1 0 11 0;
#X connect 2 0 18 0;
#X connect 3 0 2 0;
#X connect 4 0 1 0;
#X connect 5 0 10 0;
#X connect 6 0 7 0;
#X connect 7 0 9 0;
#X connect 8 0 4 1;
#X connect 9 0 8 0;
#X connect 10 0 6 0;
#X connect 10 1 12 0;
#X connect 12 0 14 0;
#X connect 13 0 14 0;
#X connect 14 0 11 1;
#X connect 15 0 12 0;
#X connect 16 0 15 0;
#X connect 17 0 1 2;
#X connect 17 1 13 0;
#X connect 18 0 19 0;
#X connect 18 1 21 0;
#X connect 19 0 20 0;
#X connect 20 0 1 1;
#X connect 21 0 22 0;
#X connect 22 0 17 0;
#X restore 67 136 pd showblob;
#N canvas 0 22 451 339 showblob 0;
#X obj 76 184 gemhead;
#X obj 76 266 translateXYZ;
#X obj 102 58 pack;
#X obj 102 34 inlet x|y;
#X obj 76 225 color 1 1 1;
#X obj 219 75 loadbang;
#X obj 219 122 random 256;
#X obj 219 143 / 256;
#X obj 219 185 hsv2rgb;
#X msg 219 166 \$1 1 1;
#X obj 219 97 t b b;
#X obj 76 286 sphere 0.2;
#X msg 249 233 0;
#X msg 216 233 0.2;
#X obj 216 254 f;
#X obj 298 47 t b;
#X obj 298 24 inlet reset;
#X obj 139 183 t f b;
#X obj 102 85 unpack;
#X obj 102 108 * 8;
#X obj 102 131 - 4;
#X obj 145 106 * 8;
#X obj 145 129 - 4;
#X connect 0 0 4 0;
#X connect 1 0 11 0;
#X connect 2 0 18 0;
#X connect 3 0 2 0;
#X connect 4 0 1 0;
#X connect 5 0 10 0;
#X connect 6 0 7 0;
#X connect 7 0 9 0;
#X connect 8 0 4 1;
#X connect 9 0 8 0;
#X connect 10 0 6 0;
#X connect 10 1 12 0;
#X connect 12 0 14 0;
#X connect 13 0 14 0;
#X connect 14 0 11 1;
#X connect 15 0 12 0;
#X connect 16 0 15 0;
#X connect 17 0 1 2;
#X connect 17 1 13 0;
#X connect 18 0 19 0;
#X connect 18 1 21 0;
#X connect 19 0 20 0;
#X connect 20 0 1 1;
#X connect 21 0 22 0;
#X connect 22 0 17 0;
#X restore 86 155 pd showblob;
#N canvas 0 22 451 339 showblob 0;
#X obj 76 184 gemhead;
#X obj 76 266 translateXYZ;
#X obj 102 58 pack;
#X obj 102 34 inlet x|y;
#X obj 76 225 color 1 1 1;
#X obj 219 75 loadbang;
#X obj 219 122 random 256;
#X obj 219 143 / 256;
#X obj 219 185 hsv2rgb;
#X msg 219 166 \$1 1 1;
#X obj 219 97 t b b;
#X obj 76 286 sphere 0.2;
#X msg 249 233 0;
#X msg 216 233 0.2;
#X obj 216 254 f;
#X obj 298 47 t b;
#X obj 298 24 inlet reset;
#X obj 139 183 t f b;
#X obj 102 92 unpack;
#X obj 102 115 * 8;
#X obj 102 138 - 4;
#X obj 145 113 * 8;
#X obj 145 136 - 4;
#X connect 0 0 4 0;
#X connect 1 0 11 0;
#X connect 2 0 18 0;
#X connect 3 0 2 0;
#X connect 4 0 1 0;
#X connect 5 0 10 0;
#X connect 6 0 7 0;
#X connect 7 0 9 0;
#X connect 8 0 4 1;
#X connect 9 0 8 0;
#X connect 10 0 6 0;
#X connect 10 1 12 0;
#X connect 12 0 14 0;
#X connect 13 0 14 0;
#X connect 14 0 11 1;
#X connect 15 0 12 0;
#X connect 16 0 15 0;
#X connect 17 0 1 2;
#X connect 17 1 13 0;
#X connect 18 0 19 0;
#X connect 18 1 21 0;
#X connect 19 0 20 0;
#X connect 20 0 1 1;
#X connect 21 0 22 0;
#X connect 22 0 17 0;
#X restore 105 174 pd showblob;
#N canvas 0 22 451 339 showblob 0;
#X obj 76 184 gemhead;
#X obj 76 266 translateXYZ;
#X obj 102 58 pack;
#X obj 102 34 inlet x|y;
#X obj 76 225 color 1 1 1;
#X obj 219 75 loadbang;
#X obj 219 122 random 256;
#X obj 219 143 / 256;
#X obj 219 185 hsv2rgb;
#X msg 219 166 \$1 1 1;
#X obj 219 97 t b b;
#X obj 76 286 sphere 0.2;
#X msg 249 233 0;
#X msg 216 233 0.2;
#X obj 216 254 f;
#X obj 298 47 t b;
#X obj 298 24 inlet reset;
#X obj 139 183 t f b;
#X obj 102 85 unpack;
#X obj 102 108 * 8;
#X obj 102 131 - 4;
#X obj 145 106 * 8;
#X obj 145 129 - 4;
#X connect 0 0 4 0;
#X connect 1 0 11 0;
#X connect 2 0 18 0;
#X connect 3 0 2 0;
#X connect 4 0 1 0;
#X connect 5 0 10 0;
#X connect 6 0 7 0;
#X connect 7 0 9 0;
#X connect 8 0 4 1;
#X connect 9 0 8 0;
#X connect 10 0 6 0;
#X connect 10 1 12 0;
#X connect 12 0 14 0;
#X connect 13 0 14 0;
#X connect 14 0 11 1;
#X connect 15 0 12 0;
#X connect 16 0 15 0;
#X connect 17 0 1 2;
#X connect 17 1 13 0;
#X connect 18 0 19 0;
#X connect 18 1 21 0;
#X connect 19 0 20 0;
#X connect 20 0 1 1;
#X connect 21 0 22 0;
#X connect 22 0 17 0;
#X restore 124 193 pd showblob;
#N canvas 0 22 451 339 showblob 0;
#X obj 76 184 gemhead;
#X obj 76 266 translateXYZ;
#X obj 102 60 pack;
#X obj 102 34 inlet x|y;
#X obj 76 225 color 1 1 1;
#X obj 219 75 loadbang;
#X obj 219 122 random 256;
#X obj 219 143 / 256;
#X obj 219 185 hsv2rgb;
#X msg 219 166 \$1 1 1;
#X obj 219 97 t b b;
#X obj 76 286 sphere 0.2;
#X msg 249 233 0;
#X msg 216 233 0.2;
#X obj 216 254 f;
#X obj 298 47 t b;
#X obj 298 24 inlet reset;
#X obj 139 183 t f b;
#X obj 102 85 unpack;
#X obj 102 108 * 8;
#X obj 102 131 - 4;
#X obj 145 106 * 8;
#X obj 145 129 - 4;
#X connect 0 0 4 0;
#X connect 1 0 11 0;
#X connect 2 0 18 0;
#X connect 3 0 2 0;
#X connect 4 0 1 0;
#X connect 5 0 10 0;
#X connect 6 0 7 0;
#X connect 7 0 9 0;
#X connect 8 0 4 1;
#X connect 9 0 8 0;
#X connect 10 0 6 0;
#X connect 10 1 12 0;
#X connect 12 0 14 0;
#X connect 13 0 14 0;
#X connect 14 0 11 1;
#X connect 15 0 12 0;
#X connect 16 0 15 0;
#X connect 17 0 1 2;
#X connect 17 1 13 0;
#X connect 18 0 19 0;
#X connect 18 1 21 0;
#X connect 19 0 20 0;
#X connect 20 0 1 1;
#X connect 21 0 22 0;
#X connect 22 0 17 0;
#X restore 143 212 pd showblob;
#N canvas 537 164 451 339 showblob 0;
#X obj 76 184 gemhead;
#X obj 76 266 translateXYZ;
#X obj 102 58 pack;
#X obj 102 34 inlet x|y;
#X obj 76 225 color 1 1 1;
#X obj 219 75 loadbang;
#X obj 219 122 random 256;
#X obj 219 143 / 256;
#X obj 219 185 hsv2rgb;
#X msg 219 166 \$1 1 1;
#X obj 219 97 t b b;
#X obj 81 308 sphere 0.2;
#X msg 249 233 0;
#X msg 216 233 0.2;
#X obj 216 254 f;
#X obj 298 47 t b;
#X obj 298 24 inlet reset;
#X obj 139 183 t f b;
#X obj 102 85 unpack;
#X obj 102 108 * 8;
#X obj 102 131 - 4;
#X obj 145 106 * 8;
#X obj 145 129 - 4;
#X connect 0 0 4 0;
#X connect 1 0 11 0;
#X connect 2 0 18 0;
#X connect 3 0 2 0;
#X connect 4 0 1 0;
#X connect 5 0 10 0;
#X connect 6 0 7 0;
#X connect 7 0 9 0;
#X connect 8 0 4 1;
#X connect 9 0 8 0;
#X connect 10 0 6 0;
#X connect 10 1 12 0;
#X connect 12 0 14 0;
#X connect 13 0 14 0;
#X connect 14 0 11 1;
#X connect 15 0 12 0;
#X connect 16 0 15 0;
#X connect 17 0 1 2;
#X connect 17 1 13 0;
#X connect 18 0 19 0;
#X connect 18 1 21 0;
#X connect 19 0 20 0;
#X connect 20 0 1 1;
#X connect 21 0 22 0;
#X connect 22 0 17 0;
#X restore 162 231 pd showblob;
#X obj 67 86 inlet blobinformation;
#X connect 0 0 1 0;
#X connect 0 1 2 0;
#X connect 0 2 3 0;
#X connect 0 3 4 0;
#X connect 0 4 5 0;
#X connect 0 5 6 0;
#X connect 7 0 0 0;
#X restore 224 732 pd showblobs;
#X obj 275 469 print;
#X obj 524 243 f 6;
#X obj 151 299 pix_multiblob 6;
#X obj 214 356 pack s f;
#X obj 214 386 unpack s f;
#X connect 0 0 33 0;
#X connect 1 0 36 0;
#X connect 3 0 9 1;
#X connect 4 0 8 0;
#X connect 4 1 24 1;
#X connect 6 0 0 0;
#X connect 6 1 7 0;
#X connect 8 0 9 0;
#X connect 9 0 3 0;
#X connect 9 1 24 0;
#X connect 16 0 35 0;
#X connect 17 0 19 0;
#X connect 18 0 8 1;
#X connect 19 0 18 0;
#X connect 19 1 22 0;
#X connect 22 0 21 1;
#X connect 24 0 6 0;
#X connect 26 0 35 0;
#X connect 27 0 29 0;
#X connect 28 0 31 0;
#X connect 29 0 30 0;
#X connect 30 0 36 0;
#X connect 31 0 32 0;
#X connect 32 0 36 0;
#X connect 35 0 17 0;
#X connect 36 0 2 0;
#X connect 36 1 37 0;
#X connect 37 0 38 0;
#X connect 38 1 34 0;
#X connect 38 1 5 0;
#X restore 24 383 pd pix_blobtracker;
#X obj 305 297 vsl 15 128 0 10 0 0 empty empty empty 0 -9 0 10 -262144
-1 -1 0 1;
#X floatatom 22 521 5 0 0 3 x - -;
#X floatatom 90 521 5 0 0 3 y - -;
#X floatatom 159 521 5 0 0 3 size - -;
#N canvas 141 465 487 404 single_blob 0;
#X obj 107 53 pix_blob;
#N canvas 744 52 620 812 cursor 0;
#X obj 67 14 inlet;
#X obj 232 16 inlet;
#X obj 81 536 translateXYZ;
#X text 143 148 0.64;
#X text 117 151 1;
#X obj 79 71 t f f;
#X obj 113 186 -;
#X text 124 165 X-Range;
#X text 290 165 Y-Range;
#X obj 73 231 -;
#X obj 73 271 *;
#X obj 79 95 max 0;
#X obj 121 95 min 10;
#X obj 120 126 f;
#X obj 79 115 f;
#X obj 73 293 - 4;
#X text 298 146 0.64;
#X text 272 149 1;
#X obj 264 59 t f f;
#X obj 268 165 -;
#X obj 232 209 -;
#X obj 232 231 *;
#X obj 264 93 max 0;
#X obj 306 93 min 10;
#X obj 294 130 f;
#X obj 268 129 f;
#X obj 391 27 inlet;
#X obj 391 59 * 10;
#X obj 324 599 circle 0.1;
#X obj 81 643 separator;
#X obj 114 683 separator;
#X obj 114 714 rectangle 0.2 0.01;
#X obj 324 483 separator;
#X msg 352 568 draw line;
#X obj 348 523 loadbang;
#X obj 81 586 colorRGB 1 0 0 1;
#X msg 475 569 width \$1;
#X msg 113 209 8 \$1;
#X obj 113 230 /;
#X obj 67 36 t f f;
#X obj 232 38 t f f;
#X msg 268 187 8 \$1;
#X obj 268 209 /;
#X obj 232 253 * -1;
#X obj 232 275 + 4;
#X obj 391 81 t f f;
#X obj 81 608 t a a a;
#X obj 457 217 > 0.001;
#X obj 493 10 inlet;
#X obj 100 501 +;
#X floatatom 110 435 5 0 0 0 - - -;
#X obj 170 501 +;
#X floatatom 180 435 5 0 0 0 - - -;
#X obj 463 50 s \$0-cursor_glist;
#X obj 13 374 r \$0-cursor_glist;
#X obj 314 390 loadbang;
#X floatatom 479 448 5 0 0 0 - - -;
#X floatatom 246 518 5 0 0 0 - - -;
#X obj 180 462 t b a;
#X obj 110 462 t b a;
#X obj 73 333 /;
#X floatatom 126 297 5 0 0 0 - - -;
#X obj 126 324 t b a;
#X obj 81 762 rectangle 0.01 0.2;
#X msg 255 471 1.92;
#X obj 423 342 f;
#X obj 452 394 * 5;
#X obj 229 318 /;
#X floatatom 282 282 5 0 0 0 - - -;
#X obj 282 309 t b a;
#X msg 282 252 1.99;
#X msg 126 267 1.49;
#X msg 110 405 3.49;
#X msg 180 405 0;
#X connect 0 0 39 0;
#X connect 1 0 40 0;
#X connect 2 0 35 0;
#X connect 5 0 11 0;
#X connect 5 1 12 0;
#X connect 6 0 37 0;
#X connect 9 0 10 0;
#X connect 10 0 15 0;
#X connect 11 0 14 0;
#X connect 12 0 13 0;
#X connect 13 0 6 1;
#X connect 13 0 9 1;
#X connect 13 0 12 1;
#X connect 14 0 6 0;
#X connect 14 0 11 1;
#X connect 15 0 60 0;
#X connect 18 0 22 0;
#X connect 18 1 23 0;
#X connect 19 0 41 0;
#X connect 20 0 21 0;
#X connect 21 0 43 0;
#X connect 22 0 25 0;
#X connect 23 0 24 0;
#X connect 24 0 19 1;
#X connect 24 0 20 1;
#X connect 24 0 23 1;
#X connect 25 0 19 0;
#X connect 25 0 22 1;
#X connect 26 0 27 0;
#X connect 26 0 47 0;
#X connect 27 0 45 0;
#X connect 29 0 63 0;
#X connect 30 0 31 0;
#X connect 32 0 28 0;
#X connect 33 0 28 0;
#X connect 34 0 33 0;
#X connect 35 0 46 0;
#X connect 36 0 28 0;
#X connect 37 0 38 0;
#X connect 38 0 10 1;
#X connect 39 0 9 0;
#X connect 39 1 5 0;
#X connect 40 0 20 0;
#X connect 40 1 18 0;
#X connect 41 0 42 0;
#X connect 42 0 21 1;
#X connect 43 0 44 0;
#X connect 44 0 67 0;
#X connect 45 0 28 1;
#X connect 45 1 65 0;
#X connect 46 0 29 0;
#X connect 46 1 30 0;
#X connect 46 2 32 0;
#X connect 48 0 53 0;
#X connect 49 0 2 1;
#X connect 50 0 59 0;
#X connect 51 0 2 2;
#X connect 52 0 58 0;
#X connect 54 0 2 0;
#X connect 55 0 64 0;
#X connect 55 0 72 0;
#X connect 55 0 73 0;
#X connect 55 0 71 0;
#X connect 55 0 70 0;
#X connect 56 0 36 0;
#X connect 57 0 2 3;
#X connect 58 0 51 0;
#X connect 58 1 51 1;
#X connect 59 0 49 0;
#X connect 59 1 49 1;
#X connect 60 0 49 0;
#X connect 61 0 62 0;
#X connect 62 0 60 0;
#X connect 62 1 60 1;
#X connect 64 0 57 0;
#X connect 65 0 66 0;
#X connect 66 0 56 0;
#X connect 67 0 51 0;
#X connect 68 0 69 0;
#X connect 69 0 67 0;
#X connect 69 1 67 1;
#X connect 70 0 68 0;
#X connect 71 0 61 0;
#X connect 72 0 50 0;
#X connect 73 0 52 0;
#X restore 210 273 pd cursor;
#X obj 107 13 inlet gemlist;
#X obj 297 13 inlet gemlist;
#X obj -36 351 outlet x;
#X obj 74 351 outlet y;
#X obj 184 351 outlet size;
#X obj -36 171 average;
#X obj 74 171 average;
#X obj 184 171 average;
#X msg 2 53 30;
#X obj 2 13 loadbang;
#X obj 239 53 tgl 15 0 empty empty empty 17 7 0 10 -262144 -1 -1 0
1;
#X obj 210 53 tgl 15 0 empty empty empty 17 7 0 10 -262144 -1 -1 0
1;
#X connect 0 1 7 0;
#X connect 0 2 8 0;
#X connect 0 3 9 0;
#X connect 2 0 0 0;
#X connect 3 0 1 3;
#X connect 7 0 4 0;
#X connect 7 0 1 0;
#X connect 8 0 5 0;
#X connect 8 0 1 1;
#X connect 9 0 6 0;
#X connect 9 0 1 2;
#X connect 10 0 7 1;
#X connect 10 0 8 1;
#X connect 10 0 9 1;
#X connect 11 0 10 0;
#X connect 12 0 1 1;
#X connect 13 0 1 0;
#X restore 22 481 pd single_blob;
#X connect 1 0 0 0;
#X connect 3 0 2 1;
#X connect 5 0 4 0;
#X connect 7 0 6 0;
#X connect 8 0 10 1;
#X connect 9 0 10 2;
#X connect 10 1 11 0;
#X connect 15 0 12 0;
#X connect 15 1 13 0;
#X connect 15 2 14 0;
#X restore 396 -121 pd more_tools;
#X obj 313 -17 bng 15 250 50 0 empty empty reset -7 -8 0 10 -262144
-1 -1;
#X obj 129 -121 gemhead;
#N canvas 159 412 547 625 movement_hyperpix 0;
#X obj 143 208 pix_resize;
#X obj 143 108 pix_movement 0.2;
#X obj 3 248 pix_dump;
#X obj 32 419 list split 3;
#X msg -7 489 GREY;
#X obj 153 148 loadbang;
#X obj -7 459 loadbang;
#X msg 153 178 dimen 20 20;
#X obj -37 529 pix_set 20 20;
#X obj 357 318 matrix 20 20;
#X obj 3 148 bang;
#X msg 367 238 ones 20;
#X obj 23 208 bng 15 250 50 0 empty empty empty 17 7 0 10 -262144 -1
-1;
#X obj 32 378 mtx_eq 0;
#X msg 357 208 zeros 20;
#X obj -37 -1 inlet gemlist;
#X obj 357 378 mtx_gt 0;
#X obj 158 529 pix_set 20 20;
#X obj 227 419 list split 3;
#X obj 158 562 outlet gemlist pos;
#X obj -37 562 outlet gemlist neg;
#X obj -7 60 s \$0-mh_glist;
#X obj 158 379 r \$0-mh_glist;
#X obj 143 59 pix_grey;
#X obj 357 562 outlet matrix;
#X connect 0 0 2 0;
#X connect 1 0 0 0;
#X connect 1 0 10 0;
#X connect 2 1 9 0;
#X connect 3 1 8 1;
#X connect 4 0 8 0;
#X connect 4 0 17 0;
#X connect 5 0 7 0;
#X connect 6 0 4 0;
#X connect 7 0 0 0;
#X connect 8 0 20 0;
#X connect 9 0 13 0;
#X connect 9 0 16 0;
#X connect 10 0 2 0;
#X connect 12 0 2 0;
#X connect 13 0 3 0;
#X connect 14 0 9 0;
#X connect 15 0 23 0;
#X connect 15 0 21 0;
#X connect 15 0 8 0;
#X connect 16 0 18 0;
#X connect 16 0 24 0;
#X connect 17 0 19 0;
#X connect 18 1 17 1;
#X connect 22 0 17 0;
#X connect 23 0 1 0;
#X restore 129 109 pd movement_hyperpix;
#X obj 129 -61 separator;
#X obj 463 -64 separator;
#X obj 387 -17 bng 15 250 50 0 empty empty close -7 -8 0 10 -262144
-1 -1;
#X floatatom 326 199 5 0 0 3 x - -;
#X floatatom 394 199 5 0 0 3 y - -;
#X floatatom 463 199 5 0 0 3 size - -;
#N canvas 902 23 538 421 single_blob 0;
#X obj 107 53 pix_blob;
#X obj 107 13 inlet gemlist;
#X obj 347 13 inlet gemlist;
#X obj -36 351 outlet x;
#X obj 74 351 outlet y;
#X obj 184 351 outlet size;
#X obj -36 171 average;
#X obj 74 171 average;
#X obj 184 171 average;
#X obj 2 13 loadbang;
#N canvas 326 256 847 589 blob_cursor 0;
#X obj 573 -24 inlet;
#X obj 476 516 circle 0.1;
#X obj -37 396 separator;
#X obj 216 396 separator;
#X obj 476 396 separator;
#X msg 376 426 draw line;
#X obj 376 396 loadbang;
#X obj 183 326 colorRGB 1 0 0 1;
#X msg 620 426 width \$1;
#X obj 573 316 t f f;
#X obj 183 356 t a a a;
#X obj 643 -24 inlet;
#X obj 573 286 * 10;
#X obj 183 296 translateXYZ;
#X obj 643 6 s \$0-cursor_gl;
#X obj -37 246 r \$0-cursor_gl;
#X obj 71 86 *;
#X obj 71 196 +;
#X floatatom 98 56 5 0 0 0 - - -;
#X msg 158 86 set \$1;
#X floatatom 98 166 5 0 0 0 - - -;
#X msg 158 136 1.19;
#X msg 158 196 set \$1;
#X obj 261 86 *;
#X obj 261 196 +;
#X floatatom 288 56 5 0 0 0 - - -;
#X msg 348 86 set \$1;
#X floatatom 288 166 5 0 0 0 - - -;
#X msg 348 196 set \$1;
#X obj 71 -24 inlet x;
#X obj 261 -24 inlet x;
#X msg 158 26 7.98;
#X msg 348 26 -5.93;
#X msg 348 136 2.96;
#X obj 158 -24 loadbang;
#X msg 348 246 0.92;
#X obj 620 396 * 5;
#X obj 593 56 s \$0-cursor_size;
#X text 427 55 <-- scale;
#X text 427 165 <-- offset;
#X obj -37 516 rectangle 0.03 0.2;
#X obj 216 516 rectangle 0.2 0.03;
#X obj 51 426 r \$0-cursor_size;
#X obj 51 456 / 1.5;
#X connect 0 0 12 0;
#X connect 0 0 37 0;
#X connect 2 0 40 0;
#X connect 3 0 41 0;
#X connect 4 0 1 0;
#X connect 5 0 1 0;
#X connect 6 0 5 0;
#X connect 7 0 10 0;
#X connect 8 0 1 0;
#X connect 9 0 1 1;
#X connect 9 1 36 0;
#X connect 10 0 2 0;
#X connect 10 1 3 0;
#X connect 10 2 4 0;
#X connect 11 0 14 0;
#X connect 12 0 9 0;
#X connect 13 0 7 0;
#X connect 15 0 13 0;
#X connect 16 0 17 0;
#X connect 17 0 13 1;
#X connect 18 0 16 1;
#X connect 18 0 19 0;
#X connect 18 0 21 0;
#X connect 19 0 31 0;
#X connect 20 0 22 0;
#X connect 20 0 17 1;
#X connect 21 0 20 0;
#X connect 22 0 21 0;
#X connect 23 0 24 0;
#X connect 24 0 13 2;
#X connect 25 0 23 1;
#X connect 25 0 26 0;
#X connect 25 0 33 0;
#X connect 26 0 32 0;
#X connect 27 0 28 0;
#X connect 27 0 24 1;
#X connect 27 0 35 0;
#X connect 28 0 33 0;
#X connect 29 0 16 0;
#X connect 30 0 23 0;
#X connect 31 0 18 0;
#X connect 32 0 25 0;
#X connect 33 0 27 0;
#X connect 34 0 31 0;
#X connect 34 0 32 0;
#X connect 35 0 13 3;
#X connect 36 0 8 0;
#X connect 42 0 43 0;
#X connect 43 0 40 1;
#X connect 43 0 41 2;
#X restore 210 273 pd blob_cursor;
#X msg 2 53 33;
#X connect 0 1 6 0;
#X connect 0 2 7 0;
#X connect 0 3 8 0;
#X connect 1 0 0 0;
#X connect 2 0 10 3;
#X connect 6 0 3 0;
#X connect 6 0 10 0;
#X connect 7 0 4 0;
#X connect 7 0 10 1;
#X connect 8 0 5 0;
#X connect 8 0 10 2;
#X connect 9 0 11 0;
#X connect 11 0 6 1;
#X connect 11 0 7 1;
#X connect 11 0 8 1;
#X restore 326 149 pd single_blob;
#X connect 4 0 3 0;
#X connect 5 0 13 1;
#X connect 6 0 13 2;
#X connect 6 0 14 1;
#X connect 9 0 10 0;
#X connect 10 0 11 0;
#X connect 12 0 4 0;
#X connect 13 0 9 0;
#X connect 13 0 20 0;
#X connect 15 0 4 0;
#X connect 16 0 15 0;
#X connect 18 0 13 3;
#X connect 19 0 21 0;
#X connect 19 0 22 0;
#X connect 20 0 12 0;
#X connect 20 1 27 0;
#X connect 21 0 13 0;
#X connect 22 0 27 1;
#X connect 23 0 14 2;
#X connect 27 0 24 0;
#X connect 27 1 25 0;
#X connect 27 2 26 0;
