#N canvas 61 23 657 537 12;
#N canvas 0 22 450 300 (subpatch) 0;
#X array \$0-view_window 20 float 1;
#A 0 1 0.993188 0.973031 0.94034 0.896409 0.842929 0.781878 0.715402
0.645691 0.574861 0.504852 0.437349 0.373728 0.315026 0.26194 0.214842
0.17382 0.138721 0.109207 0.084805;
#X coords 0 1.1 19 0 101 80 1;
#X restore 461 430 graph;
#X text -57 -5 1) x y z signals;
#X text -57 60 5) convolution with half gaussian kernel;
#X text -57 43 4) cityblock \, euclidean or cosine distance;
#X obj -54 90 inlet x;
#X obj 106 89 inlet y;
#X obj 266 90 inlet z;
#X obj -54 180 orthogonaliser;
#X obj 106 180 orthogonaliser;
#X obj 266 180 orthogonaliser;
#X text 477 90 2);
#X obj 421 150 s \$0-w;
#X obj 361 150 r \$0-w;
#X text -57 27 3) orthogonal diagonal of distance matrix;
#X obj 201 150 r \$0-w;
#X obj 41 150 r \$0-w;
#X obj 461 250 r \$0-w;
#X obj 488 150 s \$0-dist;
#X obj 461 380 s \$0-view_window;
#X obj 227 430 list-emath *;
#X obj 227 460 list-accum;
#X obj 227 490 outlet novelty;
#X obj 461 320 half_gauss;
#X obj 461 350 list2tab;
#X obj 414 290 / 2;
#X obj 421 90 inlet w distance;
#X text 201 90 (1);
#X text -57 10 2) window size and distance selection;
#X text 391 91 (2);
#X text 161 150 (3);
#X text 201 380 (4);
#X text 351 448 (5);
#X obj 421 120 unpack f s;
#X text -17 490 Juan Ignacio Mendoza G. - 2018;
#X obj 41 210 s \$0-x1;
#X obj -54 210 s \$0-x2;
#X obj 106 210 s \$0-y2;
#X obj 201 210 s \$0-y1;
#X obj 266 210 s \$0-z2;
#X obj 361 210 s \$0-z1;
#X obj -50 350 list-cityblock_3D;
#X obj 130 350 list-euclidean_3D;
#X obj 310 350 list-cosine_3D;
#N canvas 85 22 561 196 multispigot 0;
#X obj -44 14 r \$0-x1;
#X obj 36 14 r \$0-y1;
#X obj 116 14 r \$0-z1;
#X obj 196 14 r \$0-x2;
#X obj 276 14 r \$0-y2;
#X obj 356 14 r \$0-z2;
#X obj -44 154 outlet x1;
#X obj 36 154 outlet y1;
#X obj 116 154 outlet z1;
#X obj 196 154 outlet x2;
#X obj 276 154 outlet y2;
#X obj 356 154 outlet z2;
#X obj -44 114 spigot;
#X obj 36 114 spigot;
#X obj 116 114 spigot;
#X obj 196 114 spigot;
#X obj 276 114 spigot;
#X obj 356 114 spigot;
#X obj 436 14 inlet;
#X connect 0 0 12 0;
#X connect 1 0 13 0;
#X connect 2 0 14 0;
#X connect 3 0 15 0;
#X connect 4 0 16 0;
#X connect 5 0 17 0;
#X connect 12 0 6 0;
#X connect 13 0 7 0;
#X connect 14 0 8 0;
#X connect 15 0 9 0;
#X connect 16 0 10 0;
#X connect 17 0 11 0;
#X connect 18 0 12 1;
#X connect 18 0 13 1;
#X connect 18 0 14 1;
#X connect 18 0 15 1;
#X connect 18 0 16 1;
#X connect 18 0 17 1;
#X restore -40 290 pd multispigot;
#N canvas 85 22 303 253 switcher 0;
#X obj -5 69 route cityblock euclidean cosine;
#X obj -5 9 r \$0-dist;
#X obj -45 209 outlet ctb;
#X obj 55 209 outlet euc;
#X obj 155 209 outlet cos;
#X msg -5 169 1;
#X msg -45 169 0;
#X msg 95 169 1;
#X msg 55 169 0;
#X msg 195 169 1;
#X msg 155 169 0;
#X msg -5 39 \$1;
#X connect 0 0 5 0;
#X connect 0 0 8 0;
#X connect 0 0 10 0;
#X connect 0 1 7 0;
#X connect 0 1 6 0;
#X connect 0 1 10 0;
#X connect 0 2 6 0;
#X connect 0 2 8 0;
#X connect 0 2 9 0;
#X connect 1 0 11 0;
#X connect 5 0 2 0;
#X connect 6 0 2 0;
#X connect 7 0 3 0;
#X connect 8 0 3 0;
#X connect 9 0 4 0;
#X connect 10 0 4 0;
#X connect 11 0 0 0;
#X restore 103 250 pd switcher;
#N canvas 85 22 561 196 multispigot 0;
#X obj -44 14 r \$0-x1;
#X obj 36 14 r \$0-y1;
#X obj 116 14 r \$0-z1;
#X obj 196 14 r \$0-x2;
#X obj 276 14 r \$0-y2;
#X obj 356 14 r \$0-z2;
#X obj -44 154 outlet x1;
#X obj 36 154 outlet y1;
#X obj 116 154 outlet z1;
#X obj 196 154 outlet x2;
#X obj 276 154 outlet y2;
#X obj 356 154 outlet z2;
#X obj -44 114 spigot;
#X obj 36 114 spigot;
#X obj 116 114 spigot;
#X obj 196 114 spigot;
#X obj 276 114 spigot;
#X obj 356 114 spigot;
#X obj 436 14 inlet;
#X connect 0 0 12 0;
#X connect 1 0 13 0;
#X connect 2 0 14 0;
#X connect 3 0 15 0;
#X connect 4 0 16 0;
#X connect 5 0 17 0;
#X connect 12 0 6 0;
#X connect 13 0 7 0;
#X connect 14 0 8 0;
#X connect 15 0 9 0;
#X connect 16 0 10 0;
#X connect 17 0 11 0;
#X connect 18 0 12 1;
#X connect 18 0 13 1;
#X connect 18 0 14 1;
#X connect 18 0 15 1;
#X connect 18 0 16 1;
#X connect 18 0 17 1;
#X restore 140 290 pd multispigot;
#N canvas 85 22 561 196 multispigot 0;
#X obj -44 14 r \$0-x1;
#X obj 36 14 r \$0-y1;
#X obj 116 14 r \$0-z1;
#X obj 196 14 r \$0-x2;
#X obj 276 14 r \$0-y2;
#X obj 356 14 r \$0-z2;
#X obj -44 154 outlet x1;
#X obj 36 154 outlet y1;
#X obj 116 154 outlet z1;
#X obj 196 154 outlet x2;
#X obj 276 154 outlet y2;
#X obj 356 154 outlet z2;
#X obj -44 114 spigot;
#X obj 36 114 spigot;
#X obj 116 114 spigot;
#X obj 196 114 spigot;
#X obj 276 114 spigot;
#X obj 356 114 spigot;
#X obj 436 14 inlet;
#X connect 0 0 12 0;
#X connect 1 0 13 0;
#X connect 2 0 14 0;
#X connect 3 0 15 0;
#X connect 4 0 16 0;
#X connect 5 0 17 0;
#X connect 12 0 6 0;
#X connect 13 0 7 0;
#X connect 14 0 8 0;
#X connect 15 0 9 0;
#X connect 16 0 10 0;
#X connect 17 0 11 0;
#X connect 18 0 12 1;
#X connect 18 0 13 1;
#X connect 18 0 14 1;
#X connect 18 0 15 1;
#X connect 18 0 16 1;
#X connect 18 0 17 1;
#X restore 300 290 pd multispigot;
#X connect 4 0 7 0;
#X connect 5 0 8 0;
#X connect 6 0 9 0;
#X connect 7 0 35 0;
#X connect 7 1 34 0;
#X connect 8 0 36 0;
#X connect 8 1 37 0;
#X connect 9 0 38 0;
#X connect 9 1 39 0;
#X connect 12 0 9 1;
#X connect 14 0 8 1;
#X connect 15 0 7 1;
#X connect 16 0 22 0;
#X connect 16 0 24 0;
#X connect 19 0 20 0;
#X connect 20 0 21 0;
#X connect 22 0 19 1;
#X connect 22 0 23 0;
#X connect 23 0 18 0;
#X connect 24 0 42 6;
#X connect 25 0 32 0;
#X connect 32 0 11 0;
#X connect 32 1 17 0;
#X connect 40 0 19 0;
#X connect 41 0 19 0;
#X connect 42 0 19 0;
#X connect 43 0 40 0;
#X connect 43 1 40 1;
#X connect 43 2 40 2;
#X connect 43 3 40 3;
#X connect 43 4 40 4;
#X connect 43 5 40 5;
#X connect 44 0 43 0;
#X connect 44 1 45 0;
#X connect 44 2 46 0;
#X connect 45 0 41 0;
#X connect 45 1 41 1;
#X connect 45 2 41 2;
#X connect 45 3 41 3;
#X connect 45 4 41 4;
#X connect 45 5 41 5;
#X connect 46 0 42 0;
#X connect 46 1 42 1;
#X connect 46 2 42 2;
#X connect 46 3 42 3;
#X connect 46 4 42 4;
#X connect 46 5 42 5;
#X coords 0 0 1 1 202 78 0;
