#N canvas 0 22 407 380 16;
#X declare -lib iemmatrix;
#X declare -lib list-abs;
#X declare -lib iemmatrix;
#X declare -lib list-abs;
#N canvas 0 22 450 300 (subpatch) 0;
#X array \$0-view_window 20 float 1;
#A 0 0.000135394 0.000800087 0.00388104 0.0154537 0.0505114 0.135526
0.298488 0.539641 0.800862 0.975628 0.975628 0.800862 0.539641 0.298488
0.135526 0.0505114 0.0154537 0.00388104 0.000800087 0.000135394;
#X coords 0 1.1 19 0 101 80 1;
#X restore 143 225 graph;
#X obj 143 169 s \$0-view_window;
#X obj 143 49 inlet window size;
#X text 50 199 convolve;
#X text 38 169 -;
#X text 41 177 |;
#X text 41 202 |;
#X text 41 228 |;
#X text 38 233 -;
#X obj -37 -1 import iemmatrix;
#X obj 163 -1 import list-abs;
#X obj -37 219 mtx_sum;
#X obj -37 282 outlet filtered;
#X obj -37 49 inlet signal;
#N canvas 526 311 336 237 mtx2tab 0;
#X obj 7 -16 inlet;
#X obj 224 174 outlet;
#X obj 7 14 t a a;
#X obj 54 44 mtx_size;
#X obj 7 94 list split 3;
#X obj 224 94 change;
#X msg 224 124 resize \$1;
#X obj 65 124 list prepend 0;
#X connect 0 0 2 0;
#X connect 2 0 4 0;
#X connect 2 1 3 0;
#X connect 3 0 5 0;
#X connect 4 1 7 0;
#X connect 5 0 6 0;
#X connect 6 0 1 0;
#X connect 7 0 1 0;
#X restore 143 129 pd mtx2tab;
#X text 41 215 |;
#X text 41 189 |;
#X obj 143 89 gauss_window;
#X obj -37 89 square_window;
#X text -27 324 Juan Ignacio Mendoza Garay - 2018;
#X obj -37 189 mtx_.*;
#X connect 2 0 17 0;
#X connect 2 0 18 1;
#X connect 11 0 12 0;
#X connect 13 0 18 0;
#X connect 14 0 1 0;
#X connect 17 0 14 0;
#X connect 17 0 20 1;
#X connect 18 0 20 0;
#X connect 20 0 11 0;
