#N canvas 725 238 532 286 16;
#X declare -lib mrpeach;
#X declare -lib iemmatrix;
#X declare -lib iemmatrix;
#X declare -lib list-abs;
#X declare -lib iemmatrix;
#X declare -lib list-abs;
#X declare -lib iemmatrix;
#X declare -lib list-abs;
#X declare -lib iemmatrix;
#X declare -lib list-abs;
#X declare -lib iemmatrix;
#X declare -lib iemmatrix;
#X declare -lib iemmatrix;
#X declare -lib iemmatrix;
#X declare -lib list-abs;
#X declare -lib iemmatrix;
#X declare -lib smlib;
#X text 93 232 Juan Ignacio Mendoza Garay - 2016;
#N canvas 615 100 667 525 gesseg_gui_engines 0;
#X obj 173 78 vradio 20 1 0 3 \$0-select_sf_snd \$0-select_sf_rcv empty
0 -8 0 10 -262144 -1 -1 1;
#X text 140 59 |;
#X text 140 72 |;
#X text 140 85 |;
#X text 140 98 |;
#X text 140 111 |;
#X text 140 123 |;
#X text 140 136 |;
#X text 140 149 |;
#X text 140 162 |;
#X text 140 46 |;
#X text 140 33 |;
#X text 140 23 |;
#X text 140 13 |;
#X text 248 58 |;
#X text 248 71 |;
#X text 248 84 |;
#X text 248 97 |;
#X text 248 110 |;
#X text 248 123 |;
#X text 248 136 |;
#X text 248 149 |;
#X text 248 162 |;
#X text 248 46 |;
#X text 248 33 |;
#X text 248 23 |;
#X text 248 13 |;
#X text 159 21 sampling;
#X text 152 40 frequency;
#X text 200 76 10;
#X text 200 96 20;
#X text 200 116 100;
#X text 178 146 (Hz);
#X text 144 -1 ___________;
#X text 145 162 ___________;
#X obj 229 212 r \$0-sp;
#N canvas 77 27 450 741 acceleration_sensors 0;
#X obj -313 667 outlet x;
#X obj -166 667 outlet y;
#X obj -49 667 outlet z;
#N canvas 151 62 224 217 cursor_x_y 0;
#X obj 10 49 cursor;
#X obj 10 79 route motion;
#X obj 10 109 route x y;
#X obj 10 9 inlet;
#X obj 10 159 outlet x;
#X obj 110 159 outlet y;
#X connect 0 0 1 0;
#X connect 1 0 2 0;
#X connect 2 0 4 0;
#X connect 2 1 5 0;
#X connect 3 0 0 0;
#X restore -313 337 pd cursor_x_y;
#X obj -47 298 metro 100;
#X obj -57 7 inlet poll period;
#X obj -283 457 pack f f f;
#X obj -283 487 unpack f f f;
#X text -188 701 acceleration;
#X obj -313 587 delta 2;
#X obj -166 587 delta 2;
#N canvas 305 28 288 447 myo_osc 0;
#X obj 63 46 import mrpeach;
#X obj -44 226 unpackOSC;
#X obj -44 306 routeOSC /accel;
#X obj -44 266 routeOSC /myo;
#N canvas 496 544 608 203 udp_receive 0;
#X obj 203 45 outlet;
#N canvas 1080 271 270 153 \$0-udp_prov 0;
#X obj 1 1 udpreceive 7777;
#X obj 1 50 send udprecout;
#X connect 0 0 1 0;
#X restore 33 16 pd \$0-udp_prov;
#X obj -147 16 s pd-\$0-udp_prov;
#X msg -77 -45 clear \, obj 1 1 udpreceive \$1 \, obj 1 50 send udprecout
\, connect 0 0 1 0;
#X obj 203 16 r udprecout;
#X msg -147 -45 clear;
#X obj -147 -85 inlet;
#X obj -77 -84 inlet;
#X connect 3 0 2 0;
#X connect 4 0 0 0;
#X connect 5 0 2 0;
#X connect 6 0 5 0;
#X connect 7 0 3 0;
#X restore -44 186 pd udp_receive;
#X obj 66 87 loadbang;
#X msg 4 147 7777;
#X obj -44 6 inlet on/off;
#X obj -44 86 select 0 1;
#X text 58 148 <-- UDP port;
#X obj 1 397 outlet;
#X obj 73 397 outlet;
#X obj 143 397 outlet;
#X obj -44 346 unpack s f f f f;
#X connect 1 0 3 0;
#X connect 2 0 13 0;
#X connect 3 0 2 0;
#X connect 4 0 1 0;
#X connect 5 0 6 0;
#X connect 6 0 4 1;
#X connect 7 0 8 0;
#X connect 8 0 4 0;
#X connect 8 1 6 0;
#X connect 13 2 10 0;
#X connect 13 3 11 0;
#X connect 13 4 12 0;
#X restore -17 387 pd myo_osc;
#X obj -47 457 pack f f f f;
#X obj -47 487 unpack f f f f;
#X obj -313 7 inlet select sensor;
#X obj -313 47 select 0 1 2;
#X msg -313 97 0;
#X msg -263 97 1;
#X msg -213 97 1;
#X obj -2 587 *;
#X obj 44 587 *;
#X obj 90 587 *;
#X floatatom -145 515 5 0 0 0 - - -;
#X obj -145 457 loadbang;
#X obj -263 218 s \$0-tgls_metro;
#X obj -313 258 s \$0-tgls_cursor;
#X obj -213 178 s \$0-tgls_myo;
#X obj -313 298 r \$0-tgls_cursor;
#X obj -136 258 r \$0-tgls_metro;
#X obj -17 338 r \$0-tgls_myo;
#X obj -104 388 gate 2;
#X obj -173 47 s \$0-s_mgate;
#X obj -174 338 r \$0-s_mgate;
#X msg -145 487 10;
#N canvas 122 23 661 558 test_circle 0;
#X obj 279 64 pol2cart;
#X obj 322 290 grid grid1 200 -1 1 200 -1 1 1 0.01 0.01 100 100 426.742
340.225;
#X msg 323 242 goto \$1 \$2;
#X obj 320 214 pack f f;
#X obj 48 166 cup;
#X obj 37 11 tgl 30 0 empty empty empty 17 7 0 10 -4032 -258113 -1
0 1;
#X msg 138 110 1;
#X floatatom 97 10 5 1 1000 0 - - -;
#X obj 97 46 expr 1000/$f1;
#X obj 326 9 t b f b;
#X obj 465 170 expr $f1*50 + 100;
#X obj 209 166 expr $f1*50 + 100;
#X obj 48 353 select 6.28;
#X floatatom 105 422 5 0 0 0 - - -;
#X floatatom 244 467 5 0 0 0 - - -;
#X obj 44 266 expr $f1*(6.28/20);
#X obj 577 231 bang;
#X msg 407 33 0;
#X msg 260 29 1;
#X obj 49 113 metro 33;
#X obj 31 500 outlet;
#X obj 121 500 outlet;
#X connect 0 0 11 0;
#X connect 0 1 10 0;
#X connect 2 0 1 0;
#X connect 3 0 2 0;
#X connect 4 0 15 0;
#X connect 5 0 19 0;
#X connect 6 0 4 0;
#X connect 7 0 8 0;
#X connect 8 0 19 1;
#X connect 9 0 18 0;
#X connect 9 1 0 1;
#X connect 9 2 17 0;
#X connect 10 0 3 1;
#X connect 10 0 14 0;
#X connect 10 0 16 0;
#X connect 10 0 21 0;
#X connect 11 0 3 0;
#X connect 11 0 13 0;
#X connect 11 0 20 0;
#X connect 12 0 6 0;
#X connect 12 1 9 0;
#X connect 15 0 12 0;
#X connect 16 0 3 0;
#X connect 17 0 0 2;
#X connect 18 0 0 0;
#X connect 19 0 4 0;
#X restore -313 547 pd test_circle;
#X connect 3 0 6 1;
#X connect 3 1 6 2;
#X connect 4 0 30 1;
#X connect 5 0 4 1;
#X connect 6 0 7 0;
#X connect 7 1 9 0;
#X connect 7 2 10 0;
#X connect 9 0 0 0;
#X connect 10 0 1 0;
#X connect 11 0 12 1;
#X connect 11 1 12 2;
#X connect 11 2 12 3;
#X connect 12 0 13 0;
#X connect 13 1 19 0;
#X connect 13 2 20 0;
#X connect 13 3 21 0;
#X connect 14 0 15 0;
#X connect 14 0 31 0;
#X connect 15 0 16 0;
#X connect 15 1 17 0;
#X connect 15 2 18 0;
#X connect 16 0 25 0;
#X connect 16 0 26 0;
#X connect 16 0 24 0;
#X connect 17 0 25 0;
#X connect 17 0 24 0;
#X connect 18 0 24 0;
#X connect 18 0 26 0;
#X connect 19 0 0 0;
#X connect 20 0 1 0;
#X connect 21 0 2 0;
#X connect 22 0 19 1;
#X connect 22 0 20 1;
#X connect 22 0 21 1;
#X connect 23 0 33 0;
#X connect 27 0 3 0;
#X connect 28 0 4 0;
#X connect 29 0 11 0;
#X connect 30 0 6 0;
#X connect 30 1 12 0;
#X connect 32 0 30 0;
#X connect 33 0 22 0;
#X connect 34 0 9 0;
#X connect 34 1 10 0;
#X restore 2 249 pd acceleration_sensors;
#X obj 44 78 vradio 20 1 0 3 \$0-sel_sensor_snd \$0-sel_sensor_rcv
empty 0 -8 0 10 -262144 -1 -1 0;
#X text 71 76 none;
#X text 71 96 cursor;
#X text 71 116 Myo;
#X text 25 59 |;
#X text 25 72 |;
#X text 25 85 |;
#X text 25 98 |;
#X text 25 111 |;
#X text 25 123 |;
#X text 25 136 |;
#X text 25 149 |;
#X text 25 162 |;
#X text 25 46 |;
#X text 25 33 |;
#X text 25 23 |;
#X text 25 13 |;
#X text 133 58 |;
#X text 133 71 |;
#X text 133 84 |;
#X text 133 97 |;
#X text 133 110 |;
#X text 133 123 |;
#X text 133 136 |;
#X text 133 149 |;
#X text 133 162 |;
#X text 133 46 |;
#X text 133 33 |;
#X text 133 23 |;
#X text 133 13 |;
#X text 29 -1 ___________;
#X text 30 162 ___________;
#X text 54 21 sensor;
#X obj 2 209 r \$0-sel_sensor_snd;
#X obj 2 289 s \$0-acc_x;
#X obj 115 289 s \$0-acc_y;
#X obj 229 289 s \$0-acc_z;
#N canvas 846 279 388 213 novelty_segmentation_module 0;
#N canvas 710 22 635 556 novelty_segmentation_engine 0;
#N canvas 155 274 466 436 visualize_matrix 0;
#X obj -3 16 inlet d;
#X obj 87 16 inlet K;
#X obj 280 286 mtx;
#X obj -3 266 spigot;
#X msg 30 226 1;
#X msg 80 226 0;
#X obj 177 56 select 0 1 2;
#X msg 177 187 0;
#X msg 216 237 1;
#X obj 327 217 bang;
#X obj 327 187 spigot;
#X msg 360 147 1;
#X msg 410 147 0;
#X obj 327 17 inlet norm;
#X obj 177 16 inlet select;
#X obj 216 396 heatmap;
#X connect 0 0 3 0;
#X connect 1 0 2 1;
#X connect 2 0 15 2;
#X connect 3 0 15 2;
#X connect 4 0 3 1;
#X connect 5 0 3 1;
#X connect 6 0 7 0;
#X connect 6 1 8 0;
#X connect 6 1 4 0;
#X connect 6 1 12 0;
#X connect 6 2 2 0;
#X connect 6 2 5 0;
#X connect 6 2 8 0;
#X connect 6 2 11 0;
#X connect 7 0 5 0;
#X connect 7 0 15 0;
#X connect 8 0 15 0;
#X connect 9 0 2 0;
#X connect 10 0 9 0;
#X connect 11 0 10 1;
#X connect 12 0 10 1;
#X connect 13 0 10 0;
#X connect 13 0 15 1;
#X connect 14 0 6 0;
#X restore 142 -58 pd visualize_matrix;
#X obj 354 -18 loadbang;
#N canvas 267 382 276 189 peaks_plot 0;
#X obj 9 15 inlet;
#X obj 9 145 outlet;
#X msg 9 75 0;
#X obj 79 15 inlet;
#X msg 79 75 100;
#X obj 139 15 inlet;
#X obj 209 15 inlet;
#X connect 0 0 2 0;
#X connect 2 0 1 0;
#X connect 3 0 4 0;
#X connect 4 0 1 0;
#X restore 81 -18 pd peaks_plot;
#N canvas 300 22 953 593 novelty_segmentation 0;
#X obj 364 16 inlet window size;
#X obj 471 378 outlet distance;
#X obj 641 378 outlet kernel;
#X obj 4 510 outlet smoothed;
#X obj 174 510 outlet novelty;
#X text 170 548 Juan Ignacio Mendoza Garay - 2016;
#X obj 567 16 inlet threshold;
#N canvas 856 536 336 219 peaks 0;
#X obj 15 16 inlet y;
#X obj 62 186 outlet;
#X obj 15 46 local_max;
#X obj 172 16 inlet threshold;
#X obj 15 136 moses;
#X connect 0 0 2 0;
#X connect 2 0 4 0;
#X connect 3 0 4 1;
#X connect 4 1 1 0;
#X restore 204 470 pd peaks;
#X obj 334 510 outlet peaks;
#X obj -126 510 outlet norm;
#X obj -126 16 inlet x;
#X obj -28 16 inlet y;
#X obj 71 16 inlet z;
#X obj 174 440 average;
#X obj 241 408 / 2;
#X text 144 245 <-- alternative smoothers -->;
#N canvas 0 23 198 158 more_smoothers 0;
#N canvas 875 199 376 377 gauss_filter 0;
#N canvas 0 22 450 300 (subpatch) 0;
#X array \$0-view_window 40 float 1;
#A 0 8.42019e-05 0.000215041 0.000522745 0.00120956 0.00266399 0.00558478
0.0111442 0.0211669 0.0382681 0.0658543 0.10787 0.168184 0.249596 0.35258
0.474075 0.606744 0.739148 0.85709 0.945996 0.99385 0.99385 0.945996
0.85709 0.739148 0.606744 0.474075 0.35258 0.249596 0.168184 0.10787
0.0658543 0.0382681 0.0211669 0.0111442 0.00558478 0.00266399 0.00120956
0.000522745 0.000215041 8.42019e-05;
#X coords 0 1.1 39 0 101 80 1;
#X restore 133 215 graph;
#N canvas 626 197 463 520 gauss_window 0;
#X obj 22 95 expr ($f1-1)/2;
#X obj 22 155 * -1;
#X obj 22 125 t f f;
#X obj 140 5 inlet size;
#X obj 92 285 mtx_mul 2;
#X obj 92 315 t a a;
#X obj 92 355 mtx_.*;
#X obj 92 415 mtx_exp;
#X text 62 481 Juan Ignacio Mendoza Garay - 2016;
#X obj 270 5 import iemmatrix;
#X obj 280 35 import list-abs;
#X obj 92 445 outlet gaussian window;
#X obj 92 195 linspace;
#X obj 92 248 mtx;
#X obj 318 144 mtx;
#X text 309 214 window vector;
#X text 328 198 intialise;
#X text 366 181 |;
#X text 311 169 ____________;
#X text 307 169 |;
#X text 311 79 ____________;
#X text 307 156 |;
#X text 307 143 |;
#X text 307 130 |;
#X text 307 117 |;
#X text 307 104 |;
#X text 307 91 |;
#X obj 140 45 t f f f f;
#X obj 92 385 mtx_.* -1;
#X msg 318 114 zeros \$1 1;
#X text 425 169 |;
#X text 425 156 |;
#X text 425 91 |;
#X text 425 104 |;
#X text 425 117 |;
#X text 425 130 |;
#X text 425 143 |;
#X obj 197 245 expr 8*atan(1)/$f1;
#X connect 0 0 2 0;
#X connect 1 0 12 0;
#X connect 2 0 1 0;
#X connect 2 1 12 1;
#X connect 3 0 27 0;
#X connect 4 0 5 0;
#X connect 5 0 6 0;
#X connect 5 1 6 1;
#X connect 6 0 28 0;
#X connect 7 0 11 0;
#X connect 12 0 13 0;
#X connect 13 0 4 0;
#X connect 14 0 13 1;
#X connect 27 0 0 0;
#X connect 27 1 12 2;
#X connect 27 2 37 0;
#X connect 27 3 29 0;
#X connect 28 0 7 0;
#X connect 29 0 14 0;
#X connect 37 0 4 1;
#X restore 133 79 pd gauss_window;
#X obj 133 159 s \$0-view_window;
#X obj 133 39 inlet window size;
#X text -37 314 Juan Ignacio Mendoza Garay - 2016;
#X obj -47 179 mtx_.*;
#X text 40 189 convolve;
#X text 28 159 -;
#X text 31 167 |;
#X text 31 192 |;
#X text 31 218 |;
#X text 28 223 -;
#X obj -47 -11 import iemmatrix;
#X obj 153 -11 import list-abs;
#X obj -47 209 mtx_sum;
#N canvas 599 391 497 302 square_window 0;
#X obj 222 104 t l;
#X obj 15 54 list append;
#X obj 15 144 list split;
#X obj 15 14 inlet signal;
#X obj 245 14 inlet size;
#X text 219 142 hop=1;
#X obj 15 244 outlet;
#X obj 15 214 mtx;
#X msg 348 104 zeros \$1 1;
#X obj 348 144 mtx;
#X text 339 206 window vector;
#X text 358 190 intialise;
#X text 396 173 |;
#X text 341 161 ____________;
#X text 337 161 |;
#X text 455 161 |;
#X text 341 71 ____________;
#X text 455 148 |;
#X text 337 148 |;
#X text 337 135 |;
#X text 337 122 |;
#X text 337 109 |;
#X text 337 96 |;
#X text 337 83 |;
#X text 455 83 |;
#X text 455 96 |;
#X text 455 109 |;
#X text 455 122 |;
#X text 455 135 |;
#X text 85 271 Juan Ignacio Mendoza Garay - 2016;
#X connect 0 0 1 1;
#X connect 1 0 2 0;
#X connect 2 0 0 0;
#X connect 2 0 7 0;
#X connect 2 2 0 0;
#X connect 3 0 1 0;
#X connect 4 0 2 1;
#X connect 4 0 8 0;
#X connect 7 0 6 0;
#X connect 8 0 9 0;
#X connect 9 0 7 1;
#X restore -47 79 pd square_window;
#X obj -47 272 outlet filtered;
#X obj -47 39 inlet signal;
#N canvas 526 311 336 237 mtx2tab 0;
#X obj 7 -16 inlet;
#X obj 224 174 outlet;
#X obj 7 14 t a a;
#X obj 54 44 mtx_size;
#X obj 7 94 list split 3;
#X obj 224 94 change;
#X msg 224 124 resize \$1;
#X obj 65 124 list prepend 0;
#X connect 0 0 2 0;
#X connect 2 0 4 0;
#X connect 2 1 3 0;
#X connect 3 0 5 0;
#X connect 4 1 7 0;
#X connect 5 0 6 0;
#X connect 6 0 1 0;
#X connect 7 0 1 0;
#X restore 133 119 pd mtx2tab;
#X text 31 205 |;
#X text 31 179 |;
#X connect 1 0 18 0;
#X connect 1 0 5 1;
#X connect 3 0 1 0;
#X connect 3 0 15 1;
#X connect 5 0 14 0;
#X connect 14 0 16 0;
#X connect 15 0 5 0;
#X connect 17 0 15 0;
#X connect 18 0 2 0;
#X restore 15 -24 pd gauss_filter;
#X obj 15 -54 average;
#N canvas 700 188 205 168 winsum 0;
#X obj 19 13 inlet;
#X obj 19 123 outlet;
#X obj 19 53 last_n;
#X obj 76 13 inlet size;
#X obj 19 83 sum;
#X connect 0 0 2 0;
#X connect 2 0 4 0;
#X connect 3 0 2 1;
#X connect 4 0 1 0;
#X restore 15 6 pd winsum;
#X restore 445 245 pd more_smoothers;
#N canvas 435 459 546 272 euclidean_norm_3D 0;
#X obj -44 125 expr sqrt($f1+$f2+$f3);
#X obj -116 26 inlet x;
#X obj 64 26 inlet y;
#X obj 244 26 inlet z;
#X text -18 216 Juan Ignacio Mendoza Garay - 2016;
#X obj -116 75 expr pow($f1 \, 2);
#X obj 64 75 expr pow($f1 \, 2);
#X obj 244 75 expr pow($f1 \, 2);
#X obj -44 166 outlet;
#X connect 0 0 8 0;
#X connect 1 0 5 0;
#X connect 2 0 6 0;
#X connect 3 0 7 0;
#X connect 5 0 0 0;
#X connect 6 0 0 1;
#X connect 7 0 0 2;
#X restore -126 95 pd euclidean_norm_3D;
#X obj 567 46 s \$0-novelty_peak_thresh;
#X obj 281 440 r \$0-novelty_peak_thresh;
#X obj 364 46 s \$0-novelty_w_size;
#X obj 291 295 r \$0-novelty_w_size;
#X obj 121 215 r \$0-novelty_w_size;
#X obj 241 378 r \$0-novelty_w_size;
#X obj 164 16 inlet grav offset;
#X obj 4 175 +;
#X obj 4 245 gauss_filter;
#X obj 174 325 slow_novelty;
#X connect 0 0 20 0;
#X connect 6 0 18 0;
#X connect 7 0 8 0;
#X connect 10 0 17 0;
#X connect 11 0 17 1;
#X connect 12 0 17 2;
#X connect 13 0 4 0;
#X connect 13 0 7 0;
#X connect 14 0 13 1;
#X connect 17 0 25 0;
#X connect 19 0 7 1;
#X connect 21 0 27 1;
#X connect 22 0 26 1;
#X connect 23 0 14 0;
#X connect 24 0 25 1;
#X connect 25 0 9 0;
#X connect 25 0 26 0;
#X connect 26 0 3 0;
#X connect 26 0 27 0;
#X connect 27 0 13 0;
#X connect 27 1 1 0;
#X connect 27 2 2 0;
#X restore -23 -118 pd novelty_segmentation;
#X obj -23 -368 r \$0-acc_x;
#X obj 91 -368 r \$0-acc_y;
#X obj 204 -368 r \$0-acc_z;
#X obj -23 -278 spigot;
#X obj 91 -278 spigot;
#X obj 204 -278 spigot;
#X obj 324 -368 r \$0-ns_onoff_snd;
#X obj 204 -198 r \$0-ns_ws_snd;
#X obj 204 -158 r \$0-ns_pk_thresh_snd;
#X obj 266 -118 r \$0-ns_select_mv_snd;
#X obj 329 -88 r \$0-ns_select_mv_norm_snd;
#X obj 81 12 s \$0-ns_peaks;
#X obj 67 62 s \$0-ns_novelty;
#X obj 22 102 s \$0-ns_smoothed;
#X obj -23 142 s \$0-ns_accel_norm;
#X obj 424 52 s \$0-ns_ws_rcv;
#X obj 354 82 s \$0-ns_pk_thresh_rcv;
#X obj 324 -278 s \$0-ns_select_mv_rcv;
#X obj 324 -338 select 0;
#X msg 324 -308 0;
#X msg 354 52 100;
#X msg 424 22 40;
#X obj 204 -238 r \$0-grav_os_snd;
#X connect 1 0 25 0;
#X connect 1 0 24 0;
#X connect 2 0 15 0;
#X connect 3 0 18 0;
#X connect 3 1 17 0;
#X connect 3 2 2 0;
#X connect 3 2 16 0;
#X connect 3 3 2 1;
#X connect 3 4 0 0;
#X connect 3 5 0 1;
#X connect 4 0 7 0;
#X connect 5 0 8 0;
#X connect 6 0 9 0;
#X connect 7 0 3 0;
#X connect 8 0 3 1;
#X connect 9 0 3 2;
#X connect 10 0 9 1;
#X connect 10 0 8 1;
#X connect 10 0 7 1;
#X connect 10 0 22 0;
#X connect 11 0 3 4;
#X connect 12 0 3 5;
#X connect 13 0 0 2;
#X connect 14 0 0 3;
#X connect 22 0 23 0;
#X connect 23 0 21 0;
#X connect 24 0 20 0;
#X connect 25 0 19 0;
#X connect 26 0 3 3;
#X restore -3 154 pd novelty_segmentation_engine;
#N canvas 98 23 599 724 novelty_segmentation_GUI 0;
#N canvas 297 23 777 691 plots 0;
#X obj 3 6 simple_plot;
#X floatatom 3 89 5 0 0 0 - - -;
#X floatatom 3 219 5 0 0 0 - - -;
#X floatatom 3 349 10 0 0 0 - - -;
#X text 178 348 novelty score;
#X obj 456 -104 bng 15 250 50 0 empty empty empty 17 7 0 10 -262144
-1 -1;
#X obj 456 -174 inlet reset;
#X obj 356 -174 loadbang;
#X msg 73 -34 0;
#X text 28 457 peaks;
#X obj 3 459 bng 20 250 50 0 empty empty empty 17 7 0 10 -228856 -1
-1;
#X obj -187 376 select 100;
#X obj 3 136 simple_plot;
#X obj 3 266 simple_plot;
#X obj 3 386 simple_plot;
#X text 58 88 acceleration norm;
#X text 58 218 smoothed;
#X obj -187 -24 autoscale 0 100;
#X obj -187 106 autoscale 0 100;
#X obj -187 236 autoscale 0 100;
#X obj -187 -64 r \$0-ns_accel_norm;
#X obj -187 66 r \$0-ns_smoothed;
#X obj -187 196 r \$0-ns_novelty;
#X obj -187 336 r \$0-ns_peaks;
#X floatatom 383 349 10 0 0 0 - - -;
#X text 108 348 scaled;
#X text 488 348 raw NS;
#X connect 0 0 1 0;
#X connect 5 0 0 1;
#X connect 5 0 8 0;
#X connect 5 0 12 1;
#X connect 5 0 13 1;
#X connect 5 0 14 1;
#X connect 5 0 17 3;
#X connect 5 0 18 3;
#X connect 5 0 19 3;
#X connect 6 0 5 0;
#X connect 7 0 5 0;
#X connect 8 0 1 0;
#X connect 8 0 2 0;
#X connect 8 0 3 0;
#X connect 11 0 10 0;
#X connect 12 0 2 0;
#X connect 13 0 3 0;
#X connect 17 0 0 0;
#X connect 18 0 12 0;
#X connect 19 0 13 0;
#X connect 20 0 17 0;
#X connect 21 0 18 0;
#X connect 22 0 19 0;
#X connect 22 0 24 0;
#X connect 23 0 11 0;
#X connect 23 0 14 0;
#X coords 0 -1 1 1 568 484 2 0 0;
#X restore -13 214 pd plots;
#X obj -13 194 bng 15 250 50 0 empty empty reset 17 7 0 10 -262144
-1 -1;
#X obj 421 65 vradio 20 1 0 3 \$0-ns_select_mv_snd \$0-ns_select_mv_rcv
empty 0 -8 0 10 -262144 -1 -1 0;
#X obj 421 135 tgl 20 0 \$0-ns_select_mv_norm_snd \$0-ns_select_mv_norm_rcv
empty 17 7 0 10 -262144 -1 -1 0 1;
#X text 448 63 none;
#X text 448 83 distance;
#X text 448 103 kernel;
#X text 448 133 normalise;
#X floatatom 329 45 3 0 0 0 - #0-ns_ws_rcv #0-ns_ws_snd;
#X text 399 45 |;
#X text 399 58 |;
#X text 399 71 |;
#X text 399 84 |;
#X text 399 97 |;
#X text 399 110 |;
#X text 399 123 |;
#X text 399 136 |;
#X text 399 149 |;
#X text 445 8 matrix;
#X text 414 27 visualisation;
#X text 399 33 |;
#X text 399 20 |;
#X text 399 10 |;
#X text 399 0 |;
#X text 403 149 _______________;
#X text 403 -14 _______________;
#X text 548 45 |;
#X text 548 58 |;
#X text 548 71 |;
#X text 548 84 |;
#X text 548 97 |;
#X text 548 110 |;
#X text 548 123 |;
#X text 548 136 |;
#X text 548 149 |;
#X text 548 33 |;
#X text 548 20 |;
#X text 548 10 |;
#X text 548 0 |;
#X text 393 147 |;
#X text 285 148 |;
#X text 285 5 |;
#X text 393 56 |;
#X text 313 13 window;
#X text 285 123 |;
#X text 285 136 |;
#X text 285 -2 |;
#X text 285 11 |;
#X text 285 23 |;
#X text 285 36 |;
#X text 285 49 |;
#X text 285 62 |;
#X text 285 110 |;
#X text 285 97 |;
#X text 285 87 |;
#X text 285 77 |;
#X text 393 122 |;
#X text 393 135 |;
#X text 393 49 |;
#X text 393 62 |;
#X text 393 -2 |;
#X text 393 11 |;
#X text 393 24 |;
#X text 393 37 |;
#X text 393 110 |;
#X text 393 97 |;
#X text 393 87 |;
#X text 393 77 |;
#X text 289 -14 ___________;
#X text 290 148 ___________;
#X text 319 85 peaks;
#X text 298 104 threshold;
#X floatatom 321 134 4 0 0 0 - #0-ns_pk_thresh_rcv #0-ns_pk_thresh_snd
;
#X text 289 63 ___________;
#X text 36 88 Gesture Segmentation;
#X text 68 58 Novelty-Based;
#X connect 1 0 0 0;
#X restore -3 114 pd novelty_segmentation_GUI;
#X msg -3 44 \; pd-novelty_segmentation_GUI vis \$1;
#X obj -3 14 r \$0-ns_onoff_snd;
#X connect 3 0 2 0;
#X restore 2 329 pd novelty_segmentation_module;
#X obj 386 78 tgl 20 0 \$0-ns_onoff_snd \$0-ns_onoff_rcv empty 17 7
0 10 -262144 -66577 -1 0 1;
#X text 411 74 novelty;
#X text 368 59 |;
#X text 368 72 |;
#X text 368 85 |;
#X text 368 98 |;
#X text 368 111 |;
#X text 368 123 |;
#X text 368 136 |;
#X text 368 149 |;
#X text 368 162 |;
#X text 368 46 |;
#X text 368 33 |;
#X text 368 23 |;
#X text 368 13 |;
#X text 486 58 |;
#X text 486 71 |;
#X text 486 84 |;
#X text 486 97 |;
#X text 486 110 |;
#X text 486 123 |;
#X text 486 136 |;
#X text 486 149 |;
#X text 486 162 |;
#X text 486 46 |;
#X text 486 33 |;
#X text 486 23 |;
#X text 486 13 |;
#X text 401 21 method;
#X text 372 -1 ____________;
#X text 373 162 ____________;
#X obj 386 118 tgl 20 0 \$0-is_onoff_snd \$0-is_onoff_rcv empty 17
7 0 10 -262144 -66577 -1 0 1;
#X text 411 114 impulse;
#X msg 342 439 1;
#X obj 342 309 loadbang;
#X obj 342 469 s \$0-select_sf_rcv;
#N canvas 0 22 177 185 sel_f2p 0;
#X obj 17 53 select 0 1 2;
#X msg 17 103 100;
#X msg 67 103 50;
#X msg 117 103 10;
#X obj 17 143 outlet;
#X obj 17 13 inlet;
#X connect 0 0 1 0;
#X connect 0 1 2 0;
#X connect 0 2 3 0;
#X connect 1 0 4 0;
#X connect 2 0 4 0;
#X connect 3 0 4 0;
#X connect 5 0 0 0;
#X restore 5 439 pd sel_f2p;
#X obj 5 409 r \$0-select_sf_snd;
#X obj 5 469 s \$0-sp;
#X text 255 59 |;
#X text 255 72 |;
#X text 255 85 |;
#X text 255 98 |;
#X text 255 111 |;
#X text 255 123 |;
#X text 255 136 |;
#X text 255 149 |;
#X text 255 162 |;
#X text 255 46 |;
#X text 255 33 |;
#X text 255 23 |;
#X text 255 13 |;
#X text 363 58 |;
#X text 363 71 |;
#X text 363 84 |;
#X text 363 97 |;
#X text 363 110 |;
#X text 363 123 |;
#X text 363 136 |;
#X text 363 149 |;
#X text 363 162 |;
#X text 363 46 |;
#X text 363 33 |;
#X text 363 23 |;
#X text 363 13 |;
#X text 259 -1 ___________;
#X text 260 162 ___________;
#X text 279 21 gravity;
#X text 284 40 offset;
#X floatatom 292 78 4 0 0 0 - #0-grav_os_rcv #0-grav_os_snd;
#X obj 352 389 s \$0-grav_os_rcv;
#X msg 352 359 -10;
#X connect 35 0 36 1;
#X connect 36 0 71 0;
#X connect 36 1 72 0;
#X connect 36 2 73 0;
#X connect 70 0 36 0;
#X connect 108 0 110 0;
#X connect 109 0 108 0;
#X connect 109 0 146 0;
#X connect 111 0 113 0;
#X connect 112 0 111 0;
#X connect 146 0 145 0;
#X coords 0 -1 1 1 524 190 2 0 0;
#X restore -1 32 pd gesseg_gui_engines;
#X text 142 -8 Bodily Gesture Analysis;
#X coords 0 0 1 1 85 60 0;
