#N canvas 307 40 225 252 12;
#X obj 0 -60 inlet;
#X obj 117 100 outlet;
#X obj 0 -30 t a a;
#X obj 117 40 change;
#X msg 117 70 resize \$1;
#X obj 0 40 list prepend 0;
#X obj 33 0 list length;
#X connect 0 0 2 0;
#X connect 2 0 5 0;
#X connect 2 1 6 0;
#X connect 3 0 4 0;
#X connect 4 0 1 0;
#X connect 5 0 1 0;
#X connect 6 0 3 0;
#X coords 0 0 1 1 202 78 0;
