#N canvas 473 381 226 301 12;
#X obj -120 12 inlet length;
#X obj -120 52 route bang;
#X msg -53 152 1;
#X obj 41 122 list;
#X obj -4 182 list;
#X obj -120 232 list;
#X obj -53 122 until;
#X obj -120 262 outlet list;
#X obj -53 83 trigger a b;
#X connect 0 0 1 0;
#X connect 1 0 5 0;
#X connect 1 1 8 0;
#X connect 2 0 4 0;
#X connect 3 0 4 1;
#X connect 4 0 3 0;
#X connect 4 0 5 1;
#X connect 5 0 7 0;
#X connect 6 0 2 0;
#X connect 8 0 6 0;
#X connect 8 1 4 1;
#X coords 0 0 1 1 202 78 0;
