#N canvas 855 241 247 200 12;
#X obj 22 -45 inlet list;
#X obj 112 -45 inlet length;
#X obj 22 105 outlet list;
#X obj 22 75 list-emath -;
#X obj 71 -5 t b l;
#X obj 112 35 list-ones;
#X connect 0 0 4 0;
#X connect 1 0 5 0;
#X connect 3 0 2 0;
#X connect 4 0 5 0;
#X connect 4 1 3 1;
#X connect 5 0 3 0;
#X coords 0 0 1 1 202 78 0;
