#N canvas 29 570 377 247 12;
#X declare -lib iemmatrix;
#X declare -lib list-abs;
#X declare -lib iemmatrix;
#X declare -lib list-abs;
#X obj -121 -134 inlet sig;
#X obj 179 -134 loadbang;
#X obj 214 -23 bang;
#X text -30 -1 raw;
#X text -75 53 integrated;
#X obj 4 31 hsl 195 15 0 1 0 0 empty empty empty -2 -8 0 10 -99865
-36695 -1 0 1;
#X obj -121 -74 autoscale 0 1;
#X obj 1 -72 autoscale 0 1;
#X obj 89 -134 inlet reset;
#X obj 1 1 miniplot;
#X obj 1 47 miniplot;
#X obj -47 -134 inlet abs w method;
#X obj -89 86 outlet;
#X obj 89 -104 t b b;
#X obj -121 -44 t a a;
#X text -9 86 Juan Ignacio Mendoza G. - 2018;
#X obj -121 -104 multifilter;
#X connect 0 0 16 0;
#X connect 1 0 13 0;
#X connect 2 0 9 1;
#X connect 2 0 10 1;
#X connect 5 0 10 0;
#X connect 6 0 14 0;
#X connect 7 0 9 0;
#X connect 8 0 13 0;
#X connect 11 0 16 1;
#X connect 13 0 6 3;
#X connect 13 0 7 3;
#X connect 13 1 2 0;
#X connect 14 0 5 0;
#X connect 14 1 12 0;
#X connect 16 0 6 0;
#X coords 0 -1 1 1 202 78 2 0 0;
