#N canvas 0 22 229 298 12;
#X obj 15 44 inlet sig;
#X obj 15 136 list-lastx;
#X obj 130 134 i;
#X obj 63 164 list-splat;
#X obj 15 196 list-rev;
#X obj 98 74 t a a;
#X obj 98 44 inlet w;
#X text 101 220 x1;
#X text 21 220 x2;
#X obj 96 244 outlet x1;
#X obj 15 244 outlet x2;
#X obj 130 104 / 2;
#X text 19 17 windowed orthogonal diagonal;
#X connect 0 0 1 0;
#X connect 1 0 3 0;
#X connect 2 0 3 1;
#X connect 3 0 4 0;
#X connect 3 1 9 0;
#X connect 4 0 10 0;
#X connect 5 0 1 1;
#X connect 5 1 11 0;
#X connect 6 0 5 0;
#X connect 11 0 2 0;
