#N canvas 316 23 985 736 12;
#X declare -lib iemmatrix;
#X declare -lib list-abs;
#X declare -lib iemmatrix;
#X declare -lib list-abs;
#X declare -lib iemmatrix;
#X declare -lib list-abs;
#X declare -lib iemmatrix;
#X declare -lib list-abs;
#X declare -lib iemmatrix;
#X declare -lib list-abs;
#X declare -lib iemmatrix;
#X declare -lib list-abs;
#X declare -lib iemmatrix;
#X declare -lib iemmatrix;
#X declare -lib iemmatrix;
#X declare -lib iemmatrix;
#X declare -lib list-abs;
#X declare -lib iemmatrix;
#X declare -lib smlib;
#X declare -lib iemmatrix;
#X declare -stdpath extra/list-abs -stdpath extra/moocow -stdpath extra/zexy
;
#X declare -stdpath extra/mrpeach;
#X declare -stdpath extra/list-abs -stdpath extra/moocow -stdpath extra/zexy
;
#X declare -stdpath extra/mrpeach;
#X declare -stdpath extra/list-abs -stdpath extra/moocow -stdpath extra/zexy
;
#X declare -stdpath extra/mrpeach;
#X obj 216 212 bng 15 250 50 0 empty empty reset 17 7 0 10 -262144
-1 -1;
#N canvas 378 200 222 455 cursor_acc 0;
#X obj -46 168 pack f f f;
#X obj -47 204 unpack f f f;
#X obj -7 394 outlet;
#X obj -46 29 tgl 15 0 empty empty empty 17 7 0 10 -262144 -1 -1 0
1;
#X obj 30 59 cursor;
#X obj 30 89 route motion;
#X obj 30 119 route x y;
#X obj -46 -1 inlet;
#X obj -7 274 delta;
#X obj -7 304 abs;
#X obj 46 274 delta;
#X obj 46 304 abs;
#X obj 14 -1 inlet rate;
#X obj -46 59 metro 100;
#X obj -7 352 pack f f f;
#X msg 99 274 1;
#X obj 46 244 t a b;
#X connect 0 0 1 0;
#X connect 1 1 8 0;
#X connect 1 2 16 0;
#X connect 3 0 4 0;
#X connect 3 0 13 0;
#X connect 4 0 5 0;
#X connect 5 0 6 0;
#X connect 6 0 0 1;
#X connect 6 1 0 2;
#X connect 7 0 3 0;
#X connect 8 0 9 0;
#X connect 9 0 14 0;
#X connect 10 0 11 0;
#X connect 11 0 14 1;
#X connect 12 0 13 1;
#X connect 13 0 0 0;
#X connect 14 0 2 0;
#X connect 15 0 14 2;
#X connect 16 0 10 0;
#X connect 16 1 15 0;
#X restore 9 162 pd cursor_acc;
#X obj 9 112 tgl 15 0 empty empty empty 17 7 0 10 -262144 -1 -1 0 1
;
#X obj 268 -50 hradio 15 1 0 3 \$0-select_sf_snd \$0-select_sf_rcv
empty 0 -8 0 10 -262144 -1 -1 1;
#X floatatom 319 -54 4 0 0 0 - #0-hz_disp_rcv #0-hz_disp_snd;
#X text 351 -53 Hz;
#X floatatom 319 -8 4 0 0 0 - #0-ns_ws_rcv #0-ns_ws_snd;
#X text 302 -9 w;
#N canvas 120 109 1230 249 settings_selectors 0;
#X obj 116 92 select 0 1 2;
#X msg 117 143 10;
#X obj 116 62 r \$0-select_sf_snd;
#X msg 267 143 100;
#X obj 167 203 s \$0-hz_disp_rcv;
#X msg 167 143 4;
#X msg 217 143 10;
#X msg 67 143 100;
#X msg 17 143 250;
#X obj 17 203 s \$0-sample_T;
#X obj 329 203 s \$0-select_sf_rcv;
#X obj 479 203 s \$0-ns_ws_rcv;
#X obj 589 33 loadbang;
#X obj 699 73 bng 15 250 50 0 empty empty empty 17 7 0 10 -262144 -1
-1;
#X obj 699 13 inlet;
#X msg 659 123 1;
#X obj 699 202 s \$0-abs_tgl_rcv;
#X obj 457 33 r \$0-tglrun;
#X obj 377 92 s \$0-tglplay;
#X obj 479 93 select 1;
#X obj 447 63 t a a;
#X obj 559 123 s \$0-reset;
#X obj 255 92 s \$0-tglrun_rcv;
#X obj 255 32 key;
#X obj 255 62 select 32;
#X obj 589 203 s \$0-fsel_rcv;
#X obj 447 3 inlet tglrun;
#X obj 940 202 s \$0-pt_a_rcv;
#X msg 819 123 0.2;
#X obj 830 202 s \$0-dsel_rcv;
#X text 717 70 reset to defaults;
#X text 913 122 <--- defaults;
#X msg 739 123 3;
#X msg 779 123 0;
#X obj 1050 202 s \$0-method_sel_rcv;
#X msg 869 123 0;
#X msg 699 123 10;
#X connect 0 0 8 0;
#X connect 0 0 5 0;
#X connect 0 1 7 0;
#X connect 0 1 6 0;
#X connect 0 2 1 0;
#X connect 0 2 3 0;
#X connect 1 0 9 0;
#X connect 2 0 0 0;
#X connect 3 0 4 0;
#X connect 5 0 4 0;
#X connect 6 0 4 0;
#X connect 7 0 9 0;
#X connect 8 0 9 0;
#X connect 12 0 13 0;
#X connect 13 0 15 0;
#X connect 13 0 36 0;
#X connect 13 0 32 0;
#X connect 13 0 28 0;
#X connect 13 0 33 0;
#X connect 13 0 35 0;
#X connect 14 0 13 0;
#X connect 15 0 10 0;
#X connect 15 0 16 0;
#X connect 17 0 20 0;
#X connect 19 0 10 0;
#X connect 19 0 11 0;
#X connect 19 0 21 0;
#X connect 19 0 25 0;
#X connect 20 0 18 0;
#X connect 20 1 19 0;
#X connect 23 0 24 0;
#X connect 26 0 20 0;
#X connect 28 0 27 0;
#X connect 32 0 25 0;
#X connect 33 0 29 0;
#X connect 35 0 34 0;
#X connect 36 0 11 0;
#X restore 175 142 pd settings_selectors;
#X obj -1 242 segmentator_xyz;
#X obj 34 -78 openpanel;
#X obj 34 -98 bng 15 250 50 0 empty empty load 17 7 0 10 -262144 -1
-1;
#X obj 319 15 hradio 15 1 0 4 \$0-fsel_snd \$0-fsel_rcv empty 0 -8
0 10 -262144 -1 -1 3;
#X obj 97 2 r \$0-sample_T;
#X obj 319 -27 tgl 15 0 \$0-abs_tgl_snd \$0-abs_tgl_rcv empty 17 7
0 10 -262144 -66577 -1 1 1;
#X text 269 -30 module;
#X obj 494 -78 openpanel;
#X obj 494 -98 bng 15 250 50 0 empty empty load 17 7 0 10 -262144 -1
-1;
#X obj 459 -8 tgl 15 0 empty \$0-tglplay empty 17 7 0 10 -262144 -1
-1 0 1;
#X obj 476 12 tgl 15 0 empty empty empty 17 7 0 10 -262144 -1 -1 0
1;
#X obj 512 -4 r \$0-sample_T;
#X obj 459 302 miniplot;
#X obj 459 162 autoscale 0 1;
#X obj -1 -8 tgl 15 0 empty \$0-tglplay empty 17 7 0 10 -262144 -1
-1 0 1;
#X obj 16 12 tgl 15 0 empty empty empty 17 7 0 10 -262144 -1 -1 0 1
;
#X text -4 -122 KINETIC SIGNAL;
#N canvas 0 22 370 331 swicthes 0;
#X obj 20 29 r \$0-ns_ws_snd;
#X obj 80 89 t b a;
#X obj 0 -1 r \$0-abs_tgl_snd;
#X obj 20 59 t b a;
#X obj 31 300 outlet;
#X obj 80 59 r \$0-fsel_snd;
#X obj 140 119 t b a;
#X obj 140 89 r \$0-dsel_snd;
#X obj 170 189 t b a;
#X obj 170 159 r \$0-pt_a_snd;
#X obj 31 269 pack f f f f f f;
#X obj 220 219 t b a;
#X obj 220 189 r \$0-method_sel_snd;
#X connect 0 0 3 0;
#X connect 1 0 10 0;
#X connect 1 1 10 2;
#X connect 2 0 10 0;
#X connect 3 0 10 0;
#X connect 3 1 10 1;
#X connect 5 0 1 0;
#X connect 6 0 10 0;
#X connect 6 1 10 3;
#X connect 7 0 6 0;
#X connect 8 0 10 0;
#X connect 8 1 10 4;
#X connect 9 0 8 0;
#X connect 10 0 4 0;
#X connect 11 0 10 0;
#X connect 11 1 10 5;
#X connect 12 0 11 0;
#X restore 107 212 pd swicthes;
#X obj 677 92 bng 15 250 50 0 empty \$0-reset reset 17 7 0 10 -4032
-1 -1;
#N canvas 0 22 572 208 plot_xyz 0;
#X obj 234 -51 bng 15 250 50 0 empty empty reset 17 7 0 10 -262144
-1 -1;
#X obj 1 5 miniplot;
#X obj 1 35 miniplot;
#X obj 1 65 miniplot;
#X obj -266 -51 unpack f f f;
#X obj -185 -25 autoscale 0 1;
#X obj -185 5 autoscale 0 1;
#X obj -185 35 autoscale 0 1;
#X obj -266 -82 inlet;
#X obj 124 -82 inlet;
#X obj 4 -51 bng 15 250 50 0 empty empty reset 17 7 0 10 -262144 -1
-1;
#X connect 0 0 1 1;
#X connect 0 0 2 1;
#X connect 0 0 3 1;
#X connect 4 0 7 0;
#X connect 4 1 6 0;
#X connect 4 2 5 0;
#X connect 5 0 1 0;
#X connect 6 0 2 0;
#X connect 7 0 3 0;
#X connect 8 0 4 0;
#X connect 9 0 0 0;
#X connect 9 0 10 0;
#X connect 10 0 5 3;
#X connect 10 0 6 3;
#X connect 10 0 7 3;
#X coords 0 -1 1 1 202 96 2 0 0;
#X restore 458 370 pd plot_xyz;
#N canvas 0 22 572 208 plot_xyz 0;
#X obj 234 -51 bng 15 250 50 0 empty empty reset 17 7 0 10 -262144
-1 -1;
#X obj 1 5 miniplot;
#X obj 1 35 miniplot;
#X obj 1 65 miniplot;
#X obj -266 -51 unpack f f f;
#X obj -185 -25 autoscale 0 1;
#X obj -185 5 autoscale 0 1;
#X obj -185 35 autoscale 0 1;
#X obj -266 -82 inlet;
#X obj 124 -82 inlet;
#X obj 4 -51 bng 15 250 50 0 empty empty reset 17 7 0 10 -262144 -1
-1;
#X connect 0 0 1 1;
#X connect 0 0 2 1;
#X connect 0 0 3 1;
#X connect 4 0 7 0;
#X connect 4 1 6 0;
#X connect 4 2 5 0;
#X connect 5 0 1 0;
#X connect 6 0 2 0;
#X connect 7 0 3 0;
#X connect 8 0 4 0;
#X connect 9 0 0 0;
#X connect 9 0 10 0;
#X connect 10 0 5 3;
#X connect 10 0 6 3;
#X connect 10 0 7 3;
#X coords 0 -1 1 1 202 96 2 0 0;
#X restore 458 470 pd plot_xyz;
#X obj 677 312 bng 15 250 50 0 empty empty reset 17 7 0 10 -262144
-1 -1;
#X obj 677 413 bng 15 250 50 0 empty empty reset 17 7 0 10 -262144
-1 -1;
#X obj 677 511 bng 15 250 50 0 empty empty reset 17 7 0 10 -262144
-1 -1;
#X obj 52 59 bng 15 250 50 0 empty empty empty 17 7 0 10 -262144 -1
-1;
#X obj 512 62 bng 15 250 50 0 empty empty empty 17 7 0 10 -262144 -1
-1;
#X obj 9 -72 bng 15 250 50 0 empty \$0-reloadfile empty 17 7 0 10 -262144
-1 -1;
#X obj 804 -78 openpanel;
#X obj 804 -98 bng 15 250 50 0 empty empty load 17 7 0 10 -262144 -1
-1;
#X obj 769 -8 tgl 15 0 empty \$0-tglplay empty 17 7 0 10 -262144 -1
-1 0 1;
#X obj 786 12 tgl 15 0 empty empty empty 17 7 0 10 -262144 -1 -1 0
1;
#X obj 822 2 r \$0-sample_T;
#X obj 459 272 miniplot;
#X obj 769 162 autoscale 0 1;
#X obj 677 282 bng 15 250 50 0 empty empty reset 17 7 0 10 -262144
-1 -1;
#X obj 769 32 read_csv;
#X obj 822 62 bng 15 250 50 0 empty empty empty 17 7 0 10 -262144 -1
-1;
#X text 766 -122 GROUND-TRUTH selpeaksincurve;
#X text 456 -122 GROUND-TRUTH ncurve;
#X obj 729 274 vsl 15 25 0 1 0 0 empty \$0-gt_sp_sc empty 0 -9 0 10
-99865 -258113 -1 0 1;
#X floatatom 749 278 5 0 0 0 - #0-gt_sp_sc -;
#X obj 469 -72 bng 15 250 50 0 empty \$0-reloadfile empty 17 7 0 10
-262144 -1 -1;
#X obj 779 -72 bng 15 250 50 0 empty \$0-reloadfile empty 17 7 0 10
-262144 -1 -1;
#X text 254 278 GROUND-TRUTH selpeaksincurve;
#X text 317 308 GROUND-TRUTH ncurve;
#X text 443 411 y;
#X text 434 378 |;
#X text 434 370 |;
#X text 434 386 |;
#X text 434 394 |;
#X text 434 402 |;
#X text 434 417 |;
#X text 434 409 |;
#X text 434 425 |;
#X text 434 433 |;
#X text 434 441 |;
#X text 434 449 |;
#X text 431 405 _;
#X text 437 361 _;
#X text 437 449 _;
#X text 443 511 y;
#X text 434 478 |;
#X text 434 470 |;
#X text 434 486 |;
#X text 434 494 |;
#X text 434 502 |;
#X text 434 517 |;
#X text 434 509 |;
#X text 434 525 |;
#X text 434 533 |;
#X text 434 541 |;
#X text 434 549 |;
#X text 431 505 _;
#X text 437 460 _;
#X text 437 549 _;
#X text 443 381 z;
#X text 443 441 x;
#X text 443 481 z;
#X text 443 541 x;
#X obj 319 116 bng 15 250 50 0 empty empty defaults -60 7 0 12 -262144
-1 -1;
#N canvas 0 22 505 272 store_symbol 0;
#X obj 19 26 inlet;
#X msg 118 126 set \$1;
#X obj 86 96 t b a;
#X obj 19 56 route bang;
#X obj 19 206 symbol;
#X obj 19 236 outlet;
#X msg 19 156 /Users/juigmend/Documents/Pd/gesture_segmentation/data/5_11_2016_p2_t8_10Hz_w7_pt0.4_NRT_ncurve.csv
;
#X connect 0 0 3 0;
#X connect 1 0 6 0;
#X connect 2 0 6 0;
#X connect 2 1 1 0;
#X connect 3 0 6 0;
#X connect 3 1 2 0;
#X connect 4 0 5 0;
#X connect 6 0 4 0;
#X restore 494 -48 pd store_symbol;
#N canvas 405 356 532 271 store_symbol 0;
#X obj -1 26 inlet;
#X msg 98 126 set \$1;
#X obj 66 96 t b a;
#X obj -1 56 route bang;
#X obj -1 206 symbol;
#X obj -1 236 outlet;
#X msg -1 156 /Users/juigmend/Documents/Pd/gesture_segmentation/data/5_11_2016_p2_t8_QAC_10Hz.csv
;
#X connect 0 0 3 0;
#X connect 1 0 6 0;
#X connect 2 0 6 0;
#X connect 2 1 1 0;
#X connect 3 0 6 0;
#X connect 3 1 2 0;
#X connect 4 0 5 0;
#X connect 6 0 4 0;
#X restore 34 -48 pd store_symbol;
#N canvas 217 366 505 289 store_symbol 0;
#X obj 29 36 inlet;
#X msg 128 136 set \$1;
#X obj 96 106 t b a;
#X obj 29 66 route bang;
#X obj 29 216 symbol;
#X obj 29 246 outlet;
#X msg 29 166 /Users/juigmend/Documents/Pd/gesture_segmentation/data/5_11_2016_p2_t8_10Hz_w7_pt0.4_NRT_selpeaksincurve.csv
;
#X connect 0 0 3 0;
#X connect 1 0 6 0;
#X connect 2 0 6 0;
#X connect 2 1 1 0;
#X connect 3 0 6 0;
#X connect 3 1 2 0;
#X connect 4 0 5 0;
#X connect 6 0 4 0;
#X restore 804 -48 pd store_symbol;
#X obj 459 32 read_csv;
#X obj -1 32 read_csv;
#X obj 729 304 vsl 15 25 0 1 0 0 empty \$0-gt_nc_sc empty 0 -9 0 10
-99865 -261234 -1 0 1;
#X floatatom 749 308 5 0 0 0 - #0-gt_nc_sc -;
#X obj 769 192 route 0;
#X obj 9 82 s \$0-rawsig;
#X obj 229 340 r \$0-rawsig;
#X obj 319 -98 tgl 30 0 \$0-tglrun \$0-tglrun_rcv run 6 -8 0 10 -204786
-1 -1 0 1;
#X obj 283 -98 bng 30 250 50 0 \$0-reloadfile empty reload -3 -8 0
10 -262130 -1 -1;
#X obj 469 202 s \$0-gt_nc_sc;
#X obj 815 222 s \$0-gt_sp_sc;
#X obj 789 273 vsl 15 25 0 1 0 0 empty \$0-peaks empty 0 -9 0 10 -99865
-4034 -1 0 1;
#X floatatom 809 278 5 0 0 0 - #0-comp_pk_sc -;
#X obj 107 452 s \$0-novsig;
#X obj 459 335 miniplot;
#X obj 229 305 r \$0-novsig;
#X obj 624 219 bng 30 250 50 0 empty \$0-peaks empty 17 -8 0 10 -99865
-204786 -1;
#X obj 580 219 bng 30 250 50 0 empty \$0-gt_sp_sc empty 17 -8 0 10
-99865 -261234 -1;
#X text 621 248 computed;
#X text 527 248 ground-truth;
#X text 351 341 KINETIC ncurve;
#X text 350 409 KINETIC raw;
#X obj 729 337 vsl 15 25 0 1 0 0 empty \$0-novsig empty 0 -9 0 10 -99865
-204786 -1 0 1;
#X floatatom 749 341 5 0 0 0 - #0-novsig -;
#X text 270 14 filter;
#X obj 319 34 hradio 15 1 0 3 \$0-dsel_snd \$0-dsel_rcv empty 0 -8
0 10 -262144 -1 -1 0;
#X text 257 33 distance;
#X obj 677 342 bng 15 250 50 0 empty empty reset 17 7 0 10 -262144
-1 -1;
#X text 438 585 Juan Ignacio Mendoza Garay - 2018;
#X floatatom 319 53 3 0 0 0 - #0-pt_a_rcv #0-pt_a_snd;
#X text 249 53 threshold;
#X text -2 505 module ON;
#X text -2 525 window 40;
#X text -2 545 filter sum;
#X text -2 565 distance Euclidean;
#X text 316 509 KINETIC filtered;
#X text -2 485 BEST PARAMETERS SEEM TO BE:;
#X text -2 585 peak threshold 0.3;
#X obj 319 440 r \$0-filtsig;
#X obj 216 452 s \$0-filtsig;
#X obj -1 452 s \$0-peaks;
#X obj 319 76 vradio 15 1 0 2 \$0-method_sel_snd \$0-method_sel_rcv
empty 0 -8 0 10 -262144 -1 -1 0;
#X text 284 74 slow;
#X text 285 89 fast;
#X text 254 80 nov.;
#X connect 0 0 9 2;
#X connect 1 0 9 0;
#X connect 2 0 1 0;
#X connect 9 0 132 0;
#X connect 9 1 105 0;
#X connect 9 2 131 0;
#X connect 10 0 90 0;
#X connect 11 0 10 0;
#X connect 13 0 1 1;
#X connect 13 0 93 3;
#X connect 16 0 89 0;
#X connect 17 0 16 0;
#X connect 18 0 19 0;
#X connect 18 0 92 0;
#X connect 19 0 92 1;
#X connect 20 0 92 3;
#X connect 22 0 21 0;
#X connect 22 0 101 0;
#X connect 23 0 24 0;
#X connect 23 0 93 0;
#X connect 24 0 93 1;
#X connect 26 0 9 1;
#X connect 27 0 22 3;
#X connect 27 0 0 0;
#X connect 27 0 42 3;
#X connect 27 0 43 0;
#X connect 30 0 21 1;
#X connect 30 0 119 0;
#X connect 31 0 28 1;
#X connect 31 0 32 0;
#X connect 32 0 29 1;
#X connect 35 0 90 0;
#X connect 36 0 91 0;
#X connect 37 0 36 0;
#X connect 38 0 39 0;
#X connect 38 0 44 0;
#X connect 39 0 44 1;
#X connect 40 0 44 3;
#X connect 42 0 41 0;
#X connect 42 0 96 0;
#X connect 43 0 41 1;
#X connect 43 0 30 0;
#X connect 44 0 42 0;
#X connect 44 1 45 0;
#X connect 50 0 89 0;
#X connect 51 0 91 0;
#X connect 88 0 8 1;
#X connect 89 0 92 2;
#X connect 90 0 93 2;
#X connect 91 0 44 2;
#X connect 92 0 22 0;
#X connect 92 1 34 0;
#X connect 93 0 9 0;
#X connect 93 0 97 0;
#X connect 93 1 33 0;
#X connect 96 1 102 0;
#X connect 98 0 28 0;
#X connect 107 0 106 0;
#X connect 119 0 106 1;
#X connect 119 0 31 0;
#X connect 130 0 29 0;
#X coords 0 0 1 1 85 60 0;
