#N canvas 29 570 409 252 12;
#X declare -lib iemmatrix;
#X declare -lib list-abs;
#X declare -lib iemmatrix;
#X declare -lib list-abs;
#N canvas 782 404 432 493 integration 1;
#X obj -3 330 gauss_filter;
#X obj -3 389 outlet int;
#X obj 347 389 outlet raw;
#X obj 65 -46 inlet raw;
#X obj 65 164 t a a;
#X obj 266 -46 inlet abs w method;
#X obj 266 -17 unpack f f f;
#X obj 65 134 abs;
#X obj 26 104 gate 2;
#X obj 85 13 select 1 0;
#X msg 85 53 2;
#X msg 118 53 1;
#X obj 108 330 average;
#N canvas 700 188 205 168 winsum 0;
#X obj 19 13 inlet;
#X obj 19 123 outlet;
#X obj 19 53 last_n;
#X obj 76 13 inlet size;
#X obj 19 83 sum;
#X connect 0 0 2 0;
#X connect 2 0 4 0;
#X connect 3 0 2 1;
#X connect 4 0 1 0;
#X restore 176 330 pd winsum;
#X obj 347 240 gate 4;
#X obj 347 13 + 1;
#X connect 0 0 1 0;
#X connect 3 0 8 1;
#X connect 4 0 14 1;
#X connect 4 1 2 0;
#X connect 5 0 6 0;
#X connect 6 0 9 0;
#X connect 6 1 0 1;
#X connect 6 1 12 1;
#X connect 6 1 13 1;
#X connect 6 2 15 0;
#X connect 7 0 4 0;
#X connect 8 0 4 0;
#X connect 8 1 7 0;
#X connect 9 0 10 0;
#X connect 9 1 11 0;
#X connect 10 0 8 0;
#X connect 11 0 8 0;
#X connect 12 0 1 0;
#X connect 13 0 1 0;
#X connect 14 0 2 0;
#X connect 14 1 0 0;
#X connect 14 2 12 0;
#X connect 14 3 13 0;
#X connect 15 0 14 0;
#X restore -141 -104 pd integration;
#X obj -141 -134 inlet sig;
#X obj 189 -134 loadbang;
#X obj 214 -23 bang;
#X text -30 -1 raw;
#X text -75 53 integrated;
#X obj 4 31 hsl 195 15 0 1 0 0 empty empty empty -2 -8 0 10 -99865
-36695 -1 681 1;
#X obj -141 -74 autoscale 0 1;
#X obj 1 -72 autoscale 0 1;
#X obj 89 -134 inlet reset;
#X obj 1 1 miniplot;
#X obj 1 47 miniplot;
#X text -9 86 Juan Ignacio Mendoza G. - 2017;
#X obj -46 -134 inlet abs w method;
#X obj -109 86 outlet;
#X obj 89 -104 t b b;
#X obj -141 -44 t a a;
#X connect 0 0 7 0;
#X connect 0 1 8 0;
#X connect 1 0 0 0;
#X connect 2 0 15 0;
#X connect 3 0 10 1;
#X connect 3 0 11 1;
#X connect 6 0 11 0;
#X connect 7 0 16 0;
#X connect 8 0 10 0;
#X connect 9 0 15 0;
#X connect 13 0 0 1;
#X connect 15 0 7 3;
#X connect 15 0 8 3;
#X connect 15 1 3 0;
#X connect 16 0 6 0;
#X connect 16 1 14 0;
#X coords 0 -1 1 1 202 78 2 0 0;
