#N canvas 288 36 578 700 16;
#X obj 147 -354 until;
#X obj 172 -261 + 1;
#X obj 82 -261 float;
#X obj 15 -261 t b b;
#X obj 172 -211 - 1;
#X obj 15 -150 float;
#X obj 276 -140 loadbang;
#X msg 339 -404 0;
#X msg 276 -110 100;
#X obj 19 -535 outlet thru;
#X obj -1 -496 t f b b;
#X obj 57 -404 arraysize \$0-simpleplot;
#X obj 225 -209 tabread \$0-simpleplot;
#X obj 15 -109 tabwrite \$0-simpleplot;
#X obj -1 -58 tabwrite \$0-simpleplot;
#X obj -1 -575 inlet y;
#X obj 288 -575 inlet reset;
#X obj 288 -495 s \$0-simpleplot;
#X msg 288 -535 const 0;
#X text 54 79 Juan Ignacio Mendoza Garay - 2016;
#N canvas 250 267 450 300 (subpatch) 0;
#X array \$0-simpleplot 100 float 5;
#A 0 0 0 0 0 0 0 0 0 0 0 0 0 0 0 0 0 0 0 0 0 0 0 0 0 0 0 0 0 0 0 0
0 0 0 0 0 0 0 0 0 0 0 0 0 0 0 0 0 0 0 0 0 0 0 0 0 0 0 0 0 0 0 0 0 0
0 0 0 0 0 0 0 0 0 0 0 0 0 0 0 0 0 0 0 0 0 0 0 0 0 0 0 0 0 0 0 0 0 0
0;
#X coords 0 100 99 0 562 70 1;
#X restore 0 1 graph;
#X connect 0 0 3 0;
#X connect 1 0 2 1;
#X connect 1 0 4 0;
#X connect 1 0 12 0;
#X connect 2 0 1 0;
#X connect 3 0 5 0;
#X connect 3 1 2 0;
#X connect 4 0 13 1;
#X connect 5 0 13 0;
#X connect 6 0 8 0;
#X connect 7 0 2 0;
#X connect 8 0 14 1;
#X connect 10 0 14 0;
#X connect 10 1 11 0;
#X connect 10 2 7 0;
#X connect 11 0 0 0;
#X connect 12 0 5 0;
#X connect 15 0 9 0;
#X connect 15 0 10 0;
#X connect 16 0 18 0;
#X connect 18 0 17 0;
#X coords 0 -1 1 1 562 70 2 0 0;
