#N canvas 0 22 510 647 16;
#X declare -lib iemmatrix;
#X declare -lib iemmatrix;
#X declare -lib iemmatrix;
#X declare -lib iemmatrix;
#X declare -lib list-abs;
#X declare -lib iemmatrix;
#X declare -lib smlib;
#X text 78 602 Juan Ignacio Mendoza Garay - 2016;
#X obj 236 562 outlet d;
#X obj 16 562 outlet N;
#X obj 390 562 outlet K;
#X text 32 96 N = Novelty Score (scalar);
#X text 32 116 d = distance (matrix);
#X obj 58 170 inlet s;
#X obj 288 160 inlet w;
#X text 32 26 s = control-rate signal;
#X text 32 11 INPUT:;
#X text 32 80 OUTPUT:;
#X text 32 46 w = window size (an even number);
#X text 32 136 K = kernel (matrix);
#X obj 16 294 mtx_distance2;
#N canvas 275 426 579 425 convo_1 0;
#X obj 166 95 mtx_conv;
#X obj 13 15 inlet distance matrix;
#X obj 243 15 inlet kernel matrix;
#X obj 224 225 outlet;
#X obj 166 125 mtx_diag;
#X obj 166 155 list split 7;
#X obj 224 185 unpack f;
#X obj 283 65 route matrix;
#X obj 283 95 unpack f;
#X obj 283 125 - 1;
#X connect 0 0 4 0;
#X connect 1 0 0 0;
#X connect 2 0 0 1;
#X connect 2 0 7 0;
#X connect 4 0 5 0;
#X connect 5 1 6 0;
#X connect 6 0 3 0;
#X connect 7 0 8 0;
#X connect 8 0 9 0;
#X connect 9 0 5 1;
#X restore 16 442 pd convo_1;
#X obj 58 254 t a a;
#N canvas 119 527 453 231 convo_2 0;
#X obj 13 15 inlet distance matrix;
#X obj 243 15 inlet kernel matrix;
#X obj 186 165 outlet;
#X obj 186 65 mtx_.*;
#X obj 186 95 mtx_sum;
#X text 279 92 convolve;
#X obj 186 125 mtx_sum;
#X text 267 49 -;
#X text 270 57 |;
#X text 270 70 |;
#X text 270 83 |;
#X text 270 96 |;
#X text 270 109 |;
#X text 270 132 |;
#X text 267 137 -;
#X text 270 121 |;
#X connect 0 0 3 0;
#X connect 1 0 3 1;
#X connect 3 0 4 0;
#X connect 4 0 6 0;
#X connect 6 0 2 0;
#X restore 370 442 pd convo_2;
#X text 367 486 Alternative;
#X text 367 506 convolution;
#X text 387 526 method;
#X text 416 471 |;
#X text 361 459 ____________;
#X text 357 459 |;
#X text 475 459 |;
#X text 361 409 ____________;
#X text 475 446 |;
#X text 357 421 |;
#X text 475 421 |;
#X text 475 433 |;
#X text 357 446 |;
#X text 357 433 |;
#X obj 320 14 import iemmatrix;
#X obj 170 294 gaussian_checkerboard_kernel;
#X obj 58 214 square_window;
#X connect 6 0 33 0;
#X connect 7 0 32 0;
#X connect 7 0 33 1;
#X connect 13 0 14 0;
#X connect 13 0 1 0;
#X connect 14 0 2 0;
#X connect 15 0 13 0;
#X connect 15 1 13 1;
#X connect 32 0 14 1;
#X connect 32 0 3 0;
#X connect 33 0 15 0;
