#N canvas 202 95 517 238 12;
#X obj 44 9 inlet;
#X obj 76 202 outlet;
#X obj 396 9 inlet;
#X msg 76 69 set \$1;
#X obj 76 99 symbol;
#X msg 76 138;
#X obj 44 39 t b a;
#X obj 4 69 delay 500;
#X connect 0 0 6 0;
#X connect 2 0 5 0;
#X connect 3 0 4 0;
#X connect 4 0 5 0;
#X connect 5 0 1 0;
#X connect 6 0 7 0;
#X connect 6 1 3 0;
#X connect 7 0 5 0;
#X coords 0 0 1 1 85 60 0;
