#N canvas 566 532 315 314 12;
#X obj -5 24 inlet sig;
#X obj -5 126 list-lastx;
#X obj 110 94 / 2;
#X obj 110 124 i;
#X obj 43 154 list-splat;
#X obj -5 244 vabs;
#X obj -5 216 list-emath -;
#X obj -5 186 list-rev;
#X text 89 217 orthogonal difference;
#X obj 78 54 t a a;
#X obj -5 274 outlet;
#X obj 78 24 inlet w;
#X text -1 -3 windowed absolute orthogonal difference;
#X connect 0 0 1 0;
#X connect 1 0 4 0;
#X connect 2 0 3 0;
#X connect 3 0 4 1;
#X connect 4 0 7 0;
#X connect 4 1 6 1;
#X connect 5 0 10 0;
#X connect 6 0 5 0;
#X connect 7 0 6 0;
#X connect 9 0 1 1;
#X connect 9 1 2 0;
#X connect 11 0 9 0;
