#N canvas 341 182 262 191 12;
#X text -19 119 Juan Ignacio Mendoza G. - 2018;
#X obj -21 -17 inlet;
#X obj -21 93 outlet;
#X obj -21 23 last_n;
#X obj 36 -17 inlet size;
#X obj -21 53 sum;
#X connect 1 0 3 0;
#X connect 3 0 5 0;
#X connect 4 0 3 1;
#X connect 5 0 2 0;
#X coords 0 0 1 1 202 78 0;
