#N canvas 0 0 650 574 10;
#X obj 211 301 vline~;
#X obj 165 434 *~;
#X obj 165 409 cos~;
#X obj 164 385 *~;
#X obj 164 362 *~;
#X obj 181 218 t f f;
#X obj 165 338 *~;
#X msg 211 279 1 0 0 \, 0 \$1 0;
#X msg 181 194 70;
#X obj 181 244 / 29;
#X obj 164 461 outlet~;
#X obj 220 508 switch~;
#X obj 220 460 env~;
#X obj 220 484 > 0.1;
#X msg 360 197 1;
#X obj 215 142 t b b b;
#X obj 233 26 inlet;
#X text 284 445 efficient kick drum;
#X text 321 467 ajf;
#X text 300 425 TWEAKED by Juan;
#X msg 237 196 39;
#X connect 0 0 1 1;
#X connect 0 0 6 0;
#X connect 0 0 3 1;
#X connect 1 0 10 0;
#X connect 1 0 12 0;
#X connect 2 0 1 0;
#X connect 3 0 2 0;
#X connect 4 0 3 0;
#X connect 5 0 9 0;
#X connect 5 1 7 0;
#X connect 6 0 4 1;
#X connect 6 0 4 0;
#X connect 7 0 0 0;
#X connect 8 0 5 0;
#X connect 9 0 6 1;
#X connect 12 0 13 0;
#X connect 13 0 11 0;
#X connect 14 0 11 0;
#X connect 15 0 8 0;
#X connect 15 1 20 0;
#X connect 15 2 14 0;
#X connect 16 0 15 0;
#X connect 20 0 9 1;
