#N canvas 14 46 494 590 10;
#N canvas 342 87 308 516 hhnoise 1;
#X obj 74 454 outlet~;
#X obj 90 199 *~;
#X obj 74 367 +~;
#X obj 75 428 osc~;
#X obj 91 314 *~;
#X obj 91 91 unpack f f f f f;
#X obj 73 338 sig~;
#X obj 91 138 osc~;
#X obj 105 162 osc~;
#N canvas 371 256 450 300 programmer 0;
#X msg 69 223 748.031 1023.62 0.173228 2559.06 10771.7;
#X obj 214 93 hsl 128 15 0 5000 0 0 empty empty modf1 32 7 1 8 -262144
-1 -1 1900 1;
#X obj 106 177 pack f f f f f;
#X obj 106 154 t b;
#X msg 106 199 set \$1 \$2 \$3 \$4 \$5;
#X obj 214 108 hsl 128 15 0 5000 0 0 empty empty modf2 32 7 1 8 -262144
-1 -1 2600 1;
#X obj 214 123 hsl 128 15 0 1 0 0 empty empty env 32 7 1 8 -262144
-1 -1 2200 1;
#X obj 214 138 hsl 128 15 0 5000 0 0 empty empty fm_amount 32 7 1 8
-262144 -1 -1 6500 1;
#X obj 214 153 hsl 128 15 0 12000 0 0 empty empty base_freq 32 7 1
8 -262144 -1 -1 11400 1;
#X obj 65 180 del 2;
#X obj 46 254 outlet;
#X obj 46 2 loadbang;
#X obj 66 57 unpack f f f f f;
#X msg 46 30 748.031 1023.62 0.173228 2559.06 10771.7;
#X connect 0 0 10 0;
#X connect 1 0 2 0;
#X connect 1 0 3 0;
#X connect 2 0 4 0;
#X connect 3 0 2 0;
#X connect 3 0 9 0;
#X connect 4 0 0 0;
#X connect 5 0 2 1;
#X connect 5 0 3 0;
#X connect 6 0 2 2;
#X connect 6 0 3 0;
#X connect 7 0 2 3;
#X connect 7 0 3 0;
#X connect 8 0 2 4;
#X connect 8 0 3 0;
#X connect 9 0 0 0;
#X connect 11 0 13 0;
#X connect 12 0 1 0;
#X connect 12 1 5 0;
#X connect 12 2 6 0;
#X connect 12 3 7 0;
#X connect 12 4 8 0;
#X connect 13 0 10 0;
#X connect 13 0 12 0;
#X restore 91 65 pd programmer;
#X obj 49 199 +~;
#N canvas 0 0 450 300 xf 0;
#X obj 107 37 inlet~;
#X obj 158 37 inlet~;
#X obj 123 135 *~;
#X obj 152 134 *~;
#X obj 134 178 outlet~;
#X obj 171 87 sig~ 1;
#X obj 169 108 -~;
#X obj 227 37 inlet~ xfade;
#X connect 0 0 2 0;
#X connect 1 0 3 0;
#X connect 2 0 4 0;
#X connect 3 0 4 0;
#X connect 5 0 6 0;
#X connect 6 0 3 1;
#X connect 7 0 6 1;
#X connect 7 0 2 1;
#X restore 47 238 pd xf;
#X text 159 190 2 ringmod;
#X obj 119 199 *~;
#X obj 118 21 inlet~ spectrum env;
#X obj 20 479 s~ \$0-fb;
#X obj 104 370 r~ \$0-fb;
#X obj 75 404 +~;
#X text 115 428 fbfm;
#X obj 21 453 *~ 900;
#X connect 1 0 11 1;
#X connect 2 0 17 0;
#X connect 3 0 0 0;
#X connect 3 0 19 0;
#X connect 4 0 2 1;
#X connect 5 0 7 0;
#X connect 5 1 8 0;
#X connect 5 2 13 1;
#X connect 5 3 4 1;
#X connect 5 4 6 0;
#X connect 6 0 2 0;
#X connect 7 0 1 0;
#X connect 7 0 10 0;
#X connect 8 0 1 1;
#X connect 8 0 10 1;
#X connect 9 0 5 0;
#X connect 10 0 11 0;
#X connect 11 0 4 0;
#X connect 13 0 11 2;
#X connect 14 0 13 0;
#X connect 16 0 17 1;
#X connect 17 0 3 0;
#X connect 19 0 15 0;
#X restore 75 395 pd hhnoise;
#X obj 147 349 vline~;
#X obj 148 395 *~;
#X obj 131 513 switch~;
#X obj 131 461 env~;
#X msg 172 486 1;
#X obj 147 164 t b b;
#X obj 131 486 > 0.1;
#X obj 72 485 outlet~;
#X obj 147 270 pack f f;
#X obj 147 219 t f f;
#X obj 302 113 inlet decay;
#X obj 196 247 *;
#X text 202 429 fm hi hat;
#X text 96 505 ajf;
#X obj 396 88 loadbang;
#X msg 396 113 0.1;
#X text 224 404 TWEAKED by Juan;
#X obj 147 97 inlet ride;
#X obj 131 434 *~;
#X obj 263 171 * 5000;
#X msg 147 313 \$1 4 0 \, 0 \$2 0.6;
#X msg 147 193 1.6;
#X connect 0 0 19 0;
#X connect 1 0 2 0;
#X connect 1 0 2 1;
#X connect 1 0 0 0;
#X connect 2 0 19 1;
#X connect 4 0 7 0;
#X connect 5 0 3 0;
#X connect 6 0 22 0;
#X connect 6 1 5 0;
#X connect 7 0 3 0;
#X connect 9 0 21 0;
#X connect 10 0 9 0;
#X connect 10 1 12 0;
#X connect 11 0 20 0;
#X connect 12 0 9 1;
#X connect 15 0 16 0;
#X connect 16 0 20 0;
#X connect 18 0 6 0;
#X connect 19 0 8 0;
#X connect 19 0 4 0;
#X connect 20 0 12 1;
#X connect 21 0 1 0;
#X connect 22 0 10 0;
