#N canvas 0 22 389 383 12;
#X obj 224 27 inlet control;
#X obj 54 27 inlet signal;
#X obj 224 277 spigot;
#X obj 54 277 spigot;
#X obj 234 57 loadbang;
#X msg 234 87 1;
#X obj 224 127 select 1 2;
#X msg 93 227 1;
#X msg 143 227 0;
#X msg 303 227 0;
#X msg 343 227 1;
#X obj 54 317 outlet signal_1;
#X obj 224 317 outlet signal_2;
#X connect 0 0 6 0;
#X connect 1 0 2 0;
#X connect 1 0 3 0;
#X connect 2 0 12 0;
#X connect 3 0 11 0;
#X connect 4 0 5 0;
#X connect 5 0 6 0;
#X connect 6 0 7 0;
#X connect 6 0 9 0;
#X connect 6 1 10 0;
#X connect 6 1 8 0;
#X connect 7 0 3 1;
#X connect 8 0 3 1;
#X connect 9 0 2 1;
#X connect 10 0 2 1;
