#N canvas 140 22 665 445 10;
#X obj 101 382 *~;
#X obj 403 346 i;
#X obj 411 266 delay 250;
#X obj 361 236 t b b;
#X msg 318 296 0;
#X floatatom 487 236 5 0 0 0 - - -;
#X obj 577 236 f;
#X obj 577 196 t b f;
#X obj 487 286 expr ($f1*$f2);
#X obj 355 376 vline~;
#X msg 361 296 1;
#X obj 319 346 pack 0 0.2;
#X obj 361 213 delay;
#X obj 388 187 *;
#X obj 326 167 bng 15 250 50 0 empty empty empty 17 7 0 10 -262144
-1 -1;
#X obj 170 126 t b b b;
#X obj 11 27 inlet on/off;
#X obj 101 27 r~ str-in;
#X floatatom 253 209 5 0 0 0 - - -;
#X obj 281 27 r rate-in;
#X obj 384 27 r rndm-in;
#X obj 487 26 r sust-in;
#X obj 577 26 r shrp-in;
#X obj 191 27 r bang-in;
#X obj 101 412 throw~ str-out-2;
#X obj 170 77 spigot;
#X obj 388 127 randomF;
#X connect 0 0 24 0;
#X connect 1 0 9 1;
#X connect 2 0 4 0;
#X connect 3 0 10 0;
#X connect 3 0 2 0;
#X connect 3 1 1 0;
#X connect 4 0 11 0;
#X connect 5 0 8 0;
#X connect 6 0 8 1;
#X connect 7 0 6 0;
#X connect 7 0 5 0;
#X connect 7 1 6 1;
#X connect 8 0 1 1;
#X connect 9 0 0 1;
#X connect 10 0 11 0;
#X connect 11 0 9 0;
#X connect 12 0 3 0;
#X connect 13 0 12 1;
#X connect 14 0 13 0;
#X connect 15 0 14 0;
#X connect 15 1 26 0;
#X connect 16 0 0 1;
#X connect 16 0 25 1;
#X connect 17 0 0 0;
#X connect 19 0 13 1;
#X connect 19 0 18 0;
#X connect 20 0 14 0;
#X connect 20 0 26 1;
#X connect 21 0 2 1;
#X connect 21 0 5 0;
#X connect 22 0 7 0;
#X connect 23 0 25 0;
#X connect 25 0 15 0;
#X connect 25 0 12 0;
#X connect 26 0 13 0;
