#N canvas 264 313 814 259 10;
#X declare -lib iemlib;
#X declare -lib iemgui -lib vbap -lib iemlib -lib iemmatrix;
#X declare -lib iemgui -lib vbap -lib iemlib -lib iemmatrix;
#N canvas 9 438 979 550 octophon-circle-out 0;
#X obj 11 101 cnv 15 190 178 empty empty Master 11 12 0 14 -191407
-13330 0;
#X obj 119 -48 *~;
#X obj 199 -48 *~;
#X obj 9 -132 line~;
#X msg 9 -162 \$1 50;
#X obj 9 -192 dbtorms;
#X obj 279 -48 *~;
#X obj 359 -48 *~;
#X obj 439 -48 *~;
#X obj 519 -48 *~;
#X obj 599 -48 *~;
#X obj 679 -48 *~;
#X obj 9 -222 r \$0-masterlevel;
#X obj 20 130 vsl 15 120 0 127 0 0 \$0-masterlevel \$0-nononorcv empty
0 -9 0 10 -228856 -1 -1 10200 1;
#X obj 43 130 vu 8 120 empty empty -1 -8 0 10 -1 -1 0 0;
#X obj 42 42 env~;
#X obj 42 73 - 100;
#X obj 63 130 vu 8 120 empty empty -1 -8 0 10 -1 -1 0 0;
#X obj 82 42 env~;
#X obj 82 73 - 100;
#X obj 83 130 vu 8 120 empty empty -1 -8 0 10 -1 -1 0 0;
#X obj 122 42 env~;
#X obj 122 73 - 100;
#X obj 103 130 vu 8 120 empty empty -1 -8 0 10 -1 -1 0 0;
#X obj 162 42 env~;
#X obj 162 73 - 100;
#X obj 123 130 vu 8 120 empty empty -1 -8 0 10 -1 -1 0 0;
#X obj 202 42 env~;
#X obj 202 73 - 100;
#X obj 143 130 vu 8 120 empty empty -1 -8 0 10 -1 -1 0 0;
#X obj 242 42 env~;
#X obj 242 73 - 100;
#X obj 163 130 vu 8 120 empty empty -1 -8 0 10 -1 -1 0 0;
#X obj 282 42 env~;
#X obj 282 73 - 100;
#X obj 183 130 vu 8 120 empty empty -1 -8 0 10 -1 -1 0 0;
#X obj 322 42 env~;
#X obj 322 73 - 100;
#X obj 119 -222 catch~ Ch_1;
#X obj 199 -222 catch~ Ch_2;
#X obj 279 -222 catch~ Ch_3;
#X obj 359 -222 catch~ Ch_4;
#X obj 439 -222 catch~ Ch_5;
#X obj 519 -222 catch~ Ch_6;
#X obj 599 -222 catch~ Ch_7;
#X obj 679 -222 catch~ Ch_8;
#X obj 622 72 dac~ 1 2 5 6 7 8 3 4;
#X connect 1 0 15 0;
#X connect 1 0 46 0;
#X connect 2 0 18 0;
#X connect 2 0 46 1;
#X connect 3 0 1 1;
#X connect 3 0 2 1;
#X connect 3 0 6 1;
#X connect 3 0 7 1;
#X connect 3 0 8 1;
#X connect 3 0 9 1;
#X connect 3 0 10 1;
#X connect 3 0 11 1;
#X connect 4 0 3 0;
#X connect 5 0 4 0;
#X connect 6 0 21 0;
#X connect 6 0 46 2;
#X connect 7 0 24 0;
#X connect 7 0 46 3;
#X connect 8 0 27 0;
#X connect 8 0 46 4;
#X connect 9 0 30 0;
#X connect 9 0 46 5;
#X connect 10 0 33 0;
#X connect 10 0 46 6;
#X connect 11 0 36 0;
#X connect 11 0 46 7;
#X connect 12 0 5 0;
#X connect 15 0 16 0;
#X connect 16 0 14 0;
#X connect 18 0 19 0;
#X connect 19 0 17 0;
#X connect 21 0 22 0;
#X connect 22 0 20 0;
#X connect 24 0 25 0;
#X connect 25 0 23 0;
#X connect 27 0 28 0;
#X connect 28 0 26 0;
#X connect 30 0 31 0;
#X connect 31 0 29 0;
#X connect 33 0 34 0;
#X connect 34 0 32 0;
#X connect 36 0 37 0;
#X connect 37 0 35 0;
#X connect 38 0 1 0;
#X connect 39 0 2 0;
#X connect 40 0 6 0;
#X connect 41 0 7 0;
#X connect 42 0 8 0;
#X connect 43 0 9 0;
#X connect 44 0 10 0;
#X connect 45 0 11 0;
#X coords 0 -1 1 1 192 180 2 10 100;
#X restore 408 11 pd octophon-circle-out;
#X obj 720 75 bng 15 1000 50 0 empty empty empty 17 7 0 10 -234058
-261234 -1;
#X text 739 73 reset;
#N canvas 452 351 328 146 testsignal 0;
#X obj 11 21 cnv 15 93 38 empty empty TEST 20 8 0 10 -204800 -33289
0;
#X obj 200 119 outlet~ signal;
#X obj 18 39 tgl 13 0 empty empty empty 16 7 0 10 -204786 -1 -1 0 1
;
#X obj 49 39 bng 13 250 50 0 empty empty empty 16 7 0 10 -204786 -1
-1;
#N canvas 0 22 450 300 vol 0;
#X obj 104 142 dbtorms;
#X msg 104 164 \$1 50;
#X obj 104 187 line~;
#X obj 88 225 *~;
#X obj 86 53 inlet~ sig;
#X obj 330 52 inlet io;
#X obj 204 53 inlet vol;
#X obj 204 87 f;
#X obj 204 115 spigot 0;
#X obj 330 87 sel 0;
#X obj 360 115 t b b;
#X msg 239 88 1;
#X msg 271 88 0;
#X obj 330 149 t b b;
#X obj 88 267 outlet~;
#X msg 175 149 0;
#X connect 0 0 1 0;
#X connect 1 0 2 0;
#X connect 2 0 3 1;
#X connect 3 0 14 0;
#X connect 4 0 3 0;
#X connect 5 0 9 0;
#X connect 6 0 7 0;
#X connect 7 0 8 0;
#X connect 8 0 0 0;
#X connect 9 0 13 0;
#X connect 9 1 10 0;
#X connect 10 0 7 0;
#X connect 10 1 11 0;
#X connect 11 0 8 1;
#X connect 12 0 8 1;
#X connect 13 0 15 0;
#X connect 13 1 12 0;
#X connect 15 0 0 0;
#X restore 200 78 pd vol;
#N canvas 611 25 308 111 \$0-select-signal 0;
#N canvas 396 33 293 249 engine 0;
#X obj 83 32 tgl 15 1 \$0-pink empty empty 17 7 0 10 -261234 -1 -1
0 1;
#X obj 83 62 tgl 15 0 \$0-sine empty empty 17 7 0 10 -204786 -1 -1
0 1;
#X obj 124 62 hsl 100 15 20 20000 1 0 \$0-freq empty empty -2 -8 0
10 -204786 -262144 -1 0 1;
#X floatatom 229 63 6 0 0 1 Hz #0-freq -;
#X text 111 6 Test Signal;
#X text 9 31 pink noise;
#X text 16 61 sine wave;
#X obj 78 99 pink~;
#X obj 93 129 r \$0-pink;
#X obj 78 159 *~;
#X obj 158 186 *~;
#X obj 158 129 osc~ 440;
#X obj 158 99 r \$0-freq;
#X obj 173 159 r \$0-sine;
#X obj 123 223 outlet~;
#X connect 7 0 9 0;
#X connect 8 0 9 1;
#X connect 9 0 14 0;
#X connect 10 0 14 0;
#X connect 11 0 10 0;
#X connect 12 0 11 0;
#X connect 13 0 10 1;
#X coords 0 -1 1 1 286 84 2 2 2;
#X restore 6 8 pd engine;
#X obj 6 92 outlet~;
#X restore 200 39 pd \$0-select-signal;
#X obj 9 69 f \$0;
#X msg 9 104 \; pd-\$1-select-signal vis 1;
#X obj 73 33 knob 20 20 0 127 0 0 empty nononorcv empty 0 -8 64 8 -260097
-260097 -1 0 1;
#X obj 200 9 import iemlib;
#X connect 2 0 4 2;
#X connect 3 0 6 0;
#X connect 4 0 1 0;
#X connect 5 0 4 0;
#X connect 6 0 7 0;
#X connect 8 0 4 1;
#X coords 0 -1 1 1 95 40 2 10 20;
#X restore 610 75 pd testsignal;
#N canvas 358 1110 378 139 VBAP_setup 0;
#X obj 89 6 loadbang;
#X obj 9 36 bng 15 250 50 0 empty empty empty 17 7 0 10 -262144 -1
-1;
#X obj 9 106 s $VBAP_speaker_setup;
#X obj 9 6 inlet reset;
#X msg 9 73 define_loudspeakers 2 -45 45 -135 135;
#X connect 0 0 1 0;
#X connect 1 0 4 0;
#X connect 3 0 1 0;
#X connect 4 0 2 0;
#X restore 720 98 pd VBAP_setup;
#X text 622 174 Juan Ignacio Mendoza - 2013;
#N canvas 268 518 456 499 engine_VBAP_8_N 0;
#N canvas 224 647 683 395 parameter_processing 0;
#X obj 320 151 * -1;
#X text 359 150 to be consistent with vbap;
#X text 337 170 azimuth;
#X text 117 152 elevation;
#X obj 17 13 inlet spread;
#X obj 17 43 t b a;
#X obj 102 353 outlet trigger;
#X obj 238 351 outlet azimuth;
#X obj 362 349 outlet elevation;
#X obj 490 349 outlet spread;
#X obj 227 229 r \$0-itime;
#X obj 597 44 r \$0-itime;
#X obj 401 227 r \$0-itime;
#X obj 148 251 iemlib/speedlim 200;
#X obj 320 249 iemlib/speedlim 200;
#X obj 486 74 iemlib/speedlim 200;
#X obj 102 74 t b a;
#X obj 154 128 unpack 0 f f;
#X obj 102 14 inlet from GUI-1;
#X obj 222 44 route src_dp;
#X obj 222 14 r \$0-to-GUI-N;
#X connect 0 0 14 0;
#X connect 4 0 5 0;
#X connect 5 0 6 0;
#X connect 5 1 15 0;
#X connect 10 0 13 1;
#X connect 11 0 15 1;
#X connect 12 0 14 1;
#X connect 13 0 8 0;
#X connect 14 0 7 0;
#X connect 15 0 9 0;
#X connect 16 0 6 0;
#X connect 16 1 17 0;
#X connect 17 1 13 0;
#X connect 17 2 0 0;
#X connect 18 0 16 0;
#X connect 19 0 16 0;
#X connect 20 0 19 0;
#X restore 147 225 pd parameter_processing;
#N canvas 516 342 227 182 make_matrix 0;
#X obj -10 3 inlet;
#X obj 98 63 t b f;
#X obj -28 153 outlet;
#X obj -10 33 route 0 1 2 3;
#X obj -28 93 pack 1 0 0 0 0;
#X msg -28 123 matrix 4 \$1 \$2 \$3 \$4 \$5;
#X connect 0 0 3 0;
#X connect 1 0 4 0;
#X connect 1 1 4 4;
#X connect 3 0 4 1;
#X connect 3 1 4 2;
#X connect 3 2 4 3;
#X connect 3 3 1 0;
#X connect 4 0 5 0;
#X connect 5 0 2 0;
#X restore 147 295 pd make_matrix;
#X obj 147 268 vbap 0 0;
#N canvas 296 102 318 175 startup 0;
#X obj -34 17 f \$1;
#X obj -34 -13 loadbang;
#X obj 36 -13 bng 15 250 50 0 empty empty empty 17 7 0 10 -262144 -1
-1;
#X obj -34 47 sel 0;
#X msg -34 77 200;
#X obj -7 107 s \$0-itime;
#X obj 101 17 f \$0;
#X text 105 127 GUI;
#X text -36 127 interpolation (ms);
#X msg 101 47 \; \$1-to-GUI-N size 120 \; \$1-to-GUI-N src_font 20
\; \$1-to-GUI-N sphere_col 22 \; \$1-to-GUI-N nr_src 2 \; \$1-to-GUI-N
src_col 1 17 \; \$1-to-GUI-N src_col 2 15 \;;
#X connect 0 0 3 0;
#X connect 1 0 0 0;
#X connect 1 0 6 0;
#X connect 2 0 0 0;
#X connect 2 0 6 0;
#X connect 3 0 4 0;
#X connect 3 1 5 0;
#X connect 4 0 5 0;
#X connect 6 0 9 0;
#X restore 137 2 pd startup;
#N canvas 501 191 503 300 colors 0;
#N canvas 16 80 189 98 sphere_color 0;
#X obj 12 27 bng 15 250 50 0 empty empty empty 0 -6 0 8 -262144 -1
-1;
#X msg 12 139 0;
#X obj 12 226 outlet;
#X obj 12 43 bng 15 250 50 0 empty empty empty 0 -6 0 8 -166441 -1
-1;
#X msg 12 160 1;
#X obj 12 59 bng 15 250 50 0 empty empty empty 0 -6 0 8 -66577 -1 -1
;
#X obj 60 27 bng 15 250 50 0 empty empty empty 0 -6 0 8 -261689 -1
-1;
#X msg 12 181 2;
#X msg 60 139 3;
#X obj 76 27 bng 15 250 50 0 empty empty empty 0 -6 0 8 -261681 -1
-1;
#X obj 92 27 bng 15 250 50 0 empty empty empty 0 -6 0 8 -262131 -1
-1;
#X obj 108 27 bng 15 250 50 0 empty empty empty 0 -6 0 8 -225271 -1
-1;
#X obj 124 27 bng 15 250 50 0 empty empty empty 0 -6 0 8 -225280 -1
-1;
#X msg 76 139 4;
#X msg 92 139 5;
#X msg 108 139 6;
#X msg 124 139 7;
#X obj 140 27 bng 15 250 50 0 empty empty empty 0 -6 0 8 -228992 -1
-1;
#X obj 156 27 bng 15 250 50 0 empty empty empty 0 -6 0 8 -257472 -1
-1;
#X msg 140 139 8;
#X msg 156 139 9;
#X obj 28 27 bng 15 250 50 0 empty empty empty 0 -6 0 8 -233017 -1
-1;
#X obj 28 43 bng 15 250 50 0 empty empty empty 0 -6 0 8 -128992 -1
-1;
#X obj 28 59 bng 15 250 50 0 empty empty empty 0 -6 0 8 -33289 -1 -1
;
#X obj 60 43 bng 15 250 50 0 empty empty empty 0 -6 0 8 -258699 -1
-1;
#X obj 76 43 bng 15 250 50 0 empty empty empty 0 -6 0 8 -260818 -1
-1;
#X obj 92 43 bng 15 250 50 0 empty empty empty 0 -6 0 8 -241291 -1
-1;
#X obj 108 43 bng 15 250 50 0 empty empty empty 0 -6 0 8 -24198 -1
-1;
#X obj 124 43 bng 15 250 50 0 empty empty empty 0 -6 0 8 -44926 -1
-1;
#X obj 140 43 bng 15 250 50 0 empty empty empty 0 -6 0 8 -62784 -1
-1;
#X obj 156 43 bng 15 250 50 0 empty empty empty 0 -6 0 8 -250685 -1
-1;
#X msg 60 160 13;
#X msg 76 160 14;
#X msg 92 160 15;
#X msg 108 160 16;
#X msg 124 160 17;
#X msg 140 160 18;
#X msg 156 160 19;
#X msg 28 139 10;
#X msg 28 160 11;
#X msg 28 181 12;
#X obj 44 27 bng 15 250 50 0 empty empty empty 0 -6 0 8 -195568 -1
-1;
#X obj 44 43 bng 15 250 50 0 empty empty empty 0 -6 0 8 -99865 -1 -1
;
#X obj 44 59 bng 15 250 50 0 empty empty empty 0 -6 0 8 -1 -1 -1;
#X obj 60 59 bng 15 250 50 0 empty empty empty 0 -6 0 8 -143491 -1
-1;
#X obj 76 59 bng 15 250 50 0 empty empty empty 0 -6 0 8 -90881 -1 -1
;
#X obj 92 59 bng 15 250 50 0 empty empty empty 0 -6 0 8 -123526 -1
-1;
#X obj 108 59 bng 15 250 50 0 empty empty empty 0 -6 0 8 -42246 -1
-1;
#X obj 124 59 bng 15 250 50 0 empty empty empty 0 -6 0 8 -1109 -1 -1
;
#X obj 140 59 bng 15 250 50 0 empty empty empty 0 -6 0 8 -355 -1 -1
;
#X obj 156 59 bng 15 250 50 0 empty empty empty 0 -6 0 8 -90133 -1
-1;
#X msg 60 181 23;
#X msg 76 181 24;
#X msg 92 181 25;
#X msg 108 181 26;
#X msg 124 181 27;
#X msg 140 181 28;
#X msg 156 181 29;
#X msg 44 139 20;
#X msg 44 160 21;
#X msg 44 181 22;
#X connect 0 0 1 0;
#X connect 1 0 2 0;
#X connect 3 0 4 0;
#X connect 4 0 2 0;
#X connect 5 0 7 0;
#X connect 6 0 8 0;
#X connect 7 0 2 0;
#X connect 8 0 2 0;
#X connect 9 0 13 0;
#X connect 10 0 14 0;
#X connect 11 0 15 0;
#X connect 12 0 16 0;
#X connect 13 0 2 0;
#X connect 14 0 2 0;
#X connect 15 0 2 0;
#X connect 16 0 2 0;
#X connect 17 0 19 0;
#X connect 18 0 20 0;
#X connect 19 0 2 0;
#X connect 20 0 2 0;
#X connect 21 0 38 0;
#X connect 22 0 39 0;
#X connect 23 0 40 0;
#X connect 24 0 31 0;
#X connect 25 0 32 0;
#X connect 26 0 33 0;
#X connect 27 0 34 0;
#X connect 28 0 35 0;
#X connect 29 0 36 0;
#X connect 30 0 37 0;
#X connect 31 0 2 0;
#X connect 32 0 2 0;
#X connect 33 0 2 0;
#X connect 34 0 2 0;
#X connect 35 0 2 0;
#X connect 36 0 2 0;
#X connect 37 0 2 0;
#X connect 38 0 2 0;
#X connect 39 0 2 0;
#X connect 40 0 2 0;
#X connect 41 0 58 0;
#X connect 42 0 59 0;
#X connect 43 0 60 0;
#X connect 44 0 51 0;
#X connect 45 0 52 0;
#X connect 46 0 53 0;
#X connect 47 0 54 0;
#X connect 48 0 55 0;
#X connect 49 0 56 0;
#X connect 50 0 57 0;
#X connect 51 0 2 0;
#X connect 52 0 2 0;
#X connect 53 0 2 0;
#X connect 54 0 2 0;
#X connect 55 0 2 0;
#X connect 56 0 2 0;
#X connect 57 0 2 0;
#X connect 58 0 2 0;
#X connect 59 0 2 0;
#X connect 60 0 2 0;
#X coords 0 0 1 1 200 100 1;
#X restore 115 6 pd sphere_color;
#X msg 24 238 \; \$2-to-GUI sphere_col \$1;
#X floatatom 199 120 5 0 0 0 - - -;
#X obj 4 148 bng 15 250 50 0 empty empty empty 17 7 0 10 -262144 -1
-1;
#X obj 24 208 pack 0 \$0;
#X obj 24 178 i;
#X obj 164 148 bng 15 250 50 0 empty empty empty 17 7 0 10 -262144
-1 -1;
#X obj 184 208 pack 0 \$0;
#X obj 184 178 i;
#X obj 324 148 bng 15 250 50 0 empty empty empty 17 7 0 10 -262144
-1 -1;
#X obj 344 208 pack 0 \$0;
#X obj 344 178 i;
#X msg 184 238 \; \$2-to-GUI frame_col \$1;
#X msg 344 238 \; \$2-to-GUI src_col 1 \$1;
#X connect 0 0 2 0;
#X connect 2 0 5 1;
#X connect 2 0 8 1;
#X connect 2 0 11 1;
#X connect 3 0 5 0;
#X connect 4 0 1 0;
#X connect 5 0 4 0;
#X connect 6 0 8 0;
#X connect 7 0 12 0;
#X connect 8 0 7 0;
#X connect 9 0 11 0;
#X connect 10 0 13 0;
#X connect 11 0 10 0;
#X restore 387 82 pd colors;
#X obj 12 225 r $VBAP_speaker_setup;
#X obj 299 225 r \$0-selectsrc;
#X obj 299 317 tgl 15 0 empty empty empty 17 7 0 10 -262144 -1 -1 1
1;
#X obj 327 317 tgl 15 0 empty empty empty 17 7 0 10 -262144 -1 -1 0
1;
#X msg 269 286 0;
#X msg 339 286 0;
#X obj 13 33 cnv 15 190 178 empty empty Nunchuk 11 12 0 14 -261682
-66577 0;
#X floatatom 23 165 3 0 100 0 - - -;
#X obj 49 63 cube_sphere 2 60 20 0 260817 44925 59 56 241290 59 55
;
#X obj 24 65 vsl 15 90 0 100 0 0 empty empty empty 0 -9 0 10 -262144
-1 -1 890 1;
#X text 18 182 spread;
#X text 174 141 ctrl;
#X obj 178 97 tgl 15 0 nononosnd \$0-JSIO empty 17 7 0 10 -261682 -4160
-1 1 1;
#X obj 49 2 r \$0-to-GUI-N;
#N canvas 55 107 732 143 matrix_srcsig_N1 0;
#X obj 418 13 r \$0-itime;
#X obj 177 13 inlet coord_matrix;
#X obj -9 90 throw~ Ch_1;
#X obj 77 90 throw~ Ch_2;
#X obj 169 90 throw~ Ch_3;
#X obj 261 90 throw~ Ch_4;
#X obj 352 89 throw~ Ch_5;
#X obj 438 89 throw~ Ch_6;
#X obj 530 89 throw~ Ch_7;
#X obj 622 89 throw~ Ch_8;
#X obj 240 43 mtx_mul~ 4 1 200 .......;
#X obj 310 13 r~ \$0-signal_N1;
#X connect 0 0 10 2;
#X connect 1 0 10 0;
#X connect 10 0 2 0;
#X connect 10 1 3 0;
#X connect 10 2 4 0;
#X connect 10 3 5 0;
#X connect 11 0 10 1;
#X restore 147 455 pd matrix_srcsig_N1;
#N canvas 251 354 723 128 matrix_srcsig_N2 0;
#X obj 418 13 r \$0-itime;
#X obj 177 13 inlet coord_matrix;
#X obj -9 90 throw~ Ch_1;
#X obj 77 90 throw~ Ch_2;
#X obj 169 90 throw~ Ch_3;
#X obj 261 90 throw~ Ch_4;
#X obj 352 89 throw~ Ch_5;
#X obj 438 89 throw~ Ch_6;
#X obj 530 89 throw~ Ch_7;
#X obj 622 89 throw~ Ch_8;
#X obj 240 43 mtx_mul~ 4 1 200 .......;
#X obj 310 13 r~ \$0-signal_N2;
#X connect 0 0 10 2;
#X connect 1 0 10 0;
#X connect 10 0 2 0;
#X connect 10 1 3 0;
#X connect 10 2 4 0;
#X connect 10 3 5 0;
#X connect 11 0 10 1;
#X restore 317 455 pd matrix_srcsig_N2;
#X obj 180 117 cnv 10 11 22 empty \$0-srcinuse-N .1. -4 13 2 18 -1
-261682 0;
#X obj 231 52 import iemgui vbap iemlib iemmatrix;
#X obj 147 425 spigot;
#X obj 317 425 spigot;
#X obj 257 -4 loadbang;
#X obj 299 256 select 0 2;
#X obj 157 365 select 0 1;
#X msg 157 395 0;
#X msg 187 395 1;
#X obj 327 365 select 0 1;
#X msg 327 395 0;
#X msg 357 395 1;
#X msg 257 26 10;
#X connect 0 0 2 0;
#X connect 0 1 2 1;
#X connect 0 2 2 2;
#X connect 0 3 2 3;
#X connect 1 0 23 0;
#X connect 1 0 24 0;
#X connect 2 0 1 0;
#X connect 5 0 2 0;
#X connect 6 0 26 0;
#X connect 7 0 27 0;
#X connect 8 0 30 0;
#X connect 9 0 7 0;
#X connect 10 0 8 0;
#X connect 12 0 0 0;
#X connect 13 0 0 1;
#X connect 14 0 12 0;
#X connect 18 0 13 0;
#X connect 23 0 19 0;
#X connect 24 0 20 0;
#X connect 25 0 33 0;
#X connect 26 0 7 0;
#X connect 26 0 10 0;
#X connect 26 1 8 0;
#X connect 26 1 9 0;
#X connect 27 0 28 0;
#X connect 27 1 29 0;
#X connect 28 0 23 1;
#X connect 29 0 23 1;
#X connect 30 0 31 0;
#X connect 30 1 32 0;
#X connect 31 0 24 1;
#X connect 32 0 24 1;
#X connect 33 0 14 0;
#X coords 0 -1 1 1 192 180 2 12 32;
#X restore 4 11 pd engine_VBAP_8_N;
#N canvas 408 22 456 399 engine_VBAP_8_W 0;
#X obj 147 268 vbap 0 0;
#N canvas 175 263 318 175 startup 0;
#X obj -34 17 f \$1;
#X obj -34 -13 loadbang;
#X obj 36 -13 bng 15 250 50 0 empty empty empty 17 7 0 10 -262144 -1
-1;
#X obj -34 47 sel 0;
#X msg -34 77 200;
#X obj -7 107 s \$0-itime;
#X obj 101 17 f \$0;
#X text 105 127 GUI;
#X text -36 127 interpolation (ms);
#X msg 101 47 \; \$1-to-GUI-W size 120 \; \$1-to-GUI-W src_font 20
\; \$1-to-GUI-W sphere_col 22 \; \$1-to-GUI-W nr_src 2 \; \$1-to-GUI-W
src_col 1 13 \; \$1-to-GUI-W src_col 2 16 \;;
#X connect 0 0 3 0;
#X connect 1 0 0 0;
#X connect 1 0 6 0;
#X connect 2 0 0 0;
#X connect 2 0 6 0;
#X connect 3 0 4 0;
#X connect 3 1 5 0;
#X connect 4 0 5 0;
#X connect 6 0 9 0;
#X restore 137 2 pd startup;
#N canvas 501 191 503 300 colors 0;
#N canvas 16 80 189 98 sphere_color 0;
#X obj 12 27 bng 15 250 50 0 empty empty empty 0 -6 0 8 -262144 -1
-1;
#X msg 12 139 0;
#X obj 12 226 outlet;
#X obj 12 43 bng 15 250 50 0 empty empty empty 0 -6 0 8 -166441 -1
-1;
#X msg 12 160 1;
#X obj 12 59 bng 15 250 50 0 empty empty empty 0 -6 0 8 -66577 -1 -1
;
#X obj 60 27 bng 15 250 50 0 empty empty empty 0 -6 0 8 -261689 -1
-1;
#X msg 12 181 2;
#X msg 60 139 3;
#X obj 76 27 bng 15 250 50 0 empty empty empty 0 -6 0 8 -261681 -1
-1;
#X obj 92 27 bng 15 250 50 0 empty empty empty 0 -6 0 8 -262131 -1
-1;
#X obj 108 27 bng 15 250 50 0 empty empty empty 0 -6 0 8 -225271 -1
-1;
#X obj 124 27 bng 15 250 50 0 empty empty empty 0 -6 0 8 -225280 -1
-1;
#X msg 76 139 4;
#X msg 92 139 5;
#X msg 108 139 6;
#X msg 124 139 7;
#X obj 140 27 bng 15 250 50 0 empty empty empty 0 -6 0 8 -228992 -1
-1;
#X obj 156 27 bng 15 250 50 0 empty empty empty 0 -6 0 8 -257472 -1
-1;
#X msg 140 139 8;
#X msg 156 139 9;
#X obj 28 27 bng 15 250 50 0 empty empty empty 0 -6 0 8 -233017 -1
-1;
#X obj 28 43 bng 15 250 50 0 empty empty empty 0 -6 0 8 -128992 -1
-1;
#X obj 28 59 bng 15 250 50 0 empty empty empty 0 -6 0 8 -33289 -1 -1
;
#X obj 60 43 bng 15 250 50 0 empty empty empty 0 -6 0 8 -258699 -1
-1;
#X obj 76 43 bng 15 250 50 0 empty empty empty 0 -6 0 8 -260818 -1
-1;
#X obj 92 43 bng 15 250 50 0 empty empty empty 0 -6 0 8 -241291 -1
-1;
#X obj 108 43 bng 15 250 50 0 empty empty empty 0 -6 0 8 -24198 -1
-1;
#X obj 124 43 bng 15 250 50 0 empty empty empty 0 -6 0 8 -44926 -1
-1;
#X obj 140 43 bng 15 250 50 0 empty empty empty 0 -6 0 8 -62784 -1
-1;
#X obj 156 43 bng 15 250 50 0 empty empty empty 0 -6 0 8 -250685 -1
-1;
#X msg 60 160 13;
#X msg 76 160 14;
#X msg 92 160 15;
#X msg 108 160 16;
#X msg 124 160 17;
#X msg 140 160 18;
#X msg 156 160 19;
#X msg 28 139 10;
#X msg 28 160 11;
#X msg 28 181 12;
#X obj 44 27 bng 15 250 50 0 empty empty empty 0 -6 0 8 -195568 -1
-1;
#X obj 44 43 bng 15 250 50 0 empty empty empty 0 -6 0 8 -99865 -1 -1
;
#X obj 44 59 bng 15 250 50 0 empty empty empty 0 -6 0 8 -1 -1 -1;
#X obj 60 59 bng 15 250 50 0 empty empty empty 0 -6 0 8 -143491 -1
-1;
#X obj 76 59 bng 15 250 50 0 empty empty empty 0 -6 0 8 -90881 -1 -1
;
#X obj 92 59 bng 15 250 50 0 empty empty empty 0 -6 0 8 -123526 -1
-1;
#X obj 108 59 bng 15 250 50 0 empty empty empty 0 -6 0 8 -42246 -1
-1;
#X obj 124 59 bng 15 250 50 0 empty empty empty 0 -6 0 8 -1109 -1 -1
;
#X obj 140 59 bng 15 250 50 0 empty empty empty 0 -6 0 8 -355 -1 -1
;
#X obj 156 59 bng 15 250 50 0 empty empty empty 0 -6 0 8 -90133 -1
-1;
#X msg 60 181 23;
#X msg 76 181 24;
#X msg 92 181 25;
#X msg 108 181 26;
#X msg 124 181 27;
#X msg 140 181 28;
#X msg 156 181 29;
#X msg 44 139 20;
#X msg 44 160 21;
#X msg 44 181 22;
#X connect 0 0 1 0;
#X connect 1 0 2 0;
#X connect 3 0 4 0;
#X connect 4 0 2 0;
#X connect 5 0 7 0;
#X connect 6 0 8 0;
#X connect 7 0 2 0;
#X connect 8 0 2 0;
#X connect 9 0 13 0;
#X connect 10 0 14 0;
#X connect 11 0 15 0;
#X connect 12 0 16 0;
#X connect 13 0 2 0;
#X connect 14 0 2 0;
#X connect 15 0 2 0;
#X connect 16 0 2 0;
#X connect 17 0 19 0;
#X connect 18 0 20 0;
#X connect 19 0 2 0;
#X connect 20 0 2 0;
#X connect 21 0 38 0;
#X connect 22 0 39 0;
#X connect 23 0 40 0;
#X connect 24 0 31 0;
#X connect 25 0 32 0;
#X connect 26 0 33 0;
#X connect 27 0 34 0;
#X connect 28 0 35 0;
#X connect 29 0 36 0;
#X connect 30 0 37 0;
#X connect 31 0 2 0;
#X connect 32 0 2 0;
#X connect 33 0 2 0;
#X connect 34 0 2 0;
#X connect 35 0 2 0;
#X connect 36 0 2 0;
#X connect 37 0 2 0;
#X connect 38 0 2 0;
#X connect 39 0 2 0;
#X connect 40 0 2 0;
#X connect 41 0 58 0;
#X connect 42 0 59 0;
#X connect 43 0 60 0;
#X connect 44 0 51 0;
#X connect 45 0 52 0;
#X connect 46 0 53 0;
#X connect 47 0 54 0;
#X connect 48 0 55 0;
#X connect 49 0 56 0;
#X connect 50 0 57 0;
#X connect 51 0 2 0;
#X connect 52 0 2 0;
#X connect 53 0 2 0;
#X connect 54 0 2 0;
#X connect 55 0 2 0;
#X connect 56 0 2 0;
#X connect 57 0 2 0;
#X connect 58 0 2 0;
#X connect 59 0 2 0;
#X connect 60 0 2 0;
#X coords 0 0 1 1 200 100 1;
#X restore 115 6 pd sphere_color;
#X msg 24 238 \; \$2-to-GUI sphere_col \$1;
#X floatatom 199 120 5 0 0 0 - - -;
#X obj 4 148 bng 15 250 50 0 empty empty empty 17 7 0 10 -262144 -1
-1;
#X obj 24 208 pack 0 \$0;
#X obj 24 178 i;
#X obj 164 148 bng 15 250 50 0 empty empty empty 17 7 0 10 -262144
-1 -1;
#X obj 184 208 pack 0 \$0;
#X obj 184 178 i;
#X obj 324 148 bng 15 250 50 0 empty empty empty 17 7 0 10 -262144
-1 -1;
#X obj 344 208 pack 0 \$0;
#X obj 344 178 i;
#X msg 184 238 \; \$2-to-GUI frame_col \$1;
#X msg 344 238 \; \$2-to-GUI src_col 1 \$1;
#X connect 0 0 2 0;
#X connect 2 0 5 1;
#X connect 2 0 8 1;
#X connect 2 0 11 1;
#X connect 3 0 5 0;
#X connect 4 0 1 0;
#X connect 5 0 4 0;
#X connect 6 0 8 0;
#X connect 7 0 12 0;
#X connect 8 0 7 0;
#X connect 9 0 11 0;
#X connect 10 0 13 0;
#X connect 11 0 10 0;
#X restore 387 72 pd colors;
#X obj 12 225 r $VBAP_speaker_setup;
#X obj 13 33 cnv 15 190 178 empty empty Wiimote 11 12 0 14 -204786
-66577 0;
#X floatatom 23 165 3 0 100 0 - - -;
#X obj 49 63 cube_sphere 2 60 20 0 260817 258698 32 112 24197 84 5
;
#X obj 24 65 vsl 15 90 0 100 0 0 empty empty empty 0 -9 0 10 -262144
-1 -1 2670 1;
#X text 18 182 spread;
#X obj 49 2 r \$0-to-GUI-W;
#N canvas 248 232 725 145 matrix_srcsig_W1 0;
#X obj 418 13 r \$0-itime;
#X obj 177 13 inlet coord_matrix;
#X obj -9 90 throw~ Ch_1;
#X obj 77 90 throw~ Ch_2;
#X obj 169 90 throw~ Ch_3;
#X obj 261 90 throw~ Ch_4;
#X obj 352 89 throw~ Ch_5;
#X obj 438 89 throw~ Ch_6;
#X obj 530 89 throw~ Ch_7;
#X obj 622 89 throw~ Ch_8;
#X obj 310 13 r~ \$0-signal_W1;
#X obj 240 43 mtx_*~ 4 1 200 .......;
#X connect 0 0 11 2;
#X connect 1 0 11 0;
#X connect 10 0 11 1;
#X connect 11 0 2 0;
#X connect 11 1 3 0;
#X connect 11 2 4 0;
#X connect 11 3 5 0;
#X restore 147 355 pd matrix_srcsig_W1;
#N canvas 235 150 723 128 matrix_srcsig_W2 0;
#X obj 418 13 r \$0-itime;
#X obj 177 13 inlet coord_matrix;
#X obj -9 90 throw~ Ch_1;
#X obj 77 90 throw~ Ch_2;
#X obj 169 90 throw~ Ch_3;
#X obj 261 90 throw~ Ch_4;
#X obj 352 89 throw~ Ch_5;
#X obj 438 89 throw~ Ch_6;
#X obj 530 89 throw~ Ch_7;
#X obj 622 89 throw~ Ch_8;
#X obj 310 13 r~ \$0-signal_W2;
#X obj 240 43 mtx_*~ 4 1 200 .......;
#X connect 0 0 11 2;
#X connect 1 0 11 0;
#X connect 10 0 11 1;
#X connect 11 0 2 0;
#X connect 11 1 3 0;
#X connect 11 2 4 0;
#X connect 11 3 5 0;
#X restore 307 355 pd matrix_srcsig_W2;
#X obj 307 268 vbap 0 0;
#N canvas 246 58 683 395 parameter_proc_W1 0;
#X obj 320 151 * -1;
#X text 359 150 to be consistent with vbap;
#X text 337 170 azimuth;
#X text 111 152 elevation;
#X obj 17 13 inlet spread;
#X obj 17 43 t b a;
#X obj 102 353 outlet trigger;
#X obj 238 351 outlet azimuth;
#X obj 362 349 outlet elevation;
#X obj 490 349 outlet spread;
#X obj 227 229 r \$0-itime;
#X obj 597 44 r \$0-itime;
#X obj 401 227 r \$0-itime;
#X obj 148 251 iemlib/speedlim 200;
#X obj 320 249 iemlib/speedlim 200;
#X obj 486 74 iemlib/speedlim 200;
#X obj 102 74 t b a;
#X obj 102 14 inlet from GUI-W;
#X obj 148 128 unpack f f;
#X obj 148 98 route 1;
#X obj 222 14 r \$0-to-GUI-W;
#X obj 222 44 route src_dp;
#X connect 0 0 14 0;
#X connect 4 0 5 0;
#X connect 5 0 6 0;
#X connect 5 1 15 0;
#X connect 10 0 13 1;
#X connect 11 0 15 1;
#X connect 12 0 14 1;
#X connect 13 0 8 0;
#X connect 14 0 7 0;
#X connect 15 0 9 0;
#X connect 16 0 6 0;
#X connect 16 1 19 0;
#X connect 17 0 16 0;
#X connect 18 0 13 0;
#X connect 18 1 0 0;
#X connect 19 0 18 0;
#X connect 20 0 21 0;
#X connect 21 0 16 0;
#X restore 147 225 pd parameter_proc_W1;
#N canvas 168 71 683 395 parameter_proc_W2 0;
#X obj 320 151 * -1;
#X text 359 150 to be consistent with vbap;
#X text 337 170 azimuth;
#X text 111 152 elevation;
#X obj 17 13 inlet spread;
#X obj 17 43 t b a;
#X obj 102 353 outlet trigger;
#X obj 238 351 outlet azimuth;
#X obj 362 349 outlet elevation;
#X obj 490 349 outlet spread;
#X obj 227 229 r \$0-itime;
#X obj 597 44 r \$0-itime;
#X obj 401 227 r \$0-itime;
#X obj 148 251 iemlib/speedlim 200;
#X obj 320 249 iemlib/speedlim 200;
#X obj 486 74 iemlib/speedlim 200;
#X obj 102 74 t b a;
#X obj 102 14 inlet from GUI-W;
#X obj 148 98 route 2;
#X obj 148 128 unpack f f;
#X obj 222 14 r \$0-to-GUI-W;
#X obj 222 44 route src_dp;
#X connect 0 0 14 0;
#X connect 4 0 5 0;
#X connect 5 0 6 0;
#X connect 5 1 15 0;
#X connect 10 0 13 1;
#X connect 11 0 15 1;
#X connect 12 0 14 1;
#X connect 13 0 8 0;
#X connect 14 0 7 0;
#X connect 15 0 9 0;
#X connect 16 0 6 0;
#X connect 16 1 18 0;
#X connect 17 0 16 0;
#X connect 18 0 19 0;
#X connect 19 0 13 0;
#X connect 19 1 0 0;
#X connect 20 0 21 0;
#X connect 21 0 16 0;
#X restore 307 225 pd parameter_proc_W2;
#X obj 177 96 tgl 15 0 nononosnd \$0-JSIO-W empty 17 7 0 10 -204786
-4160 -1 1 1;
#X obj 231 42 import iemgui vbap iemlib iemmatrix;
#N canvas 698 947 161 200 make_matrix 0;
#X obj -10 3 inlet;
#X obj 48 63 t b f;
#X obj -28 153 outlet;
#X obj -28 93 pack 1 0 0 0 0;
#X obj -10 33 route 0 1 2 3;
#X msg -28 123 matrix 4 \$1 \$2 \$3 \$4 \$5;
#X connect 0 0 4 0;
#X connect 1 0 3 0;
#X connect 1 1 3 4;
#X connect 3 0 5 0;
#X connect 4 0 3 1;
#X connect 4 1 3 2;
#X connect 4 2 3 3;
#X connect 4 3 1 0;
#X connect 5 0 2 0;
#X restore 147 298 pd make_matrix;
#N canvas 698 947 161 200 make_matrix 0;
#X obj -10 3 inlet;
#X obj 48 63 t b f;
#X obj -28 153 outlet;
#X obj -28 93 pack 1 0 0 0 0;
#X obj -10 33 route 0 1 2 3;
#X msg -28 123 matrix 4 \$1 \$2 \$3 \$4 \$5;
#X connect 0 0 4 0;
#X connect 1 0 3 0;
#X connect 1 1 3 4;
#X connect 3 0 5 0;
#X connect 4 0 3 1;
#X connect 4 1 3 2;
#X connect 4 2 3 3;
#X connect 4 3 1 0;
#X connect 5 0 2 0;
#X restore 307 298 pd make_matrix;
#X obj 247 -14 loadbang;
#X msg 247 16 30;
#X connect 0 0 17 0;
#X connect 3 0 0 0;
#X connect 3 0 12 0;
#X connect 5 0 13 0;
#X connect 5 0 14 0;
#X connect 6 0 13 1;
#X connect 6 0 14 1;
#X connect 7 0 5 0;
#X connect 9 0 6 0;
#X connect 12 0 18 0;
#X connect 13 0 0 0;
#X connect 13 1 0 1;
#X connect 13 2 0 2;
#X connect 13 3 0 3;
#X connect 14 0 12 0;
#X connect 14 1 12 1;
#X connect 14 2 12 2;
#X connect 14 3 12 3;
#X connect 17 0 10 0;
#X connect 18 0 11 0;
#X connect 19 0 20 0;
#X connect 20 0 7 0;
#X coords 0 -1 1 1 192 180 2 12 32;
#X restore 206 11 pd engine_VBAP_8_W;
#X obj 209 -3 hsl 187 12 1000 100 0 0 empty \$0-density density 70
6 0 10 -204786 -1 -1 204 1;
#N canvas 301 458 637 577 engine_OSCin_synths 0;
#X obj 220 58 unpackOSC;
#N canvas 151 162 663 535 unpack_Wiimote 0;
#X obj 12 206 vu 15 120 empty empty -1 -8 0 10 -262144 -1 0 0;
#X obj 533 10 cnv 15 100 478 empty empty empty 20 12 0 14 -1 -66577
0;
#X obj 25 25 routeOSC /wii;
#X obj 25 55 routeOSC /acc /orientation /point;
#X obj 25 85 unpack f f f;
#X floatatom 11 115 5 0 0 0 - - -;
#X floatatom 111 115 5 0 0 0 - - -;
#X floatatom 61 115 5 0 0 0 - - -;
#X floatatom 261 115 5 0 0 0 - - -;
#X floatatom 311 115 5 0 0 0 - - -;
#X obj 258 85 unpack f f;
#X obj 21 144 outlet;
#X floatatom 161 115 5 0 0 0 - - -;
#X floatatom 211 115 5 0 0 0 - - -;
#X obj 158 85 unpack f f;
#X obj 71 144 outlet;
#X obj 62 206 vu 15 120 empty empty -1 -8 0 10 -262144 -1 0 0;
#X obj 121 144 outlet;
#X obj 112 206 vu 15 120 empty empty -1 -8 0 10 -262144 -1 0 0;
#X obj 171 144 outlet;
#X obj 162 206 vu 15 120 empty empty -1 -8 0 10 -262144 -1 0 0;
#X obj 221 144 outlet;
#X obj 212 206 vu 15 120 empty empty -1 -8 0 10 -262144 -1 0 0;
#X obj 271 144 outlet;
#X obj 262 206 vu 15 120 empty empty -1 -8 0 10 -262144 -1 0 0;
#X obj 312 206 vu 15 120 empty empty -1 -8 0 10 -262144 -1 0 0;
#N canvas 222 275 169 154 r1 0;
#X floatatom 15 97 12 0 0 0 - - -;
#X obj 15 36 expr (log($f1))/2.303;
#X obj 15 122 outlet;
#X obj 15 11 inlet;
#X obj 16 66 expr ((($f1*112)/2))-112;
#X connect 0 0 2 0;
#X connect 1 0 4 0;
#X connect 3 0 1 0;
#X connect 4 0 0 0;
#X restore 11 174 pd r1;
#N canvas 222 275 169 154 r2 0;
#X floatatom 15 97 12 0 0 0 - - -;
#X obj 15 36 expr (log($f1))/2.303;
#X obj 15 122 outlet;
#X obj 15 11 inlet;
#X obj 16 66 expr ((($f1*112)/2))-112;
#X connect 0 0 2 0;
#X connect 1 0 4 0;
#X connect 3 0 1 0;
#X connect 4 0 0 0;
#X restore 61 174 pd r2;
#N canvas 222 275 169 154 r3 0;
#X floatatom 15 97 12 0 0 0 - - -;
#X obj 15 36 expr (log($f1))/2.303;
#X obj 15 122 outlet;
#X obj 15 11 inlet;
#X obj 16 66 expr ((($f1*112)/2))-112;
#X connect 0 0 2 0;
#X connect 1 0 4 0;
#X connect 3 0 1 0;
#X connect 4 0 0 0;
#X restore 111 174 pd r3;
#N canvas 222 275 223 242 r4 0;
#X floatatom 15 127 12 0 0 0 - - -;
#X obj 15 152 outlet;
#X obj 15 11 inlet;
#X floatatom 46 63 5 0 0 0 - - -;
#X obj 15 36 expr (log($f1+84))/2.303;
#X obj 16 96 expr ((($f1*112)/2.3))-99;
#X connect 0 0 1 0;
#X connect 2 0 4 0;
#X connect 4 0 3 0;
#X connect 4 0 5 0;
#X connect 5 0 0 0;
#X restore 161 174 pd r4;
#N canvas 222 275 247 227 r5 0;
#X floatatom 15 123 12 0 0 0 - - -;
#X obj 15 148 outlet;
#X obj 15 11 inlet;
#X obj 15 41 expr (log($f1+86))/2.303;
#X floatatom 48 69 5 0 0 0 - - -;
#X obj 14 93 expr ((($f1*112)/2.3))-99;
#X connect 0 0 1 0;
#X connect 2 0 3 0;
#X connect 3 0 4 0;
#X connect 3 0 5 0;
#X connect 5 0 0 0;
#X restore 211 174 pd r5;
#N canvas 222 275 250 247 r6 0;
#X floatatom 15 137 12 0 0 0 - - -;
#X obj 15 36 expr (log($f1))/2.303;
#X obj 15 162 outlet;
#X obj 15 11 inlet;
#X floatatom 43 69 5 0 0 0 - - -;
#X obj 16 105 expr ((($f1*112)/3))-101;
#X connect 0 0 2 0;
#X connect 1 0 4 0;
#X connect 1 0 5 0;
#X connect 3 0 1 0;
#X connect 5 0 0 0;
#X restore 261 173 pd r6;
#N canvas 222 275 250 206 r7 0;
#X floatatom 15 127 12 0 0 0 - - -;
#X obj 15 36 expr (log($f1))/2.303;
#X obj 15 152 outlet;
#X obj 15 11 inlet;
#X floatatom 45 66 5 0 0 0 - - -;
#X obj 15 94 expr ((($f1*112)/3))-96;
#X connect 0 0 2 0;
#X connect 1 0 4 0;
#X connect 1 0 5 0;
#X connect 3 0 1 0;
#X connect 5 0 0 0;
#X restore 311 173 pd r7;
#X text 16 328 x;
#X text 65 329 y;
#X text 115 329 z;
#X text 159 329 roll;
#X text 204 329 pitch;
#X text 259 329 roll;
#X text 304 329 pitch;
#X text 32 345 acceleration;
#X text 162 346 orientation;
#X text 278 345 point;
#X text 10 337 --------------------;
#X text 159 337 ------------;
#X text 259 337 ------------;
#X obj 543 49 cnv 15 80 35 empty empty empty 20 12 0 14 -203904 -66577
0;
#X obj 543 89 cnv 15 80 35 empty empty empty 20 12 0 14 -203904 -66577
0;
#X obj 543 129 cnv 15 80 35 empty empty empty 20 12 0 14 -203904 -66577
0;
#X obj 543 169 cnv 15 80 35 empty empty empty 20 12 0 14 -203904 -66577
0;
#X obj 543 209 cnv 15 80 35 empty empty empty 20 12 0 14 -203904 -66577
0;
#X obj 543 249 cnv 15 80 35 empty empty empty 20 12 0 14 -203904 -66577
0;
#X obj 543 289 cnv 15 80 35 empty empty empty 20 12 0 14 -203904 -66577
0;
#X obj 543 329 cnv 15 80 35 empty empty empty 20 12 0 14 -203904 -66577
0;
#X obj 543 369 cnv 15 80 35 empty empty empty 20 12 0 14 -203904 -66577
0;
#X obj 543 409 cnv 15 80 35 empty empty empty 20 12 0 14 -203904 -66577
0;
#X obj 543 449 cnv 15 80 35 empty empty empty 20 12 0 14 -203904 -66577
0;
#X obj 543 16 cnv 15 80 20 empty empty empty 20 12 0 14 -262144 -66577
0;
#X text 561 16 Buttons;
#X text 588 220 A;
#X text 588 259 B;
#X obj 320 144 outlet;
#X obj 340 -5 unpack s f;
#X obj 462 185 select /a;
#X obj 551 220 tgl 15 0 empty empty empty 17 7 0 10 -262144 -1 -1 0
1;
#X obj 551 260 tgl 15 0 empty empty empty 17 7 0 10 -262144 -1 -1 0
1;
#X obj 462 225 select /b;
#X obj 340 -35 routeOSC /button;
#X obj 551 300 tgl 15 0 empty empty empty 17 7 0 10 -262144 -1 -1 0
1;
#X obj 551 340 tgl 15 0 empty empty empty 17 7 0 10 -262144 -1 -1 0
1;
#X obj 450 265 select /one;
#X obj 450 305 select /two;
#X obj 551 380 tgl 15 0 empty empty empty 17 7 0 10 -262144 -1 -1 0
1;
#X obj 551 420 tgl 15 0 empty empty empty 17 7 0 10 -262144 -1 -1 0
1;
#X obj 445 345 select /plus;
#X obj 439 385 select /minus;
#X obj 551 140 tgl 15 0 empty empty empty 17 7 0 10 -262144 -1 -1 0
1;
#X obj 551 180 tgl 15 0 empty empty empty 17 7 0 10 -262144 -1 -1 0
1;
#X obj 444 105 select /left;
#X obj 438 145 select /right;
#X obj 551 60 tgl 15 0 empty empty empty 17 7 0 10 -262144 -1 -1 0
1;
#X obj 551 100 tgl 15 0 empty empty empty 17 7 0 10 -262144 -1 -1 0
1;
#X obj 456 25 select /up;
#X obj 444 65 select /down;
#X obj 551 460 tgl 15 0 empty empty empty 17 7 0 10 -262144 -1 -1 0
1;
#X obj 439 425 select /home;
#X text 588 300 1;
#X text 588 340 2;
#X text 588 379 +;
#X text 588 418 -;
#X text 580 458 home;
#X text 589 58 ^;
#X text 589 96 v;
#X text 585 178 >>;
#X text 585 139 <<;
#X text 589 102 v;
#X text 589 65 ^;
#X obj 25 -5 inlet;
#X obj 329 470 s \$0-button-home;
#X connect 2 0 3 0;
#X connect 3 0 4 0;
#X connect 3 1 14 0;
#X connect 3 3 67 0;
#X connect 4 0 5 0;
#X connect 4 1 7 0;
#X connect 4 2 6 0;
#X connect 5 0 26 0;
#X connect 5 0 11 0;
#X connect 6 0 28 0;
#X connect 6 0 17 0;
#X connect 7 0 27 0;
#X connect 7 0 15 0;
#X connect 8 0 31 0;
#X connect 8 0 23 0;
#X connect 9 0 32 0;
#X connect 9 0 61 0;
#X connect 10 0 8 0;
#X connect 10 1 9 0;
#X connect 12 0 29 0;
#X connect 12 0 19 0;
#X connect 13 0 30 0;
#X connect 13 0 21 0;
#X connect 14 0 12 0;
#X connect 14 1 13 0;
#X connect 26 0 0 0;
#X connect 27 0 16 0;
#X connect 28 0 18 0;
#X connect 29 0 20 0;
#X connect 30 0 22 0;
#X connect 31 0 24 0;
#X connect 32 0 25 0;
#X connect 62 0 63 0;
#X connect 62 0 66 0;
#X connect 62 0 70 0;
#X connect 62 0 71 0;
#X connect 62 0 74 0;
#X connect 62 0 75 0;
#X connect 62 0 82 0;
#X connect 62 0 83 0;
#X connect 62 0 78 0;
#X connect 62 0 85 0;
#X connect 62 0 79 0;
#X connect 63 0 64 0;
#X connect 66 0 65 0;
#X connect 67 0 62 0;
#X connect 70 0 68 0;
#X connect 71 0 69 0;
#X connect 74 0 72 0;
#X connect 75 0 73 0;
#X connect 78 0 76 0;
#X connect 79 0 77 0;
#X connect 82 0 80 0;
#X connect 83 0 81 0;
#X connect 84 0 98 0;
#X connect 85 0 84 0;
#X connect 97 0 2 0;
#X restore 302 88 pd unpack_Wiimote;
#N canvas 393 25 547 419 unpack_Nunchuk 0;
#X obj -8 206 vu 15 120 empty empty -1 -8 0 10 -262144 -1 0 0;
#X obj 423 70 cnv 15 100 120 empty empty empty 20 12 0 14 -1 -66577
0;
#X obj 5 85 unpack f f f;
#X floatatom -9 115 5 0 0 0 - - -;
#X floatatom 91 115 5 0 0 0 - - -;
#X floatatom 41 115 5 0 0 0 - - -;
#X floatatom 241 115 5 0 0 0 - - -;
#X floatatom 291 115 5 0 0 0 - - -;
#X obj 238 85 unpack f f;
#X obj 1 144 outlet;
#X floatatom 141 115 5 0 0 0 - - -;
#X floatatom 191 115 5 0 0 0 - - -;
#X obj 138 85 unpack f f;
#X obj 51 144 outlet;
#X obj 42 206 vu 15 120 empty empty -1 -8 0 10 -262144 -1 0 0;
#X obj 101 144 outlet;
#X obj 92 206 vu 15 120 empty empty -1 -8 0 10 -262144 -1 0 0;
#X obj 151 144 outlet;
#X obj 142 206 vu 15 120 empty empty -1 -8 0 10 -262144 -1 0 0;
#X obj 201 144 outlet;
#X obj 192 206 vu 15 120 empty empty -1 -8 0 10 -262144 -1 0 0;
#X obj 251 144 outlet;
#X obj 242 206 vu 15 120 empty empty -1 -8 0 10 -262144 -1 0 0;
#X obj 292 206 vu 15 120 empty empty -1 -8 0 10 -262144 -1 0 0;
#N canvas 222 275 169 154 r1 0;
#X floatatom 15 97 12 0 0 0 - - -;
#X obj 15 36 expr (log($f1))/2.303;
#X obj 15 122 outlet;
#X obj 15 11 inlet;
#X obj 16 66 expr ((($f1*112)/2))-112;
#X connect 0 0 2 0;
#X connect 1 0 4 0;
#X connect 3 0 1 0;
#X connect 4 0 0 0;
#X restore -9 174 pd r1;
#N canvas 222 275 169 154 r2 0;
#X floatatom 15 97 12 0 0 0 - - -;
#X obj 15 36 expr (log($f1))/2.303;
#X obj 15 122 outlet;
#X obj 15 11 inlet;
#X obj 16 66 expr ((($f1*112)/2))-112;
#X connect 0 0 2 0;
#X connect 1 0 4 0;
#X connect 3 0 1 0;
#X connect 4 0 0 0;
#X restore 41 174 pd r2;
#N canvas 222 275 169 154 r3 0;
#X floatatom 15 97 12 0 0 0 - - -;
#X obj 15 36 expr (log($f1))/2.303;
#X obj 15 122 outlet;
#X obj 15 11 inlet;
#X obj 16 66 expr ((($f1*112)/2))-112;
#X connect 0 0 2 0;
#X connect 1 0 4 0;
#X connect 3 0 1 0;
#X connect 4 0 0 0;
#X restore 91 174 pd r3;
#N canvas 222 275 223 242 r4 0;
#X floatatom 15 127 12 0 0 0 - - -;
#X obj 15 152 outlet;
#X obj 15 11 inlet;
#X floatatom 46 63 5 0 0 0 - - -;
#X obj 15 36 expr (log($f1+84))/2.303;
#X obj 16 96 expr ((($f1*112)/2.3))-99;
#X connect 0 0 1 0;
#X connect 2 0 4 0;
#X connect 4 0 3 0;
#X connect 4 0 5 0;
#X connect 5 0 0 0;
#X restore 141 174 pd r4;
#N canvas 222 275 247 227 r5 0;
#X floatatom 15 123 12 0 0 0 - - -;
#X obj 15 148 outlet;
#X obj 15 11 inlet;
#X obj 15 41 expr (log($f1+86))/2.303;
#X floatatom 48 69 5 0 0 0 - - -;
#X obj 14 93 expr ((($f1*112)/2.3))-99;
#X connect 0 0 1 0;
#X connect 2 0 3 0;
#X connect 3 0 4 0;
#X connect 3 0 5 0;
#X connect 5 0 0 0;
#X restore 191 174 pd r5;
#N canvas 605 173 250 247 r6 0;
#X floatatom 15 172 12 0 0 0 - - -;
#X obj 15 197 outlet;
#X obj 15 11 inlet;
#X obj 15 41 expr (($f1+0.02)*50);
#X obj 15 71 expr (log($f1+50))/2.303;
#X obj 15 140 expr (($f1*112)/2)-100;
#X connect 0 0 1 0;
#X connect 2 0 3 0;
#X connect 3 0 4 0;
#X connect 4 0 5 0;
#X connect 5 0 0 0;
#X restore 241 173 pd r6;
#X text -4 328 x;
#X text 45 329 y;
#X text 95 329 z;
#X text 139 329 roll;
#X text 184 329 pitch;
#X text 12 345 acceleration;
#X text 142 346 orientation;
#X text -10 337 --------------------;
#X text 139 337 ------------;
#X text 239 337 ------------;
#X obj 433 109 cnv 15 80 35 empty empty empty 20 12 0 14 -203904 -66577
0;
#X obj 433 149 cnv 15 80 35 empty empty empty 20 12 0 14 -203904 -66577
0;
#X obj 433 76 cnv 15 80 20 empty empty empty 20 12 0 14 -262144 -66577
0;
#X text 451 76 Buttons;
#X obj 300 144 outlet;
#X obj 320 -5 unpack s f;
#X obj 441 120 tgl 15 0 empty empty empty 17 7 0 10 -262144 -1 -1 0
1;
#X obj 441 160 tgl 15 0 empty empty empty 17 7 0 10 -262144 -1 -1 0
1;
#X obj 320 -35 routeOSC /button;
#X obj 5 -5 inlet;
#X obj 5 25 routeOSC /nunchuk;
#X obj 5 55 routeOSC /acc /orientation /joystick;
#X text 246 329 x;
#X text 295 329 y;
#X text 249 345 joystick;
#N canvas 605 173 250 247 r7 0;
#X floatatom 15 172 12 0 0 0 - - -;
#X obj 15 197 outlet;
#X obj 15 11 inlet;
#X obj 15 41 expr (($f1+0.02)*50);
#X obj 15 71 expr (log($f1+50))/2.303;
#X obj 15 140 expr (($f1*112)/2)-100;
#X connect 0 0 1 0;
#X connect 2 0 3 0;
#X connect 3 0 4 0;
#X connect 4 0 5 0;
#X connect 5 0 0 0;
#X restore 291 173 pd r7;
#X obj 352 85 select /c;
#X obj 352 125 select /z;
#X text 476 120 c;
#X text 476 160 Z;
#X obj 422 215 s \$0-button-z;
#X obj 431 12 s \$0-button-c;
#X connect 2 0 3 0;
#X connect 2 1 5 0;
#X connect 2 2 4 0;
#X connect 3 0 24 0;
#X connect 3 0 9 0;
#X connect 4 0 26 0;
#X connect 4 0 15 0;
#X connect 5 0 25 0;
#X connect 5 0 13 0;
#X connect 6 0 29 0;
#X connect 6 0 21 0;
#X connect 7 0 44 0;
#X connect 7 0 55 0;
#X connect 8 0 6 0;
#X connect 8 1 7 0;
#X connect 10 0 27 0;
#X connect 10 0 17 0;
#X connect 11 0 28 0;
#X connect 11 0 19 0;
#X connect 12 0 10 0;
#X connect 12 1 11 0;
#X connect 24 0 0 0;
#X connect 25 0 14 0;
#X connect 26 0 16 0;
#X connect 27 0 18 0;
#X connect 28 0 20 0;
#X connect 29 0 22 0;
#X connect 45 0 56 0;
#X connect 45 0 57 0;
#X connect 46 0 61 0;
#X connect 47 0 60 0;
#X connect 48 0 45 0;
#X connect 49 0 50 0;
#X connect 50 0 51 0;
#X connect 51 0 2 0;
#X connect 51 1 12 0;
#X connect 51 2 8 0;
#X connect 51 3 48 0;
#X connect 55 0 23 0;
#X connect 56 0 46 0;
#X connect 57 0 47 0;
#X restore 118 88 pd unpack_Nunchuk;
#X obj 179 254 grid grid1 40 -1 1 40 -1 1 1 0.01 0.01 4 4 197 274;
#X msg 99 208 0;
#X obj 220 -32 udpreceive 5600;
#X obj 226 240 vsl 15 72 0 100 0 0 empty empty z 5 32 0 10 -262144
-1 -1 3550 0;
#X obj 139 208 average;
#X obj 191 208 average;
#X obj 150 347 r \$0-JSIO;
#N canvas 439 1288 356 207 bttn_jstk_ctrl_N 0;
#X obj 10 162 s \$0-selectsrc;
#X obj 10 74 bng 15 250 50 0 empty empty empty 17 7 0 10 -262144 -1
-1;
#X obj 10 104 cup;
#X obj 10 13 r \$0-button-z;
#X obj 10 43 select 1;
#X obj 196 74 bng 15 250 50 0 empty empty empty 17 7 0 10 -262144 -1
-1;
#X obj 196 43 select 1;
#X obj 196 13 r \$0-button-c;
#X obj 196 104 tgl 15 0 \$0-JSIO empty empty 17 7 0 10 -262144 -1 -1
1 1;
#X text 33 74 switch between sources;
#X obj 10 134 mod 4;
#X text 219 72 Turn joystick on/off;
#X obj 80 43 r \$0-selsrcN;
#X connect 1 0 2 0;
#X connect 1 0 8 0;
#X connect 2 0 10 0;
#X connect 3 0 4 0;
#X connect 4 0 1 0;
#X connect 5 0 8 0;
#X connect 6 0 5 0;
#X connect 7 0 6 0;
#X connect 10 0 0 0;
#X connect 12 0 1 0;
#X restore 99 417 pd bttn_jstk_ctrl_N;
#X msg 99 377 \; \$3-to-GUI-N src_dp \$4 \$1 \$2;
#N canvas 461 22 310 677 engine_N 0;
#X text -206 24 phi=atan2(y \, x);
#X text -207 44 theta=atan2(z \, sqrt(x^2+y^2));
#X obj -202 252 *;
#X obj -67 402 atan2;
#X obj -202 312 sqrt;
#X obj -202 222 t f f f;
#X obj -167 252 *;
#X obj -145 222 t f f f;
#X obj -202 282 +;
#X obj -67 342 pack;
#X obj -112 252 pack;
#X msg -112 282 \$2 \$1;
#X msg -67 372 \$2 \$1;
#X obj -112 312 atan2;
#X obj -112 432 pack 0 0;
#X obj -112 462 unpack 0 0;
#X text -207 6 cartesian 2D to spherical without radius;
#X obj -202 192 unpack 0 0;
#X obj -202 162 pack \$1 \$2;
#X floatatom 34 283 3 0 100 0 - - -;
#X obj 34 312 / 100;
#X obj 34 72 inlet z;
#X obj -112 492 * 57.2958;
#X obj -42 492 * 57.2958;
#X obj -112 522 t b f;
#X obj -112 642 outlet;
#X obj -202 72 inlet x;
#X obj -145 72 inlet y;
#X obj -145 102 expr (sin((3.1416*2) - $f1));
#X obj -145 132 * 1.287;
#X text -139 491 phi;
#X text 22 490 theta;
#X text 1 53 "cartesianness";
#X text -92 175 beware of the order;
#X text -84 192 of the commands!;
#X obj -112 612 pack 0 1 \$0 f;
#X obj -37 522 r \$0-selectsrc;
#X obj -37 552 select 0 2;
#X msg -37 582 1;
#X msg -7 582 2;
#X obj -7 642 s \$0-srcinuse-N;
#X msg -7 612 label .\$1.;
#X floatatom 17 413 5 0 0 0 - - -;
#X connect 2 0 8 0;
#X connect 3 0 14 1;
#X connect 4 0 9 0;
#X connect 5 0 2 0;
#X connect 5 1 2 1;
#X connect 5 2 10 0;
#X connect 6 0 8 1;
#X connect 7 0 6 0;
#X connect 7 1 6 1;
#X connect 7 2 10 1;
#X connect 8 0 4 0;
#X connect 9 0 12 0;
#X connect 10 0 11 0;
#X connect 11 0 13 0;
#X connect 12 0 3 0;
#X connect 13 0 14 0;
#X connect 14 0 15 0;
#X connect 15 0 22 0;
#X connect 15 1 23 0;
#X connect 17 0 5 0;
#X connect 17 1 7 0;
#X connect 18 0 17 0;
#X connect 19 0 20 0;
#X connect 20 0 9 1;
#X connect 21 0 19 0;
#X connect 22 0 24 0;
#X connect 23 0 35 0;
#X connect 24 0 35 0;
#X connect 24 1 35 1;
#X connect 26 0 28 0;
#X connect 27 0 18 0;
#X connect 28 0 29 0;
#X connect 29 0 18 1;
#X connect 35 0 25 0;
#X connect 36 0 37 0;
#X connect 37 0 38 0;
#X connect 37 1 39 0;
#X connect 38 0 35 3;
#X connect 38 0 41 0;
#X connect 38 0 42 0;
#X connect 39 0 35 3;
#X connect 39 0 41 0;
#X connect 39 0 42 0;
#X connect 41 0 40 0;
#X restore 99 317 pd engine_N;
#X obj 338 254 grid grid1 40 -1 1 40 -1 1 1 0.01 0.01 4 4 353 273;
#X msg 302 208 0;
#N canvas 418 522 225 140 bttn_jstk_ctrl_W 0;
#X obj 26 74 bng 15 250 50 0 empty empty empty 17 7 0 10 -262144 -1
-1;
#X obj 26 43 select 1;
#X obj 26 104 tgl 15 0 \$0-JSIO-W empty empty 17 7 0 10 -262144 -1
-1 1 1;
#X obj 26 13 r \$0-button-home;
#X text 49 72 Wiimote panning on/off;
#X connect 0 0 2 0;
#X connect 1 0 0 0;
#X connect 3 0 1 0;
#X restore 302 508 pd bttn_jstk_ctrl_W;
#X obj 416 347 r \$0-JSIO-W;
#N canvas 319 25 505 488 engine_W 0;
#X obj 98 12 inlet x;
#X obj 168 12 inlet y;
#X obj -103 446 outlet W1;
#X obj 168 446 outlet W2;
#X obj 168 193 pack;
#X msg 168 223 \$2 \$1;
#X obj 168 255 atan2;
#X obj 168 285 * 57.2958;
#X obj 168 355 t b f;
#X obj 168 415 pack 0 1 \$0 f;
#X obj -103 355 t b f;
#X obj -103 415 pack 0 1 \$0 f;
#X obj 168 315 * -1;
#X obj -103 193 pack;
#X msg -103 223 \$2 \$1;
#X obj -103 255 atan2;
#X obj -103 285 * 57.2958;
#X obj 168 83 expr ($f1*0.707106)-($f2*0.707107);
#X obj -103 83 expr ($f1*0.707107)+($f2*0.707106);
#X obj 128 123 bng 15 250 50 0 empty empty empty 17 7 0 10 -262144
-1 -1;
#X text -15 152 nearness at border -->;
#X text -30 383 <-- nearness to border -->;
#X msg 168 385 0;
#X msg -103 385 0;
#X msg 128 153 0.3;
#X connect 0 0 19 0;
#X connect 0 0 18 1;
#X connect 0 0 17 1;
#X connect 1 0 19 0;
#X connect 1 0 18 0;
#X connect 1 0 17 0;
#X connect 4 0 5 0;
#X connect 5 0 6 0;
#X connect 6 0 7 0;
#X connect 7 0 12 0;
#X connect 8 0 22 0;
#X connect 8 1 9 1;
#X connect 9 0 3 0;
#X connect 10 0 23 0;
#X connect 10 1 11 1;
#X connect 11 0 2 0;
#X connect 12 0 8 0;
#X connect 13 0 14 0;
#X connect 14 0 15 0;
#X connect 15 0 16 0;
#X connect 16 0 10 0;
#X connect 17 0 4 0;
#X connect 18 0 13 0;
#X connect 19 0 24 0;
#X connect 22 0 9 0;
#X connect 23 0 11 0;
#X connect 24 0 4 1;
#X connect 24 0 13 1;
#X restore 302 317 pd engine_W;
#X obj 353 437 r \$0-JSIO-W;
#X msg 302 467 \; \$3-to-GUI-W src_dp 1 \$1 \$2;
#X msg 365 377 \; \$3-to-GUI-W src_dp 2 \$1 \$2;
#N canvas 487 681 300 146 signal_math_W 0;
#X obj -169 100 outlet x;
#X obj -19 100 outlet y;
#X obj -169 40 expr (($f1+55)/73)-1;
#X obj -169 70 average 80;
#X obj -19 10 inlet Pitch;
#X obj -169 10 inlet Roll;
#X obj -19 40 expr (($f1+90)/90)-1;
#X obj -19 70 average 100;
#X connect 2 0 3 0;
#X connect 3 0 0 0;
#X connect 4 0 6 0;
#X connect 5 0 2 0;
#X connect 6 0 7 0;
#X connect 7 0 1 0;
#X restore 342 208 pd signal_math_W;
#X obj 452 167 tgl 15 0 empty \$0-JSIO-W control 20 7 0 10 -262144
-1 -1 1 1;
#X obj 527 167 tgl 15 0 empty empty run 20 7 0 10 -262144 -1 -1 1 1
;
#X obj 99 347 spigot;
#X obj 365 347 spigot;
#X obj 302 437 spigot;
#N canvas 104 541 625 683 particles 0;
#X obj 23 -10 noise~;
#X obj -31 325 sig~;
#X obj -12 482 vu 8 80 empty empty -1 -8 0 10 -66577 -1 0 0;
#X obj -31 269 vsl 24 40 0.01 1 1 0 empty empty empty 0 -9 0 10 -262144
-1 -1 3711 1;
#X obj -13 420 env~;
#X obj 451 263 knob 32 32 0.01 2 1 0 empty empty sharpness 0 42 0 10
-262144 -128992 -1 0 1;
#X obj 174 273 bng 15 250 50 0 empty empty empty 17 7 0 10 -262144
-1 -1;
#X obj 391 263 knob 32 32 2 500 1 0 empty empty sustain 0 42 0 10 -262144
-128992 -1 778 1;
#X obj 23 149 vcf~;
#X obj -62 19 knob 32 32 20 18000 1 0 empty empty center_freq. 0 42
0 10 -262144 -128992 -1 1500 1;
#X floatatom -52 90 5 0 0 0 - - -;
#X obj -62 119 sig~;
#X obj 72 21 knob 32 32 1 1000 1 0 empty empty Q 0 42 0 10 -262144
-128992 -1 2789 1;
#X obj 204 303 metro 125;
#X obj 204 273 tgl 15 0 empty empty empty 17 7 0 10 -262144 -1 -1 1
1;
#X obj 271 263 knob 32 32 100 1000 0 0 empty empty rate 0 42 0 10 -262144
-128992 -1 3066 1;
#X obj 27 390 *~;
#X obj 23 179 *~;
#X obj 85 149 sig~;
#X obj 27 480 clip~ 0 0.9;
#X obj 331 263 knob 32 32 1 2 0 0 empty empty random 0 42 0 10 -262144
-128992 -1 3100 1;
#X obj 23 209 *~;
#X obj -13 450 - 100;
#X obj 118 482 vu 8 80 empty empty -1 -8 0 10 -66577 -1 0 0;
#X obj 117 420 env~;
#X obj 157 390 *~;
#X obj 157 480 clip~ 0 0.9;
#X obj 117 450 - 100;
#X obj -59 161 knob 32 32 0.01 2 1 0 empty empty Gain 0 42 0 10 -262144
-128992 -1 2801 1;
#X obj 85 119 / 25;
#X text 325 623 Juan Ignacio Mendoza - 2013;
#N canvas 235 758 689 447 many_particles 0;
#X obj -1 18 inlet~ stream;
#X obj 368 18 inlet sustain;
#X obj 472 18 inlet sharpness;
#X obj 577 18 inlet spread;
#X obj 101 18 inlet trigger;
#X obj -1 418 outlet~ grain_stream;
#X obj 282 18 inlet random;
#X obj 191 18 inlet rate;
#X obj 419 418 outlet~ grain_stream;
#X obj 263 138 tgl 15 0 empty empty empty 17 7 0 10 -262144 -1 -1 0
1;
#X obj 281 138 < 900;
#X obj 263 158 tgl 15 0 empty empty empty 17 7 0 10 -262144 -1 -1 0
1;
#X obj 263 178 tgl 15 0 empty empty empty 17 7 0 10 -262144 -1 -1 0
1;
#X obj 263 198 tgl 15 0 empty empty empty 17 7 0 10 -262144 -1 -1 0
1;
#X obj 263 218 tgl 15 0 empty empty empty 17 7 0 10 -262144 -1 -1 0
1;
#X obj 263 238 tgl 15 0 empty empty empty 17 7 0 10 -262144 -1 -1 0
1;
#X obj 263 258 tgl 15 0 empty empty empty 17 7 0 10 -262144 -1 -1 0
1;
#X obj 263 278 tgl 15 0 empty empty empty 17 7 0 10 -262144 -1 -1 0
1;
#X obj 263 298 tgl 15 0 empty empty empty 17 7 0 10 -262144 -1 -1 0
1;
#X obj 263 118 tgl 15 0 empty empty empty 17 7 0 10 -262144 -1 -1 1
1;
#X obj 281 118 < 2000;
#X obj 281 158 < 875;
#X obj 281 178 < 850;
#X obj 281 198 < 825;
#X obj 281 218 < 800;
#X obj 281 238 < 750;
#X obj 281 259 < 700;
#X obj 281 278 < 600;
#X obj 281 298 < 500;
#X obj -1 58 s~ str-in;
#X obj -1 388 catch~ str-out-1;
#X obj 419 388 catch~ str-out-2;
#X obj 0 128 cutoneparticle1;
#X obj 420 128 cutoneparticle2;
#X obj 201 60 s rate-in;
#X obj 116 88 s bang-in;
#X obj 311 88 s rndm-in;
#X obj 368 59 s sust-in;
#X obj 487 88 s shrp-in;
#X obj 0 148 cutoneparticle1;
#X obj 0 168 cutoneparticle1;
#X obj 0 188 cutoneparticle1;
#X obj 0 208 cutoneparticle1;
#X obj 0 228 cutoneparticle1;
#X obj 0 248 cutoneparticle1;
#X obj 0 268 cutoneparticle1;
#X obj 0 288 cutoneparticle1;
#X obj 0 308 cutoneparticle1;
#X obj 0 328 cutoneparticle1;
#X obj 0 348 cutoneparticle1;
#X obj 110 128 cutoneparticle1;
#X obj 110 148 cutoneparticle1;
#X obj 110 168 cutoneparticle1;
#X obj 110 188 cutoneparticle1;
#X obj 110 208 cutoneparticle1;
#X obj 110 228 cutoneparticle1;
#X obj 110 248 cutoneparticle1;
#X obj 110 268 cutoneparticle1;
#X obj 110 288 cutoneparticle1;
#X obj 110 308 cutoneparticle1;
#X obj 110 328 cutoneparticle1;
#X obj 110 348 cutoneparticle1;
#X obj 420 148 cutoneparticle2;
#X obj 420 168 cutoneparticle2;
#X obj 420 188 cutoneparticle2;
#X obj 420 208 cutoneparticle2;
#X obj 420 228 cutoneparticle2;
#X obj 420 248 cutoneparticle2;
#X obj 420 268 cutoneparticle2;
#X obj 420 288 cutoneparticle2;
#X obj 420 308 cutoneparticle2;
#X obj 420 328 cutoneparticle2;
#X obj 420 348 cutoneparticle2;
#X obj 530 128 cutoneparticle2;
#X obj 530 148 cutoneparticle2;
#X obj 530 168 cutoneparticle2;
#X obj 530 188 cutoneparticle2;
#X obj 530 208 cutoneparticle2;
#X obj 530 228 cutoneparticle2;
#X obj 530 248 cutoneparticle2;
#X obj 530 268 cutoneparticle2;
#X obj 530 288 cutoneparticle2;
#X obj 530 308 cutoneparticle2;
#X obj 530 328 cutoneparticle2;
#X obj 530 348 cutoneparticle2;
#X connect 0 0 29 0;
#X connect 1 0 37 0;
#X connect 2 0 38 0;
#X connect 4 0 35 0;
#X connect 6 0 36 0;
#X connect 7 0 10 0;
#X connect 7 0 20 0;
#X connect 7 0 21 0;
#X connect 7 0 22 0;
#X connect 7 0 23 0;
#X connect 7 0 24 0;
#X connect 7 0 25 0;
#X connect 7 0 26 0;
#X connect 7 0 27 0;
#X connect 7 0 28 0;
#X connect 7 0 34 0;
#X connect 9 0 40 0;
#X connect 9 0 50 0;
#X connect 9 0 51 0;
#X connect 9 0 63 0;
#X connect 9 0 73 0;
#X connect 9 0 74 0;
#X connect 10 0 9 0;
#X connect 11 0 41 0;
#X connect 11 0 52 0;
#X connect 11 0 64 0;
#X connect 11 0 75 0;
#X connect 12 0 42 0;
#X connect 12 0 53 0;
#X connect 12 0 65 0;
#X connect 12 0 76 0;
#X connect 13 0 43 0;
#X connect 13 0 54 0;
#X connect 13 0 66 0;
#X connect 13 0 77 0;
#X connect 14 0 44 0;
#X connect 14 0 55 0;
#X connect 14 0 67 0;
#X connect 14 0 78 0;
#X connect 15 0 45 0;
#X connect 15 0 56 0;
#X connect 15 0 68 0;
#X connect 15 0 79 0;
#X connect 16 0 46 0;
#X connect 16 0 57 0;
#X connect 16 0 69 0;
#X connect 16 0 80 0;
#X connect 17 0 47 0;
#X connect 17 0 58 0;
#X connect 17 0 70 0;
#X connect 17 0 81 0;
#X connect 18 0 48 0;
#X connect 18 0 49 0;
#X connect 18 0 59 0;
#X connect 18 0 60 0;
#X connect 18 0 61 0;
#X connect 18 0 71 0;
#X connect 18 0 72 0;
#X connect 18 0 82 0;
#X connect 18 0 83 0;
#X connect 18 0 84 0;
#X connect 19 0 32 0;
#X connect 19 0 33 0;
#X connect 19 0 39 0;
#X connect 19 0 62 0;
#X connect 20 0 19 0;
#X connect 21 0 11 0;
#X connect 22 0 12 0;
#X connect 23 0 13 0;
#X connect 24 0 14 0;
#X connect 25 0 15 0;
#X connect 26 0 16 0;
#X connect 27 0 17 0;
#X connect 28 0 18 0;
#X connect 30 0 5 0;
#X connect 31 0 8 0;
#X restore 205 356 pd many_particles;
#X obj 126 105 tgl 15 0 empty empty empty 17 7 0 10 -262144 -1 -1 1
1;
#X obj 27 580 s~ \$0-signal_W1;
#X obj 157 580 s~ \$0-signal_W2;
#X msg -62 -11 880;
#X floatatom 104 71 5 0 0 0 - - -;
#X msg 72 -10 500;
#X obj 237 -3 inlet control;
#X obj 327 -3 inlet ctrl on/off;
#X obj 437 -3 inlet audio on/off;
#X obj 178 27 bng 15 250 50 0 empty empty empty 17 7 0 10 -262144 -1
-1;
#X obj 178 -3 loadbang;
#X msg -19 142 1.2;
#X obj 271 580 s \$0-density;
#N canvas 400 609 499 655 activity_meter_W 0;
#X obj 99 47 div;
#X floatatom -117 506 5 0 0 0 - - -;
#X text -126 -47 <-- on/off;
#X floatatom 99 75 5 0 100 0 - - -;
#X obj -144 -43 tgl 15 0 empty empty empty 17 7 0 10 -262144 -1 -1
1 1;
#X obj -124 127 tgl 15 0 empty empty empty 17 7 0 10 -262144 -1 -1
1 1;
#X obj -84 157 select 1 0;
#X obj -54 204 f;
#X obj -9 205 f;
#X obj -24 265 max;
#X obj -39 295 f;
#X obj 31 205 f;
#X obj 16 265 min;
#X obj 1 295 f;
#X obj -24 331 -;
#X obj -24 357 abs;
#X floatatom 176 417 5 0 0 0 - - -;
#X text 115 415 amplitude;
#X msg 25 17 1;
#X msg 59 17 0;
#X obj 83 135 switch;
#X obj 133 135 switch;
#X obj 71 203 f;
#X obj 101 203 + 1;
#X obj -124 107 bng 15 250 50 0 empty empty empty 17 7 0 10 -262144
-1 -1;
#X obj 131 203 mod 10;
#X obj -144 -73 inlet on/off;
#X obj -117 476 i;
#X obj 99 -73 inlet ctrl_signal;
#X obj 99 -13 average;
#X obj -117 446 expr (((sin(3.1416*2) - ($f1/50))+1)*500)+500;
#X obj 26 47 spigot;
#X obj -117 536 outlet amplitude inverse;
#X obj 176 536 outlet amplitude straight;
#X obj -144 -13 metro 100;
#X obj -24 387 average 10;
#X connect 0 0 3 0;
#X connect 1 0 32 0;
#X connect 3 0 7 1;
#X connect 3 0 19 0;
#X connect 3 0 20 1;
#X connect 3 0 21 1;
#X connect 3 0 24 0;
#X connect 4 0 34 0;
#X connect 5 0 6 0;
#X connect 6 0 7 0;
#X connect 6 1 8 0;
#X connect 6 1 11 0;
#X connect 7 0 9 0;
#X connect 7 0 12 0;
#X connect 8 0 9 1;
#X connect 9 0 10 1;
#X connect 9 0 20 2;
#X connect 10 0 14 0;
#X connect 11 0 12 1;
#X connect 12 0 13 1;
#X connect 12 0 21 2;
#X connect 13 0 14 1;
#X connect 14 0 15 0;
#X connect 15 0 35 0;
#X connect 16 0 30 0;
#X connect 16 0 33 0;
#X connect 18 0 31 1;
#X connect 19 0 31 1;
#X connect 20 0 8 1;
#X connect 21 0 11 1;
#X connect 22 0 23 0;
#X connect 23 0 25 0;
#X connect 24 0 5 0;
#X connect 25 0 22 1;
#X connect 25 0 20 0;
#X connect 25 0 21 0;
#X connect 26 0 4 0;
#X connect 27 0 1 0;
#X connect 28 0 29 0;
#X connect 29 0 0 0;
#X connect 30 0 27 0;
#X connect 31 0 3 0;
#X connect 34 0 10 0;
#X connect 34 0 13 0;
#X connect 34 0 18 0;
#X connect 34 0 22 0;
#X connect 34 0 31 0;
#X connect 35 0 16 0;
#X restore 126 135 pd activity_meter_W;
#X obj 93 204 random 40;
#X obj 237 165 + 500;
#X msg -31 237 0.8;
#X obj 93 234 + 500;
#X msg 331 233 2;
#X msg 391 232 8;
#X connect 0 0 8 0;
#X connect 1 0 16 1;
#X connect 1 0 25 1;
#X connect 3 0 1 0;
#X connect 4 0 22 0;
#X connect 5 0 31 5;
#X connect 6 0 31 1;
#X connect 7 0 31 4;
#X connect 8 0 17 0;
#X connect 9 0 10 0;
#X connect 9 0 11 0;
#X connect 11 0 8 1;
#X connect 12 0 8 2;
#X connect 12 0 29 0;
#X connect 12 0 36 0;
#X connect 13 0 31 1;
#X connect 13 0 46 0;
#X connect 14 0 13 0;
#X connect 15 0 13 1;
#X connect 15 0 44 0;
#X connect 15 0 31 2;
#X connect 16 0 4 0;
#X connect 16 0 19 0;
#X connect 17 0 21 0;
#X connect 18 0 17 1;
#X connect 19 0 33 0;
#X connect 20 0 31 3;
#X connect 21 0 31 0;
#X connect 22 0 2 0;
#X connect 24 0 27 0;
#X connect 25 0 24 0;
#X connect 25 0 26 0;
#X connect 26 0 34 0;
#X connect 27 0 23 0;
#X connect 28 0 21 1;
#X connect 29 0 18 0;
#X connect 31 0 16 0;
#X connect 31 1 25 0;
#X connect 32 0 45 0;
#X connect 35 0 9 0;
#X connect 37 0 12 0;
#X connect 38 0 45 1;
#X connect 39 0 32 0;
#X connect 40 0 14 0;
#X connect 41 0 35 0;
#X connect 41 0 37 0;
#X connect 41 0 43 0;
#X connect 41 0 48 0;
#X connect 41 0 50 0;
#X connect 41 0 51 0;
#X connect 42 0 41 0;
#X connect 43 0 28 0;
#X connect 45 0 15 0;
#X connect 45 1 47 0;
#X connect 46 0 49 0;
#X connect 47 0 49 1;
#X connect 48 0 3 0;
#X connect 49 0 9 0;
#X connect 50 0 20 0;
#X connect 51 0 7 0;
#X restore 458 207 pd particles;
#X obj 19 177 tgl 15 0 empty empty run 20 7 0 10 -262144 -1 -1 1 1
;
#N canvas 202 891 420 318 fire 0;
#X obj 90 -108 noise~;
#N canvas 443 453 265 333 hissing 0;
#X obj 9 -41 inlet~;
#X obj 39 19 *~ 40;
#X obj 39 49 min~ 1;
#X obj 39 79 *~;
#X obj 39 109 *~;
#X obj 9 139 *~;
#X obj 9 239 outlet~;
#X text 9 -71 evaporation/outgassing;
#X text 85 49 limit range;
#X text 69 79 4th power curve;
#X obj 39 -11 lop~ 1;
#X obj 172 -41 inlet control;
#X obj 9 209 clip~ -0.1 0.2;
#X obj 9 179 lop~ 1;
#X obj 172 49 *;
#X obj 172 79 *;
#X obj 172 109 / 100;
#X obj 172 139 + 100;
#X connect 0 0 5 0;
#X connect 0 0 10 0;
#X connect 1 0 2 0;
#X connect 2 0 3 0;
#X connect 2 0 3 1;
#X connect 3 0 4 0;
#X connect 3 0 4 1;
#X connect 4 0 5 1;
#X connect 5 0 13 0;
#X connect 10 0 1 0;
#X connect 11 0 10 1;
#X connect 11 0 14 0;
#X connect 11 0 14 1;
#X connect 12 0 6 0;
#X connect 13 0 12 0;
#X connect 14 0 15 0;
#X connect 14 0 15 1;
#X connect 15 0 16 0;
#X connect 16 0 17 0;
#X connect 17 0 13 1;
#X restore 9 2 pd hissing;
#X text 78 -137 Credits to James Farnell;
#X text 83 -157 3 component fire model;
#N canvas 193 741 277 318 lapping 0;
#X obj 19 26 inlet~;
#X obj 19 236 outlet~;
#X text 18 -24 turbulence of gas burning in waves;
#X obj 19 56 bp~ 30 5;
#X text 19 -4 random LF energy around 30 Hz;
#X text 79 56 30 Hz "black noise";
#X obj 19 86 *~ 100;
#X obj 19 116 hip~ 25;
#X text 72 116 increase harmonics by clipping;
#X obj 19 146 clip~ -0.9 0.9;
#X obj 19 176 hip~ 25;
#X text 74 176 high-pass remove below 25Hz;
#X obj 19 205 *~ 0.8;
#X connect 0 0 3 0;
#X connect 3 0 6 0;
#X connect 6 0 7 0;
#X connect 7 0 9 0;
#X connect 9 0 10 0;
#X connect 10 0 12 0;
#X connect 12 0 1 0;
#X restore 90 2 pd lapping;
#N canvas 162 640 408 451 crackling 0;
#X obj 19 19 inlet~;
#X text 18 -31 explosions from violent evaporation/outgassing or;
#X text 19 -11 from small scale structural decay;
#X obj 59 49 lop~ 1;
#X text 119 49 random signal around 1 Hz;
#X obj 59 79 env~;
#X obj 59 109 moses 50;
#X obj 104 139 moses 51;
#X obj 104 169 bang;
#X text 168 169 fires an envelope;
#X text 169 139 each tiome we cross the center;
#X obj 124 199 random 30;
#X obj 64 219 ead~ 0 5;
#X obj 19 349 outlet~;
#X obj 19 289 *~;
#X text 188 199 with a random decay up to 30ms;
#X text 128 219 envelope the noise with it;
#X obj 64 249 lop~ 1000;
#X obj 19 319 *~ 0.1;
#X connect 0 0 3 0;
#X connect 0 0 14 0;
#X connect 3 0 5 0;
#X connect 5 0 6 0;
#X connect 6 1 7 0;
#X connect 7 0 8 0;
#X connect 8 0 12 0;
#X connect 8 0 11 0;
#X connect 11 0 12 2;
#X connect 12 0 17 0;
#X connect 14 0 18 0;
#X connect 17 0 14 1;
#X connect 18 0 13 0;
#X restore 170 2 pd crackling;
#X obj -21 2 tgl 15 0 empty empty empty 17 7 0 10 -262144 -1 -1 1 1
;
#X obj 90 82 *~;
#X obj -21 -158 inlet on/off;
#X obj 90 112 s~ \$0-signal_N1;
#N canvas 172 418 142 179 selectline 0;
#X obj 17 36 t b b;
#X obj 17 -24 inlet 1_or_0;
#X obj 17 6 select 0 1;
#X obj 17 126 outlet~;
#X obj 17 96 line~;
#X msg 17 66 0;
#X msg 57 66 1;
#X obj 57 36 t b b;
#X msg 97 66 1000;
#X connect 0 0 5 0;
#X connect 0 1 8 0;
#X connect 1 0 2 0;
#X connect 2 0 0 0;
#X connect 2 1 7 0;
#X connect 4 0 3 0;
#X connect 5 0 4 0;
#X connect 6 0 4 0;
#X connect 7 0 6 0;
#X connect 7 1 8 0;
#X connect 8 0 4 1;
#X restore -21 42 pd selectline;
#X obj 180 -73 tgl 15 0 empty empty empty 17 7 0 10 -262144 -1 -1 1
1;
#X obj 180 -107 inlet control;
#X obj 270 -107 inlet ctrl on/off;
#X obj 90 32 *~ 0.4;
#N canvas 251 311 371 662 activity_meter_N1 0;
#X obj 99 -43 + 86;
#X obj 99 47 div;
#X floatatom -24 476 5 0 0 0 - - -;
#X text -126 -47 <-- on/off;
#X floatatom 99 75 5 0 100 0 - - -;
#X obj -144 -43 tgl 15 0 empty empty empty 17 7 0 10 -262144 -1 -1
1 1;
#X obj -124 127 tgl 15 0 empty empty empty 17 7 0 10 -262144 -1 -1
1 1;
#X obj -84 157 select 1 0;
#X obj -54 204 f;
#X obj -9 205 f;
#X obj -24 265 max;
#X obj -39 295 f;
#X obj 31 205 f;
#X obj 16 265 min;
#X obj 1 295 f;
#X obj -24 331 -;
#X obj -24 357 abs;
#X floatatom -24 417 5 0 0 0 - - -;
#X text -85 415 amplitude;
#X msg 25 17 1;
#X msg 59 17 0;
#X obj 83 135 switch;
#X obj 133 135 switch;
#X obj 71 203 f;
#X obj 101 203 + 1;
#X obj -144 -13 metro 100;
#X obj -124 107 bng 15 250 50 0 empty empty empty 17 7 0 10 -262144
-1 -1;
#X obj 131 203 mod 10;
#X obj -144 -73 inlet on/off;
#X obj -24 506 outlet amplitude;
#X obj 99 -73 inlet ctrl_signal;
#X obj 99 -13 average;
#X obj 26 47 spigot;
#X obj -24 445 expr (($f1/185)*40)+3;
#X obj -24 387 average 12;
#X connect 0 0 31 0;
#X connect 1 0 4 0;
#X connect 2 0 29 0;
#X connect 4 0 8 1;
#X connect 4 0 20 0;
#X connect 4 0 21 1;
#X connect 4 0 22 1;
#X connect 4 0 26 0;
#X connect 5 0 25 0;
#X connect 6 0 7 0;
#X connect 7 0 8 0;
#X connect 7 1 9 0;
#X connect 7 1 12 0;
#X connect 8 0 10 0;
#X connect 8 0 13 0;
#X connect 9 0 10 1;
#X connect 10 0 11 1;
#X connect 10 0 21 2;
#X connect 11 0 15 0;
#X connect 12 0 13 1;
#X connect 13 0 14 1;
#X connect 13 0 22 2;
#X connect 14 0 15 1;
#X connect 15 0 16 0;
#X connect 16 0 34 0;
#X connect 17 0 33 0;
#X connect 19 0 32 1;
#X connect 20 0 32 1;
#X connect 21 0 9 1;
#X connect 22 0 12 1;
#X connect 23 0 24 0;
#X connect 24 0 27 0;
#X connect 25 0 11 0;
#X connect 25 0 14 0;
#X connect 25 0 19 0;
#X connect 25 0 23 0;
#X connect 25 0 32 0;
#X connect 26 0 6 0;
#X connect 27 0 23 1;
#X connect 27 0 21 0;
#X connect 27 0 22 0;
#X connect 28 0 5 0;
#X connect 30 0 0 0;
#X connect 31 0 1 0;
#X connect 32 0 4 0;
#X connect 33 0 2 0;
#X connect 34 0 17 0;
#X restore 180 -43 pd activity_meter_N1;
#X connect 0 0 4 0;
#X connect 0 0 1 0;
#X connect 1 0 14 0;
#X connect 4 0 14 0;
#X connect 5 0 14 0;
#X connect 6 0 10 0;
#X connect 7 0 9 0;
#X connect 8 0 6 0;
#X connect 10 0 7 1;
#X connect 11 0 15 0;
#X connect 12 0 15 1;
#X connect 13 0 11 0;
#X connect 14 0 7 0;
#X connect 15 0 1 1;
#X restore -21 307 pd fire;
#X obj -21 277 tgl 15 0 empty empty run 20 7 0 10 -262144 -1 -1 1 1
;
#N canvas 340 436 135 529 bubbles 0;
#X obj -6 10 * 1000;
#X obj -6 70 line~;
#X obj 44 100 delta~;
#X obj 44 130 clip~ 0 1;
#X obj 44 190 *~ 0.4;
#X obj 44 220 *~;
#X obj -6 100 osc~;
#X obj -6 250 *~;
#X obj -6 -110 inlet on/off;
#X obj -6 -80 tgl 15 0 empty empty empty 17 7 0 10 -262144 -1 -1 1
1;
#X obj -6 371 s~ \$0-signal_N2;
#X obj 44 160 lop~ 100;
#X msg -6 40 \$1 15;
#X obj -6 280 hip~ 50;
#X obj -6 311 bp~ 1000 2;
#X obj -6 -50 metro 30;
#X obj -6 -20 bilex 8;
#X obj -6 340 *~ 3;
#X text 54 7 Credits;
#X text 67 19 to;
#X text 58 31 James;
#X text 54 43 Farnell;
#X connect 0 0 12 0;
#X connect 1 0 2 0;
#X connect 1 0 6 0;
#X connect 2 0 3 0;
#X connect 3 0 11 0;
#X connect 4 0 5 0;
#X connect 4 0 5 1;
#X connect 5 0 7 1;
#X connect 6 0 7 0;
#X connect 7 0 13 0;
#X connect 8 0 9 0;
#X connect 9 0 15 0;
#X connect 11 0 4 0;
#X connect 12 0 1 0;
#X connect 13 0 14 0;
#X connect 14 0 17 0;
#X connect 15 0 16 0;
#X connect 16 0 0 0;
#X connect 17 0 10 0;
#X restore 19 207 pd bubbles;
#X obj 246 88 loadbang;
#X msg 246 208 50;
#X obj -21 247 r \$0-fireon;
#X obj 19 147 r \$0-bubson;
#X obj 527 110 r \$0-parton;
#X obj 259 -2 r \$0-Wiionoff;
#N canvas 128 217 187 167 gate 0;
#X obj 8 102 spigot;
#X obj 108 42 select 0 1;
#X msg 108 72 0;
#X msg 138 72 1;
#X obj 8 12 inlet messages;
#X obj 108 13 inlet on/off;
#X obj 8 132 outlet messages;
#X connect 0 0 6 0;
#X connect 1 0 2 0;
#X connect 1 1 3 0;
#X connect 2 0 0 1;
#X connect 3 0 0 1;
#X connect 4 0 0 0;
#X connect 5 0 1 0;
#X restore 220 28 pd gate;
#X obj 22 277 tgl 15 0 empty \$0-JSIO-W control 20 7 0 10 -262144 -1
-1 1 1;
#X connect 0 0 2 0;
#X connect 0 0 1 0;
#X connect 1 2 27 0;
#X connect 1 3 21 0;
#X connect 1 4 21 1;
#X connect 2 0 29 1;
#X connect 2 2 29 1;
#X connect 2 5 7 0;
#X connect 2 6 8 0;
#X connect 3 0 12 0;
#X connect 3 1 12 1;
#X connect 4 0 12 0;
#X connect 4 0 12 1;
#X connect 5 0 38 0;
#X connect 6 0 12 2;
#X connect 7 0 12 0;
#X connect 8 0 12 1;
#X connect 9 0 24 1;
#X connect 12 0 24 0;
#X connect 13 0 17 0;
#X connect 13 1 17 1;
#X connect 14 0 17 0;
#X connect 16 0 25 1;
#X connect 17 0 26 0;
#X connect 17 1 25 0;
#X connect 18 0 26 1;
#X connect 21 0 17 0;
#X connect 21 1 17 1;
#X connect 22 0 27 1;
#X connect 23 0 27 2;
#X connect 24 0 11 0;
#X connect 25 0 20 0;
#X connect 26 0 19 0;
#X connect 28 0 31 0;
#X connect 30 0 29 0;
#X connect 32 0 33 0;
#X connect 32 0 22 0;
#X connect 32 0 39 0;
#X connect 33 0 6 0;
#X connect 34 0 30 0;
#X connect 35 0 28 0;
#X connect 36 0 23 0;
#X connect 37 0 38 1;
#X connect 38 0 0 0;
#X connect 39 0 29 2;
#X restore 637 210 pd engine_OSCin_synths;
#X obj 33 202 tgl 20 0 \$0-fireon nononorcv 1_Fire -8 30 0 10 -204800
-1 -1 1 1;
#X obj 153 202 tgl 20 0 \$0-bubson nononorcv 2_Bubbles -18 30 0 10
-262130 -1 -1 1 1;
#X obj 295 202 tgl 20 0 \$0-parton nononorcv 1&2_Particles -30 30 0
10 -204786 -1 -1 1 1;
#X obj 93 202 bng 20 250 50 0 \$0-selsrcN nononorcv select -6 30 0
10 -228856 -261682 -1;
#X obj 496 202 tgl 20 0 \$0-Wiionoff nononorcv Wiichuk_on/off -30 30
0 10 -191407 -1 -1 1 1;
#X connect 1 0 4 0;
