#N canvas 1017 22 316 678 16;
#N canvas 410 405 231 436 \$0-buffers 0;
#X restore 4 213 pd \$0-buffers;
#X msg 14 63 1;
#X msg 64 63 2;
#X msg 114 63 3;
#X obj 4 572 r \$0-bufout;
#X obj 4 602 print bufout;
#X obj 4 532 s \$0-bufspit;
#X msg 4 502 bufspit 1;
#X text -6 463 3) DUMP BUFFERS' CONTENT:;
#X obj 14 113 t a b;
#X msg 4 302 1;
#X msg 54 302 2;
#X msg 104 302 3;
#X obj 4 33 bng 22 250 50 0 empty empty empty 17 7 0 10 -262144 -1
-1;
#X obj 167 183 s \$0-s;
#X text 157 61 <-- index;
#X text 192 146 <-- size;
#X text 147 300 <-- index;
#X text 107 501 <-- trigger;
#X text 28 31 <-- clear;
#X obj 4 422 s \$0-bufin;
#N canvas 325 22 910 370 make_buffers 1;
#X obj 321 333 s pd-\$0-buffers;
#X text 669 146 \$2 = buffer index;
#X text 669 169 \$3 = buffer size;
#X text 669 193 \$4 = vertical position;
#X obj 321 154 pack \$0 f f f;
#X obj 448 114 expr $f1*130 - 120;
#X obj 472 4 inlet size;
#X msg 12 273 clear \, vis 0 \, vis 1;
#X obj 12 4 inlet reset or index;
#X obj 12 34 route bang;
#X obj 12 64 t b b;
#X obj 32 144 hcs/sys_gui;
#X msg 32 113 menu_clear_console;
#X obj 202 233 s \$0-bufset;
#X msg 202 193 bufset \$1;
#X text 669 123 \$1 = this patch's ID;
#X text 20 193 \$1 = buffer index;
#X obj 272 74 trigger a b a a;
#X msg 321 193 obj 10 \$4 linkbuffer_xyz \$1 \$2 \$3;
#X connect 4 0 18 0;
#X connect 5 0 4 3;
#X connect 6 0 4 2;
#X connect 7 0 0 0;
#X connect 8 0 9 0;
#X connect 9 0 10 0;
#X connect 9 1 17 0;
#X connect 10 0 7 0;
#X connect 10 1 12 0;
#X connect 12 0 11 0;
#X connect 14 0 13 0;
#X connect 17 0 14 0;
#X connect 17 1 4 0;
#X connect 17 2 4 1;
#X connect 17 3 5 0;
#X connect 18 0 0 0;
#X restore 4 183 pd make_buffers;
#X text -6 -20 -----------------------------;
#X text -6 249 -----------------------------;
#X text -6 449 -----------------------------;
#X text -6 -6 1) CREATE BUFFERS:;
#X text -6 263 2) POPULATE BUFFERS:;
#N canvas 109 22 468 506 make_signal 0;
#X obj -92 111 f;
#X obj -92 141 until;
#X obj -92 181 cup;
#X obj 175 441 outlet;
#X obj -92 11 inlet index;
#X msg 65 141 0;
#X obj -65 81 r \$0-s;
#X obj -92 281 trigger any any any;
#X obj 199 141 s \$0-ms;
#N canvas 658 22 295 219 randall 0;
#X obj -4 12 inlet;
#X obj -4 162 outlet;
#X obj 173 92 random 100;
#X obj -4 52 trigger any bang;
#X obj -4 122 expr $f1+($f2/150);
#X connect 0 0 3 0;
#X connect 2 0 4 1;
#X connect 3 0 4 0;
#X connect 3 1 2 0;
#X connect 4 0 1 0;
#X restore -92 241 pd randall;
#N canvas 809 22 375 137 randone 0;
#X obj -14 -18 inlet;
#X obj -14 72 outlet;
#X obj 223 -18 r \$0-ms;
#X obj 223 12 random 100;
#X obj -14 42 expr ($f1*$f2/400) + 0.5;
#X connect 0 0 4 0;
#X connect 2 0 3 0;
#X connect 3 0 4 1;
#X connect 4 0 1 0;
#X restore -92 321 pd randone;
#N canvas 809 22 375 137 randone 0;
#X obj -14 -18 inlet;
#X obj -14 72 outlet;
#X obj 223 -18 r \$0-ms;
#X obj 223 12 random 100;
#X obj -14 42 expr ($f1*$f2/400) + 0.5;
#X connect 0 0 4 0;
#X connect 2 0 3 0;
#X connect 3 0 4 1;
#X connect 4 0 1 0;
#X restore 18 321 pd randone;
#N canvas 809 22 375 137 randone 0;
#X obj -14 -18 inlet;
#X obj -14 72 outlet;
#X obj 223 -18 r \$0-ms;
#X obj 223 12 random 100;
#X obj -14 42 expr ($f1*$f2/400) + 0.5;
#X connect 0 0 4 0;
#X connect 2 0 3 0;
#X connect 3 0 4 1;
#X connect 4 0 1 0;
#X restore 128 321 pd randone;
#X obj -92 41 trigger bang any;
#X obj 46 181 r \$0-s;
#X obj -92 212 expr sin($f1*6.28*$f3*2/$f2);
#X obj -59 361 pack float float float;
#X obj 175 411 list prepend;
#X obj 65 81 trigger bang any bang a;
#X connect 0 0 1 0;
#X connect 1 0 2 0;
#X connect 2 0 15 0;
#X connect 4 0 13 0;
#X connect 5 0 2 0;
#X connect 6 0 0 1;
#X connect 7 0 10 0;
#X connect 7 1 11 0;
#X connect 7 2 12 0;
#X connect 9 0 7 0;
#X connect 10 0 16 0;
#X connect 11 0 16 1;
#X connect 12 0 16 2;
#X connect 13 0 0 0;
#X connect 13 1 18 0;
#X connect 14 0 15 1;
#X connect 15 0 9 0;
#X connect 16 0 17 0;
#X connect 17 0 3 0;
#X connect 18 0 5 0;
#X connect 18 1 15 2;
#X connect 18 2 8 0;
#X connect 18 3 17 1;
#X restore 4 352 pd make_signal;
#X msg 4 382 \$1 \$2 \$3 \$4;
#X text 174 338 \$1 = index;
#X text 174 384 \$3 = y;
#X text 174 361 \$2 = x;
#X text 174 408 \$4 = z;
#X msg 151 146 40;
#X connect 1 0 9 0;
#X connect 2 0 9 0;
#X connect 3 0 9 0;
#X connect 4 0 5 0;
#X connect 7 0 6 0;
#X connect 9 0 21 0;
#X connect 9 1 33 0;
#X connect 10 0 27 0;
#X connect 11 0 27 0;
#X connect 12 0 27 0;
#X connect 13 0 21 0;
#X connect 27 0 28 0;
#X connect 28 0 20 0;
#X connect 33 0 21 1;
#X connect 33 0 14 0;
