#N canvas 646 23 488 554 12;
#N canvas 264 39 124 718 test 0;
#X coords 0 -1 1 1 200 200 1;
#X restore 236 319 pd test;
#X obj 72 229 pack f f;
#X floatatom 22 229 5 0 0 0 - - -;
#X obj 75 189 hsl 128 15 10 200 0 0 empty empty empty -2 -8 0 10 -262144
-1 -1 12700 1;
#X msg 72 259 \; pd-test donecanvasdialog 1 -1 2 0 -1 1 1 \$1 \$2 0
0;
#X msg 72 349 \; pd-test vis \$1;
#X obj 72 319 tgl 15 0 empty empty empty 17 7 0 10 -262144 -1 -1 0
1;
#X text 19 -7 donecanvasdialog parameters:;
#X text 19 13 <x-units> <y-units> <gop> <x-from> <y-from> <x-to> <y-to>
<x-size> <y-size> <x-margin> <y-margin>;
#X text 19 53 All these values are also available in "Properties" dialog
of canvas. The <gop> parameter (graphic on parent) can have 3 values:
;
#X text 79 103 0 = GOP off;
#X text 79 143 2 = GOP on & hide object name and parameters;
#X text 79 123 1 = GOP on & show object name and parameters;
#X connect 1 0 4 0;
#X connect 3 0 2 0;
#X connect 3 0 1 1;
#X connect 3 0 1 0;
#X connect 6 0 5 0;
