#N canvas 0 22 472 239 12;
#X obj 54 27 vsl 10 60 0 50 0 0 empty empty empty 0 -9 0 10 -262144
-1 -1 0 1;
#X floatatom 54 92 3 0 0 0 - - -;
#X obj 79 27 vsl 10 60 0 50 0 0 empty empty empty 0 -9 0 10 -262144
-1 -1 0 1;
#X floatatom 79 92 3 0 0 0 - - -;
#X obj 104 27 vsl 10 60 0 50 0 0 empty empty empty 0 -9 0 10 -262144
-1 -1 0 1;
#X floatatom 104 92 3 0 0 0 - - -;
#X floatatom 229 84 2 0 0 0 - #0-learned_n #0-learned_n_snd;
#X text 54 46 1;
#X text 79 46 2;
#X text 104 46 3;
#X obj 29 27 vsl 10 60 0 50 0 0 \$0-clth \$0-init_clth empty 0 -9 0
10 -228856 -258113 -1 944 0;
#X obj 3 27 vsl 10 60 0 50 0 0 \$0-ukth \$0-init_ukth empty 0 -9 0
10 -191407 -258113 -1 5310 0;
#X text 29 21 c;
#X text 29 36 l;
#X text 29 47 a;
#X text 29 58 s;
#X text 29 70 s;
#X floatatom 3 92 3 0 0 0 - - -;
#X floatatom 29 92 3 0 0 0 - - -;
#X obj 54 -111 inlet xyz signal;
#X obj 129 27 vsl 10 60 0 50 0 0 empty empty empty 0 -9 0 10 -262144
-1 -1 0 1;
#X floatatom 129 92 3 0 0 0 - - -;
#X obj 154 27 vsl 10 60 0 50 0 0 empty empty empty 0 -9 0 10 -262144
-1 -1 0 1;
#X floatatom 154 92 3 0 0 0 - - -;
#X text 129 46 4;
#X text 3 36 n;
#X text 3 46 e;
#X text 3 57 w;
#X text 154 46 5;
#X obj 303 94 outlet;
#X obj 353 94 outlet;
#X obj 403 94 outlet;
#N canvas 770 284 232 330 set 0;
#X obj 15 156 s \$0-init_ukth;
#X obj -25 196 s \$0-init_clth;
#X obj 15 6 loadbang;
#X obj -45 46 bng 15 250 50 0 empty empty empty 17 7 0 10 -262144 -1
-1;
#X obj -45 285 s \$0-set_wl_rcv;
#X obj -45 225 del;
#X msg -45 256 1000;
#X msg 15 126 45;
#X msg -25 166 8;
#X obj -45 6 inlet;
#X obj 15 86 s \$0-onn_reset;
#X connect 2 0 3 0;
#X connect 3 0 7 0;
#X connect 3 0 8 0;
#X connect 3 0 5 0;
#X connect 3 0 10 0;
#X connect 5 0 6 0;
#X connect 6 0 4 0;
#X connect 7 0 0 0;
#X connect 8 0 1 0;
#X connect 9 0 3 0;
#X restore 383 -81 pd set;
#X text 2 5 thres.;
#X obj 174 4 cnv 15 64 16 empty empty 1NN_3D_5 0 10 1 14 -262144 -128992
0;
#X obj 229 60 bng 16 250 50 0 empty \$0-newg empty 17 7 0 10 -99865
-4034 -1;
#X obj 383 -111 inlet reset;
#X text 176 83 learned;
#X text 203 59 new;
#X obj 353 9 r \$0-class;
#X floatatom 229 32 2 0 0 0 - #0-class #0-class_foo;
#X text 169 32 detected;
#X text 55 5 ----classes----;
#N canvas 119 193 844 553 1NN-5_classes 0;
#X obj -486 493 outlet;
#X obj -366 493 outlet;
#X obj -246 493 outlet;
#X obj -603 492 s \$0-class;
#X obj -126 493 outlet;
#X obj -6 493 outlet;
#X obj -613 13 inlet;
#X obj -613 53 s \$0-xyz_ml;
#X obj -214 273 cup;
#X obj -186 13 r \$0-m1_tgl;
#X obj -313 133 spigot;
#X msg 83 173 0;
#X obj -289 313 select 1 2 3 4 5;
#X obj -313 223 once;
#X obj -281 193 delay;
#X obj -249 163 r \$0-set_wl_rcv;
#X obj -313 163 t b b;
#N canvas 912 412 359 488 unkown_th 0;
#X obj 45 433 outlet;
#X obj 192 313 r \$0-lastg;
#X msg 192 343 0;
#X obj 242 433 s \$0-unknowng;
#X obj 45 313 spigot;
#X obj 242 393 spigot;
#X msg 72 213 0;
#X msg 122 213 1;
#X obj 45 133 average 10;
#X obj 172 253 trigger b a a;
#N canvas 652 573 133 163 ukth 0;
#X obj 10 42 moses;
#X msg 57 72 1;
#X obj 10 12 inlet;
#X obj 57 122 outlet;
#X msg 10 72 0;
#X obj 57 12 r \$0-ukth;
#X connect 0 0 4 0;
#X connect 0 1 1 0;
#X connect 1 0 3 0;
#X connect 2 0 0 0;
#X connect 4 0 3 0;
#X connect 5 0 0 1;
#X connect 5 0 1 0;
#X restore 7 43 pd ukth;
#X obj 7 13 inlet;
#X obj 182 213 s \$0-init_ukth;
#X obj 182 173 bang;
#X obj 67 13 inlet;
#X obj 127 13 inlet;
#X obj 187 13 inlet;
#X obj 246 13 inlet;
#X obj 45 93 expr $f1+$f2+$f3+$f4+$f5;
#X obj 172 133 r \$0-m1_tgl;
#X obj 45 173 select 5;
#N canvas 652 573 133 163 ukth 0;
#X obj 10 42 moses;
#X msg 57 72 1;
#X obj 10 12 inlet;
#X obj 57 122 outlet;
#X msg 10 72 0;
#X obj 57 12 r \$0-ukth;
#X connect 0 0 4 0;
#X connect 0 1 1 0;
#X connect 1 0 3 0;
#X connect 2 0 0 0;
#X connect 4 0 3 0;
#X connect 5 0 0 1;
#X connect 5 0 1 0;
#X restore 67 43 pd ukth;
#N canvas 652 573 133 163 ukth 0;
#X obj 10 42 moses;
#X msg 57 72 1;
#X obj 10 12 inlet;
#X obj 57 122 outlet;
#X msg 10 72 0;
#X obj 57 12 r \$0-ukth;
#X connect 0 0 4 0;
#X connect 0 1 1 0;
#X connect 1 0 3 0;
#X connect 2 0 0 0;
#X connect 4 0 3 0;
#X connect 5 0 0 1;
#X connect 5 0 1 0;
#X restore 127 43 pd ukth;
#N canvas 652 573 133 163 ukth 0;
#X obj 10 42 moses;
#X msg 57 72 1;
#X obj 10 12 inlet;
#X obj 57 122 outlet;
#X msg 10 72 0;
#X obj 57 12 r \$0-ukth;
#X connect 0 0 4 0;
#X connect 0 1 1 0;
#X connect 1 0 3 0;
#X connect 2 0 0 0;
#X connect 4 0 3 0;
#X connect 5 0 0 1;
#X connect 5 0 1 0;
#X restore 187 43 pd ukth;
#N canvas 652 573 133 163 ukth 0;
#X obj 10 42 moses;
#X msg 57 72 1;
#X obj 10 12 inlet;
#X obj 57 122 outlet;
#X msg 10 72 0;
#X obj 57 12 r \$0-ukth;
#X connect 0 0 4 0;
#X connect 0 1 1 0;
#X connect 1 0 3 0;
#X connect 2 0 0 0;
#X connect 4 0 3 0;
#X connect 5 0 0 1;
#X connect 5 0 1 0;
#X restore 246 43 pd ukth;
#X connect 1 0 2 0;
#X connect 2 0 5 1;
#X connect 4 0 0 0;
#X connect 4 0 5 0;
#X connect 4 0 6 0;
#X connect 5 0 3 0;
#X connect 6 0 4 1;
#X connect 7 0 4 1;
#X connect 8 0 20 0;
#X connect 9 0 4 0;
#X connect 9 1 4 1;
#X connect 9 2 5 1;
#X connect 10 0 18 0;
#X connect 11 0 10 0;
#X connect 13 0 12 0;
#X connect 14 0 21 0;
#X connect 15 0 22 0;
#X connect 16 0 23 0;
#X connect 17 0 24 0;
#X connect 18 0 8 0;
#X connect 19 0 9 0;
#X connect 19 0 13 0;
#X connect 20 0 4 0;
#X connect 20 1 7 0;
#X connect 21 0 18 1;
#X connect 22 0 18 2;
#X connect 23 0 18 3;
#X connect 24 0 18 4;
#X restore 67 463 pd unkown_th;
#X msg -114 223 1;
#X obj -313 13 r \$0-newg;
#X obj 67 493 s \$0-newg;
#X obj -137 313 s \$0-learned_n;
#X msg -274 103 1;
#X obj -186 73 trigger any bang bang;
#N canvas 540 196 393 414 findclass 0;
#X obj 17 23 inlet;
#X obj 77 23 inlet;
#X obj 137 23 inlet;
#X obj 197 23 inlet;
#X obj 256 23 inlet;
#X obj 17 333 outlet;
#X obj 17 273 list-findmin;
#X obj 98 212 loadbang;
#X msg 98 243 5;
#X obj 17 183 pack f f f f f;
#X obj 17 133 moses;
#X obj 77 133 moses;
#X obj 137 133 moses;
#X obj 197 133 moses;
#X obj 256 133 moses;
#X obj 316 53 r \$0-clth;
#X obj 17 303 change;
#X connect 0 0 10 0;
#X connect 1 0 11 0;
#X connect 2 0 12 0;
#X connect 3 0 13 0;
#X connect 4 0 14 0;
#X connect 6 0 16 0;
#X connect 7 0 8 0;
#X connect 8 0 6 1;
#X connect 9 0 6 0;
#X connect 10 0 9 0;
#X connect 11 0 9 1;
#X connect 12 0 9 2;
#X connect 13 0 9 3;
#X connect 14 0 9 4;
#X connect 15 0 14 1;
#X connect 15 0 13 1;
#X connect 15 0 12 1;
#X connect 15 0 11 1;
#X connect 15 0 10 1;
#X connect 16 0 5 0;
#X restore -603 452 pd findclass;
#X obj -486 373 posedist_xyz \$0;
#X obj -366 373 posedist_xyz \$0;
#X obj -246 373 posedist_xyz \$0;
#X obj -126 373 posedist_xyz \$0;
#X obj -6 373 posedist_xyz \$0;
#X obj -86 13 r \$0-onn_reset;
#X msg -86 46 1;
#X connect 6 0 7 0;
#X connect 8 0 12 0;
#X connect 8 0 21 0;
#X connect 9 0 23 0;
#X connect 10 0 16 0;
#X connect 11 0 10 1;
#X connect 11 0 21 0;
#X connect 12 0 25 0;
#X connect 12 1 26 0;
#X connect 12 2 27 0;
#X connect 12 3 28 0;
#X connect 12 4 11 0;
#X connect 12 4 29 0;
#X connect 13 0 8 0;
#X connect 14 0 13 1;
#X connect 15 0 14 1;
#X connect 16 0 13 0;
#X connect 16 1 14 0;
#X connect 17 0 20 0;
#X connect 18 0 8 0;
#X connect 18 0 13 1;
#X connect 19 0 10 0;
#X connect 22 0 10 1;
#X connect 23 0 22 0;
#X connect 23 1 18 0;
#X connect 23 2 11 0;
#X connect 24 0 3 0;
#X connect 25 0 0 0;
#X connect 25 0 17 0;
#X connect 25 0 24 0;
#X connect 26 0 1 0;
#X connect 26 0 17 1;
#X connect 26 0 24 1;
#X connect 27 0 2 0;
#X connect 27 0 17 2;
#X connect 27 0 24 2;
#X connect 28 0 4 0;
#X connect 28 0 17 3;
#X connect 28 0 24 3;
#X connect 29 0 5 0;
#X connect 29 0 17 4;
#X connect 29 0 24 4;
#X connect 30 0 31 0;
#X connect 31 0 23 0;
#X restore 54 -51 pd 1NN-5_classes;
#X obj 181 -111 inlet segmentation boundary;
#X obj 181 -81 s \$0-segbound;
#X connect 0 0 1 0;
#X connect 2 0 3 0;
#X connect 4 0 5 0;
#X connect 10 0 18 0;
#X connect 11 0 17 0;
#X connect 19 0 43 0;
#X connect 20 0 21 0;
#X connect 22 0 23 0;
#X connect 36 0 32 0;
#X connect 39 0 29 0;
#X connect 39 0 30 0;
#X connect 39 0 31 0;
#X connect 43 0 0 0;
#X connect 43 1 2 0;
#X connect 43 2 4 0;
#X connect 43 3 20 0;
#X connect 43 4 22 0;
#X connect 44 0 45 0;
#X coords 0 -1 1 1 246 116 2 1 1;
