#N canvas 699 39 547 680 12;
#X obj 150 39 inlet;
#X floatatom 60 100 5 0 0 0 - - -;
#X obj 7 129 metro 10;
#X msg 100 70 100;
#X msg 60 70 10;
#X obj 7 69 tgl 15 0 empty empty empty 17 7 0 10 -262144 -1 -1 0 1
;
#X obj 299 229 vsl 15 128 0.1 10 0 0 empty empty threshold 18 60 0
10 -262144 -1 -1 385 1;
#X floatatom 299 371 5 0 0 0 - - -;
#X obj 180 230 vsl 15 128 0 10 0 0 empty empty acceleration 18 60 0
10 -262144 -1 -1 0 1;
#X floatatom 180 370 5 0 0 0 - - -;
#X obj 150 121 delta 2;
#X obj 7 221 write_table;
#X obj 228 478 change;
#X msg 228 450 0;
#X msg 281 450 1;
#X obj 228 508 select 1;
#X obj 228 598 spigot;
#X obj 347 628 delay;
#X msg 317 571 1;
#X msg 267 571 0;
#X obj 64 598 spigot;
#X msg 143 571 1;
#X msg 103 571 0;
#X obj 439 328 tgl 15 0 empty empty empty 17 7 0 10 -262144 -1 -1 0
1;
#X obj 148 508 tgl 15 0 empty empty empty 17 7 0 10 -262144 -1 -1 1
1;
#X obj 64 528 spigot;
#X obj 64 628 outlet value;
#X obj 64 448 pipe 10;
#X floatatom 17 629 5 0 0 0 - - -;
#X obj 64 478 average 30;
#X obj 150 69 abs;
#X obj 228 370 moses 0.1;
#X obj 268 538 loadbang;
#X obj 148 478 metro 10;
#X obj 299 41 inlet;
#X obj 379 41 inlet;
#X text 379 18 window;
#X obj 180 189 abs;
#X obj 230 39 inlet;
#X text 230 18 scale;
#X obj 180 159 * 1;
#X obj 449 268 loadbang;
#X msg 449 298 1;
#X obj 439 41 inlet on/off;
#X text 147 18 signal;
#X text 286 18 threshold;
#X connect 0 0 30 0;
#X connect 1 0 2 1;
#X connect 2 0 11 0;
#X connect 3 0 1 0;
#X connect 4 0 1 0;
#X connect 5 0 2 0;
#X connect 6 0 7 0;
#X connect 6 0 31 1;
#X connect 8 0 9 0;
#X connect 8 0 27 0;
#X connect 8 0 31 0;
#X connect 10 0 40 0;
#X connect 12 0 15 0;
#X connect 13 0 12 0;
#X connect 14 0 12 0;
#X connect 15 0 16 0;
#X connect 16 0 17 0;
#X connect 16 0 19 0;
#X connect 16 0 21 0;
#X connect 17 0 18 0;
#X connect 18 0 16 1;
#X connect 19 0 16 1;
#X connect 20 0 22 0;
#X connect 20 0 28 0;
#X connect 20 0 26 0;
#X connect 21 0 20 1;
#X connect 22 0 20 1;
#X connect 23 0 33 0;
#X connect 24 0 25 1;
#X connect 25 0 20 0;
#X connect 27 0 29 0;
#X connect 29 0 25 0;
#X connect 30 0 10 0;
#X connect 31 0 13 0;
#X connect 31 1 14 0;
#X connect 32 0 18 0;
#X connect 33 0 24 0;
#X connect 34 0 6 0;
#X connect 35 0 17 1;
#X connect 37 0 11 1;
#X connect 37 0 8 0;
#X connect 38 0 40 1;
#X connect 40 0 37 0;
#X connect 41 0 42 0;
#X connect 42 0 23 0;
#X connect 43 0 23 0;
