#N canvas 140 36 526 758 16;
#X text -182 6 detect period and tempo from accelerometer signal;
#X obj -190 662 outlet period;
#X obj -27 662 outlet tempo;
#X obj 128 64 inlet sensitivity;
#X obj -187 355 moses;
#X obj -140 405 once;
#X obj -190 501 taptime;
#X obj -180 629 s \$0-t;
#X obj -123 589 confine 24 240;
#X obj 183 662 outlet beat;
#X obj -140 224 i;
#X obj -140 324 +;
#X obj 178 294 /;
#X obj -140 104 average 10;
#X msg 128 134 0;
#X obj 128 104 select 0;
#X obj 128 164 s \$0-t;
#X text 24 589 perceivable tempo range;
#X text -123 700 Juan Ignacio Mendoza Garay - 2018;
#X obj -140 194 poll 1000;
#X text -129 355 dynamic threshold;
#X obj -140 254 t a a;
#X text 82 123 stop;
#X text 82 143 poll;
#X text -182 26 signal has to be integers greater than 1;
#X obj -53 134 r \$0-t;
#X obj -53 164 moses 1000;
#X obj -123 551 average 4;
#X obj -140 435 interrupt 250;
#X text -1 434 prevent taps > 240 bpm;
#X obj -187 64 inlet absolute acceleration;
#X text -101 322 add headroom;
#X connect 3 0 15 0;
#X connect 4 0 5 1;
#X connect 4 1 5 0;
#X connect 5 0 28 0;
#X connect 6 0 7 0;
#X connect 6 0 1 0;
#X connect 6 1 27 0;
#X connect 8 0 2 0;
#X connect 10 0 21 0;
#X connect 11 0 4 1;
#X connect 12 0 11 1;
#X connect 13 0 19 0;
#X connect 14 0 16 0;
#X connect 15 0 14 0;
#X connect 15 1 12 1;
#X connect 19 0 10 0;
#X connect 21 0 11 0;
#X connect 21 1 12 0;
#X connect 25 0 26 0;
#X connect 26 0 19 1;
#X connect 27 0 8 0;
#X connect 28 0 6 0;
#X connect 28 0 9 0;
#X connect 30 0 4 0;
#X connect 30 0 13 0;
#X coords 0 0 1 1 48 46 0;
