#N canvas 387 93 488 564 16;
#X obj 5 7 inlet;
#X text 66 514 Juan Ignacio Mendoza Garay - 2021;
#N canvas 190 129 1084 545 sins 0;
#X obj 16 409 throw~ \$0-a_out;
#X msg 16 325 \$1 \$2 \$3 \$4;
#X obj 16 366 sin_core;
#X obj 16 285 pack f f f f;
#X obj 16 135 unpack f f f f;
#X obj 16 175 * 1;
#X obj 55 185 * 1;
#X obj 94 215 * 1;
#X obj 133 245 * 1;
#X obj 16 95 r \$0-par_list;
#X obj 226 409 throw~ \$0-a_out;
#X msg 226 325 \$1 \$2 \$3 \$4;
#X obj 226 366 sin_core;
#X obj 226 285 pack f f f f;
#X obj 226 135 unpack f f f f;
#X obj 226 95 r \$0-par_list;
#X obj 406 409 throw~ \$0-a_out;
#X msg 406 325 \$1 \$2 \$3 \$4;
#X obj 406 366 sin_core;
#X obj 406 285 pack f f f f;
#X obj 406 135 unpack f f f f;
#X obj 484 215 * 1;
#X obj 406 95 r \$0-par_list;
#X obj 445 185 * 0.7;
#X obj 606 409 throw~ \$0-a_out;
#X msg 606 325 \$1 \$2 \$3 \$4;
#X obj 606 366 sin_core;
#X obj 606 285 pack f f f f;
#X obj 606 135 unpack f f f f;
#X obj 684 215 * 1;
#X obj 606 95 r \$0-par_list;
#X obj 723 246 * 0.1;
#X obj 226 175 * 5;
#X obj 406 175 * 6;
#X obj 523 246 * 0.1;
#X obj 15 57 s \$0-par_list;
#X obj 15 17 inlet;
#X obj 14 458 catch~ \$0-a_out;
#X obj 14 498 outlet~;
#X text 84 16 f \, A \, att.T \, dec.T;
#X obj 343 246 * 0.5;
#X obj 265 185 * 0.3;
#X obj 606 175 * 7;
#X obj 646 185 * 0.7;
#X obj 796 409 throw~ \$0-a_out;
#X msg 796 325 \$1 \$2 \$3 \$4;
#X obj 796 366 sin_core;
#X obj 796 285 pack f f f f;
#X obj 796 135 unpack f f f f;
#X obj 796 95 r \$0-par_list;
#X obj 796 175 * 8;
#X obj 913 246 * 0.9;
#X obj 304 215 * 0.3;
#X obj 874 215 * 10;
#X obj 836 185 * 0.3;
#X connect 1 0 2 0;
#X connect 2 0 0 0;
#X connect 3 0 1 0;
#X connect 4 0 5 0;
#X connect 4 1 6 0;
#X connect 4 2 7 0;
#X connect 4 3 8 0;
#X connect 5 0 3 0;
#X connect 6 0 3 1;
#X connect 7 0 3 2;
#X connect 8 0 3 3;
#X connect 9 0 4 0;
#X connect 11 0 12 0;
#X connect 12 0 10 0;
#X connect 13 0 11 0;
#X connect 14 0 32 0;
#X connect 14 1 41 0;
#X connect 14 3 40 0;
#X connect 14 3 52 0;
#X connect 15 0 14 0;
#X connect 17 0 18 0;
#X connect 18 0 16 0;
#X connect 19 0 17 0;
#X connect 20 0 33 0;
#X connect 20 1 23 0;
#X connect 20 2 21 0;
#X connect 20 3 34 0;
#X connect 21 0 19 2;
#X connect 22 0 20 0;
#X connect 23 0 19 1;
#X connect 25 0 26 0;
#X connect 26 0 24 0;
#X connect 27 0 25 0;
#X connect 28 0 42 0;
#X connect 28 1 43 0;
#X connect 28 2 29 0;
#X connect 28 3 31 0;
#X connect 29 0 27 2;
#X connect 30 0 28 0;
#X connect 31 0 27 3;
#X connect 32 0 13 0;
#X connect 33 0 19 0;
#X connect 34 0 19 3;
#X connect 36 0 35 0;
#X connect 37 0 38 0;
#X connect 40 0 13 3;
#X connect 41 0 13 1;
#X connect 42 0 27 0;
#X connect 43 0 27 1;
#X connect 45 0 46 0;
#X connect 46 0 44 0;
#X connect 47 0 45 0;
#X connect 48 0 50 0;
#X connect 48 1 54 0;
#X connect 48 2 53 0;
#X connect 48 3 51 0;
#X connect 49 0 48 0;
#X connect 50 0 47 0;
#X connect 51 0 47 3;
#X connect 52 0 13 2;
#X connect 53 0 47 2;
#X connect 54 0 47 1;
#X restore 5 117 pd sins;
#X obj 5 367 *~;
#X obj 32 257 osc~;
#X obj 32 297 *~;
#X obj 32 337 +~;
#X obj 150 257 expr $f2 - $f1;
#X obj 5 77 trigger a a;
#X obj 102 257 f;
#X obj 32 167 t a b;
#X msg 79 197 0.75;
#X obj 239 478 outlet~;
#X obj 272 408 spread~;
#X obj 339 478 outlet~;
#X obj 182 117 packel 5 6 2 8 7;
#X text 22 37 f \, A \, att.T \, dec.T \, LFOf \, LFOA \, spread \,
seed;
#X connect 0 0 8 0;
#X connect 2 0 3 0;
#X connect 3 0 13 0;
#X connect 4 0 5 0;
#X connect 5 0 6 0;
#X connect 6 0 3 1;
#X connect 7 0 6 1;
#X connect 8 0 2 0;
#X connect 8 1 15 0;
#X connect 9 0 5 1;
#X connect 10 0 4 0;
#X connect 10 1 11 0;
#X connect 11 0 4 1;
#X connect 13 0 12 0;
#X connect 13 1 14 0;
#X connect 15 0 10 0;
#X connect 15 1 7 0;
#X connect 15 1 9 0;
#X connect 15 2 7 1;
#X connect 15 3 13 1;
#X connect 15 4 13 2;
