#N canvas 674 22 346 544 12;
#X obj 12 275 *~;
#X obj 157 55 select 0 1;
#X obj 12 15 inlet~;
#X obj 12 305 outlet~ bypass;
#X obj 172 305 outlet~ on;
#X obj 172 275 *~;
#X text 203 94 0 = bypass;
#X text 203 114 1 = on;
#X text 13 385 to either of two outlets.;
#X text 13 405 However \, the spigot~ object switches the;
#X text 13 425 signals instantaneously.;
#X text 13 445 This patch has line~ objects that switch the;
#X text 13 465 signals smoothly.;
#X text 13 365 The spigot~ object also sends an audio signal;
#X text 77 505 Juan Ignacio Mendoza - 2016;
#X obj 157 15 inlet bypass/on;
#X msg 30 205 1 200;
#X msg 80 205 0 200;
#X obj 30 245 vline~;
#X obj 190 245 vline~;
#X msg 190 205 1 200;
#X msg 240 205 0 200;
#X connect 0 0 3 0;
#X connect 1 0 16 0;
#X connect 1 0 21 0;
#X connect 1 1 17 0;
#X connect 1 1 20 0;
#X connect 2 0 0 0;
#X connect 2 0 5 0;
#X connect 5 0 4 0;
#X connect 15 0 1 0;
#X connect 16 0 18 0;
#X connect 17 0 18 0;
#X connect 18 0 0 1;
#X connect 19 0 5 1;
#X connect 20 0 19 0;
#X connect 21 0 19 0;
#X coords 0 0 1 1 98 142 0;
