#N canvas 207 22 812 435 12;
#X obj 662 169 spigot~;
#X obj 642 139 *~;
#X obj 708 199 pvu~;
#X obj 642 338 outlet~;
#X msg 582 266 clear;
#X msg 184 169 1;
#X obj 132 69 t b f;
#X obj 132 139 spigot;
#X obj 552 79 route 1 0;
#X msg 184 99 set \$1;
#N canvas 67 414 162 93 \$0-audio_in_dyn 0;
#X restore 642 39 pd \$0-audio_in_dyn;
#X obj 482 308 s pd-\$0-audio_in_dyn;
#X obj 552 39 r \$0-onoff;
#X obj 708 139 r \$0-VU_onoff;
#X obj 708 229 s \$0-VU_sig;
#X obj 184 199 pack f \$0;
#X msg 184 249 clear \, obj 1 1 adc~ \$1 \, obj 1 50 throw~ \$2-audio_in
\, connect 0 0 1 0;
#X obj 642 79 catch~ \$0-audio_in;
#N canvas 0 23 242 320 VU_switch 0;
#X obj 62 114 tgl 15 0 empty empty empty 17 7 0 10 -262144 -1 -1 0
1;
#X obj -18 84 bang;
#X obj 62 174 select 0 1;
#X msg -18 224 color 20 22 22;
#X obj -18 -16 r \$0-VU_sw_snd;
#X obj 82 144 s \$0-VU_onoff;
#X obj 95 264 s \$0-VU_sw_rcv;
#X msg 95 224 color 22 6 6;
#X obj 62 14 r \$0-onoff;
#X obj -18 54 spigot;
#X connect 0 0 2 0;
#X connect 0 0 5 0;
#X connect 1 0 0 0;
#X connect 2 0 3 0;
#X connect 2 1 7 0;
#X connect 3 0 6 0;
#X connect 4 0 9 0;
#X connect 7 0 6 0;
#X connect 8 0 9 1;
#X connect 8 0 0 0;
#X connect 9 0 1 0;
#X restore 1 245 pd VU_switch;
#X obj 1 5 cnv 15 36 213 empty empty empty 20 12 0 14 -128992 -66577
0;
#X obj 3 28 cnv 15 32 188 empty empty IN 8 6 1 14 -1 -204786 0;
#X floatatom 10 70 3 1 64 0 - #0-channel_rcv #0-channel_snd;
#X obj 9 47 vradio 20 1 0 1 \$0-onoff_sw_snd \$0-onoff_sw_rcv empty
0 -8 0 10 -195568 -1 -1 0;
#X obj 9 191 vradio 20 1 1 1 \$0-VU_sw_snd \$0-VU_sw_rcv empty 0 -8
0 10 -195568 -1 -1 0;
#X obj 6 96 cnv 15 27 88 empty empty empty 20 12 0 14 -162280 -66577
0;
#X obj 19 100 vsl 12 79 0.01 1 1 0 \$0-level_snd \$0-level_rcv empty
0 -9 0 10 -33289 -228856 -1 0 1;
#X obj 9 100 vu 8 80 \$0-VU_sig empty -1 -8 0 10 -13381 -1 0 0;
#X text 2 -60 AUDIO IN;
#X obj 132 39 r \$0-channel_snd;
#X obj 282 39 s \$0-channel_rcv;
#X obj 312 -21 loadbang;
#X obj 3 7 cnv 15 32 20 empty empty AUDIO 4 14 1 8 -1 -204786 0;
#X obj 29 69 cnv 5 5 20 empty empty empty 4 14 1 8 -1 -204786 0;
#X obj 642 -11 s \$0-inlet_sw;
#X obj 642 -52 inlet on/off;
#X obj 282 -52 inlet channel;
#X text 41 48 on/off;
#X text 41 68 channel in;
#X text 41 128 VU | fader;
#X text 41 193 VU on/off;
#N canvas 413 476 269 287 on/off_switch 0;
#X obj 12 74 tgl 15 0 empty empty empty 17 7 0 10 -262144 -1 -1 0 1
;
#X obj 12 44 bang;
#X obj 12 134 select 0 1;
#X msg 12 194 color 20 22 22;
#X msg 125 194 color 22 16 16;
#X obj 22 104 s \$0-onoff;
#X obj 12 14 r \$0-onoff_sw_snd;
#X obj 125 234 s \$0-onoff_sw_rcv;
#X obj 62 44 r \$0-inlet_sw;
#X connect 0 0 2 0;
#X connect 0 0 5 0;
#X connect 1 0 0 0;
#X connect 2 0 3 0;
#X connect 2 1 4 0;
#X connect 3 0 7 0;
#X connect 4 0 7 0;
#X connect 6 0 1 0;
#X connect 8 0 0 0;
#X restore 1 -21 pd on/off_switch;
#X text 184 339 Juan Ignacio Mendoza - 2016;
#X msg 312 9 1;
#X obj 442 -52 inlet level;
#X obj 660 109 r \$0-level_snd;
#X obj 442 -11 s \$0-level_rcv;
#X connect 0 1 2 0;
#X connect 1 0 0 0;
#X connect 1 0 3 0;
#X connect 2 0 14 0;
#X connect 4 0 11 0;
#X connect 5 0 15 0;
#X connect 6 0 7 0;
#X connect 6 1 9 0;
#X connect 7 0 5 0;
#X connect 8 0 5 0;
#X connect 8 1 4 0;
#X connect 9 0 5 0;
#X connect 12 0 7 1;
#X connect 12 0 8 0;
#X connect 13 0 0 1;
#X connect 15 0 16 0;
#X connect 16 0 11 0;
#X connect 17 0 1 0;
#X connect 28 0 6 0;
#X connect 30 0 42 0;
#X connect 34 0 33 0;
#X connect 35 0 29 0;
#X connect 42 0 29 0;
#X connect 43 0 45 0;
#X connect 44 0 1 1;
#X coords 0 -1 1 1 36 222 2 1 1;
