#N canvas 1137 349 177 201 12;
#X declare -lib mrpeach;
#X declare -lib iemmatrix;
#X declare -lib list-abs;
#X declare -lib iemmatrix;
#X declare -lib list-abs;
#X declare -lib iemmatrix;
#X declare -lib hexloader;
#X declare -lib iemmatrix;
#X declare -lib hexloader;
#X declare -lib iemmatrix;
#X declare -lib iemmatrix;
#X declare -lib iemmatrix;
#X declare -lib iemmatrix;
#X declare -lib list-abs;
#X declare -lib iemmatrix;
#X declare -lib smlib;
#X declare -lib iemmatrix;
#X declare -lib iemmatrix;
#X declare -lib hexloader;
#X declare -lib iemmatrix;
#X declare -lib iemmatrix;
#X declare -lib mrpeach;
#X declare -lib iemmatrix;
#X declare -lib iemmatrix;
#N canvas 892 22 533 284 control 1;
#X text -157 117 on/off -->;
#X text -185 149 controller -->;
#X obj 32 240 s \$0-m1_tgl;
#N canvas 312 22 517 635 test_signals 0;
#X obj 269 599 outlet tgl;
#X obj 269 62 select 0;
#X msg 269 92 0;
#X msg 322 92 1;
#X text 62 172 BPM;
#X text 233 172 fps;
#X msg 33 172 128;
#X obj 82 375 metro 50;
#X msg 82 335 1;
#X msg 42 335 0;
#X obj 33 275 s \$0-ts;
#X text 160 296 T (ms);
#X obj 135 275 expr 1000/$f1;
#X text 32 296 T (samples);
#X obj 33 215 expr 60*$f2/$f1;
#X obj 33 245 floorceil;
#X obj -14 405 cyclone/gate 4;
#X obj 46 595 outlet acc_xyz;
#N canvas 299 160 347 321 plain 0;
#X obj 25 274 outlet;
#X obj 45 14 inlet;
#X obj 155 14 inlet;
#X msg 45 124 0.1 0.3 0.7;
#X obj 85 274 outlet;
#X obj 145 274 outlet;
#X obj 45 234 unpack f f f;
#X obj 45 204 list-add;
#X obj -75 14 inlet;
#X obj -75 54 select 1 2;
#X msg -42 94 8;
#N canvas 0 22 431 581 impulse 0;
#X msg 23 503 \$1 \$1 \$1;
#X obj 173 303 mod;
#X obj 173 373 abs;
#X obj 173 343 -;
#X obj 23 243 cup;
#X obj 23 273 select;
#X msg 23 303 0;
#X obj 308 223 spigot;
#X obj 266 453 /;
#X obj 98 114 t b a;
#X msg 347 193 1;
#X obj 98 84 / -4;
#X obj 126 214 +;
#X obj 237 303 / 2;
#X obj 93 414 +;
#X obj 98 14 inlet length;
#X obj 308 14 inlet bangs;
#X obj 98 54 trigger any any any any any;
#X obj 23 174 trigger a a a;
#X obj 23 543 outlet;
#X connect 0 0 19 0;
#X connect 1 0 3 0;
#X connect 2 0 14 0;
#X connect 3 0 2 0;
#X connect 4 0 5 0;
#X connect 5 0 6 0;
#X connect 5 1 1 0;
#X connect 6 0 0 0;
#X connect 6 0 7 1;
#X connect 7 0 4 0;
#X connect 8 0 0 0;
#X connect 9 0 10 0;
#X connect 9 1 18 0;
#X connect 10 0 7 1;
#X connect 11 0 9 0;
#X connect 12 0 5 1;
#X connect 13 0 3 1;
#X connect 14 0 8 0;
#X connect 15 0 17 0;
#X connect 16 0 7 0;
#X connect 17 0 11 0;
#X connect 17 1 12 1;
#X connect 17 2 1 1;
#X connect 17 3 13 0;
#X connect 17 4 8 1;
#X connect 18 0 4 0;
#X connect 18 1 12 0;
#X connect 18 2 14 1;
#X restore -42 124 pd impulse;
#X text -92 94 length;
#X msg 155 124 0.8 0.5 0.2;
#X connect 1 0 3 0;
#X connect 1 0 11 1;
#X connect 2 0 13 0;
#X connect 2 0 11 1;
#X connect 3 0 7 0;
#X connect 6 0 0 0;
#X connect 6 1 4 0;
#X connect 6 2 5 0;
#X connect 7 0 6 0;
#X connect 8 0 9 0;
#X connect 9 0 10 0;
#X connect 9 1 10 0;
#X connect 10 0 11 0;
#X connect 11 0 7 1;
#X connect 13 0 7 0;
#X restore -40 455 pd plain;
#N canvas 274 232 389 394 noise 0;
#X obj 17 20 inlet;
#X obj 104 325 outlet;
#X obj 137 20 inlet;
#X obj 257 20 inlet;
#X obj 104 285 pack f f f;
#X obj 49 110 + 1;
#X obj 49 140 / 1000;
#X obj 17 50 t a b;
#X obj 17 170 +;
#X obj 169 110 + 1;
#X obj 169 140 / 1000;
#X obj 137 50 t a b;
#X obj 137 170 +;
#X obj 289 110 + 1;
#X obj 289 140 / 1000;
#X obj 257 50 t a b;
#X obj 257 170 +;
#X obj 169 80 random 29;
#X obj 289 80 random 29;
#X obj 17 210 average 2;
#X obj 137 210 average 2;
#X obj 257 210 average 2;
#X obj 49 80 random 29;
#X connect 0 0 7 0;
#X connect 2 0 11 0;
#X connect 3 0 15 0;
#X connect 4 0 1 0;
#X connect 5 0 6 0;
#X connect 6 0 8 1;
#X connect 7 0 8 0;
#X connect 7 1 22 0;
#X connect 8 0 19 0;
#X connect 9 0 10 0;
#X connect 10 0 12 1;
#X connect 11 0 12 0;
#X connect 11 1 17 0;
#X connect 12 0 20 0;
#X connect 13 0 14 0;
#X connect 14 0 16 1;
#X connect 15 0 16 0;
#X connect 15 1 18 0;
#X connect 16 0 21 0;
#X connect 17 0 9 0;
#X connect 18 0 13 0;
#X connect 19 0 4 0;
#X connect 20 0 4 1;
#X connect 21 0 4 2;
#X connect 22 0 5 0;
#X restore 46 565 pd noise;
#X obj -67 12 inlet;
#X text -47 52 0 = stop;
#X obj -67 275 select 0;
#X text -47 72 1 = plain 1;
#X text -47 92 2 = plain 2;
#N canvas 675 44 591 495 sine 0;
#X obj 17 128 cup;
#X msg 231 98 0;
#X obj 17 18 inlet;
#X obj 76 438 outlet;
#X obj 103 218 sin;
#X obj 147 128 r \$0-ts;
#X obj 103 248 + 1;
#X obj 103 278 / 2;
#X obj 103 188 moses 6.28;
#X obj 17 158 expr $f1*6.28/($f2);
#X obj 103 308 t a a a;
#X obj 126 438 outlet;
#X obj 176 438 outlet;
#X obj 303 308 unpack f f f;
#X obj 76 398 *;
#X obj 126 398 *;
#X obj 176 398 *;
#X msg 303 248 1 0.3 0.2;
#X msg 383 248 0.4 0.2 0.9;
#X obj 383 18 inlet;
#X obj 303 98 once;
#X obj 383 98 once;
#X connect 0 0 9 0;
#X connect 1 0 0 0;
#X connect 2 0 0 0;
#X connect 2 0 20 0;
#X connect 4 0 6 0;
#X connect 5 0 9 1;
#X connect 6 0 7 0;
#X connect 7 0 10 0;
#X connect 8 0 4 0;
#X connect 8 1 1 0;
#X connect 9 0 8 0;
#X connect 10 0 14 0;
#X connect 10 1 15 0;
#X connect 10 2 16 0;
#X connect 13 0 14 1;
#X connect 13 1 15 1;
#X connect 13 2 16 1;
#X connect 14 0 3 0;
#X connect 15 0 11 0;
#X connect 16 0 12 0;
#X connect 17 0 13 0;
#X connect 18 0 13 0;
#X connect 19 0 21 0;
#X connect 19 0 0 0;
#X connect 20 0 17 0;
#X connect 20 0 21 1;
#X connect 21 0 18 0;
#X connect 21 0 20 1;
#X restore 49 455 pd sine;
#X floatatom 195 172 5 0 0 0 - - -;
#X obj 163 92 r \$0-fps;
#X obj 163 122 t b a;
#X text -47 112 3 = sine 1;
#X text -47 132 4 = sine 2;
#X connect 1 0 2 0;
#X connect 1 1 3 0;
#X connect 2 0 0 0;
#X connect 3 0 0 0;
#X connect 6 0 14 0;
#X connect 7 0 16 1;
#X connect 8 0 7 0;
#X connect 9 0 7 0;
#X connect 12 0 7 1;
#X connect 14 0 15 0;
#X connect 15 0 10 0;
#X connect 16 0 18 1;
#X connect 16 1 18 2;
#X connect 16 2 25 0;
#X connect 16 3 25 1;
#X connect 18 0 19 0;
#X connect 18 1 19 1;
#X connect 18 2 19 2;
#X connect 19 0 17 0;
#X connect 20 0 1 0;
#X connect 20 0 22 0;
#X connect 22 0 9 0;
#X connect 22 1 8 0;
#X connect 22 1 16 0;
#X connect 22 1 18 0;
#X connect 25 0 19 0;
#X connect 25 1 19 1;
#X connect 25 2 19 2;
#X connect 26 0 12 0;
#X connect 26 0 14 1;
#X connect 27 0 28 0;
#X connect 28 0 6 0;
#X connect 28 1 26 0;
#X restore 20 150 pd test_signals;
#X obj 212 122 bng 15 250 50 0 empty empty empty 17 7 0 10 -262144
-1 -1;
#X text 229 125 reset;
#X obj 20 122 hradio 15 1 0 5 empty empty empty 0 -8 0 10 -262144 -1
-1 0;
#X obj 212 240 s \$0-M_reset;
#X msg 20 67 0;
#X obj 146 240 s \$0-fps;
#X text 229 112 Master;
#N canvas 0 23 156 215 key 0;
#X obj 19 20 key;
#X obj 19 50 spigot;
#X obj 58 20 inlet;
#X obj 72 140 - 48;
#X obj 19 80 moses 48;
#X obj 72 110 moses 68;
#X obj 72 170 outlet;
#X connect 0 0 1 0;
#X connect 1 0 4 0;
#X connect 2 0 1 1;
#X connect 3 0 6 0;
#X connect 4 1 5 0;
#X connect 5 0 3 0;
#X restore 80 91 pd key;
#X obj 80 71 tgl 15 0 empty empty empty 17 7 0 10 -262144 -1 -1 0 1
;
#X msg 146 150 20;
#X obj 212 10 loadbang;
#X obj -79 120 tgl 15 0 empty empty empty 17 7 0 10 -262144 -1 -1 0
1;
#N canvas 509 264 406 260 Myo_OSC 0;
#X obj 229 12 import mrpeach;
#X obj -3 12 inlet;
#N canvas 328 339 299 316 autoswitch 0;
#X obj 13 16 inlet;
#X obj 103 116 once;
#X obj 13 116 once;
#X msg 13 156 0;
#X msg 103 156 1;
#X obj 13 46 temperature 1000;
#X obj 13 76 moses 1;
#X obj 13 206 outlet tgl;
#X connect 0 0 5 0;
#X connect 1 0 2 1;
#X connect 1 0 4 0;
#X connect 2 0 1 1;
#X connect 2 0 3 0;
#X connect 3 0 7 0;
#X connect 4 0 7 0;
#X connect 5 0 6 0;
#X connect 6 0 2 0;
#X connect 6 1 1 0;
#X restore 230 172 pd autoswitch;
#X obj 230 222 outlet tgl;
#N canvas 274 361 223 280 list_poll 0;
#X obj 46 18 inlet period;
#X msg 99 108 1;
#X obj 99 78 t b a;
#X obj 46 48 select 0;
#X msg 46 108 0;
#X obj 99 138 metro;
#X obj -69 178 list;
#X obj -69 208 route bang;
#X obj -44 18 inlet list;
#X obj -2 238 outlet list;
#X connect 0 0 3 0;
#X connect 1 0 5 0;
#X connect 2 0 1 0;
#X connect 2 1 5 1;
#X connect 3 0 4 0;
#X connect 3 1 2 0;
#X connect 4 0 5 0;
#X connect 5 0 6 0;
#X connect 6 0 7 0;
#X connect 7 1 9 0;
#X connect 8 0 6 1;
#X restore -3 172 pd list_poll;
#X floatatom 229 113 5 0 0 0 - - -;
#X text 230 134 sample period (ms);
#X obj 229 72 expr 1000 / $f1;
#X obj 229 42 r \$0-fps;
#X obj 144 72 select 0 1;
#X obj 177 112 i;
#X msg 134 112 0;
#X obj -3 222 outlet raw_xyz;
#N canvas 534 23 312 419 Myo_xyz_tgl 0;
#X obj 70 176 unpackOSC;
#X obj 70 206 routeOSC /myo;
#N canvas 521 384 653 187 udp_receive 0;
#X obj 253 55 outlet;
#N canvas 1080 271 270 153 \$0-udp_prov 0;
#X obj 1 1 udpreceive 7777;
#X obj 1 50 send udprecout;
#X connect 0 0 1 0;
#X restore 73 26 pd \$0-udp_prov;
#X obj -137 26 s pd-\$0-udp_prov;
#X msg -67 -35 clear \, obj 1 1 udpreceive \$1 \, obj 1 50 send udprecout
\, connect 0 0 1 0;
#X obj 253 26 r udprecout;
#X msg -137 -35 clear;
#X obj -137 -75 inlet;
#X obj -67 -75 inlet;
#X connect 3 0 2 0;
#X connect 4 0 0 0;
#X connect 5 0 2 0;
#X connect 6 0 5 0;
#X connect 7 0 3 0;
#X restore 70 146 pd udp_receive;
#X obj 70 16 inlet on/off;
#X obj 70 76 select 0 1;
#X msg 183 77 7777;
#X obj 165 116 f;
#X obj 70 46 tgl 15 0 empty empty empty 17 7 0 10 -262144 -1 -1 0 1
;
#X obj 183 16 loadbang;
#X obj 70 376 outlet xyz;
#X obj 132 276 routeOSC /orientation;
#X obj 2 276 routeOSC /accel;
#X text 168 253 roll \, pitch \, yaw;
#X msg 132 306 \$6 \$7 \$8;
#X msg 2 306 \$2 \$3 \$4;
#X connect 0 0 1 0;
#X connect 1 0 11 0;
#X connect 2 0 0 0;
#X connect 3 0 7 0;
#X connect 4 0 2 0;
#X connect 4 1 6 0;
#X connect 5 0 6 1;
#X connect 6 0 2 1;
#X connect 7 0 4 0;
#X connect 8 0 5 0;
#X connect 10 0 13 0;
#X connect 11 0 14 0;
#X connect 13 0 9 0;
#X connect 14 0 9 0;
#X restore -3 72 pd Myo_xyz_tgl;
#X connect 1 0 13 0;
#X connect 1 0 9 0;
#X connect 2 0 3 0;
#X connect 4 0 12 0;
#X connect 7 0 10 1;
#X connect 7 0 5 0;
#X connect 8 0 7 0;
#X connect 9 0 11 0;
#X connect 9 1 10 0;
#X connect 10 0 4 1;
#X connect 11 0 4 1;
#X connect 13 0 4 0;
#X connect 13 0 2 0;
#X restore -79 150 pd Myo_OSC;
#X obj -79 240 s \$0-raw_xyz;
#X obj 20 41 r \$0-end;
#X connect 3 0 17 0;
#X connect 3 1 2 0;
#X connect 4 0 7 0;
#X connect 4 0 13 0;
#X connect 6 0 3 0;
#X connect 8 0 6 0;
#X connect 11 0 6 0;
#X connect 12 0 11 0;
#X connect 13 0 9 0;
#X connect 14 0 4 0;
#X connect 15 0 16 0;
#X connect 16 0 17 0;
#X connect 16 1 2 0;
#X connect 18 0 8 0;
#X restore 48 49 pd control;
#N canvas -88 -1177 1351 655 mapping 1;
#X obj -324 -33 novelty_3D;
#X obj -323 185 plot_xyz;
#X obj -128 155 bng 15 250 50 0 empty \$0-M_reset clear -32 7 0 10
-262144 -1 -1;
#X obj -323 352 miniplot;
#N canvas 258 204 397 104 novelty_3D_sends__________ 0;
#X obj -40 16 inlet;
#X obj 30 16 inlet;
#X obj 110 16 inlet;
#X obj 30 46 s \$0-bound;
#X obj -40 46 s \$0-nov;
#X obj 200 16 inlet;
#X obj 200 46 s \$0-nov_params;
#X obj 110 46 s \$0-rs_xyz;
#X connect 0 0 4 0;
#X connect 1 0 3 0;
#X connect 2 0 7 0;
#X connect 5 0 6 0;
#X restore -324 95 pd novelty_3D_sends__________;
#X obj -323 322 r \$0-nov;
#X obj 76 94 s \$0-endseg;
#X obj -20 94 s \$0-segment;
#X obj -20 -91 snapshot_xyz;
#N canvas 268 169 491 246 instructions 0;
#X text 26 9 INSTRUCTIONS:;
#X text 26 59 2) Open a Wekinator DTW project with at least 10 outputs(*).
;
#X text 26 39 1) With Pure Data closed \, Start Myo Connect and DaemonMYO.
;
#X text 26 79 3) Start Pure Data \, open this patch.;
#X text 26 99 4) Open subpatch "control" and turn Myo_OSC.;
#X text 26 139 6) Start wekinating.;
#X text 26 119 5) Open subpatch "mapping" and "connect" wekitdw_xyz.
;
#X text 26 169 (*) = check for ports in subpatch "information" inside
wekidtw_xyz;
#X restore -324 -204 pd instructions;
#X obj -130 332 bng 15 250 50 0 empty \$0-M_reset clear -32 7 0 10
-262144 -1 -1;
#X obj 911 184 bng 15 250 50 0 empty \$0-M_reset clear -32 7 0 10 -262144
-1 -1;
#X obj 580 394 s \$0-playstop;
#X obj 315 254 tgl 20 0 empty empty empty 17 7 0 10 -262144 -1 -1 0
1;
#X obj -82 154 hradio 21 1 0 21 empty empty empty 0 -8 0 10 -262144
-1 -1 0;
#X floatatom -82 184 5 0 0 0 - - -;
#X floatatom -82 394 6 0 0 0 - - -;
#X floatatom 249 394 6 0 0 0 - - -;
#X obj 911 394 s \$0-startdur;
#X text 340 254 mode;
#X msg 587 254 audio not loaded;
#X obj -82 284 plot_xyz_playcontrol;
#N canvas 149 23 499 729 playstopmark_quantize 0;
#X obj 20 670 outlet playstopmark;
#X msg 97 640 mark;
#X obj 20 38 inlet number;
#X obj 148 38 inlet BPM;
#X obj 48 68 moses 2;
#X obj 390 38 inlet tap tgl;
#X obj 246 38 inlet click level;
#X obj 87 330 realtime;
#X obj 87 360 moses;
#X text 31 399 1 after;
#X obj 276 330 / 2;
#X text 305 399 2 after;
#X obj 97 560 cup;
#X msg 136 490 1;
#X msg 87 400 1;
#X msg 276 400 2;
#X obj 260 600 select;
#X obj 97 520 spigot;
#X msg 176 490 0;
#X msg 322 490 1;
#X obj 276 450 t b a b;
#X text 9 12 inlet number: see information in "plot_xyz_playcontrol.pd"
;
#X obj 294 199 i;
#X text 325 266 beat;
#N canvas 161 119 481 615 super_metro_______ 0;
#X obj -123 19 metro;
#X obj -170 169 osc~;
#X msg -170 119 2000;
#X obj -91 -101 expr 60000/$f1;
#X obj -170 219 *~;
#X obj -123 169 line~;
#X obj 8 299 dac~;
#X obj -123 90 del 20;
#X msg -123 119 0 20;
#X msg -69 119 1 2;
#X obj -170 -221 inlet tgl;
#X obj -91 -221 inlet BPM;
#X obj 8 249 *~;
#X obj 26 -221 inlet level;
#X obj 177 328 outlet BPM;
#X obj 170 -222 inlet tap tgl;
#X obj 131 -130 select 32;
#X obj 131 -190 key;
#X obj 131 -160 spigot;
#X obj 131 -100 taptime;
#X obj -123 49 t bang bang bang;
#X obj -14 328 outlet beat;
#X obj 78 328 outlet T(ms);
#X obj 77 -31 f;
#X connect 0 0 20 0;
#X connect 1 0 4 0;
#X connect 2 0 1 0;
#X connect 3 0 23 0;
#X connect 4 0 12 0;
#X connect 5 0 4 1;
#X connect 7 0 8 0;
#X connect 8 0 5 0;
#X connect 9 0 5 0;
#X connect 10 0 0 0;
#X connect 10 0 2 0;
#X connect 11 0 3 0;
#X connect 12 0 6 0;
#X connect 12 0 6 1;
#X connect 13 0 12 1;
#X connect 15 0 18 1;
#X connect 16 0 19 0;
#X connect 17 0 18 0;
#X connect 18 0 16 0;
#X connect 19 0 23 0;
#X connect 19 1 14 0;
#X connect 20 0 7 0;
#X connect 20 1 9 0;
#X connect 20 2 21 0;
#X connect 23 0 0 1;
#X connect 23 0 22 0;
#X restore 246 230 pd super_metro_______;
#X obj 318 330 s \$0-bos;
#X text 325 306 (ms);
#X text 325 286 offset;
#X obj 294 109 select 1;
#X obj 390 670 s \$0-bpm;
#X obj 140 230 r \$0-ibound;
#X connect 1 0 0 0;
#X connect 2 0 0 0;
#X connect 2 0 4 0;
#X connect 3 0 22 0;
#X connect 4 0 24 0;
#X connect 4 0 28 0;
#X connect 5 0 24 3;
#X connect 6 0 24 2;
#X connect 6 0 24 0;
#X connect 7 0 8 0;
#X connect 8 0 14 0;
#X connect 8 1 15 0;
#X connect 10 0 8 1;
#X connect 12 0 16 0;
#X connect 13 0 17 1;
#X connect 14 0 20 0;
#X connect 15 0 20 0;
#X connect 16 0 18 0;
#X connect 16 0 1 0;
#X connect 17 0 12 0;
#X connect 18 0 17 1;
#X connect 19 0 12 0;
#X connect 20 0 13 0;
#X connect 20 1 16 1;
#X connect 20 2 19 0;
#X connect 22 0 24 1;
#X connect 24 0 7 0;
#X connect 24 0 17 0;
#X connect 24 1 10 0;
#X connect 24 1 25 0;
#X connect 24 2 22 1;
#X connect 24 2 29 0;
#X connect 28 0 22 0;
#X connect 30 0 7 1;
#X restore -82 254 pd playstopmark_quantize;
#X obj 83 184 tgl 20 0 empty empty empty 17 7 0 10 -262144 -1 -1 0
1;
#X obj 83 214 tgl 20 0 empty empty empty 17 7 0 10 -262144 -1 -1 0
1;
#X text 106 184 click;
#N canvas 653 23 275 392 fps_T_mlag_lagunit 0;
#X obj 51 104 r \$0-lagf;
#X obj 51 234 +;
#X obj 51 204 0;
#X obj 220 204 0;
#X obj 188 164 t b a;
#X obj 51 164 t a b;
#X obj 188 44 r \$0-bos;
#X obj 32 354 outlet fps_T_mlag_lagunit;
#X obj 32 324 pack 20 10 0 s;
#X msg 139 294 symbol ms;
#X obj 32 44 r \$0-fps;
#X obj 51 134 expr 1000*$f1/$f2;
#X obj 51 264 trigger b a b;
#X obj 32 74 trigger any any;
#X obj 12 14 inlet bang;
#X connect 0 0 11 0;
#X connect 1 0 12 0;
#X connect 2 0 1 0;
#X connect 3 0 1 1;
#X connect 4 0 2 0;
#X connect 4 1 3 0;
#X connect 5 0 2 0;
#X connect 5 1 3 0;
#X connect 6 0 4 0;
#X connect 8 0 7 0;
#X connect 9 0 8 3;
#X connect 10 0 13 0;
#X connect 11 0 5 0;
#X connect 12 0 8 0;
#X connect 12 1 8 2;
#X connect 12 2 9 0;
#X connect 13 0 8 0;
#X connect 13 1 11 1;
#X connect 14 0 8 0;
#X restore 712 254 pd fps_T_mlag_lagunit;
#X text -78 154 0;
#X text -56 154 1;
#X text -35 154 2;
#X text -13 154 3;
#X text 8 154 4;
#X text 29 154 5;
#X text 50 154 6;
#X text 71 154 7;
#X text 91 154 8;
#X text 112 154 9;
#X text 129 154 10;
#X text 151 154 11;
#X text 173 154 12;
#X text 193 154 13;
#X text 213 154 14;
#X text 235 154 15;
#X text 256 154 16;
#X text 277 154 17;
#X text 297 154 18;
#X text 318 154 19;
#X text 339 154 20;
#X obj 712 184 bng 15 250 50 0 empty empty empty 17 7 0 10 -262144
-1 -1;
#X obj -27 184 r \$0-bpm;
#X floatatom -27 214 5 0 0 0 - - -;
#X text 106 214 enable spacebar tap;
#X text 731 181 send parameters;
#N canvas 523 128 299 228 size/end 0;
#X obj -4 194 outlet;
#X msg 153 134 set \$1;
#X obj -4 14 r \$0-size/end;
#X obj 16 44 route bang;
#X obj 153 194 outlet;
#X obj 16 164 s \$0-end;
#X obj 153 104 l2s;
#X msg 153 74 audio not loaded;
#X obj 153 44 loadbang;
#X msg 26 104 0;
#X obj 26 134 s \$0-stp_btn_rcv;
#X connect 1 0 4 0;
#X connect 2 0 3 0;
#X connect 2 0 0 0;
#X connect 3 0 5 0;
#X connect 3 0 9 0;
#X connect 3 1 1 0;
#X connect 6 0 1 0;
#X connect 7 0 6 0;
#X connect 8 0 7 0;
#X connect 9 0 10 0;
#X restore 513 214 pd size/end;
#X text 380 254 1: perform;
#X obj 733 -176 vradio 40 1 0 3 \$0-audiomode_snd \$0-audiomode_rcv
empty 0 -8 0 10 -204800 -1 -1 0;
#X text 777 -125 audiofile: Takeoff;
#X text 777 -165 none;
#X text -31 395 marker time;
#X text 300 395 elapsed time;
#X obj 733 -26 vradio 40 1 0 3 \$0-stp_btn_snd \$0-stp_btn_rcv empty
0 -8 0 10 -262130 -1 -1 0;
#X text 777 -14 stop;
#X text 777 64 perform;
#N canvas 616 206 357 282 audiofile_control 0;
#X obj 215 44 r \$0-class;
#X obj 138 194 spigot;
#X msg 54 104 1;
#X msg 13 104 0;
#X obj 42 44 select 0 1 2;
#X obj 13 244 outlet play_segment;
#X msg 96 104 1;
#X msg 54 154 0;
#N canvas 446 412 560 318 perform_engine 0;
#X obj 221 262 outlet;
#X obj 221 22 select 0;
#X obj 221 232 f;
#X obj -5 -8 inlet init;
#X msg -5 22 0;
#X obj 313 82 + 1;
#X obj 221 -8 inlet detected class;
#X obj 376 -8 inlet learned classes;
#X obj 274 52 select;
#X msg 274 82 1;
#X obj 80 -8 inlet playback end;
#X connect 1 0 2 0;
#X connect 1 1 8 0;
#X connect 2 0 0 0;
#X connect 3 0 4 0;
#X connect 4 0 2 1;
#X connect 5 0 2 0;
#X connect 6 0 1 0;
#X connect 7 0 8 1;
#X connect 8 0 9 0;
#X connect 8 1 5 0;
#X connect 9 0 2 0;
#X connect 10 0 2 0;
#X restore 138 104 pd perform_engine;
#X msg 96 194 0;
#X obj 254 74 r \$0-n_class;
#X obj 176 14 r \$0-end;
#X obj 42 14 r \$0-stp;
#X connect 0 0 8 2;
#X connect 1 0 5 0;
#X connect 2 0 5 0;
#X connect 2 0 7 0;
#X connect 3 0 5 0;
#X connect 3 0 7 0;
#X connect 4 0 3 0;
#X connect 4 1 2 0;
#X connect 4 2 6 0;
#X connect 4 2 8 0;
#X connect 6 0 1 1;
#X connect 6 0 9 0;
#X connect 7 0 1 1;
#X connect 8 0 1 0;
#X connect 9 0 5 0;
#X connect 10 0 8 3;
#X connect 11 0 8 1;
#X connect 12 0 4 0;
#X restore -82 124 pd audiofile_control;
#N canvas 224 162 175 203 mode 0;
#X obj 76 164 outlet;
#X obj 9 44 select 0 1 2;
#X msg 76 84 1;
#X msg 36 84 0;
#X obj 9 14 r \$0-stp_btn_snd;
#X connect 1 1 3 0;
#X connect 1 2 2 0;
#X connect 2 0 0 0;
#X connect 3 0 0 0;
#X connect 4 0 1 0;
#X restore 315 214 pd mode;
#X floatatom 173 95 5 0 0 0 - - -;
#X obj 375 94 s \$0-class;
#X obj 375 -71 wekidtw_xyz;
#X obj 375 -101 wekidtw_xyz_manager;
#N canvas 438 167 654 362 wekidtw_xyz__inputs_ 0;
#X obj 11 308 outlet;
#X obj 71 308 outlet;
#X obj 161 308 outlet;
#X obj 231 308 outlet;
#X obj 11 179 r \$0-segment;
#X obj 31 208 r \$0-startseg;
#X msg 31 268 1;
#X msg 71 268 0;
#X obj 71 238 r \$0-endseg;
#X obj 341 308 outlet;
#X obj 512 308 outlet;
#X obj 512 28 inlet connect_tgl;
#X text 363 159 1 = train;
#X text 363 145 0 = stop;
#X text 363 173 2 = perform;
#X obj 415 238 r \$0-trainend;
#N canvas 99 301 536 436 trainend 0;
#X obj 56 14 inlet;
#X obj 16 394 outlet;
#X msg 16 124 1;
#X obj 56 54 select 1 2 0;
#X obj 223 14 inlet;
#X msg 85 344 2;
#X msg 193 344 0;
#X obj 85 315 multiplex;
#X obj 193 315 multiplex;
#X msg 145 124 0;
#X msg 96 124 0;
#X text 238 106 in inlet 2;
#X text 238 46 if number in inlet 1 is 0 or 2 after 1;
#X text 238 66 (when stopping training) \,;
#X text 238 86 then output the number until a bang;
#X text 238 126 otherwise \, output the number immediately;
#X connect 0 0 3 0;
#X connect 2 0 1 0;
#X connect 2 0 7 2;
#X connect 2 0 8 2;
#X connect 3 0 2 0;
#X connect 3 1 7 0;
#X connect 3 1 10 0;
#X connect 3 2 8 0;
#X connect 3 2 9 0;
#X connect 4 0 8 1;
#X connect 4 0 7 1;
#X connect 5 0 1 0;
#X connect 6 0 1 0;
#X connect 7 0 5 0;
#X connect 8 0 6 0;
#X connect 9 0 7 2;
#X connect 10 0 8 2;
#X restore 341 268 pd trainend;
#X obj 174 28 r \$0-mindist;
#X obj 161 268 pack f f;
#X obj 253 119 select 1;
#X obj 306 209 bang;
#X msg 161 209 1;
#X obj 161 -2 loadbang;
#X obj 357 28 r \$0-audiomode_snd;
#X obj 318 -2 r \$0-stp_btn_snd;
#X obj 364 118 s \$0-stp;
#X obj 318 58 spigot;
#X obj 318 88 t a a a;
#X obj 174 179 spigot;
#X msg 213 149 1;
#X msg 263 149 0;
#N canvas 261 240 288 235 min 0;
#X obj 180 17 inlet reset;
#X obj 106 17 inlet f;
#X obj 120 137 f;
#X obj 11 167 select 1;
#X obj 120 197 outlet minimum;
#X obj 11 137 <;
#X obj 11 107 cyclone/gate 2;
#X msg 180 47 2;
#X msg 180 76 1;
#X obj 106 47 t a a;
#X connect 0 0 7 0;
#X connect 1 0 9 0;
#X connect 2 0 4 0;
#X connect 2 0 5 1;
#X connect 3 0 2 0;
#X connect 5 0 3 0;
#X connect 6 0 5 0;
#X connect 6 1 2 0;
#X connect 6 1 8 0;
#X connect 7 0 6 0;
#X connect 8 0 6 0;
#X connect 9 0 6 1;
#X connect 9 1 2 1;
#X restore 214 209 pd min;
#X obj 231 268 r \$0-class;
#X connect 4 0 0 0;
#X connect 5 0 6 0;
#X connect 6 0 1 0;
#X connect 7 0 1 0;
#X connect 8 0 7 0;
#X connect 11 0 10 0;
#X connect 15 0 16 1;
#X connect 16 0 9 0;
#X connect 17 0 28 0;
#X connect 18 0 2 0;
#X connect 19 0 31 1;
#X connect 19 0 29 0;
#X connect 19 1 20 0;
#X connect 19 1 30 0;
#X connect 20 0 18 0;
#X connect 21 0 18 0;
#X connect 22 0 21 0;
#X connect 23 0 26 1;
#X connect 24 0 26 0;
#X connect 26 0 27 0;
#X connect 27 0 19 0;
#X connect 27 1 16 0;
#X connect 27 2 25 0;
#X connect 28 0 31 0;
#X connect 29 0 28 1;
#X connect 30 0 28 1;
#X connect 31 0 18 1;
#X connect 32 0 3 0;
#X restore 375 -131 pd wekidtw_xyz__inputs_;
#X obj 375 -161 tgl 20 0 empty empty empty 17 7 0 10 -262144 -1 -1
0 1;
#X text 399 -169 connect;
#X text 400 -155 wekinator;
#N canvas 148 23 786 827 get_segment______________ 0;
#X obj 156 16 r \$0-nov_params;
#X obj 156 46 unpack f f;
#X text 118 126 N_filt = N_nov * smooth;
#X obj 16 756 outlet xyz;
#X obj 16 316 listlag 0 3;
#X text 112 106 lag = ((N_nov + N_filt) / 2) + 1;
#X msg 442 716 0;
#X msg 398 716 1;
#X obj 486 716 s \$0-startseg;
#X obj 398 686 trigger b b b;
#X obj 106 86 expr (( $f1 + $f1 * $f2 ) / 2) + 1;
#X obj 106 756 outlet lag;
#X obj 626 286 route bang;
#X msg 626 355 clear;
#X obj 116 316 s \$0-lagf;
#X obj 106 -24 inlet lag;
#X text 177 -23 frames or bang to trigger;
#X obj 106 256 i;
#X obj 106 286 + 0;
#X obj 106 156 floorceil 1;
#X obj 366 -24 inlet finetune;
#X obj 489 156 s \$0-lag_fine_rcv;
#X obj 489 46 loadbang;
#X obj 398 626 spigot;
#X msg 337 526 0;
#X msg 437 526 1;
#X obj 489 -24 inlet msl;
#X obj 193 436 cup;
#X obj 193 466 select;
#X obj 529 126 s \$0-msl_rcv;
#X msg 529 86 20;
#X msg 193 406 1;
#X obj 147 406 bang;
#X obj 366 86 t b a;
#X obj 626 -24 inlet commands;
#X text 653 3 1 = record;
#X text 653 17 0 = spit;
#X text 632 31 bang = clear;
#X obj 626 756 outlet rec/spit;
#X obj 494 406 select 1;
#X obj 147 566 spigot;
#X msg 186 526 0;
#X msg 231 526 1;
#X obj 147 626 cup;
#X obj 147 656 select;
#X obj 186 626 r \$0-lagf;
#X text 474 219 1 = train;
#X text 474 205 0 = stop;
#X text 474 233 2 = perform;
#X obj 266 286 s \$0-trainend;
#X obj 366 356 t b b;
#X obj 292 196 r \$0-endbound;
#X obj 147 686 s \$0-endbound;
#X obj 266 256 del;
#X obj 489 6 s \$0-msl;
#X obj 232 406 r \$0-msl;
#X text 559 -24 minimum;
#X text 559 -10 segment;
#X text 559 18 (frames);
#X text 559 4 length;
#X obj 380 287 change;
#X obj 380 256 trigger any bang any bang;
#X obj 16 16 r \$0-rs_xyz;
#X obj 543 466 r \$0-msl;
#X obj 543 496 select 0;
#X obj 557 686 spigot;
#X msg 543 526 0;
#X msg 596 526 1;
#N canvas 0 22 450 300 ft_arrows 0;
#X obj 132 204 - 1;
#X obj 132 174 f;
#X obj 195 174 f;
#X obj 195 204 + 1;
#X obj 150 4 inlet ft;
#X obj 29 54 r \$0-ft_-_snd;
#X obj 195 54 r \$0-ft_+_snd;
#X obj 132 244 outlet;
#X connect 0 0 7 0;
#X connect 1 0 0 0;
#X connect 2 0 3 0;
#X connect 3 0 7 0;
#X connect 4 0 2 1;
#X connect 4 0 1 1;
#X connect 5 0 1 0;
#X connect 6 0 2 0;
#X restore 386 46 pd ft_arrows;
#X msg 489 86 -4;
#X obj 298 626 spigot;
#X obj 266 326 r \$0-bound;
#X obj 266 356 t b b;
#X obj 292 226 trigger b b;
#X obj 298 686 s \$0-ibound;
#X obj 380 226 r \$0-stp;
#X connect 0 0 1 0;
#X connect 1 0 10 0;
#X connect 1 1 10 1;
#X connect 4 0 3 0;
#X connect 4 0 32 0;
#X connect 6 0 38 0;
#X connect 7 0 38 0;
#X connect 9 0 7 0;
#X connect 9 1 6 0;
#X connect 9 2 8 0;
#X connect 10 0 19 0;
#X connect 12 0 13 0;
#X connect 12 1 38 0;
#X connect 13 0 38 0;
#X connect 15 0 10 0;
#X connect 17 0 18 0;
#X connect 18 0 4 1;
#X connect 18 0 11 0;
#X connect 18 0 14 0;
#X connect 19 0 17 0;
#X connect 20 0 33 0;
#X connect 20 0 68 0;
#X connect 22 0 69 0;
#X connect 22 0 30 0;
#X connect 23 0 9 0;
#X connect 23 0 65 0;
#X connect 24 0 23 1;
#X connect 24 0 70 1;
#X connect 25 0 23 1;
#X connect 25 0 70 1;
#X connect 26 0 54 0;
#X connect 27 0 28 0;
#X connect 28 0 25 0;
#X connect 30 0 29 0;
#X connect 31 0 27 0;
#X connect 32 0 27 0;
#X connect 32 0 40 0;
#X connect 33 0 17 0;
#X connect 33 1 18 1;
#X connect 34 0 12 0;
#X connect 39 0 41 0;
#X connect 39 1 42 0;
#X connect 40 0 43 0;
#X connect 41 0 40 1;
#X connect 42 0 40 1;
#X connect 42 0 43 0;
#X connect 43 0 44 0;
#X connect 44 0 52 0;
#X connect 45 0 44 1;
#X connect 50 0 31 0;
#X connect 50 1 23 0;
#X connect 51 0 73 0;
#X connect 53 0 49 0;
#X connect 55 0 28 1;
#X connect 60 0 50 0;
#X connect 61 0 60 0;
#X connect 61 1 25 0;
#X connect 61 2 39 0;
#X connect 61 3 13 0;
#X connect 62 0 4 0;
#X connect 63 0 64 0;
#X connect 64 0 25 0;
#X connect 64 0 66 0;
#X connect 64 1 67 0;
#X connect 65 0 24 0;
#X connect 66 0 65 1;
#X connect 67 0 65 1;
#X connect 68 0 21 0;
#X connect 69 0 21 0;
#X connect 70 0 9 0;
#X connect 70 0 65 0;
#X connect 70 0 74 0;
#X connect 71 0 72 0;
#X connect 72 0 31 0;
#X connect 72 1 70 0;
#X connect 73 0 53 0;
#X connect 73 1 50 0;
#X connect 75 0 61 0;
#X restore -20 -141 pd get_segment______________;
#X floatatom 76 -118 5 0 0 0 - - -;
#X obj 173 -161 bng 15 250 50 0 empty \$0-M_reset clear 20 7 0 10 -262144
-1 -1;
#X floatatom 44 -184 4 0 0 0 - #0-lag_fine_rcv -;
#X text -74 -185 lag fine-tune;
#X floatatom 108 -184 6 0 0 0 - #0-msl_rcv -;
#X text 155 -185 minimum segment length;
#X text 777 25 train;
#X text 380 240 0: train;
#X obj 375 124 r \$0-class;
#X obj 375 154 print class;
#X obj 644 4 vradio 15 1 0 5 empty empty empty 0 -8 0 10 -262144 -1
-1 0;
#X floatatom 644 88 5 0 0 0 - - -;
#X obj -124 -91 tgl 15 0 empty empty empty 17 7 0 10 -262144 -1 -1
0 1;
#X text -167 -99 auto-;
#X text -166 -85 reset;
#N canvas 516 22 445 297 novelty_3D_switches_______ 0;
#X obj 222 86 select 1;
#X obj 222 56 r \$0-m1_tgl;
#X obj 272 256 outlet reset;
#X obj 130 256 outlet params.;
#X obj 20 256 outlet xyz;
#X obj 170 126 r \$0-M_reset;
#X obj 272 126 spigot;
#X obj 311 16 inlet auto reset;
#X obj 130 16 inlet params;
#X obj 20 126 r \$0-raw_xyz;
#X connect 0 0 6 0;
#X connect 1 0 0 0;
#X connect 5 0 2 0;
#X connect 6 0 2 0;
#X connect 7 0 6 1;
#X connect 8 0 3 0;
#X connect 9 0 4 0;
#X restore -324 -61 pd novelty_3D_switches_______;
#X obj -247 -161 hsl 128 15 2 100 0 0 empty \$0-wsize_sl_rcv window_size
-2 -8 0 12 -262144 -1 -1 10108 1;
#X obj -247 -121 hsl 128 15 0.01 1 0 0 empty \$0-smoof_sl_rcv smooth_factor
-2 -8 0 12 -262144 -1 -1 3720 1;
#N canvas 19 23 441 505 segparam 0;
#X obj -4 14 inlet window_size;
#X obj 170 14 inlet smooth_factor;
#X obj 170 474 outlet params;
#X obj 220 44 loadbang;
#X obj 220 104 delay 500;
#X obj 230 74 r \$0-M_reset;
#X obj 170 254 pack f f f;
#X obj 170 164 t b a;
#X obj 220 164 unpack f f f;
#X obj 290 344 s \$0-wsize_sl_rcv;
#X obj 290 254 s \$0-smoof_sl_rcv;
#X msg 280 224 set \$1;
#X msg 280 314 set \$1;
#X obj 6 404 - 1;
#X msg 140 284 \$1;
#X obj 6 304 f;
#X obj 122 374 f;
#X obj 16 334 r \$0-wsize_+_snd;
#X obj 6 254 r \$0-wsize_-_snd;
#X obj -4 44 i;
#X obj 42 44 r \$0-new_wsize;
#X obj 122 404 + 1;
#X obj 290 284 r \$0-new_wsize;
#X obj -4 444 s \$0-new_wsize;
#X msg 220 134 80 0.3 0.1;
#X connect 0 0 19 0;
#X connect 1 0 7 0;
#X connect 3 0 4 0;
#X connect 4 0 24 0;
#X connect 5 0 4 0;
#X connect 6 0 2 0;
#X connect 6 0 14 0;
#X connect 7 0 6 0;
#X connect 7 1 6 1;
#X connect 8 0 6 0;
#X connect 8 0 12 0;
#X connect 8 1 6 1;
#X connect 8 1 11 0;
#X connect 8 2 6 2;
#X connect 11 0 10 0;
#X connect 12 0 9 0;
#X connect 13 0 23 0;
#X connect 14 0 16 1;
#X connect 14 0 15 1;
#X connect 15 0 13 0;
#X connect 16 0 21 0;
#X connect 17 0 16 0;
#X connect 18 0 15 0;
#X connect 19 0 6 0;
#X connect 20 0 6 0;
#X connect 21 0 23 0;
#X connect 22 0 12 0;
#X connect 24 0 8 0;
#X restore -324 -91 pd segparam;
#X obj -266 -161 bng 15 250 50 0 \$0-wsize_-_snd empty < 3 6 0 14 -262144
-162280 -1;
#X obj -116 -161 bng 15 250 50 0 \$0-wsize_+_snd empty > 4 6 0 14 -262144
-162280 -1;
#X obj -323 155 r \$0-rs_xyz;
#X obj 116 254 r \$0-rs_xyz;
#N canvas 500 417 355 176 clear 0;
#X obj 15 17 inlet;
#X obj 81 77 select 1;
#X obj 15 137 outlet;
#X obj 181 137 hcs/sys_gui;
#X msg 181 107 menu_clear_console;
#X obj 81 47 r \$0-stp_btn_snd;
#X connect 0 0 2 0;
#X connect 1 0 2 0;
#X connect 1 0 4 0;
#X connect 4 0 3 0;
#X connect 5 0 1 0;
#X restore 911 254 pd clear;
#X obj 74 -180 bng 15 250 50 0 \$0-ft_+_snd empty > 4 6 0 14 -262144
-162280 -1;
#X obj 29 -180 bng 15 250 50 0 \$0-ft_-_snd empty < 3 6 0 14 -262144
-162280 -1;
#X text -13 -118 lag (frames);
#X obj 574 -56 print weki_cmd;
#X obj 195 -110 print getseg_cmd;
#X text 212 110 (frames);
#X text 212 96 segment length;
#N canvas 442 361 324 366 print_data 0;
#X obj 8 42 print data;
#X obj 8 -18 once;
#X obj 8 12 t a b;
#X obj 63 12 delay 100;
#X obj 8 -48 inlet;
#X connect 1 0 2 0;
#X connect 2 0 0 0;
#X connect 2 1 3 0;
#X connect 3 0 1 1;
#X connect 4 0 1 0;
#X restore 247 -43 pd print_data;
#X obj 533 94 s \$0-n_class;
#X obj 480 124 s \$0-mindist;
#X text 777 -85 audiofile: Waste of TV;
#X connect 0 0 4 0;
#X connect 0 1 4 1;
#X connect 0 2 4 2;
#X connect 0 3 4 3;
#X connect 2 0 1 1;
#X connect 5 0 3 0;
#X connect 8 0 7 0;
#X connect 8 1 6 0;
#X connect 8 2 65 0;
#X connect 10 0 3 1;
#X connect 11 0 97 0;
#X connect 13 0 21 2;
#X connect 14 0 15 0;
#X connect 15 0 22 0;
#X connect 20 0 21 3;
#X connect 21 0 16 0;
#X connect 21 1 17 0;
#X connect 21 2 12 0;
#X connect 21 3 18 0;
#X connect 22 0 21 0;
#X connect 23 0 22 2;
#X connect 24 0 22 3;
#X connect 26 0 21 4;
#X connect 48 0 26 0;
#X connect 48 0 20 0;
#X connect 49 0 50 0;
#X connect 50 0 22 1;
#X connect 53 0 21 3;
#X connect 53 1 20 0;
#X connect 63 0 14 0;
#X connect 64 0 13 0;
#X connect 67 0 66 0;
#X connect 67 2 107 0;
#X connect 67 3 106 0;
#X connect 68 0 67 0;
#X connect 68 0 105 0;
#X connect 68 1 67 1;
#X connect 68 1 101 0;
#X connect 69 0 68 0;
#X connect 69 1 68 1;
#X connect 69 2 68 2;
#X connect 69 3 68 3;
#X connect 69 4 68 4;
#X connect 69 5 68 5;
#X connect 70 0 69 0;
#X connect 73 0 8 0;
#X connect 73 1 74 0;
#X connect 73 2 8 2;
#X connect 75 0 73 3;
#X connect 76 0 73 1;
#X connect 78 0 73 2;
#X connect 82 0 83 0;
#X connect 84 0 85 0;
#X connect 84 0 66 0;
#X connect 86 0 89 1;
#X connect 89 0 0 0;
#X connect 89 1 0 1;
#X connect 89 2 0 2;
#X connect 90 0 92 0;
#X connect 91 0 92 1;
#X connect 92 0 89 0;
#X connect 95 0 1 0;
#X connect 96 0 21 1;
#X connect 97 0 21 5;
#X restore 48 81 pd mapping;
#X text 10 143 Juan Ignacio Mendoza;
#X text 71 163 2019;
#N canvas 403 23 799 657 synthesis 0;
#X obj -83 536 dac~;
#X obj -83 496 *~ 0;
#X obj -83 181 playafile;
#X obj 112 297 s \$0-size/end;
#X obj -18 51 r \$0-startdur;
#X msg 605 338 57.68 100;
#X msg 605 219 19.3 38.38;
#X msg 605 378 76.92 9.58;
#X msg 605 179 0.11 4.8;
#X obj 582 407 s \$0-startdur;
#X obj -83 21 r \$0-playstop;
#X obj 339 121 s \$0-bpm;
#X obj 252 91 unpack s f;
#X obj 472 407 s \$0-startdur;
#X text 607 147 Waste_of_TV;
#X text 494 147 Takeoff;
#X text 564 117 CUES:;
#X msg 495 179 0 15;
#X msg 495 219 15 15;
#X msg 495 258 30 15;
#X msg 495 298 45 14;
#X msg 495 338 60 15;
#X msg 495 378 75 22.6;
#X msg -71 96 1;
#X msg -61 126 0;
#X obj 225 -29 select 0 1 2;
#X msg 225 297 0;
#X obj 112 383 line;
#X obj 112 419 vsl 15 64 0 1 0 0 empty empty empty 0 -9 0 10 -262144
-1 -1 0 1;
#X msg 319 297 1;
#X msg 112 347 \$1 3000;
#X obj 275 -69 r \$0-audiomode_snd;
#X msg 252 11 /Users/juigmend/Music/Ahxello_-_Takeoff_MONO_90s.wav
128;
#X msg 279 41 /Users/juigmend/Music/hansatom_-_Waste_of_TV_MONO_86s.wav
100;
#X obj 252 121 schange;
#N canvas 873 472 300 231 compute_audio_switch 0;
#X msg 17 107 \; pd dsp \$1;
#X obj 17 17 inlet;
#X obj 17 47 moses 1;
#X msg 63 77 1;
#X connect 1 0 2 0;
#X connect 2 0 0 0;
#X connect 2 1 3 0;
#X connect 3 0 0 0;
#X restore 327 -29 pd compute_audio_switch;
#X connect 1 0 0 0;
#X connect 1 0 0 1;
#X connect 2 0 1 0;
#X connect 2 2 3 0;
#X connect 4 0 2 1;
#X connect 5 0 9 0;
#X connect 6 0 9 0;
#X connect 7 0 9 0;
#X connect 8 0 9 0;
#X connect 10 0 2 0;
#X connect 12 0 34 0;
#X connect 12 1 11 0;
#X connect 12 1 29 0;
#X connect 17 0 13 0;
#X connect 18 0 13 0;
#X connect 19 0 13 0;
#X connect 20 0 13 0;
#X connect 21 0 13 0;
#X connect 22 0 13 0;
#X connect 23 0 2 0;
#X connect 24 0 2 0;
#X connect 25 0 26 0;
#X connect 25 1 32 0;
#X connect 25 2 33 0;
#X connect 26 0 30 0;
#X connect 27 0 28 0;
#X connect 28 0 1 1;
#X connect 29 0 30 0;
#X connect 30 0 27 0;
#X connect 31 0 25 0;
#X connect 31 0 35 0;
#X connect 32 0 12 0;
#X connect 33 0 12 0;
#X connect 34 0 2 3;
#X restore 41 114 pd synthesis;
#X text 37 13 MUSIIKKIPALLO;
