#N canvas 0 23 891 260 12;
#X obj -189 158 autoscale;
#X obj -69 158 autoscale;
#X obj 51 158 autoscale;
#X obj 284 158 autoscale;
#X obj 404 158 autoscale;
#X obj 514 158 autoscale;
#X floatatom 534 188 5 0 0 0 - - -;
#X floatatom 574 188 5 0 0 0 - - -;
#X floatatom 424 188 5 0 0 0 - - -;
#X floatatom 464 188 5 0 0 0 - - -;
#X floatatom 304 188 5 0 0 0 - - -;
#X floatatom 344 188 5 0 0 0 - - -;
#X floatatom 71 188 5 0 0 0 - - -;
#X floatatom 111 188 5 0 0 0 - - -;
#X floatatom -49 188 5 0 0 0 - - -;
#X floatatom -9 188 5 0 0 0 - - -;
#X floatatom -169 188 5 0 0 0 - - -;
#X floatatom -129 188 5 0 0 0 - - -;
#X msg 634 38 reset;
#X msg 604 98 \$1;
#X obj 604 68 symbol;
#X msg 574 38 save;
#X obj 164 158 autoscale;
#X floatatom 184 188 5 0 0 0 - - -;
#X floatatom 224 188 5 0 0 0 - - -;
#X obj -189 219 outlet;
#X obj -69 219 outlet;
#X obj 51 219 outlet;
#X obj 164 219 outlet;
#X obj 284 219 outlet;
#X obj 404 219 outlet;
#X obj 514 219 outlet;
#X obj -189 8 inlet;
#X obj -69 8 inlet;
#X obj 51 8 inlet;
#X obj 164 8 inlet;
#X obj 284 8 inlet;
#X obj 404 8 inlet;
#X obj 514 8 inlet;
#X obj 634 8 inlet;
#X connect 0 0 25 0;
#X connect 0 1 16 0;
#X connect 0 2 17 0;
#X connect 1 0 26 0;
#X connect 1 1 14 0;
#X connect 1 2 15 0;
#X connect 2 0 27 0;
#X connect 2 1 12 0;
#X connect 2 2 13 0;
#X connect 3 0 29 0;
#X connect 3 1 10 0;
#X connect 3 2 11 0;
#X connect 4 0 30 0;
#X connect 4 1 8 0;
#X connect 4 2 9 0;
#X connect 5 0 31 0;
#X connect 5 1 6 0;
#X connect 5 2 7 0;
#X connect 18 0 20 0;
#X connect 19 0 0 0;
#X connect 19 0 1 0;
#X connect 19 0 2 0;
#X connect 19 0 3 0;
#X connect 19 0 4 0;
#X connect 19 0 5 0;
#X connect 19 0 22 0;
#X connect 20 0 19 0;
#X connect 21 0 20 0;
#X connect 22 0 28 0;
#X connect 22 1 23 0;
#X connect 22 2 24 0;
#X connect 32 0 0 0;
#X connect 33 0 1 0;
#X connect 34 0 2 0;
#X connect 35 0 22 0;
#X connect 36 0 3 0;
#X connect 37 0 4 0;
#X connect 38 0 5 0;
#X connect 39 0 18 0;
