#N canvas 356 22 519 283 12;
#X obj 282 85 noise~;
#N canvas 12 22 510 756 wave1 0;
#X obj 112 346 *~;
#X obj 132 269 bng 15 250 50 0 empty empty empty 0 -6 0 8 -262144 -1
-1;
#X obj 176 447 sig~;
#X obj 114 498 vcf~ 1;
#X obj 112 587 *~ 0.71;
#X msg 246 390 400;
#X obj 143 143 t b b;
#X msg 194 269 2600;
#X text 180 481 long;
#X msg 158 269 1200;
#X obj 202 177 random 1000;
#X obj 113 11 inlet~;
#X obj 206 72 inlet;
#X obj 328 219 loadbang;
#X obj 132 306 az_vad~;
#X obj 27 104 spigot;
#X obj 113 547 *~;
#X obj 158 526 tgl 15 0 empty empty empty 0 -6 0 8 -262144 -1 -1 0
1;
#X obj 202 202 + 3800;
#X obj 143 226 del 3800;
#X obj 176 418 line;
#X obj 24 268 t b b b;
#X msg 24 386 400;
#X msg 176 390 800 1200;
#X obj 303 629 pan~;
#X msg 328 599 -30;
#X obj 223 689 throw~ \$0-main_L;
#X obj 343 689 throw~ \$0-main_R;
#X obj 191 505 r \$0-waves_ctrl;
#X obj 24 341 del 3800;
#X obj 338 36 r \$0-waves_ctrl;
#X obj 338 66 expr $f1/2 + 0.5;
#X obj 191 565 pow 2;
#X obj 191 535 * 0.7;
#X obj 408 116 * 2600;
#X obj 338 116 * 1200;
#X connect 0 0 3 0;
#X connect 1 0 14 0;
#X connect 1 0 15 0;
#X connect 2 0 3 1;
#X connect 3 0 16 0;
#X connect 4 0 24 0;
#X connect 5 0 20 1;
#X connect 6 0 19 0;
#X connect 6 1 10 0;
#X connect 7 0 14 2;
#X connect 9 0 14 1;
#X connect 10 0 18 0;
#X connect 11 0 0 0;
#X connect 12 0 6 0;
#X connect 12 0 15 1;
#X connect 13 0 9 0;
#X connect 13 0 7 0;
#X connect 13 0 5 0;
#X connect 13 0 25 0;
#X connect 14 0 0 1;
#X connect 15 0 6 0;
#X connect 16 0 4 0;
#X connect 17 0 16 1;
#X connect 18 0 19 1;
#X connect 19 0 1 0;
#X connect 19 0 21 0;
#X connect 20 0 2 0;
#X connect 21 0 29 0;
#X connect 21 1 17 0;
#X connect 21 2 23 0;
#X connect 22 0 20 0;
#X connect 23 0 20 0;
#X connect 24 0 26 0;
#X connect 24 1 27 0;
#X connect 25 0 24 1;
#X connect 28 0 33 0;
#X connect 29 0 17 0;
#X connect 29 0 22 0;
#X connect 30 0 31 0;
#X connect 31 0 34 0;
#X connect 31 0 35 0;
#X connect 32 0 4 1;
#X connect 33 0 32 0;
#X connect 34 0 14 2;
#X connect 35 0 14 1;
#X restore 282 161 pd wave1;
#N canvas 950 22 575 746 wave3 0;
#X obj 170 325 *~;
#X obj 251 420 sig~;
#X obj 169 463 vcf~ 1;
#X obj 189 230 bng 15 250 50 0 empty empty empty 0 -6 0 8 -262144 -1
-1;
#X msg 306 390 220;
#X obj 215 105 t b b;
#X obj 274 128 random 2000;
#X msg 250 229 3500;
#X obj 189 272 az_vad~;
#X obj 169 588 hip~ 350;
#X obj 171 9 inlet~;
#X obj 272 44 inlet;
#X obj 375 182 loadbang;
#X obj 62 86 spigot;
#X obj 169 511 *~;
#X obj 210 497 tgl 15 0 empty empty empty 0 -6 0 8 -262144 -1 -1 0
1;
#X obj 43 265 del 4300;
#X obj 215 177 del 4300;
#X obj 274 153 + 4300;
#X obj 252 386 line;
#X obj 43 228 t b b b;
#X msg 43 315 220;
#X msg 252 358 400 1600;
#X obj 280 684 throw~ \$0-main_L;
#X obj 400 684 throw~ \$0-main_R;
#X msg 214 229 1200;
#X obj 169 558 *~ 0.8;
#X obj 406 47 r \$0-waves_ctrl;
#X obj 406 77 expr $f1/2 + 0.5;
#X obj 248 468 r \$0-waves_ctrl;
#X obj 248 528 pow 2;
#X obj 248 498 * 0.8;
#X obj 476 117 * 3500;
#X obj 406 117 * 1200;
#X connect 0 0 2 0;
#X connect 1 0 2 1;
#X connect 2 0 14 0;
#X connect 3 0 8 0;
#X connect 3 0 13 0;
#X connect 4 0 1 0;
#X connect 5 0 17 0;
#X connect 5 1 6 0;
#X connect 6 0 18 0;
#X connect 7 0 8 2;
#X connect 8 0 0 1;
#X connect 9 0 23 0;
#X connect 9 0 24 0;
#X connect 10 0 0 0;
#X connect 11 0 5 0;
#X connect 11 0 13 1;
#X connect 12 0 25 0;
#X connect 12 0 7 0;
#X connect 12 0 4 0;
#X connect 13 0 5 0;
#X connect 14 0 26 0;
#X connect 15 0 14 1;
#X connect 16 0 15 0;
#X connect 16 0 21 0;
#X connect 17 0 3 0;
#X connect 17 0 20 0;
#X connect 18 0 17 1;
#X connect 19 0 1 0;
#X connect 20 0 16 0;
#X connect 20 1 15 0;
#X connect 20 2 22 0;
#X connect 21 0 19 0;
#X connect 22 0 19 0;
#X connect 25 0 8 1;
#X connect 26 0 9 0;
#X connect 27 0 28 0;
#X connect 28 0 32 0;
#X connect 28 0 33 0;
#X connect 29 0 31 0;
#X connect 30 0 26 1;
#X connect 31 0 30 0;
#X connect 32 0 8 2;
#X connect 33 0 8 1;
#X restore 442 161 pd wave3;
#N canvas 544 22 512 780 wave2 0;
#X obj 148 308 *~;
#X obj 178 414 sig~;
#X obj 149 468 vcf~ 1;
#X obj 166 220 bng 15 250 50 0 empty empty empty 0 -6 0 8 -262144 -1
-1;
#X msg 266 366 295;
#X obj 221 81 t b b;
#X obj 221 158 del 3600;
#X obj 280 134 + 3600;
#X text 284 219 short burst;
#X text 224 254 replacement for ead;
#X msg 228 218 2100;
#X obj 280 109 random 4000;
#X obj 149 8 inlet~;
#X obj 279 23 inlet;
#X obj 415 159 loadbang;
#X obj 167 254 az_vad~;
#X obj 48 60 spigot;
#X obj 148 516 *~;
#X obj 193 495 tgl 15 0 empty empty empty 0 -6 0 8 -262144 -1 -1 0
1;
#X obj 48 307 del 2550;
#X obj 48 270 t b b b;
#X obj 178 383 line;
#X msg 48 344 295;
#X msg 178 355 1100 400;
#X obj 148 596 hip~ 500;
#X obj 148 706 throw~ \$0-main_L;
#X obj 278 706 throw~ \$0-main_R;
#X msg 192 218 700;
#X obj 148 557 *~ 0.8;
#X obj 373 38 r \$0-waves_ctrl;
#X obj 373 68 expr $f1/2 + 0.5;
#X obj 373 118 * 700;
#X obj 443 118 * 2100;
#X obj 254 470 r \$0-waves_ctrl;
#X obj 254 530 pow 2;
#X obj 254 500 * 0.8;
#X obj 352 632 pan~;
#X msg 377 602 30;
#X connect 0 0 2 0;
#X connect 1 0 2 1;
#X connect 2 0 17 0;
#X connect 3 0 15 0;
#X connect 3 0 16 0;
#X connect 4 0 1 0;
#X connect 5 0 6 0;
#X connect 5 1 11 0;
#X connect 6 0 3 0;
#X connect 6 0 20 0;
#X connect 7 0 6 1;
#X connect 10 0 15 2;
#X connect 11 0 7 0;
#X connect 12 0 0 0;
#X connect 13 0 5 0;
#X connect 13 0 16 1;
#X connect 14 0 27 0;
#X connect 14 0 10 0;
#X connect 14 0 4 0;
#X connect 14 0 37 0;
#X connect 15 0 0 1;
#X connect 16 0 5 0;
#X connect 17 0 28 0;
#X connect 18 0 17 1;
#X connect 19 0 18 0;
#X connect 19 0 22 0;
#X connect 20 0 19 0;
#X connect 20 1 18 0;
#X connect 20 2 23 0;
#X connect 21 0 1 0;
#X connect 22 0 21 0;
#X connect 23 0 21 0;
#X connect 24 0 36 0;
#X connect 27 0 15 1;
#X connect 28 0 24 0;
#X connect 29 0 30 0;
#X connect 30 0 31 0;
#X connect 30 0 32 0;
#X connect 31 0 15 1;
#X connect 32 0 15 2;
#X connect 33 0 35 0;
#X connect 34 0 28 1;
#X connect 35 0 34 0;
#X connect 36 0 25 0;
#X connect 36 1 26 0;
#X connect 37 0 36 1;
#X restore 362 161 pd wave2;
#X text 162 214 https://sites.google.com/site/albertozin/Home/pd;
#X text 274 199 Based on Alberto Zin's sea waves;
#X text 310 234 Juan Ignacio Mendoza - 2016;
#X obj 255 5 inlet level;
#X obj 2 241 outlet~;
#N canvas 570 309 251 450 onoff_switch 0;
#X obj -48 74 tgl 15 0 empty empty empty 17 7 0 10 -262144 -1 -1 0
1;
#X obj 2 14 bang;
#X obj -28 104 select 0 1;
#X msg -8 274 color 20 20 20;
#X msg 5 214 color 20 22 22;
#X obj -48 -16 inlet;
#X msg -28 334 label OFF \, color 22 3;
#X obj -48 394 outlet toggle;
#X obj 5 244 s \$0-onoff_sw_rcv;
#X obj 20 184 s \$0-onoff_display_rcv;
#X obj -8 304 s \$0-onoff_sw_rcv;
#X obj -28 364 s \$0-onoff_display_rcv;
#X obj 2 -16 r \$0-onoff_sw_snd;
#X msg 20 154 label ON \, color 22 6;
#X obj 42 14 loadbang;
#X msg 42 44 0;
#X connect 0 0 2 0;
#X connect 0 0 7 0;
#X connect 1 0 0 0;
#X connect 2 0 3 0;
#X connect 2 0 6 0;
#X connect 2 1 4 0;
#X connect 2 1 13 0;
#X connect 3 0 10 0;
#X connect 4 0 8 0;
#X connect 5 0 0 0;
#X connect 6 0 11 0;
#X connect 12 0 1 0;
#X connect 13 0 9 0;
#X connect 14 0 15 0;
#X connect 15 0 0 0;
#X restore 395 35 pd onoff_switch;
#X obj 1 5 cnv 5 111 62 empty empty empty 50 12 0 10 -4160 -143491
0;
#X obj 3 7 cnv 10 107 58 empty empty empty 50 12 0 10 -13330 -143491
0;
#X obj 63 11 cnv 5 44 28 empty empty empty 2 8 0 10 -4160 -261234 0
;
#X obj 64 13 cnv 5 42 20 empty empty empty 2 8 0 10 -191407 -261234
0;
#X obj 66 15 vradio 16 1 0 1 \$0-onoff_sw_snd \$0-onoff_sw_rcv empty
0 -8 0 10 -195568 -195568 -195568 0;
#X obj 83 15 cnv 5 21 16 empty \$0-onoff_display_rcv OFF 1 9 0 10 -1
-261689 0;
#X obj 24 26 cnv 5 36 10 empty empty waves 1 4 0 12 -13381 -204800
0;
#X obj 395 5 inlet onoff;
#X obj 8 40 cnv 15 99 20 empty empty empty 20 12 0 14 -4160 -66577
0;
#X obj 13 42 hsl 90 15 0 1 0 0 \$0-L_slider_snd \$0-L_slider_rcv level
29 8 0 10 -204800 -4160 -4160 0 1;
#X obj 38 16 cnv 5 22 10 empty empty sea 1 4 0 12 -13381 -204800 0
;
#X obj 132 241 outlet~;
#X obj 2 115 hip~ 20;
#X obj 132 115 hip~ 20;
#X obj 2 201 *~;
#X obj 132 201 *~;
#N canvas 643 23 236 274 wind 0;
#X obj 54 179 pan~;
#X obj 79 74 random -45 45;
#X obj 79 134 line;
#X obj 79 104 \$1 5000;
#X obj -26 44 cnoise1~;
#X obj -26 74 lop~ 600;
#X obj -26 14 inlet~ noise;
#X obj 79 14 inlet onoff;
#X obj -26 240 outlet~;
#X obj 79 44 metro 5000;
#X obj 54 240 throw~ \$0-main_L;
#X obj 79 210 throw~ \$0-main_R;
#X obj -16 114 *~ 0.005;
#X connect 0 0 10 0;
#X connect 0 1 11 0;
#X connect 1 0 3 0;
#X connect 2 0 0 1;
#X connect 3 0 2 0;
#X connect 4 0 5 0;
#X connect 5 0 8 0;
#X connect 5 0 12 0;
#X connect 6 0 4 0;
#X connect 7 0 4 1;
#X connect 7 0 9 0;
#X connect 9 0 1 0;
#X connect 12 0 0 0;
#X restore 442 111 pd wind;
#X obj 2 85 catch~ \$0-main_L;
#X obj 132 85 catch~ \$0-main_R;
#X obj 255 35 s \$0-L_slider_rcv;
#X obj 150 161 r \$0-L_slider_snd;
#X obj 125 35 s \$0-waves_ctrl;
#X obj 125 5 inlet control;
#X obj 6 12 cnv 5 30 12 empty empty AUTO 1 6 0 12 -13381 -204800 0
;
#X connect 0 0 26 0;
#X connect 0 0 1 0;
#X connect 0 0 3 0;
#X connect 7 0 29 0;
#X connect 9 0 1 1;
#X connect 9 0 3 1;
#X connect 9 0 2 1;
#X connect 9 0 26 1;
#X connect 17 0 9 0;
#X connect 22 0 24 0;
#X connect 23 0 25 0;
#X connect 24 0 8 0;
#X connect 25 0 21 0;
#X connect 26 0 2 0;
#X connect 27 0 22 0;
#X connect 28 0 23 0;
#X connect 30 0 25 1;
#X connect 30 0 24 1;
#X connect 32 0 31 0;
#X coords 0 -1 1 1 111 70 2 1 1;
