#N canvas 0 23 450 300 12;
#X obj 52 134 average 1;
#X obj 140 134 average 1;
#X obj 228 134 average 1;
#X obj 52 74 unpack f f f;
#X obj 52 204 outlet x;
#X obj 140 204 outlet y;
#X obj 228 204 outlet size;
#X obj 52 34 inlet;
#X obj 140 171 expr 1-$f1;
#X obj 288 34 inlet;
#X connect 0 0 4 0;
#X connect 1 0 8 0;
#X connect 2 0 6 0;
#X connect 3 0 0 0;
#X connect 3 1 1 0;
#X connect 3 2 2 0;
#X connect 7 0 3 0;
#X connect 8 0 5 0;
#X connect 9 0 2 1;
#X connect 9 0 1 1;
#X connect 9 0 0 1;
