#N canvas 84 187 221 170 12;
#X declare -lib Gem;
#X declare -lib iemmatrix;
#X declare -lib hexloader;
#X declare -lib iemmatrix;
#X declare -lib mrpeach;
#X declare -lib mrpeach;
#X declare -lib iemgui;
#X text 78 2 ÄÄNIKATOS;
#X text 83 22 SENSORS;
#X text 93 129 2018;
#X text 24 104 Anastasios Mavrolampados;
#X text 16 84 Juan Ignacio Mendoza Garay;
#N canvas 373 372 711 462 data_input 0;
#X text -78 171 on/off -->;
#X obj 2 174 tgl 15 0 empty empty empty 17 7 0 10 -262144 -1 -1 0 1
;
#X text -106 203 controller -->;
#N canvas 249 412 497 211 polling_xy 0;
#X obj 140 146 f;
#X obj 140 176 outlet;
#X obj 158 6 inlet;
#X obj 210 146 f;
#X obj 210 176 outlet;
#X obj 228 6 inlet;
#X obj 88 96 metro 25;
#X obj 88 6 inlet;
#X connect 0 0 1 0;
#X connect 2 0 0 1;
#X connect 3 0 4 0;
#X connect 5 0 3 1;
#X connect 6 0 0 0;
#X connect 6 0 3 0;
#X connect 7 0 6 0;
#X restore -60 334 pd polling_xy;
#X obj 245 174 tgl 15 0 empty empty empty 17 7 0 10 -262144 -1 -1 0
1;
#N canvas 639 112 355 205 myo_process 0;
#X obj 22 61 outlet;
#X obj 72 61 outlet;
#X obj 122 61 outlet;
#X obj 194 61 outlet;
#X obj 242 61 outlet;
#X text 39 -89 x;
#X text 89 -89 y;
#X text 138 -89 z;
#X text 202 -89 yaw;
#X text 246 -89 pitch;
#X text 299 -89 roll;
#X obj 32 -19 unpack f f f;
#X obj 202 -19 unpack f f f;
#X obj 32 -59 inlet;
#X obj 202 -59 inlet;
#X text 50 -104 acceleration;
#X text 219 -104 orientation;
#N canvas 894 706 362 132 tilt 0;
#X obj 24 15 inlet;
#X obj 294 15 inlet;
#X obj 24 95 outlet;
#X obj 24 54 expr (abs($f1) + abs($f2+1.55)) - 0.157;
#X connect 0 0 3 0;
#X connect 1 0 3 1;
#X connect 3 0 2 0;
#X restore 242 26 pd tilt;
#X connect 11 0 0 0;
#X connect 11 1 1 0;
#X connect 11 2 2 0;
#X connect 12 0 3 0;
#X connect 12 1 17 0;
#X connect 12 2 17 1;
#X connect 13 0 11 0;
#X connect 14 0 12 0;
#X connect 17 0 4 0;
#X restore 245 334 pd myo_process;
#X obj 107 334 average 20;
#X obj 394 43 loadbang;
#X obj 394 104 tgl 15 0 empty empty empty 17 7 0 10 -262144 -1 -1 0
1;
#X obj 394 174 tgl 15 0 empty empty empty 17 7 0 10 -262144 -1 -1 0
1;
#N canvas 782 23 450 446 Taction_Game 0;
#X obj -241 -137 inlet;
#X obj -241 483 outlet;
#N canvas 625 100 815 763 Taction_Game_GUI 0;
#X obj 100 -20 spigot;
#X obj 100 565 outlet n v;
#X obj 100 100 Taction_Game_mapper;
#X obj 100 -60 notein;
#X obj 100 70 pack f f;
#X text 356 74 notes in;
#X text 612 74 notes out;
#X obj 543 -11 loadbang;
#X obj 153 -20 spigot;
#X obj 192 -60 inlet;
#X obj 153 10 select 0;
#X msg 153 40 0;
#X msg 206 40 100;
#X msg 232 -20 pd \; pd-Taction_Game vis \$1;
#X msg 333 19 74 83 72 71 55 81 69 67 59 57 64 62;
#X msg 605 19 60 61 62 63 64 65 66 67 68 69 70 71;
#X msg 543 46 70 67 71 68 65 62 69 66 63 60 64 61;
#X msg 286 -51 81 57 83 55 59 62 74 71 67 64 72 69;
#X msg 553 -54 70 67 71 68 65 62 69 66 63 60 64 61;
#X msg 276 49 81 57 83 55 59 62 74 71 67 64 72 69;
#X connect 0 0 4 0;
#X connect 2 0 1 0;
#X connect 3 0 0 0;
#X connect 3 1 8 0;
#X connect 4 0 2 0;
#X connect 7 0 16 0;
#X connect 7 0 19 0;
#X connect 8 0 10 0;
#X connect 9 0 0 1;
#X connect 9 0 8 1;
#X connect 9 0 13 0;
#X connect 10 0 11 0;
#X connect 10 1 12 0;
#X connect 11 0 4 1;
#X connect 12 0 4 1;
#X connect 16 0 2 2;
#X connect 19 0 2 1;
#X coords 0 -1 1 1 450 450 2 100 100;
#X restore -241 15 pd Taction_Game_GUI;
#X connect 0 0 2 0;
#X connect 2 0 1 0;
#X restore 394 333 pd Taction_Game;
#X obj 2 204 video_blob;
#N canvas 990 600 450 300 midi-settings 0;
#X obj 81 195 s pd;
#X obj 81 75 inlet;
#X msg 81 145 midi-dialog 1 0 0 0 0 0 0 0 2 2;
#X msg 111 105 midi-dialog 3 0 0 0 0 0 0 0 4 3;
#X connect 1 0 2 0;
#X connect 2 0 0 0;
#X restore 482 93 pd midi-settings;
#X text 105 124 threshold;
#X msg 54 174 8;
#X text 47 124 smooth;
#X text 175 124 mask;
#X msg 107 174 0.3;
#X msg 167 174 2 9 2 9;
#X obj 496 43 import mrpeach;
#N canvas 362 159 964 309 send_sensor_data_OSC 0;
#X obj 86 -9 packOSC;
#X obj 166 51 udpsend;
#X msg 166 -9 disconnect;
#X obj -125 -198 inlet;
#X obj 33 -199 inlet;
#X obj 83 -199 inlet;
#X obj 133 -199 inlet;
#X obj 183 -199 inlet;
#X obj 233 -199 inlet;
#X obj 382 -200 inlet;
#X obj -225 -198 inlet;
#X obj -175 -198 inlet;
#X obj 86 -129 pack f f f f f;
#X msg 86 -99 send /soundshelter/myo \$1 \$2 \$3 \$4 \$5;
#X msg -208 -98 send /soundshelter/video \$1 \$2 \$3;
#X obj -208 -128 pack f f f;
#X msg 382 -99 send /soundshelter/midi \$1 \$2;
#X obj 166 81 tgl 15 0 empty empty empty 17 7 0 10 -262144 -1 -1 1
1;
#X obj 632 -200 inlet;
#X obj 632 -100 select 0 1;
#X msg 274 -9 connect 169.254.124.137 8000;
#X connect 0 0 1 0;
#X connect 1 0 17 0;
#X connect 2 0 1 0;
#X connect 3 0 15 2;
#X connect 4 0 12 0;
#X connect 5 0 12 1;
#X connect 6 0 12 2;
#X connect 7 0 12 3;
#X connect 8 0 12 4;
#X connect 9 0 16 0;
#X connect 10 0 15 0;
#X connect 11 0 15 1;
#X connect 12 0 13 0;
#X connect 13 0 0 0;
#X connect 14 0 0 0;
#X connect 15 0 14 0;
#X connect 16 0 0 0;
#X connect 18 0 19 0;
#X connect 19 0 2 0;
#X connect 19 1 20 0;
#X connect 20 0 1 0;
#X restore 205 421 pd send_sensor_data_OSC;
#X obj 524 174 tgl 15 0 empty empty empty 17 7 0 10 -262144 -1 -1 1
1;
#X obj 524 333 f;
#N canvas 639 112 191 157 myo_OSC_GUI 0;
#X obj 18 -7 inlet;
#X msg 38 23 pd \; pd-myo_GUI vis \$1;
#N canvas 961 539 386 189 myo_GUI 0;
#X obj -331 -128 inlet;
#X obj -331 92 outlet;
#X obj 46 92 outlet;
#X obj -331 -94 Myo_OSC_lite;
#X connect 0 0 3 0;
#X connect 3 0 1 0;
#X connect 3 1 2 0;
#X restore 18 73 pd myo_GUI;
#X obj 18 103 outlet;
#X obj 85 103 outlet;
#X connect 0 0 1 0;
#X connect 0 0 2 0;
#X connect 2 0 3 0;
#X connect 2 1 4 0;
#X restore 245 294 pd myo_OSC_GUI;
#X obj 394 73 1;
#X connect 1 0 3 0;
#X connect 1 0 11 0;
#X connect 3 0 20 0;
#X connect 3 1 20 1;
#X connect 4 0 23 0;
#X connect 5 0 20 3;
#X connect 5 1 20 4;
#X connect 5 2 20 5;
#X connect 5 3 20 6;
#X connect 5 4 20 7;
#X connect 6 0 20 2;
#X connect 7 0 12 0;
#X connect 7 0 24 0;
#X connect 8 0 4 0;
#X connect 8 0 9 0;
#X connect 8 0 1 0;
#X connect 8 0 17 0;
#X connect 8 0 14 0;
#X connect 8 0 18 0;
#X connect 8 0 21 0;
#X connect 9 0 10 0;
#X connect 10 0 20 8;
#X connect 11 0 3 1;
#X connect 11 1 3 2;
#X connect 11 2 6 0;
#X connect 14 0 11 1;
#X connect 17 0 11 2;
#X connect 18 0 11 3;
#X connect 21 0 22 0;
#X connect 22 0 20 9;
#X connect 23 0 5 0;
#X connect 23 1 5 1;
#X connect 24 0 8 0;
#X restore 62 48 pd data_input;
