#N canvas 2 23 165 170 12;
#X declare -lib mrpeach;
#X declare -lib iemgui;
#X declare -lib Gem;
#X declare -lib iemmatrix;
#X declare -lib hexloader;
#X declare -lib iemmatrix;
#X declare -lib iemgui;
#X declare -lib iemmatrix;
#X declare -lib list-abs;
#X declare -lib iemmatrix;
#X declare -lib list-abs;
#X declare -lib iemmatrix;
#X declare -lib list-abs;
#X declare -lib iemmatrix;
#X declare -lib list-abs;
#X declare -lib iemmatrix;
#X declare -lib list-abs;
#X declare -lib iemmatrix;
#X declare -lib list-abs;
#X declare -lib iemmatrix;
#X declare -lib iemmatrix;
#X declare -lib iemmatrix;
#X declare -lib iemmatrix;
#X declare -lib list-abs;
#X declare -lib iemmatrix;
#X declare -lib smlib;
#X declare -lib hexloader;
#X declare -lib iemmatrix;
#X declare -lib iemgui -lib vbap -lib iemlib -lib iemmatrix -lib mrpeach
;
#X declare -lib vbap;
#X declare -lib iemgui -lib vbap -lib iemlib -lib iemmatrix -lib mrpeach
;
#X declare -lib vbap;
#X text 48 2 ÄÄNIKATOS;
#N canvas 1929 566 1011 370 control 1;
#X text -141 67 on/off -->;
#X obj -61 70 tgl 15 0 empty empty empty 17 7 0 10 -262144 -1 -1 1
1;
#X text -169 99 controller -->;
#N canvas 249 412 497 211 polling_xy 0;
#X obj 140 146 f;
#X obj 140 176 outlet;
#X obj 158 6 inlet;
#X obj 210 146 f;
#X obj 210 176 outlet;
#X obj 228 6 inlet;
#X obj 88 96 metro 25;
#X obj 88 6 inlet;
#X connect 0 0 1 0;
#X connect 2 0 0 1;
#X connect 3 0 4 0;
#X connect 5 0 3 1;
#X connect 6 0 0 0;
#X connect 6 0 3 0;
#X connect 7 0 6 0;
#X restore -123 220 pd polling_xy;
#X obj 268 70 tgl 15 0 empty empty empty 17 7 0 10 -262144 -1 -1 1
1;
#N canvas 639 112 366 174 myo_process 0;
#X obj 22 31 outlet;
#X obj 72 31 outlet;
#X obj 122 31 outlet;
#X obj 192 31 outlet;
#X obj 242 31 outlet;
#X obj 292 31 outlet;
#X text 39 51 x;
#X text 89 51 y;
#X text 138 51 z;
#X text 202 51 yaw;
#X text 246 51 pitch;
#X text 299 51 roll;
#X obj 32 -19 unpack f f f;
#X obj 202 -19 unpack f f f;
#X obj 32 -59 inlet;
#X obj 202 -59 inlet;
#X text 50 71 acceleration;
#X text 219 71 orientation;
#X connect 12 0 0 0;
#X connect 12 1 1 0;
#X connect 12 2 2 0;
#X connect 13 0 3 0;
#X connect 13 1 4 0;
#X connect 13 2 5 0;
#X connect 14 0 12 0;
#X connect 15 0 13 0;
#X restore 242 230 pd myo_process;
#X obj -123 300 s \$0-v_x;
#X obj -35 300 s \$0-v_y;
#X obj 44 300 s \$0-v_s;
#X obj 118 300 s \$0-m_x;
#X obj 188 300 s \$0-m_y;
#X obj 258 300 s \$0-m_z;
#X obj 328 300 s \$0-m_w;
#X obj 398 300 s \$0-m_p;
#X obj 468 300 s \$0-m_r;
#X obj 44 260 average 20;
#X obj 541 300 s \$0-global_audio_switch;
#X obj 541 70 tgl 15 0 empty empty empty 17 7 0 10 -262144 -1 -1 1
1;
#X obj 391 -29 loadbang;
#X obj 391 32 tgl 15 0 empty empty empty 17 7 0 10 -262144 -1 -1 0
1;
#X obj 722 299 s \$0-MIDI_in;
#X obj 722 70 tgl 15 0 empty empty empty 17 7 0 10 -262144 -1 -1 1
1;
#N canvas 782 23 450 446 Taction_Game 1;
#X obj -241 -137 inlet;
#X obj -241 483 outlet;
#N canvas 708 100 815 763 Taction_Game_GUI 0;
#X obj 100 -20 spigot;
#X obj 100 565 outlet n v;
#X obj 100 100 Taction_Game_mapper;
#X obj 100 -60 notein;
#X obj 100 70 pack f f;
#X text 356 74 notes in;
#X text 612 74 notes out;
#X obj 543 -11 loadbang;
#X obj 153 -20 spigot;
#X obj 192 -60 inlet;
#X obj 153 10 select 0;
#X msg 153 40 0;
#X msg 206 40 100;
#X msg 232 -20 pd \; pd-Taction_Game vis \$1;
#X msg 333 19 74 83 72 71 55 81 69 67 59 57 64 62;
#X msg 605 19 60 61 62 63 64 65 66 67 68 69 70 71;
#X msg 543 46 70 67 71 68 65 62 69 66 63 60 64 61;
#X msg 286 -51 81 57 83 55 59 62 74 71 67 64 72 69;
#X msg 553 -54 70 67 71 68 65 62 69 66 63 60 64 61;
#X msg 276 49 81 57 83 55 59 62 74 71 67 64 72 69;
#X connect 0 0 4 0;
#X connect 2 0 1 0;
#X connect 3 0 0 0;
#X connect 3 1 8 0;
#X connect 4 0 2 0;
#X connect 7 0 16 0;
#X connect 7 0 19 0;
#X connect 8 0 10 0;
#X connect 9 0 0 1;
#X connect 9 0 8 1;
#X connect 9 0 13 0;
#X connect 10 0 11 0;
#X connect 10 1 12 0;
#X connect 11 0 4 1;
#X connect 12 0 4 1;
#X connect 16 0 2 2;
#X connect 19 0 2 1;
#X coords 0 -1 1 1 450 450 2 100 100;
#X restore -241 15 pd Taction_Game_GUI;
#X connect 0 0 2 0;
#X connect 2 0 1 0;
#X restore 722 139 pd Taction_Game;
#X obj 268 180 Myo_OSC;
#X obj -61 100 video_blob;
#N canvas 1294 617 450 300 midi-settings 0;
#X obj 81 195 s pd;
#X msg 111 105 midi-dialog 1 0 0 0 0 0 0 0 2 2;
#X obj 81 75 inlet;
#X msg 81 145 midi-dialog 3 0 0 0 0 0 0 0 4 3;
#X connect 2 0 3 0;
#X connect 3 0 0 0;
#X restore 431 1 pd midi-settings;
#X text 42 40 threshold;
#X msg -9 70 8;
#X text -16 40 smooth;
#X text 112 40 mask;
#X obj 391 1 0;
#X msg 44 70 0.3;
#X msg 104 70 2 9 2 9;
#X connect 1 0 3 0;
#X connect 1 0 24 0;
#X connect 3 0 6 0;
#X connect 3 1 7 0;
#X connect 4 0 23 0;
#X connect 4 0 23 1;
#X connect 4 0 23 4;
#X connect 5 0 9 0;
#X connect 5 1 10 0;
#X connect 5 2 11 0;
#X connect 5 3 12 0;
#X connect 5 4 13 0;
#X connect 5 5 14 0;
#X connect 15 0 8 0;
#X connect 17 0 16 0;
#X connect 18 0 25 0;
#X connect 18 0 30 0;
#X connect 19 0 17 0;
#X connect 19 0 4 0;
#X connect 19 0 21 0;
#X connect 19 0 1 0;
#X connect 19 0 31 0;
#X connect 19 0 27 0;
#X connect 19 0 32 0;
#X connect 21 0 22 0;
#X connect 22 0 20 0;
#X connect 23 0 5 0;
#X connect 23 3 5 1;
#X connect 24 0 3 1;
#X connect 24 1 3 2;
#X connect 24 2 15 0;
#X connect 27 0 24 1;
#X connect 30 0 19 0;
#X connect 31 0 24 2;
#X connect 32 0 24 3;
#X restore 43 29 pd control;
#N canvas 414 23 1265 459 mapping 0;
#X obj -284 -296 cnv 15 69 28 empty empty empty 20 12 0 14 -99865 -66577
0;
#X obj -282 -294 cnv 15 65 24 empty empty empty 20 12 0 14 -261682
-66577 0;
#X obj -379 -296 cnv 15 69 28 empty empty empty 20 12 0 14 -99865 -66577
0;
#X obj -377 -294 cnv 15 65 24 empty empty empty 20 12 0 14 -261234
-66577 0;
#X obj -384 -13 cnv 15 115 26 empty empty empty 20 12 0 14 -162280
-66577 0;
#X obj -384 -13 cnv 15 113 24 empty empty empty 20 12 0 14 -1 -66577
0;
#X obj -375 -11 s \$0-velocity;
#N canvas 758 22 316 341 velocity 0;
#X obj -145 -1 delta;
#X obj 48 27 vsl 17 74 0 1 0 0 empty empty empty 0 -9 0 10 -228856
-258113 -1 0 1;
#X obj -145 29 abs;
#X obj -145 89 average 20;
#N canvas 0 22 245 182 settler 0;
#X obj 1 1 cnv 15 39 37 empty empty empty 20 12 0 14 -191407 -66577
0;
#X floatatom 2 18 5 0 0 0 - - -;
#X msg -138 -23 20;
#X text -138 -53 settler;
#X text -137 87 Juan Ignacio Mendoza - 2017;
#X msg -138 57 set \$1;
#X obj 2 2 bng 15 250 50 0 empty empty empty 17 7 0 10 -262144 -1 -1
;
#X obj 2 57 outlet;
#X obj -12 -53 loadbang;
#X msg -12 -23 20;
#X connect 1 0 5 0;
#X connect 1 0 7 0;
#X connect 2 0 1 0;
#X connect 5 0 2 0;
#X connect 6 0 1 0;
#X connect 8 0 9 0;
#X connect 9 0 1 0;
#X coords 0 -1 1 1 41 39 2 0 0;
#X restore 6 25 pd settler;
#N canvas 0 22 245 182 settler 0;
#X obj 1 1 cnv 15 39 37 empty empty empty 20 12 0 14 -191407 -66577
0;
#X floatatom 2 18 5 0 0 0 - - -;
#X msg -138 -23 2;
#X text -138 -53 settler;
#X text -137 87 Juan Ignacio Mendoza - 2017;
#X msg -138 57 set \$1;
#X obj 2 2 bng 15 250 50 0 empty empty empty 17 7 0 10 -262144 -1 -1
;
#X obj 2 57 outlet;
#X obj -12 -53 loadbang;
#X msg -12 -23 2;
#X connect 1 0 5 0;
#X connect 1 0 7 0;
#X connect 2 0 1 0;
#X connect 5 0 2 0;
#X connect 6 0 1 0;
#X connect 8 0 9 0;
#X connect 9 0 1 0;
#X coords 0 -1 1 1 41 39 2 0 0;
#X restore 6 65 pd settler;
#X obj -145 -31 inlet;
#X obj -145 249 outlet;
#X obj -145 219 rescaler;
#X obj -132 119 loadbang;
#X msg -132 149 0;
#X obj 6 153 / 100;
#X msg -92 152 1;
#X floatatom -25 232 5 0 0 0 - - -;
#X connect 0 0 2 0;
#X connect 2 0 3 0;
#X connect 3 0 8 0;
#X connect 4 0 3 1;
#X connect 5 0 11 0;
#X connect 6 0 0 0;
#X connect 8 0 7 0;
#X connect 8 0 1 0;
#X connect 8 0 13 0;
#X connect 9 0 10 0;
#X connect 9 0 12 0;
#X connect 10 0 8 1;
#X connect 10 0 8 3;
#X connect 11 0 8 2;
#X connect 12 0 8 4;
#X coords 0 -1 1 1 72 110 1 0 0;
#X restore -375 -202 pd velocity;
#N canvas 758 22 316 341 velocity 0;
#X obj -145 -1 delta;
#X obj 48 27 vsl 17 74 0 1 0 0 empty empty empty 0 -9 0 10 -228856
-258113 -1 0 1;
#X obj -145 29 abs;
#X obj -145 89 average 20;
#N canvas 0 22 245 182 settler 0;
#X obj 1 1 cnv 15 39 37 empty empty empty 20 12 0 14 -191407 -66577
0;
#X floatatom 2 18 5 0 0 0 - - -;
#X msg -138 -23 20;
#X text -138 -53 settler;
#X text -137 87 Juan Ignacio Mendoza - 2017;
#X msg -138 57 set \$1;
#X obj 2 2 bng 15 250 50 0 empty empty empty 17 7 0 10 -262144 -1 -1
;
#X obj 2 57 outlet;
#X obj -12 -53 loadbang;
#X msg -12 -23 20;
#X connect 1 0 5 0;
#X connect 1 0 7 0;
#X connect 2 0 1 0;
#X connect 5 0 2 0;
#X connect 6 0 1 0;
#X connect 8 0 9 0;
#X connect 9 0 1 0;
#X coords 0 -1 1 1 41 39 2 0 0;
#X restore 6 25 pd settler;
#N canvas 0 22 245 182 settler 0;
#X obj 1 1 cnv 15 39 37 empty empty empty 20 12 0 14 -191407 -66577
0;
#X floatatom 2 18 5 0 0 0 - - -;
#X msg -138 -23 2;
#X text -138 -53 settler;
#X text -137 87 Juan Ignacio Mendoza - 2017;
#X msg -138 57 set \$1;
#X obj 2 2 bng 15 250 50 0 empty empty empty 17 7 0 10 -262144 -1 -1
;
#X obj 2 57 outlet;
#X obj -12 -53 loadbang;
#X msg -12 -23 2;
#X connect 1 0 5 0;
#X connect 1 0 7 0;
#X connect 2 0 1 0;
#X connect 5 0 2 0;
#X connect 6 0 1 0;
#X connect 8 0 9 0;
#X connect 9 0 1 0;
#X coords 0 -1 1 1 41 39 2 0 0;
#X restore 6 65 pd settler;
#X obj -145 -31 inlet;
#X obj -145 249 outlet;
#X obj -145 219 rescaler;
#X obj -132 119 loadbang;
#X msg -132 149 0;
#X obj 6 153 / 100;
#X msg -92 152 1;
#X floatatom -25 232 5 0 0 0 - - -;
#X connect 0 0 2 0;
#X connect 2 0 3 0;
#X connect 3 0 8 0;
#X connect 4 0 3 1;
#X connect 5 0 11 0;
#X connect 6 0 0 0;
#X connect 8 0 7 0;
#X connect 8 0 1 0;
#X connect 8 0 13 0;
#X connect 9 0 10 0;
#X connect 9 0 12 0;
#X connect 10 0 8 1;
#X connect 10 0 8 3;
#X connect 11 0 8 2;
#X connect 12 0 8 4;
#X coords 0 -1 1 1 72 110 1 0 0;
#X restore -280 -202 pd velocity;
#X floatatom -270 -261 5 0 0 0 - - -;
#X floatatom -365 -261 5 0 0 0 - - -;
#X obj -75 -296 cnv 15 69 28 empty empty empty 20 12 0 14 -99865 -66577
0;
#X obj 58 -296 cnv 15 69 28 empty empty empty 20 12 0 14 -99865 -66577
0;
#X obj 138 -296 cnv 15 69 28 empty empty empty 20 12 0 14 -99865 -66577
0;
#X obj -73 -294 cnv 15 65 24 empty empty empty 20 12 0 14 -204786 -66577
0;
#X obj 60 -294 cnv 15 65 24 empty empty empty 20 12 0 14 -204800 -66577
0;
#X obj 140 -294 cnv 15 65 24 empty empty empty 20 12 0 14 -203904 -66577
0;
#X obj 39 -13 cnv 15 115 26 empty empty empty 20 12 0 14 -162280 -66577
0;
#X obj 39 -13 cnv 15 113 24 empty empty empty 20 12 0 14 -1 -66577
0;
#X obj 73 -154 vsl 30 128 0 2 0 1 empty empty empty 0 -9 0 10 -204786
-1 -1 0 1;
#N canvas 244 274 575 323 radisp 0;
#X obj 2 2 cnv 15 104 104 empty empty empty 20 12 0 14 -1 -66577 0
;
#X obj 3 3 cube_sphere 0 51 29 225270 262143 0 32 14;
#X obj 213 -113 import iemgui;
#X obj 123 -113 loadbang;
#X obj 3 -173 inlet;
#X msg 75 -79 0;
#X msg 3 -43 src_dp 1 17 \$1;
#X msg 123 -44 size 100 \, nr_src 0 \, src_font 29 \, src_col 1 22
\, frame_col 0 \, sphere_col 6;
#X obj 3 -143 expr ($f1 * 180)/3.14;
#X connect 3 0 7 0;
#X connect 3 0 5 0;
#X connect 4 0 8 0;
#X connect 5 0 6 0;
#X connect 6 0 1 0;
#X connect 7 0 1 0;
#X connect 8 0 6 0;
#X coords 0 -1 1 1 106 106 2 1 1;
#X restore -60 -139 pd radisp;
#X obj -86 -13 cnv 15 95 26 empty empty empty 20 12 0 14 -162280 -66577
0;
#X obj -86 -13 cnv 15 93 24 empty empty empty 20 12 0 14 -1 -66577
0;
#X obj -70 -11 s \$0-yaw;
#X floatatom 153 -261 5 0 0 0 - - -;
#X floatatom 73 -260 5 0 0 0 - - -;
#X floatatom -60 -260 5 0 0 0 - - -;
#X obj -375 -292 r \$0-v_x;
#X obj -280 -292 r \$0-v_y;
#X obj -70 -292 r \$0-m_w;
#X obj 63 -292 r \$0-m_p;
#X obj 143 -292 r \$0-m_r;
#X obj -214 64 cnv 15 127 28 empty empty empty 20 12 0 14 -4160 -66577
0;
#X obj -212 66 cnv 15 123 24 empty empty empty 20 12 0 14 -13330 -66577
0;
#N canvas 644 602 307 231 wave_control 0;
#X obj 2 203 s \$0-wave_energy;
#X obj 2 13 inlet;
#X obj 152 203 s \$0-wave_level;
#X obj 2 93 / 2;
#N canvas 117 648 304 344 auto_circle 0;
#X obj 98 291 outlet x;
#X obj 178 291 outlet y;
#X obj 24 -9 inlet tgl;
#X obj 24 41 metro 100;
#X obj 24 71 cup;
#X msg -16 41 0;
#X obj 98 191 + 1;
#X obj 98 221 / 2;
#X floatatom 48 261 5 0 0 0 - - -;
#X floatatom 198 261 5 0 0 0 - - -;
#X obj 178 191 + 1;
#X obj 178 221 / 2;
#X obj 24 101 / 10;
#X obj 24 131 select 6.3;
#X obj 98 161 cos;
#X obj 178 161 sin;
#X connect 2 0 3 0;
#X connect 3 0 4 0;
#X connect 4 0 12 0;
#X connect 5 0 4 0;
#X connect 6 0 7 0;
#X connect 7 0 0 0;
#X connect 7 0 8 0;
#X connect 10 0 11 0;
#X connect 11 0 1 0;
#X connect 11 0 9 0;
#X connect 12 0 13 0;
#X connect 13 0 5 0;
#X connect 13 1 14 0;
#X connect 13 1 15 0;
#X connect 14 0 6 0;
#X connect 15 0 10 0;
#X restore 14 167 pd auto_circle;
#X obj 14 147 tgl 15 0 empty empty empty 17 7 0 10 -262144 -1 -1 0
1;
#X obj 152 133 + 0.5;
#X obj 152 13 loadbang;
#X msg 152 41 0;
#X obj 152 163 moses 1;
#X obj 2 63 average 80;
#X connect 1 0 10 0;
#X connect 3 0 0 0;
#X connect 3 0 6 0;
#X connect 4 0 0 0;
#X connect 5 0 4 0;
#X connect 6 0 9 0;
#X connect 7 0 8 0;
#X connect 8 0 6 0;
#X connect 9 0 2 0;
#X connect 10 0 3 0;
#X restore -205 68 pd wave_control;
#X obj -285 39 r \$0-velocity;
#X obj 217 64 cnv 15 127 28 empty empty empty 20 12 0 14 -232576 -66577
0;
#X obj 219 66 cnv 15 123 24 empty empty empty 20 12 0 14 -261682 -66577
0;
#N canvas 374 438 535 242 RF_control 0;
#X obj -32 161 s \$0-RF_note_v_1;
#X obj 108 161 s \$0-RF_q;
#X obj 108 -7 inlet agitation;
#X obj -32 -7 inlet MIDI_n_v;
#X obj 108 123 moses 1;
#X connect 2 0 4 0;
#X connect 3 0 0 0;
#X connect 4 0 1 0;
#X restore 232 68 pd RF_control;
#X obj 232 39 r \$0-MIDI_n_v;
#X obj 218 -13 cnv 15 125 26 empty empty empty 20 12 0 14 -162280 -66577
0;
#X obj 218 -13 cnv 15 123 24 empty empty empty 20 12 0 14 -1 -66577
0;
#X obj 216 -296 cnv 15 120 28 empty empty empty 20 12 0 14 -33289 -66577
0;
#X obj 218 -294 cnv 15 116 24 empty empty empty 20 12 0 14 -4160 -66577
0;
#X obj 232 -11 s \$0-MIDI_n_v;
#X obj 232 -292 r \$0-MIDI_in;
#X obj 541 125 cnv 15 147 28 empty empty empty 20 12 0 14 -86277 -66577
0;
#X obj 543 127 cnv 15 143 24 empty empty empty 20 12 0 14 -262130 -66577
0;
#N canvas 1067 351 758 685 Granny_control 0;
#X obj 307 621 s \$0-GS_1_randomness;
#X obj 107 1 loadbang;
#N canvas 1114 401 326 499 smooth_n_tail 0;
#X obj 142 36 inlet;
#X obj 103 456 outlet;
#X obj 3 126 < 0;
#X obj 73 126 > 0;
#X obj 103 266 gate 2;
#X obj 142 376 line;
#X msg 3 216 2;
#X msg 73 216 1;
#X obj 3 156 select 1;
#X obj 73 156 select 1;
#X obj 3 86 delta;
#X obj 103 426 average 20;
#X msg 142 346 \$1 \$2;
#X obj 195 36 inlet tail time;
#X obj 142 306 pack f f;
#X connect 0 0 10 0;
#X connect 0 0 4 1;
#X connect 2 0 8 0;
#X connect 3 0 9 0;
#X connect 4 0 11 0;
#X connect 5 0 11 0;
#X connect 6 0 4 0;
#X connect 7 0 4 0;
#X connect 8 0 6 0;
#X connect 9 0 7 0;
#X connect 10 0 2 0;
#X connect 10 0 3 0;
#X connect 11 0 1 0;
#X connect 12 0 5 0;
#X connect 13 0 14 1;
#X connect 14 0 12 0;
#X restore 497 201 pd smooth_n_tail;
#X obj 497 621 s \$0-GS_1_mix;
#X obj 17 621 s \$0-GS_1_levels;
#X msg 606 162 3000;
#X obj 17 591 pack f f f f f f f f f f f f f f;
#X obj 307 591 pack f f f f f f f f f;
#X msg 68 403 0.2;
#X msg 85 433 0;
#X msg 153 404 0;
#X msg 204 494 0;
#X msg 170 434 0.7;
#X msg 238 554 0;
#X obj 317 1 inlet agitation;
#X obj 177 1 inlet velocity;
#X msg 32 343 0.3;
#X msg 102 463 0;
#X msg 119 494 0.2;
#X msg 51 373 0.2;
#X obj 107 31 bng 15 250 50 0 empty empty empty 17 7 0 10 -262144 -1
-1;
#X msg 136 364 0;
#X msg 382 424 0;
#X msg 439 514 0;
#X msg 458 554 0;
#X msg 344 353 0.2;
#X msg 363 384 0;
#X msg 325 323 0;
#X msg 401 454 0;
#X msg 420 485 0;
#X msg 221 525 0;
#X msg 187 464 0.1;
#X obj 317 32 t b a;
#X obj 17 61 delay 500;
#X obj 17 91 bang;
#X msg 197 324 1;
#X connect 1 0 20 0;
#X connect 2 0 3 0;
#X connect 5 0 2 1;
#X connect 6 0 4 0;
#X connect 7 0 0 0;
#X connect 8 0 6 3;
#X connect 8 0 9 0;
#X connect 9 0 6 4;
#X connect 9 0 17 0;
#X connect 10 0 6 8;
#X connect 10 0 12 0;
#X connect 11 0 6 11;
#X connect 11 0 30 0;
#X connect 12 0 6 9;
#X connect 12 0 31 0;
#X connect 13 0 6 13;
#X connect 14 0 32 0;
#X connect 15 0 2 0;
#X connect 16 0 19 0;
#X connect 16 0 6 1;
#X connect 17 0 6 5;
#X connect 17 0 18 0;
#X connect 18 0 6 6;
#X connect 18 0 21 0;
#X connect 19 0 6 2;
#X connect 19 0 8 0;
#X connect 20 0 5 0;
#X connect 20 0 16 0;
#X connect 20 0 27 0;
#X connect 20 0 33 0;
#X connect 21 0 10 0;
#X connect 22 0 28 0;
#X connect 22 0 7 4;
#X connect 23 0 7 7;
#X connect 23 0 24 0;
#X connect 24 0 7 8;
#X connect 25 0 26 0;
#X connect 25 0 7 2;
#X connect 26 0 22 0;
#X connect 26 0 7 3;
#X connect 27 0 25 0;
#X connect 27 0 7 1;
#X connect 28 0 29 0;
#X connect 28 0 7 5;
#X connect 29 0 23 0;
#X connect 29 0 7 6;
#X connect 30 0 6 12;
#X connect 30 0 13 0;
#X connect 31 0 11 0;
#X connect 31 0 6 10;
#X connect 32 0 34 0;
#X connect 32 1 6 7;
#X connect 33 0 34 0;
#X connect 34 0 6 0;
#X connect 34 0 7 0;
#X restore 553 129 pd Granny_control;
#X obj 494 64 cnv 15 127 28 empty empty empty 20 12 0 14 -258113 -66577
0;
#X obj 496 66 cnv 15 123 24 empty empty empty 20 12 0 14 -262130 -66577
0;
#N canvas 517 810 476 138 fire_control 0;
#X obj 0 -9 inlet agitation;
#X obj -200 83 s \$0-fire_c;
#X obj -107 83 s \$0-fire_h;
#X obj 0 83 s \$0-fire_l;
#X obj 133 83 s \$0-fire_M;
#X obj 133 53 tgl 15 0 empty empty empty 17 7 0 10 -262144 -1 -1 1
1;
#X obj 133 -7 loadbang;
#X obj 133 23 1;
#X obj -107 33 / 2;
#X connect 0 0 3 0;
#X connect 0 0 8 0;
#X connect 5 0 4 0;
#X connect 6 0 7 0;
#X connect 7 0 5 0;
#X connect 8 0 1 0;
#X connect 8 0 2 0;
#X restore 503 68 pd fire_control;
#X obj 503 99 r \$0-velocity;
#X obj 242 -262 unpack f f;
#X floatatom 309 -232 5 0 0 0 - - -;
#X floatatom 242 -232 5 0 0 0 - - -;
#X obj -77 125 cnv 15 130 28 empty empty empty 20 12 0 14 -4160 -66577
0;
#X obj -75 127 cnv 15 126 24 empty empty empty 20 12 0 14 -228856 -66577
0;
#N canvas 713 272 494 123 cart2vbap_yaw 0;
#X obj -26 61 s \$0-spat_x;
#X obj 104 62 s \$0-spat_y;
#X obj 295 61 s \$0-cart2vbap_reset;
#N canvas 117 648 304 344 auto_circle 0;
#X obj 98 291 outlet x;
#X obj 178 291 outlet y;
#X obj 24 -9 inlet tgl;
#X obj 24 71 cup;
#X msg -16 41 0;
#X obj 98 191 + 1;
#X obj 98 221 / 2;
#X floatatom 48 261 5 0 0 0 - - -;
#X floatatom 198 261 5 0 0 0 - - -;
#X obj 178 191 + 1;
#X obj 178 221 / 2;
#X obj 24 101 / 10;
#X obj 24 131 select 6.3;
#X obj 98 161 cos;
#X obj 178 161 sin;
#X obj 24 41 metro 50;
#X connect 2 0 15 0;
#X connect 3 0 11 0;
#X connect 4 0 3 0;
#X connect 5 0 6 0;
#X connect 6 0 0 0;
#X connect 6 0 7 0;
#X connect 9 0 10 0;
#X connect 10 0 1 0;
#X connect 10 0 8 0;
#X connect 11 0 12 0;
#X connect 12 0 4 0;
#X connect 12 1 13 0;
#X connect 12 1 14 0;
#X connect 13 0 5 0;
#X connect 14 0 9 0;
#X connect 15 0 3 0;
#X restore -26 31 pd auto_circle;
#X obj -26 2 tgl 15 0 empty empty empty 17 7 0 10 -262144 -1 -1 0 1
;
#X obj 204 2 inlet;
#X obj 204 62 s \$0-spat_A;
#X obj 204 32 * 57.3;
#X connect 3 0 0 0;
#X connect 3 1 1 0;
#X connect 4 0 3 0;
#X connect 5 0 7 0;
#X connect 7 0 6 0;
#X restore -70 129 pd cart2vbap_yaw;
#X obj -385 125 cnv 15 130 28 empty empty empty 20 12 0 14 -4160 -66577
0;
#X obj -383 127 cnv 15 126 24 empty empty empty 20 12 0 14 -228856
-66577 0;
#X obj -375 99 r \$0-v_x;
#X obj -273 99 r \$0-v_y;
#N canvas 713 272 494 123 cart2vbap_xy 0;
#X obj -26 91 s \$0-spat_x;
#X obj 114 92 s \$0-spat_y;
#X obj 305 91 s \$0-cart2vbap_reset;
#X obj -26 -8 inlet;
#X obj 214 92 s \$0-spat_A;
#N canvas 117 648 304 344 auto_circle 0;
#X obj 98 291 outlet x;
#X obj 178 291 outlet y;
#X obj 24 -9 inlet tgl;
#X obj 24 71 cup;
#X msg -16 41 0;
#X obj 98 191 + 1;
#X obj 98 221 / 2;
#X floatatom 48 261 5 0 0 0 - - -;
#X floatatom 198 261 5 0 0 0 - - -;
#X obj 178 191 + 1;
#X obj 178 221 / 2;
#X obj 24 101 / 10;
#X obj 24 131 select 6.3;
#X obj 98 161 cos;
#X obj 178 161 sin;
#X obj 24 41 metro 50;
#X connect 2 0 15 0;
#X connect 3 0 11 0;
#X connect 4 0 3 0;
#X connect 5 0 6 0;
#X connect 6 0 0 0;
#X connect 6 0 7 0;
#X connect 9 0 10 0;
#X connect 10 0 1 0;
#X connect 10 0 8 0;
#X connect 11 0 12 0;
#X connect 12 0 4 0;
#X connect 12 1 13 0;
#X connect 12 1 14 0;
#X connect 13 0 5 0;
#X connect 14 0 9 0;
#X connect 15 0 3 0;
#X restore 4 61 pd auto_circle;
#X obj 4 32 tgl 15 0 empty empty empty 17 7 0 10 -262144 -1 -1 0 1
;
#X obj 114 -8 inlet;
#X connect 3 0 0 0;
#X connect 5 0 0 0;
#X connect 5 1 1 0;
#X connect 6 0 5 0;
#X connect 7 0 1 0;
#X restore -375 129 pd cart2vbap_xy;
#X obj -384 64 cnv 15 147 28 empty empty empty 20 12 0 14 -140434 -66577
0;
#X obj -382 66 cnv 15 143 24 empty empty empty 20 12 0 14 -262144 -66577
0;
#N canvas 1570 285 191 111 tweeter_control 0;
#X obj 18 1 inlet;
#X obj 18 71 s \$0-tweeter_energy;
#X connect 0 0 1 0;
#X restore -375 68 pd tweeter_control;
#X floatatom 91 -198 5 0 0 0 - - -;
#X obj 63 -11 s \$0-tilt;
#N canvas 894 706 362 132 tilt 0;
#X obj 24 15 inlet;
#X obj 294 15 inlet;
#X obj 24 95 outlet;
#X obj 24 54 expr (abs($f1) + abs($f2+1.55)) - 0.157;
#X connect 0 0 3 0;
#X connect 1 0 3 1;
#X connect 3 0 2 0;
#X restore 63 -231 pd tilt;
#X obj 63 39 r \$0-tilt;
#X obj 47 64 cnv 15 127 28 empty empty empty 20 12 0 14 -162280 -66577
0;
#X obj 49 66 cnv 15 123 24 empty empty empty 20 12 0 14 -86277 -66577
0;
#N canvas 0 47 251 143 PS_control 0;
#X obj 16 91 s \$0-PS_shift;
#X obj 16 11 inlet;
#X connect 1 0 0 0;
#X restore 63 68 pd PS_control;
#X obj -201 -13 cnv 15 95 26 empty empty empty 20 12 0 14 -162280 -66577
0;
#X obj -201 -13 cnv 15 93 24 empty empty empty 20 12 0 14 -1 -66577
0;
#X obj -192 -296 cnv 15 69 28 empty empty empty 20 12 0 14 -99865 -66577
0;
#X obj -190 -294 cnv 15 65 24 empty empty empty 20 12 0 14 -159808
-66577 0;
#X obj -177 -160 vsl 30 128 0.01 1 0 0 empty empty empty 0 -9 0 10
-1 -262144 -1 0 1;
#X obj -187 -262 * 10;
#X obj -187 -11 s \$0-size;
#X floatatom -177 -231 5 0 0 0 - - -;
#X obj -187 -292 r \$0-v_s;
#X obj 625 -13 cnv 15 125 26 empty empty empty 20 12 0 14 -162280 -66577
0;
#X obj 625 -13 cnv 15 123 24 empty empty empty 20 12 0 14 -1 -66577
0;
#X text -372 18 ------------------------------------------------------------
;
#X text 49 18 ------------------------------------------------------------
;
#X text 449 18 ---------------------------------;
#X obj 692 -296 cnv 15 69 28 empty empty empty 20 12 0 14 -99865 -66577
0;
#X obj 694 -294 cnv 15 65 24 empty empty empty 20 12 0 14 -262130 -66577
0;
#X obj 612 -296 cnv 15 69 28 empty empty empty 20 12 0 14 -99865 -66577
0;
#X obj 614 -294 cnv 15 65 24 empty empty empty 20 12 0 14 -261682 -66577
0;
#X obj 532 -296 cnv 15 69 28 empty empty empty 20 12 0 14 -99865 -66577
0;
#X obj 534 -294 cnv 15 65 24 empty empty empty 20 12 0 14 -261234 -66577
0;
#X obj 513 -154 vsl 30 128 0.01 1 0 0 empty empty empty 0 -9 0 10 -1
-204786 -1 0 1;
#X obj 489 -13 cnv 15 125 26 empty empty empty 20 12 0 14 -162280 -66577
0;
#X obj 489 -13 cnv 15 123 24 empty empty empty 20 12 0 14 -1 -66577
0;
#X obj 537 -292 r \$0-m_x;
#X obj 616 -292 r \$0-m_y;
#X obj 697 -291 r \$0-m_z;
#N canvas 1353 545 395 230 novelty_3D________switches 0;
#X obj 20 16 inlet;
#X obj 70 16 inlet;
#X obj 120 16 inlet;
#X obj 20 186 outlet;
#X obj 20 66 pack f f f;
#X obj 170 186 outlet;
#X obj 170 16 loadbang;
#X obj 290 186 outlet;
#X obj 290 16 r \$0-agit_acc;
#X obj 290 56 moses 0.1;
#X msg 350 86 1;
#X msg 290 86 0;
#X obj 290 116 change;
#X obj 170 56 delay 500;
#X obj 290 156 select 1;
#X msg 170 156 1 30 2 0 0.3 0;
#X connect 0 0 4 0;
#X connect 1 0 4 1;
#X connect 2 0 4 2;
#X connect 4 0 3 0;
#X connect 6 0 13 0;
#X connect 8 0 9 0;
#X connect 9 0 11 0;
#X connect 9 1 10 0;
#X connect 10 0 12 0;
#X connect 11 0 12 0;
#X connect 12 0 14 0;
#X connect 13 0 15 0;
#X connect 14 0 7 0;
#X connect 15 0 5 0;
#X restore 643 -231 pd novelty_3D________switches;
#X obj -70 99 r \$0-yaw;
#X obj 353 124 cnv 15 127 28 empty empty empty 20 12 0 14 -204800 -66577
0;
#X obj 355 126 cnv 15 123 24 empty empty empty 20 12 0 14 -228856 -66577
0;
#N canvas 95 292 299 304 rain_control 0;
#X obj 92 213 s \$0-rain_energy;
#X obj 92 13 inlet;
#X obj 92 183 moses 1;
#X obj 92 153 + 0.1;
#X obj 142 13 inlet;
#X obj 92 113 +;
#X obj 102 73 t b a;
#X connect 1 0 5 0;
#X connect 2 0 0 0;
#X connect 3 0 2 0;
#X connect 4 0 6 0;
#X connect 5 0 3 0;
#X connect 6 0 5 0;
#X connect 6 1 5 1;
#X restore 362 128 pd rain_control;
#N canvas 889 26 433 362 k_agitation_1 0;
#X obj -76 149 metro;
#X obj -76 119 tgl 15 0 empty empty empty 17 7 0 10 -262144 -1 -1 0
1;
#X obj 3 11 vsl 15 128 10 10000 0 0 empty empty empty 0 -9 0 10 -262144
-1 -1 0 1;
#X floatatom 3 153 5 0 0 0 - - -;
#X obj -76 179 tgl 15 0 empty empty empty 17 7 0 10 -262144 -1 -1 0
1;
#X obj -76 206 *;
#X obj 53 51 vsl 15 128 1 1000 0 0 empty empty empty 0 -9 0 10 -262144
-1 -1 0 1;
#X floatatom 53 193 5 0 0 0 - - -;
#X text -194 117 TEST ON/OFF --->;
#X msg -266 39 0;
#X obj -266 9 loadbang;
#X obj -311 9 inlet;
#X obj -311 124 line;
#X obj -201 319 outlet;
#X obj -311 39 / 10;
#X msg -311 89 \$1 200;
#X obj -201 249 shake;
#X obj -201 279 average 20;
#X connect 0 0 4 0;
#X connect 1 0 0 0;
#X connect 2 0 3 0;
#X connect 2 0 0 1;
#X connect 4 0 5 0;
#X connect 5 0 16 0;
#X connect 6 0 7 0;
#X connect 6 0 5 1;
#X connect 9 0 15 0;
#X connect 10 0 9 0;
#X connect 11 0 14 0;
#X connect 12 0 16 0;
#X connect 14 0 15 0;
#X connect 15 0 12 0;
#X connect 16 0 17 0;
#X connect 17 0 13 0;
#X restore 363 -231 pd k_agitation_1;
#N canvas 889 26 433 362 k_agitation_3 0;
#X obj -76 149 metro;
#X obj -76 119 tgl 15 0 empty empty empty 17 7 0 10 -262144 -1 -1 0
1;
#X obj 3 11 vsl 15 128 10 10000 0 0 empty empty empty 0 -9 0 10 -262144
-1 -1 0 1;
#X floatatom 3 153 5 0 0 0 - - -;
#X obj -76 179 tgl 15 0 empty empty empty 17 7 0 10 -262144 -1 -1 0
1;
#X obj -76 206 *;
#X obj 53 51 vsl 15 128 1 1000 0 0 empty empty empty 0 -9 0 10 -262144
-1 -1 0 1;
#X floatatom 53 193 5 0 0 0 - - -;
#X text -194 117 TEST ON/OFF --->;
#X obj -201 9 inlet;
#X obj -126 9 inlet;
#X obj -50 9 inlet;
#X msg -266 39 0;
#X obj -266 9 loadbang;
#X obj -201 39 abs;
#X obj -126 39 abs;
#X obj -50 39 abs;
#X obj -201 88 expr ($f1 + $f2 + $f3);
#X obj -201 319 outlet;
#X obj -201 249 shake;
#X obj -201 279 average 50;
#X connect 0 0 4 0;
#X connect 1 0 0 0;
#X connect 2 0 3 0;
#X connect 2 0 0 1;
#X connect 4 0 5 0;
#X connect 5 0 19 0;
#X connect 6 0 7 0;
#X connect 6 0 5 1;
#X connect 9 0 14 0;
#X connect 10 0 15 0;
#X connect 11 0 16 0;
#X connect 12 0 17 0;
#X connect 13 0 12 0;
#X connect 14 0 17 0;
#X connect 15 0 17 1;
#X connect 16 0 17 2;
#X connect 17 0 19 0;
#X connect 19 0 20 0;
#X connect 20 0 18 0;
#X restore 503 -231 pd k_agitation_3;
#X obj 503 -11 s \$0-agit_acc;
#X obj 352 -13 cnv 15 125 26 empty empty empty 20 12 0 14 -162280 -66577
0;
#X obj 352 -13 cnv 15 123 24 empty empty empty 20 12 0 14 -1 -66577
0;
#X obj 373 -154 vsl 30 128 0.01 1 0 0 empty empty empty 0 -9 0 10 -4160
-262144 -1 0 1;
#X obj 363 -11 s \$0-agit_MIDI;
#X obj 503 39 r \$0-agit_acc;
#X obj 643 -201 novelty_3D;
#N canvas 882 637 408 228 sequencer 0;
#X obj 20 176 outlet;
#X obj 20 6 inlet;
#X obj 20 86 cup;
#X obj 20 46 bang;
#X msg 60 46 0;
#X obj 100 116 select 4;
#X connect 1 0 3 0;
#X connect 2 0 5 0;
#X connect 2 0 0 0;
#X connect 3 0 2 0;
#X connect 4 0 2 0;
#X connect 5 0 4 0;
#X restore 643 -70 pd sequencer;
#X obj 643 -11 s \$0-segment;
#X floatatom 656 -42 5 0 0 0 - - -;
#X obj 640 64 cnv 15 147 28 empty empty empty 20 12 0 14 -128992 -66577
0;
#X obj 642 66 cnv 15 143 24 empty empty empty 20 12 0 14 -262144 -66577
0;
#N canvas 611 467 504 416 salience_control 0;
#X obj 158 1 inlet;
#X obj 18 351 s \$0-sal_twee;
#X obj 128 351 s \$0-sal_rain;
#X obj 348 351 s \$0-sal_fire;
#X obj 238 351 s \$0-sal_wave;
#X obj 18 321 line;
#X msg 18 291 \$1 2000;
#X obj 158 31 select 1 2 3 4;
#X obj 128 321 line;
#X msg 128 291 \$1 2000;
#X msg 128 221 1;
#X obj 238 321 line;
#X msg 238 291 \$1 2000;
#X msg 238 221 1;
#X obj 348 321 line;
#X msg 348 291 \$1 2000;
#X msg 348 221 1;
#X msg 168 221 0.5;
#X msg 388 221 0.5;
#X obj 25 248 bng 15 1000 50 0 empty empty empty 17 7 0 10 -128992
-4034 -1;
#X obj 58 268 bng 15 1000 50 0 empty empty empty 17 7 0 10 -128992
-261234 -1;
#X obj 135 248 bng 15 1000 50 0 empty empty empty 17 7 0 10 -128992
-4034 -1;
#X obj 168 268 bng 15 1000 50 0 empty empty empty 17 7 0 10 -128992
-261234 -1;
#X obj 245 248 bng 15 1000 50 0 empty empty empty 17 7 0 10 -128992
-4034 -1;
#X obj 278 268 bng 15 1000 50 0 empty empty empty 17 7 0 10 -128992
-261234 -1;
#X obj 355 248 bng 15 1000 50 0 empty empty empty 17 7 0 10 -128992
-4034 -1;
#X obj 388 268 bng 15 1000 50 0 empty empty empty 17 7 0 10 -128992
-261234 -1;
#X msg 18 221 0.2;
#X msg 58 222 0.01;
#X msg 278 221 0.2;
#X connect 0 0 7 0;
#X connect 5 0 1 0;
#X connect 6 0 5 0;
#X connect 7 0 27 0;
#X connect 7 0 17 0;
#X connect 7 0 29 0;
#X connect 7 0 18 0;
#X connect 7 1 10 0;
#X connect 7 1 28 0;
#X connect 7 1 29 0;
#X connect 7 1 18 0;
#X connect 7 2 13 0;
#X connect 7 2 28 0;
#X connect 7 2 17 0;
#X connect 7 2 18 0;
#X connect 7 3 16 0;
#X connect 7 3 28 0;
#X connect 7 3 17 0;
#X connect 7 3 29 0;
#X connect 8 0 2 0;
#X connect 9 0 8 0;
#X connect 10 0 9 0;
#X connect 10 0 21 0;
#X connect 11 0 4 0;
#X connect 12 0 11 0;
#X connect 13 0 12 0;
#X connect 13 0 23 0;
#X connect 14 0 3 0;
#X connect 15 0 14 0;
#X connect 16 0 15 0;
#X connect 16 0 25 0;
#X connect 17 0 9 0;
#X connect 17 0 22 0;
#X connect 18 0 15 0;
#X connect 18 0 26 0;
#X connect 27 0 6 0;
#X connect 27 0 19 0;
#X connect 28 0 6 0;
#X connect 28 0 20 0;
#X connect 29 0 12 0;
#X connect 29 0 24 0;
#X restore 645 68 pd salience_control;
#X obj 645 39 r \$0-segment;
#N canvas 435 459 546 272 euc_norm_2D 0;
#X obj -116 26 inlet x;
#X obj 79 26 inlet y;
#X obj -116 75 expr pow($f1 \, 2);
#X obj 79 75 expr pow($f1 \, 2);
#X obj -44 166 outlet;
#X obj -44 125 expr sqrt($f1+$f2);
#X connect 0 0 2 0;
#X connect 1 0 3 0;
#X connect 2 0 5 0;
#X connect 3 0 5 1;
#X connect 5 0 4 0;
#X restore -375 -82 pd euc_norm_2D;
#X text 680 18 --------------------------;
#X obj 362 39 r \$0-agit_MIDI;
#X obj 669 99 r \$0-agit_acc;
#X connect 7 0 121 0;
#X connect 8 0 121 1;
#X connect 27 0 7 0;
#X connect 27 0 10 0;
#X connect 28 0 8 0;
#X connect 28 0 9 0;
#X connect 29 0 26 0;
#X connect 29 0 23 0;
#X connect 29 0 20 0;
#X connect 30 0 25 0;
#X connect 30 0 69 0;
#X connect 31 0 24 0;
#X connect 31 0 69 1;
#X connect 35 0 34 0;
#X connect 35 0 66 0;
#X connect 39 0 38 0;
#X connect 45 0 44 0;
#X connect 45 0 53 0;
#X connect 52 0 48 0;
#X connect 52 0 104 1;
#X connect 53 0 55 0;
#X connect 53 1 54 0;
#X connect 53 1 105 0;
#X connect 61 0 63 0;
#X connect 62 0 63 1;
#X connect 69 0 68 0;
#X connect 69 0 67 0;
#X connect 69 0 19 0;
#X connect 70 0 73 0;
#X connect 79 0 78 0;
#X connect 79 0 81 0;
#X connect 79 0 80 0;
#X connect 82 0 79 0;
#X connect 97 0 100 0;
#X connect 97 0 106 0;
#X connect 98 0 100 1;
#X connect 98 0 106 1;
#X connect 99 0 100 2;
#X connect 99 0 106 2;
#X connect 100 0 113 0;
#X connect 100 1 113 1;
#X connect 100 2 113 2;
#X connect 101 0 58 0;
#X connect 105 0 110 0;
#X connect 105 0 111 0;
#X connect 106 0 94 0;
#X connect 106 0 107 0;
#X connect 112 0 51 0;
#X connect 113 0 114 0;
#X connect 114 0 116 0;
#X connect 114 0 115 0;
#X connect 120 0 119 0;
#X connect 121 0 6 0;
#X connect 123 0 38 1;
#X connect 123 0 104 0;
#X connect 124 0 48 1;
#X restore 43 61 pd mapping;
#N canvas 0 220 1909 838 synthesis 1;
#N canvas 1010 22 249 357 init_audio_devices 0;
#X obj 7 7 r \$0-global_audio_switch;
#X msg 69 67 \; pd dsp \$1;
#X obj 7 297 s \$0-cart2vbap_reset;
#X obj 7 37 t b a a;
#X obj 70 177 s \$0-granny_onoff;
#X obj 80 147 s \$0-wave_onoff;
#X obj 60 207 s \$0-fire_onoff;
#X obj 40 237 s \$0-RF_onoff;
#X obj 30 267 s \$0-PS_bp;
#X connect 0 0 3 0;
#X connect 3 0 2 0;
#X connect 3 1 6 0;
#X connect 3 1 5 0;
#X connect 3 1 7 0;
#X connect 3 1 8 0;
#X connect 3 1 4 0;
#X connect 3 2 1 0;
#X restore 732 -61 pd init_audio_devices;
#X obj -538 -1 sea_wave;
#X obj 319 -2 MIDI_resonant_filter;
#X obj 179 -2 fire;
#X obj -108 -1 granny-smasher;
#N canvas 52 148 338 215 wave_receives 0;
#X obj -229 34 r \$0-wave_energy;
#X obj -119 65 r \$0-wave_level;
#X obj -19 95 r \$0-wave_onoff;
#N canvas 532 22 194 215 delay_at_1 0;
#X obj -11 13 inlet;
#X obj -11 43 select 1;
#X msg -81 131 1;
#X obj 42 163 outlet;
#X obj -81 73 delay 200;
#X connect 0 0 1 0;
#X connect 1 0 4 0;
#X connect 1 1 3 0;
#X connect 2 0 3 0;
#X connect 4 0 2 0;
#X restore -19 125 pd delay_at_1;
#X obj -229 153 outlet energy;
#X obj -119 153 outlet level;
#X obj -19 153 outlet onoff;
#X connect 0 0 4 0;
#X connect 1 0 5 0;
#X connect 2 0 3 0;
#X connect 3 0 6 0;
#X restore -538 -31 pd wave_receives;
#N canvas 645 220 450 300 fire_receives 0;
#X obj -209 245 outlet c;
#X obj -137 245 outlet h;
#X obj -67 245 outlet l;
#X obj 3 245 outlet M;
#X obj 73 245 outlet on/off;
#X obj 3 155 r \$0-fire_M;
#X obj -209 65 r \$0-fire_c;
#X obj -137 95 r \$0-fire_h;
#X obj -67 125 r \$0-fire_l;
#X obj 73 184 r \$0-fire_onoff;
#X connect 5 0 3 0;
#X connect 6 0 0 0;
#X connect 7 0 1 0;
#X connect 8 0 2 0;
#X connect 9 0 4 0;
#X restore 179 -32 pd fire_receives;
#X floatatom 451 124 5 0 0 0 - - -;
#N canvas 204 820 1094 199 granny_receives 0;
#X obj 284 91 outlet control_levels;
#X obj 444 91 outlet control_randomness;
#X obj 634 91 outlet control_mix;
#X obj 775 91 outlet bypass/on;
#X obj 284 21 r \$0-GS_1_levels;
#X obj 444 21 r \$0-GS_1_randomness;
#X obj 634 21 r \$0-GS_1_mix;
#X obj 775 21 r \$0-granny_onoff;
#X obj 22 91 outlet~ gr_in_1;
#X obj 151 91 outlet~ gr_in_2;
#X obj 22 21 catch~ \$0-gr_in_1;
#X obj 151 21 catch~ \$0-gr_in_2;
#X connect 4 0 0 0;
#X connect 5 0 1 0;
#X connect 6 0 2 0;
#X connect 7 0 3 0;
#X connect 10 0 8 0;
#X connect 11 0 9 0;
#X restore -108 -31 pd granny_receives;
#X floatatom 584 124 5 0 0 0 - - -;
#N canvas 399 120 822 96 throws_8~ 0;
#X obj 18 18 inlet~;
#X obj 18 58 throw~ \$0-M1;
#X obj 118 18 inlet~;
#X obj 218 18 inlet~;
#X obj 318 18 inlet~;
#X obj 418 18 inlet~;
#X obj 518 18 inlet~;
#X obj 618 18 inlet~;
#X obj 718 18 inlet~;
#X obj 118 58 throw~ \$0-M2;
#X obj 218 58 throw~ \$0-M3;
#X obj 318 58 throw~ \$0-M4;
#X obj 418 58 throw~ \$0-M5;
#X obj 518 58 throw~ \$0-M6;
#X obj 618 58 throw~ \$0-M7;
#X obj 718 58 throw~ \$0-M8;
#X connect 0 0 1 0;
#X connect 2 0 9 0;
#X connect 3 0 10 0;
#X connect 4 0 11 0;
#X connect 5 0 12 0;
#X connect 6 0 13 0;
#X connect 7 0 14 0;
#X connect 8 0 15 0;
#X restore 742 124 pd throws_8~;
#N canvas 544 23 854 173 RF_switches________________________ 0;
#N canvas 532 22 194 215 delay_at_1 0;
#X obj -11 13 inlet;
#X obj -11 43 select 1;
#X msg -81 131 1;
#X obj 42 163 outlet;
#X obj -81 73 delay 100;
#X connect 0 0 1 0;
#X connect 1 0 4 0;
#X connect 1 1 3 0;
#X connect 2 0 3 0;
#X connect 4 0 2 0;
#X restore 724 89 pd delay_at_1;
#X msg 217 70 12;
#X obj 80 40 r \$0-RF_note_v_1;
#X obj 450 -11 loadbang;
#X obj 724 39 r \$0-RF_onoff;
#X obj 80 120 outlet n v;
#X obj 217 120 outlet tst;
#X obj 310 119 outlet tf;
#X obj 512 119 outlet level;
#X obj 637 119 outlet q;
#X obj 724 119 outlet bypass/on;
#X msg 310 69 1;
#X obj 396 118 outlet c s t h;
#X msg 512 68 1;
#X msg 597 68 0.6;
#X obj 637 39 r \$0-RF_q;
#X msg 396 68 0.3 0.2 3000 1;
#X obj 16 -10 catch~ \$0-RF_in;
#X obj 16 120 outlet~;
#X connect 0 0 10 0;
#X connect 1 0 6 0;
#X connect 2 0 5 0;
#X connect 3 0 16 0;
#X connect 3 0 13 0;
#X connect 3 0 14 0;
#X connect 3 0 1 0;
#X connect 3 0 11 0;
#X connect 4 0 0 0;
#X connect 11 0 7 0;
#X connect 13 0 8 0;
#X connect 14 0 9 0;
#X connect 15 0 9 0;
#X connect 16 0 12 0;
#X connect 17 0 18 0;
#X restore 319 -31 pd RF_switches________________________;
#N canvas 399 120 822 96 throws_8~ 0;
#X obj 18 18 inlet~;
#X obj 18 58 throw~ \$0-M1;
#X obj 118 18 inlet~;
#X obj 218 18 inlet~;
#X obj 318 18 inlet~;
#X obj 418 18 inlet~;
#X obj 518 18 inlet~;
#X obj 618 18 inlet~;
#X obj 718 18 inlet~;
#X obj 118 58 throw~ \$0-M2;
#X obj 218 58 throw~ \$0-M3;
#X obj 318 58 throw~ \$0-M4;
#X obj 418 58 throw~ \$0-M5;
#X obj 518 58 throw~ \$0-M6;
#X obj 618 58 throw~ \$0-M7;
#X obj 718 58 throw~ \$0-M8;
#X connect 0 0 1 0;
#X connect 2 0 9 0;
#X connect 3 0 10 0;
#X connect 4 0 11 0;
#X connect 5 0 12 0;
#X connect 6 0 13 0;
#X connect 7 0 14 0;
#X connect 8 0 15 0;
#X restore 869 124 pd throws_8~;
#X obj -538 409 *~ 1;
#X obj -513 344 vsl 15 60 0 1 0 0 empty empty empty 0 -9 0 10 -262144
-1 -1 5900 1;
#X obj -108 409 *~ 1;
#X obj 319 419 *~ 1;
#X obj 39 409 *~ 1;
#X obj -408 -1 tweeter;
#N canvas 763 651 1157 165 diffusion_xy 0;
#X obj 134 121 outlet x;
#X obj 234 121 outlet y;
#X obj 134 21 r \$0-spat_x;
#X obj 234 21 r \$0-spat_y;
#X obj 625 21 r \$0-cart2vbap_reset;
#X obj 625 121 outlet reset;
#X obj 514 121 outlet spread;
#X msg 635 61 define_loudspeakers 2 -22 22 -67 67 -112 112 -157 157
;
#X obj 605 62 bng 15 250 50 0 empty empty empty 17 7 0 10 -262144 -1
-1;
#X obj 314 121 outlet A;
#X msg 514 91 2;
#X obj -5 121 outlet~;
#X obj -5 21 catch~ \$0-diff_xy;
#X msg 775 31 define_loudspeakers 2 -45 45 -135 135;
#X msg 625 91 define_loudspeakers 2 -22 22 -67 67 -112 112 -157 157
;
#X obj 394 121 outlet A-shift;
#X msg 394 91 180;
#X connect 2 0 0 0;
#X connect 3 0 1 0;
#X connect 4 0 10 0;
#X connect 4 0 14 0;
#X connect 4 0 16 0;
#X connect 8 0 14 0;
#X connect 10 0 6 0;
#X connect 12 0 11 0;
#X connect 14 0 5 0;
#X connect 16 0 15 0;
#X restore 732 -31 pd diffusion_xy;
#N canvas 1991 560 1086 165 diffusion_yaw 0;
#X obj 84 121 outlet x;
#X obj 184 121 outlet y;
#X obj 84 21 r \$0-spat_x;
#X obj 184 21 r \$0-spat_y;
#X obj 575 21 r \$0-cart2vbap_reset;
#X obj 575 121 outlet reset;
#X obj 464 121 outlet spread;
#X msg 585 61 define_loudspeakers 2 -22 22 -67 67 -112 112 -157 157
;
#X obj 555 62 bng 15 250 50 0 empty empty empty 17 7 0 10 -262144 -1
-1;
#X obj 284 21 r \$0-spat_A;
#X obj 284 121 outlet A;
#X msg 464 91 2;
#X obj -65 121 outlet~;
#X obj -65 21 catch~ \$0-diff_yaw;
#X msg 735 31 define_loudspeakers 2 -45 45 -135 135;
#X msg 575 91 define_loudspeakers 2 -22 22 -67 67 -112 112 -157 157
;
#X obj 354 121 outlet A-shift;
#X connect 4 0 15 0;
#X connect 4 0 11 0;
#X connect 8 0 15 0;
#X connect 9 0 10 0;
#X connect 11 0 6 0;
#X connect 13 0 12 0;
#X connect 15 0 5 0;
#X restore 859 -31 pd diffusion_yaw;
#X obj -408 409 *~ 1;
#X obj 189 563 *~ 1;
#X obj 214 523 knob 32 32 0 1 0 1 empty empty empty 0 -8 0 8 -128992
-162280 -1 3100 1;
#X obj 179 705 *~ 1;
#X obj 204 667 knob 32 32 0 1 0 1 empty empty empty 0 -8 0 8 -128992
-162280 -1 3100 1;
#X obj 179 735 throw~ \$0-sub;
#X obj 179 409 *~ 1;
#X obj -398 561 *~ 1;
#X obj -373 523 knob 32 32 0 1 0 1 empty empty empty 0 -8 0 8 -128992
-162280 -1 3100 1;
#X text -612 362 level --->;
#X text -605 293 mute --->;
#X obj -528 561 *~ 1;
#X obj -528 589 throw~ \$0-RF_in;
#X obj 319 153 pitch_shift;
#X obj -258 -1 rain;
#X obj -383 344 vsl 15 60 0 1 0 0 empty empty empty 0 -9 0 10 -262144
-1 -1 59 1;
#X obj -83 344 vsl 15 60 0 1 0 0 empty empty empty 0 -9 0 10 -262144
-1 -1 5900 1;
#X obj 64 344 vsl 15 60 0 1 0 0 empty empty empty 0 -9 0 10 -262144
-1 -1 5900 1;
#X obj 204 344 vsl 15 60 0 1 0 0 empty empty empty 0 -9 0 10 -262144
-1 -1 5900 1;
#X obj 344 354 vsl 15 60 0 1 0 0 empty empty empty 0 -9 0 10 -262144
-1 -1 5900 1;
#X obj -258 409 *~ 1;
#X obj -233 344 vsl 15 60 0 1 0 0 empty empty empty 0 -9 0 10 -262144
-1 -1 5900 1;
#X obj -408 735 throw~ \$0-diff_xy;
#X obj -538 735 throw~ \$0-diff_xy;
#X obj 39 735 throw~ \$0-diff_yaw;
#X obj -408 -31 r \$0-tweeter_energy;
#X obj -258 -31 r \$0-rain_energy;
#X text -618 22 source --->;
#X obj -238 560 *~ 1;
#X obj -213 522 knob 32 32 0 1 0 1 empty empty empty 0 -8 0 8 -128992
-162280 -1 3100 1;
#X obj -108 735 throw~ \$0-diff_xy;
#X obj 319 588 throw~ \$0-diff_yaw;
#X obj 756 364 master_level_8;
#N canvas 399 120 822 96 catches_8~ 0;
#X obj 18 28 catch~ \$0-M1;
#X obj 118 28 catch~ \$0-M2;
#X obj 218 28 catch~ \$0-M3;
#X obj 318 28 catch~ \$0-M4;
#X obj 418 28 catch~ \$0-M5;
#X obj 518 28 catch~ \$0-M6;
#X obj 618 28 catch~ \$0-M7;
#X obj 718 28 catch~ \$0-M8;
#X obj 18 68 outlet~;
#X obj 118 68 outlet~;
#X obj 218 68 outlet~;
#X obj 318 68 outlet~;
#X obj 418 68 outlet~;
#X obj 518 68 outlet~;
#X obj 618 68 outlet~;
#X obj 718 68 outlet~;
#X connect 0 0 8 0;
#X connect 1 0 9 0;
#X connect 2 0 10 0;
#X connect 3 0 11 0;
#X connect 4 0 12 0;
#X connect 5 0 13 0;
#X connect 6 0 14 0;
#X connect 7 0 15 0;
#X restore 815 316 pd catches_8~;
#X obj 382 716 cnv 15 894 40 empty empty empty 20 12 0 14 -191407 -66577
0;
#X obj 384 718 cnv 15 890 36 empty empty empty 20 12 0 14 -262130 -66577
0;
#X obj 386 720 cnv 15 886 32 empty empty empty 20 12 0 14 -128992 -66577
0;
#X obj 460 720 cnv 15 44 32 empty empty AUDIO 2 16 0 14 -128992 -262130
0;
#X obj 566 720 cnv 15 28 32 empty empty OUT 2 16 0 14 -128992 -262130
0;
#X obj 605 648 audio_limiter;
#X obj 508 648 audio_limiter;
#X obj 799 648 audio_limiter;
#X obj 702 648 audio_limiter;
#X obj 508 726 dac~ 3;
#X obj 605 726 dac~ 4;
#X obj 702 726 dac~ 5;
#X obj 799 726 dac~ 6;
#X obj 411 648 audio_limiter;
#X obj 411 726 dac~ 1;
#N canvas 909 662 251 251 sub_process 0;
#X obj -42 17 catch~ \$0-sub;
#X obj -42 141 *~;
#X obj 76 87 line~;
#X msg 76 57 \$1 50;
#X obj 76 17 inlet;
#X obj -42 171 outlet~;
#X connect 0 0 1 0;
#X connect 1 0 5 0;
#X connect 2 0 1 1;
#X connect 3 0 2 0;
#X connect 4 0 3 0;
#X restore 551 548 pd sub_process;
#X obj 551 397 vsl 15 120 0 1 0 0 \$0-M \$0-nononorcv empty 0 -9 0
10 -228856 -1 -1 11900 1;
#X obj 971 310 bng 30 250 50 0 mute_M empty m 7 12 0 28 -258113 -257985
-257985;
#X obj 189 588 throw~ \$0-gr_in_2;
#X obj -398 589 throw~ \$0-gr_in_1;
#X text -605 592 send --->;
#X text -605 563 fader;
#X text -605 212 send --->;
#X text -605 200 fader;
#X obj -98 195 *~ 1;
#X obj -73 157 knob 32 32 0 1 0 1 empty empty empty 0 -8 0 8 -128992
-162280 -1 3100 1;
#X obj -98 225 throw~ \$0-RF_in;
#X obj 971 350 bng 30 250 50 0 recall_M empty R 7 15 0 28 -204786 -4160
-4160;
#X msg -454 306 1;
#X msg -324 306 0.01;
#X msg -174 306 1;
#X msg -24 306 1;
#X msg 123 326 1;
#X msg 263 306 1;
#X msg 403 316 1;
#X msg 610 316 1;
#X msg 775 316 1;
#X msg -14 115 1;
#X msg -314 484 1;
#X msg 273 484 1;
#X msg -154 484 1;
#X msg 263 627 1;
#X obj 319 540 audio_booster;
#X text 974 277 ALL;
#X text 1003 315 mute;
#X text 1003 355 recall;
#X text -605 142 insert;
#X text -604 162 or;
#X text -605 185 pre-;
#X text -605 548 post-;
#X text 554 277 SUBWOOFER;
#X text 832 278 8-CHANNEL;
#X obj 995 648 audio_limiter;
#X obj 898 648 audio_limiter;
#X obj 1189 648 audio_limiter;
#X obj 1092 648 audio_limiter;
#X obj 898 726 dac~ 7;
#X obj 995 726 dac~ 8;
#X obj 1092 726 dac~ 9;
#X obj 1189 726 dac~ 10;
#X obj 204 265 r \$0-sal_fire;
#X obj -238 590 throw~ \$0-RF_in;
#X msg 403 496 8;
#X obj -258 735 throw~ \$0-diff_xy;
#X obj -383 265 r \$0-sal_twee;
#X obj -513 265 r \$0-sal_wave;
#X obj -233 265 r \$0-sal_rain;
#X obj -83 291 level;
#X obj 64 291 level;
#X obj -513 291 level;
#X obj -383 291 level;
#X obj -233 291 level;
#X obj 204 291 level;
#X obj 344 301 level;
#X obj 551 301 level;
#X obj 716 301 level;
#X obj -73 100 level;
#X obj -373 469 level;
#X obj 214 469 level;
#X obj -213 469 level;
#X obj 204 612 level;
#X obj -503 530 r \$0-RF_q;
#N canvas 0 22 271 95 PS_rcv 0;
#X obj 12 22 r \$0-PS_shift;
#X obj 12 52 outlet;
#X obj 173 52 outlet;
#X obj 173 22 r \$0-PS_bp;
#X connect 0 0 1 0;
#X connect 3 0 2 0;
#X restore 364 123 pd PS_rcv;
#X obj -538 701 *~ 1;
#X obj -513 640 r \$0-RF_q;
#X obj -513 670 expr 1-$f1;
#X obj 732 -1 cart2vbap_8;
#X obj 859 -1 cart2vbap_8;
#X connect 1 0 13 0;
#X connect 2 0 34 0;
#X connect 2 1 7 0;
#X connect 2 2 9 0;
#X connect 3 0 27 0;
#X connect 4 0 15 0;
#X connect 4 0 79 0;
#X connect 4 1 17 0;
#X connect 5 0 1 0;
#X connect 5 1 1 1;
#X connect 5 2 1 2;
#X connect 6 0 3 0;
#X connect 6 1 3 1;
#X connect 6 2 3 2;
#X connect 6 3 3 3;
#X connect 6 4 3 4;
#X connect 8 0 4 0;
#X connect 8 1 4 1;
#X connect 8 2 4 2;
#X connect 8 3 4 3;
#X connect 8 4 4 4;
#X connect 8 5 4 5;
#X connect 11 0 2 0;
#X connect 11 1 2 1;
#X connect 11 2 2 2;
#X connect 11 3 2 3;
#X connect 11 4 2 4;
#X connect 11 5 2 5;
#X connect 11 6 2 6;
#X connect 11 7 2 7;
#X connect 13 0 32 0;
#X connect 13 0 138 0;
#X connect 14 0 13 1;
#X connect 15 0 51 0;
#X connect 16 0 97 0;
#X connect 17 0 45 0;
#X connect 18 0 21 0;
#X connect 19 0 141 0;
#X connect 19 1 141 1;
#X connect 19 2 141 2;
#X connect 19 3 141 3;
#X connect 19 4 141 4;
#X connect 19 5 141 5;
#X connect 19 6 141 6;
#X connect 20 0 142 0;
#X connect 20 1 142 1;
#X connect 20 2 142 2;
#X connect 20 3 142 3;
#X connect 20 5 142 5;
#X connect 20 6 142 6;
#X connect 21 0 43 0;
#X connect 21 0 28 0;
#X connect 22 0 73 0;
#X connect 23 0 22 1;
#X connect 24 0 26 0;
#X connect 25 0 24 1;
#X connect 27 0 24 0;
#X connect 27 0 22 0;
#X connect 28 0 74 0;
#X connect 29 0 28 1;
#X connect 32 0 33 0;
#X connect 34 0 16 0;
#X connect 36 0 21 1;
#X connect 37 0 15 1;
#X connect 38 0 17 1;
#X connect 39 0 27 1;
#X connect 40 0 16 1;
#X connect 41 0 49 0;
#X connect 41 0 118 0;
#X connect 42 0 41 1;
#X connect 46 0 18 0;
#X connect 47 0 35 0;
#X connect 49 0 116 0;
#X connect 50 0 49 1;
#X connect 53 0 61 0;
#X connect 53 1 60 0;
#X connect 53 2 63 0;
#X connect 53 3 62 0;
#X connect 53 4 108 0;
#X connect 53 5 107 0;
#X connect 53 6 110 0;
#X connect 53 7 109 0;
#X connect 54 0 53 1;
#X connect 54 1 53 2;
#X connect 54 2 53 3;
#X connect 54 3 53 4;
#X connect 54 4 53 5;
#X connect 54 5 53 6;
#X connect 54 6 53 7;
#X connect 54 7 53 8;
#X connect 60 0 65 0;
#X connect 61 0 64 0;
#X connect 62 0 67 0;
#X connect 63 0 66 0;
#X connect 68 0 69 0;
#X connect 70 0 68 0;
#X connect 71 0 70 0;
#X connect 79 0 81 0;
#X connect 80 0 79 1;
#X connect 83 0 124 1;
#X connect 84 0 125 1;
#X connect 85 0 126 1;
#X connect 86 0 122 1;
#X connect 87 0 123 1;
#X connect 88 0 127 1;
#X connect 89 0 117 0;
#X connect 89 0 128 1;
#X connect 90 0 129 1;
#X connect 91 0 130 1;
#X connect 92 0 131 1;
#X connect 93 0 132 1;
#X connect 94 0 133 1;
#X connect 95 0 134 1;
#X connect 96 0 135 1;
#X connect 97 0 52 0;
#X connect 107 0 112 0;
#X connect 108 0 111 0;
#X connect 109 0 114 0;
#X connect 110 0 113 0;
#X connect 115 0 127 0;
#X connect 117 0 97 1;
#X connect 119 0 125 0;
#X connect 120 0 124 0;
#X connect 121 0 126 0;
#X connect 122 0 37 0;
#X connect 122 1 86 0;
#X connect 123 0 38 0;
#X connect 123 1 87 0;
#X connect 124 0 14 0;
#X connect 124 1 83 0;
#X connect 125 0 36 0;
#X connect 125 1 84 0;
#X connect 126 0 42 0;
#X connect 126 1 85 0;
#X connect 127 0 39 0;
#X connect 127 1 88 0;
#X connect 128 0 40 0;
#X connect 128 1 89 0;
#X connect 129 0 71 0;
#X connect 129 1 90 0;
#X connect 130 0 53 0;
#X connect 130 1 91 0;
#X connect 131 0 80 0;
#X connect 131 1 92 0;
#X connect 132 0 29 0;
#X connect 132 1 93 0;
#X connect 133 0 23 0;
#X connect 133 1 94 0;
#X connect 134 0 50 0;
#X connect 134 1 95 0;
#X connect 135 0 25 0;
#X connect 135 1 96 0;
#X connect 136 0 32 1;
#X connect 137 0 34 1;
#X connect 137 1 34 2;
#X connect 138 0 44 0;
#X connect 139 0 140 0;
#X connect 140 0 138 1;
#X connect 141 0 10 0;
#X connect 141 1 10 1;
#X connect 141 2 10 2;
#X connect 141 3 10 3;
#X connect 141 4 10 4;
#X connect 141 5 10 5;
#X connect 141 6 10 6;
#X connect 141 7 10 7;
#X connect 142 0 12 0;
#X connect 142 1 12 1;
#X connect 142 2 12 2;
#X connect 142 3 12 3;
#X connect 142 4 12 4;
#X connect 142 5 12 5;
#X connect 142 6 12 6;
#X connect 142 7 12 7;
#X restore 36 94 pd synthesis;
#X text 66 143 2018;
#X text 7 123 Juan Ignacio Mendoza;
