#N canvas 486 22 760 682 16;
#X text 199 643 Juan Ignacio Mendoza Garay - 2018;
#X obj 0 169 inlet xyz;
#X obj 345 169 inlet reset;
#X obj 225 169 inlet spit;
#X obj 357 600 outlet xyz;
#X text -7 122 type:;
#X text -7 142 list f f f;
#X text 411 142 bang;
#X text 282 142 bang;
#X text 182 142 f;
#X obj 0 390 unpack f f f;
#X obj 357 570 pack f f f;
#X obj 345 200 s \$0-reset;
#X obj 225 200 s \$0-spit;
#X obj 105 200 s \$0-size;
#X obj 105 169 inlet size;
#X obj 0 540 tabwrite \$0-buffer_3;
#X obj 58 510 tabwrite \$0-buffer_2;
#X obj 117 480 tabwrite \$0-buffer_1;
#X obj 0 199 t a b;
#X obj 137 390 cup;
#X msg 137 320 0;
#X msg 184 320 const 0;
#X obj 137 290 t b b;
#X obj 137 240 r \$0-reset;
#X msg 558 320 resize \$1;
#X obj 357 290 f;
#X obj 357 350 until;
#X obj 357 390 cup;
#X obj 634 480 select;
#X obj 634 600 outlet end;
#X obj 511 410 - 1;
#X msg 464 350 0;
#X obj 511 240 r \$0-size;
#X obj 357 240 r \$0-spit;
#X obj 357 540 tabread \$0-buffer_3;
#X obj 390 510 tabread \$0-buffer_2;
#X obj 424 480 tabread \$0-buffer_1;
#X obj 357 440 t a a a;
#X obj 558 350 s \$0-buffers;
#X obj 184 350 s \$0-buffers;
#X obj 357 320 trigger a b;
#X obj 511 290 t a a;
#N canvas 63 188 215 132 \$0-buffer 0;
#N canvas 276 376 450 300 (subpatch) 0;
#X array \$0-buffer_1 40 float 0;
#X coords 0 1 39 0 200 30 1;
#X restore 0 0 graph;
#N canvas 232 192 248 112 \$0-mask 0;
#X obj 1 0 cnv 10 198 16 empty empty empty 0 0 0 4 -262144 -262144
0;
#X coords 0 -1 1 1 200 16 2 0 0;
#X restore 0 -18 pd \$0-mask;
#X coords 0 -1 1 1 200 30 2 0 0;
#X restore 1 25 pd \$0-buffer;
#N canvas 63 188 215 132 \$0-buffer 0;
#N canvas 276 376 450 300 (subpatch) 0;
#X array \$0-buffer_3 40 float 0;
#X coords 0 1 39 0 200 30 1;
#X restore 0 0 graph;
#N canvas 232 192 248 112 \$0-mask 0;
#X obj 1 0 cnv 10 198 16 empty empty empty 0 0 0 4 -262144 -262144
0;
#X coords 0 -1 1 1 200 16 2 0 0;
#X restore 0 -18 pd \$0-mask;
#X coords 0 -1 1 1 200 30 2 0 0;
#X restore 1 85 pd \$0-buffer;
#N canvas 63 188 215 132 \$0-buffer 0;
#N canvas 276 376 450 300 (subpatch) 0;
#X array \$0-buffer_2 40 float 0;
#X coords 0 1 39 0 200 30 1;
#X restore 0 0 graph;
#N canvas 232 192 248 112 \$0-mask 0;
#X obj 1 0 cnv 10 198 16 empty empty empty 0 0 0 4 -262144 -262144
0;
#X coords 0 -1 1 1 200 16 2 0 0;
#X restore 0 -18 pd \$0-mask;
#X coords 0 -1 1 1 200 30 2 0 0;
#X restore 1 55 pd \$0-buffer;
#X obj 510 20 r \$0-buffers;
#N canvas 133 394 633 198 make_mask 0;
#X text 221 3 Every time the table properties change;
#X text 221 18 the table is re-written and it goes to;
#X text 221 33 the front exposing its title \, which is;
#X text 221 48 aesthetically undesirable.;
#X text 221 79 re-written every time the table;
#X text 221 94 properties change.;
#X text 221 64 To avoid this this mask is;
#X obj 2 4 inlet;
#X obj 2 164 s pd-\$0-mask;
#X obj 22 34 loadbang;
#X msg 2 134 clear \, obj 1 0 cnv 10 198 16 empty empty empty 0 0 0
0 0 0 0;
#X connect 7 0 10 0;
#X connect 9 0 10 0;
#X connect 10 0 8 0;
#X restore 511 200 pd make_mask;
#X obj 511 50 t b a a a;
#X obj 598 80 s \$0-buffer_1;
#X obj 569 110 s \$0-buffer_2;
#X obj 540 140 s \$0-buffer_3;
#X connect 1 0 19 0;
#X connect 2 0 12 0;
#X connect 3 0 13 0;
#X connect 10 0 16 0;
#X connect 10 1 17 0;
#X connect 10 2 18 0;
#X connect 11 0 4 0;
#X connect 15 0 14 0;
#X connect 19 0 10 0;
#X connect 19 1 20 0;
#X connect 20 0 18 1;
#X connect 20 0 17 1;
#X connect 20 0 16 1;
#X connect 21 0 20 0;
#X connect 22 0 40 0;
#X connect 23 0 21 0;
#X connect 23 1 22 0;
#X connect 24 0 23 0;
#X connect 25 0 39 0;
#X connect 26 0 41 0;
#X connect 27 0 28 0;
#X connect 28 0 29 0;
#X connect 28 0 38 0;
#X connect 29 0 30 0;
#X connect 31 0 29 1;
#X connect 32 0 28 0;
#X connect 33 0 26 1;
#X connect 33 0 42 0;
#X connect 34 0 26 0;
#X connect 35 0 11 0;
#X connect 36 0 11 1;
#X connect 37 0 11 2;
#X connect 38 0 35 0;
#X connect 38 1 36 0;
#X connect 38 2 37 0;
#X connect 41 0 27 0;
#X connect 41 1 32 0;
#X connect 42 0 31 0;
#X connect 42 1 25 0;
#X connect 46 0 48 0;
#X connect 48 0 47 0;
#X connect 48 1 51 0;
#X connect 48 2 50 0;
#X connect 48 3 49 0;
#X coords 0 -1 1 1 202 120 2 0 0;
