#N canvas 187 67 539 507 16;
#X text -36 434 Juan Ignacio Mendoza Garay - 2018;
#N canvas 276 376 450 300 (subpatch) 0;
#X array \$0-buffer 40 float 1;
#A 0 0.573214 0.573214 0.571429 0.569643 0.573214 0.573214 0.571429
0.573214 0.573214 0.573214 0.569643 0.569643 0.569643 0.567857 0.567857
0.569643 0.573214 0.569643 0.573214 0.573214 0.573214 0.567857 0.567857
0.569643 0.569643 0.573214 0.569643 0.569643 0.569643 0.569643 0.567857
0.569643 0.569643 0.569643 0.573214 0.573214 0.567857 0.567857 0.569643
0.569643;
#X coords 0 1 39 0 200 30 1;
#X restore 0 0 graph;
#X msg 281 220 resize \$1;
#X obj -133 190 t a b;
#X obj -86 260 cup;
#X obj 107 220 f;
#X obj 107 280 until;
#X obj 107 320 cup;
#X obj 107 250 trigger a b;
#X obj -133 320 tabwrite \$0-buffer;
#X obj -133 370 tabread \$0-buffer;
#X obj 281 250 s \$0-buffer;
#X obj -133 400 outlet data;
#X obj 204 370 select;
#X obj 204 400 outlet end;
#N canvas 91 233 633 198 make_mask 0;
#X text 91 3 Every time the table properties change;
#X text 91 18 the table is re-written and it goes to;
#X text 91 33 the front exposing its title \, which is;
#X text 91 48 aesthetically undesirable.;
#X text 91 79 re-written every time the table;
#X text 91 94 properties change.;
#X text 91 64 To avoid this this mask is;
#X obj 2 4 inlet;
#X obj 2 164 s pd-\$0-mask;
#X msg 2 124 clear \, obj 0 0 cnv 10 200 16 empty empty empty 0 0 0
0 0 0 0;
#X connect 7 0 9 0;
#X connect 9 0 8 0;
#X restore 271 280 pd make_mask;
#N canvas 232 192 248 112 \$0-mask 0;
#X obj 0 0 cnv 10 200 16 empty empty empty 0 0 0 4 -262144 -262144
0;
#X coords 0 -1 1 1 200 16 2 0 0;
#X restore 0 -18 pd \$0-mask;
#X obj 271 180 t b a;
#X obj 261 340 - 1;
#X msg -66 220 0;
#X msg -19 220 const 0;
#X obj -66 190 t b b;
#X msg 214 280 0;
#X obj -19 250 s \$0-buffer;
#X obj 227 70 inlet reset;
#X obj 107 70 inlet spit;
#X obj 227 111 s \$0-reset;
#X obj -13 111 s \$0-size;
#X obj -13 70 inlet size;
#X obj 261 150 r \$0-size;
#X obj -66 150 r \$0-reset;
#X text -138 23 type:;
#X text 295 43 bang;
#X text 166 43 bang;
#X text 63 43 f;
#X obj -133 70 inlet data;
#X text -57 43 f;
#X connect 2 0 11 0;
#X connect 3 0 9 0;
#X connect 3 1 4 0;
#X connect 4 0 9 1;
#X connect 5 0 8 0;
#X connect 6 0 7 0;
#X connect 7 0 13 0;
#X connect 7 0 10 0;
#X connect 8 0 6 0;
#X connect 8 1 22 0;
#X connect 10 0 12 0;
#X connect 13 0 14 0;
#X connect 17 0 15 0;
#X connect 17 1 2 0;
#X connect 18 0 13 1;
#X connect 19 0 4 0;
#X connect 20 0 23 0;
#X connect 21 0 19 0;
#X connect 21 1 20 0;
#X connect 22 0 7 0;
#X connect 24 0 26 0;
#X connect 25 0 5 0;
#X connect 28 0 27 0;
#X connect 29 0 5 1;
#X connect 29 0 17 0;
#X connect 29 0 18 0;
#X connect 30 0 21 0;
#X connect 35 0 3 0;
#X coords 0 -1 1 1 200 30 2 0 0;
