#N canvas 688 227 630 444 12;
#X msg 49 314 \$1 0;
#X obj 49 284 f;
#X obj -41 209 loadbang;
#N canvas 651 448 450 300 size 0;
#X obj 108 13 inlet;
#X obj 108 164 spigot;
#X obj 147 75 * 1000;
#X msg 147 134 0;
#X obj 108 210 outlet;
#X obj 217 43 inlet;
#X obj 147 105 moses 1;
#X obj 147 43 inlet;
#X connect 0 0 1 0;
#X connect 1 0 4 0;
#X connect 2 0 6 0;
#X connect 3 0 1 1;
#X connect 5 0 6 1;
#X connect 6 0 3 0;
#X connect 6 1 1 1;
#X connect 7 0 2 0;
#X restore 3 130 pd size;
#X msg -41 239 127;
#X obj -43 90 moses 1;
#X obj -74 284 pack f f f;
#X obj 80 39 unpack f f;
#X msg -74 314 \$1 \$2 \$3;
#X obj -74 384 outlet list n cv ch;
#X obj 230 9 inlet strength;
#X obj 346 9 inlet threshold;
#X obj 80 9 inlet note channel;
#X obj -74 160 trigger float bang;
#X msg 49 354 \$1;
#X connect 0 0 9 0;
#X connect 0 0 14 0;
#X connect 1 0 0 0;
#X connect 2 0 4 0;
#X connect 3 0 13 0;
#X connect 4 0 6 1;
#X connect 5 1 3 0;
#X connect 6 0 8 0;
#X connect 7 0 5 0;
#X connect 7 1 6 2;
#X connect 8 0 9 0;
#X connect 8 0 14 0;
#X connect 10 0 3 1;
#X connect 11 0 3 2;
#X connect 12 0 7 0;
#X connect 13 0 6 0;
#X connect 13 1 1 0;
#X connect 14 0 1 1;
