#N canvas 116 -1085 356 820 12;
#X declare -lib iemgui -lib vbap -lib iemlib -lib iemmatrix -lib mrpeach
;
#X declare -lib vbap;
#X obj 56 -17 noise~;
#X obj 56 143 *~;
#X obj 83 113 line~;
#X floatatom 143 83 5 0 0 0 - - -;
#X obj 143 -12 vsl 15 80 0 1 0 0 empty empty empty 0 -9 0 10 -262144
-1 -1 6300 1;
#X msg 83 83 \$1 100;
#X obj 56 173 cart2vbap3D_16;
#N canvas 361 77 986 528 16_vu 0;
#N canvas 476 471 450 300 VU 0;
#X obj 12 107 vu 8 80 \$0-VU_sig empty -1 -8 0 10 -1 -1 0 0;
#X obj 11 69 pvu~;
#X obj 11 39 inlet~;
#X connect 1 0 0 0;
#X connect 2 0 1 0;
#X coords 0 -1 1 1 12 90 2 10 100;
#X restore 14 310 pd VU;
#N canvas 476 471 450 300 VU 0;
#X obj 12 107 vu 8 80 \$0-VU_sig empty -1 -8 0 10 -1 -1 0 0;
#X obj 11 69 pvu~;
#X obj 11 39 inlet~;
#X connect 1 0 0 0;
#X connect 2 0 1 0;
#X coords 0 -1 1 1 12 90 2 10 100;
#X restore 14 210 pd VU;
#N canvas 476 471 450 300 VU 0;
#X obj 12 107 vu 8 80 \$0-VU_sig empty -1 -8 0 10 -1 -1 0 0;
#X obj 11 69 pvu~;
#X obj 11 39 inlet~;
#X connect 1 0 0 0;
#X connect 2 0 1 0;
#X coords 0 -1 1 1 12 90 2 10 100;
#X restore 94 110 pd VU;
#N canvas 476 471 450 300 VU 0;
#X obj 12 107 vu 8 80 \$0-VU_sig empty -1 -8 0 10 -1 -1 0 0;
#X obj 11 69 pvu~;
#X obj 11 39 inlet~;
#X connect 1 0 0 0;
#X connect 2 0 1 0;
#X coords 0 -1 1 1 12 90 2 10 100;
#X restore 194 110 pd VU;
#N canvas 476 471 450 300 VU 0;
#X obj 12 107 vu 8 80 \$0-VU_sig empty -1 -8 0 10 -1 -1 0 0;
#X obj 11 69 pvu~;
#X obj 11 39 inlet~;
#X connect 1 0 0 0;
#X connect 2 0 1 0;
#X coords 0 -1 1 1 12 90 2 10 100;
#X restore 274 310 pd VU;
#N canvas 476 471 450 300 VU 0;
#X obj 12 107 vu 8 80 \$0-VU_sig empty -1 -8 0 10 -1 -1 0 0;
#X obj 11 69 pvu~;
#X obj 11 39 inlet~;
#X connect 1 0 0 0;
#X connect 2 0 1 0;
#X coords 0 -1 1 1 12 90 2 10 100;
#X restore 274 210 pd VU;
#N canvas 476 471 450 300 VU 0;
#X obj 12 107 vu 8 80 \$0-VU_sig empty -1 -8 0 10 -1 -1 0 0;
#X obj 11 69 pvu~;
#X obj 11 39 inlet~;
#X connect 1 0 0 0;
#X connect 2 0 1 0;
#X coords 0 -1 1 1 12 90 2 10 100;
#X restore 94 410 pd VU;
#N canvas 476 471 450 300 VU 0;
#X obj 12 107 vu 8 80 \$0-VU_sig empty -1 -8 0 10 -1 -1 0 0;
#X obj 11 69 pvu~;
#X obj 11 39 inlet~;
#X connect 1 0 0 0;
#X connect 2 0 1 0;
#X coords 0 -1 1 1 12 90 2 10 100;
#X restore 194 410 pd VU;
#N canvas 476 471 450 300 VU 0;
#X obj 12 107 vu 8 80 \$0-VU_sig empty -1 -8 0 10 -1 -1 0 0;
#X obj 11 69 pvu~;
#X obj 11 39 inlet~;
#X connect 1 0 0 0;
#X connect 2 0 1 0;
#X coords 0 -1 1 1 12 90 2 10 100;
#X restore 64 350 pd VU;
#N canvas 476 471 450 300 VU 0;
#X obj 12 107 vu 8 80 \$0-VU_sig empty -1 -8 0 10 -1 -1 0 0;
#X obj 11 69 pvu~;
#X obj 11 39 inlet~;
#X connect 1 0 0 0;
#X connect 2 0 1 0;
#X coords 0 -1 1 1 12 90 2 10 100;
#X restore 64 170 pd VU;
#N canvas 476 471 450 300 VU 0;
#X obj 12 107 vu 8 80 \$0-VU_sig empty -1 -8 0 10 -1 -1 0 0;
#X obj 11 69 pvu~;
#X obj 11 39 inlet~;
#X connect 1 0 0 0;
#X connect 2 0 1 0;
#X coords 0 -1 1 1 12 90 2 10 100;
#X restore 224 350 pd VU;
#N canvas 476 471 450 300 VU 0;
#X obj 12 107 vu 8 80 \$0-VU_sig empty -1 -8 0 10 -1 -1 0 0;
#X obj 11 69 pvu~;
#X obj 11 39 inlet~;
#X connect 1 0 0 0;
#X connect 2 0 1 0;
#X coords 0 -1 1 1 12 90 2 10 100;
#X restore 224 170 pd VU;
#N canvas 476 471 450 300 VU 0;
#X obj 12 107 vu 8 80 \$0-VU_sig empty -1 -8 0 10 -1 -1 0 0;
#X obj 11 69 pvu~;
#X obj 11 39 inlet~;
#X connect 1 0 0 0;
#X connect 2 0 1 0;
#X coords 0 -1 1 1 12 90 2 10 100;
#X restore 144 150 pd VU;
#N canvas 476 471 450 300 VU 0;
#X obj 12 107 vu 8 80 \$0-VU_sig empty -1 -8 0 10 -1 -1 0 0;
#X obj 11 69 pvu~;
#X obj 11 39 inlet~;
#X connect 1 0 0 0;
#X connect 2 0 1 0;
#X coords 0 -1 1 1 12 90 2 10 100;
#X restore 144 370 pd VU;
#N canvas 476 471 450 300 VU 0;
#X obj 12 107 vu 8 80 \$0-VU_sig empty -1 -8 0 10 -1 -1 0 0;
#X obj 11 69 pvu~;
#X obj 11 39 inlet~;
#X connect 1 0 0 0;
#X connect 2 0 1 0;
#X coords 0 -1 1 1 12 90 2 10 100;
#X restore 44 260 pd VU;
#N canvas 476 471 450 300 VU 0;
#X obj 12 107 vu 8 80 \$0-VU_sig empty -1 -8 0 10 -1 -1 0 0;
#X obj 11 69 pvu~;
#X obj 11 39 inlet~;
#X connect 1 0 0 0;
#X connect 2 0 1 0;
#X coords 0 -1 1 1 12 90 2 10 100;
#X restore 244 260 pd VU;
#X obj 8 11 inlet~;
#X obj 58 11 inlet~;
#X obj 108 11 inlet~;
#X obj 158 11 inlet~;
#X obj 208 11 inlet~;
#X obj 258 11 inlet~;
#X obj 308 11 inlet~;
#X obj 358 11 inlet~;
#X obj 408 11 inlet~;
#X obj 458 11 inlet~;
#X obj 508 11 inlet~;
#X obj 558 11 inlet~;
#X obj 608 11 inlet~;
#X obj 658 11 inlet~;
#X obj 708 11 inlet~;
#X obj 758 11 inlet~;
#X connect 16 0 12 0;
#X connect 17 0 3 0;
#X connect 18 0 11 0;
#X connect 19 0 5 0;
#X connect 20 0 15 0;
#X connect 21 0 4 0;
#X connect 22 0 10 0;
#X connect 23 0 7 0;
#X connect 24 0 13 0;
#X connect 25 0 6 0;
#X connect 26 0 8 0;
#X connect 27 0 0 0;
#X connect 28 0 14 0;
#X connect 29 0 1 0;
#X connect 30 0 9 0;
#X connect 31 0 2 0;
#X coords 0 -1 1 1 280 408 1 10 100;
#X restore -4 341 pd 16_vu;
#X connect 0 0 1 0;
#X connect 1 0 6 0;
#X connect 2 0 1 1;
#X connect 4 0 5 0;
#X connect 4 0 3 0;
#X connect 5 0 2 0;
#X connect 6 0 7 0;
#X connect 6 1 7 1;
#X connect 6 2 7 2;
#X connect 6 3 7 3;
#X connect 6 4 7 4;
#X connect 6 5 7 5;
#X connect 6 6 7 6;
#X connect 6 7 7 7;
#X connect 6 8 7 8;
#X connect 6 9 7 9;
#X connect 6 10 7 10;
#X connect 6 11 7 11;
#X connect 6 12 7 12;
#X connect 6 13 7 13;
#X connect 6 14 7 14;
#X connect 6 15 7 15;
