#N canvas 250 163 247 662 12;
#X obj 26 344 atan2;
#X msg 26 314 \$2 \$1;
#X obj -122 244 atan2;
#X obj -122 534 t b f;
#X obj -122 74 inlet x;
#X obj -35 74 inlet y;
#X obj -42 574 pack f f;
#X obj -42 604 outlet;
#X obj -35 104 t b a;
#X obj -122 204 unpack f f;
#X text 23 573 phi;
#X obj -122 504 * 57.2958;
#X obj -42 504 * 57.2958;
#X obj 5 414 pack f f;
#X obj 5 444 unpack f f;
#N canvas 498 355 227 136 phinv 0;
#X obj -119 23 expr (sin((3.1416*2) - $f1));
#X obj -119 53 * 1.287;
#X obj -119 -7 inlet;
#X obj -119 83 outlet;
#X connect 0 0 1 0;
#X connect 1 0 3 0;
#X connect 2 0 0 0;
#X restore -122 104 pd phinv;
#N canvas 0 22 324 107 sqrt(x^2+y^2) 0;
#X obj -176 43 expr sqrt(pow($f1 \, 2) + pow($f2 \, 2));
#X obj -176 13 inlet;
#X obj 73 13 inlet;
#X obj -176 73 outlet;
#X connect 0 0 3 0;
#X connect 1 0 0 0;
#X connect 2 0 0 1;
#X restore -69 244 pd sqrt(x^2+y^2);
#X text -83 574 theta;
#X text -123 28 phi = atan2(y \, x);
#X text -124 48 theta = atan2(z \, sqrt(x^2+y^2));
#X obj 26 374 t b a;
#X text -124 10 cartesian 3D to radial in degrees;
#X obj 47 74 inlet z;
#X obj 47 104 t b a;
#X obj -122 174 pack 0 0;
#X text -117 634 Juan Ignacio Mendoza G. (2021);
#X obj 26 284 pack f 1;
#X connect 0 0 20 0;
#X connect 1 0 0 0;
#X connect 2 0 13 0;
#X connect 3 0 6 0;
#X connect 3 1 6 1;
#X connect 4 0 15 0;
#X connect 5 0 8 0;
#X connect 6 0 7 0;
#X connect 8 0 24 0;
#X connect 8 1 24 1;
#X connect 9 0 2 0;
#X connect 9 0 16 0;
#X connect 9 1 2 1;
#X connect 9 1 16 1;
#X connect 11 0 3 0;
#X connect 12 0 6 0;
#X connect 13 0 14 0;
#X connect 14 0 11 0;
#X connect 14 1 12 0;
#X connect 15 0 24 0;
#X connect 16 0 26 0;
#X connect 20 0 13 0;
#X connect 20 1 13 1;
#X connect 22 0 23 0;
#X connect 23 0 24 0;
#X connect 23 1 26 1;
#X connect 24 0 9 0;
#X connect 26 0 1 0;
#X coords 0 0 1 1 108 113 0;
