#N canvas 620 186 450 300 12;
#X obj 270 137 cart2sph;
#X obj 106 137 cart2deg;
#X floatatom 106 67 5 0 0 0 - - -;
#X floatatom 166 67 5 0 0 0 - - -;
#X floatatom 226 67 5 0 0 0 - - -;
#X obj 116 30 bng 15 250 50 0 empty empty empty 17 7 0 10 -262144 -1
-1;
#X obj 106 172 unpack f f;
#X floatatom 106 222 5 0 0 0 - - -;
#X floatatom 173 222 5 0 0 0 - - -;
#X floatatom 270 222 5 0 0 0 - - -;
#X floatatom 317 222 5 0 0 0 - - -;
#X floatatom 365 222 5 0 0 0 - - -;
#X connect 0 0 9 0;
#X connect 0 1 10 0;
#X connect 0 2 11 0;
#X connect 1 0 6 0;
#X connect 2 0 1 0;
#X connect 2 0 0 0;
#X connect 3 0 1 1;
#X connect 3 0 0 1;
#X connect 4 0 1 2;
#X connect 4 0 0 2;
#X connect 5 0 4 0;
#X connect 5 0 3 0;
#X connect 5 0 2 0;
#X connect 6 0 7 0;
#X connect 6 1 8 0;
