#N canvas 84 22 1069 674 12;
#X declare -lib iemgui -lib vbap -lib iemlib -lib iemmatrix -lib mrpeach
;
#X declare -lib vbap;
#N canvas 142 22 831 515 parameters 0;
#X obj 320 314 * -1;
#X obj -56 153 t b a;
#X obj 79 414 outlet trigger;
#X obj 196 414 outlet azimuth;
#X obj 320 412 outlet elevation;
#X obj 539 412 outlet spread;
#X obj 241 344 r \$0-itime;
#X obj 669 194 r \$0-itime;
#X obj 450 340 r \$0-itime;
#X obj 111 374 iemlib/speedlim 200;
#X obj 320 372 iemlib/speedlim 200;
#X obj 539 224 iemlib/speedlim 200;
#X obj 79 224 t b a;
#X obj 111 254 route 1;
#X obj 111 284 unpack f f;
#X obj -56 124 r \$0-spread_a_snd;
#X text 359 313 consistent with vbap;
#X obj 42 -56 inlet x;
#X obj 105 -56 inlet y;
#X msg 79 124 1 \$1 \$2;
#X obj 454 -56 inlet coord cubesphere;
#X obj 42 16 spigot;
#X obj 105 14 spigot;
#X obj 454 14 spigot;
#X obj 359 -36 r \$0-onoff;
#X obj 79 64 cart2deg;
#X obj 165 14 spigot;
#X obj 165 -56 inlet z;
#X obj 89 94 s \$0-cs;
#X text 116 354 elevation (theta);
#X text 360 302 azimuth (phi);
#X connect 0 0 10 0;
#X connect 1 0 2 0;
#X connect 1 1 11 0;
#X connect 6 0 9 1;
#X connect 7 0 11 1;
#X connect 8 0 10 1;
#X connect 9 0 4 0;
#X connect 10 0 3 0;
#X connect 11 0 5 0;
#X connect 12 0 2 0;
#X connect 12 1 13 0;
#X connect 13 0 14 0;
#X connect 14 0 9 0;
#X connect 14 1 0 0;
#X connect 15 0 1 0;
#X connect 17 0 21 0;
#X connect 18 0 22 0;
#X connect 19 0 12 0;
#X connect 20 0 23 0;
#X connect 21 0 25 0;
#X connect 22 0 25 1;
#X connect 23 0 12 0;
#X connect 24 0 23 1;
#X connect 24 0 22 1;
#X connect 24 0 21 1;
#X connect 24 0 26 1;
#X connect 25 0 19 0;
#X connect 25 0 28 0;
#X connect 26 0 25 2;
#X connect 27 0 26 0;
#X restore 24 160 pd parameters;
#X obj -94 -50 s~ \$0-sig;
#N canvas 759 334 420 427 settings 0;
#X obj -99 36 r \$0-reset_b_snd;
#X obj -99 6 import iemgui vbap iemlib iemmatrix mrpeach;
#X obj -51 256 s \$0-onoff;
#N canvas 223 318 182 149 colours 0;
#X floatatom -1 40 5 0 0 0 - - -;
#N canvas 71 162 381 370 colours 0;
#X obj 1 2 bng 15 250 50 0 empty empty empty 0 -6 0 8 -262144 -1 -1
;
#X msg 1 114 0;
#X obj 1 201 outlet;
#X obj 1 18 bng 15 250 50 0 empty empty empty 0 -6 0 8 -166441 -1 -1
;
#X msg 1 135 1;
#X obj 1 34 bng 15 250 50 0 empty empty empty 0 -6 0 8 -66577 -1 -1
;
#X obj 49 2 bng 15 250 50 0 empty empty empty 0 -6 0 8 -261689 -1 -1
;
#X msg 1 156 2;
#X msg 49 114 3;
#X obj 65 2 bng 15 250 50 0 empty empty empty 0 -6 0 8 -261681 -1 -1
;
#X obj 81 2 bng 15 250 50 0 empty empty empty 0 -6 0 8 -262131 -1 -1
;
#X obj 97 2 bng 15 250 50 0 empty empty empty 0 -6 0 8 -225271 -1 -1
;
#X obj 113 2 bng 15 250 50 0 empty empty empty 0 -6 0 8 -225280 -1
-1;
#X msg 65 114 4;
#X msg 81 114 5;
#X msg 97 114 6;
#X msg 113 114 7;
#X obj 129 2 bng 15 250 50 0 empty empty empty 0 -6 0 8 -228992 -1
-1;
#X obj 145 2 bng 15 250 50 0 empty empty empty 0 -6 0 8 -257472 -1
-1;
#X msg 129 114 8;
#X msg 145 114 9;
#X obj 17 2 bng 15 250 50 0 empty empty empty 0 -6 0 8 -233017 -1 -1
;
#X obj 17 18 bng 15 250 50 0 empty empty empty 0 -6 0 8 -128992 -1
-1;
#X obj 17 34 bng 15 250 50 0 empty empty empty 0 -6 0 8 -33289 -1 -1
;
#X obj 49 18 bng 15 250 50 0 empty empty empty 0 -6 0 8 -258699 -1
-1;
#X obj 65 18 bng 15 250 50 0 empty empty empty 0 -6 0 8 -260818 -1
-1;
#X obj 81 18 bng 15 250 50 0 empty empty empty 0 -6 0 8 -241291 -1
-1;
#X obj 97 18 bng 15 250 50 0 empty empty empty 0 -6 0 8 -24198 -1 -1
;
#X obj 113 18 bng 15 250 50 0 empty empty empty 0 -6 0 8 -44926 -1
-1;
#X obj 129 18 bng 15 250 50 0 empty empty empty 0 -6 0 8 -62784 -1
-1;
#X obj 145 18 bng 15 250 50 0 empty empty empty 0 -6 0 8 -250685 -1
-1;
#X msg 49 135 13;
#X msg 65 135 14;
#X msg 81 135 15;
#X msg 97 135 16;
#X msg 113 135 17;
#X msg 129 135 18;
#X msg 145 135 19;
#X msg 17 114 10;
#X msg 17 135 11;
#X msg 17 156 12;
#X obj 33 2 bng 15 250 50 0 empty empty empty 0 -6 0 8 -195568 -1 -1
;
#X obj 33 18 bng 15 250 50 0 empty empty empty 0 -6 0 8 -99865 -1 -1
;
#X obj 33 34 bng 15 250 50 0 empty empty empty 0 -6 0 8 -1 -1 -1;
#X obj 49 34 bng 15 250 50 0 empty empty empty 0 -6 0 8 -143491 -1
-1;
#X obj 65 34 bng 15 250 50 0 empty empty empty 0 -6 0 8 -90881 -1 -1
;
#X obj 81 34 bng 15 250 50 0 empty empty empty 0 -6 0 8 -123526 -1
-1;
#X obj 97 34 bng 15 250 50 0 empty empty empty 0 -6 0 8 -42246 -1 -1
;
#X obj 113 34 bng 15 250 50 0 empty empty empty 0 -6 0 8 -1109 -1 -1
;
#X obj 129 34 bng 15 250 50 0 empty empty empty 0 -6 0 8 -355 -1 -1
;
#X obj 145 34 bng 15 250 50 0 empty empty empty 0 -6 0 8 -90133 -1
-1;
#X msg 49 156 23;
#X msg 65 156 24;
#X msg 81 156 25;
#X msg 97 156 26;
#X msg 113 156 27;
#X msg 129 156 28;
#X msg 145 156 29;
#X msg 33 114 20;
#X msg 33 135 21;
#X msg 33 156 22;
#X connect 0 0 1 0;
#X connect 1 0 2 0;
#X connect 3 0 4 0;
#X connect 4 0 2 0;
#X connect 5 0 7 0;
#X connect 6 0 8 0;
#X connect 7 0 2 0;
#X connect 8 0 2 0;
#X connect 9 0 13 0;
#X connect 10 0 14 0;
#X connect 11 0 15 0;
#X connect 12 0 16 0;
#X connect 13 0 2 0;
#X connect 14 0 2 0;
#X connect 15 0 2 0;
#X connect 16 0 2 0;
#X connect 17 0 19 0;
#X connect 18 0 20 0;
#X connect 19 0 2 0;
#X connect 20 0 2 0;
#X connect 21 0 38 0;
#X connect 22 0 39 0;
#X connect 23 0 40 0;
#X connect 24 0 31 0;
#X connect 25 0 32 0;
#X connect 26 0 33 0;
#X connect 27 0 34 0;
#X connect 28 0 35 0;
#X connect 29 0 36 0;
#X connect 30 0 37 0;
#X connect 31 0 2 0;
#X connect 32 0 2 0;
#X connect 33 0 2 0;
#X connect 34 0 2 0;
#X connect 35 0 2 0;
#X connect 36 0 2 0;
#X connect 37 0 2 0;
#X connect 38 0 2 0;
#X connect 39 0 2 0;
#X connect 40 0 2 0;
#X connect 41 0 58 0;
#X connect 42 0 59 0;
#X connect 43 0 60 0;
#X connect 44 0 51 0;
#X connect 45 0 52 0;
#X connect 46 0 53 0;
#X connect 47 0 54 0;
#X connect 48 0 55 0;
#X connect 49 0 56 0;
#X connect 50 0 57 0;
#X connect 51 0 2 0;
#X connect 52 0 2 0;
#X connect 53 0 2 0;
#X connect 54 0 2 0;
#X connect 55 0 2 0;
#X connect 56 0 2 0;
#X connect 57 0 2 0;
#X connect 58 0 2 0;
#X connect 59 0 2 0;
#X connect 60 0 2 0;
#X coords 0 0 1 1 160 50 2 0 0;
#X restore -1 -24 pd colours;
#X connect 1 0 0 0;
#X restore 132 36 pd colours;
#X obj -99 385 s \$0-xy;
#X obj 90 196 s \$0-itime;
#X text 115 166 interpolation (ms);
#X obj 90 256 s \$0-spread_a_rcv;
#X text 120 226 spread (0-100);
#X obj 30 256 pack \$0;
#X msg 30 288 \; \$1-cs_config size 45 \; \$1-cs_config nr_src 0 \;
\$1-cs_config src_font 20 \; \$1-cs_config src_col 13 \; \$1-cs_config
sphere_col 28 \; \$1-cs_config frame_col 10 \;;
#X msg -51 223 1;
#X msg 90 166 100;
#X obj -99 66 t b b b b b;
#X obj -79 325 s \$0-z;
#X msg -79 296 0.5;
#X msg -99 356 21 0;
#X msg 90 226 10;
#X connect 0 0 13 0;
#X connect 9 0 10 0;
#X connect 11 0 2 0;
#X connect 12 0 5 0;
#X connect 13 0 16 0;
#X connect 13 0 15 0;
#X connect 13 1 11 0;
#X connect 13 2 9 0;
#X connect 13 3 17 0;
#X connect 13 4 12 0;
#X connect 15 0 14 0;
#X connect 16 0 4 0;
#X connect 17 0 7 0;
#X restore 432 0 pd settings;
#X obj -51 183 pack f f;
#X text 86 213 <-----;
#X text 151 213 vbap library version;
#X obj 432 -80 inlet spread;
#X obj 432 -50 s \$0-spread_a_rcv;
#X obj -94 -80 inlet~;
#X obj 140 160 r \$0-def_loudsp;
#X text -99 121 ggee;
#X obj -99 527 outlet~;
#X text -100 137 library;
#X obj 562 -80 inlet reset;
#X text 567 -60 and;
#X text -99 151 version;
#X text -78 209 |;
#X text 567 -45 define_loudspeakers;
#X text -76 213 -->;
#X text -78 200 |;
#X text -78 191 |;
#X text -78 182 |;
#X text -78 173 |;
#X text -78 164 |;
#X obj 10 16 cnv 15 158 111 empty empty empty 6 10 0 14 -33289 -4160
0;
#X obj 14 20 cnv 15 150 103 empty empty cart2vbap3D_16 6 10 0 14 -228856
-33289 0;
#X obj 112 66 cube_sphere 0 21 20 354 233016 258698 32 31;
#X obj 34 66 grid grid 42 -1 1 42 -1 1 0 0.01 0.01 2 2 204 249;
#X obj -14 -80 inlet x;
#X obj 53 -80 inlet y;
#X obj 135 41 bng 19 1000 50 0 \$0-reset_b_snd \$0-reset_b_rcv empty
-20 7 0 10 -234058 -261234 -1;
#X text 96 45 reset;
#X text 45 35 spread;
#X floatatom 24 41 3 0 100 0 - #0-spread_a_rcv #0-spread_a_snd;
#N canvas 0 22 138 237 pack_xy 0;
#X obj -24 -20 inlet x;
#X obj 33 -20 inlet y;
#X obj 33 20 * 42;
#X obj -24 80 pack f f;
#X obj -3 50 t b a;
#X obj -24 20 * 42;
#X obj -24 170 outlet;
#X obj -14 110 r \$0-xy;
#X msg -24 140 goto \$1 \$2;
#X connect 0 0 5 0;
#X connect 1 0 2 0;
#X connect 2 0 4 0;
#X connect 3 0 8 0;
#X connect 4 0 3 0;
#X connect 4 1 3 1;
#X connect 5 0 3 0;
#X connect 7 0 8 0;
#X connect 8 0 6 0;
#X restore -14 -50 pd pack_xy;
#N canvas 638 22 722 300 reset 0;
#X obj 14 10 inlet;
#X obj 24 40 loadbang;
#X obj 14 210 s \$0-reset_b_rcv;
#X obj 46 180 s \$0-def_loudsp;
#X obj 14 140 t b a;
#X msg 24 70 define_loudspeakers 3 0 26 22 0 45 26 67 0 90 26 112 0
135 26 157 0 180 26 -157 0 -135 26 -112 0 -90 26 -67 0 -45 26 -22 0
;
#X connect 0 0 4 0;
#X connect 1 0 5 0;
#X connect 4 0 2 0;
#X connect 4 1 3 0;
#X connect 5 0 4 0;
#X restore 562 0 pd reset;
#X obj 24 240 s \$0-vbap_list;
#X obj -39 527 outlet~;
#X obj 21 527 outlet~;
#X obj 81 527 outlet~;
#X obj 141 527 outlet~;
#X obj 202 527 outlet~;
#X obj 261 527 outlet~;
#X obj 321 527 outlet~;
#X obj 662 -80 import vbap;
#X obj 266 -80 inlet A;
#X obj 266 100 route src_dp;
#X obj -99 277 catch~ \$0-o_1;
#X obj -39 307 catch~ \$0-o_2;
#X obj 21 337 catch~ \$0-o_3;
#X obj 81 367 catch~ \$0-o_4;
#X obj 141 397 catch~ \$0-o_5;
#X obj 202 427 catch~ \$0-o_6;
#X obj 261 457 catch~ \$0-o_7;
#X obj 321 487 catch~ \$0-o_8;
#X obj 151 -50 r \$0-cs_config;
#N canvas 609 22 209 215 cs_process 0;
#X obj 17 -72 inlet A;
#X obj 127 28 r \$0-cs;
#X obj 17 100 outlet;
#X obj 87 -72 inlet E;
#X obj 17 -44 t b a;
#X msg 17 70 src_dp 1 \$1 \$2;
#X obj 149 94 print;
#X obj 17 28 pack f f;
#X connect 0 0 4 0;
#X connect 1 0 5 0;
#X connect 3 0 7 0;
#X connect 4 0 7 0;
#X connect 4 1 7 1;
#X connect 5 0 2 0;
#X connect 7 0 5 0;
#X connect 7 0 6 0;
#X restore 266 0 pd cs_process;
#N canvas 776 22 479 857 sig_matrix_16 0;
#X obj -212 -77 r \$0-vbap_list;
#X obj -56 173 r \$0-itime;
#X obj -142 173 r~ \$0-sig;
#X obj -228 684 throw~ \$0-o_1;
#X obj -217 654 throw~ \$0-o_2;
#X obj -206 624 throw~ \$0-o_3;
#X obj -194 594 throw~ \$0-o_4;
#X obj -183 564 throw~ \$0-o_5;
#X obj -171 534 throw~ \$0-o_6;
#X obj -160 504 throw~ \$0-o_7;
#X obj -148 474 throw~ \$0-o_8;
#X obj -212 -47 route 0 1 2 3 4 5 6 7 8 9 10 11 12 13 14 15;
#X obj -137 444 throw~ \$0-o_9;
#X obj -125 414 throw~ \$0-o_10;
#X obj -114 384 throw~ \$0-o_11;
#X obj -102 354 throw~ \$0-o_12;
#X obj -91 324 throw~ \$0-o_13;
#X obj -79 294 throw~ \$0-o_14;
#X obj -68 264 throw~ \$0-o_15;
#X obj -56 234 throw~ \$0-o_16;
#X obj -228 204 mtx_mul~ 16 1 100 .......;
#X obj -228 93 pack 0 0 0 0 0 0 0 0 0 0 0 0 0 0 0 0 0;
#X obj 67 -17 t b a;
#X msg -228 123 matrix 16 1 \$2 \$3 \$4 \$5 \$6 \$7 \$8 \$9 \$10 \$11
\$12 \$13 \$14 \$15 \$16 \$17;
#X connect 0 0 11 0;
#X connect 1 0 20 2;
#X connect 2 0 20 1;
#X connect 11 0 21 1;
#X connect 11 1 21 2;
#X connect 11 2 21 3;
#X connect 11 3 21 4;
#X connect 11 4 21 5;
#X connect 11 5 21 6;
#X connect 11 6 21 7;
#X connect 11 7 21 8;
#X connect 11 8 21 9;
#X connect 11 9 21 10;
#X connect 11 10 21 11;
#X connect 11 11 21 12;
#X connect 11 12 21 13;
#X connect 11 13 21 14;
#X connect 11 14 21 15;
#X connect 11 15 22 0;
#X connect 20 0 3 0;
#X connect 20 1 4 0;
#X connect 20 2 5 0;
#X connect 20 3 6 0;
#X connect 20 4 7 0;
#X connect 20 5 8 0;
#X connect 20 6 9 0;
#X connect 20 7 10 0;
#X connect 20 8 12 0;
#X connect 20 9 13 0;
#X connect 20 10 14 0;
#X connect 20 11 15 0;
#X connect 20 12 16 0;
#X connect 20 13 17 0;
#X connect 20 14 18 0;
#X connect 20 15 19 0;
#X connect 21 0 23 0;
#X connect 22 0 21 0;
#X connect 22 1 21 16;
#X connect 23 0 20 0;
#X restore 306 160 pd sig_matrix_16;
#X text 287 554 Juan Ignacio Mendoza - 2021;
#X obj 127 -80 inlet z;
#X obj 354 -80 inlet E;
#X obj 80 68 vsl 10 40 0 1 0 0 empty empty empty 0 -9 0 10 -616 -258113
-1 1950 1;
#X text 51 106 x;
#X text 80 106 z;
#X text 22 77 y;
#N canvas 0 23 441 112 information 0;
#X text -318 45 This object distributes an audio signal to a dome of
16 speakers.;
#X text -319 15 cart2vbap3D_16;
#X restore 662 0 pd information;
#X obj 421 527 outlet~;
#X obj 481 527 outlet~;
#X obj 541 527 outlet~;
#X obj 601 527 outlet~;
#X obj 661 527 outlet~;
#X obj 722 527 outlet~;
#X obj 781 527 outlet~;
#X obj 841 527 outlet~;
#X obj 421 277 catch~ \$0-o_9;
#X obj 481 307 catch~ \$0-o_10;
#X obj 541 337 catch~ \$0-o_11;
#X obj 601 367 catch~ \$0-o_12;
#X obj 661 397 catch~ \$0-o_13;
#X obj 722 427 catch~ \$0-o_14;
#X obj 781 457 catch~ \$0-o_15;
#X obj 841 487 catch~ \$0-o_16;
#X obj 53 -20 r \$0-z;
#X obj -51 213 ggee/vbap;
#X obj 24 213 vbap/vbap 0 0 20;
#X connect 0 0 84 0;
#X connect 0 1 84 1;
#X connect 0 2 84 2;
#X connect 0 3 84 3;
#X connect 6 0 7 0;
#X connect 8 0 1 0;
#X connect 9 0 84 0;
#X connect 13 0 35 0;
#X connect 26 0 0 3;
#X connect 27 0 0 0;
#X connect 27 1 0 1;
#X connect 28 0 34 0;
#X connect 29 0 34 1;
#X connect 34 0 27 0;
#X connect 45 0 56 0;
#X connect 46 0 0 3;
#X connect 47 0 11 0;
#X connect 48 0 37 0;
#X connect 49 0 38 0;
#X connect 50 0 39 0;
#X connect 51 0 40 0;
#X connect 52 0 41 0;
#X connect 53 0 42 0;
#X connect 54 0 43 0;
#X connect 55 0 26 0;
#X connect 56 0 46 0;
#X connect 56 0 26 0;
#X connect 59 0 61 0;
#X connect 60 0 56 1;
#X connect 61 0 0 2;
#X connect 74 0 66 0;
#X connect 75 0 67 0;
#X connect 76 0 68 0;
#X connect 77 0 69 0;
#X connect 78 0 70 0;
#X connect 79 0 71 0;
#X connect 80 0 72 0;
#X connect 81 0 73 0;
#X connect 82 0 61 0;
#X connect 84 0 36 0;
#X coords 0 -1 1 1 158 123 2 10 10;
