#N canvas 652 339 672 390 12;
#X obj 72 249 *~;
#X obj 322 209 vline~;
#X obj 322 9 inlet attack hold release;
#X obj 72 9 inlet~;
#X obj 72 309 outlet~;
#X obj 322 41 unpack f f f;
#X obj 322 151 pack f f f f;
#X obj 180 103 metro;
#X msg 322 181 1 \$2 \, 0 \$4 \$3;
#X obj 376 112 +;
#X obj 212 9 inlet period;
#X msg 140 66 1;
#X obj 322 85 t a a;
#X obj 140 39 loadbang;
#X connect 0 0 4 0;
#X connect 1 0 0 1;
#X connect 2 0 5 0;
#X connect 3 0 0 0;
#X connect 5 0 12 0;
#X connect 5 1 9 1;
#X connect 5 2 6 3;
#X connect 6 0 8 0;
#X connect 7 0 6 0;
#X connect 8 0 1 0;
#X connect 9 0 6 2;
#X connect 10 0 7 1;
#X connect 11 0 7 0;
#X connect 12 0 6 1;
#X connect 12 1 9 0;
#X connect 13 0 11 0;
