#N canvas 511 304 255 350 12;
#X text -78 287 Juan Ignacio Mendoza Garay - 2018;
#X obj -79 48 inlet signal;
#X obj 41 48 inlet min max;
#X obj 13 258 outlet;
#X obj -79 188 moses 0;
#X obj 13 228 moses 1;
#X obj -33 78 loadbang;
#X obj 41 158 unpack f f;
#X obj -33 127 \$1;
#X obj 13 128 \$2;
#X text -81 -34 restrict incoming numbers to range;
#X text -81 -2 or as arguments;
#X text -81 -18 given by list in right inlet;
#X text 25 26 default: 0 1;
#X obj 13 188 route 0;
#X connect 1 0 4 0;
#X connect 2 0 7 0;
#X connect 4 1 5 0;
#X connect 5 0 3 0;
#X connect 6 0 8 0;
#X connect 6 0 9 0;
#X connect 7 0 4 1;
#X connect 7 1 5 1;
#X connect 8 0 4 1;
#X connect 9 0 14 0;
#X connect 14 1 5 1;
#X coords 0 0 1 1 48 46 0;
