#N canvas 912 440 513 338 12;
#X obj -64 290 outlet~;
#X obj -117 15 inlet;
#X obj -117 65 select 0 1;
#X msg -117 151 clear;
#X obj -84 104 pack \$0;
#X obj -64 201 s pd-\$0-osc;
#N canvas 658 130 170 101 \$0-osc 1;
#X obj 11 10 r~ 1068-osc_f;
#X obj 11 41 osc~;
#X obj 11 70 throw~ 1068-output_osc;
#X connect 0 0 1 0;
#X connect 1 0 2 0;
#X restore -64 231 pd \$0-osc;
#X obj -64 261 catch~ \$0-output_osc;
#X obj -14 65 s~ \$0-osc_f;
#X obj -14 15 inlet~;
#X msg -64 135 clear \, obj 11 10 r~ \$1-osc_f \, obj 11 41 osc~ \,
obj 11 70 throw~ \$1-output_osc \, connect 0 0 1 0 \, connect 1 0 2
0;
#X connect 1 0 2 0;
#X connect 2 0 3 0;
#X connect 2 1 4 0;
#X connect 3 0 5 0;
#X connect 4 0 10 0;
#X connect 7 0 0 0;
#X connect 9 0 8 0;
#X connect 10 0 5 0;
