#N canvas 431 59 864 544 12;
#X obj 91 430 matrix;
#X obj 91 7 loadbang;
#X obj 37 280 bng 15 250 50 0 empty empty empty 17 7 0 10 -262144 -1
-1;
#X obj 91 460 outlet;
#X obj 305 395 pack f f;
#X msg 305 426 element \$1 \$2 0;
#X obj 492 212 until;
#X floatatom 381 274 5 0 0 0 - - -;
#X obj 492 190 bng 15 250 50 0 empty empty empty 17 7 0 10 -262144
-1 -1;
#X obj 492 240 f;
#X obj 535 241 + 1;
#X obj 637 258 mod \$1;
#X obj 584 219 sel 0;
#X obj 756 318 +;
#X obj 310 102 counter;
#X msg 165 44 stop;
#X obj 338 27 unpack f f f f;
#X obj 338 -3 inlet;
#X obj 310 218 +;
#X obj 340 131 sel 1;
#X obj 100 376 mtx_ones 20;
#X obj 310 72 metro 600;
#X connect 0 0 3 0;
#X connect 1 0 20 0;
#X connect 2 0 0 0;
#X connect 4 0 5 0;
#X connect 5 0 0 0;
#X connect 6 0 9 0;
#X connect 7 0 4 1;
#X connect 7 0 8 0;
#X connect 8 0 6 0;
#X connect 9 0 10 0;
#X connect 9 0 13 0;
#X connect 10 0 11 0;
#X connect 11 0 12 0;
#X connect 11 0 9 1;
#X connect 12 0 6 1;
#X connect 13 0 4 0;
#X connect 14 0 18 0;
#X connect 14 2 19 0;
#X connect 15 0 2 0;
#X connect 15 0 21 0;
#X connect 16 0 18 1;
#X connect 16 0 21 0;
#X connect 16 1 14 4;
#X connect 16 2 11 1;
#X connect 16 3 13 1;
#X connect 17 0 16 0;
#X connect 18 0 7 0;
#X connect 19 0 15 0;
#X connect 20 0 0 1;
#X connect 21 0 14 0;
