#N canvas 185 202 1034 686 12;
#X obj 263 356 translateXYZ;
#X obj 251 226 *;
#X obj 251 286 +;
#X obj 351 226 *;
#X obj 351 286 +;
#X obj 131 16 inlet x;
#X text 427 195 <-- scale;
#X text 427 255 <-- offset;
#X obj 351 16 inlet y;
#X obj 83 516 separator;
#X obj 286 516 separator;
#X obj 496 516 separator;
#X msg 456 386 draw line;
#X obj 456 286 loadbang;
#X obj 263 476 t a a a;
#X obj 83 636 rectangle 0.03 0.2;
#X obj 286 636 rectangle 0.2 0.03;
#X obj 144 546 r \$0-cursor_size;
#X obj 496 636 circle 0.1;
#X obj 131 96 spigot;
#X obj 351 96 spigot;
#X obj 131 126 s \$0-x;
#X obj 351 126 s \$0-y;
#X obj 251 166 r \$0-x;
#X obj 351 166 r \$0-y;
#X obj 848 516 s \$0-x;
#X obj 915 516 s \$0-y;
#X obj 743 116 s \$0-test_sw;
#X obj 203 16 r \$0-test_sw;
#X obj 203 54 expr -($f1-1)*(-1);
#X obj 698 236 r \$0-test_sw;
#X obj 423 96 spigot;
#X obj 848 475 unpack f f;
#X msg 698 425 0 0;
#X msg 748 425 0 1;
#X msg 798 425 1 1;
#X msg 848 425 1 0;
#X obj 698 385 select 1 2 3 4;
#X obj 698 355 cup;
#X msg 729 311 0;
#X obj 269 196 r \$0-sx;
#X obj 269 256 r \$0-ox;
#X obj 369 196 r \$0-sy;
#X obj 369 256 r \$0-oy;
#X obj 423 16 inlet size;
#X obj 13 16 inlet gl;
#X obj 563 16 inlet offsets_n_scales;
#X obj 563 46 unpack f f f f;
#X obj 743 16 inlet test;
#X msg 354 326 1;
#X obj 573 426 r \$0-cursor_size;
#X obj 423 126 s \$0-cursor_size;
#X obj 763 46 loadbang;
#X msg 763 76 0;
#X obj 594 136 s \$0-sx;
#X obj 563 166 s \$0-ox;
#X obj 658 76 s \$0-sy;
#X obj 626 106 s \$0-oy;
#X obj 263 446 colorRGB 1 0 0 1;
#X obj 903 46 loadbang;
#X msg 903 76 1 0 0 1;
#X obj 883 16 inlet RGBA;
#X obj 883 116 s \$0-RGBA;
#X obj 277 416 unpack f f f f;
#X obj 277 386 r \$0-RGBA;
#X obj 698 272 metro 100;
#X obj 563 466 * 1;
#X msg 563 357 0.4;
#X obj 144 576 / 10;
#X connect 0 0 58 0;
#X connect 1 0 2 0;
#X connect 2 0 0 1;
#X connect 3 0 4 0;
#X connect 4 0 0 2;
#X connect 5 0 19 0;
#X connect 8 0 20 0;
#X connect 9 0 15 0;
#X connect 10 0 16 0;
#X connect 11 0 18 0;
#X connect 12 0 18 0;
#X connect 13 0 12 0;
#X connect 13 0 49 0;
#X connect 14 0 9 0;
#X connect 14 1 10 0;
#X connect 14 2 11 0;
#X connect 17 0 68 0;
#X connect 19 0 21 0;
#X connect 20 0 22 0;
#X connect 23 0 1 0;
#X connect 24 0 3 0;
#X connect 28 0 29 0;
#X connect 29 0 20 1;
#X connect 29 0 19 1;
#X connect 29 0 31 1;
#X connect 30 0 65 0;
#X connect 31 0 51 0;
#X connect 32 0 25 0;
#X connect 32 1 26 0;
#X connect 33 0 32 0;
#X connect 34 0 32 0;
#X connect 35 0 32 0;
#X connect 36 0 32 0;
#X connect 37 0 33 0;
#X connect 37 1 34 0;
#X connect 37 2 35 0;
#X connect 37 3 39 0;
#X connect 37 3 36 0;
#X connect 38 0 37 0;
#X connect 39 0 38 0;
#X connect 40 0 1 1;
#X connect 41 0 2 1;
#X connect 42 0 3 1;
#X connect 43 0 4 1;
#X connect 44 0 31 0;
#X connect 45 0 0 0;
#X connect 46 0 47 0;
#X connect 47 0 55 0;
#X connect 47 1 54 0;
#X connect 47 2 57 0;
#X connect 47 3 56 0;
#X connect 48 0 27 0;
#X connect 49 0 0 3;
#X connect 50 0 66 0;
#X connect 52 0 53 0;
#X connect 53 0 27 0;
#X connect 58 0 14 0;
#X connect 59 0 60 0;
#X connect 60 0 62 0;
#X connect 61 0 62 0;
#X connect 63 0 58 1;
#X connect 63 1 58 2;
#X connect 63 2 58 3;
#X connect 63 3 58 4;
#X connect 64 0 63 0;
#X connect 65 0 67 0;
#X connect 65 0 38 0;
#X connect 66 0 18 1;
#X connect 67 0 66 0;
#X connect 68 0 15 1;
#X connect 68 0 16 2;
