#N canvas 219 292 179 341 12;
#X obj 2 16 inlet;
#X obj 73 15 vradio 16 1 0 1 \$0-switch_snd \$0-switch_rcv empty 0
-8 0 10 -262144 -262144 -262144 0;
#X obj 2 106 tgl 15 0 empty empty empty 17 7 0 10 -262144 -1 -1 0 1
;
#X msg 45 176 16;
#X obj 12 46 r \$0-switch_snd;
#X obj 12 246 s \$0-switch_rcv;
#X msg 12 216 color \$1 \$1 \$1;
#X obj 122 16 inlet;
#X msg 122 136 set \$1;
#X obj 12 76 bang;
#X msg 12 176 0;
#X obj 2 286 outlet;
#X obj 62 76 loadbang;
#X text 5 309 Juan I. Mendoza - 2017;
#X obj 12 136 select 0 1;
#X msg 62 106 16;
#X connect 0 0 2 0;
#X connect 2 0 11 0;
#X connect 2 0 14 0;
#X connect 3 0 6 0;
#X connect 4 0 9 0;
#X connect 6 0 5 0;
#X connect 7 0 8 0;
#X connect 8 0 3 0;
#X connect 9 0 2 0;
#X connect 10 0 6 0;
#X connect 12 0 15 0;
#X connect 14 0 10 0;
#X connect 14 1 3 0;
#X connect 15 0 8 0;
#X coords 0 -1 1 1 18 18 2 72 14;
