#N canvas 180 245 294 311 10;
#X obj 152 83 *~;
#X obj 152 113 *~;
#X obj 40 -7 clip~ 0 1;
#X obj 122 -87 inlet q;
#X obj 179 -87 inlet t;
#X obj 236 -87 inlet a;
#X obj 209 173 outlet~;
#X obj 100 23 max~ \$3;
#X obj 152 53 -~ \$3;
#X obj 209 143 *~ \$4;
#X obj 40 -37 bp~ \$1 \$2;
#X obj 65 -87 inlet f;
#X obj 14 -87 noise~;
#X text 17 154 Based on Andy Farnell's;
#X text 17 174 drops.pd;
#X connect 0 0 1 0;
#X connect 0 0 1 1;
#X connect 1 0 9 0;
#X connect 2 0 7 0;
#X connect 3 0 10 2;
#X connect 4 0 7 1;
#X connect 4 0 8 1;
#X connect 5 0 9 1;
#X connect 7 0 8 0;
#X connect 8 0 0 0;
#X connect 8 0 0 1;
#X connect 9 0 6 0;
#X connect 10 0 2 0;
#X connect 11 0 10 1;
#X connect 12 0 10 0;
