#N canvas 278 98 450 300 10;
#X obj -194 172 *~;
#X obj -114 172 *~;
#X obj -154 217 outlet~;
#X obj -194 22 inlet~ dry;
#X obj -114 22 inlet~ wet;
#X text -23 43 -1 = dry;
#X text -17 59 1 = wet;
#X obj -34 22 inlet control_signal;
#X obj -34 82 expr ($f1 + 1)/2;
#X obj -34 112 expr 1 - $f1;
#X obj -179 142 sig~;
#X obj -99 142 sig~;
#X connect 0 0 2 0;
#X connect 1 0 2 0;
#X connect 3 0 0 0;
#X connect 4 0 1 0;
#X connect 7 0 8 0;
#X connect 8 0 9 0;
#X connect 8 0 11 0;
#X connect 9 0 10 0;
#X connect 10 0 0 1;
#X connect 11 0 1 1;
