#N canvas 788 88 302 276 12;
#X text -37 220 Juan Ignacio Mendoza - 2019;
#X obj -92 -10 inlet data;
#X obj -18 100 cup;
#X msg 44 160 resize \$1;
#X obj 44 190 s \$0-array;
#X obj -92 190 tabwrite \$0-array;
#X obj -92 70 trigger f b;
#X obj -18 130 t a a;
#X obj -92 20 route bang;
#X msg 44 70 1;
#N canvas 0 22 450 300 (subpatch) 0;
#X array \$0-array 109 float 0;
#X coords 0 1 108 0 200 30 1;
#X restore 1 -1 graph;
#X connect 1 0 8 0;
#X connect 2 0 7 0;
#X connect 3 0 4 0;
#X connect 6 0 5 0;
#X connect 6 1 2 0;
#X connect 7 0 5 1;
#X connect 7 1 3 0;
#X connect 8 0 9 0;
#X connect 8 1 6 0;
#X connect 9 0 2 0;
#X coords 0 -1 1 1 200 30 2 0 0;
