#N canvas 133 22 576 706 16;
#X text 125 651 Juan Ignacio Mendoza Garay - 2018;
#X obj 11 103 inlet signal;
#X obj 11 613 outlet signal;
#X obj 146 103 inlet headroom;
#X text 9 -1 rescale a signal dynamically (almost a compressor);
#X obj 426 103 inlet min max;
#X obj 306 103 inlet time;
#X obj 22 413 moses;
#X obj 11 533 rescaler 0 1;
#X obj 20 493 * -1;
#X obj 21 133 abs;
#X obj 179 363 line;
#X obj 179 323 pack f f;
#X obj 109 413 + 0.1;
#X obj 179 283 * 1.1;
#X obj 69 243 poll 100;
#X obj 69 453 average 20;
#X obj 11 573 hardlimit 0 1;
#X obj 146 133 s \$0-hr;
#X obj 306 133 s \$0-t;
#X obj 426 133 s \$0-minmax;
#X obj 226 243 r \$0-hr;
#X obj 306 283 r \$0-t;
#X obj 306 453 r \$0-minmax;
#X obj 98 493 unpack f f;
#N canvas 0 22 399 254 init 0;
#X obj 156 13 loadbang;
#X obj 16 83 \$1;
#X obj 16 113 route 0;
#X obj 83 193 s \$0-hr;
#X obj 106 113 route 0;
#X obj 106 83 \$2;
#X obj 196 83 \$3;
#X obj 173 193 s \$0-t;
#X obj 266 113 route 0;
#X obj 266 83 \$4;
#X obj 256 193 s \$0-minmax;
#X obj 256 153 pack 0 1;
#X connect 0 0 1 0;
#X connect 0 0 5 0;
#X connect 0 0 6 0;
#X connect 0 0 9 0;
#X connect 1 0 2 0;
#X connect 2 1 3 0;
#X connect 4 1 7 0;
#X connect 5 0 4 0;
#X connect 6 0 11 0;
#X connect 8 1 11 1;
#X connect 9 0 8 0;
#X connect 11 0 10 0;
#X restore 426 203 pd init;
#X obj 146 203 / 10;
#X obj 306 323 / 5;
#X obj 306 363 i;
#X obj 146 173 r \$0-t;
#X obj 306 393 route 0;
#X text 95 73 defaults:;
#X text 536 73 1;
#X text 499 73 0;
#X text 308 73 1000 (ms.);
#X text 231 73 1.1;
#X text 9 29 input signal should have center at zero;
#X connect 1 0 8 0;
#X connect 1 0 10 0;
#X connect 3 0 18 0;
#X connect 5 0 20 0;
#X connect 6 0 19 0;
#X connect 7 1 16 0;
#X connect 7 1 13 0;
#X connect 8 0 17 0;
#X connect 9 0 8 1;
#X connect 10 0 15 0;
#X connect 10 0 7 0;
#X connect 11 0 7 1;
#X connect 12 0 11 0;
#X connect 13 0 12 0;
#X connect 13 0 7 1;
#X connect 14 0 12 0;
#X connect 15 0 14 0;
#X connect 16 0 8 2;
#X connect 16 0 9 0;
#X connect 17 0 2 0;
#X connect 21 0 14 1;
#X connect 22 0 12 1;
#X connect 22 0 27 0;
#X connect 23 0 24 0;
#X connect 23 0 17 1;
#X connect 24 0 8 3;
#X connect 24 1 8 4;
#X connect 26 0 15 1;
#X connect 27 0 28 0;
#X connect 28 0 30 0;
#X connect 29 0 26 0;
#X connect 30 1 16 1;
#X coords 0 0 1 1 48 46 0;
