#N canvas 106 37 423 555 10;
#X obj 46 59 inlet~;
#X obj 93 290 outlet~;
#X obj 47 163 *~;
#X obj 71 164 *~;
#X obj 159 163 *~;
#X obj 47 188 -~;
#X obj 187 163 *~;
#X obj 158 186 +~;
#X obj 47 92 *~;
#X obj 47 114 rfft~;
#X obj 202 116 rfft~;
#X obj 92 224 rifft~;
#X obj 284 32 block~ \$1 2;
#X obj 11 268 loadbang;
#X obj 11 303 f \$1;
#X obj 11 330 * 0.5;
#X msg 81 313 bang;
#X text 87 37 only use half of the buffer;
#X text 145 292 overlap/add is done by outlet~;
#X obj 93 271 *~ 0.1;
#X msg 148 224 1;
#X obj 148 253 /;
#X obj 214 198 t b f;
#X text 18 6 Usage: fft_convolution <fftsize> <filtername>;
#X obj 202 72 tabreceive~ \$2;
#X obj 127 320 t b f;
#X obj 127 370 pack s 0;
#X obj 127 344 symbol \$2;
#X msg 127 397 \; \$1 resize \$2;
#X text 10 472 (C) 2003 GG;
#X obj 13 23 table \$0-step;
#X obj 90 59 tabreceive~ \$0-step;
#X text 22 484 TWEAKED BY Juan Ignacio Mendoza - 2016;
#X obj 11 370 pack f \$0;
#X msg 11 419 \; \$2-step resize \$1 \; \$2-step const 1 \;;
#X connect 0 0 8 0;
#X connect 2 0 5 0;
#X connect 3 0 5 1;
#X connect 4 0 7 0;
#X connect 5 0 11 0;
#X connect 6 0 7 1;
#X connect 7 0 11 1;
#X connect 8 0 9 0;
#X connect 9 0 2 0;
#X connect 9 0 4 0;
#X connect 9 1 3 0;
#X connect 9 1 6 0;
#X connect 10 0 2 1;
#X connect 10 0 6 1;
#X connect 10 1 3 1;
#X connect 10 1 4 1;
#X connect 11 0 19 0;
#X connect 13 0 14 0;
#X connect 14 0 15 0;
#X connect 14 0 22 0;
#X connect 14 0 25 0;
#X connect 15 0 33 0;
#X connect 16 0 14 0;
#X connect 19 0 1 0;
#X connect 20 0 21 0;
#X connect 21 0 19 1;
#X connect 22 0 20 0;
#X connect 22 1 21 1;
#X connect 24 0 10 0;
#X connect 25 0 27 0;
#X connect 25 1 26 1;
#X connect 26 0 28 0;
#X connect 27 0 26 0;
#X connect 31 0 8 1;
#X connect 33 0 34 0;
