#N canvas 140 23 542 145 12;
#X text 188 113 Juan Ignacio Mendoza - 2016;
#X obj 407 111 outlet~;
#N canvas 717 347 251 450 onoff_switch 0;
#X obj -48 74 tgl 15 0 empty empty empty 17 7 0 10 -262144 -1 -1 0
1;
#X obj 2 14 bang;
#X msg -8 274 color 20 20 20;
#X msg 5 214 color 20 22 22;
#X obj -48 -16 inlet;
#X msg -28 334 label OFF \, color 22 3;
#X obj -48 394 outlet toggle;
#X obj 5 244 s \$0-onoff_sw_rcv;
#X obj 20 184 s \$0-onoff_display_rcv;
#X obj -8 304 s \$0-onoff_sw_rcv;
#X obj -28 364 s \$0-onoff_display_rcv;
#X obj 2 -16 r \$0-onoff_sw_snd;
#X msg 20 154 label ON \, color 22 6;
#X obj 42 14 loadbang;
#X msg 42 44 0;
#X obj -28 105 select 0 1;
#X connect 0 0 6 0;
#X connect 0 0 15 0;
#X connect 1 0 0 0;
#X connect 2 0 9 0;
#X connect 3 0 7 0;
#X connect 4 0 0 0;
#X connect 5 0 10 0;
#X connect 11 0 1 0;
#X connect 12 0 8 0;
#X connect 13 0 14 0;
#X connect 14 0 0 0;
#X connect 15 0 2 0;
#X connect 15 0 5 0;
#X connect 15 1 3 0;
#X connect 15 1 12 0;
#X restore 407 41 pd onoff_switch;
#X obj 407 11 inlet on/off;
#X obj 1 5 cnv 5 111 128 empty empty empty 50 12 0 10 -258113 -143491
0;
#X obj 3 7 cnv 10 107 124 empty empty empty 50 12 0 10 -262130 -143491
0;
#X obj 7 40 cnv 15 99 87 empty empty empty 20 12 0 14 -258113 -66577
0;
#X obj 12 44 hsl 90 15 0 1 0 0 \$0-c_slider_snd \$0-c_slider_rcv crackles
21 7 0 10 -1 -204786 -204786 8900 1;
#X obj 12 64 hsl 90 15 0 1 0 0 \$0-h_slider_snd \$0-h_slider_rcv hissing
24 7 0 10 -1 -204800 -204800 8900 1;
#X obj 12 84 hsl 90 15 0 1 0 0 \$0-l_slider_snd \$0-l_slider_rcv lapping
23 7 0 10 -1 -261682 -261682 8900 1;
#X obj 12 108 hsl 90 15 0 1 0 0 \$0-M_slider_snd \$0-M_slider_rcv MASTER
27 8 0 10 -1 -262130 -262130 0 1;
#X obj 62 11 cnv 5 44 28 empty empty empty 2 8 0 10 -258113 -261234
0;
#X obj 63 13 cnv 5 42 20 empty empty empty 2 8 0 10 -191407 -261234
0;
#X obj 65 15 vradio 16 1 0 1 \$0-onoff_sw_snd \$0-onoff_sw_rcv empty
0 -8 0 10 -195568 -195568 -195568 0;
#X obj 82 15 cnv 5 21 16 empty \$0-onoff_display_rcv OFF 1 9 0 10 -1
-261689 0;
#X obj 11 15 cnv 5 50 22 empty empty fire 0 10 0 18 -262130 -258113
0;
#X obj 269 71 s \$0-M_slider_rcv;
#N canvas 0 22 429 289 fire_generator 0;
#N canvas 422 22 358 585 crackles 0;
#X obj 72 394 *~;
#X obj 87 87 env~;
#X obj 87 57 lop~ 1;
#X msg 144 170 bang;
#X obj 144 148 moses 51;
#X obj 144 193 random 30;
#X obj 144 237 line~;
#X msg 144 216 1 \, 0 \$1;
#X obj 144 265 *~;
#X obj 108 325 + 1500;
#X obj 72 349 bp~ 4000 1;
#X obj 108 303 * 500;
#X obj 72 459 outlet~;
#X obj 72 22 inlet~;
#X obj 72 424 *~ 0.2;
#X obj 111 394 r \$0-c_slider_snd;
#X obj 87 127 moses 50;
#X connect 0 0 14 0;
#X connect 1 0 16 0;
#X connect 2 0 1 0;
#X connect 3 0 5 0;
#X connect 4 0 3 0;
#X connect 5 0 7 0;
#X connect 5 0 11 0;
#X connect 6 0 8 0;
#X connect 6 0 8 1;
#X connect 7 0 6 0;
#X connect 8 0 0 1;
#X connect 9 0 10 1;
#X connect 10 0 0 0;
#X connect 11 0 9 0;
#X connect 13 0 2 0;
#X connect 13 0 10 0;
#X connect 14 0 12 0;
#X connect 15 0 14 1;
#X connect 16 1 4 0;
#X restore 36 150 pd crackles;
#N canvas 807 22 439 360 hissing 0;
#X obj 120 252 *~;
#X obj 131 81 lop~ 1;
#X obj 161 151 *~;
#X obj 32 82 hip~ 1000;
#X obj 159 187 *~;
#X obj 161 114 *~ 10;
#X obj 159 221 *~ 600;
#X obj 120 312 outlet~;
#X obj 83 7 inlet~;
#X obj 120 282 *~ 0.3;
#X obj 159 252 r \$0-h_slider_snd;
#X connect 0 0 9 0;
#X connect 1 0 5 0;
#X connect 2 0 4 0;
#X connect 2 0 4 1;
#X connect 3 0 0 0;
#X connect 4 0 6 0;
#X connect 5 0 2 0;
#X connect 5 0 2 1;
#X connect 6 0 0 1;
#X connect 8 0 1 0;
#X connect 8 0 3 0;
#X connect 9 0 7 0;
#X connect 10 0 9 1;
#X restore 126 150 pd hissing;
#N canvas 562 304 430 305 lapping 0;
#X obj 24 109 clip~ -0.9 0.9;
#X obj 24 129 hip~ 25;
#X obj 24 86 hip~ 25;
#X obj 24 40 bp~ 30 5;
#X obj 24 65 *~ 100;
#X obj 24 189 *~ 0.6;
#X obj 24 219 outlet~;
#X obj 24 12 inlet~;
#X obj 63 159 r \$0-l_slider_snd;
#X connect 0 0 1 0;
#X connect 1 0 5 0;
#X connect 2 0 0 0;
#X connect 3 0 4 0;
#X connect 4 0 2 0;
#X connect 5 0 6 0;
#X connect 7 0 3 0;
#X connect 8 0 5 1;
#X restore 207 150 pd lapping;
#X obj 161 40 noise~;
#X obj 161 70 spigot~;
#X obj 126 230 *~;
#X obj 295 150 r \$0-M_slider_snd;
#X obj 207 10 inlet onoff;
#X obj 126 260 outlet~;
#X text 301 258 fire synthesizer;
#X text 251 243 Based on Andy Farnell's;
#X connect 0 0 5 0;
#X connect 1 0 5 0;
#X connect 2 0 5 0;
#X connect 3 0 4 0;
#X connect 4 1 0 0;
#X connect 4 1 1 0;
#X connect 4 1 2 0;
#X connect 5 0 8 0;
#X connect 6 0 5 1;
#X connect 7 0 4 1;
#X restore 407 71 pd fire_generator;
#N canvas 227 470 431 175 c_h_l_sliders 0;
#X obj 138 9 inlet h;
#X obj 268 9 inlet l;
#X obj 8 9 inlet c;
#X obj 8 135 s \$0-c_slider_rcv;
#X obj 138 135 s \$0-h_slider_rcv;
#X obj 268 135 s \$0-l_slider_rcv;
#X obj 331 9 loadbang;
#X msg 331 39 1;
#X connect 0 0 4 0;
#X connect 1 0 5 0;
#X connect 2 0 3 0;
#X connect 6 0 7 0;
#X connect 7 0 4 0;
#X connect 7 0 3 0;
#X connect 7 0 5 0;
#X restore 137 71 pd c_h_l_sliders;
#X obj 197 11 inlet h;
#X obj 257 11 inlet l;
#X obj 317 11 inlet M;
#X obj 137 11 inlet c;
#X connect 2 0 17 0;
#X connect 3 0 2 0;
#X connect 17 0 1 0;
#X connect 19 0 18 1;
#X connect 20 0 18 2;
#X connect 21 0 16 0;
#X connect 22 0 18 0;
#X coords 0 -1 1 1 111 136 2 1 1;
