#N canvas 356 571 616 338 16;
#X obj -51 250 *~;
#X obj -51 180 +~;
#X obj -51 20 inlet carrier f;
#X obj 116 140 *~;
#X obj 116 20 inlet mod freq;
#X obj -51 280 outlet~;
#X obj 443 21 inlet~ amp;
#X obj -51 210 osc~;
#X obj 116 80 osc~;
#X obj 273 20 inlet mod depth;
#X connect 0 0 5 0;
#X connect 1 0 7 0;
#X connect 2 0 1 0;
#X connect 3 0 1 1;
#X connect 4 0 8 0;
#X connect 6 0 0 1;
#X connect 7 0 0 0;
#X connect 8 0 3 0;
#X connect 9 0 3 1;
