#N canvas 223 23 266 171 16;
#X obj 0 46 metro 10;
#X obj 120 106 f;
#X obj 0 -4 inlet;
#X obj 120 136 outlet;
#X obj 147 -4 inlet;
#X obj 77 -4 inlet;
#X connect 0 0 1 0;
#X connect 1 0 3 0;
#X connect 2 0 0 0;
#X connect 4 0 1 1;
#X connect 5 0 0 1;
