#N canvas 996 273 169 208 12;
#X declare -lib mrpeach;
#X declare -lib iemmatrix;
#X declare -lib list-abs;
#X declare -lib iemmatrix;
#X declare -lib list-abs;
#X declare -lib iemmatrix;
#X declare -lib hexloader;
#X declare -lib iemmatrix;
#X declare -lib hexloader;
#X declare -lib iemmatrix;
#X declare -lib iemmatrix;
#X declare -lib iemmatrix;
#X declare -lib iemmatrix;
#X declare -lib list-abs;
#X declare -lib iemmatrix;
#X declare -lib smlib;
#X declare -lib iemmatrix;
#X declare -lib iemmatrix;
#X declare -lib hexloader;
#X declare -lib iemmatrix;
#X declare -lib iemmatrix;
#N canvas 869 22 533 284 control 1;
#X text -157 117 on/off -->;
#X text -185 149 controller -->;
#X obj -79 120 tgl 15 0 empty empty empty 17 7 0 10 -262144 -1 -1 0
1;
#N canvas 509 264 406 260 Myo_OSC 0;
#X obj 229 12 import mrpeach;
#X obj -3 12 inlet;
#N canvas 328 339 299 316 autoswitch 0;
#X obj 13 16 inlet;
#X obj 103 116 once;
#X obj 13 116 once;
#X msg 13 156 0;
#X msg 103 156 1;
#X obj 13 46 temperature 1000;
#X obj 13 76 moses 1;
#X obj 13 206 outlet tgl;
#X connect 0 0 5 0;
#X connect 1 0 2 1;
#X connect 1 0 4 0;
#X connect 2 0 1 1;
#X connect 2 0 3 0;
#X connect 3 0 7 0;
#X connect 4 0 7 0;
#X connect 5 0 6 0;
#X connect 6 0 2 0;
#X connect 6 1 1 0;
#X restore 230 172 pd autoswitch;
#X obj 230 222 outlet tgl;
#N canvas 274 361 223 280 list_poll 0;
#X obj 46 18 inlet period;
#X msg 99 108 1;
#X obj 99 78 t b a;
#X obj 46 48 select 0;
#X msg 46 108 0;
#X obj 99 138 metro;
#X obj -69 178 list;
#X obj -69 208 route bang;
#X obj -44 18 inlet list;
#X obj -2 238 outlet list;
#X connect 0 0 3 0;
#X connect 1 0 5 0;
#X connect 2 0 1 0;
#X connect 2 1 5 1;
#X connect 3 0 4 0;
#X connect 3 1 2 0;
#X connect 4 0 5 0;
#X connect 5 0 6 0;
#X connect 6 0 7 0;
#X connect 7 1 9 0;
#X connect 8 0 6 1;
#X restore -3 172 pd list_poll;
#X floatatom 229 113 5 0 0 0 - - -;
#X text 230 134 sample period (ms);
#X obj 229 72 expr 1000 / $f1;
#X obj 229 42 r \$0-fps;
#X obj 144 72 select 0 1;
#X obj 177 112 i;
#X msg 134 112 0;
#X obj -3 222 outlet raw_xyz;
#N canvas 534 23 312 419 Myo_xyz_tgl 0;
#X obj 70 176 unpackOSC;
#X obj 70 206 routeOSC /myo;
#N canvas 521 384 653 187 udp_receive 0;
#X obj 253 55 outlet;
#N canvas 1080 271 270 153 \$0-udp_prov 0;
#X restore 73 26 pd \$0-udp_prov;
#X obj -137 26 s pd-\$0-udp_prov;
#X msg -67 -35 clear \, obj 1 1 udpreceive \$1 \, obj 1 50 send udprecout
\, connect 0 0 1 0;
#X obj 253 26 r udprecout;
#X msg -137 -35 clear;
#X obj -137 -75 inlet;
#X obj -67 -75 inlet;
#X connect 3 0 2 0;
#X connect 4 0 0 0;
#X connect 5 0 2 0;
#X connect 6 0 5 0;
#X connect 7 0 3 0;
#X restore 70 146 pd udp_receive;
#X obj 70 16 inlet on/off;
#X obj 70 76 select 0 1;
#X msg 183 77 7777;
#X obj 165 116 f;
#X obj 70 46 tgl 15 0 empty empty empty 17 7 0 10 -262144 -1 -1 0 1
;
#X obj 183 16 loadbang;
#X obj 70 376 outlet xyz;
#X obj 132 276 routeOSC /orientation;
#X obj 2 276 routeOSC /accel;
#X text 168 253 roll \, pitch \, yaw;
#X msg 132 306 \$6 \$7 \$8;
#X msg 2 306 \$2 \$3 \$4;
#X connect 0 0 1 0;
#X connect 1 0 11 0;
#X connect 2 0 0 0;
#X connect 3 0 7 0;
#X connect 4 0 2 0;
#X connect 4 1 6 0;
#X connect 5 0 6 1;
#X connect 6 0 2 1;
#X connect 7 0 4 0;
#X connect 8 0 5 0;
#X connect 10 0 13 0;
#X connect 11 0 14 0;
#X connect 13 0 9 0;
#X connect 14 0 9 0;
#X restore -3 72 pd Myo_xyz_tgl;
#X connect 1 0 13 0;
#X connect 1 0 9 0;
#X connect 2 0 3 0;
#X connect 4 0 12 0;
#X connect 7 0 10 1;
#X connect 7 0 5 0;
#X connect 8 0 7 0;
#X connect 9 0 11 0;
#X connect 9 1 10 0;
#X connect 10 0 4 1;
#X connect 11 0 4 1;
#X connect 13 0 4 0;
#X connect 13 0 2 0;
#X restore -79 150 pd Myo_OSC;
#X obj 32 240 s \$0-m1_tgl;
#N canvas 312 22 517 635 test_signals 0;
#X obj 269 599 outlet tgl;
#X obj 269 62 select 0;
#X msg 269 92 0;
#X msg 322 92 1;
#X text 62 172 BPM;
#X text 233 172 fps;
#X msg 33 172 128;
#X obj 82 375 metro 50;
#X msg 82 335 1;
#X msg 42 335 0;
#X obj 33 275 s \$0-ts;
#X text 160 296 T (ms);
#X obj 135 275 expr 1000/$f1;
#X text 32 296 T (samples);
#X obj 33 215 expr 60*$f2/$f1;
#X obj 33 245 floorceil;
#X obj -14 405 cyclone/gate 4;
#X obj 46 595 outlet acc_xyz;
#N canvas 299 160 347 321 plain 0;
#X obj 25 274 outlet;
#X obj 45 14 inlet;
#X obj 155 14 inlet;
#X msg 45 124 0.1 0.3 0.7;
#X obj 85 274 outlet;
#X obj 145 274 outlet;
#X obj 45 234 unpack f f f;
#X obj 45 204 list-add;
#X obj -75 14 inlet;
#X obj -75 54 select 1 2;
#X msg -42 94 8;
#N canvas 0 22 431 581 impulse 0;
#X msg 23 503 \$1 \$1 \$1;
#X obj 173 303 mod;
#X obj 173 373 abs;
#X obj 173 343 -;
#X obj 23 243 cup;
#X obj 23 273 select;
#X msg 23 303 0;
#X obj 308 223 spigot;
#X obj 266 453 /;
#X obj 98 114 t b a;
#X msg 347 193 1;
#X obj 98 84 / -4;
#X obj 126 214 +;
#X obj 237 303 / 2;
#X obj 93 414 +;
#X obj 98 14 inlet length;
#X obj 308 14 inlet bangs;
#X obj 98 54 trigger any any any any any;
#X obj 23 174 trigger a a a;
#X obj 23 543 outlet;
#X connect 0 0 19 0;
#X connect 1 0 3 0;
#X connect 2 0 14 0;
#X connect 3 0 2 0;
#X connect 4 0 5 0;
#X connect 5 0 6 0;
#X connect 5 1 1 0;
#X connect 6 0 0 0;
#X connect 6 0 7 1;
#X connect 7 0 4 0;
#X connect 8 0 0 0;
#X connect 9 0 10 0;
#X connect 9 1 18 0;
#X connect 10 0 7 1;
#X connect 11 0 9 0;
#X connect 12 0 5 1;
#X connect 13 0 3 1;
#X connect 14 0 8 0;
#X connect 15 0 17 0;
#X connect 16 0 7 0;
#X connect 17 0 11 0;
#X connect 17 1 12 1;
#X connect 17 2 1 1;
#X connect 17 3 13 0;
#X connect 17 4 8 1;
#X connect 18 0 4 0;
#X connect 18 1 12 0;
#X connect 18 2 14 1;
#X restore -42 124 pd impulse;
#X text -92 94 length;
#X msg 155 124 0.8 0.5 0.2;
#X connect 1 0 3 0;
#X connect 1 0 11 1;
#X connect 2 0 13 0;
#X connect 2 0 11 1;
#X connect 3 0 7 0;
#X connect 6 0 0 0;
#X connect 6 1 4 0;
#X connect 6 2 5 0;
#X connect 7 0 6 0;
#X connect 8 0 9 0;
#X connect 9 0 10 0;
#X connect 9 1 10 0;
#X connect 10 0 11 0;
#X connect 11 0 7 1;
#X connect 13 0 7 0;
#X restore -40 455 pd plain;
#N canvas 274 232 389 394 noise 0;
#X obj 17 20 inlet;
#X obj 104 325 outlet;
#X obj 137 20 inlet;
#X obj 257 20 inlet;
#X obj 104 285 pack f f f;
#X obj 49 110 + 1;
#X obj 49 140 / 1000;
#X obj 17 50 t a b;
#X obj 17 170 +;
#X obj 169 110 + 1;
#X obj 169 140 / 1000;
#X obj 137 50 t a b;
#X obj 137 170 +;
#X obj 289 110 + 1;
#X obj 289 140 / 1000;
#X obj 257 50 t a b;
#X obj 257 170 +;
#X obj 169 80 random 29;
#X obj 289 80 random 29;
#X obj 49 80 random 99;
#X obj 17 210 average 2;
#X obj 137 210 average 2;
#X obj 257 210 average 2;
#X connect 0 0 7 0;
#X connect 2 0 11 0;
#X connect 3 0 15 0;
#X connect 4 0 1 0;
#X connect 5 0 6 0;
#X connect 6 0 8 1;
#X connect 7 0 8 0;
#X connect 7 1 19 0;
#X connect 8 0 20 0;
#X connect 9 0 10 0;
#X connect 10 0 12 1;
#X connect 11 0 12 0;
#X connect 11 1 17 0;
#X connect 12 0 21 0;
#X connect 13 0 14 0;
#X connect 14 0 16 1;
#X connect 15 0 16 0;
#X connect 15 1 18 0;
#X connect 16 0 22 0;
#X connect 17 0 9 0;
#X connect 18 0 13 0;
#X connect 19 0 5 0;
#X connect 20 0 4 0;
#X connect 21 0 4 1;
#X connect 22 0 4 2;
#X restore 46 565 pd noise;
#X obj -67 12 inlet;
#X text -47 52 0 = stop;
#X obj -67 275 select 0;
#X text -47 72 1 = plain 1;
#X text -47 92 2 = plain 2;
#N canvas 675 44 591 495 sine 0;
#X obj 17 128 cup;
#X msg 231 98 0;
#X obj 17 18 inlet;
#X obj 76 438 outlet;
#X obj 103 218 sin;
#X obj 147 128 r \$0-ts;
#X obj 103 248 + 1;
#X obj 103 278 / 2;
#X obj 103 188 moses 6.28;
#X obj 17 158 expr $f1*6.28/($f2);
#X obj 103 308 t a a a;
#X obj 126 438 outlet;
#X obj 176 438 outlet;
#X obj 303 308 unpack f f f;
#X obj 76 398 *;
#X obj 126 398 *;
#X obj 176 398 *;
#X msg 303 248 1 0.3 0.2;
#X msg 383 248 0.4 0.2 0.9;
#X obj 383 18 inlet;
#X obj 303 98 once;
#X obj 383 98 once;
#X connect 0 0 9 0;
#X connect 1 0 0 0;
#X connect 2 0 0 0;
#X connect 2 0 20 0;
#X connect 4 0 6 0;
#X connect 5 0 9 1;
#X connect 6 0 7 0;
#X connect 7 0 10 0;
#X connect 8 0 4 0;
#X connect 8 1 1 0;
#X connect 9 0 8 0;
#X connect 10 0 14 0;
#X connect 10 1 15 0;
#X connect 10 2 16 0;
#X connect 13 0 14 1;
#X connect 13 1 15 1;
#X connect 13 2 16 1;
#X connect 14 0 3 0;
#X connect 15 0 11 0;
#X connect 16 0 12 0;
#X connect 17 0 13 0;
#X connect 18 0 13 0;
#X connect 19 0 21 0;
#X connect 19 0 0 0;
#X connect 20 0 17 0;
#X connect 20 0 21 1;
#X connect 21 0 18 0;
#X connect 21 0 20 1;
#X restore 49 455 pd sine;
#X floatatom 195 172 5 0 0 0 - - -;
#X obj 163 92 r \$0-fps;
#X obj 163 122 t b a;
#X text -47 112 3 = sine 1;
#X text -47 132 4 = sine 2;
#X connect 1 0 2 0;
#X connect 1 1 3 0;
#X connect 2 0 0 0;
#X connect 3 0 0 0;
#X connect 6 0 14 0;
#X connect 7 0 16 1;
#X connect 8 0 7 0;
#X connect 9 0 7 0;
#X connect 12 0 7 1;
#X connect 14 0 15 0;
#X connect 15 0 10 0;
#X connect 16 0 18 1;
#X connect 16 1 18 2;
#X connect 16 2 25 0;
#X connect 16 3 25 1;
#X connect 18 0 19 0;
#X connect 18 1 19 1;
#X connect 18 2 19 2;
#X connect 19 0 17 0;
#X connect 20 0 1 0;
#X connect 20 0 22 0;
#X connect 22 0 9 0;
#X connect 22 1 8 0;
#X connect 22 1 16 0;
#X connect 22 1 18 0;
#X connect 25 0 19 0;
#X connect 25 1 19 1;
#X connect 25 2 19 2;
#X connect 26 0 12 0;
#X connect 26 0 14 1;
#X connect 27 0 28 0;
#X connect 28 0 6 0;
#X connect 28 1 26 0;
#X restore 20 150 pd test_signals;
#X obj 212 122 bng 15 250 50 0 empty empty empty 17 7 0 10 -262144
-1 -1;
#X text 229 125 reset;
#X obj 20 122 hradio 15 1 0 5 empty empty empty 0 -8 0 10 -262144 -1
-1 0;
#X obj 212 240 s \$0-M_reset;
#X obj 20 11 r \$0-size/end;
#X obj 20 41 route bang;
#X msg 20 67 0;
#X obj 146 240 s \$0-fps;
#X text 229 112 Master;
#N canvas 0 23 156 215 key 0;
#X obj 19 20 key;
#X obj 19 50 spigot;
#X obj 58 20 inlet;
#X obj 72 140 - 48;
#X obj 19 80 moses 48;
#X obj 72 110 moses 68;
#X obj 72 170 outlet;
#X connect 0 0 1 0;
#X connect 1 0 4 0;
#X connect 2 0 1 1;
#X connect 3 0 6 0;
#X connect 4 1 5 0;
#X connect 5 0 3 0;
#X restore 80 91 pd key;
#X obj 80 71 tgl 15 0 empty empty empty 17 7 0 10 -262144 -1 -1 0 1
;
#X msg 146 150 20;
#X obj 212 10 loadbang;
#X obj -79 240 s \$0-raw_xyz;
#X connect 2 0 3 0;
#X connect 3 0 19 0;
#X connect 3 1 4 0;
#X connect 5 0 19 0;
#X connect 5 1 4 0;
#X connect 6 0 9 0;
#X connect 6 0 17 0;
#X connect 8 0 5 0;
#X connect 10 0 11 0;
#X connect 11 0 12 0;
#X connect 12 0 8 0;
#X connect 15 0 8 0;
#X connect 16 0 15 0;
#X connect 17 0 13 0;
#X connect 18 0 6 0;
#X restore 46 63 pd control;
#N canvas 0 22 964 662 mapping 1;
#X obj -404 9 novelty_3D;
#X obj -403 199 plot_xyz;
#X obj -208 179 bng 15 250 50 0 empty \$0-M_reset clear -32 7 0 10
-262144 -1 -1;
#X obj -403 346 miniplot;
#N canvas 258 204 379 106 novelty_3D_sends__________ 0;
#X obj -40 16 inlet;
#X obj 30 16 inlet;
#X obj 110 16 inlet;
#X obj 30 46 s \$0-bound;
#X obj -40 46 s \$0-nov;
#X obj 200 16 inlet;
#X obj 200 46 s \$0-nov_params;
#X obj 110 46 s \$0-rs_xyz;
#X connect 0 0 4 0;
#X connect 1 0 3 0;
#X connect 2 0 7 0;
#X connect 5 0 6 0;
#X restore -404 129 pd novelty_3D_sends__________;
#X obj -403 316 r \$0-nov;
#X obj -34 94 s \$0-endseg;
#X obj -130 94 s \$0-segment;
#X obj -130 -91 snapshot_xyz;
#N canvas 268 169 491 246 instructions 0;
#X text 26 9 INSTRUCTIONS:;
#X text 26 59 2) Open a Wekinator DTW project with at least 10 outputs(*).
;
#X text 26 39 1) With Pure Data closed \, Start Myo Connect and DaemonMYO.
;
#X text 26 79 3) Start Pure Data \, open this patch.;
#X text 26 99 4) Open subpatch "control" and turn Myo_OSC.;
#X text 26 139 6) Start wekinating.;
#X text 26 119 5) Open subpatch "mapping" and "connect" wekitdw_xyz.
;
#X text 26 169 (*) = check for ports in subpatch "information" inside
wekidtw_xyz;
#X restore -404 -212 pd instructions;
#X obj -210 326 bng 15 250 50 0 empty \$0-M_reset clear -32 7 0 10
-262144 -1 -1;
#X obj -204 -51 tgl 15 0 empty empty empty 17 7 0 10 -262144 -1 -1
0 1;
#X text -247 -59 auto-;
#X text -246 -45 reset;
#N canvas 516 22 445 297 novelty_3D_switches_______ 0;
#X obj 222 86 select 1;
#X obj 222 56 r \$0-m1_tgl;
#X obj 272 256 outlet reset;
#X obj 130 256 outlet params.;
#X obj 20 256 outlet xyz;
#X obj 170 126 r \$0-M_reset;
#X obj 272 126 spigot;
#X obj 311 16 inlet auto reset;
#X obj 130 16 inlet params;
#X obj 20 126 r \$0-raw_xyz;
#X connect 0 0 6 0;
#X connect 1 0 0 0;
#X connect 5 0 2 0;
#X connect 6 0 2 0;
#X connect 7 0 6 1;
#X connect 8 0 3 0;
#X connect 9 0 4 0;
#X restore -404 -21 pd novelty_3D_switches_______;
#X floatatom 63 95 5 0 0 0 - - -;
#X text 101 96 size (frames);
#N canvas 148 23 786 827 get_segment______________ 0;
#X obj 156 16 r \$0-nov_params;
#X obj 156 46 unpack f f;
#X text 136 126 N_filt = N_nov * smooth;
#X obj 16 756 outlet xyz;
#X obj 16 316 listlag 0 3;
#X text 130 106 lag = ((N_nov + N_filt) / 2) + 1;
#X msg 442 666 0;
#X msg 398 666 1;
#X obj 486 666 s \$0-startseg;
#X obj 398 636 trigger b b b;
#X obj 106 86 expr (( $f1 + $f1 * $f2 ) / 2) + 1;
#X obj 106 756 outlet lag;
#X obj 626 326 route bang;
#X msg 626 395 clear;
#X obj 116 316 s \$0-lagf;
#X obj 106 -24 inlet lag;
#X text 177 -23 frames or bang to trigger;
#X obj 106 256 i;
#X obj 106 286 + 0;
#X obj 106 156 floorceil 1;
#X obj 366 -24 inlet finetune;
#X obj 489 156 s \$0-lag_fine_rcv;
#X obj 489 46 loadbang;
#X msg 489 86 -12;
#X obj 398 576 spigot;
#X msg 457 576 0;
#X msg 457 546 1;
#X obj 489 -24 inlet msl;
#X obj 263 466 cup;
#X obj 263 496 select;
#X obj 529 126 s \$0-msl_rcv;
#X msg 529 86 20;
#X msg 263 436 1;
#X obj 217 436 bang;
#X obj 366 156 t b a;
#X obj 626 -24 inlet commands;
#X text 653 3 1 = record;
#X text 653 17 0 = spit;
#X text 632 31 bang = clear;
#X obj 626 756 outlet rec/spit;
#X obj 514 436 select 1;
#X obj 216 576 spigot;
#X msg 255 546 0;
#X msg 300 546 1;
#X obj 216 636 cup;
#X obj 216 666 select;
#X obj 255 636 r \$0-lagf;
#X text 494 219 1 = train;
#X text 494 205 0 = stop;
#X text 494 233 2 = perform;
#X obj 246 386 s \$0-trainend;
#X obj 366 196 r \$0-bound;
#X obj 366 386 t b b;
#X obj 246 296 r \$0-endbound;
#X obj 246 326 t b b;
#X obj 216 696 s \$0-endbound;
#X obj 246 356 del;
#X obj 489 6 s \$0-msl;
#X obj 302 436 r \$0-msl;
#X text 559 -24 minimum;
#X text 559 -10 segment;
#X text 559 18 (frames);
#X text 559 4 length;
#X obj 400 327 change;
#X obj 400 256 trigger any bang any bang;
#X obj 400 226 r \$0-stp_snd;
#X obj 16 16 r \$0-rs_xyz;
#X connect 0 0 1 0;
#X connect 1 0 10 0;
#X connect 1 1 10 1;
#X connect 4 0 3 0;
#X connect 4 0 33 0;
#X connect 6 0 39 0;
#X connect 7 0 39 0;
#X connect 9 0 7 0;
#X connect 9 1 6 0;
#X connect 9 2 8 0;
#X connect 10 0 19 0;
#X connect 12 0 13 0;
#X connect 12 1 39 0;
#X connect 13 0 39 0;
#X connect 15 0 10 0;
#X connect 17 0 18 0;
#X connect 18 0 4 1;
#X connect 18 0 11 0;
#X connect 18 0 14 0;
#X connect 19 0 17 0;
#X connect 20 0 34 0;
#X connect 22 0 23 0;
#X connect 22 0 31 0;
#X connect 23 0 21 0;
#X connect 24 0 9 0;
#X connect 24 0 25 0;
#X connect 25 0 24 1;
#X connect 26 0 24 1;
#X connect 27 0 57 0;
#X connect 28 0 29 0;
#X connect 29 0 26 0;
#X connect 31 0 30 0;
#X connect 32 0 28 0;
#X connect 33 0 28 0;
#X connect 33 0 41 0;
#X connect 34 0 17 0;
#X connect 34 1 18 1;
#X connect 35 0 12 0;
#X connect 40 0 42 0;
#X connect 40 1 43 0;
#X connect 41 0 44 0;
#X connect 42 0 41 1;
#X connect 43 0 41 1;
#X connect 43 0 44 0;
#X connect 44 0 45 0;
#X connect 45 0 55 0;
#X connect 46 0 45 1;
#X connect 51 0 52 0;
#X connect 52 0 32 0;
#X connect 52 1 24 0;
#X connect 53 0 54 0;
#X connect 54 0 56 0;
#X connect 54 1 52 0;
#X connect 56 0 50 0;
#X connect 58 0 29 1;
#X connect 63 0 52 0;
#X connect 64 0 63 0;
#X connect 64 1 26 0;
#X connect 64 2 40 0;
#X connect 64 3 13 0;
#X connect 65 0 64 0;
#X connect 66 0 4 0;
#X restore -130 -151 pd get_segment______________;
#X floatatom -34 -121 5 0 0 0 - - -;
#X text -64 -129 lag;
#X obj 63 -171 bng 15 250 50 0 empty \$0-M_reset clear 20 7 0 10 -262144
-1 -1;
#X text -98 -114 (frames);
#X floatatom -66 -204 6 0 0 0 - #0-lag_fine_rcv -;
#X text -164 -205 lag fine-tune;
#X floatatom -2 -204 6 0 0 0 - #0-msl_rcv -;
#X text 45 -205 minimum segment length;
#N canvas 365 266 235 264 notemaker 0;
#X obj 18 15 inlet;
#X obj 125 215 outlet;
#X obj 18 45 change 0;
#X obj 155 135 f;
#X msg 86 165 \$1 100;
#X msg 155 165 \$1 0;
#X obj 18 75 trigger any any bang;
#X connect 0 0 2 0;
#X connect 2 0 6 0;
#X connect 3 0 5 0;
#X connect 4 0 1 0;
#X connect 5 0 1 0;
#X connect 6 0 3 1;
#X connect 6 1 4 0;
#X connect 6 2 3 0;
#X restore 231 326 pd notemaker;
#X obj 231 356 s \$0-RF_note_v_1;
#X obj -327 -151 hsl 128 15 2 100 0 0 empty \$0-wsize_sl_rcv window_size
-2 -8 0 12 -262144 -1 -1 12700 1;
#X obj -327 -101 hsl 128 15 0.01 1 0 0 empty \$0-smoof_sl_rcv smooth_factor
-2 -8 0 12 -262144 -1 -1 3720 1;
#N canvas 19 23 441 505 segparam 0;
#X obj 6 4 inlet window_size;
#X obj 180 4 inlet smooth_factor;
#X obj 180 464 outlet params;
#X obj 230 34 loadbang;
#X obj 230 94 delay 500;
#X obj 240 64 r \$0-M_reset;
#X msg 230 124 100 0.3 0.1;
#X obj 180 244 pack f f f;
#X obj 180 154 t b a;
#X obj 230 154 unpack f f f;
#X obj 300 334 s \$0-wsize_sl_rcv;
#X obj 300 244 s \$0-smoof_sl_rcv;
#X msg 290 214 set \$1;
#X msg 290 304 set \$1;
#X obj 9 394 - 1;
#X msg 140 274 \$1;
#X obj 9 294 f;
#X obj 122 364 f;
#X obj 19 324 r \$0-wsize_+_snd;
#X obj 9 244 r \$0-wsize_-_snd;
#X obj 6 34 i;
#X obj 52 34 r \$0-new_wsize;
#X obj 122 394 + 1;
#X obj 300 274 r \$0-new_wsize;
#X obj 9 434 s \$0-new_wsize;
#X connect 0 0 20 0;
#X connect 1 0 8 0;
#X connect 3 0 4 0;
#X connect 4 0 6 0;
#X connect 5 0 4 0;
#X connect 6 0 9 0;
#X connect 7 0 2 0;
#X connect 7 0 15 0;
#X connect 8 0 7 0;
#X connect 8 1 7 1;
#X connect 9 0 7 0;
#X connect 9 0 13 0;
#X connect 9 1 7 1;
#X connect 9 1 12 0;
#X connect 9 2 7 2;
#X connect 12 0 11 0;
#X connect 13 0 10 0;
#X connect 14 0 24 0;
#X connect 15 0 17 1;
#X connect 15 0 16 1;
#X connect 16 0 14 0;
#X connect 17 0 22 0;
#X connect 18 0 17 0;
#X connect 19 0 16 0;
#X connect 20 0 7 0;
#X connect 21 0 7 0;
#X connect 22 0 24 0;
#X connect 23 0 13 0;
#X restore -404 -51 pd segparam;
#X obj 208 -114 vradio 40 1 0 2 empty empty empty 0 -8 0 10 -262130
-1 -1 0;
#X text 252 -102 stop;
#X text 252 -63 perform;
#N canvas 0 22 185 184 stp_snd 0;
#X obj 17 16 inlet;
#X obj 17 56 select 1;
#X msg 17 86 2;
#X obj 70 136 s \$0-stp_snd;
#X connect 0 0 1 0;
#X connect 1 0 2 0;
#X connect 1 1 3 0;
#X connect 2 0 3 0;
#X restore 208 -12 pd stp_snd;
#X obj 204 216 cup;
#X obj 204 246 select 1 2 3;
#X obj 204 26 r \$0-startseg;
#X msg 271 281 82;
#X msg 231 281 77;
#X msg 191 281 72;
#X obj 274 186 del;
#X msg 234 186 1;
#X obj 204 56 bng 95 500 50 0 empty empty CHANGE 8 48 0 22 -66577 -204786
-66577;
#X obj -346 -151 bng 15 250 50 0 \$0-wsize_-_snd empty < 3 6 0 14 -262144
-162280 -1;
#X obj -196 -151 bng 15 250 50 0 \$0-wsize_+_snd empty > 4 6 0 14 -262144
-162280 -1;
#X obj -403 169 r \$0-rs_xyz;
#X connect 0 0 4 0;
#X connect 0 1 4 1;
#X connect 0 2 4 2;
#X connect 0 3 4 3;
#X connect 2 0 1 1;
#X connect 5 0 3 0;
#X connect 8 0 7 0;
#X connect 8 1 6 0;
#X connect 8 2 15 0;
#X connect 10 0 3 1;
#X connect 11 0 14 1;
#X connect 14 0 0 0;
#X connect 14 1 0 1;
#X connect 14 2 0 2;
#X connect 17 0 8 0;
#X connect 17 1 18 0;
#X connect 17 2 8 2;
#X connect 20 0 17 3;
#X connect 22 0 17 1;
#X connect 24 0 17 2;
#X connect 26 0 27 0;
#X connect 28 0 30 0;
#X connect 29 0 30 1;
#X connect 30 0 14 0;
#X connect 31 0 34 0;
#X connect 35 0 36 0;
#X connect 36 0 40 0;
#X connect 36 1 39 0;
#X connect 36 2 38 0;
#X connect 36 2 41 0;
#X connect 37 0 43 0;
#X connect 38 0 26 0;
#X connect 39 0 26 0;
#X connect 40 0 26 0;
#X connect 41 0 42 0;
#X connect 42 0 35 0;
#X connect 43 0 35 0;
#X connect 46 0 1 0;
#X restore 46 95 pd mapping;
#X text 9 157 Juan Ignacio Mendoza;
#X text 69 177 2019;
#N canvas 933 22 394 663 synthesis 1;
#X obj -35 -64 audio_in;
#X obj 41 -64 fire;
#X obj -46 532 dac~;
#X obj -10 384 level;
#X msg 49 399 0.8;
#X obj -35 502 *~ 0;
#X obj -10 437 vsl 15 60 0 1 0 0 empty empty empty 0 -9 0 10 -262144
-1 -1 0 1;
#X obj -35 258 MIDI_resonant_filter;
#X floatatom 97 384 5 0 0 0 - - -;
#X floatatom 230 384 5 0 0 0 - - -;
#N canvas 194 274 854 173 RF_switches________________________ 0;
#N canvas 532 22 194 215 delay_at_1 0;
#X obj -11 13 inlet;
#X obj -11 43 select 1;
#X msg -81 131 1;
#X obj 42 163 outlet;
#X obj -81 73 delay 100;
#X connect 0 0 1 0;
#X connect 1 0 4 0;
#X connect 1 1 3 0;
#X connect 2 0 3 0;
#X connect 4 0 2 0;
#X restore 724 89 pd delay_at_1;
#X obj 450 -11 loadbang;
#X obj 110 120 outlet n v;
#X obj 217 120 outlet tst;
#X obj 310 119 outlet tf;
#X obj 512 119 outlet level;
#X obj 637 119 outlet q;
#X obj 724 119 outlet bypass/on;
#X msg 310 69 1;
#X obj 396 118 outlet c s t h;
#X msg 512 68 1;
#X msg 597 68 0.6;
#X msg 396 68 0.3 0.2 3000 1;
#X obj 16 120 outlet~;
#X obj 110 -10 inlet RF_note_v_1;
#X obj 724 -11 inlet RF_onoff;
#X obj 16 -10 inlet~ RF_in;
#X msg 217 70 0;
#X connect 0 0 7 0;
#X connect 1 0 12 0;
#X connect 1 0 10 0;
#X connect 1 0 11 0;
#X connect 1 0 17 0;
#X connect 1 0 8 0;
#X connect 8 0 4 0;
#X connect 10 0 5 0;
#X connect 11 0 6 0;
#X connect 12 0 9 0;
#X connect 14 0 2 0;
#X connect 15 0 0 0;
#X connect 16 0 13 0;
#X connect 17 0 3 0;
#X restore -35 229 pd RF_switches________________________;
#X obj -35 199 catch~ \$0-RF_in;
#X obj 96 199 r \$0-RF_note_v_1;
#X obj 228 199 r \$0-RF_onoff;
#X text 98 403 note;
#X text 221 403 velocity;
#X obj 209 -64 rain;
#X obj 209 -1 throw~ \$0-RF_in;
#X connect 3 0 6 0;
#X connect 3 1 4 0;
#X connect 4 0 3 1;
#X connect 5 0 2 0;
#X connect 5 0 2 1;
#X connect 6 0 5 1;
#X connect 7 0 5 0;
#X connect 7 1 8 0;
#X connect 7 2 9 0;
#X connect 10 0 7 0;
#X connect 10 1 7 1;
#X connect 10 2 7 2;
#X connect 10 3 7 3;
#X connect 10 4 7 4;
#X connect 10 5 7 5;
#X connect 10 6 7 6;
#X connect 10 7 7 7;
#X connect 11 0 10 0;
#X connect 12 0 10 1;
#X connect 13 0 10 2;
#X connect 16 0 17 0;
#X restore 39 128 pd synthesis;
#X text 54 12 GESTURAL;
#X text 28 32 RESONANT FILTER;
