#N canvas 393 23 962 671 12;
#X obj 1 18 cnv 15 510 150 empty empty value 100 13 2 17 -249659 -83269
0;
#X obj 72 43 hsl 100 12 0 1 0 0 \$0-pitch \$0-pitch-r pitch -45 7 0
13 -13330 -262144 -4160 9900 1;
#X obj 180 43 hsl 100 12 0 1 0 0 \$0-pitch-rnd \$0-pitch-rnd-r random/jitter
-4 -12 2 17 -13330 -262144 -86853 0 1;
#X obj 72 58 hsl 100 12 0 1 0 0 \$0-duration \$0-duration-r duration
-70 7 0 13 -13330 -262144 -4160 900 1;
#X obj 180 58 hsl 100 12 0 1 0 0 \$0-duration-rnd \$0-duration-rnd-r
empty -2 -6 0 10 -13330 -262144 -1 0 1;
#X obj 72 73 hsl 100 12 0 1 0 0 \$0-delay \$0-delay-r delay -45 7 0
13 -13330 -262144 -4160 0 1;
#X obj 180 73 hsl 100 12 0 1 0 0 \$0-delay-rnd \$0-delay-rnd-r empty
-2 -6 0 10 -13330 -262144 -1 0 1;
#X obj 72 88 hsl 100 12 0 1 0 0 \$0-metro \$0-metro-r metro -45 7 0
13 -13330 -262144 -4160 2600 1;
#X obj 180 88 hsl 100 12 0 1 0 0 \$0-metro-rnd \$0-metro-rnd-r empty
-2 -6 0 10 -13330 -262144 -1 0 1;
#X obj 400 43 hsl 100 12 0 1 0 0 \$0-envelope \$0-envelope-r empty
-2 -6 0 10 -13330 -262144 -1 0 1;
#X text 429 68 envelope;
#X obj 400 58 hsl 100 12 0 1 0 0 \$0-envelope-exp \$0-envelope-exp-r
empty -2 -6 0 10 -13330 -262144 -1 0 1;
#X obj 346 104 hradio 15 1 0 10 \$0-load \$0-load-r preset -45 7 0
12 -175484 -262144 -1 0;
#X obj 406 83 bng 15 250 50 0 \$0-store rwiuytiuwytriu store 18 8 0
10 -262144 -1 -1;
#X obj 457 83 bng 15 250 50 0 \$0-save troiuyiurtyiutwr save 18 8 0
10 -262144 -1 -1;
#X obj 368 18 cnv 15 140 17 empty empty grannie_basher 0 8 0 16 -258108
-262144 0;
#X text -3 -78 delay line granulizer;
#X text 6 -62 hard.off@gmail.com;
#X obj 72 103 hsl 100 12 0 1 0 0 \$0-vcf \$0-vcf-r filter -52 7 0 13
-13330 -262144 -4160 9900 1;
#X obj 72 133 hsl 100 12 0 1 0 0 \$0-feedback \$0-feedback-r feedback
-68 7 0 13 -13330 -262144 -4160 1700 1;
#X obj 288 139 hsl 100 12 0 1 0 0 \$0-feedback-time \$0-feedback-time-r
empty -2 -6 0 10 -13330 -262144 -1 9900 1;
#X obj 180 133 hsl 100 12 0 1 0 0 \$0-feedback-rnd \$0-feedback-rnd-r
empty -2 -6 0 10 -13330 -262144 -1 1100 1;
#X text 285 118 feedback time;
#X obj 180 103 hsl 100 12 0 1 0 0 \$0-vcf-rnd \$0-vcf-rnd-r empty -2
-6 0 10 -13330 -262144 -1 0 1;
#X obj 396 139 hsl 100 12 0 1 0 0 \$0-feedback-return \$0-feedback-return-r
empty -2 -6 0 10 -13330 -262144 -1 9900 1;
#X text 393 118 feedback return;
#X obj 72 118 hsl 100 12 0 1 0 0 \$0-autopan \$0-autopan-r autopan
-60 7 0 13 -13330 -262144 -4160 9900 1;
#X obj 180 118 hsl 100 12 0 1 0 0 \$0-autopan-rnd \$0-autopan-rnd-r
empty -2 -6 0 10 -13330 -262144 -1 5700 1;
#X obj 72 148 hsl 100 12 0 1 0 0 \$0-feedback-lfo \$0-feedback-lfo-r
fb-lfo -52 7 0 13 -13330 -262144 -4160 4500 1;
#X obj 180 148 hsl 100 12 0 1 0 0 \$0-feedback-lfo-rnd \$0-feedback-lfo-rnd-r
empty -2 -6 0 10 -13330 -262144 -1 2400 1;
#X obj 288 154 hsl 100 12 0 1 0 0 \$0-feedback-lfo-depth \$0-feedback-lfo-depth-r
depth 30 7 0 12 -13330 -262144 -262130 9900 1;
#N canvas 0 22 450 300 (subpatch) 0;
#X array \$0-env 100 float 0;
#X coords 0 1 99 0 100 40 1;
#X restore 293 43 graph;
#X obj 12 187 inlet~;
#X obj 23 487 outlet~;
#X obj 76 487 outlet~;
#X obj 74 234 delwrite~ \$0-L-delayline 10000;
#X obj 197 191 inlet~;
#X obj 263 234 delwrite~ \$0-R-delayline 10000;
#N canvas 14 56 1263 697 code 0;
#N canvas 0 22 454 304 untils 0;
#X obj 261 160 f;
#X obj 288 162 + 1;
#X obj 261 138 until;
#X msg 299 132 0;
#X obj 261 107 t f b;
#X obj 261 78 inlet;
#X obj 261 190 outlet;
#X connect 0 0 1 0;
#X connect 0 0 6 0;
#X connect 1 0 0 1;
#X connect 2 0 0 0;
#X connect 3 0 0 1;
#X connect 4 0 2 0;
#X connect 4 1 3 0;
#X connect 5 0 4 0;
#X restore 29 137 pd untils;
#X msg 31 112 100;
#X obj 57 195 moses 50;
#X obj 60 222 / 50;
#X obj 29 166 t f f;
#X obj 60 445 pack 0 0;
#X obj 102 217 - 100;
#X obj 103 238 abs;
#X obj 103 259 / 50;
#X obj 139 217 - 100;
#X obj 140 238 abs;
#X obj 63 108 t b f;
#X obj 104 291 expr (0.5 * $f1) + 0.5;
#X obj 103 335 cos;
#X obj 103 316 * 6.28318;
#X obj 103 356 * 0.5;
#X obj 103 376 + 0.5;
#X obj 59 468 s \$0-env;
#X obj 64 42 r \$0-envelope;
#X obj 64 64 * 90;
#X obj 61 86 + 5;
#X msg 387 458 \; \$1-go bang;
#X obj 386 417 f;
#X obj 437 421 + 1;
#X obj 471 426 mod 16;
#X obj 512 324 * 10000;
#X obj 410 207 r \$0-metro;
#X obj 515 261 r \$0-metro-rnd;
#X obj 411 266 * 1000;
#X obj 411 244 clip 0.01 1;
#X obj 514 279 pow 3;
#X obj 410 225 pow 3;
#X obj 377 314 delay;
#X obj 324 261 loadbang;
#X msg 374 291 stop;
#X msg 301 217 bang;
#X msg 337 218 stop;
#X obj 376 363 t b b b;
#X obj 376 343 metro 1000;
#X obj 467 350 random 0;
#X obj 157 371 t b f;
#X obj 102 404 pow 1;
#X obj 183 393 + 1;
#X obj 157 348 r \$0-envelope-exp;
#X obj 183 414 pow 4;
#X obj 631 111 r \$0-load;
#N canvas 0 22 454 304 untils 0;
#X obj 261 160 f;
#X obj 288 162 + 1;
#X obj 261 138 until;
#X msg 299 132 0;
#X obj 261 107 t f b;
#X obj 261 78 inlet;
#X obj 261 190 outlet;
#X connect 0 0 1 0;
#X connect 0 0 6 0;
#X connect 1 0 0 1;
#X connect 2 0 0 0;
#X connect 3 0 0 1;
#X connect 4 0 2 0;
#X connect 4 1 3 0;
#X connect 5 0 4 0;
#X restore 631 185 pd untils;
#X obj 631 134 t b f;
#X obj 670 251 tabread \$0-allpreset;
#X obj 631 210 t f f;
#X obj 632 276 pack 0 0;
#X obj 540 571 s \$0-pitch-r;
#X obj 541 593 s \$0-pitch-rnd-r;
#X obj 554 614 s \$0-duration-r;
#X obj 555 635 s \$0-duration-rnd-r;
#X obj 664 569 s \$0-delay-r;
#X obj 664 591 s \$0-delay-rnd-r;
#X obj 678 612 s \$0-metro-r;
#X obj 679 633 s \$0-metro-rnd-r;
#X obj 769 568 s \$0-envelope-r;
#X obj 770 591 s \$0-envelope-exp-r;
#X obj 658 230 +;
#N canvas 0 22 454 304 untils 0;
#X obj 261 160 f;
#X obj 288 162 + 1;
#X obj 261 138 until;
#X msg 299 132 0;
#X obj 261 107 t f b;
#X obj 261 78 inlet;
#X obj 261 190 outlet;
#X connect 0 0 1 0;
#X connect 0 0 6 0;
#X connect 1 0 0 1;
#X connect 2 0 0 0;
#X connect 3 0 0 1;
#X connect 4 0 2 0;
#X connect 4 1 3 0;
#X connect 5 0 4 0;
#X restore 804 156 pd untils;
#X obj 804 181 t f f;
#X obj 803 115 r \$0-store;
#X obj 850 205 tabread \$0-preset;
#X obj 805 229 pack 0 0;
#X obj 804 249 s \$0-storehouse;
#X text 791 9 LOAD/SavE PreseTS;
#X obj 409 391 delay;
#X obj 467 371 / 10;
#X obj 445 290 t b f;
#X obj 627 45 table \$0-preset 22;
#X obj 777 69 table \$0-storehouse 22;
#X msg 630 163 22;
#X obj 659 164 * 22;
#X msg 803 135 22;
#X obj 632 296 route 0 1 2 3 4 5 6 7 8 9 10 11 12 13 14 15 16 17 18
19 20 21;
#N canvas 0 22 808 670 get-sliders 0;
#X obj 28 119 r \$0-pitch;
#X msg 28 140 0 \$1;
#X obj 28 162 s \$0-preset;
#X obj 97 119 r \$0-pitch-rnd;
#X obj 102 161 s \$0-preset;
#X msg 102 139 1 \$1;
#X obj 29 226 s \$0-preset;
#X obj 121 227 s \$0-preset;
#X obj 29 183 r \$0-duration;
#X obj 116 185 r \$0-duration-rnd;
#X msg 28 203 2 \$1;
#X msg 121 205 3 \$1;
#X obj 28 291 s \$0-preset;
#X obj 102 290 s \$0-preset;
#X obj 29 355 s \$0-preset;
#X obj 121 356 s \$0-preset;
#X obj 28 248 r \$0-delay;
#X obj 96 248 r \$0-delay-rnd;
#X msg 27 269 4 \$1;
#X msg 101 267 5 \$1;
#X obj 29 312 r \$0-metro;
#X obj 116 314 r \$0-metro-rnd;
#X msg 27 331 6 \$1;
#X msg 122 334 7 \$1;
#X obj 27 421 s \$0-preset;
#X obj 119 422 s \$0-preset;
#X obj 27 378 r \$0-envelope;
#X msg 28 399 8 \$1;
#X obj 114 379 r \$0-envelope-exp;
#X msg 120 399 9 \$1;
#X obj 302 128 r \$0-vcf;
#X obj 305 154 r \$0-vcf-rnd;
#X obj 304 181 r \$0-autopan;
#X obj 306 210 r \$0-autopan-rnd;
#X obj 323 240 r \$0-feedback-lfo;
#X obj 332 264 r \$0-feedback-lfo-rnd;
#X obj 343 287 r \$0-feedback-lfo-depth;
#X obj 414 132 r \$0-feedback;
#X obj 422 155 r \$0-feedback-rnd;
#X obj 434 180 r \$0-feedback-time;
#X obj 445 205 r \$0-feedback-return;
#X msg 284 335 10 \$1;
#X msg 328 332 11 \$1;
#X msg 371 333 12 \$1;
#X msg 411 336 13 \$1;
#X msg 456 338 14 \$1;
#X msg 500 340 15 \$1;
#X msg 283 366 16 \$1;
#X msg 327 361 17 \$1;
#X msg 370 367 18 \$1;
#X msg 416 368 19 \$1;
#X msg 462 369 20 \$1;
#X msg 503 369 21 \$1;
#X obj 531 272 r \$0-mix;
#X obj 367 454 s \$0-preset;
#X connect 0 0 1 0;
#X connect 1 0 2 0;
#X connect 3 0 5 0;
#X connect 5 0 4 0;
#X connect 8 0 10 0;
#X connect 9 0 11 0;
#X connect 10 0 6 0;
#X connect 11 0 7 0;
#X connect 16 0 18 0;
#X connect 17 0 19 0;
#X connect 18 0 12 0;
#X connect 19 0 13 0;
#X connect 20 0 22 0;
#X connect 21 0 23 0;
#X connect 22 0 14 0;
#X connect 23 0 15 0;
#X connect 26 0 27 0;
#X connect 27 0 24 0;
#X connect 28 0 29 0;
#X connect 29 0 25 0;
#X connect 30 0 41 0;
#X connect 31 0 42 0;
#X connect 32 0 43 0;
#X connect 33 0 44 0;
#X connect 34 0 49 0;
#X connect 35 0 50 0;
#X connect 36 0 51 0;
#X connect 37 0 45 0;
#X connect 38 0 46 0;
#X connect 39 0 47 0;
#X connect 40 0 48 0;
#X connect 41 0 54 0;
#X connect 42 0 54 0;
#X connect 43 0 54 0;
#X connect 44 0 54 0;
#X connect 45 0 54 0;
#X connect 46 0 54 0;
#X connect 47 0 54 0;
#X connect 48 0 54 0;
#X connect 49 0 54 0;
#X connect 50 0 54 0;
#X connect 51 0 54 0;
#X connect 52 0 54 0;
#X connect 53 0 52 0;
#X restore 1020 329 pd get-sliders;
#X obj 636 454 s \$0-vcf-r;
#X obj 639 479 s \$0-vcf-rnd-r;
#X obj 638 506 s \$0-autopan-r;
#X obj 641 531 s \$0-autopan-rnd-r;
#X obj 748 457 s \$0-feedback-r;
#X obj 756 480 s \$0-feedback-rnd-r;
#X obj 768 505 s \$0-feedback-time-r;
#X obj 779 530 s \$0-feedback-return-r;
#X obj 902 458 s \$0-feedback-lfo-r;
#X obj 911 482 s \$0-feedback-lfo-rnd-r;
#X obj 922 505 s \$0-feedback-lfo-depth-r;
#X obj 1047 559 s \$0-mix-r;
#N canvas 0 22 454 304 untils 0;
#X obj 261 160 f;
#X obj 288 162 + 1;
#X obj 261 138 until;
#X msg 299 132 0;
#X obj 261 107 t f b;
#X obj 261 78 inlet;
#X obj 261 190 outlet;
#X connect 0 0 1 0;
#X connect 0 0 6 0;
#X connect 1 0 0 1;
#X connect 2 0 0 0;
#X connect 3 0 0 1;
#X connect 4 0 2 0;
#X connect 4 1 3 0;
#X connect 5 0 4 0;
#X restore 1064 111 pd untils;
#X obj 1064 136 t f f;
#X obj 1065 202 pack 0 0;
#X obj 1066 169 +;
#X obj 1106 177 tabread \$0-storehouse;
#X obj 1063 224 s \$0-allpreset;
#X obj 1027 9 r \$0-save;
#X obj 1020 304 s \$0-allpreset;
#X msg 1018 276 write grannie.txt;
#X obj 1028 64 t b b b f;
#X obj 1051 250 s \$0-load-r;
#X obj 1028 38 f;
#X obj 1057 37 r \$0-load;
#X msg 1063 90 22;
#X obj 1092 90 * 22;
#X obj 326 566 s \$0-allpreset;
#X msg 324 538 read grannie.txt;
#X obj 303 496 loadbang;
#X obj 301 516 t b b;
#X obj 309 615 s \$0-load-r;
#X obj 624 67 table \$0-allpreset 220;
#X connect 0 0 4 0;
#X connect 1 0 0 0;
#X connect 2 0 3 0;
#X connect 2 1 6 0;
#X connect 3 0 12 0;
#X connect 4 0 5 0;
#X connect 4 1 2 0;
#X connect 5 0 17 0;
#X connect 6 0 7 0;
#X connect 7 0 8 0;
#X connect 8 0 12 0;
#X connect 9 0 10 0;
#X connect 10 0 8 1;
#X connect 11 0 1 0;
#X connect 11 1 9 0;
#X connect 11 1 2 1;
#X connect 11 1 3 1;
#X connect 12 0 14 0;
#X connect 13 0 15 0;
#X connect 14 0 13 0;
#X connect 15 0 16 0;
#X connect 16 0 41 0;
#X connect 18 0 19 0;
#X connect 19 0 20 0;
#X connect 20 0 11 0;
#X connect 22 0 23 0;
#X connect 22 0 21 0;
#X connect 23 0 24 0;
#X connect 24 0 22 1;
#X connect 25 0 39 1;
#X connect 26 0 31 0;
#X connect 27 0 30 0;
#X connect 28 0 32 0;
#X connect 28 0 38 1;
#X connect 28 0 71 0;
#X connect 29 0 28 0;
#X connect 30 0 25 0;
#X connect 31 0 29 0;
#X connect 32 0 38 0;
#X connect 33 0 38 0;
#X connect 34 0 32 0;
#X connect 35 0 38 0;
#X connect 36 0 38 0;
#X connect 37 0 34 0;
#X connect 37 1 69 0;
#X connect 37 2 39 0;
#X connect 38 0 37 0;
#X connect 39 0 70 0;
#X connect 40 0 1 0;
#X connect 40 1 42 0;
#X connect 41 0 5 1;
#X connect 42 0 44 0;
#X connect 43 0 40 0;
#X connect 44 0 41 1;
#X connect 45 0 47 0;
#X connect 46 0 49 0;
#X connect 47 0 74 0;
#X connect 47 1 75 0;
#X connect 48 0 50 1;
#X connect 49 0 50 0;
#X connect 49 1 61 0;
#X connect 50 0 77 0;
#X connect 61 0 48 0;
#X connect 62 0 63 0;
#X connect 63 0 66 0;
#X connect 63 1 65 0;
#X connect 64 0 76 0;
#X connect 65 0 66 1;
#X connect 66 0 67 0;
#X connect 69 0 22 0;
#X connect 70 0 69 1;
#X connect 71 0 25 0;
#X connect 71 1 25 1;
#X connect 74 0 46 0;
#X connect 75 0 61 1;
#X connect 76 0 62 0;
#X connect 77 0 51 0;
#X connect 77 1 52 0;
#X connect 77 2 53 0;
#X connect 77 3 54 0;
#X connect 77 4 55 0;
#X connect 77 5 56 0;
#X connect 77 6 57 0;
#X connect 77 7 58 0;
#X connect 77 8 59 0;
#X connect 77 9 60 0;
#X connect 77 10 79 0;
#X connect 77 11 80 0;
#X connect 77 12 81 0;
#X connect 77 13 82 0;
#X connect 77 14 83 0;
#X connect 77 15 84 0;
#X connect 77 16 85 0;
#X connect 77 17 86 0;
#X connect 77 18 87 0;
#X connect 77 19 88 0;
#X connect 77 20 89 0;
#X connect 77 21 90 0;
#X connect 91 0 92 0;
#X connect 92 0 94 0;
#X connect 92 1 95 0;
#X connect 93 0 96 0;
#X connect 94 0 93 0;
#X connect 95 0 93 1;
#X connect 97 0 102 0;
#X connect 99 0 98 0;
#X connect 100 0 99 0;
#X connect 100 1 101 0;
#X connect 100 2 104 0;
#X connect 100 3 105 0;
#X connect 102 0 100 0;
#X connect 103 0 102 1;
#X connect 104 0 91 0;
#X connect 105 0 94 1;
#X connect 107 0 106 0;
#X connect 108 0 109 0;
#X connect 109 0 110 0;
#X connect 109 1 107 0;
#X restore 387 294 pd code;
#X obj 419 158 hsl 60 10 0 1 0 0 \$0-mix \$0-mix-r mix 17 6 0 12 -16662
-262144 -204800 2384 1;
#X obj 17 352 *~;
#X obj 44 352 *~;
#X obj 177 263 r \$0-mix;
#X obj 130 426 *~;
#X obj 226 426 *~;
#X obj 226 403 catch~ \$0-Right;
#X obj 130 403 catch~ \$0-Left;
#X obj 177 309 line~;
#X msg 177 286 \$1 20;
#X obj 192 340 *~ 2;
#X obj 192 363 min~ 1;
#X text 227 0 -- HACKED --;
#X obj 529 -117 cnv 15 352 640 empty empty empty 20 12 0 14 -233017
-66577 0;
#X obj 540 -85 inlet control;
#X text 632 -80 <-- range between 0 and 1;
#X obj 560 -59 hsl 64 15 0.01 1 0 0 empty empty empty -2 -8 0 10 -262144
-1 -1 0 1;
#X obj 544 3 f;
#X text 540 -106 In this rectangle are the control mappings;
#X text 632 -60 <-- test;
#X obj 45 306 expr 1-pow($f1 \, 2);
#X obj 544 487 s \$0-mix-r;
#X obj 707 77 s \$0-pitch-r;
#X obj 678 259 s \$0-vcf-r;
#X obj 707 173 s \$0-duration-r;
#X obj 697 200 s \$0-delay-r;
#X obj 687 230 s \$0-metro-r;
#X obj 668 289 s \$0-autopan-r;
#X obj 658 319 s \$0-feedback-r;
#X obj 628 409 s \$0-feedback-lfo-r;
#X obj 638 379 s \$0-feedback-return-r;
#X obj 544 464 expr (log($f1)/log(30))+1;
#X obj 648 352 s \$0-feedback-time-r;
#X obj 578 442 s \$0-feedback-lfo-depth-r;
#X obj 578 419 * 0.8;
#X floatatom 614 110 5 0 0 0 - - -;
#X obj 723 -40 r s_y_control;
#X obj 251 -115 r s_agitation;
#X floatatom 251 -84 5 0 0 0 - - -;
#X obj 341 -84 *;
#X obj 362 -114 hsl 160 20 0.01 1 0 0 empty empty internal-----controller
0 10 0 12 -1 -4032 -204800 0 1;
#X obj 451 -31 moses 0.1;
#X obj 723 -13 s \$0-envelope-r;
#X obj 713 20 s \$0-envelope-exp-r;
#N canvas 0 22 510 202 grandmas 0;
#X obj 94 93 grandma 12 \$0 \$0-L;
#X obj 3 -30 grandma 0 \$0 \$0-L;
#X obj 110 114 grandma 14 \$0 \$0-L;
#X obj 81 73 grandma 10 \$0 \$0-L;
#X obj 35 11 grandma 4 \$0 \$0-L;
#X obj 340 129 grandma 15 \$0 \$0-R;
#X obj 64 32 grandma 6 \$0 \$0-L;
#X obj 22 -10 grandma 2 \$0 \$0-L;
#X obj 63 53 grandma 8 \$0 \$0-L;
#X obj 244 -18 grandma 1 \$0 \$0-R;
#X obj 253 5 grandma 3 \$0 \$0-R;
#X obj 265 27 grandma 5 \$0 \$0-R;
#X obj 282 46 grandma 7 \$0 \$0-R;
#X obj 294 67 grandma 9 \$0 \$0-R;
#X obj 311 87 grandma 11 \$0 \$0-R;
#X obj 325 110 grandma 13 \$0 \$0-R;
#X restore 373 336 pd grandmas;
#X obj 707 150 expr (2*$f1/10);
#X obj 707 107 s \$0-vcf-r;
#X obj 677 47 r s_pitch_3;
#X connect 32 0 35 0;
#X connect 32 0 40 0;
#X connect 36 0 37 0;
#X connect 36 0 41 0;
#X connect 40 0 33 0;
#X connect 41 0 34 0;
#X connect 42 0 48 0;
#X connect 42 0 59 0;
#X connect 43 0 33 0;
#X connect 44 0 34 0;
#X connect 45 0 44 0;
#X connect 46 0 43 0;
#X connect 47 0 49 0;
#X connect 48 0 47 0;
#X connect 49 0 50 0;
#X connect 50 0 43 1;
#X connect 50 0 44 1;
#X connect 55 0 56 0;
#X connect 56 0 67 0;
#X connect 56 0 74 0;
#X connect 56 0 82 0;
#X connect 56 0 66 0;
#X connect 56 0 70 0;
#X connect 56 0 64 0;
#X connect 56 0 65 0;
#X connect 56 0 84 0;
#X connect 56 0 71 0;
#X connect 56 0 73 0;
#X connect 59 0 41 1;
#X connect 59 0 40 1;
#X connect 70 0 60 0;
#X connect 73 0 72 0;
#X connect 75 0 81 0;
#X connect 76 0 77 0;
#X connect 76 0 78 0;
#X connect 78 0 80 0;
#X connect 79 0 78 1;
#X connect 80 1 56 0;
#X connect 84 0 63 0;
#X connect 86 0 61 0;
#X connect 86 0 85 0;
#X coords 0 -1 1 1 512 172 1 0 0;
