#N canvas 872 89 228 436 12;
#X text 74 372 hard.off@gmail.com;
#X text 18 352 based on grannie_basher by;
#X text 116 333 grain cutter;
#X text 10 391 Juan Ignacio Mendoza - 2018;
#N canvas 51 23 589 698 feedback 0;
#X obj 80 285 * 1000;
#X obj 80 105 random;
#X obj 139 75 * 2;
#X obj 139 45 t f f;
#X obj 153 135 -;
#X obj 80 225 +;
#X obj 169 -15 pow 2;
#X obj 169 15 * 10000;
#X obj 80 165 / 10000;
#X obj 168 195 pow 2;
#X obj 169 -45 r \$2-feedback-rnd;
#X obj 168 165 r \$2-feedback-time;
#X obj 80 255 clip 0.01 1;
#X obj 80 -16 delay 5;
#X obj 80 495 vd~ \$0-fb;
#X obj 80 405 vline~;
#X obj 133 285 r \$2-feedback-return;
#X obj 80 375 pack 0 5;
#X obj 133 315 pow 2;
#X obj 133 345 * 500;
#X obj 80 -46 inlet;
#X obj 30 624 outlet~;
#X obj 373 345 - 1;
#X obj 373 375 * -1;
#X obj 373 405 pow 2;
#X obj 373 435 - 1;
#X obj 373 465 * -0.99;
#X obj 373 315 r \$2-feedback;
#X obj 70 594 delwrite~ \$0-fb 1000;
#X obj 70 565 *~ 0.5;
#X obj 30 -46 inlet~;
#X obj 373 255 osc~ 0.1;
#X obj 441 165 r \$2-feedback-lfo;
#X obj 309 -45 inlet;
#X obj 309 105 random;
#X obj 359 75 * 2;
#X obj 359 45 t f f;
#X obj 373 135 -;
#X obj 373 195 +;
#X obj 359 -15 pow 2;
#X obj 359 15 * 10000;
#X obj 373 165 / 10000;
#X obj 359 -45 r \$2-feedback-lfo-rnd;
#X obj 373 285 r \$2-feedback-lfo-depth;
#X obj 140 435 *~;
#X obj 158 405 *~ 1;
#X obj 80 465 +~;
#X obj 373 225 logclip 0.1 10;
#X connect 0 0 17 0;
#X connect 1 0 4 0;
#X connect 2 0 1 1;
#X connect 3 0 2 0;
#X connect 3 1 4 1;
#X connect 4 0 8 0;
#X connect 5 0 12 0;
#X connect 6 0 7 0;
#X connect 7 0 3 0;
#X connect 8 0 5 0;
#X connect 9 0 5 1;
#X connect 10 0 6 0;
#X connect 11 0 9 0;
#X connect 12 0 0 0;
#X connect 13 0 1 0;
#X connect 14 0 21 0;
#X connect 14 0 29 0;
#X connect 15 0 44 0;
#X connect 15 0 46 0;
#X connect 16 0 18 0;
#X connect 17 0 15 0;
#X connect 18 0 19 0;
#X connect 19 0 17 1;
#X connect 20 0 13 0;
#X connect 22 0 23 0;
#X connect 23 0 24 0;
#X connect 24 0 25 0;
#X connect 25 0 26 0;
#X connect 26 0 29 1;
#X connect 27 0 22 0;
#X connect 29 0 28 0;
#X connect 30 0 29 0;
#X connect 30 0 21 0;
#X connect 31 0 45 0;
#X connect 32 0 38 1;
#X connect 33 0 34 0;
#X connect 34 0 37 0;
#X connect 35 0 34 1;
#X connect 36 0 35 0;
#X connect 36 1 37 1;
#X connect 37 0 41 0;
#X connect 38 0 47 0;
#X connect 39 0 40 0;
#X connect 40 0 36 0;
#X connect 41 0 38 0;
#X connect 42 0 39 0;
#X connect 43 0 45 1;
#X connect 44 0 46 1;
#X connect 45 0 44 1;
#X connect 46 0 14 0;
#X connect 47 0 31 0;
#X restore 11 200 pd feedback;
#N canvas 95 23 300 547 filter 0;
#X obj 19 486 vcf~ 2;
#X obj 139 16 inlet;
#X obj 97 356 exp;
#X obj 79 446 *~;
#X obj 97 416 vline~;
#X msg 97 386 \$1 5;
#X obj 139 166 random;
#X obj 189 136 * 2;
#X obj 189 106 t f f;
#X obj 203 196 -;
#X obj 97 296 +;
#X obj 189 46 pow 2;
#X obj 189 76 * 10000;
#X obj 97 236 / 10000;
#X obj 189 16 r \$2-vcf-rnd;
#X obj 115 266 r \$2-vcf;
#X obj 19 16 inlet~;
#X obj 79 16 inlet~;
#X obj 19 516 outlet~;
#X obj 97 326 logclip 10 20000;
#X connect 0 0 18 0;
#X connect 1 0 6 0;
#X connect 2 0 5 0;
#X connect 3 0 0 1;
#X connect 4 0 3 1;
#X connect 5 0 4 0;
#X connect 6 0 9 0;
#X connect 7 0 6 1;
#X connect 8 0 7 0;
#X connect 8 1 9 1;
#X connect 9 0 13 0;
#X connect 10 0 19 0;
#X connect 11 0 12 0;
#X connect 12 0 8 0;
#X connect 13 0 10 0;
#X connect 14 0 11 0;
#X connect 15 0 10 1;
#X connect 16 0 0 0;
#X connect 17 0 3 0;
#X connect 19 0 2 0;
#X restore 11 150 pd filter;
#N canvas 162 45 399 658 envelope 0;
#X obj 132 375 vline~;
#X obj 132 405 cos~;
#X obj 132 435 *~ 0.5;
#X obj 132 465 +~ 0.5;
#X obj 198 245 delay 10;
#X obj 249 275 f;
#X msg 249 335 1 \, 0.5 \$1;
#X msg 132 275 0.5 \, 1 \$1;
#X obj 132 215 t f f;
#X obj 207 15 r \$2-envelope;
#X obj 267 245 abs;
#X obj 267 215 - 100;
#X obj 109 175 t b f f;
#X obj 109 145 *;
#X obj 207 45 * 0.9;
#X obj 207 75 + 0.05;
#X obj 109 105 t f f;
#X obj 132 245 max 5;
#X obj 249 305 max 5;
#X obj 262 405 r \$2-envelope-exp;
#X obj 262 435 + 1;
#X obj 262 465 pow 4;
#X obj 132 495 expr~ pow($v1 \, $f2);
#X obj 35 526 vline~;
#X msg 35 496 0 5 \, 1 5 5;
#X obj 17 565 *~;
#X obj 17 595 *~;
#X obj 77 15 inlet;
#X obj 77 45 t b f;
#X obj 109 75 pipe 5;
#X obj 131 625 outlet~;
#X obj 17 15 inlet~;
#X obj 17 625 outlet~;
#X connect 0 0 1 0;
#X connect 1 0 2 0;
#X connect 2 0 3 0;
#X connect 3 0 22 0;
#X connect 4 0 5 0;
#X connect 5 0 18 0;
#X connect 6 0 0 0;
#X connect 7 0 0 0;
#X connect 8 0 17 0;
#X connect 8 1 4 0;
#X connect 9 0 14 0;
#X connect 10 0 5 1;
#X connect 11 0 10 0;
#X connect 12 1 8 0;
#X connect 12 2 11 0;
#X connect 13 0 12 0;
#X connect 14 0 15 0;
#X connect 15 0 13 1;
#X connect 16 0 13 0;
#X connect 16 1 11 1;
#X connect 17 0 7 0;
#X connect 18 0 6 0;
#X connect 19 0 20 0;
#X connect 20 0 21 0;
#X connect 21 0 22 1;
#X connect 22 0 26 1;
#X connect 22 0 30 0;
#X connect 23 0 25 1;
#X connect 24 0 23 0;
#X connect 25 0 26 0;
#X connect 26 0 32 0;
#X connect 27 0 28 0;
#X connect 28 0 24 0;
#X connect 28 1 29 0;
#X connect 29 0 16 0;
#X connect 31 0 25 0;
#X restore 11 110 pd envelope;
#N canvas 251 22 625 876 delayread 0;
#X obj 3 309 random;
#X obj 42 279 * 2;
#X obj 42 249 t f f;
#X obj 56 340 -;
#X obj 56 400 +;
#X obj 42 188 pow 2;
#X obj 42 218 * 10000;
#X obj 56 370 / 10000;
#X obj 158 308 random;
#X obj 197 278 * 2;
#X obj 197 248 t f f;
#X obj 211 338 -;
#X obj 239 398 +;
#X obj 197 188 pow 2;
#X obj 197 218 * 10000;
#X obj 211 368 / 10;
#X obj 257 339 * 1000;
#X obj 239 538 + 5;
#X obj 331 158 random;
#X obj 370 128 * 2;
#X obj 370 98 t f f;
#X obj 384 188 -;
#X obj 384 248 +;
#X obj 370 38 pow 2;
#X obj 370 68 * 10000;
#X obj 384 218 / 10000;
#X obj 384 278 clip 0 1;
#X obj 445 218 pow 2;
#X obj 384 308 * 5000;
#X obj 366 778 +~;
#X obj 152 730 vline~;
#X obj 194 540 - 1;
#X obj 56 460 moses 1;
#X obj 152 500 sel 1;
#X msg 152 540 0;
#X obj 194 640 *;
#X obj 194 670 pack 0 0;
#X obj 239 568 t f f f f f;
#X msg 194 700 \$1 \, 0 \$2;
#X obj 56 500 expr 1 - $f1;
#X obj 56 610 *;
#X obj 3 128 delay 5;
#X obj 197 158 r \$2-duration-rnd;
#X obj 370 8 r \$2-delay-rnd;
#X obj 445 188 r \$2-delay;
#X obj 117 370 r \$2-pitch;
#X obj 42 158 r \$2-pitch-rnd;
#X obj 257 308 r \$2-duration;
#X obj 56 640 pack 0 0;
#X msg 56 670 0 \, \$1 \$2;
#X obj 239 428 clip 10 990;
#X obj 239 458 t f f b;
#X obj 366 808 vd~ \$3-delayline;
#X obj 504 838 outlet;
#X obj 135 8 inlet;
#X obj 366 838 outlet~;
#X obj 564 838 outlet;
#X obj 135 48 t b b b;
#X obj 56 430 logclip 0.5 2;
#X connect 0 0 3 0;
#X connect 1 0 0 1;
#X connect 2 0 1 0;
#X connect 2 1 3 1;
#X connect 3 0 7 0;
#X connect 4 0 58 0;
#X connect 5 0 6 0;
#X connect 6 0 2 0;
#X connect 7 0 4 0;
#X connect 8 0 11 0;
#X connect 9 0 8 1;
#X connect 10 0 9 0;
#X connect 10 1 11 1;
#X connect 11 0 15 0;
#X connect 12 0 50 0;
#X connect 13 0 14 0;
#X connect 14 0 10 0;
#X connect 15 0 12 0;
#X connect 16 0 12 1;
#X connect 17 0 37 0;
#X connect 18 0 21 0;
#X connect 19 0 18 1;
#X connect 20 0 19 0;
#X connect 20 1 21 1;
#X connect 21 0 25 0;
#X connect 22 0 26 0;
#X connect 23 0 24 0;
#X connect 24 0 20 0;
#X connect 25 0 22 0;
#X connect 26 0 28 0;
#X connect 27 0 22 1;
#X connect 28 0 29 1;
#X connect 29 0 52 0;
#X connect 30 0 29 0;
#X connect 31 0 35 0;
#X connect 32 0 39 0;
#X connect 32 1 33 0;
#X connect 33 0 34 0;
#X connect 33 1 31 0;
#X connect 34 0 30 0;
#X connect 35 0 36 0;
#X connect 36 0 38 0;
#X connect 37 0 40 1;
#X connect 37 1 48 1;
#X connect 37 3 35 1;
#X connect 37 4 36 1;
#X connect 38 0 30 0;
#X connect 39 0 40 0;
#X connect 40 0 48 0;
#X connect 41 0 0 0;
#X connect 42 0 13 0;
#X connect 43 0 23 0;
#X connect 44 0 27 0;
#X connect 45 0 4 1;
#X connect 46 0 5 0;
#X connect 47 0 16 0;
#X connect 48 0 49 0;
#X connect 49 0 30 0;
#X connect 50 0 51 0;
#X connect 51 0 17 0;
#X connect 51 1 53 0;
#X connect 51 2 56 0;
#X connect 52 0 55 0;
#X connect 54 0 57 0;
#X connect 57 0 41 0;
#X connect 57 1 8 0;
#X connect 57 2 18 0;
#X connect 58 0 32 0;
#X restore 11 50 pd delayread;
#X obj 113 80 delay 5;
#X obj 11 20 r \$1-go;
#N canvas 26 75 366 578 autopan 0;
#X obj 17 -40 inlet~;
#X obj 17 470 *~;
#X obj 120 470 *~;
#X obj 138 330 *~ 0.5;
#X obj 138 360 +~ 0.5;
#X obj 35 410 -~ 1;
#X obj 35 440 *~ -1;
#X obj 17 500 outlet~;
#X obj 138 300 osc~ 0.1;
#X obj 120 500 outlet~;
#X obj 75 -40 inlet;
#X obj 75 110 random;
#X obj 124 79 * 2;
#X obj 124 49 t f f;
#X obj 138 140 -;
#X obj 138 230 +;
#X obj 124 -10 pow 2;
#X obj 124 20 * 10000;
#X obj 138 170 / 10000;
#X obj 124 -40 r \$2-autopan-rnd;
#X obj 156 200 r \$2-autopan;
#X obj 261 230 random;
#X obj 261 139 * 357.89;
#X obj 261 170 int;
#X obj 261 109 f \$1;
#X obj 261 79 loadbang;
#X obj 261 260 * 341.725;
#X obj 261 200 t b f;
#X obj 138 260 logclip 0.1 10;
#X connect 0 0 1 0;
#X connect 0 0 2 0;
#X connect 1 0 7 0;
#X connect 2 0 9 0;
#X connect 3 0 4 0;
#X connect 4 0 5 0;
#X connect 4 0 2 1;
#X connect 5 0 6 0;
#X connect 6 0 1 1;
#X connect 8 0 3 0;
#X connect 10 0 11 0;
#X connect 11 0 14 0;
#X connect 12 0 11 1;
#X connect 13 0 12 0;
#X connect 13 1 14 1;
#X connect 14 0 18 0;
#X connect 15 0 28 0;
#X connect 16 0 17 0;
#X connect 17 0 13 0;
#X connect 18 0 15 0;
#X connect 19 0 16 0;
#X connect 20 0 15 1;
#X connect 21 0 26 0;
#X connect 22 0 23 0;
#X connect 23 0 27 0;
#X connect 24 0 22 0;
#X connect 25 0 24 0;
#X connect 26 0 8 1;
#X connect 27 0 21 0;
#X connect 27 1 21 1;
#X connect 28 0 8 0;
#X restore 11 240 pd autopan;
#X obj 113 110 t b b b b;
#X obj 11 300 throw~ \$2-Left;
#X obj 78 270 throw~ \$2-Right;
#X connect 4 0 10 0;
#X connect 5 0 4 0;
#X connect 6 0 5 0;
#X connect 6 1 5 1;
#X connect 7 0 6 0;
#X connect 7 1 6 1;
#X connect 7 2 8 0;
#X connect 8 0 11 0;
#X connect 9 0 7 0;
#X connect 10 0 12 0;
#X connect 10 1 13 0;
#X connect 11 0 5 2;
#X connect 11 1 4 1;
#X connect 11 2 10 1;
#X connect 11 3 4 2;
