#N canvas 277 22 1129 515 12;
#X obj -557 -280 inlet~;
#X obj -459 190 outlet~;
#X obj -174 190 outlet~;
#X obj -448 -153 delwrite~ \$0-L-delayline 10000;
#X obj -268 -280 inlet~;
#X obj -165 -153 delwrite~ \$0-R-delayline 10000;
#X obj -459 135 *~;
#X obj -174 135 *~;
#X obj -339 -113 r \$0-mix;
#X obj -421 137 *~;
#X obj -135 137 *~;
#X obj -135 64 catch~ \$0-Right;
#X obj -421 64 catch~ \$0-Left;
#X obj -263 -34 line~;
#X msg -263 -64 \$1 20;
#X obj -263 -4 *~ 2;
#X obj -263 26 min~ 1;
#X obj -441 -64 expr 1-pow($f1 \, 2);
#N canvas 217 23 510 202 grandmas 0;
#X obj 3 -30 grandma 0 \$0 \$0-L;
#X obj 94 93 grandma 12 \$0 \$0-L;
#X obj 110 114 grandma 14 \$0 \$0-L;
#X obj 81 73 grandma 10 \$0 \$0-L;
#X obj 35 11 grandma 4 \$0 \$0-L;
#X obj 340 129 grandma 15 \$0 \$0-R;
#X obj 64 32 grandma 6 \$0 \$0-L;
#X obj 22 -10 grandma 2 \$0 \$0-L;
#X obj 63 53 grandma 8 \$0 \$0-L;
#X obj 244 -18 grandma 1 \$0 \$0-R;
#X obj 253 5 grandma 3 \$0 \$0-R;
#X obj 265 27 grandma 5 \$0 \$0-R;
#X obj 282 46 grandma 7 \$0 \$0-R;
#X obj 294 67 grandma 9 \$0 \$0-R;
#X obj 311 87 grandma 11 \$0 \$0-R;
#X obj 325 110 grandma 13 \$0 \$0-R;
#X restore 210 -99 pd grandmas;
#X obj 0 4 cnv 15 154 80 empty empty empty 100 13 2 17 -86853 -83269
0;
#X obj 4 8 cnv 15 146 72 empty empty empty 100 13 2 17 -249659 -83269
0;
#X obj 11 15 cnv 15 131 29 empty empty empty 0 13 2 17 -162280 -83269
0;
#X obj 12 16 cnv 15 128 26 empty empty empty 0 13 2 17 -228856 -83269
0;
#X obj 17 17 cnv 15 50 20 empty empty Granny 0 13 2 17 -228856 -83269
0;
#X obj 77 17 cnv 15 50 20 empty empty Smasher 0 13 2 17 -228856 -83269
0;
#X obj 210 -59 r \$0-open_edit_snd;
#X obj 210 -29 pack \$0;
#N canvas 664 -298 538 248 \$0-GS_gui_window 1;
#N canvas 16 22 553 283 gs_GUI 0;
#X obj 2 2 cnv 15 528 228 empty empty empty 100 13 2 17 -86853 -83269
0;
#X obj 6 6 cnv 15 520 220 empty empty empty 100 13 2 17 -249659 -83269
0;
#X obj 80 73 hsl 100 12 0 1 0 0 \$0-pitch \$0-pitch-r pitch -45 7 0
13 -13330 -262144 -4160 7000 1;
#X obj 188 73 hsl 100 12 0 1 0 0 \$0-pitch-rnd \$0-pitch-rnd-r empty
-4 -12 2 17 -13330 -262144 -86853 0 1;
#X obj 80 88 hsl 100 12 0 1 0 0 \$0-duration \$0-duration-r duration
-70 7 0 13 -13330 -262144 -4160 3000 1;
#X obj 188 88 hsl 100 12 0 1 0 0 \$0-duration-rnd \$0-duration-rnd-r
empty -2 -6 0 10 -13330 -262144 -1 0 1;
#X obj 80 103 hsl 100 12 0 1 0 0 \$0-delay \$0-delay-r delay -45 7
0 13 -13330 -262144 -4160 5300 1;
#X obj 188 103 hsl 100 12 0 1 0 0 \$0-delay-rnd \$0-delay-rnd-r empty
-2 -6 0 10 -13330 -262144 -1 0 1;
#X obj 80 118 hsl 100 12 0 1 0 0 \$0-metro \$0-metro-r metro -45 7
0 13 -13330 -262144 -4160 2100 1;
#X obj 188 118 hsl 100 12 0 1 0 0 \$0-metro-rnd \$0-metro-rnd-r empty
-2 -6 0 10 -13330 -262144 -1 0 1;
#X obj 80 133 hsl 100 12 0 1 0 0 \$0-vcf \$0-vcf-r filter -52 7 0 13
-13330 -262144 -4160 8500 1;
#X obj 80 163 hsl 100 12 0 1 0 0 \$0-feedback \$0-feedback-r feedback
-68 7 0 13 -13330 -262144 -4160 4100 1;
#X obj 302 163 hsl 100 12 0 1 0 0 \$0-feedback-time \$0-feedback-time-r
feedback-time 10 7 0 10 -13330 -262130 -262130 5800 1;
#X obj 188 163 hsl 100 12 0 1 0 0 \$0-feedback-rnd \$0-feedback-rnd-r
empty -2 -6 0 10 -13330 -262144 -1 0 1;
#X obj 188 133 hsl 100 12 0 1 0 0 \$0-vcf-rnd \$0-vcf-rnd-r empty -2
-6 0 10 -13330 -262144 -1 0 1;
#X obj 410 163 hsl 100 12 0 1 0 0 \$0-feedback-return \$0-feedback-return-r
feedback-return 6 7 0 10 -13330 -262130 -262130 4700 1;
#X obj 80 148 hsl 100 12 0 1 0 0 \$0-autopan \$0-autopan-r autopan
-60 7 0 13 -13330 -262144 -4160 4600 1;
#X obj 188 148 hsl 100 12 0 1 0 0 \$0-autopan-rnd \$0-autopan-rnd-r
empty -2 -6 0 10 -13330 -262144 -1 0 1;
#X obj 80 178 hsl 100 12 0 1 0 0 \$0-feedback-lfo \$0-feedback-lfo-r
fb-lfo -52 7 0 13 -13330 -262144 -4160 0 1;
#X obj 188 178 hsl 100 12 0 1 0 0 \$0-feedback-lfo-rnd \$0-feedback-lfo-rnd-r
empty -2 -6 0 10 -13330 -262144 -1 0 1;
#X obj 302 178 hsl 100 12 0 1 0 0 \$0-feedback-lfo-depth \$0-feedback-lfo-depth-r
depth 34 7 0 10 -13330 -262130 -262130 6200 1;
#X obj 112 48 cnv 15 50 20 empty empty value 0 13 2 17 -249659 -83269
0;
#X obj 191 48 cnv 15 50 20 empty empty random/jitter 0 13 2 17 -249659
-83269 0;
#X obj 121 13 cnv 15 131 29 empty empty empty 0 13 2 17 -162280 -83269
0;
#X obj 122 14 cnv 15 128 26 empty empty empty 0 13 2 17 -228856 -83269
0;
#X obj 127 15 cnv 15 50 20 empty empty Granny 0 13 2 17 -228856 -83269
0;
#X obj 187 15 cnv 15 50 20 empty empty Smasher 0 13 2 17 -228856 -83269
0;
#X obj 294 86 cnv 15 223 67 empty empty empty 0 13 2 17 -128992 -83269
0;
#X obj 295 87 cnv 15 220 64 empty empty empty 0 13 2 17 -228856 -83269
0;
#X obj 410 118 hsl 100 12 0 1 0 0 \$0-envelope \$0-envelope_center-r
center 34 7 0 10 -13330 -262130 -262130 800 1;
#X obj 410 133 hsl 100 12 0 1 0 0 \$0-envelope-exp \$0-envelope_Q-r
Q 48 7 0 10 -13330 -262130 -262130 500 1;
#X text 431 90 envelope;
#X obj 299 105 cnv 15 105 40 empty empty empty 0 13 2 17 -262144 -83269
0;
#N canvas 0 22 450 300 (subpatch) 0;
#X array \$0-env 100 float 0;
#X coords 0 1 99 0 105 40 1;
#X restore 299 105 graph;
#X obj 354 13 cnv 15 163 63 empty empty empty 0 13 2 17 -162280 -83269
0;
#X obj 355 14 cnv 15 160 60 empty empty empty 0 13 2 17 -228856 -83269
0;
#X obj 360 32 hradio 15 1 0 10 \$0-load \$0-load-r preset 56 -10 0
12 -175484 -262144 -1 0;
#X obj 360 51 bng 15 250 50 0 \$0-store rwiuytiuwytriu store 18 8 0
10 -128992 -262130 -1;
#X obj 494 51 bng 15 250 50 0 \$0-save troiuyiurtyiutwr save -26 8
0 10 -99865 -262130 -1;
#X obj 185 200 cnv 15 219 16 empty empty empty 0 13 2 17 -13330 -83269
0;
#X obj 190 202 hsl 210 12 0 1 0 0 \$0-mix \$0-mix-r mix 92 6 0 10 -261682
-258113 -86277 10600 1;
#X coords 0 -1 1 1 530 230 1 1 1;
#X restore -103 -4 pd gs_GUI;
#X restore 210 61 pd \$0-GS_gui_window;
#X msg 210 1 \; pd-\$1-GS_gui_window vis 1;
#X obj -462 -252 r \$0-bypass;
#X obj 80 51 cnv 5 62 23 empty empty empty 2 8 0 10 -162280 -261234
0;
#X obj 81 52 cnv 5 59 20 empty empty empty 2 8 0 10 -228856 -261234
0;
#X obj 83 54 vradio 16 1 1 1 \$0-bp_sw_snd \$0-bp_sw_rcv empty 0 -8
0 10 -195568 -1 -1 0;
#X obj 100 54 cnv 5 38 16 empty \$0-bp_display_rcv ON 1 9 0 10 -1 -225271
0;
#X obj 11 51 cnv 5 62 23 empty empty empty 2 8 0 10 -162280 -261234
0;
#X obj 12 52 cnv 5 59 20 empty empty empty 2 8 0 10 -228856 -261234
0;
#X obj 17 55 bng 15 250 50 0 \$0-open_edit_snd \$0-open_edit_rcv edit
20 7 0 12 -262144 -1 -1;
#X obj -268 -193 s~ \$0-ch2;
#X obj -557 -223 audio_bypasson;
#X obj -173 -252 r \$0-bypass;
#X obj -268 -223 audio_bypasson;
#X obj -254 136 r~ \$0-ch2;
#N canvas 305 27 225 426 bypass_switch 0;
#X obj -8 44 tgl 15 0 empty empty empty 17 7 0 10 -262144 -1 -1 1 1
;
#X obj 42 14 bang;
#X obj 22 74 select 0 1;
#X obj 35 204 s \$0-bp_sw_rcv;
#X msg 2 304 color 20 20 20;
#X obj 2 334 s \$0-bp_sw_rcv;
#X msg 35 174 color 20 22 22;
#X obj 22 274 s \$0-bp_display_rcv;
#X obj 55 144 s \$0-bp_display_rcv;
#X obj 42 -16 r \$0-bp_sw_snd;
#X msg 22 244 label BYPASS \, color 22 3;
#X msg 55 114 label ON \, color 22 6;
#X obj -8 -16 inlet;
#X obj -8 374 s \$0-bypass;
#X connect 0 0 2 0;
#X connect 0 0 13 0;
#X connect 1 0 0 0;
#X connect 2 0 4 0;
#X connect 2 0 10 0;
#X connect 2 1 6 0;
#X connect 2 1 11 0;
#X connect 4 0 5 0;
#X connect 6 0 3 0;
#X connect 9 0 1 0;
#X connect 10 0 7 0;
#X connect 11 0 8 0;
#X connect 12 0 0 0;
#X restore 425 -179 pd bypass_switch;
#X obj 425 -279 inlet bypass/on;
#X obj 435 -249 loadbang;
#X msg 435 -219 0;
#X obj 284 -249 s \$0-mix-r;
#X obj 94 -279 inlet control_randomness;
#X obj 284 -279 inlet control_mix;
#X text 412 171 hard.off@gmail.com;
#X text 223 171 based on grannie_basher by;
#X text 70 170 delay line granulator;
#N canvas 833 22 406 463 control_levels 0;
#X obj 17 -365 inlet;
#X obj 17 -335 unpack f f f f f f f f f f f f f f;
#X obj 35 55 s \$0-pitch-r;
#X obj 53 25 s \$0-duration-r;
#X obj 71 -5 s \$0-delay-r;
#X obj 89 -35 s \$0-metro-r;
#X obj 125 -95 s \$0-autopan-r;
#X obj 143 -125 s \$0-feedback-r;
#X obj 161 -155 s \$0-feedback-lfo-r;
#X obj 215 -245 s \$0-feedback-return-r;
#X obj 179 -185 s \$0-feedback-time-r;
#X obj 197 -215 s \$0-feedback-lfo-depth-r;
#X obj 107 -65 s \$0-vcf-r;
#X obj 233 -275 s \$0-envelope_center-r;
#X obj 252 -305 s \$0-envelope_Q-r;
#X connect 0 0 1 0;
#X connect 1 1 2 0;
#X connect 1 2 3 0;
#X connect 1 3 4 0;
#X connect 1 4 5 0;
#X connect 1 5 12 0;
#X connect 1 6 6 0;
#X connect 1 7 7 0;
#X connect 1 8 8 0;
#X connect 1 9 10 0;
#X connect 1 10 11 0;
#X connect 1 11 9 0;
#X connect 1 12 13 0;
#X connect 1 13 14 0;
#X restore -66 -249 pd control_levels;
#X obj -66 -279 inlet control_levels;
#N canvas 997 22 377 348 control_randomness 0;
#X obj 17 -235 inlet;
#X obj 37 55 s \$0-pitch-rnd-r;
#X obj 58 25 s \$0-duration-rnd-r;
#X obj 78 -5 s \$0-delay-rnd-r;
#X obj 99 -35 s \$0-metro-rnd-r;
#X obj 120 -65 s \$0-vcf-rnd-r;
#X obj 140 -95 s \$0-autopan-rnd-r;
#X obj 161 -125 s \$0-feedback-rnd-r;
#X obj 182 -155 s \$0-feedback-lfo-rnd-r;
#X obj 17 -205 unpack f f f f f f f f f;
#X connect 0 0 9 0;
#X connect 9 1 1 0;
#X connect 9 2 2 0;
#X connect 9 3 3 0;
#X connect 9 4 4 0;
#X connect 9 5 5 0;
#X connect 9 6 6 0;
#X connect 9 7 7 0;
#X connect 9 8 8 0;
#X restore 94 -249 pd control_randomness;
#N canvas 447 22 405 459 trigger_grandmas 0;
#X msg 159 370 \; \$1-go bang;
#X obj 159 330 f;
#X obj 279 300 + 1;
#X obj 279 330 mod 16;
#X obj 266 210 * 10000;
#X obj 136 -10 r \$0-metro;
#X obj 266 -10 r \$0-metro-rnd;
#X obj 136 80 * 1000;
#X obj 136 50 clip 0.01 1;
#X obj 266 170 pow 3;
#X obj 136 20 pow 3;
#X obj 10 100 delay;
#X msg 10 40 stop;
#X obj 136 170 t b b b;
#X obj -4 130 metro 1000;
#X obj 213 240 random 0;
#X obj 159 300 delay;
#X obj 213 270 / 10;
#X obj 206 170 t b f;
#X obj -4 -10 r \$0-bypass;
#X connect 1 0 2 0;
#X connect 1 0 0 0;
#X connect 2 0 3 0;
#X connect 3 0 1 1;
#X connect 4 0 15 1;
#X connect 5 0 10 0;
#X connect 6 0 9 0;
#X connect 7 0 11 0;
#X connect 7 0 14 1;
#X connect 7 0 18 0;
#X connect 8 0 7 0;
#X connect 9 0 4 0;
#X connect 10 0 8 0;
#X connect 11 0 14 0;
#X connect 12 0 11 0;
#X connect 13 0 12 0;
#X connect 13 1 16 0;
#X connect 13 2 15 0;
#X connect 14 0 13 0;
#X connect 15 0 17 0;
#X connect 16 0 1 0;
#X connect 17 0 16 1;
#X connect 18 0 4 0;
#X connect 18 1 4 1;
#X connect 19 0 14 0;
#X restore 210 -159 pd trigger_grandmas;
#N canvas 0 22 1021 672 load_save_presets 0;
#X obj 334 113 r \$0-load;
#N canvas 0 22 454 304 untils 0;
#X obj 261 160 f;
#X obj 288 162 + 1;
#X obj 261 138 until;
#X msg 299 132 0;
#X obj 261 107 t f b;
#X obj 261 78 inlet;
#X obj 261 190 outlet;
#X connect 0 0 1 0;
#X connect 0 0 6 0;
#X connect 1 0 0 1;
#X connect 2 0 0 0;
#X connect 3 0 0 1;
#X connect 4 0 2 0;
#X connect 4 1 3 0;
#X connect 5 0 4 0;
#X restore 334 187 pd untils;
#X obj 334 136 t b f;
#X obj 373 253 tabread \$0-allpreset;
#X obj 334 212 t f f;
#X obj 335 278 pack 0 0;
#X obj 243 573 s \$0-pitch-r;
#X obj 244 595 s \$0-pitch-rnd-r;
#X obj 257 616 s \$0-duration-r;
#X obj 258 637 s \$0-duration-rnd-r;
#X obj 367 571 s \$0-delay-r;
#X obj 367 593 s \$0-delay-rnd-r;
#X obj 381 614 s \$0-metro-r;
#X obj 382 635 s \$0-metro-rnd-r;
#X obj 472 570 s \$0-envelope-r;
#X obj 473 593 s \$0-envelope-exp-r;
#X obj 361 232 +;
#N canvas 0 22 454 304 untils 0;
#X obj 261 160 f;
#X obj 288 162 + 1;
#X obj 261 138 until;
#X msg 299 132 0;
#X obj 261 107 t f b;
#X obj 261 78 inlet;
#X obj 261 190 outlet;
#X connect 0 0 1 0;
#X connect 0 0 6 0;
#X connect 1 0 0 1;
#X connect 2 0 0 0;
#X connect 3 0 0 1;
#X connect 4 0 2 0;
#X connect 4 1 3 0;
#X connect 5 0 4 0;
#X restore 507 158 pd untils;
#X obj 507 183 t f f;
#X obj 506 117 r \$0-store;
#X obj 553 207 tabread \$0-preset;
#X obj 508 231 pack 0 0;
#X obj 507 251 s \$0-storehouse;
#X text 494 11 LOAD/SavE PreseTS;
#X obj 330 47 table \$0-preset 22;
#X obj 480 71 table \$0-storehouse 22;
#X msg 333 165 22;
#X obj 362 166 * 22;
#X msg 506 137 22;
#X obj 335 298 route 0 1 2 3 4 5 6 7 8 9 10 11 12 13 14 15 16 17 18
19 20 21;
#N canvas 0 22 808 670 get-sliders 0;
#X obj 28 119 r \$0-pitch;
#X msg 28 140 0 \$1;
#X obj 28 162 s \$0-preset;
#X obj 97 119 r \$0-pitch-rnd;
#X obj 102 161 s \$0-preset;
#X msg 102 139 1 \$1;
#X obj 29 226 s \$0-preset;
#X obj 121 227 s \$0-preset;
#X obj 29 183 r \$0-duration;
#X obj 116 185 r \$0-duration-rnd;
#X msg 28 203 2 \$1;
#X msg 121 205 3 \$1;
#X obj 28 291 s \$0-preset;
#X obj 102 290 s \$0-preset;
#X obj 29 355 s \$0-preset;
#X obj 121 356 s \$0-preset;
#X obj 28 248 r \$0-delay;
#X obj 96 248 r \$0-delay-rnd;
#X msg 27 269 4 \$1;
#X msg 101 267 5 \$1;
#X obj 29 312 r \$0-metro;
#X obj 116 314 r \$0-metro-rnd;
#X msg 27 331 6 \$1;
#X msg 122 334 7 \$1;
#X obj 27 421 s \$0-preset;
#X obj 119 422 s \$0-preset;
#X obj 27 378 r \$0-envelope;
#X msg 28 399 8 \$1;
#X obj 114 379 r \$0-envelope-exp;
#X msg 120 399 9 \$1;
#X obj 302 128 r \$0-vcf;
#X obj 305 154 r \$0-vcf-rnd;
#X obj 304 181 r \$0-autopan;
#X obj 306 210 r \$0-autopan-rnd;
#X obj 323 240 r \$0-feedback-lfo;
#X obj 332 264 r \$0-feedback-lfo-rnd;
#X obj 343 287 r \$0-feedback-lfo-depth;
#X obj 414 132 r \$0-feedback;
#X obj 422 155 r \$0-feedback-rnd;
#X obj 434 180 r \$0-feedback-time;
#X obj 445 205 r \$0-feedback-return;
#X msg 284 335 10 \$1;
#X msg 328 332 11 \$1;
#X msg 371 333 12 \$1;
#X msg 411 336 13 \$1;
#X msg 456 338 14 \$1;
#X msg 500 340 15 \$1;
#X msg 283 366 16 \$1;
#X msg 327 361 17 \$1;
#X msg 370 367 18 \$1;
#X msg 416 368 19 \$1;
#X msg 462 369 20 \$1;
#X msg 503 369 21 \$1;
#X obj 531 272 r \$0-mix;
#X obj 367 454 s \$0-preset;
#X connect 0 0 1 0;
#X connect 1 0 2 0;
#X connect 3 0 5 0;
#X connect 5 0 4 0;
#X connect 8 0 10 0;
#X connect 9 0 11 0;
#X connect 10 0 6 0;
#X connect 11 0 7 0;
#X connect 16 0 18 0;
#X connect 17 0 19 0;
#X connect 18 0 12 0;
#X connect 19 0 13 0;
#X connect 20 0 22 0;
#X connect 21 0 23 0;
#X connect 22 0 14 0;
#X connect 23 0 15 0;
#X connect 26 0 27 0;
#X connect 27 0 24 0;
#X connect 28 0 29 0;
#X connect 29 0 25 0;
#X connect 30 0 41 0;
#X connect 31 0 42 0;
#X connect 32 0 43 0;
#X connect 33 0 44 0;
#X connect 34 0 49 0;
#X connect 35 0 50 0;
#X connect 36 0 51 0;
#X connect 37 0 45 0;
#X connect 38 0 46 0;
#X connect 39 0 47 0;
#X connect 40 0 48 0;
#X connect 41 0 54 0;
#X connect 42 0 54 0;
#X connect 43 0 54 0;
#X connect 44 0 54 0;
#X connect 45 0 54 0;
#X connect 46 0 54 0;
#X connect 47 0 54 0;
#X connect 48 0 54 0;
#X connect 49 0 54 0;
#X connect 50 0 54 0;
#X connect 51 0 54 0;
#X connect 52 0 54 0;
#X connect 53 0 52 0;
#X restore 763 331 pd get-sliders;
#X obj 339 456 s \$0-vcf-r;
#X obj 342 481 s \$0-vcf-rnd-r;
#X obj 341 508 s \$0-autopan-r;
#X obj 344 533 s \$0-autopan-rnd-r;
#X obj 451 459 s \$0-feedback-r;
#X obj 459 482 s \$0-feedback-rnd-r;
#X obj 471 507 s \$0-feedback-time-r;
#X obj 482 532 s \$0-feedback-return-r;
#X obj 605 460 s \$0-feedback-lfo-r;
#X obj 614 484 s \$0-feedback-lfo-rnd-r;
#X obj 625 507 s \$0-feedback-lfo-depth-r;
#X obj 750 561 s \$0-mix-r;
#N canvas 0 22 454 304 untils 0;
#X obj 261 160 f;
#X obj 288 162 + 1;
#X obj 261 138 until;
#X msg 299 132 0;
#X obj 261 107 t f b;
#X obj 261 78 inlet;
#X obj 261 190 outlet;
#X connect 0 0 1 0;
#X connect 0 0 6 0;
#X connect 1 0 0 1;
#X connect 2 0 0 0;
#X connect 3 0 0 1;
#X connect 4 0 2 0;
#X connect 4 1 3 0;
#X connect 5 0 4 0;
#X restore 807 113 pd untils;
#X obj 807 138 t f f;
#X obj 808 204 pack 0 0;
#X obj 809 171 +;
#X obj 849 179 tabread \$0-storehouse;
#X obj 806 226 s \$0-allpreset;
#X obj 770 11 r \$0-save;
#X obj 763 306 s \$0-allpreset;
#X msg 761 278 write grannie.txt;
#X obj 771 66 t b b b f;
#X obj 794 252 s \$0-load-r;
#X obj 731 40 f;
#X obj 800 39 r \$0-load;
#X msg 806 92 22;
#X obj 835 92 * 22;
#X obj 29 568 s \$0-allpreset;
#X msg 27 540 read grannie.txt;
#X obj 6 498 loadbang;
#X obj 4 518 t b b;
#X obj 12 617 s \$0-load-r;
#X obj 327 69 table \$0-allpreset 220;
#X connect 0 0 2 0;
#X connect 1 0 4 0;
#X connect 2 0 26 0;
#X connect 2 1 27 0;
#X connect 3 0 5 1;
#X connect 4 0 5 0;
#X connect 4 1 16 0;
#X connect 5 0 29 0;
#X connect 16 0 3 0;
#X connect 17 0 18 0;
#X connect 18 0 21 0;
#X connect 18 1 20 0;
#X connect 19 0 28 0;
#X connect 20 0 21 1;
#X connect 21 0 22 0;
#X connect 26 0 1 0;
#X connect 27 0 16 1;
#X connect 28 0 17 0;
#X connect 29 0 6 0;
#X connect 29 1 7 0;
#X connect 29 2 8 0;
#X connect 29 3 9 0;
#X connect 29 4 10 0;
#X connect 29 5 11 0;
#X connect 29 6 12 0;
#X connect 29 7 13 0;
#X connect 29 8 14 0;
#X connect 29 9 15 0;
#X connect 29 10 31 0;
#X connect 29 11 32 0;
#X connect 29 12 33 0;
#X connect 29 13 34 0;
#X connect 29 14 35 0;
#X connect 29 15 36 0;
#X connect 29 16 37 0;
#X connect 29 17 38 0;
#X connect 29 18 39 0;
#X connect 29 19 40 0;
#X connect 29 20 41 0;
#X connect 29 21 42 0;
#X connect 43 0 44 0;
#X connect 44 0 46 0;
#X connect 44 1 47 0;
#X connect 45 0 48 0;
#X connect 46 0 45 0;
#X connect 47 0 45 1;
#X connect 49 0 54 0;
#X connect 51 0 50 0;
#X connect 52 0 51 0;
#X connect 52 1 53 0;
#X connect 52 2 56 0;
#X connect 52 3 57 0;
#X connect 54 0 52 0;
#X connect 55 0 54 1;
#X connect 56 0 43 0;
#X connect 57 0 46 1;
#X connect 59 0 58 0;
#X connect 60 0 61 0;
#X connect 61 0 62 0;
#X connect 61 1 59 0;
#X restore 210 -129 pd load_save_presets;
#N canvas 650 137 348 535 envelope 0;
#N canvas 0 22 454 304 untils 0;
#X obj 261 160 f;
#X obj 288 162 + 1;
#X obj 261 138 until;
#X msg 299 132 0;
#X obj 261 107 t f b;
#X obj 261 78 inlet;
#X obj 261 190 outlet;
#X connect 0 0 1 0;
#X connect 0 0 6 0;
#X connect 1 0 0 1;
#X connect 2 0 0 0;
#X connect 3 0 0 1;
#X connect 4 0 2 0;
#X connect 4 1 3 0;
#X connect 5 0 4 0;
#X restore 29 137 pd untils;
#X msg 31 112 100;
#X obj 57 195 moses 50;
#X obj 60 222 / 50;
#X obj 29 166 t f f;
#X obj 60 445 pack 0 0;
#X obj 102 217 - 100;
#X obj 103 238 abs;
#X obj 103 259 / 50;
#X obj 139 217 - 100;
#X obj 140 238 abs;
#X obj 63 108 t b f;
#X obj 104 291 expr (0.5 * $f1) + 0.5;
#X obj 103 335 cos;
#X obj 103 316 * 6.28318;
#X obj 103 356 * 0.5;
#X obj 103 376 + 0.5;
#X obj 59 468 s \$0-env;
#X obj 64 42 r \$0-envelope;
#X obj 64 64 * 90;
#X obj 61 86 + 5;
#X obj 157 371 t b f;
#X obj 102 404 pow 1;
#X obj 183 393 + 1;
#X obj 157 348 r \$0-envelope-exp;
#X obj 183 414 pow 4;
#X connect 0 0 4 0;
#X connect 1 0 0 0;
#X connect 2 0 3 0;
#X connect 2 1 6 0;
#X connect 3 0 12 0;
#X connect 4 0 5 0;
#X connect 4 1 2 0;
#X connect 5 0 17 0;
#X connect 6 0 7 0;
#X connect 7 0 8 0;
#X connect 8 0 12 0;
#X connect 9 0 10 0;
#X connect 10 0 8 1;
#X connect 11 0 1 0;
#X connect 11 1 9 0;
#X connect 11 1 2 1;
#X connect 11 1 3 1;
#X connect 12 0 14 0;
#X connect 13 0 15 0;
#X connect 14 0 13 0;
#X connect 15 0 16 0;
#X connect 16 0 22 0;
#X connect 18 0 19 0;
#X connect 19 0 20 0;
#X connect 20 0 11 0;
#X connect 21 0 1 0;
#X connect 21 1 23 0;
#X connect 22 0 5 1;
#X connect 23 0 25 0;
#X connect 24 0 21 0;
#X connect 25 0 22 1;
#X restore 210 -189 pd envelope;
#X text 287 190 Juan Ignacio Mendoza Garay 2017-2018;
#X connect 0 0 38 0;
#X connect 4 0 40 0;
#X connect 6 0 1 0;
#X connect 7 0 2 0;
#X connect 8 0 14 0;
#X connect 8 0 17 0;
#X connect 9 0 1 0;
#X connect 10 0 2 0;
#X connect 11 0 10 0;
#X connect 12 0 9 0;
#X connect 13 0 15 0;
#X connect 14 0 13 0;
#X connect 15 0 16 0;
#X connect 16 0 9 1;
#X connect 16 0 10 1;
#X connect 17 0 7 1;
#X connect 17 0 6 1;
#X connect 25 0 26 0;
#X connect 26 0 28 0;
#X connect 29 0 38 1;
#X connect 38 0 1 0;
#X connect 38 1 3 0;
#X connect 38 1 6 0;
#X connect 39 0 40 1;
#X connect 40 0 37 0;
#X connect 40 1 5 0;
#X connect 40 1 7 0;
#X connect 41 0 2 0;
#X connect 43 0 42 0;
#X connect 44 0 45 0;
#X connect 45 0 42 0;
#X connect 47 0 54 0;
#X connect 48 0 46 0;
#X connect 53 0 52 0;
#X coords 0 -1 1 1 154 88 1 0 0;
