#N canvas 0 0 224 276 16;
#X obj 101 108 vsl 15 80 0 1 0 0 empty empty empty 0 -9 0 10 -258113
-1 -1 0 1;
#X obj 121 108 vsl 15 80 0 1 0 0 empty empty empty 0 -9 0 10 -4034
-1 -1 0 1;
#X obj 141 108 vsl 15 80 0 1 0 0 empty empty empty 0 -9 0 10 -4160
-1 -1 0 1;
#N canvas 74 49 319 356 list_trig_3 0;
#X obj 106 15 inlet;
#X obj 106 45 t b a;
#X obj 166 15 inlet;
#X obj 166 45 t b a;
#X obj 106 315 outlet list;
#X obj 42 15 inlet;
#X obj 106 240 pack 0 0 0;
#X msg 106 272 \$1 \$2 \$3;
#X connect 0 0 1 0;
#X connect 1 0 6 0;
#X connect 1 1 6 1;
#X connect 2 0 3 0;
#X connect 3 0 6 0;
#X connect 3 1 6 2;
#X connect 5 0 6 0;
#X connect 6 0 7 0;
#X connect 7 0 4 0;
#X restore 52 218 pd list_trig_3;
#X obj 52 258 outlet;
#X obj 52 58 inlet;
#X connect 0 0 3 0;
#X connect 1 0 3 1;
#X connect 2 0 3 2;
#X connect 3 0 4 0;
#X connect 5 0 3 0;
#X coords 0 -1 1 1 58 96 2 100 100;
