#N canvas 0 22 348 536 12;
#X obj 30 25 inlet size;
#X obj 30 265 linspace;
#X obj 30 325 t a a;
#X obj 30 295 list-math *;
#X obj 30 385 list-emath *;
#X obj 111 355 list-math * -1;
#X obj 30 415 list-apply exp;
#X obj 134 195 expr 2*atan(1)/$f1;
#X obj 30 145 t f f;
#X obj 30 445 outlet;
#X text 30 471 Juan Ignacio Mendoza G. - 2017;
#X msg 30 225 0;
#X obj 30 195 trigger a a a;
#X obj 30 65 / 2;
#X obj 30 105 i;
#X connect 0 0 13 0;
#X connect 1 0 3 0;
#X connect 2 0 4 0;
#X connect 2 1 5 0;
#X connect 3 0 2 0;
#X connect 4 0 6 0;
#X connect 5 0 4 1;
#X connect 6 0 9 0;
#X connect 7 0 3 1;
#X connect 8 0 12 0;
#X connect 8 1 7 0;
#X connect 11 0 1 0;
#X connect 12 0 11 0;
#X connect 12 1 1 1;
#X connect 12 2 1 2;
#X connect 13 0 14 0;
#X connect 14 0 8 0;
