#N canvas 750 118 261 409 12;
#X text -75 343 Juan Ignacio Mendoza Garay - 2018;
#X obj -79 48 inlet signal;
#X obj 41 48 inlet min max;
#X obj 13 313 outlet;
#X obj -79 188 moses 0;
#X obj 13 218 moses 1;
#X text -81 -2 or as arguments;
#X text -81 -18 given by list in right inlet;
#X obj -79 279 f;
#X obj 41 138 unpack f f;
#X obj 90 278 f;
#X text -81 -34 hard-limit incoming signal to range;
#X obj 51 108 pack \$1 \$2;
#X obj 51 78 loadbang;
#X obj -79 218 bang;
#X obj 59 248 bang;
#X text 26 26 default: 0 1;
#X connect 1 0 4 0;
#X connect 2 0 9 0;
#X connect 4 0 14 0;
#X connect 4 1 5 0;
#X connect 5 0 3 0;
#X connect 5 1 15 0;
#X connect 8 0 3 0;
#X connect 9 0 4 1;
#X connect 9 0 8 1;
#X connect 9 1 5 1;
#X connect 9 1 10 1;
#X connect 10 0 3 0;
#X connect 12 0 9 0;
#X connect 13 0 12 0;
#X connect 14 0 8 0;
#X connect 15 0 10 0;
#X coords 0 0 1 1 48 46 0;
