#N canvas 1007 22 266 363 12;
#X obj 10 340 outlet;
#X obj 49 95 inlet;
#X obj 49 205 change;
#X obj 117 95 inlet;
#X obj 189 95 inlet;
#X obj 10 175 gate 2;
#X obj 117 125 + 1;
#X text 9 -3 Hold the line \,;
#X text 9 11 love isn't always on time.;
#X text 46 75 signal;
#X text 114 75 on/off;
#X text 186 75 hold-time;
#X obj 49 305 spigot;
#X msg 136 271 1;
#X msg 88 271 0;
#X obj 10 35 loadbang;
#X msg 10 95 2;
#X text 26 61 defaults:;
#X text 125 61 on;
#X obj 136 245 pipe 200;
#X text 196 61 200 ms;
#X connect 1 0 5 1;
#X connect 2 0 12 0;
#X connect 2 0 19 0;
#X connect 3 0 6 0;
#X connect 4 0 19 1;
#X connect 5 0 0 0;
#X connect 5 1 2 0;
#X connect 6 0 5 0;
#X connect 12 0 0 0;
#X connect 12 0 14 0;
#X connect 13 0 12 1;
#X connect 14 0 12 1;
#X connect 15 0 16 0;
#X connect 16 0 5 0;
#X connect 19 0 13 0;
