#N canvas 143 202 348 546 16;
#X obj 1 97 buffer_xyz;
#X obj 131 -13 route bufspit;
#X obj 1 -153 r \$1-bufin;
#X obj 1 -123 route \$2;
#X obj 131 -43 r \$1-bufspit;
#X obj 131 17 select \$2;
#X obj 1 327 s \$1-bufout;
#X obj 206 327 s \$1-bufspit;
#X obj 1 297 list trim;
#X text 120 -134 \$2 = buffer index;
#X msg 206 297 bufspit \$1;
#X text 17 358 Juan Ignacio Mendoza G. - 2018;
#N canvas 0 22 450 300 \$0-mask 0;
#X obj 0 0 cnv 10 202 16 empty empty 0 4 11 0 16 -262144 -66577 0;
#X coords 0 -1 1 1 202 16 2 0 0;
#X restore 1 101 pd \$0-mask;
#X text 120 -111 \$3 = buffer size;
#X obj 66 -83 r \$0-size;
#N canvas 733 87 216 318 init 0;
#X obj 16 -202 r \$1-bufset;
#X obj 16 -132 select \$2;
#X obj 16 -62 t b b b;
#N canvas 503 386 608 199 make_title 0;
#X text 151 3 Every time the table properties change;
#X text 151 18 the table is re-written and it goes to;
#X obj 2 154 s pd-\$0-mask;
#X text 151 33 the front exposing its title mask \, which;
#X text 151 48 hides the title if it was a static canvas.;
#X text 151 79 re-written every time the object is loaded \,;
#X text 151 94 but after the tables are created.;
#X text 151 64 To avoid this \, this mask is;
#X obj 2 84 \$2;
#X obj 2 44 del;
#X obj 2 4 inlet;
#X msg 1 124 clear \, obj 0 0 cnv 10 202 16 empty empty \$1 4 11 0
16 0 2;
#X connect 8 0 11 0;
#X connect 9 0 8 0;
#X connect 10 0 9 0;
#X connect 11 0 2 0;
#X restore 16 67 pd make_title;
#X obj 83 -32 \$3;
#X obj 49 37 s \$0-reset;
#X obj 83 -2 s \$0-size;
#X obj 26 -93 loadbang;
#X obj 16 -162 route bufset;
#X connect 0 0 8 0;
#X connect 1 0 2 0;
#X connect 2 0 3 0;
#X connect 2 1 5 0;
#X connect 2 2 4 0;
#X connect 4 0 6 0;
#X connect 7 0 2 0;
#X connect 8 0 1 0;
#X restore 226 98 pd init;
#X text 120 -157 \$1 = parent patch's ID;
#X obj 206 267 f;
#X obj 233 136 \$2;
#X obj 233 166 + 1;
#X obj 196 227 del;
#X obj 196 58 r \$0-reset;
#X obj 1 267 list prepend \$2;
#X connect 0 0 22 0;
#X connect 0 1 20 0;
#X connect 1 0 5 0;
#X connect 2 0 3 0;
#X connect 3 0 0 0;
#X connect 4 0 1 0;
#X connect 5 0 0 2;
#X connect 8 0 6 0;
#X connect 10 0 7 0;
#X connect 14 0 0 1;
#X connect 17 0 10 0;
#X connect 18 0 19 0;
#X connect 19 0 17 1;
#X connect 20 0 17 0;
#X connect 21 0 0 3;
#X connect 21 0 18 0;
#X connect 22 0 8 0;
#X coords 0 -1 1 1 204 114 2 0 100;
