#N canvas 879 105 475 590 16;
#X text -25 513 Juan Ignacio Mendoza Garay - 2018;
#X obj 241 28 inlet min max;
#X obj -46 168 moses 0;
#X obj 21 198 moses 1;
#X obj -46 289 f;
#X obj 241 128 unpack f f;
#X obj 88 288 f;
#X obj -46 198 bang;
#X obj 88 248 bang;
#X text 236 4 default: 0 1;
#X obj -46 108 list-drip;
#X obj 58 108 s \$0-pl;
#X obj -79 68 t b a b;
#X obj -79 448 list;
#X obj -46 408 list prepend;
#X obj 71 368 t l;
#X obj 131 368 r \$0-pl;
#X obj -79 478 outlet;
#X obj 251 68 loadbang;
#X msg 251 98 0 1;
#X obj -79 28 inlet list;
#X text -80 -15 given by list in right inlet.;
#X text -81 -34 Limit elements of list to range;
#X connect 1 0 5 0;
#X connect 2 0 7 0;
#X connect 2 1 3 0;
#X connect 3 0 14 0;
#X connect 3 1 8 0;
#X connect 4 0 14 0;
#X connect 5 0 2 1;
#X connect 5 0 4 1;
#X connect 5 1 3 1;
#X connect 5 1 6 1;
#X connect 6 0 14 0;
#X connect 7 0 4 0;
#X connect 8 0 6 0;
#X connect 10 0 2 0;
#X connect 12 0 13 0;
#X connect 12 1 10 0;
#X connect 12 2 11 0;
#X connect 13 0 17 0;
#X connect 14 0 15 0;
#X connect 14 0 13 1;
#X connect 15 0 14 1;
#X connect 16 0 14 1;
#X connect 18 0 19 0;
#X connect 19 0 5 0;
#X connect 20 0 12 0;
#X coords 0 0 1 1 48 46 0;
