#N canvas -27 -840 461 314 12;
#X text -67 2 cityblock = |x1-x2|+|y1-y2|+|z1-z2|;
#X obj 4 247 list-emath +;
#X obj 85 217 list-emath +;
#X obj 4 277 outlet;
#X obj -65 147 list-emath -;
#X obj 85 147 list-emath -;
#X obj 235 147 list-emath -;
#X obj -65 177 vabs;
#X obj 85 177 vabs;
#X obj 235 177 vabs;
#X text -67 22 inlets are lists;
#X text 110 278 Juan Ignacio Mendoza G. - 2018;
#X obj -65 117 r \$0-x2;
#X obj 16 117 r \$0-x1;
#X obj 85 117 r \$0-y2;
#X obj 166 117 r \$0-y1;
#X obj 235 117 r \$0-z2;
#X obj 316 117 r \$0-z1;
#X obj 145 77 s \$0-x2;
#X obj -65 77 s \$0-x1;
#X obj 215 77 s \$0-y2;
#X obj 5 77 s \$0-y1;
#X obj 285 77 s \$0-z2;
#X obj 75 77 s \$0-z1;
#X obj 145 47 inlet x2;
#X obj -65 47 inlet x1;
#X obj 215 47 inlet y2;
#X obj 5 47 inlet y1;
#X obj 285 47 inlet z2;
#X obj 75 47 inlet z1;
#X connect 1 0 3 0;
#X connect 2 0 1 1;
#X connect 4 0 7 0;
#X connect 5 0 8 0;
#X connect 6 0 9 0;
#X connect 7 0 1 0;
#X connect 8 0 2 0;
#X connect 9 0 2 1;
#X connect 12 0 4 0;
#X connect 13 0 4 1;
#X connect 14 0 5 0;
#X connect 15 0 5 1;
#X connect 16 0 6 0;
#X connect 17 0 6 1;
#X connect 24 0 18 0;
#X connect 25 0 19 0;
#X connect 26 0 20 0;
#X connect 27 0 21 0;
#X connect 28 0 22 0;
#X connect 29 0 23 0;
