#N canvas -6 -887 731 557 16;
#X obj 62 294 expr ($f1-$f2)*($f5-$f4)/($f3-$f2) + $f4;
#X text 183 513 Juan Ignacio Mendoza Garay - 2018;
#X obj 29 44 inlet signal;
#X obj 29 464 outlet signal;
#X obj 436 44 inlet out min;
#X obj 576 44 inlet out max;
#X obj 158 44 inlet in min;
#X obj 287 44 inlet in max;
#X obj 158 84 s \$0-in_min;
#X obj 287 84 s \$0-in_max;
#X obj 436 84 s \$0-out_min;
#X obj 576 83 s \$0-out_max;
#X obj 161 164 r \$0-in_min;
#X obj 359 224 r \$0-out_min;
#X obj 459 254 r \$0-out_max;
#X obj 260 194 r \$0-in_max;
#X obj 29 434 list;
#X obj 62 124 list-drip;
#X obj 62 374 list prepend;
#X obj 119 334 t l;
#X obj 166 124 s \$0-pl;
#X obj 29 84 t b a b;
#X obj 179 334 r \$0-pl;
#X text 33 9 output minimum and maximum can also be object arguments
;
#N canvas 0 22 362 295 init 0;
#X obj 137 49 \$1;
#X obj 137 9 loadbang;
#X obj 197 49 \$2;
#X msg 87 48 2;
#X msg 28 48 1;
#X obj 28 250 s \$0-in_min;
#X obj 87 220 s \$0-in_max;
#X obj 137 190 s \$0-out_min;
#X obj 197 159 s \$0-out_max;
#X obj 197 79 select 0;
#X obj 197 109 1;
#X connect 0 0 7 0;
#X connect 1 0 0 0;
#X connect 1 0 2 0;
#X connect 1 0 3 0;
#X connect 1 0 4 0;
#X connect 2 0 9 0;
#X connect 3 0 6 0;
#X connect 4 0 5 0;
#X connect 9 0 10 0;
#X connect 9 1 8 0;
#X connect 10 0 8 0;
#X restore 576 133 pd init;
#X connect 0 0 18 0;
#X connect 2 0 21 0;
#X connect 4 0 10 0;
#X connect 5 0 11 0;
#X connect 6 0 8 0;
#X connect 7 0 9 0;
#X connect 12 0 0 1;
#X connect 13 0 0 3;
#X connect 14 0 0 4;
#X connect 15 0 0 2;
#X connect 16 0 3 0;
#X connect 17 0 0 0;
#X connect 18 0 19 0;
#X connect 18 0 16 1;
#X connect 19 0 18 1;
#X connect 21 0 16 0;
#X connect 21 1 17 0;
#X connect 21 2 20 0;
#X connect 22 0 18 1;
