#N canvas 0 22 576 350 12;
#N canvas 12 383 450 190 A 0;
#X obj 9 53 list-emath *;
#X obj 90 15 r \$0-x1;
#X obj 9 15 r \$0-x2;
#X obj 149 53 list-emath *;
#X obj 299 53 list-emath *;
#X obj 230 15 r \$0-y1;
#X obj 149 15 r \$0-y2;
#X obj 380 15 r \$0-z1;
#X obj 299 15 r \$0-z2;
#X obj 68 113 list-emath +;
#X obj 149 83 list-emath +;
#X obj 68 153 outlet;
#X connect 0 0 9 0;
#X connect 1 0 0 1;
#X connect 2 0 0 0;
#X connect 3 0 10 0;
#X connect 4 0 10 1;
#X connect 5 0 3 1;
#X connect 6 0 3 0;
#X connect 7 0 4 1;
#X connect 8 0 4 0;
#X connect 9 0 11 0;
#X connect 10 0 9 1;
#X restore -5 200 pd A * B';
#X obj -5 230 list-emath /;
#N canvas 76 547 614 295 sqrt( 0;
#X obj 310 -48 list-emath +;
#X obj 391 -78 list-emath +;
#X obj 310 -120 list-emath *;
#X obj 310 -150 t l l;
#X obj 410 -120 list-emath *;
#X obj 410 -150 t l l;
#X obj 410 -180 r \$0-y1;
#X obj 510 -120 list-emath *;
#X obj 510 -150 t l l;
#X obj 10 -48 list-emath +;
#X obj 91 -78 list-emath +;
#X obj 10 -120 list-emath *;
#X obj 10 -150 t l l;
#X obj 110 -120 list-emath *;
#X obj 110 -150 t l l;
#X obj 210 -120 list-emath *;
#X obj 210 -150 t l l;
#X obj 110 -180 r \$0-y2;
#X obj 140 62 outlet;
#X obj 310 -180 r \$0-x1;
#X obj 510 -180 r \$0-z1;
#X obj 210 -180 r \$0-z2;
#X obj 10 -180 r \$0-x2;
#X obj 140 2 list-emath *;
#X obj 140 32 list-apply sqrt;
#X connect 0 0 23 1;
#X connect 1 0 0 1;
#X connect 2 0 0 0;
#X connect 3 0 2 0;
#X connect 3 1 2 1;
#X connect 4 0 1 0;
#X connect 5 0 4 0;
#X connect 5 1 4 1;
#X connect 6 0 5 0;
#X connect 7 0 1 1;
#X connect 8 0 7 0;
#X connect 8 1 7 1;
#X connect 9 0 23 0;
#X connect 10 0 9 1;
#X connect 11 0 9 0;
#X connect 12 0 11 0;
#X connect 12 1 11 1;
#X connect 13 0 10 0;
#X connect 14 0 13 0;
#X connect 14 1 13 1;
#X connect 15 0 10 1;
#X connect 16 0 15 0;
#X connect 16 1 15 1;
#X connect 17 0 14 0;
#X connect 19 0 3 0;
#X connect 20 0 8 0;
#X connect 21 0 16 0;
#X connect 22 0 12 0;
#X connect 23 0 24 0;
#X connect 24 0 18 0;
#X restore 76 200 pd sqrt( (A * A') * (B * B') );
#X text -77 -1 cosine distance =;
#X text -77 19 where A and B are matrices whose columns are dimensions
(e.g. x \, y \, z) and rows are observations;
#X text -77 52 other way of expressing the formula \, but for only
one pair of observations:;
#X text -77 83 1 - ( (x1 * x2 + y1 * y2 + z1 * z2) / sqrt( (x1^2 +
y1^2 + z1^2) * (x2^2 + y2^2 + z2^2) ) );
#X text 49 -1 1 - ( (A * B' ) / sqrt( (A * A') * (B * B') ) );
#X obj 135 160 s \$0-x2;
#X obj -75 160 s \$0-x1;
#X obj 205 160 s \$0-y2;
#X obj -5 160 s \$0-y1;
#X obj 275 160 s \$0-z2;
#X obj 65 160 s \$0-z1;
#X obj 261 309 outlet;
#X obj 261 279 list-oneminus;
#X obj 349 130 inlet lists length;
#X obj 135 130 inlet x2;
#X obj -75 130 inlet x1;
#X obj 205 130 inlet y2;
#X obj -5 130 inlet y1;
#X obj 275 130 inlet z2;
#X obj 65 130 inlet z1;
#X text -10 309 Juan Ignacio Mendoza G. - 2018;
#X connect 0 0 1 0;
#X connect 1 0 15 0;
#X connect 2 0 1 1;
#X connect 15 0 14 0;
#X connect 16 0 15 1;
#X connect 17 0 8 0;
#X connect 18 0 9 0;
#X connect 19 0 10 0;
#X connect 20 0 11 0;
#X connect 21 0 12 0;
#X connect 22 0 13 0;
