#N canvas 682 96 322 496 16;
#X obj 149 160 list-drip;
#X obj 46 360 f;
#X obj 46 390 outlet;
#X obj 46 80 inlet;
#N canvas 0 22 450 300 once 0;
#X obj 110 75 inlet;
#X obj 105 187 spigot 1;
#X obj 110 104 t b f;
#X msg 125 151 0;
#X msg 165 99 1;
#X obj 165 63 inlet;
#X obj 102 219 outlet;
#X connect 0 0 2 0;
#X connect 1 0 6 0;
#X connect 2 0 3 0;
#X connect 2 1 1 0;
#X connect 3 0 1 1;
#X connect 4 0 1 1;
#X connect 5 0 4 0;
#X restore 186 270 pd once;
#X obj 226 320 f;
#X obj 139 320 max;
#X obj 139 240 t a a;
#X obj 46 120 trigger bang any bang;
#X text 39 4 find maximum of absolute;
#X text 39 24 values of a list;
#X obj 149 200 abs;
#X connect 0 0 11 0;
#X connect 1 0 2 0;
#X connect 3 0 8 0;
#X connect 4 0 6 1;
#X connect 5 0 6 1;
#X connect 6 0 5 0;
#X connect 6 0 1 1;
#X connect 7 0 6 0;
#X connect 7 1 4 0;
#X connect 8 0 1 0;
#X connect 8 1 0 0;
#X connect 8 2 4 1;
#X connect 11 0 7 0;
#X coords 0 0 1 1 48 46 0;
