#N canvas 249 282 297 289 12;
#X obj 28 35 inlet;
#X obj 88 35 inlet;
#X obj 158 35 inlet;
#X obj 228 35 inlet;
#X obj 88 245 outlet;
#X obj 88 146 pack f f f f;
#X obj 88 65 t b f;
#X obj 158 65 t b f;
#X obj 228 65 t b f;
#X msg 88 176 set \$1 \$2 \$3 \$4;
#X obj 88 206 t b a;
#X connect 0 0 5 0;
#X connect 1 0 6 0;
#X connect 2 0 7 0;
#X connect 3 0 8 0;
#X connect 5 0 9 0;
#X connect 6 0 5 0;
#X connect 6 1 5 1;
#X connect 7 0 5 0;
#X connect 7 1 5 2;
#X connect 8 0 5 0;
#X connect 8 1 5 3;
#X connect 9 0 10 0;
#X connect 10 0 4 0;
#X connect 10 1 4 0;
