#N canvas 397 81 699 549 16;
#X text 138 483 Juan Ignacio Mendoza Garay - 2018;
#X obj -21 54 inlet signal;
#X obj -21 444 outlet signal;
#X obj 128 144 s \$0-in_min;
#X obj 257 144 s \$0-in_max;
#X obj 386 144 s \$0-out_min;
#X obj 526 143 s \$0-out_max;
#X obj -21 414 list;
#X obj 12 194 list-drip;
#X obj 12 354 list prepend;
#X obj 69 314 t l;
#X obj 116 194 s \$0-pl;
#X obj -21 144 t b a b;
#X obj 129 314 r \$0-pl;
#X text -21 -24 rescale and hard-limit incoming signal to range;
#N canvas 845 321 554 254 rescale 0;
#X obj 12 164 expr ($f1-$f2)*($f5-$f4)/($f3-$f2) + $f4;
#X obj 111 34 r \$0-in_min;
#X obj 309 94 r \$0-out_min;
#X obj 409 124 r \$0-out_max;
#X obj 210 64 r \$0-in_max;
#X obj 12 34 inlet;
#X obj 12 204 outlet;
#X connect 0 0 6 0;
#X connect 1 0 0 1;
#X connect 2 0 0 3;
#X connect 3 0 0 4;
#X connect 4 0 0 2;
#X connect 5 0 0 0;
#X restore 12 234 pd rescale;
#X obj 386 54 inlet out_minmax;
#X obj 128 54 inlet in_minmax;
#X obj 128 94 unpack f f;
#X obj 386 94 unpack f f;
#N canvas 761 181 413 270 hardlimit 0;
#X obj -18 4 inlet;
#X obj 149 224 outlet;
#X obj -18 34 moses 0;
#X obj 149 94 moses 1;
#X obj -18 124 f;
#X obj 216 184 f;
#X obj -18 64 bang;
#X obj 216 124 bang;
#X obj 9 94 r \$0-out_min;
#X obj 216 64 r \$0-out_max;
#X obj 49 4 r \$0-out_min;
#X obj 243 154 r \$0-out_max;
#X connect 0 0 2 0;
#X connect 2 0 6 0;
#X connect 2 1 3 0;
#X connect 3 0 1 0;
#X connect 3 1 7 0;
#X connect 4 0 1 0;
#X connect 5 0 1 0;
#X connect 6 0 4 0;
#X connect 7 0 5 0;
#X connect 8 0 4 1;
#X connect 9 0 3 1;
#X connect 10 0 2 1;
#X connect 11 0 5 1;
#X restore 12 274 pd hardlimit;
#X text 406 24 default: 0 1;
#X connect 1 0 12 0;
#X connect 7 0 2 0;
#X connect 8 0 15 0;
#X connect 9 0 10 0;
#X connect 9 0 7 1;
#X connect 10 0 9 1;
#X connect 12 0 7 0;
#X connect 12 1 8 0;
#X connect 12 2 11 0;
#X connect 13 0 9 1;
#X connect 15 0 20 0;
#X connect 16 0 19 0;
#X connect 17 0 18 0;
#X connect 18 0 3 0;
#X connect 18 1 4 0;
#X connect 19 0 5 0;
#X connect 19 1 6 0;
#X connect 20 0 9 0;
