#N canvas 133 22 226 360 16;
#X obj 10 39 inlet;
#X obj 97 319 outlet;
#X obj 97 289 sqrt;
#X obj 10 119 list-drip;
#X obj 10 159 pow 2;
#X obj 10 209 +;
#X obj 10 79 trigger any bang;
#X msg 167 159 0;
#X obj 140 209 f;
#X obj 97 259 f;
#X text 15 3 Euclidean norm;
#X connect 0 0 6 0;
#X connect 2 0 1 0;
#X connect 3 0 4 0;
#X connect 3 1 9 0;
#X connect 4 0 5 0;
#X connect 5 0 8 0;
#X connect 5 0 9 1;
#X connect 6 0 3 0;
#X connect 6 1 7 0;
#X connect 7 0 8 1;
#X connect 7 0 5 1;
#X connect 8 0 5 1;
#X connect 9 0 2 0;
#X coords 0 0 1 1 48 46 0;
