#N canvas 0 22 335 489 12;
#X obj 2 -119 inlet;
#X obj 52 -119 inlet;
#X obj 102 -119 inlet;
#X obj 152 -119 inlet;
#X obj 52 336 outlet;
#X obj 52 207 pack f f f f;
#X obj 52 126 t b f;
#X obj 102 126 t b f;
#X obj 152 126 t b f;
#X msg 52 237 set \$1 \$2 \$3 \$4;
#X obj 102 267 loadbang;
#X obj 52 267 t b a;
#X floatatom 122 51 5 0 0 0 - - -;
#X floatatom 2 51 5 0 0 0 - - -;
#X floatatom 42 51 5 0 0 0 - - -;
#X floatatom 82 51 5 0 0 0 - - -;
#X obj 2 86 change;
#X obj 52 86 change;
#X obj 102 86 change;
#X obj 152 86 change;
#X obj 212 -119 inlet;
#X obj 212 -89 unpack f f f f;
#X connect 0 0 13 0;
#X connect 1 0 14 0;
#X connect 2 0 15 0;
#X connect 3 0 12 0;
#X connect 5 0 9 0;
#X connect 6 0 5 0;
#X connect 6 1 5 1;
#X connect 7 0 5 0;
#X connect 7 1 5 2;
#X connect 8 0 5 0;
#X connect 8 1 5 3;
#X connect 9 0 11 0;
#X connect 10 0 4 0;
#X connect 11 0 4 0;
#X connect 11 1 4 0;
#X connect 12 0 19 0;
#X connect 13 0 16 0;
#X connect 14 0 17 0;
#X connect 15 0 18 0;
#X connect 16 0 5 0;
#X connect 17 0 6 0;
#X connect 18 0 7 0;
#X connect 19 0 8 0;
#X connect 20 0 21 0;
#X connect 21 0 13 0;
#X connect 21 1 14 0;
#X connect 21 2 15 0;
#X connect 21 3 12 0;
#X coords 0 -1 1 1 161 45 1 0 30;
