#N canvas 0 0 659 627 16;
#X obj 209 294 spigot;
#X msg 326 260 1;
#X msg 236 228 0;
#X obj -6 158 list-pour;
#X obj 281 388 cup;
#X obj 182 337 <;
#X obj 65 337 spigot;
#X obj 118 438 f;
#X obj 118 387 bang;
#X obj 363 428 ==;
#X obj 104 488 f;
#X obj 104 528 spigot;
#X obj 526 288 f;
#X obj 263 18 inlet list;
#X obj 476 18 inlet length;
#X obj 390 218 spigot_2;
#X text 144 592 Juan Ignacio Mendoza Garay - 2018;
#X obj 380 58 loadbang;
#X obj 390 288 list length;
#X obj 390 338 change;
#X obj 553 108 t a b;
#X msg 437 178 1;
#X msg 487 178 2;
#X obj 467 248 bang;
#X obj 104 558 outlet index of min;
#X obj -6 188 trigger bang any any any bang;
#X obj 263 118 trigger a b a;
#X obj 476 58 select 0;
#X text 0 29 Right inlet input is;
#X text 0 49 optional. If 0 or none \,;
#X text 0 89 computed \, which is more;
#X text 0 109 expensive.;
#X text 0 69 length is automatically;
#X connect 0 0 2 0;
#X connect 0 0 5 1;
#X connect 1 0 0 1;
#X connect 1 0 4 0;
#X connect 1 0 10 1;
#X connect 2 0 0 1;
#X connect 3 0 25 0;
#X connect 4 0 7 1;
#X connect 4 0 9 0;
#X connect 5 0 6 1;
#X connect 6 0 5 0;
#X connect 6 0 8 0;
#X connect 7 0 10 1;
#X connect 8 0 7 0;
#X connect 9 0 11 1;
#X connect 10 0 11 0;
#X connect 11 0 24 0;
#X connect 12 0 19 0;
#X connect 13 0 26 0;
#X connect 14 0 27 0;
#X connect 15 0 18 0;
#X connect 15 1 23 0;
#X connect 17 0 21 0;
#X connect 18 0 19 0;
#X connect 19 0 9 1;
#X connect 20 0 12 1;
#X connect 20 1 22 0;
#X connect 21 0 15 1;
#X connect 22 0 15 1;
#X connect 23 0 12 0;
#X connect 25 0 10 0;
#X connect 25 1 6 0;
#X connect 25 2 5 0;
#X connect 25 3 0 0;
#X connect 25 4 4 0;
#X connect 26 0 3 0;
#X connect 26 1 1 0;
#X connect 26 2 15 0;
#X connect 27 0 21 0;
#X connect 27 1 20 0;
