#N canvas 133 22 261 310 16;
#X obj 129 90 list-drip;
#X obj 26 240 f;
#X obj 26 270 outlet;
#X obj 26 20 inlet;
#N canvas 0 22 450 300 once 0;
#X obj 110 75 inlet;
#X obj 105 187 spigot 1;
#X obj 110 104 t b f;
#X msg 125 151 0;
#X msg 165 99 1;
#X obj 165 63 inlet;
#X obj 102 219 outlet;
#X connect 0 0 2 0;
#X connect 1 0 6 0;
#X connect 2 0 3 0;
#X connect 2 1 1 0;
#X connect 3 0 1 1;
#X connect 4 0 1 1;
#X connect 5 0 4 0;
#X restore 166 160 pd once;
#X obj 206 200 f;
#X obj 119 200 max;
#X obj 119 130 t a a;
#X obj 26 60 trigger bang any bang;
#X connect 0 0 7 0;
#X connect 1 0 2 0;
#X connect 3 0 8 0;
#X connect 4 0 6 1;
#X connect 5 0 6 1;
#X connect 6 0 5 0;
#X connect 6 0 1 1;
#X connect 7 0 6 0;
#X connect 7 1 4 0;
#X connect 8 0 1 0;
#X connect 8 1 0 0;
#X connect 8 2 4 1;
#X coords 0 0 1 1 48 46 0;
