#N canvas 133 22 254 257 16;
#X obj 10 -1 inlet;
#X obj 113 59 list-drip;
#X obj 100 99 abs;
#X obj 100 139 list prepend;
#X obj 157 99 t l;
#X obj 10 179 list;
#X obj 10 209 outlet;
#X obj 10 29 trigger bang any bang;
#X connect 0 0 7 0;
#X connect 1 0 2 0;
#X connect 2 0 3 0;
#X connect 3 0 4 0;
#X connect 3 0 5 1;
#X connect 4 0 3 1;
#X connect 5 0 6 0;
#X connect 7 0 5 0;
#X connect 7 1 1 0;
#X connect 7 2 3 1;
#X coords 0 0 1 1 48 46 0;
