#N canvas 289 22 419 264 12;
#X declare -lib iemmatrix;
#X obj -156 223 outlet;
#X obj 72 172 import iemmatrix;
#X obj 1 12 inlet indexes;
#X obj -196 12 inlet list;
#X obj -196 122 cyclone/prepend;
#X msg -94 92 matrix 1 \$1;
#X obj -196 163 mtx_index;
#X obj 1 122 cyclone/prepend;
#X msg 103 92 matrix 1 \$1;
#X obj 103 62 list length;
#X obj 1 42 t a a;
#X obj -94 12 inlet size;
#X obj -196 193 list split 3;
#X connect 2 0 10 0;
#X connect 3 0 4 0;
#X connect 4 0 6 0;
#X connect 5 0 4 1;
#X connect 6 0 12 0;
#X connect 7 0 6 1;
#X connect 8 0 7 1;
#X connect 9 0 8 0;
#X connect 10 0 7 0;
#X connect 10 1 9 0;
#X connect 11 0 5 0;
#X connect 12 1 0 0;
#X coords 0 0 1 1 200 30 0;
