#N canvas 529 -586 458 381 12;
#X obj -6 287 list-emath +;
#X obj 75 257 list-emath +;
#X obj -75 147 list-emath -;
#X obj 75 147 list-emath -;
#X obj 225 147 list-emath -;
#X obj -75 217 list-emath *;
#X obj -75 177 t l l;
#X obj 75 217 list-emath *;
#X obj 75 177 t l l;
#X obj 225 217 list-emath *;
#X obj 225 177 t l l;
#X obj -6 347 outlet;
#X obj -6 317 list-apply sqrt;
#X text -77 2 euclidean = sqrt( (x1-x2)^2 + (y1-y2)^2 + (z1-z2)^2 )
;
#X text -77 22 inlets are lists;
#X text 123 345 Juan Ignacio Mendoza G. - 2018;
#X obj 135 77 s \$0-x2;
#X obj -75 77 s \$0-x1;
#X obj 205 77 s \$0-y2;
#X obj -5 77 s \$0-y1;
#X obj 275 77 s \$0-z2;
#X obj 65 77 s \$0-z1;
#X obj 135 47 inlet x2;
#X obj -75 47 inlet x1;
#X obj 205 47 inlet y2;
#X obj -5 47 inlet y1;
#X obj 275 47 inlet z2;
#X obj 65 47 inlet z1;
#X obj 6 117 r \$0-x1;
#X obj -75 117 r \$0-x2;
#X obj 75 117 r \$0-y2;
#X obj 156 117 r \$0-y1;
#X obj 225 117 r \$0-z2;
#X obj 306 117 r \$0-z1;
#X connect 0 0 12 0;
#X connect 1 0 0 1;
#X connect 2 0 6 0;
#X connect 3 0 8 0;
#X connect 4 0 10 0;
#X connect 5 0 0 0;
#X connect 6 0 5 0;
#X connect 6 1 5 1;
#X connect 7 0 1 0;
#X connect 8 0 7 0;
#X connect 8 1 7 1;
#X connect 9 0 1 1;
#X connect 10 0 9 0;
#X connect 10 1 9 1;
#X connect 12 0 11 0;
#X connect 22 0 16 0;
#X connect 23 0 17 0;
#X connect 24 0 18 0;
#X connect 25 0 19 0;
#X connect 26 0 20 0;
#X connect 27 0 21 0;
#X connect 28 0 2 1;
#X connect 29 0 2 0;
#X connect 30 0 3 0;
#X connect 31 0 3 1;
#X connect 32 0 4 0;
#X connect 33 0 4 1;
