#N canvas 412 51 72 180 12;
#N canvas 360 125 328 424 engine 0;
#X floatatom 96 278 0 0 0 0 - - -;
#X obj 96 130 cputime;
#X obj 96 -10 loadbang;
#X obj 96 74 metro 1000;
#X msg 96 18 1;
#X floatatom 96 46 0 0 0 0 - - -;
#X obj 96 102 t b b;
#X obj 96 190 * 0.1;
#X obj 96 159 int;
#X obj 141 305 s meter-vuin;
#X obj 40 305 s meter-num;
#X obj 62 13 tgl 15 0 empty empty empty 17 7 0 10 -262144 -1 -1 0 1
;
#X text 45 -8 on/off;
#X text 44 327 in percent;
#X text 146 327 in VU units;
#X floatatom 141 279 12 0 0 0 - - -;
#X text 97 349 CPU load;
#X obj 141 218 expr (log($f1))/2.303;
#X obj 141 248 expr ((($f1*111)/2))-99;
#X obj 14 13 vu 15 120 meter-vuin empty -1 -8 0 10 -66577 -1 0 0;
#X floatatom 11 146 3 0 0 0 - meter-num n0where;
#X text 45 376 Juan Ignacio Mendoza - 2012;
#X connect 1 0 8 0;
#X connect 2 0 4 0;
#X connect 3 0 6 0;
#X connect 4 0 5 0;
#X connect 5 0 3 0;
#X connect 6 0 1 0;
#X connect 6 1 1 1;
#X connect 7 0 10 0;
#X connect 7 0 0 0;
#X connect 7 0 17 0;
#X connect 8 0 7 0;
#X connect 11 0 5 0;
#X connect 15 0 9 0;
#X connect 17 0 18 0;
#X connect 18 0 15 0;
#X coords 0 -1 1 1 40 174 2 1 1;
#X restore 15 -2 pd engine;
