#N canvas 407 300 182 392 12;
#X obj 76 305 exp;
#X obj 26 245 *;
#X obj 76 275 +;
#X obj 94 125 log;
#X obj 44 125 log;
#X obj 54 175 t b f;
#X obj 44 215 -;
#X obj 26 55 clip 0 1;
#X obj 76 335 outlet;
#X obj 26 25 inlet;
#X obj 94 55 loadbang;
#X obj 44 95 f \$2;
#X obj 94 95 f \$1;
#X connect 0 0 8 0;
#X connect 1 0 2 0;
#X connect 2 0 0 0;
#X connect 3 0 2 1;
#X connect 3 0 5 0;
#X connect 4 0 6 0;
#X connect 5 0 6 0;
#X connect 5 1 6 1;
#X connect 6 0 1 1;
#X connect 7 0 1 0;
#X connect 9 0 7 0;
#X connect 10 0 12 0;
#X connect 10 0 11 0;
#X connect 11 0 4 0;
#X connect 12 0 3 0;
