#N canvas 574 162 807 524 12;
#X obj 11 16 cnv 15 190 156 empty empty master_level_8 11 12 0 14 -191407
-13330 0;
#X obj 42 -148 *~;
#X obj 122 -148 *~;
#X obj -18 -252 line~;
#X msg -18 -282 \$1 50;
#X obj 202 -148 *~;
#X obj 282 -148 *~;
#X obj 362 -148 *~;
#X obj 442 -148 *~;
#X obj 522 -148 *~;
#X obj 602 -148 *~;
#X obj 20 43 vsl 15 120 0 1 0 0 \$0-M \$0-nononorcv empty 0 -9 0 10
-228856 -1 -1 11900 1;
#X obj 43 43 vu 8 120 empty empty -1 -8 0 10 -1 -1 0 0;
#X obj 42 -48 env~;
#X obj 63 43 vu 8 120 empty empty -1 -8 0 10 -1 -1 0 0;
#X obj 82 -48 env~;
#X obj 82 -17 - 100;
#X obj 83 43 vu 8 120 empty empty -1 -8 0 10 -1 -1 0 0;
#X obj 122 -48 env~;
#X obj 122 -17 - 100;
#X obj 103 43 vu 8 120 empty empty -1 -8 0 10 -1 -1 0 0;
#X obj 162 -48 env~;
#X obj 162 -17 - 100;
#X obj 123 43 vu 8 120 empty empty -1 -8 0 10 -1 -1 0 0;
#X obj 202 -48 env~;
#X obj 202 -17 - 100;
#X obj 143 43 vu 8 120 empty empty -1 -8 0 10 -1 -1 0 0;
#X obj 242 -48 env~;
#X obj 242 -17 - 100;
#X obj 163 43 vu 8 120 empty empty -1 -8 0 10 -1 -1 0 0;
#X obj 282 -48 env~;
#X obj 282 -17 - 100;
#X obj 183 43 vu 8 120 empty empty -1 -8 0 10 -1 -1 0 0;
#X obj 322 -48 env~;
#X obj 322 -17 - 100;
#X obj -18 -342 inlet;
#X obj 42 -342 inlet~;
#X obj 122 -342 inlet~;
#X obj 202 -342 inlet~;
#X obj 282 -342 inlet~;
#X obj 362 -343 inlet~;
#X obj 442 -342 inlet~;
#X obj 522 -342 inlet~;
#X obj 602 -342 inlet~;
#X obj 362 -48 outlet~;
#X obj 412 -58 outlet~;
#X obj 462 -68 outlet~;
#X obj 512 -78 outlet~;
#X obj 562 -89 outlet~;
#X obj 612 -98 outlet~;
#X obj 662 -108 outlet~;
#X obj 712 -118 outlet~;
#X text 210 159 Juan Ignacio Mendoza - 2018;
#X obj -8 -312 r \$0-M;
#X obj 42 -17 - 100;
#X connect 1 0 13 0;
#X connect 1 0 44 0;
#X connect 2 0 15 0;
#X connect 2 0 45 0;
#X connect 3 0 1 1;
#X connect 3 0 2 1;
#X connect 3 0 5 1;
#X connect 3 0 6 1;
#X connect 3 0 7 1;
#X connect 3 0 8 1;
#X connect 3 0 9 1;
#X connect 3 0 10 1;
#X connect 4 0 3 0;
#X connect 5 0 18 0;
#X connect 5 0 46 0;
#X connect 6 0 21 0;
#X connect 6 0 47 0;
#X connect 7 0 24 0;
#X connect 7 0 48 0;
#X connect 8 0 27 0;
#X connect 8 0 49 0;
#X connect 9 0 30 0;
#X connect 9 0 50 0;
#X connect 10 0 33 0;
#X connect 10 0 51 0;
#X connect 13 0 54 0;
#X connect 15 0 16 0;
#X connect 16 0 14 0;
#X connect 18 0 19 0;
#X connect 19 0 17 0;
#X connect 21 0 22 0;
#X connect 22 0 20 0;
#X connect 24 0 25 0;
#X connect 25 0 23 0;
#X connect 27 0 28 0;
#X connect 28 0 26 0;
#X connect 30 0 31 0;
#X connect 31 0 29 0;
#X connect 33 0 34 0;
#X connect 34 0 32 0;
#X connect 35 0 4 0;
#X connect 36 0 1 0;
#X connect 37 0 2 0;
#X connect 38 0 5 0;
#X connect 39 0 6 0;
#X connect 40 0 7 0;
#X connect 41 0 8 0;
#X connect 42 0 9 0;
#X connect 43 0 10 0;
#X connect 53 0 4 0;
#X connect 54 0 12 0;
#X coords 0 -1 1 1 192 168 2 10 10;
