#N canvas 277 394 922 475 12;
#X obj 283 231 *~;
#X obj -42 -118 inlet~;
#X obj 108 321 outlet~;
#X obj 557 -118 inlet q;
#N canvas 473 23 501 220 q_distro 0;
#X msg 331 157 set \$1;
#X obj 171 8 inlet q;
#X obj 11 127 s \$0-q_slider_rcv;
#X obj 331 7 r \$0-q_slider_snd;
#X obj 331 187 s \$0-q_atom_rcv;
#X obj 11 8 r \$0-q_atom_snd;
#X msg 11 97 set \$1;
#X obj 171 127 outlet q;
#X obj 331 127 f;
#X connect 0 0 4 0;
#X connect 1 0 6 0;
#X connect 1 0 7 0;
#X connect 1 0 8 0;
#X connect 3 0 7 0;
#X connect 3 0 8 0;
#X connect 5 0 6 0;
#X connect 5 0 7 0;
#X connect 6 0 2 0;
#X connect 8 0 0 0;
#X restore 557 44 pd q_distro;
#X obj 2 6 cnv 15 270 110 empty empty empty 2 12 2 18 -162280 -66577
0;
#X obj 4 8 cnv 15 266 106 empty empty empty 2 12 2 18 -261167 -66577
0;
#X obj 6 13 cnv 15 74 20 empty empty MIDI_resonant_filter 2 12 2 18
-261167 -66577 0;
#N canvas 102 23 225 426 bypass_switch 0;
#X obj -8 44 tgl 15 0 empty empty empty 17 7 0 10 -262144 -1 -1 0 1
;
#X obj 42 14 bang;
#X obj 22 74 select 0 1;
#X obj 35 204 s \$0-bp_sw_rcv;
#X msg 2 304 color 20 20 20;
#X obj 2 334 s \$0-bp_sw_rcv;
#X msg 35 174 color 20 22 22;
#X obj 22 274 s \$0-bp_display_rcv;
#X obj 55 144 s \$0-bp_display_rcv;
#X obj 42 -16 r \$0-bp_sw_snd;
#X msg 22 244 label BYPASS \, color 22 3;
#X msg 55 114 label ON \, color 22 6;
#X obj -8 -16 inlet;
#X obj -8 374 s \$0-bypass;
#X connect 0 0 2 0;
#X connect 0 0 13 0;
#X connect 1 0 0 0;
#X connect 2 0 4 0;
#X connect 2 0 10 0;
#X connect 2 1 6 0;
#X connect 2 1 11 0;
#X connect 4 0 5 0;
#X connect 6 0 3 0;
#X connect 9 0 1 0;
#X connect 10 0 7 0;
#X connect 11 0 8 0;
#X connect 12 0 0 0;
#X restore 689 44 pd bypass_switch;
#X obj 432 -78 s \$0-v_slider_rcv;
#X obj 689 -118 inlet bypass/on;
#X obj 53 162 r \$0-bypass;
#X obj 709 -88 loadbang;
#X msg 709 2 0;
#X obj 341 201 r \$0-v_slider_snd;
#X obj -42 192 audio_bypasson;
#X obj 53 222 s~ \$0-stofilt;
#X obj 8 85 cnv 15 233 23 empty empty empty 20 12 0 14 -191407 -66577
0;
#X floatatom 203 87 5 0 1 0 - #0-q_atom_rcv #0-q_atom_snd;
#X obj 114 87 hsl 85 19 0 1 0 0 \$0-q_slider_snd \$0-q_slider_rcv q
38 8 2 14 -99865 -232576 -203904 6720 1;
#X obj 245 40 cnv 15 19 68 empty empty empty 20 12 0 14 -191407 -66577
0;
#X obj 247 44 vsl 15 58 0 1 0 0 \$0-v_slider_snd \$0-v_slider_rcv L
4 28 2 12 -99865 -257985 -262130 5700 1;
#X obj 167 14 cnv 5 98 20 empty empty empty 2 8 0 10 -191407 -261234
0;
#X obj 207 16 vradio 16 1 1 1 \$0-bp_sw_snd \$0-bp_sw_rcv empty 0 -8
0 10 -195568 -195568 -195568 0;
#X obj 224 16 cnv 5 38 16 empty \$0-bp_display_rcv BYPASS 1 9 0 10
-1 -261689 0;
#X obj 234 87 cnv 5 5 20 empty empty empty 20 12 0 14 -191407 -66577
0;
#X obj 8 40 cnv 15 233 40 empty empty empty 20 12 0 14 -191407 -66577
0;
#X obj 10 132 s \$0-MIDI_note_v;
#X obj 283 202 *~;
#X obj 503 171 * 1000;
#X obj 341 231 r~ \$0-stofilt;
#X obj 341 271 *~;
#X obj 457 132 t a a a;
#X obj 634 292 outlet;
#X obj 634 232 r \$0-MIDI_note_v;
#X obj 634 262 unpack f f;
#X obj 701 292 outlet;
#X obj 480 232 expr pow(1 - $f1 \, 2);
#X obj 301 171 expr pow($f1 \, 2) * 100;
#X obj 201 -118 inlet tf;
#X obj 121 -118 inlet tst;
#X obj 432 -118 inlet level;
#X text 126 -88 transpose;
#X obj 503 200 s \$0-reso_q;
#X floatatom 10 87 5 -24 24 1 - #0-TST_atom_rcv #0-TST_atom_snd;
#X floatatom 60 87 5 -1720 1720 0 - #0-TF_atom_rcv #0-TF_atom_snd;
#X obj 121 -28 r \$0-TST_atom_snd;
#X obj 121 -58 s \$0-TST_atom_rcv;
#X obj 201 -88 s \$0-TF_atom_rcv;
#X obj 91 87 cnv 5 5 20 empty empty Fac. 2 12 2 10 -191407 -66577 0
;
#X obj 10 42 MIDI_tgl_60-83;
#X obj 41 87 cnv 5 5 20 empty empty ST 2 12 2 10 -191407 -66577 0;
#X text 14 -99 note;
#X text 14 -63 velocity;
#X obj 390 44 s \$0-env_time_rcv;
#N canvas 579 134 494 654 envelope 0;
#N canvas 0 22 454 304 untils 0;
#X obj 261 160 f;
#X obj 288 162 + 1;
#X obj 261 138 until;
#X msg 299 132 0;
#X obj 261 107 t f b;
#X obj 261 78 inlet;
#X obj 261 190 outlet;
#X connect 0 0 1 0;
#X connect 0 0 6 0;
#X connect 1 0 0 1;
#X connect 2 0 0 0;
#X connect 3 0 0 1;
#X connect 4 0 2 0;
#X connect 4 1 3 0;
#X connect 5 0 4 0;
#X restore 39 177 pd untils;
#X msg 41 152 100;
#X obj 67 235 moses 50;
#X obj 70 272 / 50;
#X obj 39 206 t f f;
#X obj 70 495 pack 0 0;
#X obj 112 267 - 100;
#X obj 113 288 abs;
#X obj 113 309 / 50;
#X obj 149 267 - 100;
#X obj 150 288 abs;
#X obj 73 108 t b f;
#X obj 114 341 expr (0.5 * $f1) + 0.5;
#X obj 113 385 cos;
#X obj 113 366 * 6.28318;
#X obj 113 406 * 0.5;
#X obj 113 426 + 0.5;
#X obj 74 44 * 90;
#X obj 71 76 + 5;
#X obj 277 101 t b f;
#X obj 112 454 pow 1;
#X obj 303 133 + 1;
#X obj 303 344 pow 4;
#X text 23 558 http://www.pdpatchrepo.info/hurleur/grannie-basher.zip
;
#X text 23 538 TWEAKED from Grannie Basher;
#X obj 69 519 s \$0-envelope;
#X obj 277 68 r \$0-env_slope_snd;
#X obj 74 12 r \$0-env_center_snd;
#X connect 0 0 4 0;
#X connect 1 0 0 0;
#X connect 2 0 3 0;
#X connect 2 1 6 0;
#X connect 3 0 12 0;
#X connect 4 0 5 0;
#X connect 4 1 2 0;
#X connect 5 0 25 0;
#X connect 6 0 7 0;
#X connect 7 0 8 0;
#X connect 8 0 12 0;
#X connect 9 0 10 0;
#X connect 10 0 8 1;
#X connect 11 0 1 0;
#X connect 11 1 9 0;
#X connect 11 1 2 1;
#X connect 11 1 3 1;
#X connect 12 0 14 0;
#X connect 13 0 15 0;
#X connect 14 0 13 0;
#X connect 15 0 16 0;
#X connect 16 0 20 0;
#X connect 17 0 18 0;
#X connect 18 0 11 0;
#X connect 19 0 1 0;
#X connect 19 1 21 0;
#X connect 20 0 5 1;
#X connect 21 0 22 0;
#X connect 22 0 20 1;
#X connect 26 0 19 0;
#X connect 27 0 17 0;
#X restore 141 192 pd envelope;
#X obj 10 -118 inlet n v;
#N canvas 566 157 191 120 \$0-envelope_GUI 0;
#N canvas 627 290 199 231 envelope_GUI 0;
#N canvas 0 22 450 300 (subpatch) 0;
#X array \$0-envelope 100 float 1;
#A 0 0 0.0954906 0.34549 0.654507 0.904507 1 0.999727 0.998907 0.997541
0.995632 0.99318 0.990189 0.986663 0.982604 0.978017 0.972908 0.967281
0.961144 0.954502 0.947364 0.939736 0.931627 0.923046 0.914003 0.904507
0.894569 0.884199 0.873409 0.862211 0.850617 0.838639 0.826291 0.813587
0.800539 0.787163 0.773472 0.759483 0.74521 0.730669 0.715876 0.700846
0.685597 0.670145 0.654507 0.6387 0.622741 0.606648 0.590438 0.57413
0.55774 0.541288 0.52479 0.508265 0.491731 0.475206 0.458708 0.442256
0.425866 0.409558 0.393348 0.377256 0.361297 0.34549 0.329852 0.3144
0.299151 0.284121 0.269328 0.254787 0.240514 0.226525 0.212834 0.199458
0.186411 0.173706 0.161358 0.14938 0.137786 0.126588 0.115798 0.105429
0.0954906 0.0859947 0.0769515 0.068371 0.0602624 0.0526347 0.0454961
0.0388546 0.0327172 0.0270909 0.0219817 0.0173952 0.0133364 0.00980976
0.00681913 0.0043678 0.00245839 0.00109309 0.000273317;
#X coords 0 1 99 0 90 63 1;
#X restore 5 27 graph;
#X obj 1 1 cnv 15 178 94 empty empty empty 6 14 0 20 -99865 -1 0;
#X floatatom 100 71 5 0 1000 3 - #0-env_time_rcv #0-env_time_snd;
#X floatatom 100 27 5 0 1 3 - #0-env_center_rcv #0-env_center_snd;
#X floatatom 100 49 5 0 1 3 - #0-env_slope_rcv #0-env_slope_snd;
#X obj 130 27 cnv 15 40 20 empty empty center 2 9 0 12 -99865 -228856
0;
#X obj 5 27 cnv 15 90 63 empty empty empty 6 14 0 20 -228856 -1 0;
#X obj 130 48 cnv 15 40 20 empty empty slope 2 9 0 12 -99865 -228856
0;
#X obj 1 143 pack f \$0;
#X msg 1 174 \; pd-\$2-envelope_GUI vis \$1;
#X obj 130 70 cnv 15 40 20 empty empty time 2 9 0 12 -99865 -228856
0;
#X obj 1 110 r \$0-tgl_env_snd;
#X connect 8 0 9 0;
#X connect 11 0 8 0;
#X coords 0 -1 1 1 180 96 2 0 0;
#X restore 0 -3 pd envelope_GUI;
#X restore 141 162 pd \$0-envelope_GUI;
#X obj 327 104 s \$0-env_center_rcv;
#X obj 358 74 s \$0-env_slope_rcv;
#X obj 193 19 tgl 10 0 \$0-tgl_env_snd \$0-tgl_env_rcv env -22 5 0
10 -262144 -1 -1 0 1;
#X obj 283 132 catch~ \$0-sfromfilt;
#X text 14 -86 (60...83);
#X text 14 -50 (0...127);
#X text 340 -84 center;
#X text 340 -72 slope;
#X text 340 -59 time (ms.);
#X text 334 -96 ENVELOPE:;
#X text 288 322 Juan Ignacio Mendoza 2017-2018;
#X obj 327 -18 unpack f f f f;
#X obj 422 14 s \$0-hold_tgl;
#X obj 327 -119 inlet c s t h;
#X text 340 -42 hold (tgl);
#N canvas 580 304 807 738 reso_filters 0;
#X obj 299 25 unpack f f;
#X obj 331 85 mtof;
#X obj 299 -5 r \$0-MIDI_note_v;
#X obj 299 215 t a a;
#N canvas 0 23 397 154 one_resofilter 0;
#X obj -6 22 r~ \$0-stofilt;
#X obj 100 22 inlet f v;
#X obj 280 22 r \$0-q_tf_et;
#X obj 179 22 r \$0-envelope;
#X obj 185 102 throw~ \$0-sfromfilt;
#X obj 185 72 MIDI_resofilt~;
#X connect 0 0 5 0;
#X connect 1 0 5 1;
#X connect 2 0 5 3;
#X connect 3 0 5 2;
#X connect 5 0 4 0;
#X restore 201 325 pd one_resofilter;
#X obj -59 265 route 60 61 62 63 64 65 66 67 68 69 70 71;
#X obj 331 145 -;
#X obj 349 115 r \$0-TST_atom_snd;
#X text 387 23 note;
#X text 387 35 velocity;
#X obj 299 175 pack f f f;
#X obj 299 55 t f f;
#N canvas 0 23 397 154 one_resofilter 0;
#X obj -6 22 r~ \$0-stofilt;
#X obj 100 22 inlet f v;
#X obj 280 22 r \$0-q_tf_et;
#X obj 179 22 r \$0-envelope;
#X obj 185 102 throw~ \$0-sfromfilt;
#X obj 185 72 MIDI_resofilt~;
#X connect 0 0 5 0;
#X connect 1 0 5 1;
#X connect 2 0 5 3;
#X connect 3 0 5 2;
#X connect 5 0 4 0;
#X restore 177 355 pd one_resofilter;
#N canvas 0 23 397 154 one_resofilter 0;
#X obj -6 22 r~ \$0-stofilt;
#X obj 100 22 inlet f v;
#X obj 280 22 r \$0-q_tf_et;
#X obj 179 22 r \$0-envelope;
#X obj 185 102 throw~ \$0-sfromfilt;
#X obj 185 72 MIDI_resofilt~;
#X connect 0 0 5 0;
#X connect 1 0 5 1;
#X connect 2 0 5 3;
#X connect 3 0 5 2;
#X connect 5 0 4 0;
#X restore 154 385 pd one_resofilter;
#X obj 490 115 f;
#X text 397 187 velocity;
#X text 397 163 note;
#X text 397 175 frequency;
#N canvas 0 23 397 154 one_resofilter 0;
#X obj -6 22 r~ \$0-stofilt;
#X obj 100 22 inlet f v;
#X obj 280 22 r \$0-q_tf_et;
#X obj 179 22 r \$0-envelope;
#X obj 185 102 throw~ \$0-sfromfilt;
#X obj 185 72 MIDI_resofilt~;
#X connect 0 0 5 0;
#X connect 1 0 5 1;
#X connect 2 0 5 3;
#X connect 3 0 5 2;
#X connect 5 0 4 0;
#X restore 130 415 pd one_resofilter;
#N canvas 0 23 397 154 one_resofilter 0;
#X obj -6 22 r~ \$0-stofilt;
#X obj 100 22 inlet f v;
#X obj 280 22 r \$0-q_tf_et;
#X obj 179 22 r \$0-envelope;
#X obj 185 102 throw~ \$0-sfromfilt;
#X obj 185 72 MIDI_resofilt~;
#X connect 0 0 5 0;
#X connect 1 0 5 1;
#X connect 2 0 5 3;
#X connect 3 0 5 2;
#X connect 5 0 4 0;
#X restore 106 445 pd one_resofilter;
#N canvas 0 23 397 154 one_resofilter 0;
#X obj -6 22 r~ \$0-stofilt;
#X obj 100 22 inlet f v;
#X obj 280 22 r \$0-q_tf_et;
#X obj 179 22 r \$0-envelope;
#X obj 185 102 throw~ \$0-sfromfilt;
#X obj 185 72 MIDI_resofilt~;
#X connect 0 0 5 0;
#X connect 1 0 5 1;
#X connect 2 0 5 3;
#X connect 3 0 5 2;
#X connect 5 0 4 0;
#X restore 83 475 pd one_resofilter;
#N canvas 0 23 397 154 one_resofilter 0;
#X obj -6 22 r~ \$0-stofilt;
#X obj 100 22 inlet f v;
#X obj 280 22 r \$0-q_tf_et;
#X obj 179 22 r \$0-envelope;
#X obj 185 102 throw~ \$0-sfromfilt;
#X obj 185 72 MIDI_resofilt~;
#X connect 0 0 5 0;
#X connect 1 0 5 1;
#X connect 2 0 5 3;
#X connect 3 0 5 2;
#X connect 5 0 4 0;
#X restore 59 505 pd one_resofilter;
#N canvas 0 23 397 154 one_resofilter 0;
#X obj -6 22 r~ \$0-stofilt;
#X obj 100 22 inlet f v;
#X obj 280 22 r \$0-q_tf_et;
#X obj 179 22 r \$0-envelope;
#X obj 185 102 throw~ \$0-sfromfilt;
#X obj 185 72 MIDI_resofilt~;
#X connect 0 0 5 0;
#X connect 1 0 5 1;
#X connect 2 0 5 3;
#X connect 3 0 5 2;
#X connect 5 0 4 0;
#X restore 35 535 pd one_resofilter;
#N canvas 0 23 397 154 one_resofilter 0;
#X obj -6 22 r~ \$0-stofilt;
#X obj 100 22 inlet f v;
#X obj 280 22 r \$0-q_tf_et;
#X obj 179 22 r \$0-envelope;
#X obj 185 102 throw~ \$0-sfromfilt;
#X obj 185 72 MIDI_resofilt~;
#X connect 0 0 5 0;
#X connect 1 0 5 1;
#X connect 2 0 5 3;
#X connect 3 0 5 2;
#X connect 5 0 4 0;
#X restore 12 565 pd one_resofilter;
#N canvas 0 23 397 154 one_resofilter 0;
#X obj -6 22 r~ \$0-stofilt;
#X obj 100 22 inlet f v;
#X obj 280 22 r \$0-q_tf_et;
#X obj 179 22 r \$0-envelope;
#X obj 185 102 throw~ \$0-sfromfilt;
#X obj 185 72 MIDI_resofilt~;
#X connect 0 0 5 0;
#X connect 1 0 5 1;
#X connect 2 0 5 3;
#X connect 3 0 5 2;
#X connect 5 0 4 0;
#X restore -12 595 pd one_resofilter;
#N canvas 0 23 397 154 one_resofilter 0;
#X obj -6 22 r~ \$0-stofilt;
#X obj 100 22 inlet f v;
#X obj 280 22 r \$0-q_tf_et;
#X obj 179 22 r \$0-envelope;
#X obj 185 102 throw~ \$0-sfromfilt;
#X obj 185 72 MIDI_resofilt~;
#X connect 0 0 5 0;
#X connect 1 0 5 1;
#X connect 2 0 5 3;
#X connect 3 0 5 2;
#X connect 5 0 4 0;
#X restore -36 625 pd one_resofilter;
#N canvas 0 23 397 154 one_resofilter 0;
#X obj -6 22 r~ \$0-stofilt;
#X obj 100 22 inlet f v;
#X obj 280 22 r \$0-q_tf_et;
#X obj 179 22 r \$0-envelope;
#X obj 185 102 throw~ \$0-sfromfilt;
#X obj 185 72 MIDI_resofilt~;
#X connect 0 0 5 0;
#X connect 1 0 5 1;
#X connect 2 0 5 3;
#X connect 3 0 5 2;
#X connect 5 0 4 0;
#X restore -59 655 pd one_resofilter;
#N canvas 0 23 397 154 one_resofilter 0;
#X obj -6 22 r~ \$0-stofilt;
#X obj 100 22 inlet f v;
#X obj 280 22 r \$0-q_tf_et;
#X obj 179 22 r \$0-envelope;
#X obj 185 102 throw~ \$0-sfromfilt;
#X obj 185 72 MIDI_resofilt~;
#X connect 0 0 5 0;
#X connect 1 0 5 1;
#X connect 2 0 5 3;
#X connect 3 0 5 2;
#X connect 5 0 4 0;
#X restore 591 325 pd one_resofilter;
#N canvas 0 23 397 154 one_resofilter 0;
#X obj -6 22 r~ \$0-stofilt;
#X obj 100 22 inlet f v;
#X obj 280 22 r \$0-q_tf_et;
#X obj 179 22 r \$0-envelope;
#X obj 185 102 throw~ \$0-sfromfilt;
#X obj 185 72 MIDI_resofilt~;
#X connect 0 0 5 0;
#X connect 1 0 5 1;
#X connect 2 0 5 3;
#X connect 3 0 5 2;
#X connect 5 0 4 0;
#X restore 567 355 pd one_resofilter;
#N canvas 0 23 397 154 one_resofilter 0;
#X obj -6 22 r~ \$0-stofilt;
#X obj 100 22 inlet f v;
#X obj 280 22 r \$0-q_tf_et;
#X obj 179 22 r \$0-envelope;
#X obj 185 102 throw~ \$0-sfromfilt;
#X obj 185 72 MIDI_resofilt~;
#X connect 0 0 5 0;
#X connect 1 0 5 1;
#X connect 2 0 5 3;
#X connect 3 0 5 2;
#X connect 5 0 4 0;
#X restore 544 385 pd one_resofilter;
#N canvas 0 23 397 154 one_resofilter 0;
#X obj -6 22 r~ \$0-stofilt;
#X obj 100 22 inlet f v;
#X obj 280 22 r \$0-q_tf_et;
#X obj 179 22 r \$0-envelope;
#X obj 185 102 throw~ \$0-sfromfilt;
#X obj 185 72 MIDI_resofilt~;
#X connect 0 0 5 0;
#X connect 1 0 5 1;
#X connect 2 0 5 3;
#X connect 3 0 5 2;
#X connect 5 0 4 0;
#X restore 520 415 pd one_resofilter;
#N canvas 0 23 397 154 one_resofilter 0;
#X obj -6 22 r~ \$0-stofilt;
#X obj 100 22 inlet f v;
#X obj 280 22 r \$0-q_tf_et;
#X obj 179 22 r \$0-envelope;
#X obj 185 102 throw~ \$0-sfromfilt;
#X obj 185 72 MIDI_resofilt~;
#X connect 0 0 5 0;
#X connect 1 0 5 1;
#X connect 2 0 5 3;
#X connect 3 0 5 2;
#X connect 5 0 4 0;
#X restore 496 445 pd one_resofilter;
#N canvas 0 23 397 154 one_resofilter 0;
#X obj -6 22 r~ \$0-stofilt;
#X obj 100 22 inlet f v;
#X obj 280 22 r \$0-q_tf_et;
#X obj 179 22 r \$0-envelope;
#X obj 185 102 throw~ \$0-sfromfilt;
#X obj 185 72 MIDI_resofilt~;
#X connect 0 0 5 0;
#X connect 1 0 5 1;
#X connect 2 0 5 3;
#X connect 3 0 5 2;
#X connect 5 0 4 0;
#X restore 473 475 pd one_resofilter;
#N canvas 0 23 397 154 one_resofilter 0;
#X obj -6 22 r~ \$0-stofilt;
#X obj 100 22 inlet f v;
#X obj 280 22 r \$0-q_tf_et;
#X obj 179 22 r \$0-envelope;
#X obj 185 102 throw~ \$0-sfromfilt;
#X obj 185 72 MIDI_resofilt~;
#X connect 0 0 5 0;
#X connect 1 0 5 1;
#X connect 2 0 5 3;
#X connect 3 0 5 2;
#X connect 5 0 4 0;
#X restore 449 505 pd one_resofilter;
#N canvas 0 23 397 154 one_resofilter 0;
#X obj -6 22 r~ \$0-stofilt;
#X obj 100 22 inlet f v;
#X obj 280 22 r \$0-q_tf_et;
#X obj 179 22 r \$0-envelope;
#X obj 185 102 throw~ \$0-sfromfilt;
#X obj 185 72 MIDI_resofilt~;
#X connect 0 0 5 0;
#X connect 1 0 5 1;
#X connect 2 0 5 3;
#X connect 3 0 5 2;
#X connect 5 0 4 0;
#X restore 425 535 pd one_resofilter;
#N canvas 0 23 397 154 one_resofilter 0;
#X obj -6 22 r~ \$0-stofilt;
#X obj 100 22 inlet f v;
#X obj 280 22 r \$0-q_tf_et;
#X obj 179 22 r \$0-envelope;
#X obj 185 102 throw~ \$0-sfromfilt;
#X obj 185 72 MIDI_resofilt~;
#X connect 0 0 5 0;
#X connect 1 0 5 1;
#X connect 2 0 5 3;
#X connect 3 0 5 2;
#X connect 5 0 4 0;
#X restore 402 565 pd one_resofilter;
#N canvas 0 23 397 154 one_resofilter 0;
#X obj -6 22 r~ \$0-stofilt;
#X obj 100 22 inlet f v;
#X obj 280 22 r \$0-q_tf_et;
#X obj 179 22 r \$0-envelope;
#X obj 185 102 throw~ \$0-sfromfilt;
#X obj 185 72 MIDI_resofilt~;
#X connect 0 0 5 0;
#X connect 1 0 5 1;
#X connect 2 0 5 3;
#X connect 3 0 5 2;
#X connect 5 0 4 0;
#X restore 378 595 pd one_resofilter;
#N canvas 0 23 397 154 one_resofilter 0;
#X obj -6 22 r~ \$0-stofilt;
#X obj 100 22 inlet f v;
#X obj 280 22 r \$0-q_tf_et;
#X obj 179 22 r \$0-envelope;
#X obj 185 102 throw~ \$0-sfromfilt;
#X obj 185 72 MIDI_resofilt~;
#X connect 0 0 5 0;
#X connect 1 0 5 1;
#X connect 2 0 5 3;
#X connect 3 0 5 2;
#X connect 5 0 4 0;
#X restore 354 625 pd one_resofilter;
#N canvas 0 23 397 154 one_resofilter 0;
#X obj -6 22 r~ \$0-stofilt;
#X obj 100 22 inlet f v;
#X obj 280 22 r \$0-q_tf_et;
#X obj 179 22 r \$0-envelope;
#X obj 185 102 throw~ \$0-sfromfilt;
#X obj 185 72 MIDI_resofilt~;
#X connect 0 0 5 0;
#X connect 1 0 5 1;
#X connect 2 0 5 3;
#X connect 3 0 5 2;
#X connect 5 0 4 0;
#X restore 331 655 pd one_resofilter;
#X obj 331 265 route 72 73 74 75 76 77 78 79 80 81 82 83;
#N canvas 0 22 367 455 param_packer 0;
#X obj 142 100 r \$0-env_center_snd;
#X obj 12 10 r \$0-reso_q;
#X obj 42 40 r \$0-TF_atom_snd;
#X obj 42 70 t b a;
#X text 175 349 q (resonance);
#X text 175 361 transposing factor;
#X text 175 374 env. time;
#X obj 12 420 s \$0-q_tf_et;
#X obj 92 70 r \$0-env_time_snd;
#X obj 92 100 t b a;
#X text 175 388 env. center;
#X obj 192 161 t b a;
#X obj 142 130 t b a;
#X obj 192 130 r \$0-hold_tgl;
#X text 175 401 hold toggle;
#X obj 12 378 pack f f f f f;
#X connect 0 0 12 0;
#X connect 1 0 15 0;
#X connect 2 0 3 0;
#X connect 3 0 15 0;
#X connect 3 1 15 1;
#X connect 8 0 9 0;
#X connect 9 0 15 0;
#X connect 9 1 15 2;
#X connect 11 0 15 0;
#X connect 11 1 15 4;
#X connect 12 0 15 0;
#X connect 12 1 15 3;
#X connect 13 0 11 0;
#X connect 15 0 7 0;
#X restore 57 103 pd param_packer;
#X connect 0 0 11 0;
#X connect 0 1 14 0;
#X connect 1 0 6 0;
#X connect 2 0 0 0;
#X connect 3 0 5 0;
#X connect 3 1 39 0;
#X connect 5 0 26 0;
#X connect 5 1 25 0;
#X connect 5 2 24 0;
#X connect 5 3 23 0;
#X connect 5 4 22 0;
#X connect 5 5 21 0;
#X connect 5 6 20 0;
#X connect 5 7 19 0;
#X connect 5 8 18 0;
#X connect 5 9 13 0;
#X connect 5 10 12 0;
#X connect 5 11 4 0;
#X connect 6 0 10 1;
#X connect 7 0 6 1;
#X connect 10 0 3 0;
#X connect 11 0 10 0;
#X connect 11 1 1 0;
#X connect 14 0 10 2;
#X connect 39 0 38 0;
#X connect 39 1 37 0;
#X connect 39 2 36 0;
#X connect 39 3 35 0;
#X connect 39 4 34 0;
#X connect 39 5 33 0;
#X connect 39 6 32 0;
#X connect 39 7 31 0;
#X connect 39 8 30 0;
#X connect 39 9 29 0;
#X connect 39 10 28 0;
#X connect 39 11 27 0;
#X restore 141 132 pd reso_filters;
#N canvas 1261 444 152 225 mute_all 0;
#X obj 12 10 inlet;
#X obj 86 190 outlet;
#X obj 12 100 until;
#X obj 86 130 cup;
#X obj 12 40 trigger b b;
#X msg 86 160 \$1 0;
#X obj 82 10 inlet;
#X msg 86 70 1;
#X msg 12 70 145;
#X connect 0 0 4 0;
#X connect 2 0 3 0;
#X connect 3 0 5 0;
#X connect 4 0 8 0;
#X connect 4 1 7 0;
#X connect 5 0 1 0;
#X connect 6 0 4 0;
#X connect 7 0 3 0;
#X connect 8 0 2 0;
#X restore 745 -28 pd mute_all;
#X obj 745 2 s \$0-mute;
#X obj 20 -28 r \$0-mute;
#X obj 745 -58 bng 15 250 50 0 empty empty empty 17 7 0 10 -262144
-1 -1;
#X msg 567 -48 1;
#X obj 567 14 s \$0-TF_atom_rcv;
#X connect 0 0 2 0;
#X connect 1 0 15 0;
#X connect 3 0 4 0;
#X connect 4 0 32 0;
#X connect 10 0 8 0;
#X connect 11 0 15 1;
#X connect 12 0 13 0;
#X connect 12 0 78 0;
#X connect 12 0 77 0;
#X connect 13 0 8 0;
#X connect 14 0 0 1;
#X connect 15 0 2 0;
#X connect 15 1 16 0;
#X connect 28 0 0 0;
#X connect 29 0 43 0;
#X connect 30 0 31 0;
#X connect 31 0 2 0;
#X connect 32 0 38 0;
#X connect 32 1 37 0;
#X connect 32 2 29 0;
#X connect 34 0 35 0;
#X connect 35 0 33 0;
#X connect 35 1 36 0;
#X connect 37 0 31 1;
#X connect 38 0 28 1;
#X connect 39 0 48 0;
#X connect 40 0 47 0;
#X connect 41 0 9 0;
#X connect 46 0 50 1;
#X connect 50 0 27 0;
#X connect 56 0 50 0;
#X connect 61 0 28 0;
#X connect 69 0 58 0;
#X connect 69 1 59 0;
#X connect 69 2 54 0;
#X connect 69 3 70 0;
#X connect 71 0 69 0;
#X connect 74 0 75 0;
#X connect 76 0 50 0;
#X connect 77 0 74 0;
#X connect 78 0 70 0;
#X connect 78 0 79 0;
#X coords 0 -1 1 1 272 120 2 1 1;
