#N canvas 86 23 960 768 12;
#X obj 429 230 tgl_button;
#X obj 429 110 route 72 73 74 75 76 77 78 79 80 81 82 83;
#X obj 448 230 tgl_button;
#X obj 467 230 tgl_button;
#X obj 486 230 tgl_button;
#X obj 505 230 tgl_button;
#X obj 524 230 tgl_button;
#X obj 543 230 tgl_button;
#X obj 562 230 tgl_button;
#X obj 581 230 tgl_button;
#X obj 600 230 tgl_button;
#X obj 619 230 tgl_button;
#X obj 638 230 tgl_button;
#X msg 429 610 72 \$1;
#X msg 448 580 73 \$1;
#X msg 486 520 75 \$1;
#X msg 505 490 76 \$1;
#X msg 524 460 77 \$1;
#X msg 543 430 78 \$1;
#X msg 562 400 79 \$1;
#X msg 581 370 80 \$1;
#X msg 600 340 81 \$1;
#X msg 619 310 82 \$1;
#X msg 638 280 83 \$1;
#X msg 467 550 74 \$1;
#X obj 638 660 s \$0-MIDI_list;
#X obj 429 248 tgl_button;
#X obj 448 248 tgl_button;
#X obj 467 248 tgl_button;
#X obj 486 248 tgl_button;
#X obj 505 248 tgl_button;
#X obj 524 248 tgl_button;
#X obj 543 248 tgl_button;
#X obj 562 248 tgl_button;
#X obj 581 248 tgl_button;
#X obj 600 248 tgl_button;
#X obj 619 248 tgl_button;
#X obj 638 248 tgl_button;
#X obj 208 660 s \$0-MIDI_list;
#X obj -1 110 route 60 61 62 63 64 65 66 67 68 69 70 71;
#X msg -1 610 60 \$1;
#X msg 18 580 61 \$1;
#X msg 37 550 62 \$1;
#X msg 56 520 63 \$1;
#X msg 75 490 64 \$1;
#X msg 94 460 65 \$1;
#X msg 113 430 66 \$1;
#X msg 132 400 67 \$1;
#X msg 151 370 68 \$1;
#X msg 170 340 69 \$1;
#X msg 189 310 70 \$1;
#X msg 208 280 71 \$1;
#X obj 738 110 r \$0-setvelcol;
#X obj 308 110 r \$0-setvelcol;
#X text 133 246 to inspect move this row to the left --->;
#X obj 630 -60 inlet set GUI velocity colour;
#X obj 630 -30 s \$0-setvelcol;
#X obj 321 660 outlet;
#X obj 306 -60 inlet MIDI note v;
#X obj 350 60 t a a;
#X obj 321 630 r \$0-MIDI_list;
#X obj 350 0 +;
#X obj 306 -30 unpack f f;
#X obj 350 30 pack f f;
#X obj 450 -60 inlet transpo ST;
#X connect 0 0 13 0;
#X connect 1 0 0 0;
#X connect 1 1 2 0;
#X connect 1 2 3 0;
#X connect 1 3 4 0;
#X connect 1 4 5 0;
#X connect 1 5 6 0;
#X connect 1 6 7 0;
#X connect 1 7 8 0;
#X connect 1 8 9 0;
#X connect 1 9 10 0;
#X connect 1 10 11 0;
#X connect 1 11 12 0;
#X connect 2 0 14 0;
#X connect 3 0 24 0;
#X connect 4 0 15 0;
#X connect 5 0 16 0;
#X connect 6 0 17 0;
#X connect 7 0 18 0;
#X connect 8 0 19 0;
#X connect 9 0 20 0;
#X connect 10 0 21 0;
#X connect 11 0 22 0;
#X connect 12 0 23 0;
#X connect 13 0 25 0;
#X connect 14 0 25 0;
#X connect 15 0 25 0;
#X connect 16 0 25 0;
#X connect 17 0 25 0;
#X connect 18 0 25 0;
#X connect 19 0 25 0;
#X connect 20 0 25 0;
#X connect 21 0 25 0;
#X connect 22 0 25 0;
#X connect 23 0 25 0;
#X connect 24 0 25 0;
#X connect 26 0 40 0;
#X connect 27 0 41 0;
#X connect 28 0 42 0;
#X connect 29 0 43 0;
#X connect 30 0 44 0;
#X connect 31 0 45 0;
#X connect 32 0 46 0;
#X connect 33 0 47 0;
#X connect 34 0 48 0;
#X connect 35 0 49 0;
#X connect 36 0 50 0;
#X connect 37 0 51 0;
#X connect 39 0 26 0;
#X connect 39 1 27 0;
#X connect 39 2 28 0;
#X connect 39 3 29 0;
#X connect 39 4 30 0;
#X connect 39 5 31 0;
#X connect 39 6 32 0;
#X connect 39 7 33 0;
#X connect 39 8 34 0;
#X connect 39 9 35 0;
#X connect 39 10 36 0;
#X connect 39 11 37 0;
#X connect 40 0 38 0;
#X connect 41 0 38 0;
#X connect 42 0 38 0;
#X connect 43 0 38 0;
#X connect 44 0 38 0;
#X connect 45 0 38 0;
#X connect 46 0 38 0;
#X connect 47 0 38 0;
#X connect 48 0 38 0;
#X connect 49 0 38 0;
#X connect 50 0 38 0;
#X connect 51 0 38 0;
#X connect 52 0 0 1;
#X connect 52 0 2 1;
#X connect 52 0 3 1;
#X connect 52 0 4 1;
#X connect 52 0 5 1;
#X connect 52 0 6 1;
#X connect 52 0 7 1;
#X connect 52 0 8 1;
#X connect 52 0 9 1;
#X connect 52 0 10 1;
#X connect 52 0 11 1;
#X connect 52 0 12 1;
#X connect 53 0 26 1;
#X connect 53 0 27 1;
#X connect 53 0 28 1;
#X connect 53 0 29 1;
#X connect 53 0 30 1;
#X connect 53 0 31 1;
#X connect 53 0 32 1;
#X connect 53 0 33 1;
#X connect 53 0 34 1;
#X connect 53 0 35 1;
#X connect 53 0 36 1;
#X connect 53 0 37 1;
#X connect 55 0 56 0;
#X connect 58 0 62 0;
#X connect 59 0 39 0;
#X connect 59 1 1 0;
#X connect 60 0 57 0;
#X connect 61 0 63 0;
#X connect 62 0 61 0;
#X connect 62 1 63 1;
#X connect 63 0 59 0;
#X connect 64 0 61 1;
#X coords 0 -1 1 1 229 36 1 428 230;
