#N canvas 203 200 514 780 12;
#X obj 51 -52 inlet;
#X obj 18 491 metro;
#X obj 64 451 * 1000;
#X obj 244 -52 inlet;
#X msg 18 451 1;
#X obj -53 108 cup;
#X msg 1 48 1;
#X obj 251 638 outlet;
#X obj 51 -22 select 1 0 2;
#X obj 78 18 s \$0-seis;
#X obj -75 271 r \$0-seis;
#X obj 64 581 s \$0-seis;
#X msg -75 301 0;
#X msg 56 288 0;
#X text 6 680 Juan Ignacio Mendoza Garay - 2019;
#X obj -35 331 r \$0-jatkaa;
#X obj 159 18 s \$0-jatkaa;
#X obj 149 108 cyclone/gate 2;
#X obj 156 238 list;
#X obj 251 238 list;
#X msg 149 78 1;
#X obj 149 138 t b a;
#X obj 244 138 t b a;
#X msg 98 138 2;
#X obj 149 48 loadbang;
#X obj -53 138 t b a;
#X obj 195 168 r \$0-index;
#X obj 290 168 r \$0-index;
#X obj -53 18 t bang bang bang;
#X obj -77 521 cyclone/gate 2;
#X msg -128 481 1;
#X msg -128 521 2;
#N canvas 564 417 289 249 information 0;
#X text -116 7 0 = stop;
#X text -116 -13 1 = start from beginning;
#X text -116 27 2 = resume;
#X text -126 -33 INLET 1:;
#X text -126 57 INLET 2:;
#X text 8 137 1 at 10 s.;
#X text -76 117 will output:;
#X text -116 97 e.g.: 10 12 20 \, 1 3 5;
#X text 8 157 3 at 12 s.;
#X text 8 177 5 at 20 s.;
#X text -116 77 2 lists: elapsed times (s) \, outputs;
#X restore 262 48 pd information;
#X obj 18 371 -;
#X obj 156 271 zl nth;
#X obj 251 271 zl nth;
#X obj 161 351 f;
#X obj 156 301 t a a b;
#X obj 18 401 t b b a;
#X obj 18 551 t b b b;
#X obj 41 611 s \$0-tulos;
#X obj 202 198 r \$0-tulos;
#X obj 18 641 s \$0-seuraava;
#X obj -82 -22 r \$0-seuraava;
#X obj -21 208 s \$0-index;
#X connect 0 0 8 0;
#X connect 1 0 29 1;
#X connect 2 0 1 1;
#X connect 3 0 17 1;
#X connect 4 0 1 0;
#X connect 5 0 25 0;
#X connect 6 0 5 0;
#X connect 8 0 28 0;
#X connect 8 1 9 0;
#X connect 8 2 16 0;
#X connect 10 0 12 0;
#X connect 12 0 1 0;
#X connect 13 0 36 1;
#X connect 15 0 4 0;
#X connect 17 0 21 0;
#X connect 17 1 22 0;
#X connect 18 0 34 0;
#X connect 19 0 35 0;
#X connect 20 0 17 0;
#X connect 21 0 23 0;
#X connect 21 1 18 1;
#X connect 22 0 20 0;
#X connect 22 1 19 1;
#X connect 23 0 17 0;
#X connect 24 0 20 0;
#X connect 25 0 18 0;
#X connect 25 1 44 0;
#X connect 26 0 34 1;
#X connect 27 0 35 1;
#X connect 28 0 5 0;
#X connect 28 1 6 0;
#X connect 28 2 13 0;
#X connect 29 0 31 0;
#X connect 29 1 39 0;
#X connect 30 0 29 0;
#X connect 31 0 29 0;
#X connect 33 0 38 0;
#X connect 34 0 37 0;
#X connect 35 0 7 0;
#X connect 36 0 33 1;
#X connect 37 0 33 0;
#X connect 37 1 36 1;
#X connect 37 2 36 0;
#X connect 38 0 4 0;
#X connect 38 1 30 0;
#X connect 38 2 2 0;
#X connect 39 0 42 0;
#X connect 39 1 40 0;
#X connect 39 2 11 0;
#X connect 41 0 19 0;
#X connect 43 0 5 0;
