#N canvas 661 46 138 184 12;
#X declare -lib iemgui -lib vbap -lib iemlib -lib iemmatrix -lib mrpeach
;
#X declare -lib vbap;
#X declare -lib iemgui -lib vbap -lib iemlib -lib iemmatrix -lib mrpeach
;
#X declare -lib vbap;
#X declare -lib mrpeach;
#N canvas 7 23 628 839 synthesis 1;
#X obj -33 558 audio_limiter;
#X obj -135 379 *~ 1;
#X obj -110 314 vsl 15 60 0 1 0 0 empty empty empty 0 -9 0 10 -262144
-1 -1 0 1;
#X msg -49 276 1;
#X obj -110 261 level;
#X obj 283 379 *~ 1;
#X obj 308 314 vsl 15 60 0 1 0 0 empty empty empty 0 -9 0 10 -262144
-1 -1 0 1;
#X msg 369 276 1;
#X obj 308 261 level;
#X obj -33 662 cart2vbap_8;
#X obj -53 793 dac~ 3 4 5 6 7 8 9 10;
#X obj -77 12 auto_sea_waves;
#X obj 65 379 *~ 1;
#X obj 90 314 vsl 15 60 0 1 0 0 empty empty empty 0 -9 0 10 -262144
-1 -1 0 1;
#X msg 149 276 1;
#X obj 90 261 level;
#N canvas 0 23 375 240 waves_control 0;
#X obj 15 185 outlet control;
#X obj 145 185 outlet level;
#X obj 255 185 outlet onoff;
#X msg 205 75 1;
#X obj 205 45 bng 15 250 50 0 empty empty empty 17 7 0 10 -262144 -1
-1;
#X obj 205 15 loadbang;
#X obj 15 25 r \$0-ag_z;
#X obj 15 55 + 0.5;
#X obj 15 85 *;
#X obj 15 125 * 10;
#X connect 3 0 1 0;
#X connect 3 0 2 0;
#X connect 4 0 3 0;
#X connect 5 0 4 0;
#X connect 6 0 7 0;
#X connect 7 0 8 1;
#X connect 7 0 8 0;
#X connect 8 0 9 0;
#X connect 9 0 0 0;
#X restore -79 -18 pd waves_control;
#X obj -135 146 resonant_filter;
#X obj 65 146 resonant_filter;
#X obj -25 457 granny-smasher;
#N canvas 151 424 549 314 reso-filter_control_1__ 0;
#X obj 12 23 inlet~;
#X obj 12 253 outlet~;
#X obj 111 253 outlet f;
#X obj 231 253 outlet q;
#X obj 321 253 outlet v;
#X msg 361 197 1;
#X obj 361 107 loadbang;
#X obj 394 253 outlet bypass/on;
#X obj 111 223 r \$0-pf_1;
#X obj 231 223 * 2;
#X obj 12 223 *~;
#X obj 30 53 r \$0-ag_z;
#X obj 30 83 - 0.01;
#X obj 231 193 + 0.1;
#X obj 30 123 *;
#X obj 30 163 * 4000;
#X connect 0 0 10 0;
#X connect 5 0 4 0;
#X connect 5 0 7 0;
#X connect 6 0 5 0;
#X connect 8 0 2 0;
#X connect 9 0 3 0;
#X connect 10 0 1 0;
#X connect 11 0 12 0;
#X connect 12 0 13 0;
#X connect 12 0 14 0;
#X connect 12 0 14 1;
#X connect 13 0 9 0;
#X connect 14 0 15 0;
#X connect 15 0 10 1;
#X restore -135 106 pd reso-filter_control_1__;
#N canvas 0 22 530 297 reso-filter_control_2__ 0;
#X obj 12 -47 inlet~;
#X obj 12 173 outlet~;
#X obj 111 173 outlet f;
#X obj 231 173 outlet q;
#X obj 321 173 outlet v;
#X msg 361 137 1;
#X obj 361 37 loadbang;
#X obj 394 173 outlet bypass/on;
#X obj 111 143 r \$0-pf_2;
#X obj 231 143 * 2;
#X obj 12 143 *~;
#X obj 30 -17 r \$0-ag_z;
#X obj 30 13 - 0.01;
#X obj 231 53 + 0.1;
#X obj 30 53 *;
#X obj 30 93 * 4000;
#X connect 0 0 10 0;
#X connect 5 0 4 0;
#X connect 5 0 7 0;
#X connect 6 0 5 0;
#X connect 8 0 2 0;
#X connect 9 0 3 0;
#X connect 10 0 1 0;
#X connect 11 0 12 0;
#X connect 12 0 13 0;
#X connect 12 0 14 0;
#X connect 12 0 14 1;
#X connect 13 0 9 0;
#X connect 14 0 15 0;
#X connect 15 0 10 1;
#X restore 65 106 pd reso-filter_control_2__;
#N canvas 0 23 809 115 granny_control____ 0;
#X obj -48 -7 inlet~;
#X obj -48 53 outlet~;
#X obj 22 -7 inlet~;
#X obj 22 53 outlet~;
#X msg 605 23 1;
#X obj 605 -7 loadbang;
#X obj 114 53 outlet control_levels;
#X obj 274 53 outlet control_randomness;
#X obj 464 53 outlet control_mix;
#X obj 605 53 outlet bypass/on;
#X obj 114 -7 r \$0-GS_1_levels;
#X obj 274 -7 r \$0-GS_1_randomness;
#X obj 464 -7 r \$0-GS_1_mix;
#X connect 0 0 1 0;
#X connect 2 0 3 0;
#X connect 4 0 9 0;
#X connect 5 0 4 0;
#X connect 10 0 6 0;
#X connect 11 0 7 0;
#X connect 12 0 8 0;
#X restore -25 426 pd granny_control____;
#N canvas 183 23 948 132 c2vbap_1___ 0;
#X obj 14 91 outlet x;
#X obj 114 91 outlet y;
#X obj 495 91 outlet reset;
#X obj 384 91 outlet spread;
#X obj 204 91 outlet A;
#X msg 384 61 2;
#X obj -65 91 outlet~;
#X obj 274 91 outlet A-shift;
#X obj -65 11 inlet~;
#X obj 14 11 r \$0-rs_x;
#X obj 114 11 r \$0-rs_y;
#X obj 495 11 loadbang;
#X msg 495 61 define_loudspeakers 2 -90 -45 0 45 90 135 180 -135;
#X connect 5 0 3 0;
#X connect 8 0 6 0;
#X connect 9 0 0 0;
#X connect 10 0 1 0;
#X connect 11 0 12 0;
#X connect 11 0 5 0;
#X connect 12 0 2 0;
#X restore -33 632 pd c2vbap_1___;
#X obj 127 558 audio_limiter;
#X obj 127 662 cart2vbap_8;
#X obj 107 793 dac~ 3 4 5 6 7 8 9 10;
#N canvas 183 23 948 164 c2vbap_2___ 0;
#X obj 14 121 outlet x;
#X obj 114 121 outlet y;
#X obj 495 121 outlet reset;
#X obj 384 121 outlet spread;
#X obj 204 121 outlet A;
#X obj -65 121 outlet~;
#X obj 274 121 outlet A-shift;
#X obj -65 11 inlet~;
#X obj 14 11 r \$0-rs_x;
#X obj 114 11 r \$0-rs_y;
#X obj 495 41 loadbang;
#X msg 495 91 define_loudspeakers 2 -90 -45 0 45 90 135 180 -135;
#X obj 14 41 expr 1-$f1;
#X obj 14 71 abs;
#X obj 114 41 expr 1-$f1;
#X obj 114 71 abs;
#X msg 384 91 10;
#X obj -65 41 /~ 2;
#X connect 7 0 17 0;
#X connect 8 0 12 0;
#X connect 9 0 14 0;
#X connect 10 0 11 0;
#X connect 10 0 16 0;
#X connect 11 0 2 0;
#X connect 12 0 13 0;
#X connect 13 0 0 0;
#X connect 14 0 15 0;
#X connect 15 0 1 0;
#X connect 16 0 3 0;
#X connect 17 0 5 0;
#X restore 127 632 pd c2vbap_2___;
#X obj 283 207 fm_synth;
#N canvas 205 23 994 448 _synth_control_________ 0;
#X obj 681 373 outlet;
#X obj 561 313 outlet;
#X obj 500 283 outlet;
#X obj 438 253 outlet;
#X obj 377 223 outlet;
#X obj 316 193 outlet;
#X obj 254 163 outlet;
#X obj 193 133 outlet;
#X obj 131 103 outlet;
#X obj 70 73 outlet;
#X obj 9 43 outlet;
#X obj 9 13 r \$0-FM_SYNTH_trig_1;
#X obj 70 43 r \$0-FM_SYNTH_M_1;
#X obj 131 73 r \$0-FM_SYNTH_ec_1;
#X obj 193 103 r \$0-FM_SYNTH_es_1;
#X obj 254 133 r \$0-FM_SYNTH_et_1;
#X obj 316 163 r \$0-FM_SYNTH_ol_1;
#X obj 377 193 r \$0-FM_SYNTH_of_1;
#X obj 438 223 r \$0-FM_SYNTH_cf_1;
#X obj 500 253 r \$0-FM_SYNTH_mf_1;
#X obj 561 283 r \$0-FM_SYNTH_fmd_1;
#X obj 621 313 r \$0-FM_SYNTH_fml_1;
#X obj 681 343 r \$0-FM_SYNTH_nl_1;
#X obj 621 343 outlet;
#X obj 831 403 outlet;
#X msg 831 373 1;
#X obj 831 343 loadbang;
#X connect 11 0 10 0;
#X connect 12 0 9 0;
#X connect 13 0 8 0;
#X connect 14 0 7 0;
#X connect 15 0 6 0;
#X connect 16 0 5 0;
#X connect 17 0 4 0;
#X connect 18 0 3 0;
#X connect 19 0 2 0;
#X connect 20 0 1 0;
#X connect 21 0 23 0;
#X connect 22 0 0 0;
#X connect 25 0 24 0;
#X connect 26 0 25 0;
#X restore 283 167 pd _synth_control_________;
#X connect 0 0 23 0;
#X connect 1 0 22 0;
#X connect 2 0 1 1;
#X connect 3 0 4 1;
#X connect 4 0 2 0;
#X connect 4 1 3 0;
#X connect 5 0 22 1;
#X connect 6 0 5 1;
#X connect 7 0 8 1;
#X connect 8 0 6 0;
#X connect 8 1 7 0;
#X connect 9 0 10 0;
#X connect 9 1 10 1;
#X connect 9 2 10 2;
#X connect 9 3 10 3;
#X connect 9 4 10 4;
#X connect 9 5 10 5;
#X connect 9 6 10 6;
#X connect 9 7 10 7;
#X connect 11 0 20 0;
#X connect 11 1 21 0;
#X connect 12 0 22 0;
#X connect 13 0 12 1;
#X connect 14 0 15 1;
#X connect 15 0 13 0;
#X connect 15 1 14 0;
#X connect 16 0 11 0;
#X connect 16 1 11 1;
#X connect 16 2 11 2;
#X connect 17 0 1 0;
#X connect 18 0 12 0;
#X connect 19 0 0 0;
#X connect 19 1 24 0;
#X connect 20 0 17 0;
#X connect 20 1 17 1;
#X connect 20 2 17 2;
#X connect 20 3 17 3;
#X connect 20 4 17 4;
#X connect 21 0 18 0;
#X connect 21 1 18 1;
#X connect 21 2 18 2;
#X connect 21 3 18 3;
#X connect 21 4 18 4;
#X connect 22 0 19 0;
#X connect 22 1 19 1;
#X connect 22 2 19 2;
#X connect 22 3 19 3;
#X connect 22 4 19 4;
#X connect 22 5 19 5;
#X connect 23 0 9 0;
#X connect 23 1 9 1;
#X connect 23 2 9 2;
#X connect 23 3 9 3;
#X connect 23 4 9 4;
#X connect 23 5 9 5;
#X connect 23 6 9 6;
#X connect 24 0 27 0;
#X connect 25 0 26 0;
#X connect 25 1 26 1;
#X connect 25 2 26 2;
#X connect 25 3 26 3;
#X connect 25 4 26 4;
#X connect 25 5 26 5;
#X connect 25 6 26 6;
#X connect 25 7 26 7;
#X connect 27 0 25 0;
#X connect 27 1 25 1;
#X connect 27 2 25 2;
#X connect 27 3 25 3;
#X connect 27 4 25 4;
#X connect 27 5 25 5;
#X connect 27 6 25 6;
#X connect 28 0 5 0;
#X connect 29 0 28 0;
#X connect 29 1 28 1;
#X connect 29 2 28 2;
#X connect 29 3 28 3;
#X connect 29 4 28 4;
#X connect 29 5 28 5;
#X connect 29 6 28 6;
#X connect 29 7 28 7;
#X connect 29 8 28 8;
#X connect 29 9 28 9;
#X connect 29 10 28 10;
#X connect 29 11 28 11;
#X connect 29 12 28 12;
#X restore 12 126 pd synthesis;
#N canvas 769 23 313 155 control 0;
#X obj 31 -21 tgl 15 0 empty \$0-QS_udp_connec_status empty 17 7 0
10 -262144 -1 -1 0 1;
#N canvas 74 266 693 286 Qualisys_OSC 0;
#X obj 71 6 import mrpeach;
#N canvas 889 157 511 692 OSC_from_Qualisys 0;
#N canvas 118 446 469 292 create_udp_receive 0;
#X obj 198 205 outlet;
#X msg -154 135 clear;
#X msg -44 -15 set \$1;
#X obj -124 75 bng 15 250 50 0 empty empty empty 17 7 0 10 -262144
-1 -1;
#X obj -154 -15 route 0 1;
#X msg -124 105 7000;
#X obj -154 -45 inlet on/off;
#X obj -44 -45 inlet port;
#X obj -44 15 t b a;
#X obj -102 176 s pd-\$0-udp1_prov;
#N canvas 676 583 147 94 \$0-udp1_prov 0;
#X restore 38 176 pd \$0-udp1_prov;
#X msg -102 135 clear \, obj 1 1 udpreceive \$1 \, obj 1 50 send udprecout1
\, connect 0 0 1 0;
#X obj 198 176 r udprecout1;
#X connect 1 0 9 0;
#X connect 2 0 8 0;
#X connect 3 0 5 0;
#X connect 4 0 1 0;
#X connect 4 1 3 0;
#X connect 5 0 11 0;
#X connect 6 0 4 0;
#X connect 7 0 2 0;
#X connect 8 0 3 0;
#X connect 8 1 5 0;
#X connect 11 0 9 0;
#X connect 12 0 0 0;
#X restore -69 495 pd create_udp_receive;
#X obj -139 395 udpsend;
#X obj -139 495 tgl 15 0 empty empty empty 17 7 0 10 -262144 -1 -1
0 1;
#X obj -109 345 packOSC;
#X msg 47 394 disconnect;
#X msg -139 64 connect 192.168.1.1 22225;
#X msg -109 134 7000;
#X msg 47 304 send /qtm disconnect;
#X msg 73 264 send /qtm Version;
#X msg 73 174 send /qtm StreamFrames AllFrames 3D;
#X msg 73 235 send /qtm StreamFrames Stop;
#X obj -69 525 unpackOSC;
#X msg -109 164 send /qtm connect \$1;
#X obj -69 565 routeOSC /qtm;
#X obj -69 595 routeOSC /cmd_res /event /3d;
#X obj 59 635 outlet 3d;
#X obj -6 5 inlet;
#X obj -6 35 select 1;
#X obj 47 364 delay 500;
#X obj 47 334 bang;
#X obj -119 94 select 1;
#X obj 73 144 delay 500;
#X obj 150 144 s \$0-QS_udp_off;
#X obj -139 635 outlet;
#X msg -69 465 1;
#X msg 73 204 send /qtm StreamFrames AllFrames 6DEuler;
#X obj 179 635 outlet All;
#X msg -29 465 0;
#X obj 5 434 loadbang;
#X obj -69 435 select 0;
#X obj -69 635 print;
#X connect 0 0 11 0;
#X connect 1 0 2 0;
#X connect 1 0 20 0;
#X connect 1 0 29 0;
#X connect 2 0 23 0;
#X connect 3 0 1 0;
#X connect 4 0 1 0;
#X connect 5 0 1 0;
#X connect 6 0 12 0;
#X connect 6 0 0 1;
#X connect 7 0 3 0;
#X connect 7 0 19 0;
#X connect 8 0 3 0;
#X connect 9 0 3 0;
#X connect 10 0 3 0;
#X connect 11 0 13 0;
#X connect 11 0 26 0;
#X connect 12 0 3 0;
#X connect 13 0 14 0;
#X connect 14 0 30 0;
#X connect 14 2 15 0;
#X connect 16 0 17 0;
#X connect 17 0 5 0;
#X connect 17 1 7 0;
#X connect 18 0 4 0;
#X connect 19 0 18 0;
#X connect 20 0 6 0;
#X connect 20 0 21 0;
#X connect 20 1 22 0;
#X connect 21 0 9 0;
#X connect 24 0 0 0;
#X connect 25 0 3 0;
#X connect 27 0 0 0;
#X connect 28 0 27 0;
#X connect 29 0 27 0;
#X restore -139 86 pd OSC_from_Qualisys;
#X text -173 6 -- DATA FROM QUALISYS MOCAP --;
#X obj -139 36 inlet;
#X obj -139 66 tgl 15 0 empty empty empty 17 7 0 10 -262144 -1 -1 0
1;
#X obj -196 226 outlet x;
#X obj -106 226 outlet y;
#X obj -16 226 outlet z;
#N canvas 680 343 385 339 poll 0;
#X obj 21 10 inlet;
#X obj 21 291 outlet;
#X obj 21 260 spigot;
#X obj 81 10 inlet;
#X msg 172 200 1;
#X obj 60 160 t b b;
#X msg 60 230 0;
#X obj 81 40 moses 1;
#X msg 96 100 1;
#X obj 126 70 t b f f;
#X msg 172 130 5;
#X msg 212 130 10;
#X obj 172 100 select 10 20 50 100 200;
#X msg 252 130 20;
#X obj 60 130 metro 200;
#X obj 60 200 delay 20;
#X connect 0 0 2 0;
#X connect 2 0 1 0;
#X connect 3 0 7 0;
#X connect 4 0 2 1;
#X connect 5 0 15 0;
#X connect 5 1 4 0;
#X connect 6 0 2 1;
#X connect 7 0 14 0;
#X connect 7 1 9 0;
#X connect 8 0 14 0;
#X connect 9 0 8 0;
#X connect 9 1 14 1;
#X connect 9 2 12 0;
#X connect 10 0 15 1;
#X connect 11 0 15 1;
#X connect 12 0 10 0;
#X connect 12 1 11 0;
#X connect 12 2 13 0;
#X connect 12 3 13 0;
#X connect 12 4 13 0;
#X connect 12 5 13 0;
#X connect 13 0 15 1;
#X connect 14 0 5 0;
#X connect 15 0 6 0;
#X restore -2 156 pd poll;
#X msg 164 124 50;
#X msg 204 124 100;
#X obj -2 186 print;
#X msg 124 124 20;
#X msg 44 123 0;
#X msg 84 124 10;
#X msg 244 124 200;
#X text 279 124 <--- interval;
#X text 41 89 polling (in miliseconds):;
#X obj -139 116 tgl 15 0 empty empty empty 17 7 0 10 -262144 -1 -1
0 1;
#X text 41 104 off....5....10....20....20...20.. <--- gap;
#N canvas 32 22 1059 508 ball_pd 0;
#X obj 48 12 inlet osc routed;
#X obj 159 444 outlet x;
#X obj 229 444 outlet y;
#X obj 299 444 outlet z;
#X obj 48 52 routeOSC /ball_1 /ball_2 /ball_3 /ball_4 /ball_5 /ball_6
;
#X obj -206 62 loadbang;
#X obj 159 404 average;
#X obj 229 404 average;
#X obj 299 404 average;
#X obj -206 213 vsl 15 64 2 200 0 0 empty empty empty 0 -9 0 10 -262144
-1 -1 0 1;
#X floatatom -206 291 5 0 0 0 - - -;
#X text -187 235 smooth;
#X text -175 100 polling interval;
#X obj -42 102 unpack f f f;
#X obj 58 102 unpack f f f;
#X obj 158 102 unpack f f f;
#X obj 258 102 unpack f f f;
#X obj 378 102 unpack f f f;
#X obj 478 102 unpack f f f;
#X obj -42 272 expr ($f2+$f3+$f4+$f5+$f6+$f7)/6;
#X obj 198 272 expr ($f2+$f3+$f4+$f5+$f6+$f7)/6;
#X obj 438 272 expr ($f2+$f3+$f4+$f5+$f6+$f7)/6;
#X obj -332 12 inlet onoff;
#X obj -332 132 tgl 15 0 empty empty empty 17 7 0 10 -262144 -1 -1
0 1;
#X msg -206 151 2;
#X msg -206 102 20;
#X obj -332 162 metro 20;
#X connect 0 0 4 0;
#X connect 4 0 13 0;
#X connect 4 1 14 0;
#X connect 4 2 15 0;
#X connect 4 3 16 0;
#X connect 4 4 17 0;
#X connect 4 5 18 0;
#X connect 5 0 25 0;
#X connect 6 0 1 0;
#X connect 7 0 2 0;
#X connect 8 0 3 0;
#X connect 9 0 6 1;
#X connect 9 0 7 1;
#X connect 9 0 8 1;
#X connect 9 0 10 0;
#X connect 13 0 19 1;
#X connect 13 1 20 1;
#X connect 13 2 21 1;
#X connect 14 0 19 2;
#X connect 14 1 20 2;
#X connect 14 2 21 2;
#X connect 15 0 19 3;
#X connect 15 1 20 3;
#X connect 15 2 21 3;
#X connect 16 0 19 4;
#X connect 16 1 20 4;
#X connect 16 2 21 4;
#X connect 17 0 19 5;
#X connect 17 1 20 5;
#X connect 17 2 21 5;
#X connect 18 0 19 6;
#X connect 18 1 20 6;
#X connect 18 2 21 6;
#X connect 19 0 6 0;
#X connect 20 0 7 0;
#X connect 21 0 8 0;
#X connect 22 0 23 0;
#X connect 23 0 26 0;
#X connect 24 0 9 0;
#X connect 25 0 24 0;
#X connect 25 0 26 1;
#X connect 26 0 19 0;
#X connect 26 0 20 0;
#X connect 26 0 21 0;
#X restore -139 156 pd ball_pd;
#X obj -296 226 outlet conn;
#X connect 1 0 18 0;
#X connect 1 1 20 1;
#X connect 1 2 8 0;
#X connect 3 0 4 0;
#X connect 4 0 1 0;
#X connect 8 0 11 0;
#X connect 9 0 8 1;
#X connect 10 0 8 1;
#X connect 12 0 8 1;
#X connect 13 0 8 1;
#X connect 14 0 8 1;
#X connect 15 0 8 1;
#X connect 18 0 20 0;
#X connect 18 0 21 0;
#X connect 20 0 5 0;
#X connect 20 1 6 0;
#X connect 20 2 7 0;
#X restore 31 9 pd Qualisys_OSC;
#X obj 18 99 s pos_x;
#X obj 99 99 s pos_y;
#X obj 180 99 s pos_z;
#X obj 31 39 tgl 15 0 empty \$0-QS_udp_connec_status empty 17 7 0 10
-262144 -1 -1 0 1;
#X text -46 36 status -->;
#X text -46 -24 on/off -->;
#X connect 0 0 1 0;
#X connect 1 0 5 0;
#X connect 1 1 2 0;
#X connect 1 2 3 0;
#X connect 1 3 4 0;
#X restore 12 46 pd control;
#N canvas 785 23 560 606 mapping 1;
#X obj -430 16 cnv 15 67 26 empty empty empty 20 12 0 14 -99865 -66577
0;
#X obj -220 16 cnv 15 67 26 empty empty empty 20 12 0 14 -99865 -66577
0;
#X obj -430 16 cnv 15 65 24 empty empty empty 20 12 0 14 -261234 -66577
0;
#X obj -220 16 cnv 15 65 24 empty empty empty 20 12 0 14 -261682 -66577
0;
#X obj -318 272 vsl 30 128 0.01 1 0 0 empty empty empty 0 -9 0 10 -1
-4032 -1 1 1;
#X floatatom -308 240 5 0 0 0 - - -;
#X obj -414 271 vsl 30 128 0 1 0 0 empty empty empty 0 -9 0 10 -1 -258113
-1 10494 1;
#X obj -103 269 bng 50 250 50 0 empty empty empty 17 7 0 10 -1 -228856
-1;
#X floatatom -404 240 5 0 0 0 - - -;
#X floatatom -194 240 5 0 0 0 - - -;
#X obj -10 16 cnv 15 67 26 empty empty empty 20 12 0 14 -99865 -66577
0;
#X obj -10 16 cnv 15 65 24 empty empty empty 20 12 0 14 -262130 -66577
0;
#X obj -204 271 vsl 30 128 1 0 0 0 empty empty empty 0 -9 0 10 -1 -4034
-1 7062 1;
#X floatatom -93 240 5 0 0 0 - - -;
#X floatatom -424 59 10 0 0 0 - - -;
#X floatatom -214 59 10 0 0 0 - - -;
#X floatatom -4 59 10 0 0 0 - - -;
#X floatatom 16 240 5 0 0 0 - - -;
#X obj 6 271 vsl 30 128 0.01 1 0 0 empty empty empty 0 -9 0 10 -1 -4034
-1 3 1;
#X obj -424 18 r pos_x;
#X obj -214 18 r pos_y;
#X obj -4 18 r pos_z;
#N canvas 302 194 253 455 agitation 0;
#X obj -106 368 rescaler;
#X obj -106 19 inlet;
#X obj -24 19 inlet;
#X obj 58 19 inlet;
#X obj -106 398 outlet;
#X obj -93 328 unpack f f f f;
#X obj -93 268 loadbang;
#X msg -93 298 0 60 0.01 1;
#X obj -106 49 delta;
#X obj -24 49 delta;
#X obj 59 49 delta;
#X obj -106 139 expr ($f1 + $f2 + $f3)/3;
#X obj -106 79 abs;
#X obj -24 79 abs;
#X obj 59 79 abs;
#X obj -106 169 average 99;
#X connect 0 0 4 0;
#X connect 1 0 8 0;
#X connect 2 0 9 0;
#X connect 3 0 10 0;
#X connect 5 0 0 1;
#X connect 5 1 0 2;
#X connect 5 2 0 3;
#X connect 5 3 0 4;
#X connect 6 0 7 0;
#X connect 7 0 5 0;
#X connect 8 0 12 0;
#X connect 9 0 13 0;
#X connect 10 0 14 0;
#X connect 11 0 15 0;
#X connect 12 0 11 0;
#X connect 13 0 11 1;
#X connect 14 0 11 2;
#X connect 15 0 0 0;
#X restore -328 209 pd agitation;
#N canvas 698 280 192 310 rescale_x 0;
#X obj -16 139 rescaler;
#X obj -16 9 inlet;
#X obj -16 249 outlet;
#X obj -3 99 unpack f f f f;
#X obj -3 39 loadbang;
#X msg -3 69 -2300 1000 0 1;
#X connect 0 0 2 0;
#X connect 1 0 0 0;
#X connect 3 0 0 1;
#X connect 3 1 0 2;
#X connect 3 2 0 3;
#X connect 3 3 0 4;
#X connect 4 0 5 0;
#X connect 5 0 3 0;
#X restore -424 209 pd rescale_x;
#N canvas 552 309 192 310 rescale_y 0;
#X obj -16 139 rescaler;
#X obj -16 9 inlet;
#X obj -16 249 outlet;
#X obj -3 99 unpack f f f f;
#X obj -3 39 loadbang;
#X msg -3 69 -1000 1800 1 0;
#X connect 0 0 2 0;
#X connect 1 0 0 0;
#X connect 3 0 0 1;
#X connect 3 1 0 2;
#X connect 3 2 0 3;
#X connect 3 3 0 4;
#X connect 4 0 5 0;
#X connect 5 0 3 0;
#X restore -214 209 pd rescale_y;
#X obj -424 419 s \$0-rs_x;
#X obj -214 419 s \$0-rs_y;
#X obj -113 419 s \$0-impulsion;
#X obj -328 419 s \$0-agitation;
#X obj -424 469 r \$0-rs_x;
#X obj -336 469 r \$0-rs_y;
#N canvas 373 162 758 685 granny_control 0;
#X obj 307 621 s \$0-GS_1_randomness;
#X obj 107 1 loadbang;
#X obj 511 621 s \$0-GS_1_mix;
#X obj 17 621 s \$0-GS_1_levels;
#X obj 17 591 pack f f f f f f f f f f f f f f;
#X obj 307 591 pack f f f f f f f f f;
#X msg 68 333 0.2;
#X msg 85 363 0;
#X obj 317 1 inlet agitation;
#X msg 34 273 0.3;
#X msg 102 393 0;
#X msg 119 424 0.2;
#X msg 51 303 0.2;
#X obj 107 31 bng 15 250 50 0 empty empty empty 17 7 0 10 -262144 -1
-1;
#X msg 382 424 0;
#X msg 439 514 0;
#X msg 458 554 0;
#X msg 344 353 0.2;
#X msg 363 384 0;
#X msg 325 323 0;
#X msg 401 454 0;
#X msg 420 485 0;
#X obj 317 32 t b a;
#X obj 17 61 delay 500;
#X obj 17 91 bang;
#X obj 170 276 + 0.2;
#X msg 221 524 0.1;
#X msg 153 494 0;
#X obj 509 62 average 80;
#X obj 509 121 / 1.5;
#X connect 1 0 13 0;
#X connect 4 0 3 0;
#X connect 5 0 0 0;
#X connect 6 0 4 3;
#X connect 6 0 7 0;
#X connect 7 0 4 4;
#X connect 7 0 10 0;
#X connect 8 0 22 0;
#X connect 9 0 12 0;
#X connect 9 0 4 1;
#X connect 10 0 4 5;
#X connect 10 0 11 0;
#X connect 11 0 4 6;
#X connect 11 0 27 0;
#X connect 12 0 4 2;
#X connect 12 0 6 0;
#X connect 13 0 9 0;
#X connect 13 0 19 0;
#X connect 13 0 23 0;
#X connect 14 0 20 0;
#X connect 14 0 5 4;
#X connect 15 0 5 7;
#X connect 15 0 16 0;
#X connect 16 0 5 8;
#X connect 17 0 18 0;
#X connect 17 0 5 2;
#X connect 18 0 14 0;
#X connect 18 0 5 3;
#X connect 19 0 17 0;
#X connect 19 0 5 1;
#X connect 20 0 21 0;
#X connect 20 0 5 5;
#X connect 21 0 15 0;
#X connect 21 0 5 6;
#X connect 22 0 24 0;
#X connect 22 1 28 0;
#X connect 23 0 24 0;
#X connect 24 0 4 0;
#X connect 24 0 5 0;
#X connect 25 0 4 7;
#X connect 25 0 4 9;
#X connect 25 0 4 10;
#X connect 25 0 4 11;
#X connect 26 0 4 12;
#X connect 27 0 4 8;
#X connect 27 0 26 0;
#X connect 28 0 29 0;
#X connect 29 0 25 0;
#X connect 29 0 2 0;
#X restore -234 559 pd granny_control;
#X obj -234 469 r \$0-agitation;
#X text -425 444 ------------------------------------------------------------
;
#X text -4 444 ----------------;
#X obj -86 469 r \$0-impulsion;
#N canvas 305 458 726 394 synth_control 0;
#X obj 0 18 inlet impulse;
#N canvas 337 419 479 450 _________________________________________FM_SYNTH_sends_1
0;
#X obj 49 373 s \$0-FM_SYNTH_trig_1;
#X obj 60 343 s \$0-FM_SYNTH_M_1;
#X obj 71 313 s \$0-FM_SYNTH_ec_1;
#X obj 83 283 s \$0-FM_SYNTH_es_1;
#X obj 94 253 s \$0-FM_SYNTH_et_1;
#X obj 106 223 s \$0-FM_SYNTH_ol_1;
#X obj 117 193 s \$0-FM_SYNTH_of_1;
#X obj 128 163 s \$0-FM_SYNTH_cf_1;
#X obj 140 133 s \$0-FM_SYNTH_mf_1;
#X obj 151 103 s \$0-FM_SYNTH_fmd_1;
#X obj 163 73 s \$0-FM_SYNTH_fml_1;
#X obj 174 43 s \$0-FM_SYNTH_nl_1;
#X obj -111 313 inlet;
#X obj -100 283 inlet;
#X obj -89 253 inlet;
#X obj -77 223 inlet;
#X obj -66 193 inlet;
#X obj -54 163 inlet;
#X obj -43 133 inlet;
#X obj -32 103 inlet;
#X obj -20 73 inlet;
#X obj -9 43 inlet;
#X obj 3 13 inlet;
#X obj 14 -17 inlet;
#X connect 12 0 0 0;
#X connect 13 0 1 0;
#X connect 14 0 2 0;
#X connect 15 0 3 0;
#X connect 16 0 4 0;
#X connect 17 0 5 0;
#X connect 18 0 6 0;
#X connect 19 0 7 0;
#X connect 20 0 8 0;
#X connect 21 0 9 0;
#X connect 22 0 10 0;
#X connect 23 0 11 0;
#X restore 0 331 pd _________________________________________FM_SYNTH_sends_1
;
#X obj 227 18 inlet f1;
#X obj 297 18 inlet f2;
#X msg 189 297 1;
#X obj 75 118 loadbang;
#X obj 75 158 bng 15 250 50 0 empty empty empty 17 7 0 10 -262144 -1
-1;
#X obj 227 48 / 2;
#X msg 113 257 0.5;
#X msg 37 257 1;
#X msg 341 271 1;
#X obj 297 48 / 64;
#X msg 417 271 0;
#X msg 75 257 0.1;
#X msg 151 267 400 0;
#X connect 0 0 1 0;
#X connect 2 0 7 0;
#X connect 3 0 11 0;
#X connect 4 0 1 5;
#X connect 5 0 6 0;
#X connect 6 0 9 0;
#X connect 6 0 14 0;
#X connect 6 0 13 0;
#X connect 6 0 8 0;
#X connect 6 0 10 0;
#X connect 6 0 12 0;
#X connect 7 0 1 6;
#X connect 8 0 1 3;
#X connect 9 0 1 1;
#X connect 10 0 1 9;
#X connect 10 0 1 10;
#X connect 11 0 1 8;
#X connect 11 0 1 7;
#X connect 12 0 1 11;
#X connect 13 0 1 2;
#X connect 14 0 1 4;
#X connect 14 0 4 0;
#X restore -86 559 pd synth_control;
#N canvas 76 186 238 232 pentascale 0;
#X msg -74 119 1;
#X obj -74 59 loadbang;
#X obj 6 119 int;
#X obj 85 119 int;
#X obj 85 88 * 20;
#X obj 6 88 * 50;
#X obj -44 159 pentacont;
#X obj 6 18 inlet x;
#X obj 85 18 inlet y;
#X obj -64 196 outlet;
#X obj 36 196 outlet;
#X msg -34 119 3;
#X connect 0 0 6 0;
#X connect 1 0 0 0;
#X connect 1 0 11 0;
#X connect 2 0 6 2;
#X connect 3 0 6 3;
#X connect 4 0 3 0;
#X connect 5 0 2 0;
#X connect 6 0 9 0;
#X connect 6 1 10 0;
#X connect 7 0 5 0;
#X connect 8 0 4 0;
#X connect 11 0 6 1;
#X restore -424 529 pd pentascale;
#X obj -424 559 s \$0-pf_1;
#X obj -336 559 s \$0-pf_2;
#X obj -32 499 r \$0-pf_1;
#X obj 23 529 r \$0-pf_2;
#N canvas 230 108 225 325 impulsion 0;
#X obj -64 19 inlet;
#X obj -64 302 outlet;
#X obj -6 19 inlet;
#X obj 52 19 inlet;
#X obj -64 122 euclidean_norm_3D;
#X obj -64 59 delta 2;
#X obj -6 59 delta 2;
#X obj 52 59 delta 2;
#X obj -64 162 average 20;
#N canvas 287 295 274 239 peaks 0;
#X obj 10 16 inlet y;
#X obj 112 196 outlet;
#X obj 112 16 inlet threshold;
#X obj 10 76 local_max;
#X text 119 116 prevent double-taps;
#X obj 10 116 interrupt 250;
#X obj 80 166 moses;
#X connect 0 0 3 0;
#X connect 2 0 6 1;
#X connect 3 0 5 0;
#X connect 5 0 6 0;
#X connect 6 1 1 0;
#X restore -64 262 pd peaks;
#X obj -11 202 loadbang;
#X msg -11 232 10;
#X obj -64 89 abs;
#X obj -6 89 abs;
#X obj 52 89 abs;
#X connect 0 0 5 0;
#X connect 2 0 6 0;
#X connect 3 0 7 0;
#X connect 4 0 8 0;
#X connect 5 0 12 0;
#X connect 6 0 13 0;
#X connect 7 0 14 0;
#X connect 8 0 9 0;
#X connect 9 0 1 0;
#X connect 10 0 11 0;
#X connect 11 0 9 1;
#X connect 12 0 4 0;
#X connect 13 0 4 1;
#X connect 14 0 4 2;
#X restore -113 209 pd impulsion;
#X obj -4 419 s \$0-ag_z;
#N canvas 650 298 313 419 agitation_z 0;
#X obj -16 9 inlet;
#X obj -16 359 outlet;
#X obj -16 59 delta;
#X obj -16 89 abs;
#X obj -16 129 average 99;
#X obj -16 318 rescaler;
#X obj -3 278 unpack f f f f;
#X obj -3 218 loadbang;
#X msg -3 248 0 40 0.01 1;
#X connect 0 0 2 0;
#X connect 2 0 3 0;
#X connect 3 0 4 0;
#X connect 4 0 5 0;
#X connect 5 0 1 0;
#X connect 6 0 5 1;
#X connect 6 1 5 2;
#X connect 6 2 5 3;
#X connect 6 3 5 4;
#X connect 7 0 8 0;
#X connect 8 0 6 0;
#X restore -4 209 pd agitation_z;
#X connect 14 0 22 0;
#X connect 14 0 23 0;
#X connect 14 0 42 0;
#X connect 15 0 22 1;
#X connect 15 0 24 0;
#X connect 15 0 42 1;
#X connect 16 0 42 2;
#X connect 16 0 44 0;
#X connect 16 0 22 2;
#X connect 19 0 14 0;
#X connect 20 0 15 0;
#X connect 21 0 16 0;
#X connect 22 0 5 0;
#X connect 22 0 28 0;
#X connect 22 0 4 0;
#X connect 23 0 8 0;
#X connect 23 0 6 0;
#X connect 23 0 25 0;
#X connect 24 0 9 0;
#X connect 24 0 12 0;
#X connect 24 0 26 0;
#X connect 29 0 37 0;
#X connect 30 0 37 1;
#X connect 32 0 31 0;
#X connect 35 0 36 0;
#X connect 37 0 38 0;
#X connect 37 1 39 0;
#X connect 40 0 36 1;
#X connect 41 0 36 2;
#X connect 42 0 13 0;
#X connect 42 0 7 0;
#X connect 42 0 27 0;
#X connect 44 0 17 0;
#X connect 44 0 18 0;
#X connect 44 0 43 0;
#X restore 12 86 pd mapping;
#X text 18 13 Mockup Ball;
