#N canvas 175 23 962 648 10;
#X obj 17 254 *~;
#X obj 70 178 line~;
#N canvas 185 178 400 290 limiter 0;
#X obj 24 22 inlet~;
#X msg 121 85 limit 100;
#X obj 121 21 loadbang;
#X obj 24 60 z~ 64;
#X obj 24 169 *~;
#X obj 24 200 outlet~;
#X obj 121 113 limiter~ 10;
#X text 22 245 https://guitarextended.wordpress.com/2013/08/05/making-a-looper-with-pure-data/
;
#X text 22 225 extracted from a patch downloaded from;
#X connect 0 0 3 0;
#X connect 0 0 6 0;
#X connect 1 0 6 0;
#X connect 2 0 1 0;
#X connect 3 0 4 0;
#X connect 4 0 5 0;
#X connect 6 0 4 1;
#X restore 17 284 pd limiter;
#X msg 27 374 start;
#X obj 680 186 cup;
#X obj 707 306 samplerate~;
#X obj 680 276 t f b;
#N canvas 330 257 467 300 into_blocks 0;
#X obj 173 101 % 64;
#X obj 146 81 t f f;
#X obj 146 59 int;
#X obj 146 17 inlet;
#X obj 146 167 outlet;
#X text 238 67 to be a multiple of the block size.;
#X text 238 49 Force the length of the tables;
#X text 134 261 Pierre Massat \, Guitar extended \, 2013;
#X obj 146 121 +;
#X text 57 118 HACKED ----->;
#X text 56 194 original downloaded from;
#X text 56 214 https://guitarextended.wordpress.com/2013/08/05/making-a-looper-with-pure-data/
;
#X text 210 101 <-- this number is the block size;
#X text 233 117 it should be the same as in the;
#X text 233 134 menu Media - Audio Settings;
#X connect 0 0 8 1;
#X connect 1 0 8 0;
#X connect 1 1 0 0;
#X connect 2 0 1 0;
#X connect 3 0 2 0;
#X connect 8 0 4 0;
#X restore 680 376 pd into_blocks;
#X msg 680 216 set \$1;
#X msg 680 146 0;
#X obj 741 146 metro 1;
#X msg 338 214 0;
#X obj 338 184 delay 50;
#X obj 293 506 bng 15 250 50 0 empty empty empty 17 7 0 10 -159808
-260097 -1;
#X obj 293 144 select 1;
#X text 517 49 |;
#X text 517 124 |;
#X text 517 134 |;
#X text 517 19 |;
#X text 517 29 |;
#X text 517 39 |;
#X text 520 13 -;
#X text 520 137 -;
#X text 517 69 |;
#X text 517 59 |;
#X text 517 89 |;
#X text 517 79 |;
#X text 517 109 |;
#X text 517 99 |;
#X text 515 78 -;
#X text 177 117 execute fade-in;
#X text 177 131 and fade-out;
#X text 826 174 count approximate;
#X text 826 313 convert miliseconds;
#X text 827 333 to sample blocks;
#X obj 680 346 expr ($f1*$f2)/1000;
#X obj 541 56 samplerate~;
#X obj 541 26 bang;
#X text 810 159 |;
#X text 810 254 |;
#X text 808 257 -;
#X text 810 169 |;
#X text 810 179 |;
#X text 812 193 -;
#X text 810 189 |;
#X text 810 199 |;
#X text 810 209 |;
#X text 810 219 |;
#X text 810 229 |;
#X text 810 239 |;
#X text 810 249 |;
#X text 810 149 |;
#X text 810 139 |;
#X text 808 133 -;
#X text 810 289 |;
#X text 810 384 |;
#X text 808 387 -;
#X text 810 299 |;
#X text 810 309 |;
#X text 812 323 -;
#X text 810 319 |;
#X text 810 329 |;
#X text 810 339 |;
#X text 810 349 |;
#X text 810 359 |;
#X text 810 369 |;
#X text 810 379 |;
#X text 810 279 |;
#X text 810 269 |;
#X text 808 263 -;
#X text 517 223 |;
#X text 517 233 |;
#X text 517 243 |;
#X text 517 373 |;
#X text 517 383 |;
#X text 517 403 |;
#X obj 290 308 cnv 15 131 27 empty empty empty 20 12 0 14 -262130 -66577
0;
#X obj 677 401 cnv 15 131 27 empty empty empty 20 12 0 14 -257985 -66577
0;
#X obj 538 111 cnv 15 131 27 empty empty empty 20 12 0 14 -257985 -66577
0;
#X obj 290 269 cnv 15 94 27 empty empty empty 20 12 0 14 -4034 -66577
0;
#X obj 293 274 s \$0-start_rec;
#X obj 677 1 cnv 15 94 27 empty empty empty 20 12 0 14 -204786 -66577
0;
#X obj 680 6 r \$0-start_rec;
#X obj 25 339 cnv 15 94 27 empty empty empty 20 12 0 14 -204786 -66577
0;
#X obj 27 344 r \$0-start_rec;
#X obj 335 239 cnv 15 89 27 empty empty empty 20 12 0 14 -258113 -66577
0;
#X obj 338 244 s \$0-stop_rec;
#X obj 737 40 cnv 15 89 27 empty empty empty 20 12 0 14 -261234 -66577
0;
#X obj 741 45 r \$0-stop_rec;
#X obj 580 212 cnv 15 89 27 empty empty empty 20 12 0 14 -261234 -66577
0;
#X obj 583 217 r \$0-stop_rec;
#X text 517 114 |;
#X text 586 313 |;
#X text 586 323 |;
#X text 586 333 |;
#X text 586 343 |;
#X text 444 313 |;
#X text 444 323 |;
#X text 444 333 |;
#X text 444 343 |;
#X text 163 184 |;
#X text 161 187 -;
#X text 163 109 |;
#X text 165 123 -;
#X text 163 119 |;
#X text 163 129 |;
#X text 163 139 |;
#X text 163 149 |;
#X text 163 179 |;
#X text 152 355 |;
#X text 152 420 |;
#X text 150 423 -;
#X text 152 365 |;
#X text 152 375 |;
#X text 155 377 -;
#X text 152 385 |;
#X text 152 395 |;
#X text 152 405 |;
#X text 152 415 |;
#X text 152 345 |;
#X text 152 335 |;
#X text 150 329 -;
#X text 394 182 <--;
#X text 418 184 give time for;
#X text 418 164 delays the stop to;
#X text 412 209 |;
#X text 412 159 |;
#X text 412 169 |;
#X text 414 154 -;
#X text 415 212 -;
#X text 412 189 |;
#X text 412 179 |;
#X text 412 199 |;
#X text 410 182 -;
#X obj 293 536 pack \$0;
#X obj 293 374 pack \$0 f;
#X obj 293 344 t b f;
#X obj 540 576 outlet~;
#X obj 537 451 cnv 15 94 27 empty empty empty 20 12 0 14 -204786 -66577
0;
#X obj 540 456 r \$0-start_rec;
#X obj 676 451 cnv 15 89 27 empty empty empty 20 12 0 14 -261234 -66577
0;
#X obj 680 456 r \$0-stop_rec;
#X msg 540 486 stop;
#X msg 680 486 bang;
#X text 517 393 |;
#X text 810 469 |;
#X text 810 544 |;
#X text 808 547 -;
#X text 810 479 |;
#X text 810 489 |;
#X text 813 496 -;
#X text 810 499 |;
#X text 810 509 |;
#X text 810 519 |;
#X text 810 529 |;
#X text 810 539 |;
#X text 810 459 |;
#X text 810 449 |;
#X text 808 443 -;
#X text 824 476 Play back;
#X text 824 516 in a loop.;
#X msg 680 246 715;
#X obj 540 536 tabplay~ \$0-buffer1;
#X obj 17 414 tabwrite~ \$0-buffer1;
#X text 520 217 -------->;
#X text 520 406 ------------------------>;
#X msg 29 148 1 50;
#X msg 70 148 0 50;
#X obj 27 69 cnv 15 94 27 empty empty empty 20 12 0 14 -204786 -66577
0;
#X obj 29 74 r \$0-start_rec;
#X obj 67 109 cnv 15 89 27 empty empty empty 20 12 0 14 -261234 -66577
0;
#X obj 70 114 r \$0-stop_rec;
#X text 158 264 limiters prevent;
#X text 159 284 saturation of;
#X text 159 304 input audio;
#X text 152 310 |;
#X text 152 260 |;
#X text 152 270 |;
#X text 155 254 -;
#X text 155 313 -;
#X text 152 290 |;
#X text 152 280 |;
#X text 152 300 |;
#X text 150 283 -;
#X text 418 204 fade-out;
#X text 87 283 <----------;
#X text 163 159 |;
#X text 163 169 |;
#X text 418 17 at the start of;
#X text 422 37 each recording;
#X text 435 97 enough space;
#X text 453 117 to record;
#X text 167 378 writing;
#X text 167 358 start/stop;
#X text 453 292 at the end of each;
#X text 453 306 recording resize the;
#X text 453 334 of the recording;
#X text 586 293 |;
#X text 586 303 |;
#X text 444 293 |;
#X text 444 303 |;
#X text 446 344 ________________________;
#X text 446 273 ________________________;
#X text 586 283 |;
#X text 444 283 |;
#X text 517 253 |;
#X text 517 263 |;
#X text 517 273 |;
#X text 517 363 |;
#X text 517 353 |;
#X text 429 312 <--;
#X text 826 214 start of recording;
#X text 826 194 miliseconds from;
#X msg 293 244 1;
#X text 274 610 Juan Ignacio Mendoza - 2016;
#X msg 293 566 \; \$1-buffer1 const 0 \;;
#X msg 293 404 \; \$1-buffer1 resize \$2 \;;
#X text 589 574 <-- audio output;
#X obj 293 314 r \$0-table_new_size;
#X obj 541 116 s \$0-table_new_size;
#X obj 680 406 s \$0-table_new_size;
#X text 824 496 the table;
#X text 452 320 table to the duration;
#X text 410 57 resize the table;
#X text 453 77 so it has;
#X text 167 399 to table;
#X obj 18 464 cnv 15 162 57 empty empty empty 20 12 0 14 -13381 -66577
0;
#X obj 20 466 cnv 15 158 53 empty empty empty 20 12 0 14 -233017 -66577
0;
#X obj 25 495 cnv 15 148 20 empty empty empty 20 12 0 14 -262144 -66577
0;
#N canvas 461 619 450 278 (subpatch) 0;
#X array \$0-buffer1 31574 float 0;
#X coords 0 1 31573 -1 148 20 1;
#X restore 25 495 graph;
#X obj 115 469 cnv 5 59 20 empty empty empty 2 8 0 10 -191407 -261234
0;
#X obj 117 471 vradio 16 1 0 1 \$0-rec_sw_snd \$0-rec_sw_rcv empty
0 -8 0 10 -1 -1 -1 0;
#X obj 134 471 cnv 5 21 16 empty \$0-display_rcv OFF 1 9 0 10 -1 -261689
0;
#N canvas 261 22 382 200 title_maker 0;
#X obj 12 34 loadbang;
#X obj 2 180 s pd-\$0-title;
#X msg 2 124 clear \, obj 1 1 cnv 10 36 25 empty empty mono 2 14 0
14 -228856 -13381 0 \, obj 36 1 cnv 10 50 25 empty empty looper 2 14
0 14 -228856 -13381 0;
#X obj 2 64 pipe 10;
#X obj 2 4 r \$0-redraw_title;
#X text 121 3 Every time the table properties change;
#X text 121 18 the table is re-written and it goes to;
#X text 121 33 the front exposing its title \, which is;
#X text 121 48 aesthetically undesirable.;
#X text 121 64 Ti avois this the display title is;
#X text 121 79 re-written every time the table;
#X text 121 94 properties change.;
#X connect 0 0 3 0;
#X connect 2 0 1 0;
#X connect 3 0 2 0;
#X connect 4 0 3 0;
#X restore 19 537 pd title_maker;
#X obj 333 344 s \$0-redraw_title;
#X obj 343 506 loadbang;
#X obj 343 536 s \$0-redraw_title;
#X obj 17 -14 inlet~ audio;
#X obj 293 -14 inlet start/stop recording;
#X obj 839 41 cnv 15 73 27 empty empty empty 20 12 0 14 -228856 -66577
0;
#X obj 446 422 cnv 15 73 27 empty empty empty 20 12 0 14 -191407 -66577
0;
#X obj 450 427 r \$0-onoff;
#X obj 843 -14 inlet on/off;
#X obj 843 46 s \$0-onoff;
#X obj 450 457 select 0;
#X text 193 504 clear buffer -->;
#N canvas 677 22 191 491 onoff_switch 0;
#X obj -48 124 tgl 15 0 empty empty empty 17 7 0 10 -262144 -1 -1 0
1;
#X obj 2 14 bang;
#X obj -48 -16 inlet;
#X msg -38 364 label OFF \, color 22 3;
#X obj -38 154 select 0 1;
#X obj -48 424 outlet onoff;
#X obj -38 394 s \$0-display_rcv;
#X obj 2 -16 r \$0-onoff_sw_snd;
#X obj -10 274 s \$0-display_rcv;
#X msg -10 244 label ON \, color 22 6;
#X msg -28 304 color 20 20 20;
#X msg 0 184 color 20 22 22;
#X obj 0 214 s \$0-onoff_sw_rcv;
#X obj -28 334 s \$0-onoff_sw_rcv;
#X obj 52 14 loadbang;
#X msg 52 74 0;
#X obj 52 44 delay 100;
#X connect 0 0 5 0;
#X connect 0 0 4 0;
#X connect 1 0 0 0;
#X connect 2 0 0 0;
#X connect 3 0 6 0;
#X connect 4 0 3 0;
#X connect 4 0 10 0;
#X connect 4 1 9 0;
#X connect 4 1 11 0;
#X connect 7 0 1 0;
#X connect 9 0 8 0;
#X connect 10 0 13 0;
#X connect 11 0 12 0;
#X connect 14 0 16 0;
#X connect 15 0 0 0;
#X connect 16 0 15 0;
#X restore 843 16 pd onoff_switch;
#N canvas 587 54 316 513 rec_play_switch 0;
#X obj -48 224 tgl 15 0 empty empty empty 17 7 0 10 -262144 -1 -1 0
1;
#X obj 22 14 bang;
#X obj -28 254 select 0 1;
#X msg -8 344 color 20 20 20;
#X msg 0 284 color 20 22 22;
#X obj -48 -16 inlet;
#X obj 22 -16 r \$0-rec_sw_snd;
#X obj 0 314 s \$0-rec_sw_rcv;
#X obj -8 374 s \$0-rec_sw_rcv;
#X obj -48 464 outlet toggle;
#N canvas 0 22 118 187 alternator 0;
#X obj 11 9 inlet;
#X obj 11 149 outlet;
#X obj 61 149 outlet;
#X obj 11 69 tgl 15 0 empty empty empty 17 7 0 10 -262144 -1 -1 0 1
;
#X obj 11 99 select 1 0;
#X obj 11 39 metro 250;
#X connect 0 0 5 0;
#X connect 3 0 4 0;
#X connect 4 0 1 0;
#X connect 4 1 2 0;
#X connect 5 0 3 0;
#X restore 105 254 pd alternator;
#X msg 105 314 label REC \, color 22 \$1;
#X msg 105 284 22;
#X msg 145 284 13;
#X msg -28 404 label >>> \, color 22 16;
#X obj -28 434 s \$0-display_rcv;
#X obj 105 344 s \$0-display_rcv;
#X msg 22 140 0;
#X obj 18 45 cnv 15 73 27 empty empty empty 20 12 0 14 -191407 -66577
0;
#X obj 22 50 r \$0-onoff;
#X obj 32 110 loadbang;
#X obj -48 106 spigot;
#X obj 132 211 s \$0-rec_sw_rcv;
#X msg 22 170 color 22 22 22;
#X obj 22 80 select 0 1;
#X msg 132 111 color 20 20 20;
#X connect 0 0 10 0;
#X connect 0 0 2 0;
#X connect 0 0 9 0;
#X connect 1 0 21 0;
#X connect 2 0 3 0;
#X connect 2 0 14 0;
#X connect 2 1 4 0;
#X connect 3 0 8 0;
#X connect 4 0 7 0;
#X connect 5 0 21 0;
#X connect 6 0 1 0;
#X connect 10 0 12 0;
#X connect 10 1 13 0;
#X connect 11 0 16 0;
#X connect 12 0 11 0;
#X connect 13 0 11 0;
#X connect 14 0 15 0;
#X connect 17 0 0 0;
#X connect 17 0 23 0;
#X connect 19 0 21 1;
#X connect 19 0 24 0;
#X connect 20 0 17 0;
#X connect 21 0 0 0;
#X connect 23 0 22 0;
#X connect 24 0 17 0;
#X connect 24 1 25 0;
#X connect 25 0 22 0;
#X restore 293 120 pd rec_play_switch;
#X obj 156 471 vradio 16 1 0 1 \$0-onoff_sw_snd \$0-onoff_sw_rcv empty
0 -8 0 10 -195568 -195568 -195568 0;
#N canvas 617 255 406 243 \$0-title 0;
#X obj 1 1 cnv 10 36 25 empty empty mono 2 14 0 14 -228856 -13381 0
;
#X obj 36 1 cnv 10 50 25 empty empty looper 2 14 0 14 -228856 -13381
0;
#X coords 0 -1 1 1 85 25 2 1 1;
#X restore 25 466 pd \$0-title;
#X text 163 79 |;
#X text 163 69 |;
#X text 161 63 -;
#X text 163 89 |;
#X text 163 99 |;
#X obj 541 86 expr $f1*30;
#X text 455 136 30 sec.;
#X connect 0 0 2 0;
#X connect 1 0 0 1;
#X connect 2 0 163 0;
#X connect 3 0 163 0;
#X connect 4 0 8 0;
#X connect 5 0 35 1;
#X connect 6 0 35 0;
#X connect 6 1 5 0;
#X connect 7 0 220 0;
#X connect 8 0 161 0;
#X connect 9 0 4 0;
#X connect 10 0 4 0;
#X connect 11 0 86 0;
#X connect 12 0 11 0;
#X connect 13 0 134 0;
#X connect 14 0 213 0;
#X connect 14 1 12 0;
#X connect 35 0 7 0;
#X connect 36 0 255 0;
#X connect 37 0 36 0;
#X connect 82 0 37 0;
#X connect 82 0 9 0;
#X connect 82 0 10 0;
#X connect 84 0 3 0;
#X connect 88 0 10 0;
#X connect 90 0 161 0;
#X connect 134 0 215 0;
#X connect 135 0 216 0;
#X connect 136 0 135 0;
#X connect 136 1 135 1;
#X connect 139 0 142 0;
#X connect 141 0 143 0;
#X connect 142 0 162 0;
#X connect 143 0 162 0;
#X connect 161 0 6 0;
#X connect 162 0 137 0;
#X connect 162 1 143 0;
#X connect 166 0 1 0;
#X connect 167 0 1 0;
#X connect 169 0 166 0;
#X connect 171 0 167 0;
#X connect 213 0 80 0;
#X connect 218 0 136 0;
#X connect 218 0 234 0;
#X connect 235 0 134 0;
#X connect 235 0 236 0;
#X connect 237 0 0 0;
#X connect 238 0 247 0;
#X connect 241 0 244 0;
#X connect 242 0 246 0;
#X connect 244 0 142 0;
#X connect 244 0 13 0;
#X connect 246 0 243 0;
#X connect 247 0 14 0;
#X connect 255 0 219 0;
#X coords 0 -1 1 1 162 65 2 18 460;
