#N canvas 208 23 677 851 12;
#X obj 1 199 hid;
#X msg 72 159 open 6;
#X obj 0 21 tgl 46 0 \$0-btn_snd \$0-btn_rcv empty 17 7 0 10 -66577
-4034 -1 1 1;
#X obj 1 229 route key;
#X obj 199 769 s \$0-cnv_rcv;
#X obj 1 259 route btn_0 btn_1 btn_2;
#X obj 1 359 select 1 0;
#X obj 86 359 select 1 0;
#X obj 166 359 select 1 0;
#X msg 199 509 label \, color 20 22;
#X msg 1 509 1;
#X msg 86 509 2;
#X msg 166 509 3;
#X obj 1 559 l2s;
#X msg 24 159 close;
#X obj 24 119 select 0 1;
#X obj 172 159 route motion mousewheel button;
#X obj 310 369 route 1 2 3;
#X obj 1 88 t a a a;
#X obj 66 661 s \$0-num_labl;
#X obj 360 429 r \$0-num_labl;
#X text 250 16 Juan Ignacio Mendoza - 2017;
#X obj 172 119 cursor;
#X text 104 -4 left square \,;
#X text 104 16 then click;
#X text 104 36 elsewhere;
#X text 104 56 in Pure Data.;
#X text 104 -24 Click on the;
#X obj 1 769 outlet;
#X obj 49 21 cnv 15 44 46 empty empty empty 12 30 0 40 -66577 -1 0
;
#X obj 53 25 cnv 15 36 38 empty \$0-cnv_rcv empty 6 20 0 40 -195568
-1 0;
#X obj 0 -34 inlet onoff;
#X obj 1 661 spigot;
#X obj 40 626 tgl 15 0 empty empty empty 17 7 0 10 -262144 -1 -1 0
1;
#X msg 21 701 label \$1 \, color 20 22;
#X obj 360 460 select 0;
#X obj 1 589 t a b;
#X connect 0 0 3 0;
#X connect 1 0 0 0;
#X connect 2 0 18 0;
#X connect 3 0 5 0;
#X connect 5 0 6 0;
#X connect 5 1 7 0;
#X connect 5 2 8 0;
#X connect 6 0 10 0;
#X connect 6 1 9 0;
#X connect 7 0 11 0;
#X connect 7 1 9 0;
#X connect 8 0 12 0;
#X connect 8 1 9 0;
#X connect 9 0 4 0;
#X connect 10 0 13 0;
#X connect 11 0 13 0;
#X connect 12 0 13 0;
#X connect 13 0 36 0;
#X connect 14 0 0 0;
#X connect 15 0 14 0;
#X connect 15 1 1 0;
#X connect 16 2 17 0;
#X connect 17 0 10 0;
#X connect 17 1 11 0;
#X connect 17 2 12 0;
#X connect 18 0 0 0;
#X connect 18 1 15 0;
#X connect 18 2 22 0;
#X connect 20 0 35 0;
#X connect 22 0 16 0;
#X connect 31 0 2 0;
#X connect 32 0 34 0;
#X connect 32 0 28 0;
#X connect 33 0 32 1;
#X connect 33 0 19 0;
#X connect 34 0 4 0;
#X connect 35 0 9 0;
#X connect 36 0 32 0;
#X connect 36 1 33 0;
#X coords 0 -1 1 1 94 72 1 0 0;
