#N canvas 82 25 602 520 16;
#X declare -lib iemmatrix;
#X declare -lib hexloader;
#X obj 11 451 outlet;
#X obj 421 20 import iemmatrix;
#X obj 421 50 import hexloader;
#X text 139 482 Juan Ignacio Mendoza Garay - 2018;
#X obj 326 250 f;
#X obj 190 180 spigot_2;
#X obj 180 60 loadbang;
#X obj 353 90 t a b;
#X msg 237 140 1;
#X msg 287 140 2;
#X obj 267 210 bang;
#X obj 276 60 select 0;
#X obj 98 251 mtx_mean;
#X obj 11 411 sqrt;
#X obj 11 311 mtx_.^ 2;
#X obj 11 341 mtx_sum;
#X obj 11 381 /;
#X obj 326 341 - 1;
#X obj 326 311 change;
#X obj 11 60 t a a a;
#X obj 190 251 route matrix;
#X obj 276 20 inlet length;
#X obj 11 281 mtx_sub 1;
#X obj 11 20 inlet column vector;
#X text 98 424 expensive.;
#X text 98 404 length is automatically computed \, which is more;
#X text 98 384 Right inlet input is optional. If 0 or none \,;
#X connect 4 0 18 0;
#X connect 5 0 20 0;
#X connect 5 1 10 0;
#X connect 6 0 8 0;
#X connect 7 0 4 1;
#X connect 7 1 9 0;
#X connect 8 0 5 1;
#X connect 9 0 5 1;
#X connect 10 0 4 0;
#X connect 11 0 8 0;
#X connect 11 1 7 0;
#X connect 12 0 22 1;
#X connect 13 0 0 0;
#X connect 14 0 15 0;
#X connect 15 0 16 0;
#X connect 16 0 13 0;
#X connect 17 0 16 1;
#X connect 18 0 17 0;
#X connect 19 0 22 0;
#X connect 19 1 12 0;
#X connect 19 2 5 0;
#X connect 20 0 18 0;
#X connect 21 0 11 0;
#X connect 22 0 14 0;
#X connect 23 0 19 0;
