#N canvas 279 -782 372 370 12;
#X obj -118 82 until;
#X obj -118 122 cup;
#X msg -70 82 1;
#X obj -120 162 expr $f2 + $f3 - $f1;
#X obj -120 232 cyclone/prepend;
#X obj 62 162 list;
#X msg 62 122 list;
#X obj -163 262 list;
#X obj -163 292 cyclone/prepend;
#X msg 107 162 matrix \$1 1;
#X obj -163 322 outlet;
#X obj -163 22 - 1;
#X text -40 322 Juan Ignacio Mendoza - 2019;
#X obj -163 -8 inlet N;
#X obj -163 52 trigger bang any bang bang any bang any;
#X obj -28 122 f;
#X msg -28 82 0;
#X obj 17 122 + 1;
#X text 98 202 Make a linear;
#X text 49 222 index for the lowest;
#X text 14 242 row of the lower triangle;
#X text -4 262 of a square matrix size = N.;
#X connect 0 0 1 0;
#X connect 1 0 3 0;
#X connect 2 0 1 0;
#X connect 3 0 4 0;
#X connect 3 0 15 0;
#X connect 4 0 5 0;
#X connect 4 0 7 1;
#X connect 5 0 4 1;
#X connect 6 0 5 0;
#X connect 7 0 8 0;
#X connect 8 0 10 0;
#X connect 9 0 8 1;
#X connect 11 0 14 0;
#X connect 13 0 11 0;
#X connect 14 0 7 0;
#X connect 14 1 0 0;
#X connect 14 2 2 0;
#X connect 14 3 16 0;
#X connect 14 4 17 0;
#X connect 14 5 6 0;
#X connect 14 6 9 0;
#X connect 15 0 3 1;
#X connect 16 0 15 0;
#X connect 17 0 3 2;
#X coords 0 0 1 1 200 30 0;
