#N canvas 403 22 315 350 10;
#X declare -lib iemmatrix;
#X declare -lib hexloader;
#X obj 26 16 import iemmatrix;
#X obj 26 46 import hexloader;
#X obj -129 13 inlet;
#X obj -129 303 outlet;
#X obj -129 43 t a a;
#X obj -59 103 mtx_.* -1;
#X obj -129 73 mtx_gt 0;
#X obj -59 73 mtx_lt 0;
#X obj -129 123 mtx_+;
#X obj -129 153 mtx_diff col;
#X obj -129 183 mtx_slice 2 1 end end;
#X obj -129 213 mtx_abs;
#X obj -129 243 mtx_sum;
#X obj -129 273 list-apply / 2;
#X text -67 303 Juan Ignacio Mendoza Garay - 2022;
#X connect 2 0 4 0;
#X connect 4 0 6 0;
#X connect 4 1 7 0;
#X connect 5 0 8 1;
#X connect 6 0 8 0;
#X connect 7 0 5 0;
#X connect 8 0 9 0;
#X connect 9 0 10 0;
#X connect 10 0 11 0;
#X connect 11 0 12 0;
#X connect 12 0 13 0;
#X connect 13 0 3 0;
