#N canvas 0 22 259 644 12;
#X text 16 608 Juan Ignacio Mendoza Garay - 2019;
#X text 75 6 cosine distance;
#X obj 117 34 inlet;
#X obj 17 74 spigot;
#X obj 17 574 outlet;
#X obj 17 34 r \$0_sw_xyz;
#X obj 56 164 t a a;
#X obj 56 194 mtx_.*;
#X obj 56 254 mtx_sum;
#X obj 56 364 mtx_repmat 1 3;
#X obj 17 104 t a a;
#X obj 17 424 t a a;
#X obj 49 454 mtx_transpose;
#X obj 17 484 mtx_*;
#X obj 17 514 mtx_.* -1;
#X obj 17 544 mtx_+ 1;
#X obj 56 334 mtx_.^ 0.5;
#X obj 17 395 mtx_./;
#X obj 56 304 mtx;
#X obj 56 224 mtx_transpose;
#X obj 170 34 r \$0-w;
#X msg 170 224 \$1 1;
#X obj 170 254 mtx_zeros;
#X obj 56 134 mtx_+ 1e-09;
#X connect 2 0 3 1;
#X connect 3 0 10 0;
#X connect 5 0 3 0;
#X connect 6 0 7 0;
#X connect 6 1 7 1;
#X connect 7 0 19 0;
#X connect 8 0 18 0;
#X connect 9 0 17 1;
#X connect 10 0 17 0;
#X connect 10 1 23 0;
#X connect 11 0 13 0;
#X connect 11 1 12 0;
#X connect 12 0 13 1;
#X connect 13 0 14 0;
#X connect 14 0 15 0;
#X connect 15 0 4 0;
#X connect 16 0 9 0;
#X connect 17 0 11 0;
#X connect 18 0 16 0;
#X connect 19 0 8 0;
#X connect 20 0 21 0;
#X connect 21 0 22 0;
#X connect 22 0 18 1;
#X connect 23 0 6 0;
