#N canvas 1348 200 464 642 16;
#X declare -lib iemmatrix;
#X declare -lib iemmatrix;
#X declare -lib list-abs;
#X declare -lib hexloader;
#X declare -lib iemmatrix;
#X declare -lib smlib;
#X text -282 385 Juan Ignacio Mendoza Garay - 2018;
#X obj -176 -63 / 2;
#X text -137 -65 radius;
#X obj -223 -103 t a a;
#X obj -96 37 / 2;
#X obj -96 67 i;
#X obj 55 147 * 0;
#X text -158 52 width;
#X obj -47 147 * 1;
#X text -9 145 hi;
#X text 93 145 lo;
#X text -99 145 ring;
#X obj -333 347 outlet ring;
#X obj -96 107 t a a;
#X obj -118 -193 inlet w N hib lob;
#X obj -118 -163 unpack 20 5 4 3;
#X obj -22 197 mtx_ge 0;
#X obj -124 197 mtx_le 1;
#X obj -333 -193 import iemmatrix;
#X obj -124 237 mtx_.*;
#X obj -124 277 s \$0-ring;
#X obj -333 317 r \$0-ring;
#N canvas 792 586 272 234 inv_cone 1;
#X text -27 103 height;
#X obj -132 15 inlet w;
#X obj 45 15 inlet r;
#X obj -42 178 outlet;
#X obj -42 135 mtx_mul 1;
#X obj -132 65 mtx_cone;
#X obj 45 105 * -1;
#X connect 1 0 5 0;
#X connect 2 0 6 0;
#X connect 4 0 3 0;
#X connect 5 0 4 0;
#X connect 6 0 4 1;
#X restore -333 37 pd inv_cone;
#X obj -333 197 s \$0-cone;
#X obj -124 317 r \$0-cone;
#X obj -124 347 outlet cone;
#X obj -176 -33 t a a;
#X obj -333 77 t a a a;
#X connect 1 0 26 0;
#X connect 3 0 22 0;
#X connect 3 1 1 0;
#X connect 4 0 5 0;
#X connect 5 0 13 0;
#X connect 6 0 16 1;
#X connect 8 0 17 1;
#X connect 13 0 8 0;
#X connect 13 1 6 0;
#X connect 14 0 15 0;
#X connect 15 0 3 0;
#X connect 15 1 4 1;
#X connect 15 2 8 1;
#X connect 15 3 6 1;
#X connect 16 0 19 1;
#X connect 17 0 19 0;
#X connect 19 0 20 0;
#X connect 21 0 12 0;
#X connect 22 0 27 0;
#X connect 24 0 25 0;
#X connect 26 0 22 1;
#X connect 26 1 4 0;
#X connect 27 0 23 0;
#X connect 27 1 17 0;
#X connect 27 2 16 0;
