#N canvas 341 182 437 490 12;
#X declare -lib iemmatrix;
#X declare -lib list-abs;
#X declare -lib iemmatrix;
#X declare -lib list-abs;
#X obj -36 310 gauss_filter;
#X obj 65 -26 inlet raw;
#X obj 146 -26 inlet abs w method;
#X obj 146 3 unpack f f f;
#X obj 322 224 abs;
#X obj 75 33 select 1 0;
#X msg 75 73 2;
#X msg 108 73 1;
#X obj 73 310 average;
#X obj 227 33 + 1;
#X obj 227 409 outlet;
#X text -29 409 Juan Ignacio Mendoza G. - 2018;
#X obj 147 310 winsum;
#X obj 227 260 cyclone/gate 4;
#X obj -30 124 cyclone/gate 2;
#X connect 0 0 10 0;
#X connect 1 0 14 1;
#X connect 2 0 3 0;
#X connect 3 0 5 0;
#X connect 3 1 0 1;
#X connect 3 1 8 1;
#X connect 3 1 12 1;
#X connect 3 2 9 0;
#X connect 4 0 13 1;
#X connect 5 0 6 0;
#X connect 5 1 7 0;
#X connect 6 0 14 0;
#X connect 7 0 14 0;
#X connect 8 0 10 0;
#X connect 9 0 13 0;
#X connect 12 0 10 0;
#X connect 13 0 10 0;
#X connect 13 1 0 0;
#X connect 13 2 8 0;
#X connect 13 3 12 0;
#X connect 14 0 13 1;
#X connect 14 1 4 0;
#X coords 0 0 1 1 202 78 0;
