#N canvas 401 22 645 416 12;
#X declare -lib Gem;
#X declare -lib iemmatrix;
#X declare -lib iemmatrix;
#X obj 1 5 cnv 15 110 76 empty empty empty 20 12 0 14 -228856 -66577
0;
#X obj 3 7 cnv 15 106 72 empty empty empty 20 12 0 14 -16662 -66577
0;
#X obj 511 131 import Gem;
#N canvas 326 371 390 397 gemwin_control 0;
#X msg 231 198 0 \, destroy;
#X obj 83 349 gemwin;
#X msg 51 168 create \, 1;
#X obj 51 138 delay 200;
#X obj 231 348 s \$0-playtgl_rcv;
#X msg 231 318 0;
#X obj 5 48 moses 1;
#X obj 51 198 t a b;
#X msg 83 228 dimen 600 200;
#X obj 5 8 r \$0-src_select_snd;
#X obj 231 8 r \$0-video_close_snd;
#X connect 0 0 1 0;
#X connect 0 0 5 0;
#X connect 2 0 7 0;
#X connect 3 0 2 0;
#X connect 5 0 4 0;
#X connect 6 0 0 0;
#X connect 6 1 3 0;
#X connect 7 0 1 0;
#X connect 7 1 8 0;
#X connect 8 0 1 0;
#X connect 9 0 6 0;
#X connect 10 0 0 0;
#X restore 211 101 pd gemwin_control;
#X obj 17 30 vradio 15 1 0 3 \$0-src_select_snd \$0-src_select_rcv
empty 0 -8 0 10 -262130 -1 -1 2;
#X obj 469 101 import iemmatrix;
#X obj 125 71 s \$0-src_select_rcv;
#X obj 125 1 inlet select_source;
#N canvas 501 227 361 234 selector_process 0;
#X obj 144 7 r \$0-src_select_snd;
#X msg 144 95 1;
#X msg 184 95 0;
#X obj 144 37 select 1 2;
#X msg 144 178 \; pd-\$2-video_file_GUI vis \$1;
#X obj 144 147 pack f \$0;
#X connect 0 0 3 0;
#X connect 1 0 5 0;
#X connect 2 0 5 0;
#X connect 3 0 2 0;
#X connect 3 1 1 0;
#X connect 3 2 2 0;
#X connect 5 0 4 0;
#X restore 0 101 pd selector_process;
#N canvas 556 22 193 117 \$0-video_file_GUI 1;
#N canvas 678 22 196 132 video_file_console 0;
#X obj 1 1 cnv 15 182 90 empty empty empty 20 12 0 14 -99865 -66577
0;
#X obj 3 3 cnv 15 178 86 empty empty empty 20 12 0 14 -233017 -66577
0;
#X obj 27 56 bng 23 250 50 0 \$0-vload_snd \$0-vload_rcv empty 0 -6
0 8 -260097 -66577 -1;
#X obj 101 56 tgl 23 0 \$0-playtgl_snd \$0-playtgl_rcv empty 17 7 0
10 -66577 -4034 -1 0 1;
#X text 18 31 load;
#X text 93 31 play;
#X obj 68 60 bng 15 250 50 0 \$0-vreset_snd \$0-vreset_rcv reset -7
-8 0 10 -262144 -1 -1;
#X obj 142 60 bng 15 250 50 0 \$0-video_close_snd \$0-video_close_rcv
close -7 -8 0 10 -262144 -1 -1;
#X text 56 7 VIDEO FILE;
#X coords 0 -1 1 1 184 92 2 0 0;
#X restore -20 6 pd video_file_console;
#X coords 0 0 1 1 184 92 0;
#X restore 0 131 pd \$0-video_file_GUI;
#X obj 275 1 inlet smooth;
#X obj 275 71 s \$0-smooth_ctrl_rcv;
#X obj 12 7 cnv 15 50 20 empty empty multi_v_blob 0 12 1 16 -16662
-228856 0;
#X obj 42 30 hsl 54 15 1 20 0 0 \$0-smooth_ctrl_snd \$0-smooth_ctrl_rcv
smooth 8 8 0 10 -204786 -1 -1 1116 1;
#X obj 42 47 hsl 54 15 0 1 0 0 \$0-size_ctrl_snd \$0-size_ctrl_rcv
size 14 8 0 10 -261682 -1 -1 5300 1;
#X obj 0 281 r \$0-blob_x;
#X obj 98 281 r \$0-blob_y;
#X obj 196 281 r \$0-blob_s;
#X obj 455 1 inlet size;
#X obj 455 71 s \$0-size_ctrl_rcv;
#X msg 415 31 1;
#X obj 375 1 loadbang;
#X msg 375 31 0;
#N canvas 687 150 671 472 blob_processor 0;
#X obj 220 -12 inlet;
#X obj 53 285 pix_blob;
#X obj 69 18 r \$0-size_ctrl_snd;
#X obj 181 218 gate 2;
#X msg 69 78 1;
#X msg 129 78 2;
#X obj 0 371 average 1;
#X obj 88 371 average 1;
#X obj 176 371 average 1;
#X obj 236 318 r \$0-smooth_ctrl_snd;
#X obj 88 321 expr 1-$f1;
#X obj 0 405 s \$0-blob_x;
#X obj 88 405 s \$0-blob_y;
#X obj 176 405 s \$0-blob_s;
#X floatatom 300 189 3 0 100 2 threshold - -;
#X msg 300 218 treshold \$1;
#X msg 392 218 blobSize \$1;
#X obj 392 318 s \$0-bloblist;
#X obj 392 288 multiblob_engine;
#X obj 392 143 r \$0-size_ctrl_snd;
#X obj 69 48 route 0 1;
#X floatatom 392 189 3 0 100 2 blobsize - -;
#X obj 392 113 s \$0-size_ctrl_snd;
#X obj 392 83 s \$0-smooth_ctrl_rcv;
#X obj 270 78 / 10;
#X msg 270 50 7;
#X obj 270 -12 loadbang;
#X obj 270 18 delay 400;
#X msg 392 50 5;
#X floatatom 560 83 3 0 100 2 threshold - -;
#X msg 452 50 2;
#X connect 0 0 3 1;
#X connect 1 1 6 0;
#X connect 1 2 10 0;
#X connect 1 3 8 0;
#X connect 2 0 20 0;
#X connect 3 0 1 0;
#X connect 3 1 18 0;
#X connect 4 0 3 0;
#X connect 5 0 3 0;
#X connect 6 0 11 0;
#X connect 7 0 12 0;
#X connect 8 0 13 0;
#X connect 9 0 6 1;
#X connect 9 0 7 1;
#X connect 9 0 8 1;
#X connect 10 0 7 0;
#X connect 14 0 15 0;
#X connect 15 0 18 0;
#X connect 16 0 18 0;
#X connect 18 0 17 0;
#X connect 19 0 21 0;
#X connect 20 0 4 0;
#X connect 20 2 5 0;
#X connect 21 0 16 0;
#X connect 24 0 22 0;
#X connect 24 0 14 0;
#X connect 25 0 24 0;
#X connect 26 0 27 0;
#X connect 27 0 25 0;
#X connect 27 0 28 0;
#X connect 27 0 30 0;
#X connect 28 0 23 0;
#X connect 29 0 18 1;
#X connect 30 0 29 0;
#X restore 263 251 pd blob_processor;
#N canvas 456 552 184 178 disp_hyperpix 0;
#X obj 7 126 rectangle 4 3;
#X obj 7 96 pix_texture;
#N canvas 99 511 316 389 translation 0;
#X obj -31 122 translate;
#X msg 56 92 \$1 \$2 \$3;
#X obj 56 62 pack f f f;
#X floatatom 56 -68 5 0 0 0 - - -;
#X floatatom 116 -68 5 0 0 0 - - -;
#X floatatom 176 -68 5 0 0 0 - - -;
#X msg 12 92 1;
#X obj 116 -28 t b f;
#X obj 176 -28 t b f;
#X obj 176 -137 bng 15 250 50 0 empty empty empty 17 7 0 10 -262144
-1 -1;
#X obj -31 152 outlet gemlist;
#X obj -31 -178 inlet gemlist;
#X obj 176 -178 loadbang;
#X msg 116 -107 0;
#X msg 176 -107 0.9;
#X msg 56 -107 4.2;
#X connect 0 0 10 0;
#X connect 1 0 0 2;
#X connect 2 0 1 0;
#X connect 2 0 6 0;
#X connect 3 0 2 0;
#X connect 4 0 7 0;
#X connect 5 0 8 0;
#X connect 6 0 0 1;
#X connect 7 0 2 0;
#X connect 7 1 2 1;
#X connect 8 0 2 0;
#X connect 8 1 2 2;
#X connect 9 0 15 0;
#X connect 9 0 13 0;
#X connect 9 0 14 0;
#X connect 11 0 0 0;
#X connect 12 0 9 0;
#X connect 13 0 4 0;
#X connect 14 0 5 0;
#X connect 15 0 3 0;
#X restore 7 56 pd translation;
#X obj 7 16 inlet;
#X connect 1 0 0 0;
#X connect 2 0 1 0;
#X connect 3 0 2 0;
#X restore 126 251 pd disp_hyperpix;
#N canvas 865 191 351 507 movement_hyperpix 0;
#X obj 143 128 pix_resize;
#X obj 59 198 pix_dump;
#X obj 32 319 list split 3;
#X msg -7 389 GREY;
#X obj 203 58 loadbang;
#X obj -7 359 loadbang;
#X obj 32 278 mtx_eq 0;
#X obj -37 -1 inlet gemlist;
#X obj 176 278 mtx_gt 0;
#X obj 176 319 list split 3;
#X obj 108 462 outlet gemlist pos;
#X obj -37 462 outlet gemlist neg;
#X obj -31 60 s \$0-mh_glist;
#X obj 108 359 r \$0-mh_glist;
#X obj 73 59 pix_grey;
#X obj -37 432 pix_set 20 20;
#X obj 108 429 pix_set 20 20;
#X obj 112 228 matrix 20 20;
#X obj 59 168 t b a;
#X msg 203 88 dimen 20 20;
#X obj 73 88 pix_movement 0.26;
#X connect 0 0 18 0;
#X connect 1 1 17 0;
#X connect 2 1 15 1;
#X connect 3 0 15 0;
#X connect 3 0 16 0;
#X connect 4 0 19 0;
#X connect 5 0 3 0;
#X connect 6 0 2 0;
#X connect 7 0 14 0;
#X connect 7 0 12 0;
#X connect 7 0 15 0;
#X connect 8 0 9 0;
#X connect 9 1 16 1;
#X connect 13 0 16 0;
#X connect 14 0 20 0;
#X connect 15 0 11 0;
#X connect 16 0 10 0;
#X connect 17 0 6 0;
#X connect 17 0 8 0;
#X connect 18 0 1 0;
#X connect 18 1 1 0;
#X connect 19 0 0 0;
#X connect 20 0 0 0;
#X restore 126 221 pd movement_hyperpix;
#N canvas 572 41 742 387 video_source 0;
#X obj 222 334 outlet gemlist;
#X obj 222 214 pix_film;
#X obj 152 54 openpanel;
#X msg 192 84 open \$1;
#X obj 447 294 cup;
#X obj 447 234 metro;
#X obj 494 174 expr 1000/$f1;
#X msg 494 144 30;
#X text 533 142 <-- fps;
#X obj 494 104 pipe 100;
#X msg 212 124 1;
#X obj 212 154 s \$0-playtgl_rcv;
#X obj 494 204 i;
#X obj 248 274 unpack f f f;
#X obj 248 304 s \$0-movie_length;
#X obj 447 324 moses;
#X obj 494 354 s \$0-reset_movie;
#X obj 494 294 r \$0-movie_length;
#X msg 371 154 setbang 0;
#X floatatom 614 214 5 0 0 0 goto - -;
#X msg 574 254 setbang \$1;
#X obj -19 184 gate 2;
#X obj -65 154 moses 1;
#X obj 251 54 r \$0-reset_movie;
#X msg 614 174 set \$1;
#X obj -65 5 r \$0-src_select_snd;
#X obj 494 4 r \$0-playtgl_snd;
#X obj 371 4 r \$0-vreset_snd;
#X obj 152 4 r \$0-vload_snd;
#X obj 20 154 gemhead;
#X msg -9 274 dialog;
#X obj 37 125 s \$0-playtgl_rcv;
#X msg 20 95 0;
#X obj -19 304 create_pix_video;
#X obj -65 36 t a a;
#X obj -33 65 select 1;
#X obj -9 245 t b a;
#X obj 90 245 r \$0-playtgl_rcv;
#X obj -33 125 s \$0-pv1;
#X obj -9 215 r \$0-pv1;
#X msg -33 95 1;
#X connect 1 0 0 0;
#X connect 1 1 13 0;
#X connect 2 0 3 0;
#X connect 3 0 1 0;
#X connect 3 0 18 0;
#X connect 3 0 10 0;
#X connect 4 0 15 0;
#X connect 4 0 1 1;
#X connect 4 0 24 0;
#X connect 5 0 4 0;
#X connect 6 0 12 0;
#X connect 7 0 6 0;
#X connect 9 0 5 0;
#X connect 9 0 7 0;
#X connect 10 0 11 0;
#X connect 12 0 5 1;
#X connect 13 0 14 0;
#X connect 15 1 16 0;
#X connect 17 0 15 1;
#X connect 18 0 4 0;
#X connect 19 0 20 0;
#X connect 20 0 4 0;
#X connect 21 0 33 0;
#X connect 21 1 1 0;
#X connect 22 1 21 0;
#X connect 23 0 18 0;
#X connect 24 0 19 0;
#X connect 25 0 34 0;
#X connect 26 0 9 0;
#X connect 27 0 18 0;
#X connect 28 0 2 0;
#X connect 29 0 21 1;
#X connect 30 0 33 0;
#X connect 32 0 31 0;
#X connect 33 0 0 0;
#X connect 34 0 22 0;
#X connect 34 1 35 0;
#X connect 35 0 40 0;
#X connect 35 1 32 0;
#X connect 36 0 30 0;
#X connect 36 1 33 1;
#X connect 37 0 33 1;
#X connect 39 0 36 0;
#X connect 40 0 38 0;
#X restore 211 131 pd video_source;
#N canvas 0 22 189 183 display_raw 0;
#N canvas 157 461 316 389 translation 0;
#X obj -31 122 translate;
#X msg 56 92 \$1 \$2 \$3;
#X obj 56 62 pack f f f;
#X floatatom 44 -68 5 0 0 0 - - -;
#X floatatom 104 -68 5 0 0 0 - - -;
#X floatatom 164 -68 5 0 0 0 - - -;
#X msg 12 92 1;
#X obj 104 -28 t b f;
#X obj 164 -28 t b f;
#X obj 164 -137 bng 15 250 50 0 empty empty empty 17 7 0 10 -262144
-1 -1;
#X obj -31 152 outlet gemlist;
#X obj -31 -178 inlet gemlist;
#X obj 164 -178 loadbang;
#X msg 104 -107 0;
#X msg 44 -107 -4;
#X msg 164 -107 0.9;
#X connect 0 0 10 0;
#X connect 1 0 0 2;
#X connect 2 0 1 0;
#X connect 2 0 6 0;
#X connect 3 0 2 0;
#X connect 4 0 7 0;
#X connect 5 0 8 0;
#X connect 6 0 0 1;
#X connect 7 0 2 0;
#X connect 7 1 2 1;
#X connect 8 0 2 0;
#X connect 8 1 2 2;
#X connect 9 0 14 0;
#X connect 9 0 13 0;
#X connect 9 0 15 0;
#X connect 11 0 0 0;
#X connect 12 0 9 0;
#X connect 13 0 4 0;
#X connect 14 0 3 0;
#X connect 15 0 5 0;
#X restore 9 42 pd translation;
#X obj 9 82 pix_texture;
#X obj 9 112 rectangle 4 3;
#X obj 9 12 inlet;
#X connect 0 0 1 0;
#X connect 1 0 2 0;
#X connect 3 0 0 0;
#X restore 0 251 pd display_raw;
#X obj 0 191 separator;
#X obj 127 191 separator;
#X obj 291 191 separator;
#X obj 451 191 separator;
#N canvas 536 123 618 466 display_onecursor 0;
#X floatatom 556 283 5 0 0 0 - - -;
#X obj 436 372 tgl 15 0 empty empty test_corners 17 7 0 10 -262144
-1 -1 0 1;
#X obj 343 192 r \$0-blob_x;
#X obj 366 222 r \$0-blob_y;
#X obj 389 252 r \$0-blob_s;
#X floatatom 412 283 5 0 0 0 - - -;
#X floatatom 460 283 5 0 0 0 - - -;
#X floatatom 508 283 5 0 0 0 - - -;
#X floatatom 256 283 5 0 0 0 - - -;
#X obj 136 372 tgl 15 0 empty empty test_corners 17 7 0 10 -262144
-1 -1 0 1;
#X obj 43 192 r \$0-blob_x;
#X obj 66 222 r \$0-blob_y;
#X obj 89 252 r \$0-blob_s;
#X floatatom 112 283 5 0 0 0 - - -;
#X floatatom 160 283 5 0 0 0 - - -;
#X floatatom 208 283 5 0 0 0 - - -;
#X obj 20 162 separator;
#X obj 320 162 separator;
#X msg 112 342 -7.72 7.71 -2.89 5.75;
#X obj 112 312 list_set_4;
#X obj 412 312 list_set_4;
#X msg 412 342 0.2 7.72 -2.89 5.75;
#X obj 180 -8 inlet gl;
#X obj 180 92 spigot;
#X obj 257 -8 r \$0-size_ctrl_snd;
#X obj 257 22 route 1;
#X msg 257 52 1;
#X msg 303 52 0;
#X obj 20 402 crosshair_display;
#X obj 320 402 crosshair_display;
#X connect 0 0 20 3;
#X connect 1 0 29 5;
#X connect 2 0 29 1;
#X connect 3 0 29 2;
#X connect 4 0 29 3;
#X connect 5 0 20 0;
#X connect 6 0 20 1;
#X connect 7 0 20 2;
#X connect 8 0 19 3;
#X connect 9 0 28 5;
#X connect 10 0 28 1;
#X connect 11 0 28 2;
#X connect 12 0 28 3;
#X connect 13 0 19 0;
#X connect 14 0 19 1;
#X connect 15 0 19 2;
#X connect 16 0 28 0;
#X connect 17 0 29 0;
#X connect 18 0 28 4;
#X connect 19 0 18 0;
#X connect 20 0 21 0;
#X connect 21 0 29 4;
#X connect 22 0 23 0;
#X connect 23 0 16 0;
#X connect 23 0 17 0;
#X connect 24 0 25 0;
#X connect 25 0 26 0;
#X connect 25 1 27 0;
#X connect 26 0 23 1;
#X connect 27 0 23 1;
#X restore 291 221 pd display_onecursor;
#X obj 452 251 r \$0-smooth_blist;
#X obj 125 374 outlet blist;
#X msg 65 342 1 \$1 \$2 \$3;
#X obj 65 314 pack f f f;
#N canvas 226 22 679 568 display_multicursors 0;
#X floatatom 607 253 5 0 0 0 - - -;
#X obj 505 452 tgl 15 0 empty empty test_corners 17 7 0 10 -262144
-1 -1 0 1;
#X floatatom 463 253 5 0 0 0 - - -;
#X floatatom 511 253 5 0 0 0 - - -;
#X floatatom 559 253 5 0 0 0 - - -;
#X obj 340 162 separator;
#X obj 463 292 list_set_4;
#X obj 120 2 inlet gl;
#X obj 120 102 spigot;
#X obj 197 2 r \$0-size_ctrl_snd;
#X obj 197 32 route 1;
#X msg 197 62 0;
#X msg 243 62 1;
#X obj 381 192 r \$0-bloblist;
#X msg 463 392 0.2 7.72 -2.89 5.75;
#X msg 473 422 0.2 7.72 -2.89 5.75;
#X floatatom 287 253 5 0 0 0 - - -;
#X obj 185 452 tgl 15 0 empty empty test_corners 17 7 0 10 -262144
-1 -1 0 1;
#X floatatom 143 253 5 0 0 0 - - -;
#X floatatom 191 253 5 0 0 0 - - -;
#X floatatom 239 253 5 0 0 0 - - -;
#X obj 20 162 separator;
#X obj 143 292 list_set_4;
#X obj 61 192 r \$0-bloblist;
#X msg 143 392 -7.72 7.71 -2.89 5.75;
#X msg 153 422 -7.72 7.71 -2.89 5.75;
#X obj 422 225 r \$0-smooth_ctrl_snd;
#X obj 102 225 r \$0-smooth_ctrl_snd;
#X obj 253 292 loadbang;
#X obj 253 352 delay 500;
#X obj 253 323 bng 15 250 50 0 empty empty reset_frame 17 7 0 10 -262144
-1 -1;
#X obj 340 512 s \$0-smooth_blist;
#X obj 340 482 multicrosshair_display_6;
#X obj 20 482 multicrosshair_display_6;
#X connect 0 0 6 3;
#X connect 1 0 32 4;
#X connect 2 0 6 0;
#X connect 3 0 6 1;
#X connect 4 0 6 2;
#X connect 5 0 32 0;
#X connect 6 0 14 0;
#X connect 7 0 8 0;
#X connect 8 0 5 0;
#X connect 8 0 21 0;
#X connect 9 0 10 0;
#X connect 10 0 11 0;
#X connect 10 1 12 0;
#X connect 11 0 8 1;
#X connect 12 0 8 1;
#X connect 13 0 32 1;
#X connect 14 0 32 3;
#X connect 16 0 22 3;
#X connect 17 0 33 4;
#X connect 18 0 22 0;
#X connect 19 0 22 1;
#X connect 20 0 22 2;
#X connect 21 0 33 0;
#X connect 22 0 24 0;
#X connect 23 0 33 1;
#X connect 24 0 33 3;
#X connect 26 0 32 2;
#X connect 27 0 33 2;
#X connect 28 0 30 0;
#X connect 29 0 24 0;
#X connect 29 0 14 0;
#X connect 30 0 29 0;
#X connect 32 0 31 0;
#X restore 451 221 pd display_multicursors;
#X text 403 379 Juan Ignacio Mendoza - 2017;
#X connect 7 0 6 0;
#X connect 10 0 11 0;
#X connect 15 0 36 0;
#X connect 16 0 36 1;
#X connect 17 0 36 2;
#X connect 18 0 19 0;
#X connect 20 0 19 0;
#X connect 21 0 20 0;
#X connect 21 0 22 0;
#X connect 22 0 11 0;
#X connect 22 0 6 0;
#X connect 25 0 24 0;
#X connect 25 1 23 0;
#X connect 26 0 28 0;
#X connect 26 0 29 0;
#X connect 26 0 31 0;
#X connect 26 0 30 0;
#X connect 28 0 27 0;
#X connect 29 0 25 0;
#X connect 30 0 32 0;
#X connect 31 0 37 0;
#X connect 33 0 34 0;
#X connect 35 0 34 0;
#X connect 36 0 35 0;
#X coords 0 -1 1 1 112 86 1 0 0;
