#N canvas 470 207 346 618 12;
#X declare -lib iemmatrix;
#X obj -23 7 inlet gemlist;
#X obj -23 539 outlet bloblists;
#X obj -23 -33 import iemmatrix;
#X obj 79 119 spigot;
#X msg 118 89 \$1;
#X obj -23 219 mtx;
#X msg -23 189 row;
#X obj 58 449 i;
#X obj -23 409 t l b;
#X msg -23 509 \$4 \$1 \$2 \$3;
#X msg -23 249 \$1 \$2 \$3;
#X obj -23 279 unpack f f f;
#X obj -23 379 pack f f f;
#X obj 91 339 * 4;
#X msg 24 339 0;
#X msg 125 389 1;
#X obj 95 449 + 1;
#X obj -23 479 pack f f f f;
#X obj 79 149 t b a b;
#X obj -23 49 pix_multiblob 6;
#X obj 24 309 moses 0.09;
#X obj 156 7 inlet threshold;
#X obj 156 279 / 100;
#X connect 0 0 19 0;
#X connect 3 0 18 0;
#X connect 4 0 3 1;
#X connect 5 0 10 0;
#X connect 6 0 5 0;
#X connect 7 0 16 0;
#X connect 7 0 17 3;
#X connect 8 0 17 0;
#X connect 8 1 7 0;
#X connect 9 0 1 0;
#X connect 10 0 11 0;
#X connect 11 0 12 0;
#X connect 11 1 12 1;
#X connect 11 2 20 0;
#X connect 12 0 8 0;
#X connect 13 0 12 2;
#X connect 14 0 12 2;
#X connect 15 0 7 1;
#X connect 16 0 7 1;
#X connect 17 0 9 0;
#X connect 18 0 6 0;
#X connect 18 1 5 1;
#X connect 18 2 15 0;
#X connect 19 1 4 0;
#X connect 19 1 3 0;
#X connect 20 0 14 0;
#X connect 20 1 13 0;
#X connect 21 0 22 0;
#X connect 22 0 20 1;
