#N canvas 679 95 542 391 12;
#X obj 2 10 inlet bloblist;
#X obj 242 80 loadbang;
#X msg 242 230 0 1 1 1;
#X obj -104 10 inlet gemlist;
#X obj 115 10 inlet smoothness;
#X obj 115 50 s \$0-smoothness;
#X obj -104 50 s \$0-gemlist;
#X obj 242 50 s \$0-frame;
#X obj 334 10 inlet test;
#X obj 334 50 s \$0-test;
#N canvas 316 374 431 391 one_cross-hair 0;
#X obj 257 21 inlet colour;
#X obj 30 271 onecrosshair_display;
#X obj -60 21 r \$0-gemlist;
#X obj 84 91 r \$0-smoothness;
#X obj 112 121 r \$0-frame;
#X obj 139 151 r \$0-test;
#X obj 2 311 pack f f f f;
#X obj 2 340 s \$0-smooth_blist;
#X obj 57 21 r \$0-bloblist;
#X msg 2 61 1;
#X obj 57 61 route 1;
#X connect 0 0 1 5;
#X connect 1 0 6 1;
#X connect 1 1 6 2;
#X connect 1 2 6 3;
#X connect 2 0 1 0;
#X connect 3 0 1 2;
#X connect 4 0 1 3;
#X connect 5 0 1 4;
#X connect 6 0 7 0;
#X connect 8 0 9 0;
#X connect 8 0 10 0;
#X connect 9 0 6 0;
#X connect 10 0 1 1;
#X restore 2 140 pd one_cross-hair;
#X obj 242 10 inlet frame;
#X obj 2 320 r \$0-smooth_blist;
#X obj 2 351 outlet;
#X obj 2 50 s \$0-bloblist;
#N canvas 113 310 431 391 one_cross-hair 0;
#X obj 257 21 inlet colour;
#X obj 30 271 onecrosshair_display;
#X obj -60 21 r \$0-gemlist;
#X obj 84 91 r \$0-smoothness;
#X obj 112 121 r \$0-frame;
#X obj 139 151 r \$0-test;
#X obj 2 311 pack f f f f;
#X obj 2 340 s \$0-smooth_blist;
#X obj 57 21 r \$0-bloblist;
#X msg 2 61 2;
#X obj 57 61 route 2;
#X connect 0 0 1 5;
#X connect 1 0 6 1;
#X connect 1 1 6 2;
#X connect 1 2 6 3;
#X connect 2 0 1 0;
#X connect 3 0 1 2;
#X connect 4 0 1 3;
#X connect 5 0 1 4;
#X connect 6 0 7 0;
#X connect 8 0 9 0;
#X connect 8 0 10 0;
#X connect 9 0 6 0;
#X connect 10 0 1 1;
#X restore 2 170 pd one_cross-hair;
#N canvas 113 310 431 391 one_cross-hair 0;
#X obj 257 21 inlet colour;
#X obj 30 271 onecrosshair_display;
#X obj -60 21 r \$0-gemlist;
#X obj 84 91 r \$0-smoothness;
#X obj 112 121 r \$0-frame;
#X obj 139 151 r \$0-test;
#X obj 2 311 pack f f f f;
#X obj 2 340 s \$0-smooth_blist;
#X obj 57 21 r \$0-bloblist;
#X msg 2 61 3;
#X obj 57 61 route 3;
#X connect 0 0 1 5;
#X connect 1 0 6 1;
#X connect 1 1 6 2;
#X connect 1 2 6 3;
#X connect 2 0 1 0;
#X connect 3 0 1 2;
#X connect 4 0 1 3;
#X connect 5 0 1 4;
#X connect 6 0 7 0;
#X connect 8 0 9 0;
#X connect 8 0 10 0;
#X connect 9 0 6 0;
#X connect 10 0 1 1;
#X restore 2 200 pd one_cross-hair;
#N canvas 113 310 431 391 one_cross-hair 0;
#X obj 257 21 inlet colour;
#X obj 30 271 onecrosshair_display;
#X obj -60 21 r \$0-gemlist;
#X obj 84 91 r \$0-smoothness;
#X obj 112 121 r \$0-frame;
#X obj 139 151 r \$0-test;
#X obj 2 311 pack f f f f;
#X obj 2 340 s \$0-smooth_blist;
#X obj 57 21 r \$0-bloblist;
#X msg 2 61 4;
#X obj 57 61 route 4;
#X connect 0 0 1 5;
#X connect 1 0 6 1;
#X connect 1 1 6 2;
#X connect 1 2 6 3;
#X connect 2 0 1 0;
#X connect 3 0 1 2;
#X connect 4 0 1 3;
#X connect 5 0 1 4;
#X connect 6 0 7 0;
#X connect 8 0 9 0;
#X connect 8 0 10 0;
#X connect 9 0 6 0;
#X connect 10 0 1 1;
#X restore 2 230 pd one_cross-hair;
#N canvas 113 310 431 391 one_cross-hair 0;
#X obj 257 21 inlet colour;
#X obj 30 271 onecrosshair_display;
#X obj -60 21 r \$0-gemlist;
#X obj 84 91 r \$0-smoothness;
#X obj 112 121 r \$0-frame;
#X obj 139 151 r \$0-test;
#X obj 2 311 pack f f f f;
#X obj 2 340 s \$0-smooth_blist;
#X obj 57 21 r \$0-bloblist;
#X msg 2 61 5;
#X obj 57 61 route 5;
#X connect 0 0 1 5;
#X connect 1 0 6 1;
#X connect 1 1 6 2;
#X connect 1 2 6 3;
#X connect 2 0 1 0;
#X connect 3 0 1 2;
#X connect 4 0 1 3;
#X connect 5 0 1 4;
#X connect 6 0 7 0;
#X connect 8 0 9 0;
#X connect 8 0 10 0;
#X connect 9 0 6 0;
#X connect 10 0 1 1;
#X restore 2 260 pd one_cross-hair;
#N canvas 113 310 431 391 one_cross-hair 0;
#X obj 257 21 inlet colour;
#X obj 30 271 onecrosshair_display;
#X obj -60 21 r \$0-gemlist;
#X obj 84 91 r \$0-smoothness;
#X obj 112 121 r \$0-frame;
#X obj 139 151 r \$0-test;
#X obj 2 311 pack f f f f;
#X obj 2 340 s \$0-smooth_blist;
#X obj 57 21 r \$0-bloblist;
#X msg 2 61 6;
#X obj 57 61 route 6;
#X connect 0 0 1 5;
#X connect 1 0 6 1;
#X connect 1 1 6 2;
#X connect 1 2 6 3;
#X connect 2 0 1 0;
#X connect 3 0 1 2;
#X connect 4 0 1 3;
#X connect 5 0 1 4;
#X connect 6 0 7 0;
#X connect 8 0 9 0;
#X connect 8 0 10 0;
#X connect 9 0 6 0;
#X connect 10 0 1 1;
#X restore 2 290 pd one_cross-hair;
#X msg 242 110 1 0 0 1;
#X msg 242 170 1 1 0 1;
#X msg 242 260 0 1 0 1;
#X msg 242 200 1 0 1 1;
#X msg 242 141 0.5 0.9 1 1;
#N canvas 0 22 450 300 turn_off_crosshairs 0;
#X obj 124 236 s \$0-bloblist;
#X msg 124 206 \$1 0 0 0;
#X obj 124 136 until;
#X msg 124 106 6;
#X obj 124 176 cup;
#X msg 174 136 1;
#X obj 124 76 t b b;
#X obj 124 46 loadbang;
#X connect 1 0 0 0;
#X connect 2 0 4 0;
#X connect 3 0 2 0;
#X connect 4 0 1 0;
#X connect 5 0 4 0;
#X connect 6 0 3 0;
#X connect 6 1 5 0;
#X connect 7 0 6 0;
#X restore 242 320 pd turn_off_crosshairs;
#X connect 0 0 14 0;
#X connect 1 0 20 0;
#X connect 2 0 22 0;
#X connect 2 0 18 0;
#X connect 3 0 6 0;
#X connect 4 0 5 0;
#X connect 8 0 9 0;
#X connect 11 0 7 0;
#X connect 12 0 13 0;
#X connect 20 0 24 0;
#X connect 20 0 10 0;
#X connect 21 0 23 0;
#X connect 21 0 16 0;
#X connect 22 0 19 0;
#X connect 23 0 2 0;
#X connect 23 0 17 0;
#X connect 24 0 21 0;
#X connect 24 0 15 0;
