#N canvas 235 147 543 421 12;
#X declare -lib mrpeach;
#X declare -lib iemgui;
#X obj 0 4 cnv 15 384 164 empty empty empty 20 12 0 14 -191407 -66577
0;
#N canvas 501 189 428 295 osc_routing 0;
#X obj 313 -47 import mrpeach;
#X obj 13 93 unpackOSC;
#X text 94 94 <-- interpret raw data as OSC messages;
#X obj 13 173 routeOSC /accel;
#X obj 13 123 routeOSC /myo;
#X obj 153 173 routeOSC /orientation;
#N canvas 702 558 493 190 udp_receive 0;
#X obj 93 45 outlet;
#N canvas 1080 271 270 153 \$0-udp_prov 0;
#X restore -27 16 pd \$0-udp_prov;
#X obj -147 16 s pd-\$0-udp_prov;
#X msg -77 -45 clear \, obj 1 1 udpreceive \$1 \, obj 1 50 send udprecout
\, connect 0 0 1 0;
#X obj 93 16 r udprecout;
#X msg -147 -45 clear;
#X obj -147 -85 inlet;
#X obj -77 -85 inlet;
#X connect 3 0 2 0;
#X connect 4 0 0 0;
#X connect 5 0 2 0;
#X connect 6 0 5 0;
#X connect 7 0 3 0;
#X restore 13 53 pd udp_receive;
#X text 124 52 <-- receive raw data over UDP connection;
#X obj 13 -47 inlet on/off;
#X obj 13 -17 select 0 1;
#X msg 108 23 7777;
#X obj 13 203 outlet;
#X obj 153 203 outlet;
#X connect 1 0 4 0;
#X connect 3 0 11 0;
#X connect 4 0 3 0;
#X connect 4 0 5 0;
#X connect 5 0 12 0;
#X connect 6 0 1 0;
#X connect 8 0 9 0;
#X connect 9 0 6 0;
#X connect 9 1 10 0;
#X connect 10 0 6 1;
#X restore 33 -96 pd osc_routing;
#X obj 153 -146 inlet;
#X text 261 -135 Tested in Puredata Extended 0.42.5;
#X obj 2 6 cnv 15 380 160 empty empty empty 20 12 0 14 -228856 -66577
0;
#N canvas 675 268 606 281 orientation_processor 0;
#X obj -27 198 outlet;
#X obj 117 198 outlet;
#X obj 257 198 outlet;
#X text -19 218 yaw;
#X text 120 218 pitch;
#X text 263 218 roll;
#X text 311 -28 quaternions;
#X text 295 -15 |;
#X text 399 -15 |;
#X text 408 -15 |;
#X text 526 -15 |;
#X text 439 -28 rotations;
#X text 175 -26 orientation/;
#X text 175 -6 timestamp \, MyoID \, q1 \, q2 \, q3 \, q4 \, roll \,
pitch \, yaw;
#X text 298 -24 _______________;
#X text 411 -24 _________________;
#X text 167 26 |;
#X text 536 26 |;
#X text 169 26 _____________________________________________________
;
#X text 327 40 DAEMONMYO;
#X obj -27 88 unpack s f f f f f f f f;
#X text 24 70 DAEMONMYO;
#X obj -27 -2 inlet;
#X connect 20 6 2 0;
#X connect 20 7 1 0;
#X connect 20 8 0 0;
#X connect 22 0 20 0;
#X restore 193 -37 pd orientation_processor;
#N canvas 477 22 715 447 orientation_display 0;
#X obj -257 -76 pack;
#X obj -76 -76 pack;
#X obj 204 -76 pack;
#N canvas 452 61 244 325 init_gui 0;
#X obj -45 288 outlet;
#X msg 45 218 frame_col 16;
#X msg 55 248 sphere_col 22;
#X msg 15 128 src_col 1 16;
#X msg 25 158 src_col 2 17;
#X msg 35 188 src_col 3 18;
#X msg -5 68 nr_src 3;
#X msg 5 98 src_font 18;
#X obj -45 8 import iemgui;
#X obj -5 38 loadbang;
#X connect 1 0 2 0;
#X connect 1 0 0 0;
#X connect 2 0 0 0;
#X connect 3 0 4 0;
#X connect 3 0 0 0;
#X connect 4 0 5 0;
#X connect 4 0 0 0;
#X connect 5 0 1 0;
#X connect 5 0 0 0;
#X connect 6 0 7 0;
#X connect 6 0 0 0;
#X connect 7 0 3 0;
#X connect 7 0 0 0;
#X connect 9 0 6 0;
#X restore 73 -46 pd init_gui;
#X obj 3 20 cube_sphere 3 60 18 0 24197 24197 16 37 44925 60 28 62783
58 74;
#X obj -277 153 outlet;
#X obj -97 153 outlet;
#X obj 183 153 outlet;
#X obj 323 -267 inlet on/off;
#X obj -257 -207 spigot;
#X obj -77 -207 spigot;
#X obj 203 -207 spigot;
#X obj -277 -267 inlet yaw;
#X obj -97 -267 inlet pitch;
#X obj 183 -267 inlet roll;
#X text 126 56 1-yaw;
#X text 126 69 2-pitch;
#X text 126 84 3-roll;
#X msg -257 -46 src_dp 1 \$2 \$1;
#X msg -76 -46 src_dp 2 \$2 \$1;
#X msg 204 -46 src_dp 3 \$2 \$1;
#X msg -232 -106 16;
#X msg -51 -106 42;
#X msg 229 -106 68;
#X obj -232 -136 loadbang;
#X obj -51 -136 loadbang;
#X obj 229 -136 loadbang;
#X obj -257 -166 expr ($f1 * 180)/3.14;
#X obj 204 -166 expr ($f1 * 180)/3.14;
#X obj -76 -166 expr (($f1 + 1.5) * 60) - 90;
#X connect 0 0 18 0;
#X connect 1 0 19 0;
#X connect 2 0 20 0;
#X connect 3 0 4 0;
#X connect 8 0 9 1;
#X connect 8 0 10 1;
#X connect 8 0 11 1;
#X connect 9 0 27 0;
#X connect 10 0 29 0;
#X connect 11 0 28 0;
#X connect 12 0 9 0;
#X connect 12 0 5 0;
#X connect 13 0 10 0;
#X connect 13 0 6 0;
#X connect 14 0 11 0;
#X connect 14 0 7 0;
#X connect 18 0 4 0;
#X connect 19 0 4 0;
#X connect 20 0 4 0;
#X connect 21 0 0 1;
#X connect 22 0 1 1;
#X connect 23 0 2 1;
#X connect 24 0 21 0;
#X connect 25 0 22 0;
#X connect 26 0 23 0;
#X connect 27 0 0 0;
#X connect 28 0 2 0;
#X connect 29 0 1 0;
#X coords 0 -1 1 1 180 146 1 0 0;
#X restore 193 13 pd orientation_display;
#X obj 246 226 outlet;
#X obj 246 196 pack f f f;
#X text 248 -93 Juan Ignacio Mendoza Garay 2016-2018;
#N canvas 996 22 306 330 accel_display 0;
#X obj -109 1 inlet;
#X obj -59 1 inlet;
#X obj -9 1 inlet;
#X obj 61 1 inlet on/off;
#X obj 1 71 spigot;
#X obj 51 71 spigot;
#X obj 101 71 spigot;
#X obj -109 221 outlet;
#X obj -59 221 outlet;
#X obj -9 221 outlet;
#X obj 65 171 hsl 80 35 1 -1 0 0 empty empty empty -2 -8 0 10 -1 -257985
-1 0 1;
#X obj 1 123 vsl 35 80 1 -1 0 0 empty empty empty 0 -9 0 10 -1 -257985
-1 0 1;
#X obj 65 121 hsl 80 35 1 -1 0 0 empty empty empty -2 -8 0 10 -1 -257985
-1 0 1;
#X connect 0 0 4 0;
#X connect 0 0 7 0;
#X connect 1 0 5 0;
#X connect 1 0 8 0;
#X connect 2 0 6 0;
#X connect 2 0 9 0;
#X connect 3 0 4 1;
#X connect 3 0 5 1;
#X connect 3 0 6 1;
#X connect 4 0 11 0;
#X connect 5 0 10 0;
#X connect 6 0 12 0;
#X coords 0 -1 1 1 146 112 1 1 100;
#X restore 14 26 pd accel_display;
#X obj 50 225 outlet;
#X obj 50 195 pack f f f;
#X obj -20 -35 unpack s f f f f;
#X text 241 -115 Works with Rodrigo Scramm's DAEMONMYO;
#X obj 153 -96 s \$0_onoff;
#X obj 103 -36 r \$0_onoff;
#X obj 383 -36 r \$0_onoff;
#X connect 1 0 13 0;
#X connect 1 1 5 0;
#X connect 2 0 1 0;
#X connect 2 0 15 0;
#X connect 5 0 6 0;
#X connect 5 1 6 1;
#X connect 5 2 6 2;
#X connect 6 0 8 0;
#X connect 6 1 8 1;
#X connect 6 2 8 2;
#X connect 8 0 7 0;
#X connect 10 0 12 0;
#X connect 10 1 12 1;
#X connect 10 2 12 2;
#X connect 12 0 11 0;
#X connect 13 2 10 0;
#X connect 13 3 10 1;
#X connect 13 4 10 2;
#X connect 16 0 10 3;
#X connect 17 0 6 3;
#X coords 0 -1 1 1 384 172 2 0 0;
