#N canvas 124 171 1092 729 12;
#X declare -lib mrpeach;
#X declare -lib iemgui;
#X declare -lib iemgui;
#N canvas 502 86 423 262 instructions 0;
#X text -23 78 https://www.myo.com/;
#X text -23 -69 An external piece of software is required to fetch
the raw;
#X text -23 63 MYO manufacturer:;
#X text -23 6 To use the patch just explore it. If still insecure \,
then;
#X text -23 22 consult the cornucopia of information available on the
;
#X text -23 37 internet.;
#X text -23 -25 The patch is by default preset to use the OSC software
;
#X text -23 -99 This patch shows the signals that can be acquired from
one;
#X text -23 -84 MYO armband or two MYO armbands via OSC.;
#X text -23 -54 data from the MYO armbands and send it using the OSC
;
#X text -23 -39 protocol through a UDP network.;
#X text -23 -11 DAEMONMYO by Rodrigo Schramm.;
#X text -23 113 DAEMONMYO:;
#X text -23 128 https://github.com/federicoVisi/KineToolbox;
#X restore 302 1 pd instructions;
#X floatatom 794 107 5 0 0 1 - #0-osc_port_rcv #0-osc_port_snd;
#X obj 2 32 tgl 15 0 empty empty empty 17 7 0 10 -262144 -1 -1 0 1
;
#N canvas 317 308 539 300 get_OSC 0;
#X obj 356 6 import mrpeach;
#X obj -44 226 unpackOSC;
#X text 37 227 <-- interpret raw data as OSC messages;
#N canvas 702 558 493 190 udp_receive 0;
#X obj 93 75 outlet;
#N canvas 1080 271 270 153 \$0-udp_prov 0;
#X restore -27 46 pd \$0-udp_prov;
#X obj -147 46 s pd-\$0-udp_prov;
#X obj -77 -85 r \$0-osc_port_snd;
#X msg -147 -15 clear;
#X obj -147 -85 inlet;
#X obj 93 46 r \$0-udprecout;
#X obj -77 -55 pack f \$0;
#X msg -77 -15 clear \, obj 1 1 udpreceive \$1 \, obj 1 50 send \$2-udprecout
\, connect 0 0 1 0;
#X connect 3 0 7 0;
#X connect 4 0 2 0;
#X connect 5 0 4 0;
#X connect 6 0 0 0;
#X connect 7 0 8 0;
#X connect 8 0 2 0;
#X restore -44 186 pd udp_receive;
#X text 67 185 <-- receive raw data over UDP connection;
#X obj 66 7 loadbang;
#X msg 66 107 7777;
#X obj 66 156 s \$0-osc_port_rcv;
#X obj -44 6 inlet on/off;
#X obj -44 106 select 0 1;
#X text 108 108 <----- UDP port;
#X text 216 109 DAEMONMYO = 7777 (default);
#X obj -44 256 outlet;
#X msg -24 66 0;
#X connect 1 0 12 0;
#X connect 3 0 1 0;
#X connect 5 0 6 0;
#X connect 5 0 13 0;
#X connect 6 0 7 0;
#X connect 8 0 9 0;
#X connect 9 0 3 0;
#X connect 9 1 7 0;
#X connect 13 0 9 0;
#X restore 2 52 pd get_OSC;
#X obj 194 140 tgl 15 0 empty \$0-Myo1_accel_sw_rcv empty 17 7 0 10
-262144 -1 -1 1 1;
#X obj 482 140 tgl 15 0 empty \$0-Myo1_gyro_sw_rcv empty 17 7 0 10
-262144 -1 -1 0 1;
#X obj 626 140 tgl 15 0 empty \$0-Myo1_ori_sw_rcv empty 17 7 0 10 -262144
-1 -1 1 1;
#X obj 338 140 tgl 15 0 empty \$0-Myo1_emg_sw_rcv empty 17 7 0 10 -262144
-1 -1 1 1;
#X obj 770 140 tgl 15 0 empty \$0-Myo1_pose_sw_rcv empty 17 7 0 10
-262144 -1 -1 0 1;
#X msg 934 130 1;
#X msg 934 400 2;
#X obj 480 2 inlet switch list 1;
#X obj 660 2 inlet switch list 2;
#X obj 934 102 loadbang;
#X obj 2 2 inlet on/off;
#X text 463 107 ----------------------------------------------;
#X text 51 137 - 1 -;
#X text 51 407 - 2 -;
#N canvas 238 110 283 230 switches_1_distro 0;
#X obj 9 192 s \$0-Myo1_accel_sw_rcv;
#X obj 36 162 s \$0-Myo1_emg_sw_rcv;
#X obj 63 132 s \$0-Myo1_gyro_sw_rcv;
#X obj 90 102 s \$0-Myo1_ori_sw_rcv;
#X obj 118 72 s \$0-Myo1_pose_sw_rcv;
#X obj 9 12 inlet;
#X obj 9 42 unpack f f f f f;
#X connect 5 0 6 0;
#X connect 6 0 0 0;
#X connect 6 1 1 0;
#X connect 6 2 2 0;
#X connect 6 3 3 0;
#X connect 6 4 4 0;
#X restore 480 32 pd switches_1_distro;
#N canvas 238 110 283 230 switches_2_distro 0;
#X obj 9 12 inlet;
#X obj 9 42 unpack f f f f f;
#X obj 9 192 s \$0-Myo2_accel_sw_rcv;
#X obj 36 162 s \$0-Myo2_emg_sw_rcv;
#X obj 63 132 s \$0-Myo2_gyro_sw_rcv;
#X obj 90 102 s \$0-Myo2_ori_sw_rcv;
#X obj 118 72 s \$0-Myo2_pose_sw_rcv;
#X connect 0 0 1 0;
#X connect 1 0 2 0;
#X connect 1 1 3 0;
#X connect 1 2 4 0;
#X connect 1 3 5 0;
#X connect 1 4 6 0;
#X restore 660 32 pd switches_2_distro;
#X obj 194 410 tgl 15 0 empty \$0-Myo2_accel_sw_rcv empty 17 7 0 10
-262144 -1 -1 1 1;
#X obj 482 410 tgl 15 0 empty \$0-Myo2_gyro_sw_rcv empty 17 7 0 10
-262144 -1 -1 0 1;
#X obj 626 410 tgl 15 0 empty \$0-Myo2_ori_sw_rcv empty 17 7 0 10 -262144
-1 -1 1 1;
#X obj 338 410 tgl 15 0 empty \$0-Myo2_emg_sw_rcv empty 17 7 0 10 -262144
-1 -1 1 1;
#X obj 770 410 tgl 15 0 empty \$0-Myo2_pose_sw_rcv empty 17 7 0 10
-262144 -1 -1 0 1;
#X obj 51 160 Myo_process_display;
#X obj 51 384 outlet;
#X obj 121 384 outlet;
#X obj 191 384 outlet;
#X obj 251 384 outlet;
#X obj 321 384 outlet;
#X obj 605 694 outlet;
#X obj 675 694 outlet;
#X obj 745 694 outlet;
#X obj 805 694 outlet;
#X obj 875 694 outlet;
#X text 833 107 osc port ---;
#X text 50 107 -- RETRIEVE DATA FROM 2 MYO ARMBANDS ----------------------
;
#X obj 1002 694 outlet;
#N canvas 129 278 249 294 a_d 0;
#X obj 66 259 outlet;
#X obj 13 119 temperature 1000;
#X obj 13 151 select 0;
#X msg 13 181 0;
#X msg 66 181 1;
#X obj 66 221 change;
#X text 9 10 activiy detector;
#X obj 116 149 loadbang;
#X msg 116 181 2;
#X obj 13 79 spigot;
#X obj 13 39 inlet Myo signals;
#X obj 153 39 inlet on/off;
#X connect 1 0 2 0;
#X connect 2 0 3 0;
#X connect 2 1 4 0;
#X connect 3 0 5 0;
#X connect 4 0 5 0;
#X connect 5 0 0 0;
#X connect 7 0 8 0;
#X connect 8 0 5 0;
#X connect 9 0 1 0;
#X connect 10 0 9 0;
#X connect 11 0 9 1;
#X restore 1002 84 pd a_d;
#X obj 1041 54 tgl 15 0 empty empty empty 17 7 0 10 -262144 -1 -1 0
1;
#X obj 1041 2 inlet;
#X obj 51 430 Myo_process_display;
#X connect 2 0 3 0;
#X connect 3 0 25 0;
#X connect 3 0 39 0;
#X connect 3 0 42 0;
#X connect 4 0 25 1;
#X connect 5 0 25 3;
#X connect 6 0 25 4;
#X connect 7 0 25 2;
#X connect 8 0 25 5;
#X connect 9 0 10 0;
#X connect 9 0 25 6;
#X connect 10 0 42 6;
#X connect 11 0 18 0;
#X connect 12 0 19 0;
#X connect 13 0 9 0;
#X connect 14 0 2 0;
#X connect 20 0 42 1;
#X connect 21 0 42 3;
#X connect 22 0 42 4;
#X connect 23 0 42 2;
#X connect 24 0 42 5;
#X connect 25 0 26 0;
#X connect 25 1 27 0;
#X connect 25 2 28 0;
#X connect 25 3 29 0;
#X connect 25 4 30 0;
#X connect 39 0 38 0;
#X connect 40 0 39 1;
#X connect 41 0 40 0;
#X connect 42 0 31 0;
#X connect 42 1 32 0;
#X connect 42 2 33 0;
#X connect 42 3 34 0;
#X connect 42 4 35 0;
#X coords 0 -1 1 1 872 556 2 50 100;
