#N canvas 223 22 1186 526 12;
#X declare -lib mrpeach;
#X declare -lib iemgui;
#N canvas 654 329 786 524 osc_routing 0;
#X obj 356 6 import mrpeach;
#X obj -44 216 unpackOSC;
#X text 37 217 <-- interpret raw data as OSC messages;
#X obj -44 406 spigot;
#X obj 106 406 spigot;
#X obj 246 406 spigot;
#X obj 396 406 spigot;
#X obj 566 406 spigot;
#X obj -44 346 r \$0-osc;
#X obj 106 346 r \$0-osc;
#X obj 246 346 r \$0-osc;
#X obj 396 346 r \$0-osc;
#X obj 566 346 r \$0-osc;
#X obj -5 376 r \$0-sel_acc;
#X obj 145 376 r \$0-sel_emg;
#X obj 285 376 r \$0-sel_gyr;
#X obj 435 376 r \$0-sel_ori;
#X obj 605 376 r \$0-sel_pos;
#X obj 106 276 spigot;
#X obj 106 306 print;
#X obj 145 246 r \$0-print;
#X obj -44 466 s \$0-acc;
#X obj 106 466 s \$0-emg;
#X obj 246 466 s \$0-gyr;
#X obj 396 466 s \$0-ori;
#X obj 566 466 s \$0-pos;
#X obj -44 436 routeOSC /accel;
#X obj 106 436 routeOSC /emg;
#X obj -44 276 routeOSC /myo;
#X obj 246 436 routeOSC /gyro;
#X obj 396 436 routeOSC /orientation;
#X obj 566 436 routeOSC /pose;
#X obj -44 306 s \$0-osc;
#N canvas 702 558 493 190 udp_receive 0;
#X obj 93 45 outlet;
#N canvas 1080 271 270 153 \$0-udp_prov 0;
#X obj 1 1 udpreceive 7777;
#X obj 1 50 send udprecout;
#X connect 0 0 1 0;
#X restore -27 16 pd \$0-udp_prov;
#X obj -147 16 s pd-\$0-udp_prov;
#X msg -77 -45 clear \, obj 1 1 udpreceive \$1 \, obj 1 50 send udprecout
\, connect 0 0 1 0;
#X obj 93 16 r udprecout;
#X obj -77 -85 r \$0-osc_port_snd;
#X msg -147 -45 clear;
#X obj -147 -85 inlet;
#X connect 3 0 2 0;
#X connect 4 0 0 0;
#X connect 5 0 3 0;
#X connect 6 0 2 0;
#X connect 7 0 6 0;
#X restore -44 176 pd udp_receive;
#X text 67 175 <-- receive raw data over UDP connection;
#X obj 256 7 loadbang;
#X text 244 133 MYOSC = 6000;
#X msg 66 97 7777;
#X obj 93 36 r \$0-osc_ret_pset;
#X msg 126 97 6000;
#X obj 93 66 select 0 1;
#X obj 66 146 s \$0-osc_port_rcv;
#X obj -44 6 inlet on/off;
#X obj -44 36 select 0 1;
#X obj 256 66 s \$0-osc_ret_pset;
#X msg 256 36 0;
#X text 168 98 <----- UDP port;
#X text 216 119 DAEMONMYO = 7777 (default);
#X connect 1 0 28 0;
#X connect 1 0 18 0;
#X connect 3 0 26 0;
#X connect 4 0 27 0;
#X connect 5 0 29 0;
#X connect 6 0 30 0;
#X connect 7 0 31 0;
#X connect 8 0 3 0;
#X connect 9 0 4 0;
#X connect 10 0 5 0;
#X connect 11 0 6 0;
#X connect 12 0 7 0;
#X connect 13 0 3 1;
#X connect 14 0 4 1;
#X connect 15 0 5 1;
#X connect 16 0 6 1;
#X connect 17 0 7 1;
#X connect 18 0 19 0;
#X connect 20 0 18 1;
#X connect 26 0 21 0;
#X connect 27 0 22 0;
#X connect 28 0 32 0;
#X connect 29 0 23 0;
#X connect 30 0 24 0;
#X connect 31 0 25 0;
#X connect 33 0 1 0;
#X connect 35 0 45 0;
#X connect 37 0 41 0;
#X connect 38 0 40 0;
#X connect 39 0 41 0;
#X connect 40 0 37 0;
#X connect 40 1 39 0;
#X connect 42 0 43 0;
#X connect 43 0 33 0;
#X connect 43 1 41 0;
#X connect 45 0 44 0;
#X restore -270 97 pd osc_routing;
#N canvas 502 86 472 290 instructions 0;
#X text -3 68 https://github.com/benkuper/MyOSC;
#X text -3 83 https://github.com/samyk/myo-osc;
#X text -3 -179 This patch shows the signals that can be acquired from
the;
#X text -3 -164 MYO armband via OSC.;
#X text -3 28 https://www.myo.com/;
#X text -3 -149 An external piece of software is required to fetch
the raw;
#X text -3 -134 data from the MYO armband and send it using the OSC
protocol;
#X text -3 -119 through a UDP network.;
#X text -3 -17 Find below some internet addresses with useful resources.
;
#X text -3 13 MYO manufacturer:;
#X text -3 53 Software to fetch raw data from MYO and send via OSC:
;
#X text -3 -64 To use the patch just explore it. If still insecure
\, then;
#X text -3 -48 consult the cornucopia of information available on the
;
#X text -3 -33 internet.;
#X text -3 -77 There is also a preset to use Ben Kupfer's MYOSC.;
#X text -3 -105 The patch is by default preset to use the OSC software
;
#X text -3 -91 DAEMONMYO by Rodrigo Scramm.;
#X restore 30 -34 pd instructions;
#X text 51 33 acceleration;
#X text 51 48 electromyography;
#X text 51 64 gyroscope;
#X text 51 80 orientation;
#X text 51 95 pose;
#X obj 30 37 tgl 15 0 \$0-sel_acc \$0-sel_acc_rcv empty 17 7 0 10 -262144
-1 -1 1 1;
#X obj 30 52 tgl 15 0 \$0-sel_emg \$0-sel_emg_rcv empty 17 7 0 10 -262144
-1 -1 1 1;
#X obj 30 67 tgl 15 0 \$0-sel_gyr \$0-sel_gyr_rcv empty 17 7 0 10 -262144
-1 -1 0 1;
#X obj 30 82 tgl 15 0 \$0-sel_ori \$0-sel_ori_rcv empty 17 7 0 10 -262144
-1 -1 1 1;
#X obj 30 97 tgl 15 0 \$0-sel_pos \$0-sel_pos_rcv empty 17 7 0 10 -262144
-1 -1 0 1;
#X floatatom -106 98 5 0 0 1 - #0-osc_port_rcv #0-osc_port_snd;
#X text -67 98 osc port;
#X obj 190 37 tgl 15 0 \$0-print norcv empty 17 7 0 10 -262144 -1 -1
0 1;
#X text 209 33 Print;
#X obj -270 -3 inlet;
#X text 628 68 Tested in Puredata Extended 0.42.5;
#X obj -270 67 tgl 15 0 empty empty empty 17 7 0 10 -262144 -1 -1 1
1;
#X text -250 64 <--- on/off;
#X obj -106 37 vradio 15 1 0 2 \$0-osc_ret_pset norcv empty 0 -8 0
10 -262144 -1 -1 0;
#X text -85 33 DAEMONMYO;
#X text -84 49 MYOSC;
#X text -271 -34 -- RETRIEVE DATA FROM A MYO ARMBAND v2 --;
#X obj -270 129 cnv 15 222 352 empty empty empty 20 12 0 14 -191407
-66577 0;
#X obj -264 136 cnv 15 210 340 empty empty empty 20 12 0 14 -233017
-66577 0;
#X obj -40 129 cnv 15 222 352 empty empty empty 20 12 0 14 -191407
-66577 0;
#X obj -34 136 cnv 15 210 340 empty empty empty 20 12 0 14 -233017
-66577 0;
#X obj 190 129 cnv 15 222 352 empty empty empty 20 12 0 14 -191407
-66577 0;
#X obj 196 136 cnv 15 210 340 empty empty empty 20 12 0 14 -233017
-66577 0;
#X obj 420 129 cnv 15 222 352 empty empty empty 20 12 0 14 -191407
-66577 0;
#X obj 426 136 cnv 15 210 340 empty empty empty 20 12 0 14 -233017
-66577 0;
#X obj 650 129 cnv 15 222 352 empty empty empty 20 12 0 14 -191407
-66577 0;
#X obj 656 136 cnv 15 210 340 empty empty empty 20 12 0 14 -233017
-66577 0;
#N canvas 141 23 1197 687 emg_processor 0;
#X obj 313 89 unpack s f f f f f f f f;
#X obj 696 227 average 10;
#X obj 566 227 average 10;
#X obj 436 227 average 10;
#X obj 306 227 average 10;
#X obj 176 227 average 10;
#X obj 46 227 average 10;
#X obj -84 227 average 10;
#X obj -214 227 average 10;
#X obj 76 -51 r \$0-osc_ret_pset;
#X obj 76 -21 + 1;
#X obj 115 -21 r \$0-emg;
#X obj -253 89 unpack s f f f f f f f f f;
#X obj -253 597 outlet;
#X obj -123 527 outlet;
#X obj 7 597 outlet;
#X obj 137 527 outlet;
#X obj 267 597 outlet;
#X obj 397 527 outlet;
#X obj 527 597 outlet;
#X obj 657 527 outlet;
#X obj -214 347 expr $f1*$f3+$f2;
#X obj -84 347 expr $f1*$f3+$f2;
#X obj 46 347 expr $f1*$f3+$f2;
#X obj 176 347 expr $f1*$f3+$f2;
#X obj 306 347 expr $f1*$f3+$f2;
#X obj 436 347 expr $f1*$f3+$f2;
#X obj 566 347 expr $f1*$f3+$f2;
#X obj 696 348 expr $f1*$f3+$f2;
#X obj -206 257 r \$0-emg_offset;
#X obj -176 287 r \$0-emg_amp;
#X obj -207 197 r \$0-emg_ave;
#X obj -77 197 r \$0-emg_ave;
#X obj 53 197 r \$0-emg_ave;
#X obj 183 197 r \$0-emg_ave;
#X obj 313 197 r \$0-emg_ave;
#X obj 443 197 r \$0-emg_ave;
#X obj 573 197 r \$0-emg_ave;
#X obj 703 197 r \$0-emg_ave;
#X obj -46 287 r \$0-emg_amp;
#X obj 84 287 r \$0-emg_amp;
#X obj 214 287 r \$0-emg_amp;
#X obj 344 287 r \$0-emg_amp;
#X obj 474 287 r \$0-emg_amp;
#X obj 604 287 r \$0-emg_amp;
#X obj 734 287 r \$0-emg_amp;
#X obj -76 257 r \$0-emg_offset;
#X obj 54 257 r \$0-emg_offset;
#X obj 184 257 r \$0-emg_offset;
#X obj 314 257 r \$0-emg_offset;
#X obj 444 257 r \$0-emg_offset;
#X obj 574 257 r \$0-emg_offset;
#X obj 704 257 r \$0-emg_offset;
#X obj 696 68 s \$0-emg_ave;
#X obj 696 98 s \$0-emg_amp;
#X obj 696 128 s \$0-emg_offset;
#X obj 536 18 * 8;
#X obj 536 -42 r \$0-emg_smooth_snd;
#X obj 356 18 s \$0-emg_smooth_rcv;
#X msg 346 -12 1;
#X obj 346 -42 loadbang;
#X obj 696 18 expr $f1*99 + 1;
#X obj 576 18 expr $f1*5 + 1;
#X obj -214 557 expr pow($f1 \, 2)/3-30;
#X obj -84 497 expr pow($f1 \, 2)/3-30;
#X obj 46 557 expr pow($f1 \, 2)/3-30;
#X obj 176 497 expr pow($f1 \, 2)/3-30;
#X obj 306 557 expr pow($f1 \, 2)/3-30;
#X obj 436 497 expr pow($f1 \, 2)/3-30;
#X obj 566 557 expr pow($f1 \, 2)/3-30;
#X obj 696 497 expr pow($f1 \, 2)/3-30;
#X obj -203 417 + 1;
#X obj -203 387 r \$0-emg_exp_snd;
#X obj 346 48 s \$0-emg_exp_rcv;
#X obj 57 417 + 1;
#X obj 57 387 r \$0-emg_exp_snd;
#X obj 317 417 + 1;
#X obj 317 387 r \$0-emg_exp_snd;
#X obj 577 417 + 1;
#X obj 577 387 r \$0-emg_exp_snd;
#X msg 306 -12 0;
#X obj 76 9 gate_2;
#X obj -253 527 gate_2;
#X obj 7 527 gate_2;
#X obj 267 527 gate_2;
#X obj 527 527 gate_2;
#X obj -123 467 gate_2;
#X obj 137 467 gate_2;
#X obj 397 467 gate_2;
#X obj 657 467 gate_2;
#X connect 0 1 8 0;
#X connect 0 2 7 0;
#X connect 0 3 6 0;
#X connect 0 4 5 0;
#X connect 0 5 4 0;
#X connect 0 6 3 0;
#X connect 0 7 2 0;
#X connect 0 8 1 0;
#X connect 1 0 28 0;
#X connect 2 0 27 0;
#X connect 3 0 26 0;
#X connect 4 0 25 0;
#X connect 5 0 24 0;
#X connect 6 0 23 0;
#X connect 7 0 22 0;
#X connect 8 0 21 0;
#X connect 9 0 10 0;
#X connect 10 0 81 0;
#X connect 11 0 81 1;
#X connect 12 2 8 0;
#X connect 12 3 7 0;
#X connect 12 4 6 0;
#X connect 12 5 5 0;
#X connect 12 6 4 0;
#X connect 12 7 3 0;
#X connect 12 8 2 0;
#X connect 12 9 1 0;
#X connect 21 0 71 0;
#X connect 21 0 82 1;
#X connect 22 0 86 1;
#X connect 23 0 83 1;
#X connect 24 0 87 1;
#X connect 25 0 84 1;
#X connect 26 0 88 1;
#X connect 27 0 85 1;
#X connect 28 0 89 1;
#X connect 29 0 21 1;
#X connect 30 0 21 2;
#X connect 31 0 8 1;
#X connect 32 0 7 1;
#X connect 33 0 6 1;
#X connect 34 0 5 1;
#X connect 35 0 4 1;
#X connect 36 0 3 1;
#X connect 37 0 2 1;
#X connect 38 0 1 1;
#X connect 39 0 22 2;
#X connect 40 0 23 2;
#X connect 41 0 24 2;
#X connect 42 0 25 2;
#X connect 43 0 26 2;
#X connect 44 0 27 2;
#X connect 45 0 28 2;
#X connect 46 0 22 1;
#X connect 47 0 23 1;
#X connect 48 0 24 1;
#X connect 49 0 25 1;
#X connect 50 0 26 1;
#X connect 51 0 27 1;
#X connect 52 0 28 1;
#X connect 56 0 55 0;
#X connect 57 0 56 0;
#X connect 57 0 61 0;
#X connect 57 0 62 0;
#X connect 59 0 58 0;
#X connect 60 0 59 0;
#X connect 60 0 80 0;
#X connect 61 0 53 0;
#X connect 62 0 54 0;
#X connect 63 0 13 0;
#X connect 64 0 14 0;
#X connect 65 0 15 0;
#X connect 66 0 16 0;
#X connect 67 0 17 0;
#X connect 68 0 18 0;
#X connect 69 0 19 0;
#X connect 70 0 20 0;
#X connect 71 0 82 0;
#X connect 71 0 86 0;
#X connect 72 0 71 0;
#X connect 74 0 83 0;
#X connect 74 0 87 0;
#X connect 75 0 74 0;
#X connect 76 0 84 0;
#X connect 76 0 88 0;
#X connect 77 0 76 0;
#X connect 78 0 85 0;
#X connect 78 0 89 0;
#X connect 79 0 78 0;
#X connect 80 0 73 0;
#X connect 81 0 12 0;
#X connect 81 1 0 0;
#X connect 82 0 13 0;
#X connect 82 1 63 0;
#X connect 83 0 15 0;
#X connect 83 1 65 0;
#X connect 84 0 17 0;
#X connect 84 1 67 0;
#X connect 85 0 19 0;
#X connect 85 1 69 0;
#X connect 86 0 14 0;
#X connect 86 1 64 0;
#X connect 87 0 16 0;
#X connect 87 1 66 0;
#X connect 88 0 18 0;
#X connect 88 1 68 0;
#X connect 89 0 20 0;
#X connect 89 1 70 0;
#X restore -12 187 pd emg_processor;
#N canvas 619 207 301 296 accel_processor 0;
#X obj 87 58 unpack s f f f;
#X obj 28 169 outlet;
#X obj 90 169 outlet;
#X obj 150 169 outlet;
#X obj 36 -22 r \$0-acc;
#X obj -63 58 unpack s f f f f;
#X obj -3 -52 r \$0-osc_ret_pset;
#X obj -3 -22 + 1;
#X obj -3 8 gate_2;
#X connect 0 1 1 0;
#X connect 0 2 2 0;
#X connect 0 3 3 0;
#X connect 4 0 8 1;
#X connect 5 2 1 0;
#X connect 5 3 2 0;
#X connect 5 4 3 0;
#X connect 6 0 7 0;
#X connect 7 0 8 0;
#X connect 8 0 5 0;
#X connect 8 1 0 0;
#X restore -234 186 pd accel_processor;
#N canvas 936 214 312 296 gyro_processor 0;
#X obj 137 138 unpack s f f f;
#X obj 68 249 outlet;
#X obj 130 249 outlet;
#X obj 190 249 outlet;
#X obj -23 138 unpack s f f f f;
#X obj 37 28 r \$0-osc_ret_pset;
#X obj 37 58 + 1;
#X obj 76 58 r \$0-gyr;
#X obj 37 88 gate_2;
#X connect 0 1 1 0;
#X connect 0 2 2 0;
#X connect 0 3 3 0;
#X connect 4 2 1 0;
#X connect 4 3 2 0;
#X connect 4 4 3 0;
#X connect 5 0 6 0;
#X connect 6 0 8 0;
#X connect 7 0 8 1;
#X connect 8 0 4 0;
#X connect 8 1 0 0;
#X restore 228 186 pd gyro_processor;
#N canvas 834 22 606 281 orientation_processor 0;
#X obj -27 -32 r \$0-osc_ret_pset;
#X obj -27 -2 + 1;
#X obj 12 -2 r \$0-ori;
#X obj -27 198 outlet;
#X obj 117 198 outlet;
#X obj 257 198 outlet;
#X text -19 218 yaw;
#X text 120 218 pitch;
#X text 263 218 roll;
#X text 311 -28 quaternions;
#X text 295 -15 |;
#X text 399 -15 |;
#X text 408 -15 |;
#X text 526 -15 |;
#X text 439 -28 rotations;
#X text 175 -26 orientation/;
#X text 175 -6 timestamp \, MyoID \, q1 \, q2 \, q3 \, q4 \, roll \,
pitch \, yaw;
#X text 298 -24 _______________;
#X text 411 -24 _________________;
#X text 408 6 |;
#X text 526 6 |;
#X text 411 6 _________________;
#X text 453 20 MYOSC;
#X text 167 26 |;
#X text 536 26 |;
#X text 169 26 _____________________________________________________
;
#X text 327 40 DAEMONMYO;
#X obj 162 88 unpack s f f f;
#X obj -27 88 unpack s f f f f f f f f;
#X text 24 70 DAEMONMYO;
#X text 194 70 MYOSC;
#X obj -27 28 gate_2;
#X connect 0 0 1 0;
#X connect 1 0 31 0;
#X connect 2 0 31 1;
#X connect 27 1 3 0;
#X connect 27 2 4 0;
#X connect 27 3 5 0;
#X connect 28 6 5 0;
#X connect 28 7 4 0;
#X connect 28 8 3 0;
#X connect 31 0 28 0;
#X connect 31 1 27 0;
#X restore 440 186 pd orientation_processor;
#N canvas 630 22 810 528 pose_processor 0;
#X obj 517 88 unpack s s;
#X obj 14 348 select rest;
#X msg 14 378 0;
#X msg 114 378 1;
#X obj 334 458 outlet;
#X obj 114 348 select fist;
#X obj 334 348 select waveOut;
#X obj 454 348 select doubleTap;
#X obj 584 348 select fingersSpread;
#X msg 214 378 2;
#X obj 214 348 select waveIn;
#X msg 334 378 3;
#X msg 454 378 4;
#X msg 584 378 5;
#X obj 218 -32 r \$0-osc_ret_pset;
#X obj 218 -2 + 1;
#X obj -67 78 unpack s f s;
#X obj 257 -2 r \$0-pos;
#X obj 218 28 gate_2;
#X connect 0 1 1 0;
#X connect 0 1 5 0;
#X connect 0 1 6 0;
#X connect 0 1 7 0;
#X connect 0 1 8 0;
#X connect 0 1 10 0;
#X connect 1 0 2 0;
#X connect 2 0 4 0;
#X connect 3 0 4 0;
#X connect 5 0 3 0;
#X connect 6 0 11 0;
#X connect 7 0 12 0;
#X connect 8 0 13 0;
#X connect 9 0 4 0;
#X connect 10 0 9 0;
#X connect 11 0 4 0;
#X connect 12 0 4 0;
#X connect 13 0 4 0;
#X connect 14 0 15 0;
#X connect 15 0 18 0;
#X connect 16 2 1 0;
#X connect 16 2 5 0;
#X connect 16 2 10 0;
#X connect 16 2 6 0;
#X connect 16 2 7 0;
#X connect 16 2 8 0;
#X connect 17 0 18 1;
#X connect 18 0 16 0;
#X connect 18 1 0 0;
#X restore 694 186 pd pose_processor;
#N canvas 996 22 306 330 accel_display 0;
#X obj -109 1 inlet;
#X obj -59 1 inlet;
#X obj -9 1 inlet;
#X obj 61 1 inlet on/off;
#X obj 1 71 spigot;
#X obj 51 71 spigot;
#X obj 101 71 spigot;
#X obj -109 221 outlet;
#X obj -59 221 outlet;
#X obj -9 221 outlet;
#X obj 65 171 hsl 80 35 1 -1 0 0 empty empty empty -2 -8 0 10 -1 -257985
-1 7599 1;
#X obj 1 123 vsl 35 80 1 -1 0 0 empty empty empty 0 -9 0 10 -1 -257985
-1 3481 1;
#X obj 65 121 hsl 80 35 1 -1 0 0 empty empty empty -2 -8 0 10 -1 -257985
-1 2430 1;
#X connect 0 0 4 0;
#X connect 0 0 7 0;
#X connect 1 0 5 0;
#X connect 1 0 8 0;
#X connect 2 0 6 0;
#X connect 2 0 9 0;
#X connect 3 0 4 1;
#X connect 3 0 5 1;
#X connect 3 0 6 1;
#X connect 4 0 11 0;
#X connect 5 0 10 0;
#X connect 6 0 12 0;
#X coords 0 -1 1 1 146 112 1 1 100;
#X restore -234 270 pd accel_display;
#X obj -95 166 tgl 15 0 empty empty display -45 7 0 10 -262144 -1 -1
1 1;
#N canvas 603 102 710 387 emg_display 0;
#X obj -479 -106 inlet;
#X obj -419 -106 inlet;
#X obj -359 -106 inlet;
#X obj 111 -106 inlet on/off;
#X obj -469 14 spigot;
#X obj -409 14 spigot;
#X obj -349 14 spigot;
#X obj -479 244 outlet;
#X obj -419 244 outlet;
#X obj -359 244 outlet;
#X obj 141 123 vsl 15 128 -30 30 0 0 empty empty empty 0 -9 0 10 -1
-260097 -1 7345 1;
#X obj 121 123 vsl 15 128 -30 30 0 0 empty empty empty 0 -9 0 10 -1
-260097 -1 6710 1;
#X obj 101 124 vsl 15 128 -30 30 0 0 empty empty empty 0 -9 0 10 -1
-260097 -1 7002 1;
#X obj 81 123 vsl 15 128 -30 30 0 0 empty empty empty 0 -9 0 10 -1
-260097 -1 6418 1;
#X obj 61 124 vsl 15 128 -30 30 0 0 empty empty empty 0 -9 0 10 -1
-260097 -1 5630 1;
#X obj 41 123 vsl 15 128 -30 30 0 0 empty empty empty 0 -9 0 10 -1
-260097 -1 6862 1;
#X obj 21 124 vsl 15 128 -30 30 0 0 empty empty empty 0 -9 0 10 -1
-260097 -1 7421 1;
#X obj 1 123 vsl 15 128 -30 30 0 0 empty empty empty 0 -9 0 10 -1 -260097
-1 7192 1;
#X obj -299 244 outlet;
#X obj -239 244 outlet;
#X obj -179 244 outlet;
#X obj -119 244 outlet;
#X obj -59 244 outlet;
#X obj -289 14 spigot;
#X obj -229 14 spigot;
#X obj -169 14 spigot;
#X obj -109 14 spigot;
#X obj -49 14 spigot;
#X obj -299 -106 inlet;
#X obj -239 -106 inlet;
#X obj -179 -106 inlet;
#X obj -119 -106 inlet;
#X obj -59 -106 inlet;
#X connect 0 0 4 0;
#X connect 0 0 7 0;
#X connect 1 0 5 0;
#X connect 1 0 8 0;
#X connect 2 0 6 0;
#X connect 2 0 9 0;
#X connect 3 0 4 1;
#X connect 3 0 5 1;
#X connect 3 0 6 1;
#X connect 3 0 23 1;
#X connect 3 0 24 1;
#X connect 3 0 25 1;
#X connect 3 0 26 1;
#X connect 3 0 27 1;
#X connect 4 0 17 0;
#X connect 5 0 16 0;
#X connect 6 0 15 0;
#X connect 23 0 14 0;
#X connect 24 0 13 0;
#X connect 25 0 12 0;
#X connect 26 0 11 0;
#X connect 27 0 10 0;
#X connect 28 0 18 0;
#X connect 28 0 23 0;
#X connect 29 0 19 0;
#X connect 29 0 24 0;
#X connect 30 0 20 0;
#X connect 30 0 25 0;
#X connect 31 0 21 0;
#X connect 31 0 26 0;
#X connect 32 0 22 0;
#X connect 32 0 27 0;
#X coords 0 -1 1 1 156 160 1 1 100;
#X restore -12 222 pd emg_display;
#X obj 137 167 tgl 15 0 empty empty display -45 7 0 10 -262144 -1 -1
0 1;
#N canvas 996 22 306 330 gyro_display 0;
#X obj -109 1 inlet;
#X obj -59 1 inlet;
#X obj -9 1 inlet;
#X obj 61 1 inlet on/off;
#X obj 1 71 spigot;
#X obj 51 71 spigot;
#X obj 101 71 spigot;
#X obj -109 221 outlet;
#X obj -59 221 outlet;
#X obj -9 221 outlet;
#X obj 65 171 hsl 80 35 600 -600 0 0 empty empty empty -2 -8 0 10 -1
-258113 -1 0 1;
#X obj 65 121 hsl 80 35 600 -600 0 0 empty empty empty -2 -8 0 10 -1
-258113 -1 0 1;
#X obj 1 123 vsl 35 80 600 -600 0 0 empty empty empty 0 -9 0 10 -1
-258113 -1 0 1;
#X connect 0 0 4 0;
#X connect 0 0 7 0;
#X connect 1 0 5 0;
#X connect 1 0 8 0;
#X connect 2 0 6 0;
#X connect 2 0 9 0;
#X connect 3 0 4 1;
#X connect 3 0 5 1;
#X connect 3 0 6 1;
#X connect 4 0 12 0;
#X connect 5 0 10 0;
#X connect 6 0 11 0;
#X coords 0 -1 1 1 146 112 1 1 100;
#X restore 228 270 pd gyro_display;
#X obj 367 166 tgl 15 0 empty empty display -45 7 0 10 -262144 -1 -1
0 1;
#N canvas 477 22 715 447 orientation_display 0;
#X obj -257 -76 pack;
#X obj -76 -76 pack;
#X obj 204 -76 pack;
#N canvas 452 61 244 325 init_gui 0;
#X obj -45 288 outlet;
#X msg 45 218 frame_col 16;
#X msg 55 248 sphere_col 22;
#X msg 15 128 src_col 1 16;
#X msg 25 158 src_col 2 17;
#X msg 35 188 src_col 3 18;
#X msg -5 68 nr_src 3;
#X msg 5 98 src_font 18;
#X obj -45 8 import iemgui;
#X obj -5 38 loadbang;
#X connect 1 0 2 0;
#X connect 1 0 0 0;
#X connect 2 0 0 0;
#X connect 3 0 4 0;
#X connect 3 0 0 0;
#X connect 4 0 5 0;
#X connect 4 0 0 0;
#X connect 5 0 1 0;
#X connect 5 0 0 0;
#X connect 6 0 7 0;
#X connect 6 0 0 0;
#X connect 7 0 3 0;
#X connect 7 0 0 0;
#X connect 9 0 6 0;
#X restore 73 -46 pd init_gui;
#X obj 3 20 cube_sphere 3 60 18 0 24197 24197 16 37 44925 60 28 62783
58 74;
#X obj -277 153 outlet;
#X obj -97 153 outlet;
#X obj 183 153 outlet;
#X obj 323 -267 inlet on/off;
#X obj -257 -207 spigot;
#X obj -77 -207 spigot;
#X obj 203 -207 spigot;
#X obj -277 -267 inlet yaw;
#X obj -97 -267 inlet pitch;
#X obj 183 -267 inlet roll;
#X text 126 56 1-yaw;
#X text 126 69 2-pitch;
#X text 126 84 3-roll;
#X msg -257 -46 src_dp 1 \$2 \$1;
#X msg -76 -46 src_dp 2 \$2 \$1;
#X msg 204 -46 src_dp 3 \$2 \$1;
#X msg -232 -106 16;
#X msg -51 -106 42;
#X msg 229 -106 68;
#X obj -232 -136 loadbang;
#X obj -51 -136 loadbang;
#X obj 229 -136 loadbang;
#X obj -257 -166 expr ($f1 * 180)/3.14;
#X obj 204 -166 expr ($f1 * 180)/3.14;
#X obj -76 -166 expr (($f1 + 1.5) * 60) - 90;
#X connect 0 0 18 0;
#X connect 1 0 19 0;
#X connect 2 0 20 0;
#X connect 3 0 4 0;
#X connect 8 0 9 1;
#X connect 8 0 10 1;
#X connect 8 0 11 1;
#X connect 9 0 27 0;
#X connect 10 0 29 0;
#X connect 11 0 28 0;
#X connect 12 0 9 0;
#X connect 12 0 5 0;
#X connect 13 0 10 0;
#X connect 13 0 6 0;
#X connect 14 0 11 0;
#X connect 14 0 7 0;
#X connect 18 0 4 0;
#X connect 19 0 4 0;
#X connect 20 0 4 0;
#X connect 21 0 0 1;
#X connect 22 0 1 1;
#X connect 23 0 2 1;
#X connect 24 0 21 0;
#X connect 25 0 22 0;
#X connect 26 0 23 0;
#X connect 27 0 0 0;
#X connect 28 0 2 0;
#X connect 29 0 1 0;
#X coords 0 -1 1 1 180 146 1 0 0;
#X restore 440 236 pd orientation_display;
#X obj 613 166 tgl 15 0 empty empty display -45 7 0 10 -262144 -1 -1
0 1;
#N canvas 435 22 161 260 pose_display 0;
#X obj 40 -63 inlet on/off;
#X obj -9 167 outlet;
#X obj 1 -33 spigot;
#X obj -9 -63 inlet;
#X obj 1 21 vradio 22 1 0 6 empty empty empty 0 -8 0 10 -1 -232576
-1 0;
#X text 28 21 rest;
#X text 28 43 fist;
#X text 28 87 wave out;
#X text 28 109 double tap;
#X text 28 131 fingers spread;
#X text 28 65 wave in;
#X connect 0 0 2 1;
#X connect 2 0 4 0;
#X connect 3 0 1 0;
#X connect 3 0 2 0;
#X coords 0 -1 1 1 130 158 1 1 1;
#X restore 694 224 pd pose_display;
#X obj 817 166 tgl 15 0 empty empty display -45 7 0 10 -262144 -1 -1
0 1;
#X obj -12 166 tgl 15 0 \$0-emg_exp_snd \$0-emg_exp_rcv expon. 17 7
0 10 -262144 -1 -1 0 1;
#X obj -198 449 outlet;
#X obj -6 449 outlet;
#X obj 264 449 outlet;
#X obj 493 449 outlet;
#X obj 694 449 outlet;
#X obj 264 419 pack f f f;
#X obj 493 419 pack f f f;
#X obj -198 419 pack f f f;
#X obj -6 419 pack f f f f f f f f;
#X obj -9 144 hsl 159 15 0 1 0 0 \$0-emg_smooth_snd \$0-emg_smooth_rcv
smooth 60 7 0 10 -262144 -1 -1 15800 1;
#X obj 294 -4 inlet accel;
#X obj 384 -4 inlet emg;
#X obj 464 -4 inlet gyro;
#X obj 554 -4 inlet ori;
#X obj 634 -4 inlet pose;
#N canvas 626 23 507 266 external_onoff_sends 1;
#X obj 19 -22 inlet accel;
#X obj 109 -22 inlet emg;
#X obj 209 -22 inlet gyro;
#X obj 299 -22 inlet ori;
#X obj 379 -22 inlet pose;
#X obj 19 208 s \$0-sel_acc_rcv;
#X obj 109 178 s \$0-sel_emg_rcv;
#X obj 209 88 s \$0-sel_gyr_rcv;
#X obj 299 58 s \$0-sel_ori_rcv;
#X obj 379 28 s \$0-sel_pos_rcv;
#X obj 149 148 s \$0-emg_exp_rcv;
#X obj 109 8 unpack f f f;
#X obj 190 118 s \$0-emg_smooth_rcv;
#X connect 0 0 5 0;
#X connect 1 0 11 0;
#X connect 2 0 7 0;
#X connect 3 0 8 0;
#X connect 4 0 9 0;
#X connect 11 0 6 0;
#X connect 11 1 10 0;
#X connect 11 2 12 0;
#X restore 385 37 pd external_onoff_sends;
#X text 726 -4 <--- external switch;
#X obj -220 -3 loadbang;
#X msg -220 27 0;
#X text 615 87 Juan Ignacio Mendoza Garay 2016-2018;
#X connect 16 0 18 0;
#X connect 18 0 0 0;
#X connect 34 0 41 0;
#X connect 34 1 41 1;
#X connect 34 2 41 2;
#X connect 34 3 41 3;
#X connect 34 4 41 4;
#X connect 34 5 41 5;
#X connect 34 6 41 6;
#X connect 34 7 41 7;
#X connect 35 0 39 0;
#X connect 35 1 39 1;
#X connect 35 2 39 2;
#X connect 36 0 43 0;
#X connect 36 1 43 1;
#X connect 36 2 43 2;
#X connect 37 0 45 0;
#X connect 37 1 45 1;
#X connect 37 2 45 2;
#X connect 38 0 47 0;
#X connect 39 0 57 0;
#X connect 39 1 57 1;
#X connect 39 2 57 2;
#X connect 40 0 39 3;
#X connect 41 0 58 0;
#X connect 41 1 58 1;
#X connect 41 2 58 2;
#X connect 41 3 58 3;
#X connect 41 4 58 4;
#X connect 41 5 58 5;
#X connect 41 6 58 6;
#X connect 41 7 58 7;
#X connect 42 0 41 8;
#X connect 43 0 55 0;
#X connect 43 1 55 1;
#X connect 43 2 55 2;
#X connect 44 0 43 3;
#X connect 45 0 56 0;
#X connect 45 1 56 1;
#X connect 45 2 56 2;
#X connect 46 0 45 3;
#X connect 47 0 54 0;
#X connect 48 0 47 1;
#X connect 55 0 52 0;
#X connect 56 0 53 0;
#X connect 57 0 50 0;
#X connect 58 0 51 0;
#X connect 60 0 65 0;
#X connect 61 0 65 1;
#X connect 62 0 65 2;
#X connect 63 0 65 3;
#X connect 64 0 65 4;
#X connect 67 0 68 0;
#X connect 68 0 18 0;
