#N canvas 230 22 1028 656 12;
#X declare -lib iemgui;
#X obj 3 -426 inlet unpacked_OSC;
#X obj 3 -396 routeOSC /myo;
#X obj 3 -266 spigot;
#X obj 203 -266 spigot;
#X obj 393 -266 spigot;
#X obj 583 -266 spigot;
#X obj 773 -266 spigot;
#X obj 3 -236 routeOSC /accel;
#X obj 203 -236 routeOSC /emg;
#X obj 393 -236 routeOSC /gyro;
#X obj 583 -236 routeOSC /orientation;
#X obj 773 -236 routeOSC /pose;
#X obj 162 -426 inlet accel;
#X obj 252 -426 inlet emg;
#X obj 332 -426 inlet gyro;
#X obj 422 -426 inlet ori;
#X obj 502 -426 inlet pose;
#X text 586 -427 <--- external switch;
#N canvas 151 136 1197 687 emg_processor 0;
#X obj 696 227 average 10;
#X obj 566 227 average 10;
#X obj 436 227 average 10;
#X obj 306 227 average 10;
#X obj 176 227 average 10;
#X obj 46 227 average 10;
#X obj -84 227 average 10;
#X obj -214 227 average 10;
#X obj -253 597 outlet;
#X obj -123 527 outlet;
#X obj 7 597 outlet;
#X obj 137 527 outlet;
#X obj 267 597 outlet;
#X obj 397 527 outlet;
#X obj 527 597 outlet;
#X obj 657 527 outlet;
#X obj -214 347 expr $f1*$f3+$f2;
#X obj -84 347 expr $f1*$f3+$f2;
#X obj 46 347 expr $f1*$f3+$f2;
#X obj 176 347 expr $f1*$f3+$f2;
#X obj 306 347 expr $f1*$f3+$f2;
#X obj 436 347 expr $f1*$f3+$f2;
#X obj 566 347 expr $f1*$f3+$f2;
#X obj 696 348 expr $f1*$f3+$f2;
#X obj -206 257 r \$0-emg_offset;
#X obj -176 287 r \$0-emg_amp;
#X obj -207 197 r \$0-emg_ave;
#X obj -77 197 r \$0-emg_ave;
#X obj 53 197 r \$0-emg_ave;
#X obj 183 197 r \$0-emg_ave;
#X obj 313 197 r \$0-emg_ave;
#X obj 443 197 r \$0-emg_ave;
#X obj 573 197 r \$0-emg_ave;
#X obj 703 197 r \$0-emg_ave;
#X obj -46 287 r \$0-emg_amp;
#X obj 84 287 r \$0-emg_amp;
#X obj 214 287 r \$0-emg_amp;
#X obj 344 287 r \$0-emg_amp;
#X obj 474 287 r \$0-emg_amp;
#X obj 604 287 r \$0-emg_amp;
#X obj 734 287 r \$0-emg_amp;
#X obj -76 257 r \$0-emg_offset;
#X obj 54 257 r \$0-emg_offset;
#X obj 184 257 r \$0-emg_offset;
#X obj 314 257 r \$0-emg_offset;
#X obj 444 257 r \$0-emg_offset;
#X obj 574 257 r \$0-emg_offset;
#X obj 704 257 r \$0-emg_offset;
#X obj 696 68 s \$0-emg_ave;
#X obj 696 98 s \$0-emg_amp;
#X obj 696 128 s \$0-emg_offset;
#X obj 536 18 * 8;
#X obj 536 -42 r \$0-emg_smooth_snd;
#X obj 356 18 s \$0-emg_smooth_rcv;
#X msg 346 -12 1;
#X obj 346 -42 loadbang;
#X obj 696 18 expr $f1*99 + 1;
#X obj 576 18 expr $f1*5 + 1;
#X obj -253 527 gate 2;
#X obj -243 557 expr pow($f1 \, 2)/3-30;
#X obj -123 467 gate 2;
#X obj -113 497 expr pow($f1 \, 2)/3-30;
#X obj 7 527 gate 2;
#X obj 17 557 expr pow($f1 \, 2)/3-30;
#X obj 137 467 gate 2;
#X obj 147 497 expr pow($f1 \, 2)/3-30;
#X obj 267 527 gate 2;
#X obj 277 557 expr pow($f1 \, 2)/3-30;
#X obj 397 467 gate 2;
#X obj 407 497 expr pow($f1 \, 2)/3-30;
#X obj 527 527 gate 2;
#X obj 537 557 expr pow($f1 \, 2)/3-30;
#X obj 657 467 gate 2;
#X obj 667 497 expr pow($f1 \, 2)/3-30;
#X obj -203 417 + 1;
#X obj -203 387 r \$0-emg_exp_snd;
#X obj 346 48 s \$0-emg_exp_rcv;
#X obj 57 417 + 1;
#X obj 57 387 r \$0-emg_exp_snd;
#X obj 317 417 + 1;
#X obj 317 387 r \$0-emg_exp_snd;
#X obj 577 417 + 1;
#X obj 577 387 r \$0-emg_exp_snd;
#X msg 306 -12 0;
#X obj 115 19 unpack f f f f f f f f;
#X obj 115 -21 inlet;
#X connect 0 0 23 0;
#X connect 1 0 22 0;
#X connect 2 0 21 0;
#X connect 3 0 20 0;
#X connect 4 0 19 0;
#X connect 5 0 18 0;
#X connect 6 0 17 0;
#X connect 7 0 16 0;
#X connect 16 0 58 1;
#X connect 17 0 60 1;
#X connect 18 0 62 1;
#X connect 19 0 64 1;
#X connect 20 0 66 1;
#X connect 21 0 68 1;
#X connect 22 0 70 1;
#X connect 23 0 72 1;
#X connect 24 0 16 1;
#X connect 25 0 16 2;
#X connect 26 0 7 1;
#X connect 27 0 6 1;
#X connect 28 0 5 1;
#X connect 29 0 4 1;
#X connect 30 0 3 1;
#X connect 31 0 2 1;
#X connect 32 0 1 1;
#X connect 33 0 0 1;
#X connect 34 0 17 2;
#X connect 35 0 18 2;
#X connect 36 0 19 2;
#X connect 37 0 20 2;
#X connect 38 0 21 2;
#X connect 39 0 22 2;
#X connect 40 0 23 2;
#X connect 41 0 17 1;
#X connect 42 0 18 1;
#X connect 43 0 19 1;
#X connect 44 0 20 1;
#X connect 45 0 21 1;
#X connect 46 0 22 1;
#X connect 47 0 23 1;
#X connect 51 0 50 0;
#X connect 52 0 51 0;
#X connect 52 0 56 0;
#X connect 52 0 57 0;
#X connect 54 0 53 0;
#X connect 55 0 54 0;
#X connect 55 0 83 0;
#X connect 56 0 48 0;
#X connect 57 0 49 0;
#X connect 58 0 8 0;
#X connect 58 1 59 0;
#X connect 59 0 8 0;
#X connect 60 0 9 0;
#X connect 60 1 61 0;
#X connect 61 0 9 0;
#X connect 62 0 10 0;
#X connect 62 1 63 0;
#X connect 63 0 10 0;
#X connect 64 0 11 0;
#X connect 64 1 65 0;
#X connect 65 0 11 0;
#X connect 66 0 12 0;
#X connect 66 1 67 0;
#X connect 67 0 12 0;
#X connect 68 0 13 0;
#X connect 68 1 69 0;
#X connect 69 0 13 0;
#X connect 70 0 14 0;
#X connect 70 1 71 0;
#X connect 71 0 14 0;
#X connect 72 0 15 0;
#X connect 72 1 73 0;
#X connect 73 0 15 0;
#X connect 74 0 58 0;
#X connect 74 0 60 0;
#X connect 75 0 74 0;
#X connect 77 0 62 0;
#X connect 77 0 64 0;
#X connect 78 0 77 0;
#X connect 79 0 66 0;
#X connect 79 0 68 0;
#X connect 80 0 79 0;
#X connect 81 0 70 0;
#X connect 81 0 72 0;
#X connect 82 0 81 0;
#X connect 83 0 76 0;
#X connect 84 0 7 0;
#X connect 84 1 6 0;
#X connect 84 2 5 0;
#X connect 84 3 4 0;
#X connect 84 4 3 0;
#X connect 84 5 2 0;
#X connect 84 6 1 0;
#X connect 84 7 0 0;
#X connect 85 0 84 0;
#X restore 175 -32 pd emg_processor;
#N canvas 364 130 745 216 pose_processor 0;
#X obj -88 47 select rest;
#X msg -88 77 0;
#X msg 12 77 1;
#X obj 232 157 outlet;
#X obj 12 47 select fist;
#X obj 232 47 select waveOut;
#X obj 352 47 select doubleTap;
#X obj 482 47 select fingersSpread;
#X msg 112 77 2;
#X obj 112 47 select waveIn;
#X msg 232 77 3;
#X msg 352 77 4;
#X msg 482 77 5;
#X obj 232 -23 inlet;
#X connect 0 0 1 0;
#X connect 1 0 3 0;
#X connect 2 0 3 0;
#X connect 4 0 2 0;
#X connect 5 0 10 0;
#X connect 6 0 11 0;
#X connect 7 0 12 0;
#X connect 8 0 3 0;
#X connect 9 0 8 0;
#X connect 10 0 3 0;
#X connect 11 0 3 0;
#X connect 12 0 3 0;
#X connect 13 0 0 0;
#X connect 13 0 4 0;
#X connect 13 0 9 0;
#X connect 13 0 5 0;
#X connect 13 0 6 0;
#X connect 13 0 7 0;
#X restore 731 -33 pd pose_processor;
#N canvas 996 22 306 330 accel_display 0;
#X obj -109 1 inlet;
#X obj -59 1 inlet;
#X obj -9 1 inlet;
#X obj 61 1 inlet on/off;
#X obj 1 71 spigot;
#X obj 51 71 spigot;
#X obj 101 71 spigot;
#X obj -109 221 outlet;
#X obj -59 221 outlet;
#X obj -9 221 outlet;
#X obj 65 171 hsl 80 35 1 -1 0 0 empty empty empty -2 -8 0 10 -1 -257985
-1 0 1;
#X obj 1 123 vsl 35 80 1 -1 0 0 empty empty empty 0 -9 0 10 -1 -257985
-1 0 1;
#X obj 65 121 hsl 80 35 1 -1 0 0 empty empty empty -2 -8 0 10 -1 -257985
-1 0 1;
#X connect 0 0 4 0;
#X connect 0 0 7 0;
#X connect 1 0 5 0;
#X connect 1 0 8 0;
#X connect 2 0 6 0;
#X connect 2 0 9 0;
#X connect 3 0 4 1;
#X connect 3 0 5 1;
#X connect 3 0 6 1;
#X connect 4 0 11 0;
#X connect 5 0 10 0;
#X connect 6 0 12 0;
#X coords 0 -1 1 1 146 112 1 1 100;
#X restore 3 53 pd accel_display;
#X obj 142 27 tgl 15 0 empty empty display -45 7 0 10 -262144 -1 -1
0 1;
#N canvas 603 102 710 387 emg_display 0;
#X obj -479 -106 inlet;
#X obj -419 -106 inlet;
#X obj -359 -106 inlet;
#X obj 111 -106 inlet on/off;
#X obj -469 14 spigot;
#X obj -409 14 spigot;
#X obj -349 14 spigot;
#X obj -479 244 outlet;
#X obj -419 244 outlet;
#X obj -359 244 outlet;
#X obj 141 123 vsl 15 128 -30 30 0 0 empty empty empty 0 -9 0 10 -1
-260097 -1 0 1;
#X obj 121 123 vsl 15 128 -30 30 0 0 empty empty empty 0 -9 0 10 -1
-260097 -1 0 1;
#X obj 101 124 vsl 15 128 -30 30 0 0 empty empty empty 0 -9 0 10 -1
-260097 -1 0 1;
#X obj 81 123 vsl 15 128 -30 30 0 0 empty empty empty 0 -9 0 10 -1
-260097 -1 0 1;
#X obj 61 124 vsl 15 128 -30 30 0 0 empty empty empty 0 -9 0 10 -1
-260097 -1 0 1;
#X obj 41 123 vsl 15 128 -30 30 0 0 empty empty empty 0 -9 0 10 -1
-260097 -1 0 1;
#X obj 21 124 vsl 15 128 -30 30 0 0 empty empty empty 0 -9 0 10 -1
-260097 -1 0 1;
#X obj 1 123 vsl 15 128 -30 30 0 0 empty empty empty 0 -9 0 10 -1 -260097
-1 0 1;
#X obj -299 244 outlet;
#X obj -239 244 outlet;
#X obj -179 244 outlet;
#X obj -119 244 outlet;
#X obj -59 244 outlet;
#X obj -289 14 spigot;
#X obj -229 14 spigot;
#X obj -169 14 spigot;
#X obj -109 14 spigot;
#X obj -49 14 spigot;
#X obj -299 -106 inlet;
#X obj -239 -106 inlet;
#X obj -179 -106 inlet;
#X obj -119 -106 inlet;
#X obj -59 -106 inlet;
#X connect 0 0 4 0;
#X connect 0 0 7 0;
#X connect 1 0 5 0;
#X connect 1 0 8 0;
#X connect 2 0 6 0;
#X connect 2 0 9 0;
#X connect 3 0 4 1;
#X connect 3 0 5 1;
#X connect 3 0 6 1;
#X connect 3 0 23 1;
#X connect 3 0 24 1;
#X connect 3 0 25 1;
#X connect 3 0 26 1;
#X connect 3 0 27 1;
#X connect 4 0 17 0;
#X connect 5 0 16 0;
#X connect 6 0 15 0;
#X connect 23 0 14 0;
#X connect 24 0 13 0;
#X connect 25 0 12 0;
#X connect 26 0 11 0;
#X connect 27 0 10 0;
#X connect 28 0 18 0;
#X connect 28 0 23 0;
#X connect 29 0 19 0;
#X connect 29 0 24 0;
#X connect 30 0 20 0;
#X connect 30 0 25 0;
#X connect 31 0 21 0;
#X connect 31 0 26 0;
#X connect 32 0 22 0;
#X connect 32 0 27 0;
#X coords 0 -1 1 1 156 160 1 1 100;
#X restore 175 53 pd emg_display;
#X obj 324 28 tgl 15 0 empty empty display -45 7 0 10 -262144 -1 -1
0 1;
#N canvas 996 22 306 330 gyro_display 0;
#X obj -109 1 inlet;
#X obj -59 1 inlet;
#X obj -9 1 inlet;
#X obj 61 1 inlet on/off;
#X obj 1 71 spigot;
#X obj 51 71 spigot;
#X obj 101 71 spigot;
#X obj -109 221 outlet;
#X obj -59 221 outlet;
#X obj -9 221 outlet;
#X obj 65 171 hsl 80 35 600 -600 0 0 empty empty empty -2 -8 0 10 -1
-258113 -1 0 1;
#X obj 65 121 hsl 80 35 600 -600 0 0 empty empty empty -2 -8 0 10 -1
-258113 -1 0 1;
#X obj 1 123 vsl 35 80 600 -600 0 0 empty empty empty 0 -9 0 10 -1
-258113 -1 0 1;
#X connect 0 0 4 0;
#X connect 0 0 7 0;
#X connect 1 0 5 0;
#X connect 1 0 8 0;
#X connect 2 0 6 0;
#X connect 2 0 9 0;
#X connect 3 0 4 1;
#X connect 3 0 5 1;
#X connect 3 0 6 1;
#X connect 4 0 12 0;
#X connect 5 0 10 0;
#X connect 6 0 11 0;
#X coords 0 -1 1 1 146 112 1 1 100;
#X restore 355 53 pd gyro_display;
#X obj 494 27 tgl 15 0 empty empty display -45 7 0 10 -262144 -1 -1
0 1;
#N canvas 725 22 715 447 orientation_display 0;
#N canvas 452 61 244 325 init_gui 0;
#X obj -45 288 outlet;
#X msg 45 218 frame_col 16;
#X msg 55 248 sphere_col 22;
#X msg 15 128 src_col 1 16;
#X msg 25 158 src_col 2 17;
#X msg 35 188 src_col 3 18;
#X msg -5 68 nr_src 3;
#X msg 5 98 src_font 18;
#X obj -45 8 import iemgui;
#X obj -5 38 loadbang;
#X connect 1 0 2 0;
#X connect 1 0 0 0;
#X connect 2 0 0 0;
#X connect 3 0 4 0;
#X connect 3 0 0 0;
#X connect 4 0 5 0;
#X connect 4 0 0 0;
#X connect 5 0 1 0;
#X connect 5 0 0 0;
#X connect 6 0 7 0;
#X connect 6 0 0 0;
#X connect 7 0 3 0;
#X connect 7 0 0 0;
#X connect 9 0 6 0;
#X restore 73 -46 pd init_gui;
#X obj 3 20 cube_sphere 3 60 18 0 24197 24197 18 34 44925 28 61 62783
64 46;
#X obj -277 153 outlet;
#X obj -97 153 outlet;
#X obj 183 153 outlet;
#X obj 323 -267 inlet on/off;
#X obj -257 -207 spigot;
#X obj -77 -207 spigot;
#X obj 203 -207 spigot;
#X obj -277 -267 inlet yaw;
#X obj -97 -267 inlet pitch;
#X obj 183 -267 inlet roll;
#X text 126 56 1-yaw;
#X text 126 69 2-pitch;
#X text 126 84 3-roll;
#X msg -257 -46 src_dp 1 \$2 \$1;
#X msg -76 -46 src_dp 2 \$2 \$1;
#X msg 204 -46 src_dp 3 \$2 \$1;
#X msg -204 -106 16;
#X msg -23 -106 42;
#X msg 257 -106 68;
#X obj -204 -136 loadbang;
#X obj -23 -136 loadbang;
#X obj 257 -136 loadbang;
#X obj 204 -166 expr ($f1 * 180)/3.14;
#X obj -76 -166 expr (($f1 + 1.5) * 60) - 90;
#X obj -257 -76 pack f f;
#X obj -76 -76 pack f f;
#X obj 204 -76 pack f f;
#X obj -257 -166 expr $f1 * 180/3.14;
#X connect 0 0 1 0;
#X connect 5 0 6 1;
#X connect 5 0 7 1;
#X connect 5 0 8 1;
#X connect 6 0 29 0;
#X connect 7 0 25 0;
#X connect 8 0 24 0;
#X connect 9 0 6 0;
#X connect 9 0 2 0;
#X connect 10 0 7 0;
#X connect 10 0 3 0;
#X connect 11 0 8 0;
#X connect 11 0 4 0;
#X connect 15 0 1 0;
#X connect 16 0 1 0;
#X connect 17 0 1 0;
#X connect 18 0 26 1;
#X connect 19 0 27 1;
#X connect 20 0 28 1;
#X connect 21 0 18 0;
#X connect 22 0 19 0;
#X connect 23 0 20 0;
#X connect 24 0 28 0;
#X connect 25 0 27 0;
#X connect 26 0 15 0;
#X connect 27 0 16 0;
#X connect 28 0 17 0;
#X connect 29 0 26 0;
#X coords 0 -1 1 1 180 146 1 0 0;
#X restore 527 53 pd orientation_display;
#X obj 700 27 tgl 15 0 empty empty display -45 7 0 10 -262144 -1 -1
0 1;
#N canvas 435 22 161 260 pose_display 0;
#X obj 40 -63 inlet on/off;
#X obj -9 167 outlet;
#X obj 1 -33 spigot;
#X obj -9 -63 inlet;
#X obj 1 21 vradio 22 1 0 6 empty empty empty 0 -8 0 10 -1 -232576
-1 0;
#X text 28 21 rest;
#X text 28 43 fist;
#X text 28 87 wave out;
#X text 28 109 double tap;
#X text 28 131 fingers spread;
#X text 28 65 wave in;
#X connect 0 0 2 1;
#X connect 2 0 4 0;
#X connect 3 0 1 0;
#X connect 3 0 2 0;
#X coords 0 -1 1 1 130 158 1 1 1;
#X restore 731 53 pd pose_display;
#X obj 854 27 tgl 15 0 empty empty display -45 7 0 10 -262144 -1 -1
0 1;
#X obj 175 27 tgl 15 0 \$0-emg_exp_snd \$0-emg_exp_rcv expon. 17 7
0 10 -262144 -1 -1 0 1;
#X obj 178 5 hsl 159 15 0 1 0 0 \$0-emg_smooth_snd \$0-emg_smooth_rcv
smooth 60 7 0 10 -262144 -1 -1 15800 1;
#X obj 3 -32 unpack f f f;
#X obj 355 -32 unpack f f f;
#X obj 817 -426 inlet select 1 or 2;
#X obj 3 -176 route 1 2;
#X obj 3 -206 route 00:00:00:00:00:00;
#X obj 3 -116 spigot;
#X obj 82 -176 r \$0-selspgt_1;
#X obj 82 -146 r \$0-selspgt_2;
#X obj 63 -116 spigot;
#X obj 203 -176 route 1 2;
#X obj 203 -206 route 00:00:00:00:00:00;
#X obj 203 -116 spigot;
#X obj 282 -176 r \$0-selspgt_1;
#X obj 282 -146 r \$0-selspgt_2;
#X obj 263 -116 spigot;
#X obj 393 -176 route 1 2;
#X obj 393 -206 route 00:00:00:00:00:00;
#X obj 393 -116 spigot;
#X obj 472 -176 r \$0-selspgt_1;
#X obj 472 -146 r \$0-selspgt_2;
#X obj 453 -116 spigot;
#X obj 583 -176 route 1 2;
#X obj 583 -206 route 00:00:00:00:00:00;
#X obj 583 -116 spigot;
#X obj 662 -176 r \$0-selspgt_1;
#X obj 662 -146 r \$0-selspgt_2;
#X obj 643 -116 spigot;
#X obj 773 -176 route 1 2;
#X obj 773 -206 route 00:00:00:00:00:00;
#X obj 773 -116 spigot;
#X obj 852 -176 r \$0-selspgt_1;
#X obj 852 -146 r \$0-selspgt_2;
#X obj 833 -116 spigot;
#X obj 773 -306 s \$0-selspgt_1;
#X obj 893 -306 s \$0-selspgt_2;
#X msg 773 -354 1;
#X msg 813 -354 0;
#X msg 893 -354 1;
#X msg 853 -354 0;
#X obj 817 -396 select 1 2;
#X obj 63 -76 outlet;
#X obj 263 -76 outlet;
#X obj 453 -76 outlet;
#X obj 833 -76 outlet;
#X obj 527 -36 unpack f f f f f f f;
#X obj 643 -76 outlet;
#X connect 0 0 1 0;
#X connect 1 0 2 0;
#X connect 1 0 3 0;
#X connect 1 0 4 0;
#X connect 1 0 5 0;
#X connect 1 0 6 0;
#X connect 2 0 7 0;
#X connect 3 0 8 0;
#X connect 4 0 9 0;
#X connect 5 0 10 0;
#X connect 6 0 11 0;
#X connect 7 0 36 0;
#X connect 8 0 42 0;
#X connect 9 0 48 0;
#X connect 10 0 54 0;
#X connect 11 0 60 0;
#X connect 12 0 2 1;
#X connect 13 0 3 1;
#X connect 14 0 4 1;
#X connect 15 0 5 1;
#X connect 16 0 6 0;
#X connect 18 0 22 0;
#X connect 18 1 22 1;
#X connect 18 2 22 2;
#X connect 18 3 22 3;
#X connect 18 4 22 4;
#X connect 18 5 22 5;
#X connect 18 6 22 6;
#X connect 18 7 22 7;
#X connect 19 0 28 0;
#X connect 21 0 20 3;
#X connect 23 0 22 8;
#X connect 25 0 24 3;
#X connect 27 0 26 3;
#X connect 29 0 28 1;
#X connect 32 0 20 0;
#X connect 32 1 20 1;
#X connect 32 2 20 2;
#X connect 33 0 24 0;
#X connect 33 1 24 1;
#X connect 33 2 24 2;
#X connect 34 0 71 0;
#X connect 35 0 37 0;
#X connect 35 1 40 0;
#X connect 36 0 35 0;
#X connect 37 0 32 0;
#X connect 37 0 72 0;
#X connect 38 0 37 1;
#X connect 39 0 40 1;
#X connect 40 0 32 0;
#X connect 40 0 72 0;
#X connect 41 0 43 0;
#X connect 41 1 46 0;
#X connect 42 0 41 0;
#X connect 43 0 18 0;
#X connect 43 0 73 0;
#X connect 44 0 43 1;
#X connect 45 0 46 1;
#X connect 46 0 18 0;
#X connect 46 0 73 0;
#X connect 47 0 49 0;
#X connect 47 1 52 0;
#X connect 48 0 47 0;
#X connect 49 0 33 0;
#X connect 49 0 74 0;
#X connect 50 0 49 1;
#X connect 51 0 52 1;
#X connect 52 0 33 0;
#X connect 52 0 74 0;
#X connect 53 0 55 0;
#X connect 53 1 58 0;
#X connect 54 0 53 0;
#X connect 55 0 76 0;
#X connect 55 0 77 0;
#X connect 56 0 55 1;
#X connect 57 0 58 1;
#X connect 58 0 76 0;
#X connect 58 0 77 0;
#X connect 59 0 61 0;
#X connect 59 1 64 0;
#X connect 60 0 59 0;
#X connect 61 0 19 0;
#X connect 61 0 75 0;
#X connect 62 0 61 1;
#X connect 63 0 64 1;
#X connect 64 0 19 0;
#X connect 64 0 75 0;
#X connect 67 0 65 0;
#X connect 68 0 66 0;
#X connect 69 0 66 0;
#X connect 70 0 65 0;
#X connect 71 0 67 0;
#X connect 71 0 68 0;
#X connect 71 1 69 0;
#X connect 71 1 70 0;
#X connect 76 4 26 2;
#X connect 76 5 26 1;
#X connect 76 6 26 0;
#X coords 0 -1 1 1 870 218 2 1 1;
