#N canvas 793 63 228 207 12;
#X declare -lib mrpeach;
#X declare -lib iemgui;
#X declare -lib iemgui;
#X declare -lib iemgui;
#N canvas 386 304 528 378 control 0;
#X obj 77 90 tgl 15 0 empty empty empty 17 7 0 10 -262144 -1 -1 1 1
;
#N canvas 176 22 618 376 myo_process 0;
#X obj 22 121 outlet;
#X obj 72 121 outlet;
#X obj 122 121 outlet;
#X obj 232 121 outlet;
#X obj 282 121 outlet;
#X obj 332 121 outlet;
#X text 39 141 x;
#X text 89 141 y;
#X text 138 141 z;
#X text 242 141 yaw;
#X text 286 141 pitch;
#X text 339 141 roll;
#X obj 22 -119 unpack f f f;
#X obj 282 -119 unpack f f f;
#N canvas 0 23 234 291 Myo_squeeze 0;
#X obj 53 251 outlet;
#X obj 7 21 inlet;
#X obj 53 219 average 20;
#X obj 7 121 abs;
#X obj 7 59 unpack f f f f f f f f;
#X obj 172 121 abs;
#X obj 7 149 expr ($f1+$f2)/100 - 0.1;
#X obj 7 189 moses 0;
#X connect 1 0 4 0;
#X connect 2 0 0 0;
#X connect 3 0 6 0;
#X connect 4 3 3 0;
#X connect 4 4 5 0;
#X connect 5 0 6 1;
#X connect 6 0 7 0;
#X connect 7 1 2 0;
#X restore 172 -119 pd Myo_squeeze;
#X obj 172 121 outlet;
#X text 169 141 squeeze;
#X obj 22 -159 inlet;
#X obj 172 -159 inlet;
#X obj 282 -159 inlet;
#X connect 12 0 0 0;
#X connect 12 1 1 0;
#X connect 12 2 2 0;
#X connect 13 0 3 0;
#X connect 13 1 4 0;
#X connect 13 2 5 0;
#X connect 14 0 15 0;
#X connect 17 0 12 0;
#X connect 18 0 14 0;
#X connect 19 0 13 0;
#X restore 41 170 pd myo_process;
#X obj 77 120 Myo_OSC;
#X obj -122 320 s \$0-m_x;
#X obj -52 320 s \$0-m_y;
#X obj 18 320 s \$0-m_z;
#X obj 88 320 s \$0-m_s;
#X obj 158 320 s \$0-m_w;
#X obj 228 320 s \$0-m_p;
#X obj 298 320 s \$0-m_r;
#X obj 77 15 loadbang;
#X msg 77 55 1;
#X connect 0 0 2 0;
#X connect 0 0 2 1;
#X connect 0 0 2 2;
#X connect 0 0 2 4;
#X connect 1 0 3 0;
#X connect 1 1 4 0;
#X connect 1 2 5 0;
#X connect 1 3 6 0;
#X connect 1 4 7 0;
#X connect 1 5 8 0;
#X connect 1 6 9 0;
#X connect 2 0 1 0;
#X connect 2 1 1 1;
#X connect 2 3 1 2;
#X connect 10 0 11 0;
#X connect 11 0 0 0;
#X restore 73 50 pd control;
#N canvas 519 114 881 502 mapping 0;
#X obj -193 -366 cnv 15 69 28 empty empty empty 20 12 0 14 -99865 -66577
0;
#X obj -64 -366 cnv 15 69 28 empty empty empty 20 12 0 14 -99865 -66577
0;
#X obj 76 -366 cnv 15 69 28 empty empty empty 20 12 0 14 -99865 -66577
0;
#X obj -191 -364 cnv 15 65 24 empty empty empty 20 12 0 14 -204786
-66577 0;
#X obj -62 -364 cnv 15 65 24 empty empty empty 20 12 0 14 -204800 -66577
0;
#X obj 78 -364 cnv 15 65 24 empty empty empty 20 12 0 14 -203904 -66577
0;
#X obj 56 -73 cnv 15 115 26 empty empty empty 20 12 0 14 -162280 -66577
0;
#X obj 56 -73 cnv 15 113 24 empty empty empty 20 12 0 14 -1 -66577
0;
#X obj -79 -73 cnv 15 115 26 empty empty empty 20 12 0 14 -162280 -66577
0;
#X obj -79 -73 cnv 15 113 24 empty empty empty 20 12 0 14 -1 -66577
0;
#X obj -49 -214 vsl 30 128 0 1 0 0 empty empty empty 0 -9 0 10 -204800
-1 -1 0 1;
#N canvas 877 22 563 276 radisp 0;
#X obj 2 2 cnv 15 104 104 empty empty empty 20 12 0 14 -1 -66577 0
;
#X obj 3 3 cube_sphere 0 51 29 228991 262143 0 85 73;
#X obj 213 -143 import iemgui;
#X obj 123 -143 loadbang;
#X obj 3 -143 inlet;
#X msg 75 -79 0;
#X msg 3 -43 src_dp 1 17 \$1;
#X msg 123 -44 size 100 \, nr_src 0 \, src_font 29 \, src_col 1 22
\, frame_col 0 \, sphere_col 8;
#X obj 3 -110 * 360;
#X connect 3 0 7 0;
#X connect 3 0 5 0;
#X connect 4 0 8 0;
#X connect 5 0 6 0;
#X connect 6 0 1 0;
#X connect 7 0 1 0;
#X connect 8 0 6 0;
#X coords 0 -1 1 1 106 106 2 1 1;
#X restore 91 -199 pd radisp;
#N canvas 579 175 563 276 radisp 0;
#X obj 2 2 cnv 15 104 104 empty empty empty 20 12 0 14 -1 -66577 0
;
#X obj 3 3 cube_sphere 0 51 29 225270 262143 0 69 14;
#X obj 213 -143 import iemgui;
#X obj 123 -143 loadbang;
#X obj 3 -203 inlet;
#X msg 75 -79 0;
#X msg 3 -43 src_dp 1 17 \$1;
#X msg 123 -44 size 100 \, nr_src 0 \, src_font 29 \, src_col 1 22
\, frame_col 0 \, sphere_col 6;
#X obj 3 -173 expr ($f1 * 180)/3.14;
#X connect 3 0 7 0;
#X connect 3 0 5 0;
#X connect 4 0 8 0;
#X connect 5 0 6 0;
#X connect 6 0 1 0;
#X connect 7 0 1 0;
#X connect 8 0 6 0;
#X coords 0 -1 1 1 106 106 2 1 1;
#X restore -178 -199 pd radisp;
#X obj -59 -71 s \$0-pitch;
#X obj 81 -71 s \$0-roll;
#X obj -204 -73 cnv 15 95 26 empty empty empty 20 12 0 14 -162280 -66577
0;
#X obj -204 -73 cnv 15 93 24 empty empty empty 20 12 0 14 -1 -66577
0;
#X obj -188 -71 s \$0-yaw;
#X obj -343 -366 cnv 15 69 28 empty empty empty 20 12 0 14 -99865 -66577
0;
#X obj -341 -364 cnv 15 65 24 empty empty empty 20 12 0 14 -4160 -66577
0;
#X obj -328 -214 vsl 30 128 0.01 1 0 0 empty empty empty 0 -9 0 10
-1 -262144 -1 0 1;
#X obj -351 -73 cnv 15 115 26 empty empty empty 20 12 0 14 -162280
-66577 0;
#X obj -351 -73 cnv 15 113 24 empty empty empty 20 12 0 14 -1 -66577
0;
#X obj -338 -71 s \$0-squeeze;
#X obj 260 -214 vsl 30 128 0.01 1 0 0 empty empty empty 0 -9 0 10 -1
-260097 -1 0 1;
#N canvas 889 26 395 504 k_agitation3 0;
#X obj -276 119 shake;
#X obj -276 19 inlet;
#X obj -190 19 inlet;
#X obj -104 19 inlet;
#X msg -51 49 0;
#X obj -51 19 loadbang;
#X obj -51 159 metro;
#X obj -51 129 tgl 15 0 empty empty empty 17 7 0 10 -262144 -1 -1 0
1;
#X obj 28 21 vsl 15 128 10 10000 0 0 empty empty empty 0 -9 0 10 -262144
-1 -1 0 1;
#X floatatom 28 163 5 0 0 0 - - -;
#X obj -51 189 tgl 15 0 empty empty empty 17 7 0 10 -262144 -1 -1 0
1;
#X obj -51 216 *;
#X obj 28 191 vsl 15 128 1 1000 0 0 empty empty empty 0 -9 0 10 -262144
-1 -1 0 1;
#X floatatom 28 333 5 0 0 0 - - -;
#X text -169 127 TEST ON/OFF --->;
#X obj -276 49 abs;
#X obj -190 49 abs;
#X obj -104 49 abs;
#X obj -276 149 pow 2;
#X obj -276 89 expr ($f1 + $f2 + $f3)*10;
#X obj -276 429 outlet scaled;
#X obj -51 429 outlet raw;
#X obj -51 289 f;
#X obj -276 379 line;
#X msg -276 344 \$1 1000;
#X connect 0 0 18 0;
#X connect 1 0 15 0;
#X connect 2 0 16 0;
#X connect 3 0 17 0;
#X connect 4 0 19 2;
#X connect 5 0 4 0;
#X connect 6 0 10 0;
#X connect 7 0 6 0;
#X connect 8 0 9 0;
#X connect 8 0 6 1;
#X connect 10 0 11 0;
#X connect 11 0 0 0;
#X connect 12 0 13 0;
#X connect 12 0 11 1;
#X connect 15 0 19 0;
#X connect 16 0 19 1;
#X connect 17 0 19 2;
#X connect 18 0 22 0;
#X connect 18 0 24 0;
#X connect 19 0 0 0;
#X connect 22 0 21 0;
#X connect 23 0 20 0;
#X connect 24 0 23 0;
#X restore 250 -301 pd k_agitation3;
#X obj 242 -73 cnv 15 125 26 empty empty empty 20 12 0 14 -162280 -66577
0;
#X obj 242 -73 cnv 15 123 24 empty empty empty 20 12 0 14 -1 -66577
0;
#X obj 250 -71 s \$0-agitation;
#X obj 217 -366 cnv 15 69 28 empty empty empty 20 12 0 14 -99865 -66577
0;
#X obj 296 -366 cnv 15 69 28 empty empty empty 20 12 0 14 -99865 -66577
0;
#X obj 376 -366 cnv 15 69 28 empty empty empty 20 12 0 14 -99865 -66577
0;
#X obj 219 -364 cnv 15 65 24 empty empty empty 20 12 0 14 -204786 -66577
0;
#X obj 298 -364 cnv 15 65 24 empty empty empty 20 12 0 14 -204800 -66577
0;
#X obj 378 -364 cnv 15 65 24 empty empty empty 20 12 0 14 -203904 -66577
0;
#X floatatom -328 -321 5 0 0 0 - - -;
#X floatatom 91 -321 5 0 0 0 - - -;
#X floatatom -49 -320 5 0 0 0 - - -;
#X floatatom -178 -320 5 0 0 0 - - -;
#X floatatom 270 -260 5 0 0 3 scaled - -;
#X floatatom 322 -260 5 0 0 3 raw - -;
#X obj 106 78 cnv 15 127 28 empty empty empty 20 12 0 14 -4160 -66577
0;
#X obj 108 80 cnv 15 123 24 empty empty empty 20 12 0 14 -13330 -66577
0;
#N canvas 483 273 450 300 wave_control 0;
#X obj 32 23 inlet agitation;
#X obj 32 193 s \$0-wave_energy;
#X obj 32 115 spigot;
#X obj 71 66 r \$0-GUI_v_m_snd;
#X obj 182 103 loadbang;
#X obj 182 193 s \$0-wave_level;
#X msg 182 133 1;
#X connect 0 0 2 0;
#X connect 2 0 1 0;
#X connect 3 0 2 1;
#X connect 4 0 6 0;
#X connect 6 0 5 0;
#X restore 115 82 pd wave_control;
#X obj 115 42 r \$0-agitation;
#X obj -338 -362 r \$0-m_s;
#X obj -188 -362 r \$0-m_w;
#X obj -59 -362 r \$0-m_p;
#X obj 81 -362 r \$0-m_r;
#X obj 222 -362 r \$0-m_w;
#X obj 301 -362 r \$0-m_p;
#X obj 381 -362 r \$0-m_r;
#X obj -214 78 cnv 15 147 28 empty empty empty 20 12 0 14 -1 -66577
0;
#X obj -212 80 cnv 15 143 24 empty empty empty 20 12 0 14 -240960 -66577
0;
#X obj -209 42 r \$0-yaw;
#X obj -362 78 cnv 15 127 28 empty empty empty 20 12 0 14 -179017 -66577
0;
#X obj -360 80 cnv 15 123 24 empty empty empty 20 12 0 14 -1 -66577
0;
#N canvas 425 313 219 292 AB_control 0;
#X obj 76 261 s \$0-AB_1;
#X floatatom 116 226 5 0 0 0 - - -;
#X obj 16 15 inlet;
#X obj 16 171 line;
#X floatatom 120 111 5 0 0 0 - - -;
#X msg 16 134 \$1 1000;
#X obj 16 231 moses 0.1;
#X obj 16 55 expr ($f1 + 0.2)*100;
#X connect 2 0 7 0;
#X connect 3 0 1 0;
#X connect 3 0 6 0;
#X connect 5 0 3 0;
#X connect 6 1 0 0;
#X connect 7 0 5 0;
#X connect 7 0 4 0;
#X restore -346 82 pd AB_control;
#N canvas 661 22 215 355 panner_control_1 0;
#X obj 12 211 s \$0-st_panner_1;
#X obj 12 21 inlet;
#X obj 12 61 expr $f1/1.5;
#X connect 1 0 2 0;
#X connect 2 0 0 0;
#X restore -209 82 pd panner_control_1;
#X obj -54 78 cnv 15 147 28 empty empty empty 20 12 0 14 -1 -66577
0;
#X obj -52 80 cnv 15 143 24 empty empty empty 20 12 0 14 -240960 -66577
0;
#X obj -49 42 r \$0-roll;
#N canvas 531 281 215 260 panner_control_2 0;
#X obj 12 21 inlet;
#X obj 12 201 s \$0-st_panner_2;
#X obj 12 161 line;
#X floatatom 144 54 5 0 0 0 - - -;
#X obj 12 91 moses -1;
#X floatatom 115 168 5 0 0 0 - - -;
#X floatatom 128 121 5 0 0 0 - - -;
#X floatatom 160 200 5 0 0 0 - - -;
#X msg 12 132 \$1 200;
#X obj 12 61 expr -($f1+0.2)*1;
#X connect 0 0 3 0;
#X connect 0 0 9 0;
#X connect 2 0 1 0;
#X connect 2 0 5 0;
#X connect 4 1 8 0;
#X connect 8 0 2 0;
#X connect 9 0 4 0;
#X connect 9 0 6 0;
#X restore -49 82 pd panner_control_2;
#X obj -346 42 r \$0-roll;
#X text -382 -42 ------------------------------------------------------------
;
#X text 38 -42 ---------------------------------------;
#X text -382 -32 MYO:;
#X text 311 -42 ------------------------;
#X obj 247 78 cnv 15 127 28 empty empty empty 20 12 0 14 -162280 -66577
0;
#X obj 249 80 cnv 15 123 24 empty empty empty 20 12 0 14 -232576 -66577
0;
#N canvas 367 423 713 309 RF_control 0;
#X obj 35 251 s \$0-RF_f_1;
#X obj 75 23 inlet pitch;
#X obj 443 23 inlet agitation;
#X obj 333 23 inlet roll;
#X obj 245 83 int;
#X obj 245 53 expr $f1*2;
#X obj 393 183 s \$0-RF_q_1;
#X obj 503 183 s \$0-RF_v_1;
#X obj 443 53 expr $f1/3 + 1;
#X obj 333 143 moses 0.1;
#X floatatom 341 198 5 0 0 0 - - -;
#X obj 333 103 expr (1-$f1)*.2;
#X floatatom 126 101 5 0 0 0 - - -;
#X obj 45 195 moses 20;
#X floatatom 18 43 5 0 0 0 - - -;
#X obj 75 53 expr $f1*1000+22;
#X connect 1 0 14 0;
#X connect 1 0 15 0;
#X connect 2 0 8 0;
#X connect 3 0 5 0;
#X connect 3 0 11 0;
#X connect 5 0 4 0;
#X connect 8 0 7 0;
#X connect 9 1 6 0;
#X connect 11 0 9 0;
#X connect 11 0 10 0;
#X connect 13 1 0 0;
#X connect 15 0 12 0;
#X connect 15 0 13 0;
#X restore 263 82 pd RF_control;
#X obj 263 -18 r \$0-pitch;
#X obj 307 12 r \$0-roll;
#X obj 351 42 r \$0-agitation;
#X connect 25 0 24 0;
#X connect 25 0 28 0;
#X connect 44 0 43 0;
#X connect 45 0 20 0;
#X connect 45 0 23 0;
#X connect 45 0 35 0;
#X connect 46 0 38 0;
#X connect 46 0 17 0;
#X connect 46 0 12 0;
#X connect 47 0 10 0;
#X connect 47 0 13 0;
#X connect 48 0 11 0;
#X connect 48 0 14 0;
#X connect 48 0 36 0;
#X connect 49 0 25 0;
#X connect 50 0 25 1;
#X connect 51 0 25 2;
#X connect 54 0 58 0;
#X connect 61 0 62 0;
#X connect 63 0 57 0;
#X connect 71 0 70 0;
#X connect 72 0 70 1;
#X connect 73 0 70 2;
#X restore 73 90 pd mapping;
#N canvas 66 23 707 728 synthesis 0;
#X obj 250 470 audio_limiter;
#X obj 69 470 audio_limiter;
#X obj 69 322 stereo_panner;
#X obj -113 325 r \$0-RF_q_1;
#X obj -108 355 r \$0-RF_v_1;
#X obj -118 295 r \$0-RF_f_1;
#X obj -243 600 audio_booster;
#X obj -138 560 r \$0-AB_1;
#X obj -243 452 resonant_filter;
#X obj -263 135 sea_wave;
#X obj -268 642 cnv 15 140 32 empty empty empty 20 12 0 14 -159808
-66577 0;
#X obj 60 618 cnv 15 243 40 empty empty empty 20 12 0 14 -191407 -66577
0;
#X obj 62 620 cnv 15 239 36 empty empty empty 20 12 0 14 -262130 -66577
0;
#X obj 64 622 cnv 15 235 32 empty empty empty 20 12 0 14 -128992 -66577
0;
#X obj 69 628 dac~ 1;
#X obj 250 628 dac~ 2;
#X obj 145 622 cnv 15 44 32 empty empty AUDIO 2 16 0 14 -128992 -262130
0;
#X obj 195 622 cnv 15 28 32 empty empty OUT 2 16 0 14 -128992 -262130
0;
#X obj -263 648 throw~ \$0-panner_1;
#X obj 64 275 cnv 15 140 32 empty empty empty 20 12 0 14 -232576 -66577
0;
#X obj 69 281 catch~ \$0-panner_1;
#X obj 250 282 r \$0-st_panner_1;
#X obj -263 15 r \$0-wave_energy;
#X obj -211 45 r \$0-wave_level;
#X obj -263 218 stereo_panner;
#X obj -96 185 r \$0-st_panner_2;
#X obj 81 432 catch~ \$0-M1;
#X obj 261 432 catch~ \$0-M2;
#N canvas 532 22 194 215 init_RF 0;
#X obj -41 163 outlet;
#X obj -41 73 delay 300;
#X obj -41 43 loadbang;
#X msg -41 131 1;
#X connect 1 0 3 0;
#X connect 2 0 1 0;
#X connect 3 0 0 0;
#X restore -62 415 pd init_RF;
#N canvas 532 23 194 215 init 0;
#X obj -11 113 outlet;
#X obj -11 53 delay 200;
#X msg -11 81 1;
#X obj -11 13 loadbang;
#X connect 1 0 2 0;
#X connect 2 0 0 0;
#X connect 3 0 1 0;
#X restore -159 105 pd init seawave;
#X connect 0 0 15 0;
#X connect 1 0 14 0;
#X connect 2 0 1 0;
#X connect 2 1 0 0;
#X connect 3 0 8 2;
#X connect 4 0 8 3;
#X connect 5 0 8 1;
#X connect 6 0 18 0;
#X connect 7 0 6 1;
#X connect 8 0 6 0;
#X connect 9 0 24 0;
#X connect 20 0 2 0;
#X connect 21 0 2 1;
#X connect 22 0 9 0;
#X connect 23 0 9 1;
#X connect 24 0 18 0;
#X connect 24 1 8 0;
#X connect 25 0 24 1;
#X connect 26 0 1 0;
#X connect 27 0 0 0;
#X connect 28 0 8 4;
#X connect 29 0 9 2;
#X restore 66 130 pd synthesis;
#X text 14 171 Juan Ignacio Mendoza - 2021;
#X text 82 0 MYO OSC;
#X text 79 16 SEAWAVES;
