#N canvas 658 23 646 149 12;
#X declare -lib iemmatrix;
#X declare -lib list-abs;
#X declare -lib iemmatrix;
#X declare -lib list-abs;
#X declare -lib iemmatrix;
#X declare -lib hexloader;
#X declare -lib iemmatrix;
#X declare -lib hexloader;
#X declare -lib iemmatrix;
#X declare -lib iemmatrix;
#X declare -lib iemmatrix;
#X declare -lib iemmatrix;
#X declare -lib list-abs;
#X declare -lib iemmatrix;
#X declare -lib smlib;
#X declare -lib iemmatrix;
#X declare -lib iemmatrix;
#X declare -lib hexloader;
#X obj 219 1 inlet x y z;
#X obj 523 1 inlet reset;
#X obj 321 91 outlet pk;
#X obj 219 91 outlet nov;
#X obj 321 1 inlet parameters;
#X obj 0 4 cnv 15 210 102 empty empty empty 20 12 0 14 -99865 -66577
0;
#X obj 2 6 cnv 15 206 98 empty empty empty 20 12 0 14 -262144 -66577
0;
#X obj 124 9 bng 21 250 50 0 \$0-pk_snd \$0-pk_rcv empty 12 14 0 10
-1 -204786 -262144;
#X obj 163 36 vsl 14 61 0 1 0 0 foo_snd \$0-rs_x x 3 14 0 14 -261234
-1 -1 2626 1;
#X obj 177 36 vsl 14 61 0 1 0 0 foo_snd \$0-rs_y y 3 14 0 14 -262130
-1 -1 1582 1;
#X obj 191 36 vsl 14 61 0 1 0 0 foo_snd \$0-rs_z z 3 14 0 14 -204786
-1 -1 3023 1;
#X obj 142 36 vsl 17 61 0 1 0 0 foo_snd \$0-nov no. 1 16 0 9 -66577
-204800 -162280 1 1;
#X obj 124 36 vsl 17 61 0 1 0 0 \$0-pt_a_rcv \$0-pt_slider_rcv th.
0 16 0 9 -262144 -258113 -128992 600 1;
#X floatatom 5 71 3 0 0 0 - #0-w_a_rcv #0-w_a_snd;
#X text 2 87 window;
#X obj 102 44 bng 15 250 50 0 \$0-reset_snd \$0-reset_rcv empty 17
2 0 10 -258113 -1 -1;
#X text 63 40 reset;
#X floatatom 94 71 3 0 0 0 - #0-pt_a_rcv #0-pt_a_snd;
#X obj 16 9 cnv 15 30 10 empty empty NOVELTY_3D 0 10 1 14 -262144 -99865
0;
#X text 70 87 thresh.;
#X text 147 15 detected;
#X text 238 121 Juan Ignacio Mendoza - 2019;
#X obj 7 31 bng 15 250 50 0 \$0-display_mtx_snd \$0-display_mtx_rcv
empty 17 2 0 10 -204800 -1 -1;
#X text 22 28 display;
#N canvas 979 243 415 437 segmentation 0;
#N canvas 287 295 274 239 peaks 0;
#X obj 10 16 inlet y;
#X obj 112 196 outlet;
#X obj 112 16 inlet threshold;
#X obj 10 76 local_max;
#X text 119 116 prevent double-taps;
#X obj 10 116 interrupt 250;
#X obj 80 166 moses;
#X connect 0 0 3 0;
#X connect 2 0 6 1;
#X connect 3 0 5 0;
#X connect 5 0 6 0;
#X connect 6 1 1 0;
#X restore 219 239 pd peaks;
#X obj -30 219 vradio 20 1 0 3 \$0-ns_select_mv_snd \$0-ns_select_mv_rcv
empty 0 -8 0 10 -262144 -1 -1 0;
#X obj -30 289 tgl 20 0 \$0-ns_select_mv_norm_snd \$0-ns_select_mv_norm_rcv
empty 17 7 0 10 -262144 -1 -1 0 1;
#X text -9 219 none;
#X text -9 239 distance;
#X text -8 258 kernel;
#X text -8 287 normalise;
#X obj -44 9 s \$0-rs_x;
#X obj 26 9 s \$0-rs_y;
#X obj 97 9 s \$0-rs_z;
#X obj -45 39 r \$0-rs_x;
#X obj 26 39 r \$0-rs_y;
#X obj 97 39 r \$0-rs_z;
#X obj 231 99 int;
#N canvas 527 573 256 281 gauss_filter 0;
#X obj 24 16 inlet signal;
#X obj 134 16 inlet size;
#X obj 131 246 outlet;
#X obj 131 215 gauss_filter;
#X obj 24 185 spigot;
#X obj 95 185 spigot;
#X obj 104 146 abs;
#X obj 104 116 - 1;
#X obj 134 46 t f f;
#X obj 134 76 > 1;
#X obj 166 185 moses 2;
#X connect 0 0 4 0;
#X connect 0 0 5 0;
#X connect 1 0 8 0;
#X connect 3 0 2 0;
#X connect 4 0 2 0;
#X connect 5 0 3 0;
#X connect 6 0 4 1;
#X connect 7 0 6 0;
#X connect 8 0 9 0;
#X connect 8 1 10 0;
#X connect 9 0 7 0;
#X connect 9 0 5 1;
#X connect 10 1 3 1;
#X restore 90 139 pd gauss_filter;
#X obj 190 -21 unpack f f f;
#X obj 231 69 * 1;
#X obj 90 199 autoscale;
#X obj -28 -51 inlet;
#X obj 190 -51 inlet;
#X obj 90 339 outlet;
#X obj 293 339 outlet;
#X obj 81 -51 r \$0-reset_snd;
#X obj 150 169 r \$0-reset_snd;
#X obj 110 269 s \$0-nov;
#N canvas 0 23 473 169 autoscale_xyz 0;
#X obj 56 -31 unpack f f f;
#X obj -54 59 outlet;
#X obj 96 59 outlet;
#X obj 246 59 outlet;
#X obj -54 29 autoscale 0.01 0.99;
#X obj 96 29 autoscale 0.01 0.99;
#X obj 246 29 autoscale 0.01 0.99;
#X obj 56 -61 inlet xyz;
#X obj 226 -61 inlet reset;
#X connect 0 0 4 0;
#X connect 0 1 5 0;
#X connect 0 2 6 0;
#X connect 4 0 1 0;
#X connect 5 0 2 0;
#X connect 6 0 3 0;
#X connect 7 0 0 0;
#X connect 8 0 4 3;
#X connect 8 0 5 3;
#X connect 8 0 6 3;
#X restore -28 -24 pd autoscale_xyz;
#N canvas 849 22 537 333 checkerboard_correlation_xyz 0;
#X text -167 5 1) x y z signals;
#X obj 228 18 import iemmatrix;
#X obj -134 110 inlet x;
#X obj -74 110 inlet y;
#X obj -14 110 inlet z;
#X text 186 110 2);
#X obj -67 298 outlet novelty;
#X text -159 110 (1);
#X text 100 111 (2);
#X obj 130 298 outlet K;
#X obj 228 48 import hexloader;
#X text -167 24 2) window size selection;
#X obj 130 110 inlet window size;
#X obj -107 180 olssm;
#X obj -107 140 pack f f f;
#X text -132 179 (3);
#X text -132 238 (4);
#X text -167 43 3) euclidean distance self-similarity matrix;
#X obj 130 170 mtx_tril;
#X text -147 82 (c.f. Foote 2000);
#X obj -107 238 mtx_mul;
#X text -167 62 4) product with gaussian-tapered checkerboard kernel
;
#X obj 130 140 gausstaper_checkerboard_kernel;
#X obj 46 298 outlet ssm;
#X obj -107 268 list split 3;
#X connect 2 0 14 0;
#X connect 3 0 14 1;
#X connect 4 0 14 2;
#X connect 12 0 13 1;
#X connect 12 0 22 0;
#X connect 13 0 20 0;
#X connect 13 0 23 0;
#X connect 14 0 13 0;
#X connect 18 0 20 1;
#X connect 18 0 9 0;
#X connect 20 0 24 0;
#X connect 22 0 18 0;
#X connect 24 1 6 0;
#X restore -45 69 pd checkerboard_correlation_xyz;
#X text -45 190 DISPLAY:;
#X text -45 170 HEATMAP;
#N canvas 242 319 556 357 display______ 0;
#X obj 7 6 inlet d;
#X obj 487 6 inlet K;
#X obj 287 246 mtx;
#X obj 7 196 spigot;
#X msg 46 156 1;
#X msg 86 156 0;
#X obj 157 66 select 0 1 2;
#X msg 157 127 0;
#X msg 211 157 1;
#X obj 287 216 bang;
#X obj 287 186 spigot;
#X msg 326 146 1;
#X msg 376 146 0;
#X obj 157 36 r \$0-ns_select_mv_snd;
#X obj 287 66 r \$0-ns_select_mv_norm_snd;
#X obj 57 256 spigot;
#X msg 96 196 1;
#X msg 116 256 0;
#X obj 487 136 t b a;
#N canvas 506 490 235 244 display_mtx_btn 0;
#X obj 11 212 s \$0-ns_select_mv_rcv;
#X obj 31 182 s \$0-ns_select_mv_norm_rcv;
#X obj 31 42 r \$0-ns_select_mv_snd;
#X obj 11 12 r \$0-display_mtx_snd;
#X obj 11 142 tgl 15 0 empty empty empty 17 7 0 10 -262144 -1 -1 0
1;
#X msg 31 112 set \$1;
#X obj 31 82 > 0;
#X obj 106 82 select 2;
#X msg 106 112 1;
#X connect 2 0 6 0;
#X connect 2 0 7 0;
#X connect 3 0 4 0;
#X connect 4 0 0 0;
#X connect 4 0 1 0;
#X connect 5 0 4 0;
#X connect 6 0 5 0;
#X connect 7 0 8 0;
#X connect 8 0 1 0;
#X restore 343 316 pd display_mtx_btn;
#X obj 287 276 mtx_squareform;
#X obj 157 326 heatmap __;
#X obj 47 36 loadbang;
#X connect 0 0 3 0;
#X connect 1 0 18 0;
#X connect 2 0 20 0;
#X connect 3 0 20 0;
#X connect 4 0 3 1;
#X connect 5 0 3 1;
#X connect 6 0 7 0;
#X connect 6 1 8 0;
#X connect 6 1 4 0;
#X connect 6 1 12 0;
#X connect 6 2 2 0;
#X connect 6 2 5 0;
#X connect 6 2 8 0;
#X connect 6 2 11 0;
#X connect 7 0 5 0;
#X connect 7 0 16 0;
#X connect 7 0 21 0;
#X connect 8 0 15 0;
#X connect 8 0 21 4;
#X connect 9 0 2 0;
#X connect 10 0 9 0;
#X connect 11 0 10 1;
#X connect 12 0 10 1;
#X connect 13 0 6 0;
#X connect 14 0 10 0;
#X connect 14 0 21 1;
#X connect 15 0 17 0;
#X connect 15 0 21 0;
#X connect 16 0 15 1;
#X connect 17 0 15 1;
#X connect 18 0 10 0;
#X connect 18 1 2 1;
#X connect 20 0 21 2;
#X connect 22 0 7 0;
#X restore 62 99 pd display______;
#N canvas 0 22 352 313 pk_GUI 0;
#X obj 240 78 s \$0-pk_rcv;
#X obj 0 78 r \$0-pk_snd;
#X obj 89 18 inlet;
#X obj 0 268 outlet;
#X obj 0 228 spigot;
#X obj 89 138 delay 100;
#X msg 89 178 1;
#X msg 164 178 0;
#X obj 89 48 trigger bang bang bang;
#X obj 20 108 loadbang;
#X connect 1 0 4 0;
#X connect 2 0 8 0;
#X connect 4 0 3 0;
#X connect 5 0 6 0;
#X connect 6 0 4 1;
#X connect 7 0 4 1;
#X connect 8 0 5 0;
#X connect 8 1 7 0;
#X connect 8 2 0 0;
#X connect 9 0 6 0;
#X restore 219 299 pd pk_GUI;
#X obj 219 269 trigger b a;
#X connect 0 0 31 0;
#X connect 10 0 26 0;
#X connect 11 0 26 1;
#X connect 12 0 26 2;
#X connect 13 0 14 1;
#X connect 14 0 17 0;
#X connect 15 0 16 1;
#X connect 15 0 26 3;
#X connect 15 1 16 0;
#X connect 15 2 0 1;
#X connect 16 0 13 0;
#X connect 17 0 20 0;
#X connect 17 0 24 0;
#X connect 17 0 0 0;
#X connect 18 0 25 0;
#X connect 19 0 15 0;
#X connect 22 0 25 1;
#X connect 23 0 17 3;
#X connect 25 0 7 0;
#X connect 25 1 8 0;
#X connect 25 2 9 0;
#X connect 26 0 14 0;
#X connect 26 1 29 0;
#X connect 26 2 29 1;
#X connect 30 0 21 0;
#X connect 31 0 30 0;
#X connect 31 1 21 0;
#X restore 219 61 pd segmentation;
#N canvas 0 22 256 136 pack_rs 0;
#X obj -54 19 r \$0-rs_x;
#X obj 26 19 r \$0-rs_y;
#X obj 106 19 r \$0-rs_z;
#X obj -7 59 pack f f f;
#X obj -7 99 outlet;
#X connect 0 0 3 0;
#X connect 1 0 3 1;
#X connect 2 0 3 2;
#X connect 3 0 4 0;
#X restore 397 61 pd pack_rs;
#X floatatom 46 60 4 0 0 0 - #0-smooth_rcv #0-smooth_snd;
#X text 38 76 smooth;
#X obj 500 91 outlet parameters;
#X obj 397 91 outlet xyz_rs;
#N canvas 123 176 951 479 make_parameters_list___ 1;
#X obj 719 123 t b a;
#X obj 751 243 s \$0-pt_slider_rcv;
#X msg 751 213 set \$1;
#X obj 638 93 t b a;
#X obj 637 435 outlet;
#X text 607 4 receive from GUI:;
#X obj -7 393 s \$0-w_a_rcv;
#X obj 34 233 s \$0-pt_a_rcv;
#X obj -47 93 unpack f f f;
#X text 84 393 N_nov (novelty window size);
#X text 131 233 theta (peak threshold);
#X text 104 293 N_filt/N_nov (smooth);
#X obj -7 293 s \$0-smooth_rcv;
#X obj -47 33 inlet;
#X text -47 4 send to GUI:;
#X obj 3 33 loadbang;
#X obj 697 435 outlet;
#X obj 609 33 r \$0-w_a_snd;
#X obj 638 63 r \$0-smooth_snd;
#X obj 688 93 r \$0-pt_a_snd;
#X msg 34 203 set \$1;
#X msg -7 263 set \$1;
#X msg 329 353 set \$1;
#X obj 637 313 pack f f f;
#X msg 3 63 12 1 0.2;
#N canvas 377 254 543 350 wsize_processor 1;
#X obj 26 4 inlet window_size;
#X obj 184 304 outlet;
#X text 175 59 convert input to nearest upper even number;
#X text 175 19 allow numbers equal or greater than 2;
#X obj 128 184 i;
#X obj 128 244 mod 2;
#X obj 26 34 moses 2;
#X obj 184 274 +;
#X obj 72 144 delay;
#X obj 128 214 trigger a a;
#X obj 72 84 trigger a a;
#X text 175 39 allow last of a stream of numbers within 500 ms;
#X msg 72 114 500;
#X connect 0 0 6 0;
#X connect 4 0 9 0;
#X connect 5 0 7 0;
#X connect 6 1 10 0;
#X connect 7 0 1 0;
#X connect 8 0 4 0;
#X connect 9 0 5 0;
#X connect 9 1 7 1;
#X connect 10 0 12 0;
#X connect 10 1 4 1;
#X connect 12 0 8 0;
#X restore 329 253 pd wsize_processor;
#X obj 329 293 t a a;
#X msg -47 323 set \$1;
#X connect 0 0 23 0;
#X connect 0 1 2 0;
#X connect 0 1 23 2;
#X connect 2 0 1 0;
#X connect 3 0 23 0;
#X connect 3 1 23 1;
#X connect 8 0 25 0;
#X connect 8 0 27 0;
#X connect 8 1 21 0;
#X connect 8 1 23 1;
#X connect 8 2 20 0;
#X connect 8 2 23 2;
#X connect 8 2 2 0;
#X connect 13 0 8 0;
#X connect 15 0 24 0;
#X connect 17 0 25 0;
#X connect 18 0 3 0;
#X connect 19 0 0 0;
#X connect 20 0 7 0;
#X connect 21 0 12 0;
#X connect 22 0 6 0;
#X connect 23 0 4 0;
#X connect 23 0 16 0;
#X connect 24 0 8 0;
#X connect 25 0 26 0;
#X connect 26 0 22 0;
#X connect 26 1 23 0;
#X connect 27 0 6 0;
#X restore 321 31 pd make_parameters_list___;
#X obj 523 31 s \$0-reset_rcv;
#X text 147 4 boundary;
#X connect 0 0 24 0;
#X connect 1 0 31 0;
#X connect 4 0 30 0;
#X connect 24 0 3 0;
#X connect 24 1 2 0;
#X connect 25 0 29 0;
#X connect 30 0 24 1;
#X connect 30 1 28 0;
#X coords 0 -1 1 1 210 110 2 0 0;
