#N canvas 106 606 739 166 12;
#X obj 235 130 crosshair_display;
#X obj 150 50 average_list_3;
#X obj 26 20 inlet gemlist;
#X obj 541 20 inlet test;
#X obj 132 20 inlet bloblist;
#X obj 26 50 separator;
#X obj 372 20 inlet offsets_n_scales;
#X obj 626 20 inlet RGBA;
#X obj 245 20 inlet smoothness;
#X obj 26 130 outlet x;
#X obj 96 130 outlet y;
#X obj 166 130 outlet S;
#X connect 1 0 0 1;
#X connect 1 0 9 0;
#X connect 1 1 0 2;
#X connect 1 1 10 0;
#X connect 1 2 0 3;
#X connect 1 2 11 0;
#X connect 2 0 5 0;
#X connect 3 0 0 5;
#X connect 4 0 1 0;
#X connect 5 0 0 0;
#X connect 6 0 0 4;
#X connect 7 0 0 6;
#X connect 8 0 1 1;
