#N canvas 387 22 903 900 12;
#X obj 37 791 outlet tonic_f;
#X obj 445 791 outlet harmony_f;
#X obj 273 241 inlet tonic_note;
#X obj 153 241 inlet tonic_tr;
#X obj 613 241 inlet harmony_tr;
#X text 23 101 tonic_note 0=C \, 1=Db \, 2=D \, 3=Eb \, etc.;
#X obj 23 241 inlet pitchbend;
#X text 23 71 pitchbend floats multiply the current frequency;
#X text 23 131 tonic_tr voice 1 integers and zero to a major pentatonic
scale transposed from the tonic;
#X text 23 181 harmony_tr voice 2 integers and zero to a major pentatonic
scale transposed from voice 1;
#X text 33 821 tonic_f frequency of voice 1 (pentatonic scale);
#X text 33 841 harmony_f frequency of voice 2 (pentatonic scale);
#X obj 445 751 expr $f1 * pow(1.059463 \, $f2);
#X obj 135 601 +;
#X obj 135 491 +;
#X obj 23 671 f;
#X obj 23 601 t b f;
#X obj 37 701 *;
#X obj 273 271 / 5;
#X obj 273 301 t f f;
#X obj 273 331 int;
#X obj 613 271 / 5;
#X obj 613 301 t f f;
#X obj 613 331 int;
#X obj 433 601 bang;
#X obj 135 631 mtof;
#X obj 105 451 * 12;
#X obj 105 421 int;
#X msg 313 481 3;
#X msg 353 481 5;
#X msg 393 481 7;
#X msg 433 481 9;
#X msg 273 481 0;
#X obj 273 421 route 0 1 2 3 4;
#X obj 273 391 list-round;
#X obj 273 361 expr 5 * ($f2 - $f1);
#X obj 535 511 * 12;
#X obj 535 481 int;
#X obj 613 651 t b f;
#X obj 535 601 +;
#X obj 773 601 bang;
#X msg 653 481 3;
#X msg 693 481 5;
#X msg 733 481 7;
#X msg 773 481 9;
#X msg 613 481 0;
#X obj 613 421 route 0 1 2 3 4;
#X obj 613 391 list-round;
#X obj 613 361 expr 5 * ($f2 - $f1);
#X text 23 1 PENTATONIC CONTINUUM;
#X text 23 31 This patch calculates the frequencies of notes in a pentattonic
scale.;
#X connect 2 0 18 0;
#X connect 3 0 14 1;
#X connect 4 0 21 0;
#X connect 6 0 16 0;
#X connect 12 0 1 0;
#X connect 13 0 25 0;
#X connect 14 0 13 0;
#X connect 15 0 17 0;
#X connect 16 0 15 0;
#X connect 16 1 17 1;
#X connect 17 0 12 0;
#X connect 17 0 0 0;
#X connect 18 0 19 0;
#X connect 19 0 20 0;
#X connect 19 1 35 1;
#X connect 20 0 27 1;
#X connect 20 0 35 0;
#X connect 21 0 22 0;
#X connect 22 0 23 0;
#X connect 22 1 48 1;
#X connect 23 0 37 1;
#X connect 23 0 48 0;
#X connect 24 0 27 0;
#X connect 25 0 15 0;
#X connect 26 0 14 0;
#X connect 27 0 26 0;
#X connect 28 0 13 1;
#X connect 28 0 24 0;
#X connect 29 0 13 1;
#X connect 29 0 24 0;
#X connect 30 0 13 1;
#X connect 30 0 24 0;
#X connect 31 0 13 1;
#X connect 31 0 24 0;
#X connect 32 0 13 1;
#X connect 32 0 24 0;
#X connect 33 0 32 0;
#X connect 33 1 28 0;
#X connect 33 2 29 0;
#X connect 33 3 30 0;
#X connect 33 4 31 0;
#X connect 34 0 33 0;
#X connect 35 0 34 0;
#X connect 36 0 39 0;
#X connect 37 0 36 0;
#X connect 38 0 12 0;
#X connect 38 1 12 1;
#X connect 39 0 38 0;
#X connect 40 0 37 0;
#X connect 41 0 39 1;
#X connect 41 0 40 0;
#X connect 42 0 39 1;
#X connect 42 0 40 0;
#X connect 43 0 39 1;
#X connect 43 0 40 0;
#X connect 44 0 39 1;
#X connect 44 0 40 0;
#X connect 45 0 39 1;
#X connect 45 0 40 0;
#X connect 46 0 45 0;
#X connect 46 1 41 0;
#X connect 46 2 42 0;
#X connect 46 3 43 0;
#X connect 46 4 44 0;
#X connect 47 0 46 0;
#X connect 48 0 47 0;
