#N canvas 591 380 559 635 12;
#X obj 22 228 phasor~;
#X obj 82 228 phasor~;
#X obj 22 278 *~ 0.5;
#X obj 136 568 *~;
#X obj 22 158 / 1;
#X obj 136 508 vcf~;
#X obj 148 338 vline~;
#X obj 29 8 inlet MIDI note;
#X obj 136 598 outlet~;
#X obj 29 68 select 0;
#X obj 11 98 s \$0-zero;
#X obj 444 388 r \$0-zero;
#X obj 148 278 pack f f;
#X obj 305 338 line;
#X obj 148 228 * 1.5;
#X obj 201 228 / 2;
#X msg 148 308 \$1 100 \, \$2 2000 400;
#X msg 305 308 0.05 \, 0.2 4000;
#X text 150 10 0 = turn off;
#X text 350 10 ARGUMENTS:;
#X text 360 30 \$1 = parent patch's ID;
#X text 360 70 \$3 = bpf Q name;
#X obj 82 98 mtof;
#X obj 208 368 sig~;
#X obj 208 338 r \$1-\$2;
#X obj 365 338 r \$1-\$3;
#X msg 444 418 0 2000;
#X obj 29 38 change;
#X obj 82 128 trigger float float bang bang;
#X obj 82 198 * 0.99;
#X obj 148 198 t a a;
#X obj 282 508 vline~;
#X text 360 50 \$2 = bpf f name;
#X msg 454 308 1 10;
#X connect 0 0 2 0;
#X connect 1 0 2 0;
#X connect 2 0 5 0;
#X connect 3 0 8 0;
#X connect 4 0 0 0;
#X connect 4 0 29 0;
#X connect 5 0 3 0;
#X connect 6 0 5 1;
#X connect 7 0 27 0;
#X connect 9 0 10 0;
#X connect 9 1 22 0;
#X connect 11 0 26 0;
#X connect 12 0 16 0;
#X connect 13 0 5 2;
#X connect 14 0 12 0;
#X connect 15 0 12 1;
#X connect 16 0 6 0;
#X connect 17 0 13 0;
#X connect 22 0 28 0;
#X connect 23 0 5 1;
#X connect 24 0 23 0;
#X connect 25 0 5 2;
#X connect 26 0 31 0;
#X connect 27 0 9 0;
#X connect 28 0 4 0;
#X connect 28 1 30 0;
#X connect 28 2 17 0;
#X connect 28 3 33 0;
#X connect 29 0 1 0;
#X connect 30 0 14 0;
#X connect 30 1 15 0;
#X connect 31 0 3 1;
#X connect 33 0 31 0;
