#N canvas 674 23 581 327 12;
#N canvas 85 99 595 561 shift 0;
#X obj 201 383 *~;
#X obj 348 323 line~;
#X floatatom 414 90 0 0 0 0 - - -;
#X text 197 9 PITCH SHIFTER;
#X obj 348 297 pack 0 200;
#X obj 138 151 exp;
#X floatatom 148 181 6 0 0 0 - - -;
#X obj 138 287 /;
#X obj 280 217 * 0.001;
#X obj 138 438 cos~;
#X obj 138 465 *~;
#X obj 138 494 +~;
#X obj 235 345 wrap~;
#X obj 399 388 *~;
#X obj 328 448 cos~;
#X obj 328 475 *~;
#X obj 280 244 t b f;
#X floatatom 138 313 6 0 0 0 - - -;
#X obj 235 318 +~ 0.5;
#X obj 138 386 -~ 0.5;
#X obj 138 412 *~ 0.5;
#X obj 328 387 -~ 0.5;
#X obj 328 420 *~ 0.5;
#X obj 138 224 - 1;
#X obj 138 250 * -1;
#X text 198 173 speed;
#X text 198 187 change;
#X text 177 280 tape head;
#X obj 138 344 phasor~;
#X obj 414 157 max 1;
#X text 178 293 rotation freq;
#X obj 414 50 inlet window;
#X obj -50 41 inlet~;
#X obj 138 522 outlet~;
#X text 440 78 window;
#X text 440 92 (msec);
#X obj 138 41 inlet shift;
#X obj 201 439 vd~ \$0-pshift;
#X obj 399 450 vd~ \$0-pshift;
#X obj -50 121 delwrite~ \$0-pshift 5000;
#N canvas 97 22 491 313 shift_control 0;
#X obj 143 280 outlet A or B;
#X obj 143 240 * 0.05776;
#X obj 323 190 expr $f1/1000 + 0.057;
#X obj 10 10 inlet shift;
#X obj 10 180 clip;
#X obj 156 170 s \$0-shift_slider_rcv;
#X obj 323 10 inlet fine tune;
#X obj 156 110 pack f f;
#X obj 177 80 t b f;
#X obj 22 40 r \$0-ps_min_snd;
#X obj 35 80 r \$0-ps_max_snd;
#X msg 156 140 range \$2 \$1;
#X connect 1 0 0 0;
#X connect 2 0 1 1;
#X connect 3 0 4 0;
#X connect 4 0 1 0;
#X connect 6 0 2 0;
#X connect 7 0 11 0;
#X connect 8 0 7 0;
#X connect 8 1 7 1;
#X connect 9 0 4 1;
#X connect 9 0 8 0;
#X connect 10 0 4 2;
#X connect 10 0 7 0;
#X connect 11 0 5 0;
#X restore 138 121 pd shift_control;
#X floatatom 107 68 0 0 0 0 - - -;
#X text 5 76 (halftones);
#X text 6 62 transposition;
#X obj 247 41 inlet fine tune;
#X connect 0 0 37 0;
#X connect 1 0 0 1;
#X connect 1 0 13 1;
#X connect 2 0 29 0;
#X connect 4 0 1 0;
#X connect 5 0 23 0;
#X connect 5 0 6 0;
#X connect 7 0 17 0;
#X connect 8 0 16 0;
#X connect 9 0 10 0;
#X connect 10 0 11 0;
#X connect 11 0 33 0;
#X connect 12 0 13 0;
#X connect 12 0 21 0;
#X connect 13 0 38 0;
#X connect 14 0 15 0;
#X connect 15 0 11 1;
#X connect 16 0 7 0;
#X connect 16 1 7 1;
#X connect 17 0 28 0;
#X connect 18 0 12 0;
#X connect 19 0 20 0;
#X connect 20 0 9 0;
#X connect 21 0 22 0;
#X connect 22 0 14 0;
#X connect 23 0 24 0;
#X connect 24 0 7 0;
#X connect 28 0 0 0;
#X connect 28 0 19 0;
#X connect 28 0 18 0;
#X connect 29 0 8 0;
#X connect 29 0 4 0;
#X connect 31 0 2 0;
#X connect 32 0 39 0;
#X connect 36 0 40 0;
#X connect 36 0 41 0;
#X connect 37 0 10 1;
#X connect 38 0 15 1;
#X connect 40 0 5 0;
#X connect 44 0 40 1;
#X restore 205 197 pd shift;
#X obj 205 237 outlet~;
#X obj 455 7 inlet bypass/on;
#X obj 1 5 cnv 15 98 134 empty empty empty 50 12 0 10 -191407 -143491
0;
#X obj 3 7 cnv 15 94 130 empty empty empty 50 12 0 10 -86277 -143491
0;
#X obj 110 7 inlet~ signal;
#X obj 8 29 cnv 15 19 65 empty empty empty 50 12 0 10 -191407 -143491
0;
#X obj 3 9 cnv 15 50 16 empty empty PITCH 4 10 1 14 -86277 -228856
0;
#X obj 51 9 cnv 15 44 16 empty empty SHIFT 2 10 1 14 -86277 -228856
0;
#X obj 10 33 vsl 15 56 -24 24 0 0 \$0-shift_slider_snd \$0-shift_slider_rcv
empty -10 -9 0 10 -33289 -258113 -1 2750 1;
#N canvas 102 22 269 453 bypass_switch 0;
#X obj 32 74 tgl 15 0 empty empty empty 17 7 0 10 -262144 -1 -1 0 1
;
#X obj 32 44 bang;
#X obj 32 134 select 0 1;
#X obj 82 44 r \$0-inlet_bp;
#X obj 45 274 s \$0-bp_sw_rcv;
#X msg 12 384 color 20 20 20;
#X obj 12 414 s \$0-bp_sw_rcv;
#X msg 45 244 color 20 22 22;
#X obj 32 354 s \$0-bp_display_rcv;
#X obj 65 214 s \$0-bp_display_rcv;
#X obj 32 14 r \$0-bp_sw_snd;
#X msg 32 324 label BYPASS \, color 22 3;
#X msg 65 184 label ON \, color 22 6;
#X obj 82 94 s \$0-bypass;
#X connect 0 0 2 0;
#X connect 0 0 13 0;
#X connect 1 0 0 0;
#X connect 2 0 5 0;
#X connect 2 0 11 0;
#X connect 2 1 7 0;
#X connect 2 1 12 0;
#X connect 3 0 0 0;
#X connect 5 0 6 0;
#X connect 7 0 4 0;
#X connect 10 0 1 0;
#X connect 11 0 8 0;
#X connect 12 0 9 0;
#X restore 2 159 pd bypass_switch;
#X obj 32 29 cnv 5 59 20 empty empty empty 2 8 0 10 -191407 -261234
0;
#X obj 34 31 vradio 16 1 1 1 \$0-bp_sw_snd \$0-bp_sw_rcv empty 0 -8
0 10 -195568 -195568 -195568 0;
#X obj 51 31 cnv 5 38 16 empty \$0-bp_display_rcv BYPASS 1 9 0 10 -1
-261689 0;
#X obj 455 237 s \$0-inlet_bp;
#X obj 205 37 r \$0-bypass;
#X obj 258 137 loadbang;
#X msg 258 167 100;
#X obj 222 77 r \$0-shift;
#X obj 45 85 cnv 5 32 12 empty empty shift 2 6 0 10 -86277 -228856
0;
#X obj 32 58 cnv 5 59 24 empty empty empty 2 8 0 10 -191407 -261234
0;
#X floatatom 38 61 7 0 0 0 - #0-shift_atom_rcv #0-shift_atom_snd;
#X obj 83 60 cnv 5 6 20 empty empty empty 4 12 0 10 -191407 -228856
0;
#X text 243 121 fine tune;
#X floatatom 240 105 5 0 0 0 - - -;
#N canvas 0 23 504 161 shift_distro 0;
#X obj 11 127 s \$0-shift_slider_rcv;
#X obj 171 127 s \$0-shift;
#X obj 331 127 s \$0-shift_atom_rcv;
#X msg 11 97 set \$1;
#X msg 331 97 set \$1;
#X obj 11 8 r \$0-shift_atom_snd;
#X obj 331 7 r \$0-shift_slider_snd;
#X obj 171 8 inlet shift;
#X connect 3 0 0 0;
#X connect 4 0 2 0;
#X connect 5 0 3 0;
#X connect 5 0 1 0;
#X connect 6 0 4 0;
#X connect 6 0 1 0;
#X connect 7 0 3 0;
#X connect 7 0 4 0;
#X connect 7 0 1 0;
#X restore 328 236 pd shift_distro;
#X obj 328 7 inlet shift;
#X text -5 277 http://home.base.be/hanstine/hans/index-eng.htm;
#X text -5 292 Based on G09.pitchshift.pd by Miller Puckette;
#X floatatom 13 101 5 0 0 0 - #0-ps_min_rcv #0-ps_min_snd;
#X floatatom 57 101 5 0 0 0 - #0-ps_max_rcv #0-ps_max_snd;
#X obj 88 101 cnv 5 6 20 empty empty empty 4 12 0 10 -86277 -228856
0;
#X obj 19 121 cnv 5 20 12 empty empty min 2 6 0 10 -86277 -228856 0
;
#X obj 45 101 cnv 5 6 20 empty empty empty 4 12 0 10 -86277 -228856
0;
#X obj 61 121 cnv 5 20 12 empty empty max 2 6 0 10 -86277 -228856 0
;
#N canvas 102 22 189 135 min_max_set 0;
#X obj 8 -28 loadbang;
#X msg 8 2 -24;
#X msg 48 2 24;
#X obj 48 32 s \$0-ps_max_rcv;
#X obj 8 62 s \$0-ps_min_rcv;
#X connect 0 0 1 0;
#X connect 0 0 2 0;
#X connect 1 0 4 0;
#X connect 2 0 3 0;
#X restore 2 189 pd min_max_set;
#X obj 388 137 loadbang;
#X msg 388 167 0;
#X text -5 262 based on Hans Roels' Pitch Shifters;
#X obj 110 77 audio_bypasson;
#X text 357 292 Juan Ignacio Mendoza - 2017;
#X connect 0 0 1 0;
#X connect 2 0 14 0;
#X connect 5 0 39 0;
#X connect 15 0 39 1;
#X connect 16 0 17 0;
#X connect 17 0 0 3;
#X connect 18 0 0 1;
#X connect 24 0 0 2;
#X connect 26 0 25 0;
#X connect 36 0 37 0;
#X connect 37 0 25 0;
#X connect 37 0 14 0;
#X connect 39 0 1 0;
#X connect 39 1 0 0;
#X coords 0 -1 1 1 98 142 2 1 1;
