#N canvas 325 312 451 562 16;
#X text -122 529 Juan Ignacio Mendoza Garay - 2018;
#X obj -171 498 outlet;
#X obj -171 16 inlet gemlist;
#X obj -171 458 pix_crop;
#X obj -111 136 pix_info;
#X obj -100 236 minmax;
#X obj -100 186 pack f f;
#X obj 134 286 expr $f2-$f1;
#X obj -16 286 expr $f1-$f2;
#X obj 70 236 unpack f f;
#X obj -16 326 moses 1;
#X msg -56 366 0;
#X obj 134 326 moses 1;
#X msg 44 366 0;
#X obj -100 286 t b a a;
#X obj -111 96 spigot;
#X obj -14 16 inlet set;
#X msg -14 50 1;
#X msg 96 46 0;
#X obj 96 16 r \$0-O;
#X obj -154 326 s \$0-O;
#X connect 2 0 3 0;
#X connect 2 0 15 0;
#X connect 3 0 1 0;
#X connect 4 1 6 0;
#X connect 4 2 6 1;
#X connect 5 0 14 0;
#X connect 6 0 5 0;
#X connect 6 0 9 0;
#X connect 7 0 12 0;
#X connect 8 0 10 0;
#X connect 9 0 8 0;
#X connect 9 0 7 0;
#X connect 9 1 8 1;
#X connect 9 1 7 1;
#X connect 10 0 11 0;
#X connect 10 1 3 3;
#X connect 11 0 3 3;
#X connect 12 0 13 0;
#X connect 12 1 3 4;
#X connect 13 0 3 4;
#X connect 14 0 20 0;
#X connect 14 1 3 1;
#X connect 14 2 3 2;
#X connect 15 0 4 0;
#X connect 16 0 17 0;
#X connect 17 0 15 1;
#X connect 18 0 15 1;
#X connect 19 0 18 0;
