#N canvas 195 22 744 192 12;
#X obj 28 64 cnv 15 202 98 empty empty empty 20 12 0 14 -4160 -66577
0;
#X obj 30 66 cnv 15 198 94 empty empty empty 20 12 0 14 -228856 -66577
0;
#X obj 35 97 cnv 15 188 20 empty empty empty 20 12 0 14 -262144 -66577
0;
#N canvas 461 619 450 278 (subpatch) 0;
#X array \$0-ch1 4e+06 float 0;
#X coords 0 1 4e+06 -1 188 20 1;
#X restore 35 97 graph;
#N canvas 617 255 406 243 \$0-mask 0;
#X obj 1 1 cnv 10 60 14 empty empty empty 4 14 0 15 -228856 -13381
0;
#X coords 0 -1 1 1 60 14 2 1 1;
#X restore 35 78 pd \$0-mask;
#X obj 97 71 cnv 5 126 20 empty empty empty 2 8 0 10 -4160 -261234
0;
#X obj 99 73 vradio 16 1 0 1 \$0-play_sw_snd \$0-play_sw_rcv empty
0 -8 0 10 -1 -1 -1 0;
#X obj 116 73 cnv 5 45 16 empty \$0-playdisp_rcv . 2 9 0 10 -1 -1 0
;
#X obj 206 73 vradio 16 1 0 1 \$0-onoff_sw_snd \$0-onoff_sw_rcv empty
0 -8 0 10 -195568 -195568 -195568 0;
#X obj 162 73 vradio 16 1 0 1 \$0-loop_sw_snd \$0-loop_sw_rcv empty
0 -8 0 10 -1 -1 -1 0;
#X obj 179 73 cnv 5 26 16 empty \$0-loopdisp_rcv . 1 9 0 10 -1 -1 0
;
#X obj 35 135 cnv 15 188 20 empty empty empty 20 12 0 14 -262144 -66577
0;
#N canvas 461 619 450 278 (subpatch) 0;
#X array \$0-ch2 4e+06 float 0;
#X coords 0 1 4e+06 -1 188 20 1;
#X restore 35 135 graph;
#N canvas 754 368 450 300 \$0-title 0;
#X obj 1 1 cnv 10 188 14 empty empty playafile 70 9 1 14 -228856 -4160
0;
#X coords 0 -1 1 1 188 14 2 1 1;
#X restore 35 118 pd \$0-title;
#N canvas 479 301 662 335 title_n_mask_maker 0;
#X obj 2 58 pipe 10;
#X text 254 3 Every time the table properties change;
#X text 254 16 the table is re-written and it goes to;
#X text 254 30 the front exposing its title \, which is;
#X text 254 43 aesthetically undesirable.;
#X text 254 58 Ti avois this the display title is;
#X text 254 71 re-written every time the table;
#X text 254 85 properties change.;
#X obj 2 270 s pd-\$0-title;
#X obj 21 180 s pd-\$0-mask;
#X obj 2 4 r \$0-redraw_title_n_mask;
#X msg 2 220 clear \, obj 1 1 cnv 10 188 14 empty empty playafile 70
9 1 14 -228856 -4160 0;
#X msg 21 130 clear \, obj 1 1 cnv 10 60 14 empty empty empty 4 14
0 15 -228856 -13381 0;
#X connect 0 0 12 0;
#X connect 0 0 11 0;
#X connect 10 0 0 0;
#X connect 11 0 8 0;
#X connect 12 0 9 0;
#X restore 247 70 pd title_n_mask_maker;
#X obj 28 0 inlet start/stop playback;
#X obj 403 0 inlet loop switch;
#N canvas 751 22 351 687 play_switch 0;
#X obj -35 319 tgl 15 0 empty empty empty 17 7 0 10 -262144 -1 -1 0
1;
#X obj 30 22 bang;
#X msg 17 445 color 20 20 20;
#X msg -9 508 color 20 22 22;
#X obj -35 -3 inlet;
#X msg 30 135 0;
#X obj 30 49 r \$0-onoff;
#X obj 40 108 loadbang;
#X obj -35 104 spigot;
#X msg 30 162 color 22 22 22;
#X obj 30 76 select 0 1;
#X msg 170 108 color 20 20 20;
#X obj 30 -3 r \$0-play_sw_snd;
#X obj 170 199 s \$0-play_sw_rcv;
#X obj 17 472 s \$0-play_sw_rcv;
#X obj -9 544 s \$0-play_sw_rcv;
#X obj -25 346 select 1 0;
#X obj -25 607 s \$0-playdisp_rcv;
#X obj 26 409 s \$0-playdisp_rcv;
#X msg -25 579 label PLAYING \, color 22 16;
#X msg 26 382 label STANDBY \, color 22 5;
#X msg 66 271 set 0;
#X obj 170 226 r \$0-playend;
#X msg 170 271 0;
#X obj -35 643 s \$0-play_tgl;
#X connect 0 0 16 0;
#X connect 0 0 24 0;
#X connect 1 0 8 0;
#X connect 2 0 14 0;
#X connect 3 0 15 0;
#X connect 4 0 8 0;
#X connect 5 0 0 0;
#X connect 5 0 9 0;
#X connect 6 0 8 1;
#X connect 6 0 10 0;
#X connect 7 0 5 0;
#X connect 8 0 0 0;
#X connect 9 0 13 0;
#X connect 10 0 5 0;
#X connect 10 1 11 0;
#X connect 11 0 13 0;
#X connect 12 0 1 0;
#X connect 16 0 19 0;
#X connect 16 0 3 0;
#X connect 16 1 20 0;
#X connect 16 1 2 0;
#X connect 19 0 17 0;
#X connect 20 0 18 0;
#X connect 21 0 0 0;
#X connect 22 0 21 0;
#X connect 22 0 23 0;
#X connect 23 0 16 0;
#X restore 28 30 pd play_switch;
#N canvas 587 54 371 615 loop_switch 0;
#X obj -44 202 tgl 15 0 empty empty empty 17 7 0 10 -262144 -1 -1 0
1;
#X obj 21 13 bang;
#X msg 17 337 color 20 20 20;
#X msg -9 409 color 20 22 22;
#X obj -44 -12 inlet;
#X msg 21 126 0;
#X obj 21 40 r \$0-onoff;
#X obj 31 99 loadbang;
#X obj -44 95 spigot;
#X msg 21 153 color 22 22 22;
#X obj 21 67 select 0 1;
#X msg 173 99 color 20 20 20;
#X obj -25 229 select 1 0;
#X msg 26 265 label . \, color 22 22;
#X obj -25 517 s \$0-loopdisp_rcv;
#X obj -9 445 s \$0-loop_sw_rcv;
#X obj 17 364 s \$0-loop_sw_rcv;
#X obj 26 301 s \$0-loopdisp_rcv;
#X obj 173 190 s \$0-loop_sw_rcv;
#X obj 21 -12 r \$0-loop_sw_snd;
#X msg -25 490 label LOOP \, color 22 14;
#X obj -44 553 s \$0-loop_tgl;
#X connect 0 0 12 0;
#X connect 0 0 21 0;
#X connect 1 0 8 0;
#X connect 2 0 16 0;
#X connect 3 0 15 0;
#X connect 4 0 8 0;
#X connect 5 0 0 0;
#X connect 5 0 9 0;
#X connect 6 0 8 1;
#X connect 6 0 10 0;
#X connect 7 0 5 0;
#X connect 8 0 0 0;
#X connect 9 0 18 0;
#X connect 10 0 5 0;
#X connect 10 1 11 0;
#X connect 11 0 18 0;
#X connect 12 0 20 0;
#X connect 12 0 3 0;
#X connect 12 1 13 0;
#X connect 12 1 2 0;
#X connect 13 0 17 0;
#X connect 19 0 1 0;
#X connect 20 0 14 0;
#X restore 403 30 pd loop_switch;
#X obj 218 0 inlet start duration (s);
#X text 537 140 Juan Ignacio Mendoza - 2019;
#N canvas 94 237 552 473 load_file 0;
#X obj 12 300 pack \$0;
#X obj 104 240 loadbang;
#X obj 230 270 s \$0-onoff;
#N canvas 677 23 298 482 onoff_switch 0;
#X obj -44 121 tgl 15 0 empty empty empty 17 7 0 10 -262144 -1 -1 0
1;
#X obj 11 22 bang;
#X obj -44 -12 inlet;
#X obj -35 148 select 0 1;
#X obj -44 373 outlet onoff;
#X obj 11 -12 r \$0-onoff_sw_snd;
#X msg -8 247 color 20 20 20;
#X msg 7 184 color 20 22 22;
#X obj 7 211 s \$0-onoff_sw_rcv;
#X obj -8 274 s \$0-onoff_sw_rcv;
#X obj 68 22 loadbang;
#X msg 68 76 0;
#X obj 68 49 delay 100;
#X obj -35 337 s \$0-playdisp_rcv;
#X msg -35 310 label . \, color 22 22;
#X connect 0 0 4 0;
#X connect 0 0 3 0;
#X connect 1 0 0 0;
#X connect 2 0 0 0;
#X connect 3 0 6 0;
#X connect 3 0 14 0;
#X connect 3 1 7 0;
#X connect 5 0 1 0;
#X connect 6 0 9 0;
#X connect 7 0 8 0;
#X connect 10 0 12 0;
#X connect 11 0 0 0;
#X connect 12 0 11 0;
#X connect 14 0 13 0;
#X restore 230 240 pd onoff_switch;
#X obj 324 390 soundfiler;
#X msg 12 330 \; \$1-ch1 const 0 \; \$1-ch2 const 0;
#X obj 104 300 s \$0-redraw_title_n_mask;
#X obj 324 270 pack \$0 s;
#X obj 352 200 symbol;
#X obj 356 360 s \$0-redraw_title_n_mask;
#X msg 209 200 0;
#X msg 255 200 1;
#X obj 209 160 route 0;
#X obj 12 200 r \$0-onoff;
#X obj 12 240 select 0;
#X obj 352 240 t b a;
#X obj 209 70 unpack s f;
#X obj 324 330 t a b;
#X msg 324 300 read -resize \$2 \$1-ch1 \$1-ch2;
#X msg 336 120 1;
#X msg 423 120 2;
#X obj 336 90 select 1 2;
#X msg 209 130 \$1;
#X obj 349 10 inlet filename+channel/off;
#X obj 423 160 s \$0-channels;
#X obj 349 40 trigger a b;
#X obj 324 430 s \$0-size;
#X connect 0 0 5 0;
#X connect 1 0 0 0;
#X connect 1 0 6 0;
#X connect 3 0 2 0;
#X connect 3 0 6 0;
#X connect 4 0 26 0;
#X connect 7 0 18 0;
#X connect 8 0 15 0;
#X connect 10 0 3 0;
#X connect 11 0 3 0;
#X connect 12 0 10 0;
#X connect 12 1 11 0;
#X connect 12 1 8 0;
#X connect 13 0 14 0;
#X connect 14 0 0 0;
#X connect 15 0 7 0;
#X connect 15 1 7 1;
#X connect 16 0 22 0;
#X connect 16 1 21 0;
#X connect 17 0 4 0;
#X connect 17 1 9 0;
#X connect 18 0 17 0;
#X connect 19 0 24 0;
#X connect 20 0 24 0;
#X connect 21 0 19 0;
#X connect 21 1 20 0;
#X connect 22 0 12 0;
#X connect 23 0 25 0;
#X connect 25 0 16 0;
#X connect 25 1 20 0;
#X restore 540 30 pd load_file;
#N canvas 422 41 456 516 play_control 0;
#X msg 93 76 stop;
#X obj 269 196 pack f f;
#X obj 93 46 select 0 1;
#X msg 178 76 2;
#X obj 22 46 select 0;
#X msg 22 76 1;
#X obj 201 166 f;
#X obj 12 16 r \$0-onoff;
#X obj 93 16 r \$0-play_tgl;
#X obj 219 16 r \$0-startime;
#X obj 322 16 r \$0-duration;
#X obj 12 476 outlet~;
#X obj 12 270 tabplay~ \$0-ch1;
#X obj 114 436 s \$0-play_tgl;
#X obj 252 476 outlet~;
#X obj 252 270 tabplay~ \$0-ch2;
#X obj 19 300 r \$0-loop_tgl;
#X msg 114 406 1;
#X obj 19 406 s \$0-playend;
#X obj 19 330 + 1;
#X obj 12 216 cyclone/gate;
#X obj 106 136 cyclone/gate 2;
#X obj 19 366 cyclone/gate 2;
#X connect 0 0 20 1;
#X connect 1 0 20 1;
#X connect 2 0 0 0;
#X connect 2 1 21 1;
#X connect 3 0 21 0;
#X connect 4 0 5 0;
#X connect 5 0 21 0;
#X connect 6 0 1 0;
#X connect 7 0 4 0;
#X connect 7 0 20 0;
#X connect 8 0 2 0;
#X connect 9 0 6 1;
#X connect 9 0 3 0;
#X connect 10 0 1 1;
#X connect 12 0 11 0;
#X connect 12 1 22 1;
#X connect 15 0 14 0;
#X connect 16 0 19 0;
#X connect 17 0 13 0;
#X connect 19 0 22 0;
#X connect 20 0 12 0;
#X connect 20 0 15 0;
#X connect 21 0 20 1;
#X connect 21 1 6 0;
#X connect 22 0 18 0;
#X connect 22 1 17 0;
#X restore 248 100 pd play_control;
#X obj 248 140 outlet~;
#X obj 350 140 outlet~;
#N canvas 531 316 340 339 segment_control 0;
#X obj 17 80 unpack f f;
#X obj 70 300 s \$0-startime;
#X obj 220 300 s \$0-duration;
#X obj 17 10 inlet start duration (s);
#X obj 185 80 samplerate~;
#X obj 17 40 t a b;
#X obj 17 160 *;
#X obj 167 160 *;
#X obj 17 190 select 0;
#X obj 17 260 1;
#X obj 167 190 select 0;
#X obj 89 190 r \$0-size;
#X obj 167 260 f;
#X obj 89 220 t b a;
#X connect 0 0 6 0;
#X connect 0 1 7 0;
#X connect 3 0 5 0;
#X connect 4 0 7 1;
#X connect 4 0 6 1;
#X connect 5 0 0 0;
#X connect 5 1 4 0;
#X connect 6 0 8 0;
#X connect 7 0 10 0;
#X connect 8 0 9 0;
#X connect 8 1 1 0;
#X connect 9 0 1 0;
#X connect 10 0 12 0;
#X connect 10 1 2 0;
#X connect 11 0 13 0;
#X connect 12 0 2 0;
#X connect 13 0 9 0;
#X connect 13 1 12 0;
#X restore 218 30 pd segment_control;
#X obj 540 0 inlet filename+channels/off;
#X obj 417 140 outlet size/end;
#N canvas 0 23 156 232 size/end 0;
#X obj 27 50 r \$0-size;
#X obj 7 180 outlet size/end;
#X obj 7 10 r \$0-playend;
#X obj 58 110 samplerate~;
#X obj 27 140 /;
#X obj 27 80 t a b;
#X connect 0 0 5 0;
#X connect 2 0 1 0;
#X connect 3 0 4 1;
#X connect 4 0 1 0;
#X connect 5 0 4 0;
#X connect 5 1 3 0;
#X restore 417 100 pd size/end;
#X connect 15 0 17 0;
#X connect 16 0 18 0;
#X connect 19 0 25 0;
#X connect 22 0 23 0;
#X connect 22 1 24 0;
#X connect 26 0 21 0;
#X connect 28 0 27 0;
#X coords 0 -1 1 1 202 106 2 28 60;
