#N canvas 80 23 587 503 16;
#X obj 254 152 bng 15 250 50 0 empty empty reset 17 7 0 10 -262144
-1 -1;
#X obj 1 203 miniplot;
#X obj 1 233 miniplot;
#X obj 1 263 miniplot;
#X obj -30 -75 inlet;
#X obj -224 71 gate_2;
#X obj -167 151 unpack f f f;
#X obj -247 -75 inlet signal;
#X text -130 324 Juan Ignacio Mendoza Garay - 2018;
#X obj -30 -35 route bang;
#X obj 67 5 + 1;
#X text -146 -113 3-element list;
#X text 46 -113 1 \, 0: autoscale on or off;
#X text -166 -133 left inlet:;
#X text 24 -133 right inlet:;
#X text 46 -93 bang: reset;
#X obj -167 111 list-autoscale;
#X obj -247 271 outlet thru;
#X connect 0 0 1 1;
#X connect 0 0 2 1;
#X connect 0 0 3 1;
#X connect 4 0 9 0;
#X connect 5 0 6 0;
#X connect 5 1 16 0;
#X connect 6 0 3 0;
#X connect 6 1 2 0;
#X connect 6 2 1 0;
#X connect 7 0 5 1;
#X connect 7 0 17 0;
#X connect 9 0 0 0;
#X connect 9 0 16 3;
#X connect 9 1 10 0;
#X connect 10 0 5 0;
#X connect 16 0 6 0;
#X coords 0 -1 1 1 202 96 2 0 200;
