#N canvas 689 625 517 277 12;
#X obj 51 -60 inlet xyz;
#X text 168 181 Juan Ignacio Mendoza Garay - 2022;
#N canvas 0 22 450 300 (subpatch) 0;
#X array \$0-x 200 float 0;
#X coords 0 1 199 0 200 90 1;
#X restore 290 35 graph;
#N canvas 0 22 450 300 \$0-cnvmask 0;
#X obj 1 0 cnv 15 198 18 empty empty 0 0 8 0 14 -262144 -262144 0;
#X coords 0 -1 1 1 200 18 1 0 0;
#X restore 290 14 pd \$0-cnvmask;
#X obj 409 -60 inlet label;
#X obj 409 -30 s \$0-lbl;
#X obj 146 -60 inlet autoscale/reset;
#X obj 309 -60 inlet resize;
#X obj 12 50 gate_2;
#X obj 146 -30 route bang;
#X obj 213 0 + 1;
#N canvas 685 637 281 276 information 0;
#X text 25 107 bang: reset;
#X text 25 87 1 \, 0: autoscale on \, off;
#X text 15 67 INLET 2:;
#X text 15 7 INLET 1:;
#X text 15 148 INLET 3:;
#X text 15 208 INLET 4:;
#X text 25 228 list label position background font;
#X text 25 168 resize plot (default = 200);
#X text 25 27 number stream;
#X restore 341 150 pd information;
#X obj 309 -30 s \$0-size;
#X obj 51 157 outlet thru(rescaled);
#X obj 164 40 s \$0-clear;
#N canvas 976 612 225 142 init 0;
#X obj -21 101 s \$0-size;
#X msg -21 71 200;
#X obj -21 11 loadbang;
#X obj -21 41 t b b;
#X obj 59 101 s \$0-lbl_init;
#X msg 59 71 empty 0 0 -1;
#X connect 1 0 0 0;
#X connect 2 0 3 0;
#X connect 3 0 1 0;
#X connect 3 1 5 0;
#X connect 5 0 4 0;
#X restore 181 77 pd init;
#N canvas 1286 461 225 296 set_array 0;
#N canvas 249 231 570 236 mask 0;
#X text 271 15 Every time the table properties change;
#X text 271 30 the table is re-written and it goes to;
#X text 271 45 the front exposing its title \, which is;
#X text 271 60 aesthetically undesirable.;
#X text 271 106 properties change.;
#X text 271 76 To avoid this a canvas is;
#X text 271 91 renewed every time the table;
#X obj 12 180 s pd-\$0-cnvmask;
#X obj 12 14 inlet;
#X obj 72 44 r \$0-lbl;
#X obj 12 44 del 10;
#X text 174 178 label position background font;
#X msg 12 134 clear \, obj 1 0 cnv 15 198 18 empty empty \$1 \$2 8
0 14 \$3 \$4 0;
#X obj 12 104 list;
#X obj 152 44 r \$0-lbl_init;
#X text 177 197 default: empty 0 0 -1;
#X connect 8 0 10 0;
#X connect 9 0 13 0;
#X connect 10 0 13 0;
#X connect 12 0 7 0;
#X connect 13 0 12 0;
#X connect 14 0 13 1;
#X restore 44 139 pd mask;
#X msg -87 34 const 0;
#X obj -87 4 delay 100;
#X obj -87 -46 t b b;
#X obj -2 -86 moses 2;
#X msg 44 34 resize \$1;
#X obj -2 -116 r \$0-size;
#X obj -87 -116 r \$0-clear;
#X msg -2 -46 2;
#X obj 44 4 i;
#X obj 76 109 s \$0-x;
#X obj 44 79 t b a;
#X connect 1 0 11 0;
#X connect 2 0 1 0;
#X connect 3 0 2 0;
#X connect 3 1 9 0;
#X connect 4 0 8 0;
#X connect 4 1 9 0;
#X connect 5 0 11 0;
#X connect 6 0 4 0;
#X connect 7 0 3 0;
#X connect 8 0 9 0;
#X connect 9 0 5 0;
#X connect 11 0 0 0;
#X connect 11 1 10 0;
#X restore 181 117 pd set_array;
#X obj 51 80 autoscale;
#N canvas 910 258 278 528 write_array 0;
#X obj -105 144 until;
#X obj -15 204 + 1;
#X obj -15 264 - 1;
#X obj -148 484 outlet thru;
#X obj -148 14 inlet spit_xyz;
#X msg -55 114 0;
#X obj -57 54 r \$0-size;
#X obj -128 54 t a b b;
#X obj -40 407 r \$0-size;
#X obj -128 437 tabwrite \$0-x;
#X obj -105 374 tabwrite \$0-x;
#X obj -105 344 f;
#X obj 17 264 tabread \$0-x;
#X obj -73 204 f;
#X obj -15 234 t a a;
#X obj -105 114 i;
#X obj -105 174 t b b;
#X connect 0 0 16 0;
#X connect 1 0 13 1;
#X connect 1 0 14 0;
#X connect 2 0 10 1;
#X connect 4 0 3 0;
#X connect 4 0 7 0;
#X connect 5 0 13 1;
#X connect 6 0 15 1;
#X connect 7 0 9 0;
#X connect 7 1 15 0;
#X connect 7 2 5 0;
#X connect 8 0 9 1;
#X connect 11 0 10 0;
#X connect 12 0 11 1;
#X connect 13 0 1 0;
#X connect 14 0 2 0;
#X connect 14 1 12 0;
#X connect 15 0 0 0;
#X connect 16 0 11 0;
#X connect 16 1 13 0;
#X restore 51 117 pd write_array;
#X connect 0 0 8 1;
#X connect 4 0 5 0;
#X connect 6 0 9 0;
#X connect 7 0 12 0;
#X connect 8 0 18 0;
#X connect 8 1 17 0;
#X connect 9 0 14 0;
#X connect 9 0 17 3;
#X connect 9 1 10 0;
#X connect 10 0 8 0;
#X connect 17 0 18 0;
#X connect 18 0 13 0;
#X coords 0 -1 1 1 200 120 2 290 10;
