#N canvas 809 384 358 218 12;
#X text 130 128 Juan Ignacio Mendoza - 2019;
#X obj -15 -42 inlet data;
#X obj 101 98 cup;
#X obj -15 128 tabwrite \$0-array;
#X obj -15 58 trigger f b;
#X obj 215 -42 inlet size;
#N canvas 0 22 450 300 (subpatch) 0;
#X array \$0-array 10 float 0;
#X coords 0 1 9 -1 200 30 1;
#X restore 1 -1 graph;
#X msg 215 -2 resize \$1;
#X obj 247 58 s \$0-array;
#X obj 215 28 t b a;
#X msg 101 58 0;
#X connect 1 0 4 0;
#X connect 2 0 3 1;
#X connect 4 0 3 0;
#X connect 4 1 2 0;
#X connect 5 0 7 0;
#X connect 7 0 9 0;
#X connect 9 0 10 0;
#X connect 9 1 8 0;
#X connect 10 0 2 0;
#X coords 0 -1 1 1 200 30 2 0 0;
