#N canvas 65 410 963 588 10;
#X obj -150 -25 inlet;
#X obj -280 171 gate_2;
#X obj -150 35 route bang;
#X obj -93 65 + 1;
#X text -149 -93 1 \, 0: autoscale on or off;
#X text -149 -73 bang: reset;
#X obj -247 201 list-autoscale;
#X obj -287 441 outlet thru;
#X text 409 444 Juan Ignacio Mendoza Garay - 2022;
#X text -266 -93 N-element list;
#X text -286 -113 inlet 1:;
#X text 41 -93 N;
#X obj 29 -25 inlet;
#X obj -150 201 s \$0-mp_rs;
#X obj 29 65 until;
#X obj 29 95 cup;
#X obj 150 255 + 20;
#X obj 45 145 + 1;
#X msg 83 65 0;
#X obj 84 195 * 2;
#X obj 79 255 - 1;
#X obj -287 -25 inlet;
#X obj 129 65 * 30;
#X obj -247 231 s \$0-ND_list;
#X obj 29 325 t a a;
#X obj 84 215 t a a;
#N canvas 779 336 179 284 make_unpack 0;
#X msg -26 105 f;
#X obj -26 75 until;
#X obj -63 45 trigger b a b;
#X obj -63 15 inlet;
#X obj 29 105 list;
#X obj -26 135 prepend;
#X obj -63 195 list trim;
#X obj -63 165 list;
#X obj -63 225 outlet;
#X msg 13 75 obj 120 25 unpack;
#X connect 0 0 5 0;
#X connect 1 0 0 0;
#X connect 2 0 7 0;
#X connect 2 1 1 0;
#X connect 2 2 9 0;
#X connect 3 0 2 0;
#X connect 4 0 5 1;
#X connect 5 0 4 0;
#X connect 5 0 7 1;
#X connect 6 0 8 0;
#X connect 7 0 6 0;
#X connect 9 0 5 1;
#X restore 199 65 pd make_unpack;
#X obj 129 95 pack f \$0;
#N canvas 70 545 294 222 \$0-l2vis 0;
#X obj 120 0 r 1052-ND_list;
#X obj 120 25 unpack f f f f f f f;
#X obj 10 60 s 1052-mp_1;
#X obj 10 90 s 1052-mp_2;
#X obj 10 120 s 1052-mp_3;
#X obj 10 150 s 1052-mp_4;
#X obj 10 180 s 1052-mp_5;
#X obj 10 210 s 1052-mp_6;
#X obj 10 240 s 1052-mp_7;
#X connect 0 0 1 0;
#X connect 1 0 2 0;
#X connect 1 1 3 0;
#X connect 1 2 4 0;
#X connect 1 3 5 0;
#X connect 1 4 6 0;
#X connect 1 5 7 0;
#X connect 1 6 8 0;
#X restore -150 321 pd \$0-l2vis;
#N canvas 1416 23 234 251 \$0-mp_vis 1;
#N canvas 0 22 450 300 \$0-miniplots 0;
#X obj 320 0 r 1052-mp_rs;
#X obj 100 20 miniplot;
#X obj 10 0 r 1052-mp_1;
#X obj 100 50 miniplot;
#X obj 10 30 r 1052-mp_2;
#X obj 100 80 miniplot;
#X obj 10 60 r 1052-mp_3;
#X obj 100 110 miniplot;
#X obj 10 90 r 1052-mp_4;
#X obj 100 140 miniplot;
#X obj 10 120 r 1052-mp_5;
#X obj 100 170 miniplot;
#X obj 10 150 r 1052-mp_6;
#X obj 100 200 miniplot;
#X obj 10 180 r 1052-mp_7;
#X connect 0 0 1 1;
#X connect 0 0 3 1;
#X connect 0 0 5 1;
#X connect 0 0 7 1;
#X connect 0 0 9 1;
#X connect 0 0 11 1;
#X connect 0 0 13 1;
#X connect 2 0 1 0;
#X connect 4 0 3 0;
#X connect 6 0 5 0;
#X connect 8 0 7 0;
#X connect 10 0 9 0;
#X connect 12 0 11 0;
#X connect 14 0 13 0;
#X coords 0 -1 1 1 200 210 2 100 20;
#X restore 11 15 pd \$0-miniplots;
#X restore -150 351 pd \$0-mp_vis;
#X obj 311 161 s pd-\$0-l2vis;
#X msg 199 125 connect 0 0 1 0;
#X obj 199 95 trigger bang any;
#X obj 311 65 \$0;
#X msg 519 125 \; pd-\$2-mp_vis vis \$1;
#X obj 131 195 * 30;
#X obj 131 215 t a a a;
#X obj 190 255 + 60;
#X msg 311 95 clear \, obj 120 0 r \$1-ND_list;
#X obj 51 255 + 1;
#X obj 29 295 pack f f f f f f f f \$0;
#X obj 29 115 trigger a a a;
#X obj 45 166 t a a a;
#X msg 56 354 \; pd-\$9-l2vis obj 10 \$8 s \$9-mp_\$2 \, connect 1
\$1 \$3 0;
#X text -171 -113 inlet 2 and argument 1;
#X text 19 -113 inlet 3 and argument 2:;
#X text -149 -53 default = 0;
#X text 41 -73 default = 3;
#N canvas 581 339 259 330 init 0;
#X obj 50 296 outlet;
#X obj 113 296 outlet;
#X obj 50 166 \$1;
#X obj 113 166 \$2;
#X obj 113 186 select 0;
#X msg 113 206 3;
#X obj 50 136 trigger b b;
#X obj 13 16 inlet;
#X obj 209 16 inlet;
#X obj 50 106 delay 500;
#X obj 50 266 spigot;
#X obj 113 266 spigot;
#X obj 142 46 loadbang;
#X obj 142 76 t b b;
#X msg 169 216 1;
#X msg 209 216 0;
#X obj 209 46 bang;
#X obj 13 46 bang;
#X msg 13 216 0;
#X connect 2 0 10 0;
#X connect 3 0 4 0;
#X connect 4 0 5 0;
#X connect 4 1 11 0;
#X connect 5 0 11 0;
#X connect 6 0 2 0;
#X connect 6 1 3 0;
#X connect 7 0 17 0;
#X connect 8 0 16 0;
#X connect 9 0 6 0;
#X connect 10 0 0 0;
#X connect 11 0 1 0;
#X connect 12 0 13 0;
#X connect 13 0 9 0;
#X connect 13 1 14 0;
#X connect 14 0 11 1;
#X connect 14 0 10 1;
#X connect 15 0 11 1;
#X connect 16 0 15 0;
#X connect 17 0 18 0;
#X connect 18 0 10 1;
#X restore -80 6 pd init;
#X msg 199 195 \; pd-\$2-miniplots clear \, obj 320 0 r \$2-mp_rs \,
donecanvasdialog 1 -1 2 0 -1 1 1 200 \$1 100 20 \, dirty 0;
#X msg 29 395 \; pd-\$9-miniplots obj 100 \$7 miniplot \, obj 10 \$6
r \$9-mp_\$2 \, connect 0 0 \$4 1 \, connect \$5 0 \$4 0;
#X obj 29 35 trigger bang any bang any any bang bang;
#X msg -93 95 200;
#X text 431 -93 1 \, 0: open or close plots window;
#X text 429 -113 inlet 4 and argument 3:;
#X text 431 -73 default = 0;
#X msg 491 65 0;
#X obj 519 -25 inlet;
#X obj 519 95 pack f \$0;
#X connect 0 0 2 0;
#X connect 0 0 48 0;
#X connect 1 0 23 0;
#X connect 1 1 6 0;
#X connect 2 0 6 3;
#X connect 2 0 13 0;
#X connect 2 1 3 0;
#X connect 3 0 1 0;
#X connect 6 0 23 0;
#X connect 12 0 51 0;
#X connect 12 0 48 1;
#X connect 14 0 15 0;
#X connect 15 0 41 0;
#X connect 16 0 40 6;
#X connect 17 0 42 0;
#X connect 18 0 15 0;
#X connect 19 0 25 0;
#X connect 20 0 40 3;
#X connect 21 0 1 1;
#X connect 21 0 7 0;
#X connect 22 0 27 0;
#X connect 24 0 50 0;
#X connect 24 1 43 0;
#X connect 25 0 20 0;
#X connect 25 1 40 4;
#X connect 26 0 32 0;
#X connect 27 0 49 0;
#X connect 31 0 30 0;
#X connect 32 0 31 0;
#X connect 32 1 30 0;
#X connect 33 0 38 0;
#X connect 35 0 36 0;
#X connect 36 0 40 5;
#X connect 36 1 16 0;
#X connect 36 2 37 0;
#X connect 37 0 40 7;
#X connect 38 0 30 0;
#X connect 39 0 40 2;
#X connect 40 0 24 0;
#X connect 41 0 40 0;
#X connect 41 1 17 0;
#X connect 41 2 35 0;
#X connect 42 0 40 1;
#X connect 42 1 39 0;
#X connect 42 2 19 0;
#X connect 48 0 2 0;
#X connect 48 1 51 0;
#X connect 51 0 52 0;
#X connect 51 1 14 0;
#X connect 51 2 18 0;
#X connect 51 3 22 0;
#X connect 51 4 26 0;
#X connect 51 5 33 0;
#X connect 51 6 56 0;
#X connect 52 0 13 0;
#X connect 56 0 58 0;
#X connect 57 0 58 0;
#X connect 58 0 34 0;
