#N canvas 347 101 262 462 12;
#X text -79 377 Juan Ignacio Mendoza Garay - 2018;
#X obj -54 38 inlet signal;
#X obj 46 38 inlet period;
#X obj -12 348 outlet poll;
#X msg 99 188 1;
#X obj 99 158 t b a;
#X obj 46 128 select 0;
#X msg 46 188 0;
#X obj 99 218 metro;
#X obj 56 68 loadbang;
#X obj 56 98 \$1;
#X text -78 -28 at regular intervals.;
#X text -78 -45 Get one sample of the input;
#X text -78 6 is repeated.;
#X text -78 -11 If no new input \, then last;
#X obj -79 288 list;
#X obj -79 318 route bang;
#X connect 1 0 15 1;
#X connect 2 0 6 0;
#X connect 4 0 8 0;
#X connect 5 0 4 0;
#X connect 5 1 8 1;
#X connect 6 0 7 0;
#X connect 6 1 5 0;
#X connect 7 0 8 0;
#X connect 8 0 15 0;
#X connect 9 0 10 0;
#X connect 10 0 6 0;
#X connect 15 0 16 0;
#X connect 16 1 3 0;
#X coords 0 0 1 1 48 46 0;
