#N canvas 344 246 309 686 12;
#X obj -162 401 unpack f f f;
#X obj -106 471 -;
#X obj -106 501 abs;
#X obj -42 331 unpack f f f;
#X obj -95 251 spigot_2;
#X obj -106 531 expr $f1+$f2+$f3;
#X obj -52 471 -;
#X obj -52 501 abs;
#X obj 3 471 -;
#X obj 3 501 abs;
#X obj -60 401 f;
#X obj -20 401 f;
#X obj 21 401 f;
#X obj -162 331 t a b b b;
#X obj -106 591 outlet;
#X obj -106 561 * 50;
#X obj -162 211 route bang;
#X obj -74 11 inlet bang;
#X obj -42 171 delay;
#X obj -74 41 t b b;
#X text 11 174 1 = detect;
#X text 11 188 2 = record;
#X msg -74 211 2;
#X msg -42 211 1;
#X text 11 159 0 = off;
#X obj -10 71 t a a;
#X obj -92 171 delay;
#X obj -10 131 expr $f1 + $f2;
#X obj -10 101 / 2;
#X msg 33 301 10 10 10;
#X obj 1 251 t b b;
#X msg -119 301 0 0 0;
#X text -39 649 2018;
#X text -98 629 Juan Ignacio Mendoza;
#X obj -162 11 r \$1-xyz_ml;
#X obj -10 41 r \$1-set_wl_rcv;
#X obj 1 211 r \$1-m1_tgl;
#X connect 0 0 1 0;
#X connect 0 1 6 0;
#X connect 0 2 8 0;
#X connect 1 0 2 0;
#X connect 2 0 5 0;
#X connect 3 0 10 1;
#X connect 3 1 11 1;
#X connect 3 2 12 1;
#X connect 4 0 13 0;
#X connect 4 1 3 0;
#X connect 5 0 15 0;
#X connect 6 0 7 0;
#X connect 7 0 5 1;
#X connect 8 0 9 0;
#X connect 9 0 5 2;
#X connect 10 0 1 1;
#X connect 11 0 6 1;
#X connect 12 0 8 1;
#X connect 13 0 0 0;
#X connect 13 1 10 0;
#X connect 13 2 11 0;
#X connect 13 3 12 0;
#X connect 15 0 14 0;
#X connect 16 1 4 0;
#X connect 17 0 19 0;
#X connect 18 0 23 0;
#X connect 19 0 26 0;
#X connect 19 1 18 0;
#X connect 22 0 4 1;
#X connect 23 0 4 1;
#X connect 25 0 28 0;
#X connect 25 1 27 1;
#X connect 26 0 22 0;
#X connect 27 0 18 1;
#X connect 28 0 27 0;
#X connect 28 0 26 1;
#X connect 29 0 3 0;
#X connect 30 0 31 0;
#X connect 30 1 29 0;
#X connect 31 0 13 0;
#X connect 34 0 16 0;
#X connect 35 0 25 0;
#X connect 36 0 4 1;
#X connect 36 0 30 0;
