#N canvas 177 65 857 824 12;
#X obj 67 355 phasor~;
#X obj 68 465 *~ -1;
#X obj 68 490 +~ 1;
#X obj 168 579 sig~ 1;
#X obj 233 587 cos~;
#X obj 169 612 -~;
#X obj 170 637 *~ 0.5;
#X obj 91 666 *~;
#X obj 99 552 samphold~;
#X obj 68 579 *~;
#X obj 100 524 sig~;
#X floatatom 177 334 5 0 0 0 - - -;
#X floatatom 130 237 10 0 0 0 - - -;
#X floatatom 99 317 5 0 0 0 - - -;
#X floatatom 261 183 5 0 0 0 - - -;
#X obj 261 204 t b f;
#X obj 145 749 *~;
#X obj 177 308 / 44.1;
#X obj 454 294 *~ -1;
#X obj 455 327 +~ 1;
#X obj 548 423 sig~ 1;
#X obj 612 430 cos~;
#X obj 549 454 -~;
#X obj 550 479 *~ 0.5;
#X obj 477 511 *~;
#X obj 489 392 samphold~;
#X obj 455 419 *~;
#X obj 490 364 sig~;
#X obj 475 207 +~ 0.5;
#X obj 475 229 wrap~;
#X obj 98 45 vsl 15 128 100 30000 0 0 empty empty empty 0 -8 0 8 -262144
-1 -1 12137 1;
#X obj 98 181 t b f;
#X obj 130 278 expr (pow(2 \, ($f2/12)) - 1) * (44100/$f1);
#X text 278 167 -36;
#X text 284 115 36;
#X text 117 38 30000;
#X text 115 162 100;
#X obj 460 591 *~;
#X floatatom 507 561 5 0 0 0 - - -;
#X text 556 560 0-1;
#X text 272 594 Hanning;
#X text 210 71 Transposition (Half steps);
#X text 63 17 window width;
#X text 496 711 www.pd-tutorial.com;
#X text 425 688 based on granulator by Johannes Kreidler;
#X obj 145 790 outlet~;
#X obj 553 55 inlet~;
#X obj 505 146 print;
#X obj 261 102 vsl 15 73 -36 36 0 0 empty empty empty 0 -8 0 8 -262144
-1 -1 4576 1;
#X obj 623 55 inlet modulate;
#X obj 205 749 *~;
#X obj 743 55 inlet mix;
#X obj 478 462 vd~ \$0-b1;
#X obj 91 622 vd~ \$0-b1;
#X obj 361 632 delwrite~ \$0-b1 5000;
#X obj 667 169 expr $f1*42;
#X obj 623 94 pow 2;
#X obj 623 121 expr (1-$f1)*30099 + 200;
#X obj 735 290 expr (1-$f1);
#X obj 624 320 pow 2;
#X connect 0 0 1 0;
#X connect 0 0 4 0;
#X connect 0 0 8 1;
#X connect 0 0 28 0;
#X connect 1 0 2 0;
#X connect 2 0 9 0;
#X connect 3 0 5 0;
#X connect 4 0 5 1;
#X connect 5 0 6 0;
#X connect 6 0 7 1;
#X connect 7 0 16 0;
#X connect 7 0 37 0;
#X connect 8 0 9 1;
#X connect 9 0 53 0;
#X connect 10 0 8 0;
#X connect 11 0 27 0;
#X connect 11 0 10 0;
#X connect 12 0 17 0;
#X connect 12 0 32 0;
#X connect 13 0 0 0;
#X connect 14 0 15 0;
#X connect 15 0 12 0;
#X connect 15 1 32 1;
#X connect 16 0 45 0;
#X connect 17 0 11 0;
#X connect 18 0 19 0;
#X connect 19 0 26 0;
#X connect 20 0 22 0;
#X connect 21 0 22 1;
#X connect 22 0 23 0;
#X connect 23 0 24 1;
#X connect 24 0 16 0;
#X connect 24 0 37 0;
#X connect 25 0 26 1;
#X connect 26 0 52 0;
#X connect 27 0 25 0;
#X connect 28 0 29 0;
#X connect 29 0 18 0;
#X connect 29 0 25 1;
#X connect 29 0 21 0;
#X connect 30 0 31 0;
#X connect 31 0 14 0;
#X connect 31 1 12 0;
#X connect 32 0 13 0;
#X connect 37 0 54 0;
#X connect 38 0 37 1;
#X connect 46 0 50 0;
#X connect 46 0 54 0;
#X connect 48 0 14 0;
#X connect 49 0 55 0;
#X connect 49 0 38 0;
#X connect 49 0 56 0;
#X connect 50 0 45 0;
#X connect 51 0 58 0;
#X connect 51 0 59 0;
#X connect 52 0 24 0;
#X connect 53 0 7 0;
#X connect 55 0 48 0;
#X connect 56 0 57 0;
#X connect 57 0 30 0;
#X connect 58 0 50 1;
#X connect 59 0 16 1;
