#N canvas 894 23 412 252 12;
#X declare -lib Gem;
#X declare -lib iemmatrix;
#X declare -lib mrpeach;
#N canvas 709 303 535 462 control 0;
#X text -357 148 controller -->;
#X obj -277 319 s \$0-c_x;
#X obj -189 319 s \$0-c_y;
#X obj -122 249 s \$0-c_s;
#N canvas 251 277 432 399 polling_xy 0;
#X obj 10 286 f;
#X obj 10 316 outlet;
#X obj 80 286 f;
#X obj 80 316 outlet;
#X obj 168 216 metro 25;
#X obj 98 6 r \$0-d_y;
#X obj 28 6 r \$0-d_x;
#X obj 168 6 r \$0-instrument_select;
#X obj 28 216 spigot;
#X obj 98 216 spigot;
#X msg 168 81 0;
#X msg 214 81 1;
#X obj 168 46 moses 4;
#X connect 0 0 1 0;
#X connect 2 0 3 0;
#X connect 4 0 0 0;
#X connect 4 0 2 0;
#X connect 5 0 9 0;
#X connect 6 0 8 0;
#X connect 7 0 12 0;
#X connect 8 0 0 1;
#X connect 9 0 2 1;
#X connect 10 0 8 1;
#X connect 10 0 9 1;
#X connect 10 0 4 0;
#X connect 11 0 8 1;
#X connect 11 0 9 1;
#X connect 11 0 4 0;
#X connect 12 0 10 0;
#X connect 12 1 11 0;
#X restore -277 279 pd polling_xy;
#X obj -251 109 video_blob;
#X obj -277 249 s \$0-d_x;
#X obj -199 249 s \$0-d_y;
#N canvas 383 416 338 301 ROI_hub_3x4 0;
#N canvas 1051 362 389 357 ROI 0;
#X msg 116 99 0.11 0.17 0.7 0.21;
#X obj 58 261 outlet;
#X obj 58 231 select 1;
#X obj -32 69 r \$0-d_x;
#X obj 46 69 r \$0-d_y;
#X obj 116 49 list_set_4_GUI;
#X obj 286 129 list;
#X obj 286 19 list;
#X text 121 26 pos.;
#X text 157 26 size;
#X text 201 26 pos.;
#X text 237 26 size;
#X text 117 6 __________;
#X text 184 15 |;
#X text 114 15 |;
#X text 197 6 __________;
#X text 264 15 |;
#X text 194 15 |;
#X text 149 0 X;
#X text 229 0 Y;
#X obj 58 199 rectangle_ROI;
#X obj 146 159 r \$0-h_3x4_d;
#X connect 0 0 6 0;
#X connect 0 0 20 2;
#X connect 2 0 1 0;
#X connect 3 0 20 0;
#X connect 4 0 20 1;
#X connect 5 0 0 0;
#X connect 6 0 7 0;
#X connect 7 0 5 4;
#X connect 20 0 2 0;
#X connect 21 0 20 4;
#X restore -205 -50 pd ROI;
#X obj -168 -19 bng 18 250 50 0 empty empty empty 17 7 0 10 -262144
-1 -1;
#X obj -205 10 s \$0-ROI;
#X msg -205 -20 1;
#N canvas 635 268 382 263 ROI 0;
#X msg 116 99 0.14 0.18 0.08 0.12;
#X obj 58 231 outlet;
#X obj 58 201 select 1;
#X obj -32 69 r \$0-d_x;
#X obj 46 69 r \$0-d_y;
#X obj 116 49 list_set_4_GUI;
#X obj 286 129 list;
#X obj 286 19 list;
#X text 121 26 pos.;
#X text 157 26 size;
#X text 201 26 pos.;
#X text 237 26 size;
#X text 117 6 __________;
#X text 184 15 |;
#X text 114 15 |;
#X text 197 6 __________;
#X text 264 15 |;
#X text 194 15 |;
#X text 149 0 X;
#X text 229 0 Y;
#X obj 58 169 rectangle_ROI;
#X obj 146 139 r \$0-h_3x4_d;
#X connect 0 0 6 0;
#X connect 0 0 20 2;
#X connect 2 0 1 0;
#X connect 3 0 20 0;
#X connect 4 0 20 1;
#X connect 5 0 0 0;
#X connect 6 0 7 0;
#X connect 7 0 5 4;
#X connect 20 0 2 0;
#X connect 21 0 20 4;
#X restore -205 150 pd ROI;
#X obj -168 181 bng 18 250 50 0 empty empty empty 17 7 0 10 -262144
-1 -1;
#X obj -205 210 s \$0-ROI;
#X msg -205 180 3;
#N canvas 635 268 382 263 ROI 0;
#X msg 116 99 0.37 0.17 0.71 0.2;
#X obj 58 241 outlet;
#X obj 58 211 select 1;
#X obj -32 69 r \$0-d_x;
#X obj 46 69 r \$0-d_y;
#X obj 116 49 list_set_4_GUI;
#X obj 286 129 list;
#X obj 286 19 list;
#X text 121 26 pos.;
#X text 157 26 size;
#X text 201 26 pos.;
#X text 237 26 size;
#X text 117 6 __________;
#X text 184 15 |;
#X text 114 15 |;
#X text 197 6 __________;
#X text 264 15 |;
#X text 194 15 |;
#X text 149 0 X;
#X text 229 0 Y;
#X obj 58 179 rectangle_ROI;
#X obj 146 149 r \$0-h_3x4_d;
#X connect 0 0 6 0;
#X connect 0 0 20 2;
#X connect 2 0 1 0;
#X connect 3 0 20 0;
#X connect 4 0 20 1;
#X connect 5 0 0 0;
#X connect 6 0 7 0;
#X connect 7 0 5 4;
#X connect 20 0 2 0;
#X connect 21 0 20 4;
#X restore -125 -50 pd ROI;
#X obj -88 -19 bng 18 250 50 0 empty empty empty 17 7 0 10 -262144
-1 -1;
#X obj -125 10 s \$0-ROI;
#N canvas 635 268 382 263 ROI 0;
#X msg 116 99 0.37 0.15 0.07 0.13;
#X obj 58 231 outlet;
#X obj 58 201 select 1;
#X obj -32 69 r \$0-d_x;
#X obj 46 69 r \$0-d_y;
#X obj 116 49 list_set_4_GUI;
#X obj 286 129 list;
#X obj 286 19 list;
#X text 121 26 pos.;
#X text 157 26 size;
#X text 201 26 pos.;
#X text 237 26 size;
#X text 117 6 __________;
#X text 184 15 |;
#X text 114 15 |;
#X text 197 6 __________;
#X text 264 15 |;
#X text 194 15 |;
#X text 149 0 X;
#X text 229 0 Y;
#X obj 58 169 rectangle_ROI;
#X obj 146 143 r \$0-h_3x4_d;
#X connect 0 0 6 0;
#X connect 0 0 20 2;
#X connect 2 0 1 0;
#X connect 3 0 20 0;
#X connect 4 0 20 1;
#X connect 5 0 0 0;
#X connect 6 0 7 0;
#X connect 7 0 5 4;
#X connect 20 0 2 0;
#X connect 21 0 20 4;
#X restore -125 150 pd ROI;
#X obj -88 181 bng 18 250 50 0 empty empty empty 17 7 0 10 -262144
-1 -1;
#X obj -125 210 s \$0-ROI;
#X msg -125 -20 4;
#X msg -125 181 6;
#N canvas 635 268 382 263 ROI 0;
#X msg 116 99 0.63 0.16 0.72 0.21;
#X obj 58 231 outlet;
#X obj 58 201 select 1;
#X obj -32 69 r \$0-d_x;
#X obj 46 69 r \$0-d_y;
#X obj 116 49 list_set_4_GUI;
#X obj 286 129 list;
#X obj 286 19 list;
#X text 121 26 pos.;
#X text 157 26 size;
#X text 201 26 pos.;
#X text 237 26 size;
#X text 117 6 __________;
#X text 184 15 |;
#X text 114 15 |;
#X text 197 6 __________;
#X text 264 15 |;
#X text 194 15 |;
#X text 149 0 X;
#X text 229 0 Y;
#X obj 58 169 rectangle_ROI;
#X obj 146 139 r \$0-h_3x4_d;
#X connect 0 0 6 0;
#X connect 0 0 20 2;
#X connect 2 0 1 0;
#X connect 3 0 20 0;
#X connect 4 0 20 1;
#X connect 5 0 0 0;
#X connect 6 0 7 0;
#X connect 7 0 5 4;
#X connect 20 0 2 0;
#X connect 21 0 20 4;
#X restore -45 -50 pd ROI;
#X obj -8 -19 bng 18 250 50 0 empty empty empty 17 7 0 10 -262144 -1
-1;
#X obj -45 10 s \$0-ROI;
#N canvas 635 268 382 263 ROI 0;
#X msg 116 99 0.62 0.17 0.07 0.13;
#X obj 58 231 outlet;
#X obj 58 201 select 1;
#X obj -32 69 r \$0-d_x;
#X obj 46 69 r \$0-d_y;
#X obj 116 49 list_set_4_GUI;
#X obj 286 129 list;
#X obj 286 19 list;
#X text 121 26 pos.;
#X text 157 26 size;
#X text 201 26 pos.;
#X text 237 26 size;
#X text 117 6 __________;
#X text 184 15 |;
#X text 114 15 |;
#X text 197 6 __________;
#X text 264 15 |;
#X text 194 15 |;
#X text 149 0 X;
#X text 229 0 Y;
#X obj 58 169 rectangle_ROI;
#X obj 146 139 r \$0-h_3x4_d;
#X connect 0 0 6 0;
#X connect 0 0 20 2;
#X connect 2 0 1 0;
#X connect 3 0 20 0;
#X connect 4 0 20 1;
#X connect 5 0 0 0;
#X connect 6 0 7 0;
#X connect 7 0 5 4;
#X connect 20 0 2 0;
#X connect 21 0 20 4;
#X restore -45 150 pd ROI;
#X obj -8 181 bng 18 250 50 0 empty empty empty 17 7 0 10 -262144 -1
-1;
#X obj -45 210 s \$0-ROI;
#X msg -45 -20 7;
#X msg -45 181 9;
#N canvas 635 268 382 263 ROI 0;
#X msg 116 99 0.89 0.19 0.68 0.19;
#X obj 58 241 outlet;
#X obj 58 211 select 1;
#X obj -32 69 r \$0-d_x;
#X obj 46 69 r \$0-d_y;
#X obj 116 49 list_set_4_GUI;
#X obj 286 129 list;
#X obj 286 19 list;
#X text 121 26 pos.;
#X text 157 26 size;
#X text 201 26 pos.;
#X text 237 26 size;
#X text 117 6 __________;
#X text 184 15 |;
#X text 114 15 |;
#X text 197 6 __________;
#X text 264 15 |;
#X text 194 15 |;
#X text 149 0 X;
#X text 229 0 Y;
#X obj 58 179 rectangle_ROI;
#X obj 146 149 r \$0-h_3x4_d;
#X connect 0 0 6 0;
#X connect 0 0 20 2;
#X connect 2 0 1 0;
#X connect 3 0 20 0;
#X connect 4 0 20 1;
#X connect 5 0 0 0;
#X connect 6 0 7 0;
#X connect 7 0 5 4;
#X connect 20 0 2 0;
#X connect 21 0 20 4;
#X restore 35 -50 pd ROI;
#X obj 72 -19 bng 18 250 50 0 empty empty empty 17 7 0 10 -262144 -1
-1;
#X obj 35 10 s \$0-ROI;
#N canvas 635 268 382 263 ROI 0;
#X msg 116 99 0.89 0.18 0.07 0.13;
#X obj 58 231 outlet;
#X obj 58 201 select 1;
#X obj -32 69 r \$0-d_x;
#X obj 46 69 r \$0-d_y;
#X obj 116 49 list_set_4_GUI;
#X obj 286 129 list;
#X obj 286 19 list;
#X text 121 26 pos.;
#X text 157 26 size;
#X text 201 26 pos.;
#X text 237 26 size;
#X text 117 6 __________;
#X text 184 15 |;
#X text 114 15 |;
#X text 197 6 __________;
#X text 264 15 |;
#X text 194 15 |;
#X text 149 0 X;
#X text 229 0 Y;
#X obj 58 169 rectangle_ROI;
#X obj 146 139 r \$0-h_3x4_d;
#X connect 0 0 6 0;
#X connect 0 0 20 2;
#X connect 2 0 1 0;
#X connect 3 0 20 0;
#X connect 4 0 20 1;
#X connect 5 0 0 0;
#X connect 6 0 7 0;
#X connect 7 0 5 4;
#X connect 20 0 2 0;
#X connect 21 0 20 4;
#X restore 35 150 pd ROI;
#X obj 72 181 bng 18 250 50 0 empty empty empty 17 7 0 10 -262144 -1
-1;
#X msg 35 -20 10;
#X msg 35 181 12;
#X obj 35 210 s \$0-ROI;
#N canvas 635 268 382 263 ROI 0;
#X msg 116 99 0.12 0.18 0.37 0.22;
#X obj 58 231 outlet;
#X obj 58 201 select 1;
#X obj -32 69 r \$0-d_x;
#X obj 46 69 r \$0-d_y;
#X obj 116 49 list_set_4_GUI;
#X obj 286 129 list;
#X obj 286 19 list;
#X text 121 26 pos.;
#X text 157 26 size;
#X text 201 26 pos.;
#X text 237 26 size;
#X text 117 6 __________;
#X text 184 15 |;
#X text 114 15 |;
#X text 197 6 __________;
#X text 264 15 |;
#X text 194 15 |;
#X text 149 0 X;
#X text 229 0 Y;
#X obj 58 169 rectangle_ROI;
#X obj 146 139 r \$0-h_3x4_d;
#X connect 0 0 6 0;
#X connect 0 0 20 2;
#X connect 2 0 1 0;
#X connect 3 0 20 0;
#X connect 4 0 20 1;
#X connect 5 0 0 0;
#X connect 6 0 7 0;
#X connect 7 0 5 4;
#X connect 20 0 2 0;
#X connect 21 0 20 4;
#X restore -205 50 pd ROI;
#X obj -168 81 bng 18 250 50 0 empty empty empty 17 7 0 10 -262144
-1 -1;
#X obj -205 110 s \$0-ROI;
#X msg -205 80 2;
#N canvas 635 268 382 263 ROI 0;
#X msg 116 99 0.37 0.14 0.35 0.22;
#X obj 58 241 outlet;
#X obj 58 211 select 1;
#X obj -32 69 r \$0-d_x;
#X obj 46 69 r \$0-d_y;
#X obj 116 49 list_set_4_GUI;
#X obj 286 129 list;
#X obj 286 19 list;
#X text 121 26 pos.;
#X text 157 26 size;
#X text 201 26 pos.;
#X text 237 26 size;
#X text 117 6 __________;
#X text 184 15 |;
#X text 114 15 |;
#X text 197 6 __________;
#X text 264 15 |;
#X text 194 15 |;
#X text 149 0 X;
#X text 229 0 Y;
#X obj 58 179 rectangle_ROI;
#X obj 146 149 r \$0-h_3x4_d;
#X connect 0 0 6 0;
#X connect 0 0 20 2;
#X connect 2 0 1 0;
#X connect 3 0 20 0;
#X connect 4 0 20 1;
#X connect 5 0 0 0;
#X connect 6 0 7 0;
#X connect 7 0 5 4;
#X connect 20 0 2 0;
#X connect 21 0 20 4;
#X restore -125 50 pd ROI;
#X obj -88 81 bng 18 250 50 0 empty empty empty 17 7 0 10 -262144 -1
-1;
#X obj -125 110 s \$0-ROI;
#X msg -125 80 5;
#N canvas 635 268 382 263 ROI 0;
#X msg 116 99 0.63 0.16 0.35 0.22;
#X obj 58 231 outlet;
#X obj 58 201 select 1;
#X obj -32 69 r \$0-d_x;
#X obj 46 69 r \$0-d_y;
#X obj 116 49 list_set_4_GUI;
#X obj 286 129 list;
#X obj 286 19 list;
#X text 121 26 pos.;
#X text 157 26 size;
#X text 201 26 pos.;
#X text 237 26 size;
#X text 117 6 __________;
#X text 184 15 |;
#X text 114 15 |;
#X text 197 6 __________;
#X text 264 15 |;
#X text 194 15 |;
#X text 149 0 X;
#X text 229 0 Y;
#X obj 58 169 rectangle_ROI;
#X obj 146 139 r \$0-h_3x4_d;
#X connect 0 0 6 0;
#X connect 0 0 20 2;
#X connect 2 0 1 0;
#X connect 3 0 20 0;
#X connect 4 0 20 1;
#X connect 5 0 0 0;
#X connect 6 0 7 0;
#X connect 7 0 5 4;
#X connect 20 0 2 0;
#X connect 21 0 20 4;
#X restore -45 50 pd ROI;
#X obj -8 81 bng 18 250 50 0 empty empty empty 17 7 0 10 -262144 -1
-1;
#X obj -45 110 s \$0-ROI;
#X msg -45 80 8;
#N canvas 637 268 382 263 ROI 0;
#X msg 116 99 0.89 0.19 0.35 0.23;
#X obj 58 231 outlet;
#X obj 58 201 select 1;
#X obj -32 69 r \$0-d_x;
#X obj 46 69 r \$0-d_y;
#X obj 116 49 list_set_4_GUI;
#X obj 286 129 list;
#X obj 286 19 list;
#X text 121 26 pos.;
#X text 157 26 size;
#X text 201 26 pos.;
#X text 237 26 size;
#X text 117 6 __________;
#X text 184 15 |;
#X text 114 15 |;
#X text 197 6 __________;
#X text 264 15 |;
#X text 194 15 |;
#X text 149 0 X;
#X text 229 0 Y;
#X obj 58 169 rectangle_ROI;
#X obj 146 139 r \$0-h_3x4_d;
#X connect 0 0 6 0;
#X connect 0 0 20 2;
#X connect 2 0 1 0;
#X connect 3 0 20 0;
#X connect 4 0 20 1;
#X connect 5 0 0 0;
#X connect 6 0 7 0;
#X connect 7 0 5 4;
#X connect 20 0 2 0;
#X connect 21 0 20 4;
#X restore 35 50 pd ROI;
#X obj 72 81 bng 18 250 50 0 empty empty empty 17 7 0 10 -262144 -1
-1;
#X obj 35 110 s \$0-ROI;
#X msg 35 80 11;
#X connect 0 0 3 0;
#X connect 0 0 1 0;
#X connect 3 0 2 0;
#X connect 4 0 7 0;
#X connect 4 0 5 0;
#X connect 7 0 6 0;
#X connect 8 0 14 0;
#X connect 8 0 9 0;
#X connect 11 0 15 0;
#X connect 11 0 12 0;
#X connect 14 0 10 0;
#X connect 15 0 13 0;
#X connect 16 0 22 0;
#X connect 16 0 17 0;
#X connect 19 0 23 0;
#X connect 19 0 20 0;
#X connect 22 0 18 0;
#X connect 23 0 21 0;
#X connect 24 0 29 0;
#X connect 24 0 25 0;
#X connect 27 0 30 0;
#X connect 27 0 28 0;
#X connect 29 0 26 0;
#X connect 30 0 31 0;
#X connect 32 0 35 0;
#X connect 32 0 33 0;
#X connect 35 0 34 0;
#X connect 36 0 39 0;
#X connect 36 0 37 0;
#X connect 39 0 38 0;
#X connect 40 0 43 0;
#X connect 40 0 41 0;
#X connect 43 0 42 0;
#X connect 44 0 47 0;
#X connect 44 0 45 0;
#X connect 47 0 46 0;
#X restore -5 319 pd ROI_hub_3x4;
#N canvas 0 22 248 258 ROI_colour 0;
#X obj -30 195 s ROI_colour;
#X msg -140 155 0.6 1 0.4 1;
#X msg -63 115 0 0.7 0.9;
#X msg 30 114 1 1 0;
#X obj -140 54 select 0 1 2;
#X obj -140 24 inlet;
#X connect 1 0 0 0;
#X connect 2 0 0 0;
#X connect 3 0 0 0;
#X connect 4 0 1 0;
#X connect 4 1 2 0;
#X connect 4 2 3 0;
#X connect 5 0 4 0;
#X restore -113 319 pd ROI_colour;
#X obj -113 279 hradio 15 1 0 3 empty empty empty 0 -8 0 10 -262144
-1 -1 0;
#X text -331 36 on/off -->;
#X obj -251 39 tgl 15 0 empty empty video 17 7 0 10 -262144 -1 -1 0
1;
#X obj -7 -61 loadbang;
#X obj -114 109 mouse_btn;
#X obj -41 250 s \$0-instrument_select_rcv;
#X msg 75 39 5;
#X obj -244 79 s \$0-h_3x4_d;
#X obj -67 -1 t f f f f b;
#X obj -41 219 select_controller;
#X obj -12 39 tgl 15 0 empty empty keyboard 17 7 0 10 -262144 -1 -1
0 1;
#X obj -62 39 tgl 15 0 empty empty mouse 17 7 0 10 -262144 -1 -1 0
1;
#X obj -244 59 tgl 15 0 empty empty ROI 17 7 0 10 -262144 -1 -1 1 1
;
#X msg -67 -61 set \$1;
#X obj -67 -91 tgl 15 0 empty empty empty 17 7 0 10 -262144 -1 -1 1
1;
#X msg -67 -31 1;
#X connect 4 0 1 0;
#X connect 4 1 2 0;
#X connect 5 0 6 0;
#X connect 5 1 7 0;
#X connect 5 2 3 0;
#X connect 10 0 9 0;
#X connect 12 0 22 0;
#X connect 12 0 5 0;
#X connect 13 0 25 0;
#X connect 14 0 19 0;
#X connect 16 0 19 4;
#X connect 18 0 12 0;
#X connect 18 2 21 0;
#X connect 18 3 20 0;
#X connect 18 4 16 0;
#X connect 19 0 15 0;
#X connect 20 0 19 1;
#X connect 21 0 14 0;
#X connect 22 0 17 0;
#X connect 23 0 25 0;
#X connect 24 0 23 0;
#X connect 25 0 18 0;
#X restore 77 41 pd control;
#X text 38 1 Rakennus-Instrumentti;
#N canvas 429 219 806 596 mapping 0;
#X obj -81 -341 cnv 15 69 28 empty empty empty 20 12 0 14 -99865 -66577
0;
#X obj -79 -339 cnv 15 65 24 empty empty empty 20 12 0 14 -4160 -66577
0;
#X obj -66 -195 vsl 30 128 0.01 1 0 0 empty empty empty 0 -9 0 10 -1
-262144 -1 0 1;
#X obj -100 -48 cnv 15 115 26 empty empty empty 20 12 0 14 -162280
-66577 0;
#X obj -100 -48 cnv 15 113 24 empty empty empty 20 12 0 14 -1 -66577
0;
#X obj -76 -337 r \$0-c_s;
#X obj -76 -267 * 10;
#X obj -76 -46 s \$0-size;
#X obj -345 72 cnv 15 157 28 empty empty empty 20 12 0 14 -1 -66577
0;
#X obj -343 74 cnv 15 153 24 empty empty empty 20 12 0 14 -204800 -66577
0;
#N canvas 0 23 343 391 balance_control_1 0;
#X obj 63 14 inlet;
#X obj 86 344 s \$0-SB_1_bal;
#X obj 63 254 moses 0;
#X obj 63 224 expr (-$f1 * 2) + 1;
#X obj 23 294 expr -sqrt(-$f1);
#X obj 149 294 expr sqrt($f1);
#X obj 63 194 line;
#X msg 63 164 \$1 400;
#X obj 138 14 r \$0-instrument_select;
#X obj 63 114 spigot;
#X msg 138 74 1;
#X msg 191 74 0;
#X obj 138 44 select 4;
#X connect 0 0 9 0;
#X connect 2 0 4 0;
#X connect 2 1 5 0;
#X connect 3 0 2 0;
#X connect 4 0 1 0;
#X connect 5 0 1 0;
#X connect 6 0 3 0;
#X connect 7 0 6 0;
#X connect 8 0 12 0;
#X connect 9 0 7 0;
#X connect 10 0 9 1;
#X connect 11 0 9 1;
#X connect 12 0 10 0;
#X connect 12 1 11 0;
#X restore -338 76 pd balance_control_1;
#X obj 152 72 cnv 15 127 28 empty empty empty 20 12 0 14 -162280 -66577
0;
#X obj 154 74 cnv 15 123 24 empty empty empty 20 12 0 14 -86277 -66577
0;
#N canvas 995 22 167 163 PS_control 0;
#X obj 16 91 s \$0-PS_1_shift;
#X obj 16 15 inlet;
#X connect 1 0 0 0;
#X restore 168 76 pd PS_control;
#X obj -23 72 cnv 15 164 28 empty empty empty 20 12 0 14 -4160 -66577
0;
#X obj -21 74 cnv 15 160 24 empty empty empty 20 12 0 14 -228856 -66577
0;
#N canvas 494 250 744 351 playafile_control 0;
#X obj 38 7 inlet;
#X obj 288 77 bng 15 250 50 0 empty empty empty 17 7 0 10 -262144 -1
-1;
#X msg 299 107 0.22 0.6;
#X obj 299 137 s \$0-PAF_1_starttime_duration;
#X obj 288 257 s \$0-PAF_1_filename;
#X obj 228 297 s \$0-PAF_1_loop_tgl;
#X obj 38 297 s \$0-PAF_1_play_tgl;
#X obj 288 7 loadbang;
#X msg 38 237 1;
#X msg 228 257 0;
#X obj 288 47 delay 500;
#X obj 113 7 r \$0-instrument_select;
#X obj 38 107 spigot;
#X msg 113 67 1;
#X msg 166 67 0;
#X obj 113 37 select 4;
#X msg 298 177 /Users/juigmend/Music/Kekkonen_Kekkkonen.wav;
#X msg 288 207 /Users/musica/Documents/Rakennus_Instrumentti/Kekkonen_Kekkkonen.wav
;
#X connect 0 0 12 0;
#X connect 1 0 2 0;
#X connect 1 0 17 0;
#X connect 1 0 9 0;
#X connect 2 0 3 0;
#X connect 7 0 10 0;
#X connect 8 0 6 0;
#X connect 9 0 5 0;
#X connect 10 0 1 0;
#X connect 11 0 15 0;
#X connect 12 0 8 0;
#X connect 13 0 12 1;
#X connect 14 0 12 1;
#X connect 15 0 13 0;
#X connect 15 1 14 0;
#X connect 17 0 4 0;
#X restore -14 76 pd playafile_control;
#X obj -178 72 cnv 15 147 28 empty empty empty 20 12 0 14 -86277 -66577
0;
#X obj -176 74 cnv 15 143 24 empty empty empty 20 12 0 14 -262130 -66577
0;
#X obj -193 -341 cnv 15 69 28 empty empty empty 20 12 0 14 -99865 -66577
0;
#X obj -191 -339 cnv 15 65 24 empty empty empty 20 12 0 14 -261682
-66577 0;
#X obj -330 -341 cnv 15 69 28 empty empty empty 20 12 0 14 -99865 -66577
0;
#X obj -328 -339 cnv 15 65 24 empty empty empty 20 12 0 14 -261234
-66577 0;
#X obj -326 -337 r \$0-c_x;
#X obj -189 -337 r \$0-c_y;
#N canvas 435 459 546 272 euclidean_norm_2D 0;
#X obj -116 26 inlet x;
#X obj 79 26 inlet y;
#X obj -116 75 expr pow($f1 \, 2);
#X obj 79 75 expr pow($f1 \, 2);
#X obj -44 166 outlet;
#X obj -44 125 expr sqrt($f1+$f2);
#X connect 0 0 2 0;
#X connect 1 0 3 0;
#X connect 2 0 5 0;
#X connect 3 0 5 1;
#X connect 5 0 4 0;
#X restore -326 -117 pd euclidean_norm_2D;
#X obj -335 -48 cnv 15 115 26 empty empty empty 20 12 0 14 -162280
-66577 0;
#X obj -335 -48 cnv 15 113 24 empty empty empty 20 12 0 14 -1 -66577
0;
#X obj -326 -46 s \$0-velocity;
#N canvas 758 22 316 341 velocity 0;
#X obj -145 -1 delta;
#X obj 48 27 vsl 17 74 0 1 0 0 empty empty empty 0 -9 0 10 -228856
-258113 -1 0 1;
#X obj -145 29 abs;
#X obj -145 89 average 20;
#N canvas 0 22 245 182 settler 0;
#X obj 1 1 cnv 15 39 37 empty empty empty 20 12 0 14 -191407 -66577
0;
#X floatatom 2 18 5 0 0 0 - - -;
#X msg -138 -23 20;
#X text -138 -53 settler;
#X text -137 87 Juan Ignacio Mendoza - 2017;
#X msg -138 57 set \$1;
#X obj 2 2 bng 15 250 50 0 empty empty empty 17 7 0 10 -262144 -1 -1
;
#X obj 2 57 outlet;
#X obj -12 -53 loadbang;
#X msg -12 -23 20;
#X connect 1 0 5 0;
#X connect 1 0 7 0;
#X connect 2 0 1 0;
#X connect 5 0 2 0;
#X connect 6 0 1 0;
#X connect 8 0 9 0;
#X connect 9 0 1 0;
#X coords 0 -1 1 1 41 39 2 0 0;
#X restore 6 25 pd settler;
#N canvas 0 22 245 182 settler 0;
#X obj 1 1 cnv 15 39 37 empty empty empty 20 12 0 14 -191407 -66577
0;
#X floatatom 2 18 5 0 0 0 - - -;
#X msg -138 -23 2;
#X text -138 -53 settler;
#X text -137 87 Juan Ignacio Mendoza - 2017;
#X msg -138 57 set \$1;
#X obj 2 2 bng 15 250 50 0 empty empty empty 17 7 0 10 -262144 -1 -1
;
#X obj 2 57 outlet;
#X obj -12 -53 loadbang;
#X msg -12 -23 2;
#X connect 1 0 5 0;
#X connect 1 0 7 0;
#X connect 2 0 1 0;
#X connect 5 0 2 0;
#X connect 6 0 1 0;
#X connect 8 0 9 0;
#X connect 9 0 1 0;
#X coords 0 -1 1 1 41 39 2 0 0;
#X restore 6 65 pd settler;
#X obj -145 -31 inlet;
#X obj -145 249 outlet;
#X obj -145 219 rescaler;
#X obj -132 119 loadbang;
#X msg -132 149 0;
#X obj 6 153 / 100;
#X msg -92 152 1;
#X connect 0 0 2 0;
#X connect 2 0 3 0;
#X connect 3 0 8 0;
#X connect 4 0 3 1;
#X connect 5 0 11 0;
#X connect 6 0 0 0;
#X connect 8 0 7 0;
#X connect 8 0 1 0;
#X connect 9 0 10 0;
#X connect 9 0 12 0;
#X connect 10 0 8 1;
#X connect 10 0 8 3;
#X connect 11 0 8 2;
#X connect 12 0 8 4;
#X coords 0 -1 1 1 72 110 1 0 0;
#X restore -326 -237 pd velocity;
#N canvas 758 22 316 341 velocity 0;
#X obj -145 -1 delta;
#X obj 48 27 vsl 17 74 0 1 0 0 empty empty empty 0 -9 0 10 -228856
-258113 -1 0 1;
#X obj -145 29 abs;
#X obj -145 89 average 20;
#N canvas 0 22 245 182 settler 0;
#X obj 1 1 cnv 15 39 37 empty empty empty 20 12 0 14 -191407 -66577
0;
#X floatatom 2 18 5 0 0 0 - - -;
#X msg -138 -23 20;
#X text -138 -53 settler;
#X text -137 87 Juan Ignacio Mendoza - 2017;
#X msg -138 57 set \$1;
#X obj 2 2 bng 15 250 50 0 empty empty empty 17 7 0 10 -262144 -1 -1
;
#X obj 2 57 outlet;
#X obj -12 -53 loadbang;
#X msg -12 -23 20;
#X connect 1 0 5 0;
#X connect 1 0 7 0;
#X connect 2 0 1 0;
#X connect 5 0 2 0;
#X connect 6 0 1 0;
#X connect 8 0 9 0;
#X connect 9 0 1 0;
#X coords 0 -1 1 1 41 39 2 0 0;
#X restore 6 25 pd settler;
#N canvas 0 22 245 182 settler 0;
#X obj 1 1 cnv 15 39 37 empty empty empty 20 12 0 14 -191407 -66577
0;
#X floatatom 2 18 5 0 0 0 - - -;
#X msg -138 -23 2;
#X text -138 -53 settler;
#X text -137 87 Juan Ignacio Mendoza - 2017;
#X msg -138 57 set \$1;
#X obj 2 2 bng 15 250 50 0 empty empty empty 17 7 0 10 -262144 -1 -1
;
#X obj 2 57 outlet;
#X obj -12 -53 loadbang;
#X msg -12 -23 2;
#X connect 1 0 5 0;
#X connect 1 0 7 0;
#X connect 2 0 1 0;
#X connect 5 0 2 0;
#X connect 6 0 1 0;
#X connect 8 0 9 0;
#X connect 9 0 1 0;
#X coords 0 -1 1 1 41 39 2 0 0;
#X restore 6 65 pd settler;
#X obj -145 -31 inlet;
#X obj -145 249 outlet;
#X obj -145 219 rescaler;
#X obj -132 119 loadbang;
#X msg -132 149 0;
#X obj 6 153 / 100;
#X msg -92 152 1;
#X floatatom -25 232 5 0 0 0 - - -;
#X connect 0 0 2 0;
#X connect 2 0 3 0;
#X connect 3 0 8 0;
#X connect 4 0 3 1;
#X connect 5 0 11 0;
#X connect 6 0 0 0;
#X connect 8 0 7 0;
#X connect 8 0 1 0;
#X connect 8 0 13 0;
#X connect 9 0 10 0;
#X connect 9 0 12 0;
#X connect 10 0 8 1;
#X connect 10 0 8 3;
#X connect 11 0 8 2;
#X connect 12 0 8 4;
#X coords 0 -1 1 1 72 110 1 0 0;
#X restore -189 -237 pd velocity;
#X floatatom -316 -86 5 0 0 0 - - -;
#N canvas 672 207 870 697 Granny_control 0;
#X obj 297 621 s \$0-GS_1_randomness;
#X obj 297 381 t b b b b;
#X msg 317 421 0.9;
#X msg 353 421 0.8;
#X msg 403 421 0.6;
#X obj 297 311 bng 15 250 50 0 empty empty empty 17 7 0 10 -262144
-1 -1;
#X obj 297 251 loadbang;
#X obj 297 281 delay 500;
#X obj 467 1 inlet velocity;
#N canvas 1270 430 326 499 smooth_n_tail 0;
#X obj 142 36 inlet;
#X obj 103 456 outlet;
#X obj 3 126 < 0;
#X obj 73 126 > 0;
#X obj 103 266 gate 2;
#X obj 142 376 line;
#X msg 3 216 2;
#X msg 73 216 1;
#X obj 3 156 select 1;
#X obj 73 156 select 1;
#X obj 3 86 delta;
#X obj 103 426 average 20;
#X msg 142 346 \$1 \$2;
#X obj 195 36 inlet tail time;
#X obj 142 306 pack f f;
#X connect 0 0 10 0;
#X connect 0 0 4 1;
#X connect 2 0 8 0;
#X connect 3 0 9 0;
#X connect 4 0 11 0;
#X connect 4 1 14 0;
#X connect 5 0 11 0;
#X connect 6 0 4 0;
#X connect 7 0 4 0;
#X connect 8 0 6 0;
#X connect 9 0 7 0;
#X connect 10 0 2 0;
#X connect 10 0 3 0;
#X connect 11 0 1 0;
#X connect 12 0 5 0;
#X connect 13 0 14 1;
#X connect 14 0 12 0;
#X restore 467 201 pd smooth_n_tail;
#X obj 467 621 s \$0-GS_1_mix;
#X obj 17 621 s \$0-GS_1_levels;
#X floatatom 596 173 5 0 0 0 - - -;
#X msg 596 142 3000;
#X obj 17 591 pack f f f f f f f f f f f f f f;
#X obj 104 251 t b a;
#X obj 297 591 pack f f f f f f f f f;
#X msg 34 343 0.5;
#X obj 17 303 bang;
#X msg 51 373 0.3;
#X msg 68 403 0.2;
#X msg 102 463 0.7;
#X msg 85 433 0;
#X msg 118 494 0;
#X msg 187 494 0.8;
#X msg 153 434 0;
#X msg 204 524 0;
#X msg 170 464 0.7;
#X obj 244 524 * 0.02;
#X obj 467 421 expr ($f1 / 10);
#X obj 596 109 loadbang;
#X obj 592 1 r \$0-instrument_select;
#X obj 467 101 spigot;
#X msg 592 61 1;
#X msg 645 61 0;
#X obj 592 31 select 4;
#X connect 1 0 16 0;
#X connect 1 1 2 0;
#X connect 1 2 3 0;
#X connect 1 3 4 0;
#X connect 2 0 16 2;
#X connect 3 0 16 3;
#X connect 4 0 16 7;
#X connect 5 0 1 0;
#X connect 5 0 17 0;
#X connect 5 0 25 0;
#X connect 6 0 7 0;
#X connect 7 0 5 0;
#X connect 8 0 32 0;
#X connect 9 0 15 0;
#X connect 9 0 29 0;
#X connect 12 0 9 1;
#X connect 13 0 12 0;
#X connect 14 0 11 0;
#X connect 15 0 18 0;
#X connect 15 1 14 7;
#X connect 15 1 28 0;
#X connect 16 0 0 0;
#X connect 17 0 14 1;
#X connect 17 0 19 0;
#X connect 18 0 14 0;
#X connect 19 0 14 2;
#X connect 19 0 20 0;
#X connect 20 0 14 3;
#X connect 20 0 22 0;
#X connect 21 0 14 5;
#X connect 21 0 23 0;
#X connect 22 0 14 4;
#X connect 22 0 21 0;
#X connect 23 0 14 6;
#X connect 24 0 14 10;
#X connect 24 0 26 0;
#X connect 25 0 14 8;
#X connect 25 0 27 0;
#X connect 26 0 14 12;
#X connect 26 0 14 13;
#X connect 27 0 14 9;
#X connect 27 0 24 0;
#X connect 28 0 14 11;
#X connect 29 0 10 0;
#X connect 30 0 13 0;
#X connect 31 0 35 0;
#X connect 32 0 9 0;
#X connect 33 0 32 1;
#X connect 34 0 32 1;
#X connect 35 0 33 0;
#X connect 35 1 34 0;
#X restore -166 76 pd Granny_control;
#X floatatom -179 -296 5 0 0 0 - - -;
#X floatatom -316 -296 5 0 0 0 - - -;
#X obj 168 26 r \$0-note_shift;
#X obj -14 26 r \$0-note_shift;
#X obj -166 26 r \$0-velocity;
#X obj -338 26 r \$0-c_x;
#X obj 204 -341 cnv 15 74 28 empty empty empty 20 12 0 14 -162280 -66577
0;
#X obj 206 -339 cnv 15 70 24 empty empty empty 20 12 0 14 -4034 -66577
0;
#X obj 205 -291 cnv 15 120 28 empty empty empty 20 12 0 14 -4160 -66577
0;
#N canvas 335 351 549 314 MIDI_control 0;
#X obj -3 -110 change;
#X obj -3 -140 inlet;
#X obj -192 -140 r \$0-instrument_select;
#N canvas 636 208 368 492 U_pentaminor 0;
#X msg -112 -128 48;
#X obj -112 -168 select 1 4 7 10 13;
#X obj -112 -58 select 2 5 8 11 14;
#X obj -112 62 select 3 6 9 12 15;
#X msg -32 -18 53;
#X msg -32 -128 55;
#X msg -72 -128 0;
#X msg 48 -128 0;
#X msg 49 -18 0;
#X msg -112 102 0;
#X msg 8 103 0;
#X msg 49 103 0;
#X obj -202 -198 inlet;
#X msg -70 103 51;
#X msg -112 -18 50;
#X msg -72 -18 0;
#X msg -32 102 0;
#X msg 8 -18 0;
#X msg 8 -128 0;
#X obj -52 -89 s \$0-MIDI_notes_2;
#X obj -52 22 s \$0-MIDI_notes_2;
#X obj -52 142 s \$0-MIDI_notes_2;
#X obj -52 242 s \$0-MIDI_notes_global;
#X obj -52 182 r \$0-MIDI_notes_2;
#X msg -52 212 \$1 2;
#X connect 0 0 19 0;
#X connect 1 0 0 0;
#X connect 1 1 6 0;
#X connect 1 2 5 0;
#X connect 1 3 18 0;
#X connect 1 4 7 0;
#X connect 2 0 14 0;
#X connect 2 1 15 0;
#X connect 2 2 4 0;
#X connect 2 3 17 0;
#X connect 2 4 8 0;
#X connect 3 0 9 0;
#X connect 3 1 13 0;
#X connect 3 2 16 0;
#X connect 3 3 10 0;
#X connect 3 4 11 0;
#X connect 4 0 20 0;
#X connect 5 0 19 0;
#X connect 6 0 19 0;
#X connect 7 0 19 0;
#X connect 8 0 20 0;
#X connect 9 0 21 0;
#X connect 10 0 21 0;
#X connect 11 0 21 0;
#X connect 12 0 3 0;
#X connect 12 0 2 0;
#X connect 12 0 1 0;
#X connect 13 0 21 0;
#X connect 14 0 20 0;
#X connect 15 0 20 0;
#X connect 16 0 21 0;
#X connect 17 0 20 0;
#X connect 18 0 19 0;
#X connect 23 0 24 0;
#X connect 24 0 22 0;
#X restore 108 22 pd U_pentaminor;
#N canvas 578 268 555 508 cols_pentamajor 0;
#X msg -112 -138 48;
#X obj -202 -208 inlet;
#X msg -72 -138 55;
#X msg -32 -138 62;
#X msg 8 -138 69;
#X msg -112 -28 50;
#X msg -72 -28 57;
#X msg -32 -28 64;
#X msg 8 -28 74;
#X msg -112 92 52;
#X msg -70 93 60;
#X msg -32 92 67;
#X obj -112 -178 select 1 4 7 10;
#X obj -112 -68 select 2 5 8 11;
#X obj -112 52 select 3 6 9 12;
#X msg 8 93 76;
#X obj -52 -98 s \$0-MIDI_notes_1;
#X obj -52 12 s \$0-MIDI_notes_1;
#X obj -52 132 s \$0-MIDI_notes_1;
#X obj -52 172 r \$0-MIDI_notes_1;
#X obj -52 232 s \$0-MIDI_notes_global;
#X msg -52 202 \$1 1;
#X connect 0 0 16 0;
#X connect 1 0 12 0;
#X connect 1 0 13 0;
#X connect 1 0 14 0;
#X connect 2 0 16 0;
#X connect 3 0 16 0;
#X connect 4 0 16 0;
#X connect 5 0 17 0;
#X connect 6 0 17 0;
#X connect 7 0 17 0;
#X connect 8 0 17 0;
#X connect 9 0 18 0;
#X connect 10 0 18 0;
#X connect 11 0 18 0;
#X connect 12 0 0 0;
#X connect 12 1 2 0;
#X connect 12 2 3 0;
#X connect 12 3 4 0;
#X connect 13 0 5 0;
#X connect 13 1 6 0;
#X connect 13 2 7 0;
#X connect 13 3 8 0;
#X connect 14 0 9 0;
#X connect 14 1 10 0;
#X connect 14 2 11 0;
#X connect 14 3 15 0;
#X connect 15 0 18 0;
#X connect 19 0 21 0;
#X connect 21 0 20 0;
#X restore -42 22 pd cols_pentamajor;
#N canvas 913 340 463 433 rows_dim 0;
#X msg -112 -138 48;
#X obj -202 -208 inlet;
#X obj -112 -178 select 1 4 7 10;
#X obj -112 -68 select 2 5 8 11;
#X obj -112 52 select 3 6 9 12;
#X msg -72 -138 51;
#X msg -32 -138 54;
#X msg 8 -138 57;
#X obj -52 -98 s \$0-MIDI_notes_3;
#X obj -52 12 s \$0-MIDI_notes_3;
#X obj -52 132 s \$0-MIDI_notes_3;
#X msg -112 -28 60;
#X msg -72 -28 63;
#X msg -32 -28 66;
#X msg 8 -28 69;
#X msg -112 92 72;
#X msg -70 93 75;
#X msg -32 92 78;
#X msg 8 93 81;
#X connect 0 0 8 0;
#X connect 1 0 2 0;
#X connect 1 0 3 0;
#X connect 1 0 4 0;
#X connect 2 0 0 0;
#X connect 2 1 5 0;
#X connect 2 2 6 0;
#X connect 2 3 7 0;
#X connect 3 0 11 0;
#X connect 3 1 12 0;
#X connect 3 2 13 0;
#X connect 3 3 14 0;
#X connect 4 0 15 0;
#X connect 4 1 16 0;
#X connect 4 2 17 0;
#X connect 4 3 18 0;
#X connect 5 0 8 0;
#X connect 6 0 8 0;
#X connect 7 0 8 0;
#X connect 11 0 9 0;
#X connect 12 0 9 0;
#X connect 13 0 9 0;
#X connect 14 0 9 0;
#X connect 15 0 10 0;
#X connect 16 0 10 0;
#X connect 17 0 10 0;
#X connect 18 0 10 0;
#X restore 248 22 pd rows_dim;
#N canvas 334 298 324 372 send_MIDI_notes 0;
#X obj 39 94 noteout;
#X obj 29 -38 r \$0-MIDI_notes_global;
#X obj 29 134 unpack f f f;
#X obj 110 172 outlet channel;
#X obj 29 232 outlet note;
#X obj 69 202 outlet velocity;
#X obj 73 3 r \$0-c_s;
#X obj 29 62 build_MIDI_IO;
#X text 192 -38 note channel;
#X connect 1 0 7 0;
#X connect 2 0 4 0;
#X connect 2 1 5 0;
#X connect 2 2 3 0;
#X connect 6 0 7 1;
#X connect 7 0 0 0;
#X connect 7 0 2 0;
#X restore -55 62 pd send_MIDI_notes;
#N canvas 920 77 367 345 send_MIDI_CC 0;
#X obj -41 -48 select 2;
#X text -36 -1 start;
#X text 16 -1 stop;
#X obj 29 -88 inlet;
#X obj -34 212 ctlout;
#X text 94 -1 on;
#X text 146 -2 off;
#X obj 89 -48 select 3;
#X msg -41 23 1 1 11;
#X text -36 -21 BG playback;
#X text 94 -21 EQ;
#X msg 89 22 1 3 11;
#X msg 142 22 127 3 11;
#X msg 12 23 1 2 11;
#X obj 49 92 unpack f f f;
#X obj 95 212 outlet value;
#X obj 195 212 outlet channel;
#X obj 22 212 outlet cc;
#X connect 0 0 8 0;
#X connect 0 1 13 0;
#X connect 3 0 0 0;
#X connect 3 0 7 0;
#X connect 7 0 11 0;
#X connect 7 1 12 0;
#X connect 8 0 14 0;
#X connect 11 0 14 0;
#X connect 12 0 14 0;
#X connect 13 0 14 0;
#X connect 14 0 4 0;
#X connect 14 0 15 0;
#X connect 14 1 4 1;
#X connect 14 1 17 0;
#X connect 14 2 4 2;
#X connect 14 2 16 0;
#X restore -192 62 pd send_MIDI_CC;
#X obj -192 142 outlet cc/note;
#X obj 68 142 outlet channel;
#X obj -69 142 outlet value/vel;
#X obj -42 -28 gate 5;
#X connect 0 0 11 1;
#X connect 1 0 0 0;
#X connect 2 0 7 0;
#X connect 2 0 11 0;
#X connect 6 0 8 0;
#X connect 6 1 10 0;
#X connect 6 2 9 0;
#X connect 7 0 8 0;
#X connect 7 1 10 0;
#X connect 7 2 9 0;
#X connect 11 0 4 0;
#X connect 11 1 4 0;
#X connect 11 2 3 0;
#X connect 11 3 5 0;
#X connect 11 4 4 0;
#X restore 211 -287 pd MIDI_control;
#X obj 211 -337 r \$0-ROI;
#X floatatom 211 -247 5 0 0 0 - - -;
#X floatatom 371 -247 5 0 0 0 - - -;
#X floatatom -66 -236 5 0 0 0 - - -;
#X obj 43 -341 cnv 15 132 28 empty empty empty 20 12 0 14 -162280 -66577
0;
#X obj 45 -339 cnv 15 128 24 empty empty empty 20 12 0 14 -143751 -66577
0;
#X text -353 -17 ------------------------------------------------------------
;
#X obj 43 -48 cnv 15 115 26 empty empty empty 20 12 0 14 -162280 -66577
0;
#X obj 43 -48 cnv 15 113 24 empty empty empty 20 12 0 14 -1 -66577
0;
#X floatatom 69 -296 5 0 0 0 - - -;
#X obj 46 -46 s \$0-note_shift;
#N canvas 260 22 435 249 note_shifter 0;
#X obj 38 214 outlet;
#X obj 38 14 inlet dynamic note;
#X obj 38 184 -;
#X obj 198 14 inlet tgl set center note;
#X obj 56 154 spigot;
#X obj 198 214 outlet;
#X msg 198 154 68;
#X obj 198 120 loadbang;
#X text 235 152 default;
#X connect 1 0 2 0;
#X connect 1 0 4 0;
#X connect 2 0 0 0;
#X connect 3 0 4 1;
#X connect 4 0 2 1;
#X connect 4 0 5 0;
#X connect 6 0 2 1;
#X connect 7 0 6 0;
#X restore 46 -127 pd note_shifter;
#X floatatom 66 -96 5 0 0 0 - - -;
#X obj 148 -157 tgl 15 0 empty empty set_center -63 8 0 10 -258113
-262144 -1 0 1;
#X floatatom 128 -96 5 0 0 0 - - -;
#X obj 47 -337 r \$0-MIDI_notes_3;
#X floatatom 320 -247 5 0 0 0 - - -;
#X obj -67 192 cnv 15 147 28 empty empty empty 20 12 0 14 -1 -66577
0;
#X obj -65 194 cnv 15 143 24 empty empty empty 20 12 0 14 -240960 -66577
0;
#X obj 253 192 cnv 15 127 28 empty empty empty 20 12 0 14 -4160 -66577
0;
#X obj 255 194 cnv 15 123 24 empty empty empty 20 12 0 14 -13330 -66577
0;
#N canvas 316 150 378 414 wave_control 0;
#X obj 2 353 s \$0-wave_energy;
#X obj 2 13 inlet;
#X obj 2 323 line;
#X obj 238 13 inlet;
#X obj 238 313 line;
#X obj 238 353 s \$0-wave_level;
#X msg 2 273 \$1 1000;
#X obj 67 14 r \$0-instrument_select;
#X obj 2 184 spigot;
#X obj 67 44 select 5;
#X msg 67 74 1;
#X msg 120 74 0;
#X obj 238 184 spigot;
#X obj 238 253 loadbang;
#X obj 2 224 *;
#X msg 238 283 0.6 1000;
#X connect 1 0 8 0;
#X connect 2 0 0 0;
#X connect 3 0 12 0;
#X connect 4 0 5 0;
#X connect 6 0 2 0;
#X connect 7 0 9 0;
#X connect 8 0 14 0;
#X connect 9 0 10 0;
#X connect 9 1 11 0;
#X connect 10 0 8 1;
#X connect 10 0 12 1;
#X connect 11 0 8 1;
#X connect 11 0 12 1;
#X connect 12 0 14 1;
#X connect 13 0 15 0;
#X connect 14 0 6 0;
#X connect 15 0 4 0;
#X restore 262 196 pd wave_control;
#X obj -345 192 cnv 15 127 28 empty empty empty 20 12 0 14 -179017
-66577 0;
#X obj -343 194 cnv 15 123 24 empty empty empty 20 12 0 14 -1 -66577
0;
#N canvas 493 447 299 230 AB_control 0;
#X obj 16 191 s \$0-AB_1;
#X obj 16 15 inlet;
#X obj 91 16 r \$0-instrument_select;
#X obj 16 116 spigot;
#X obj 91 46 select 5;
#X msg 91 76 1;
#X msg 144 76 0;
#X obj 16 146 expr $f1*40;
#X connect 1 0 3 0;
#X connect 2 0 4 0;
#X connect 3 0 7 0;
#X connect 4 0 5 0;
#X connect 4 1 6 0;
#X connect 5 0 3 1;
#X connect 6 0 3 1;
#X connect 7 0 0 0;
#X restore -329 196 pd AB_control;
#N canvas 760 111 255 416 panner_control_1 0;
#X obj 12 21 inlet;
#X obj 12 361 s \$0-st_panner_1;
#X obj 12 331 line;
#X msg 12 301 \$1 500;
#X obj 87 21 r \$0-instrument_select;
#X obj 12 121 spigot;
#X obj 87 51 select 5;
#X msg 87 81 1;
#X msg 140 81 0;
#X msg 12 192 0;
#X obj 12 162 moses 0.1;
#X obj 12 261 expr ($f1/2)-0.1;
#X connect 0 0 5 0;
#X connect 2 0 1 0;
#X connect 3 0 2 0;
#X connect 4 0 6 0;
#X connect 5 0 10 0;
#X connect 6 0 7 0;
#X connect 6 1 8 0;
#X connect 7 0 5 1;
#X connect 8 0 5 1;
#X connect 9 0 11 0;
#X connect 10 0 9 0;
#X connect 10 1 11 0;
#X connect 11 0 3 0;
#X restore -62 196 pd panner_control_1;
#X obj -62 156 r \$0-size;
#X obj -329 156 r \$0-size;
#X obj 262 156 r \$0-velocity;
#X obj 364 156 r \$0-size;
#X text 67 -17 -----------------------------------------------------
;
#X text -353 113 ------------------------------------------------------------
;
#X text 67 113 -----------------------------------------------------
;
#N canvas 0 22 254 185 Instrument_gate 0;
#X obj 18 17 inlet;
#X obj 73 17 r \$0-instrument_select;
#X obj 18 117 spigot;
#X msg 73 77 1;
#X msg 126 77 0;
#X obj 73 47 select 4;
#X obj 18 150 outlet;
#X connect 0 0 2 0;
#X connect 1 0 5 0;
#X connect 2 0 6 0;
#X connect 3 0 2 1;
#X connect 4 0 2 1;
#X connect 5 0 3 0;
#X connect 5 1 4 0;
#X restore 46 -189 pd Instrument_gate;
#X text -340 -5 Kekkonen:;
#X text -340 125 Aaltoja:;
#X obj -76 -304 average 10;
#X obj -205 192 cnv 15 127 28 empty empty empty 20 12 0 14 -232576
-66577 0;
#X obj -203 194 cnv 15 123 24 empty empty empty 20 12 0 14 -261682
-66577 0;
#N canvas 332 270 337 207 RF_control 0;
#X obj 60 -7 r \$0-instrument_select;
#X obj -32 93 spigot;
#X obj 60 23 select 5;
#X msg 60 53 1;
#X msg 113 53 0;
#X obj -32 -7 inlet note;
#X obj -32 141 s \$0-RF_note_v_1;
#X connect 0 0 2 0;
#X connect 1 0 6 0;
#X connect 2 0 3 0;
#X connect 2 1 4 0;
#X connect 3 0 1 1;
#X connect 4 0 1 1;
#X connect 5 0 1 0;
#X restore -189 196 pd RF_control;
#X obj 211 -99 s \$0-MIDI_n_v;
#X obj -189 156 r \$0-MIDI_n_v;
#X obj 93 192 cnv 15 147 28 empty empty empty 20 12 0 14 -1 -66577
0;
#X obj 95 194 cnv 15 143 24 empty empty empty 20 12 0 14 -240960 -66577
0;
#N canvas 649 22 265 324 panner_control_2 0;
#X obj 12 21 inlet;
#X obj 12 181 expr ($f1*2)-1;
#X obj 12 271 s \$0-st_panner_2;
#X obj 12 241 line;
#X msg 12 211 \$1 500;
#X obj 87 21 r \$0-instrument_select;
#X obj 12 121 spigot;
#X obj 87 51 select 5;
#X msg 87 81 1;
#X msg 140 81 0;
#X connect 0 0 6 0;
#X connect 1 0 4 0;
#X connect 3 0 2 0;
#X connect 4 0 3 0;
#X connect 5 0 7 0;
#X connect 6 0 1 0;
#X connect 7 0 8 0;
#X connect 7 1 9 0;
#X connect 8 0 6 1;
#X connect 9 0 6 1;
#X restore 98 196 pd panner_control_2;
#X obj 98 156 r \$0-c_x;
#X obj 40 40;
#X obj 211 -129 pack float float;
#X obj 264 -168 - 12;
#X obj 211 -208 moses 74;
#X connect 5 0 79 0;
#X connect 6 0 2 0;
#X connect 6 0 7 0;
#X connect 23 0 29 0;
#X connect 23 0 34 0;
#X connect 24 0 30 0;
#X connect 24 0 33 0;
#X connect 25 0 28 0;
#X connect 25 0 31 0;
#X connect 29 0 25 0;
#X connect 30 0 25 1;
#X connect 35 0 13 0;
#X connect 36 0 16 0;
#X connect 37 0 32 0;
#X connect 38 0 10 0;
#X connect 42 0 44 0;
#X connect 42 1 59 0;
#X connect 42 2 45 0;
#X connect 43 0 42 0;
#X connect 44 0 92 0;
#X connect 54 0 55 0;
#X connect 54 0 53 0;
#X connect 54 1 57 0;
#X connect 56 0 54 1;
#X connect 58 0 52 0;
#X connect 58 0 76 0;
#X connect 59 0 90 1;
#X connect 69 0 68 0;
#X connect 70 0 67 0;
#X connect 71 0 64 0;
#X connect 72 0 64 1;
#X connect 76 0 54 0;
#X connect 79 0 6 0;
#X connect 84 0 82 0;
#X connect 88 0 87 0;
#X connect 90 0 83 0;
#X connect 91 0 90 0;
#X connect 92 0 90 0;
#X connect 92 1 91 0;
#X restore 77 71 pd mapping;
#N canvas 110 565 323 328 synthesis 0;
#N canvas 777 152 412 293 init_audio_devices 0;
#X obj 117 247 s \$0-PS_1_bypass/on;
#X obj 170 217 s \$0-GS_1_bypass/on;
#X msg 17 167 \; pd dsp \$1;
#X obj 117 17 r \$0-instrument_select;
#X obj 227 177 s \$0-seawave_onoff;
#X msg 63 107 1;
#X msg 17 107 0;
#X obj 17 67 moses 4;
#X obj 117 67 select 4;
#X obj 227 67 select 5;
#X msg 227 107 1;
#X msg 280 107 0;
#X msg 117 107 1;
#X msg 170 107 0;
#X connect 3 0 7 0;
#X connect 3 0 8 0;
#X connect 3 0 9 0;
#X connect 5 0 2 0;
#X connect 6 0 2 0;
#X connect 7 0 6 0;
#X connect 7 1 5 0;
#X connect 8 0 12 0;
#X connect 8 1 13 0;
#X connect 9 0 10 0;
#X connect 9 1 11 0;
#X connect 10 0 4 0;
#X connect 11 0 4 0;
#X connect 12 0 0 0;
#X connect 12 0 1 0;
#X connect 13 0 0 0;
#X connect 13 0 1 0;
#X restore -207 7 pd init_audio_devices;
#N canvas 289 163 318 688 Kekkonen 0;
#X obj -207 90 playafile;
#X obj -207 540 stereo_balance;
#X obj -207 238 pitch_shift;
#N canvas 0 22 255 142 PS_rcv 0;
#X obj 17 85 outlet;
#X obj 87 85 outlet;
#X obj 17 13 r \$0-PS_1_shift;
#X obj 87 53 r \$0-PS_1_bypass/on;
#X connect 2 0 0 0;
#X connect 3 0 1 0;
#X restore -170 207 pd PS_rcv;
#N canvas 0 23 420 188 PAF_rcv 0;
#X obj 0 140 outlet;
#X obj 70 140 outlet;
#X obj 140 140 outlet;
#X obj 210 140 outlet;
#X obj 0 20 r \$0-PAF_1_play_tgl;
#X obj 70 50 r \$0-PAF_1_starttime_duration;
#X obj 140 80 r \$0-PAF_1_loop_tgl;
#X obj 210 110 r \$0-PAF_1_filename;
#X connect 4 0 0 0;
#X connect 5 0 1 0;
#X connect 6 0 2 0;
#X connect 7 0 3 0;
#X restore -143 50 pd PAF_rcv;
#X obj -26 510 r \$0-SB_1_bal;
#N canvas 289 354 365 201 GS_rcv 0;
#X obj 17 148 outlet;
#X obj 197 148 outlet;
#X obj 17 18 r \$0-GS_1_levels;
#X obj 77 148 outlet;
#X obj 77 48 r \$0-GS_1_randomness;
#X obj 137 148 outlet;
#X obj 137 78 r \$0-GS_1_mix;
#X obj 197 118 r \$0-GS_1_bypass/on;
#X connect 2 0 0 0;
#X connect 4 0 3 0;
#X connect 6 0 5 0;
#X connect 7 0 1 0;
#X restore -136 391 pd GS_rcv;
#X obj -207 617 throw~ \$0-out_1;
#X obj -26 617 throw~ \$0-out_2;
#X obj -207 422 granny-smasher;
#X connect 0 0 2 0;
#X connect 1 0 7 0;
#X connect 1 1 8 0;
#X connect 2 0 9 0;
#X connect 2 0 9 1;
#X connect 3 0 2 1;
#X connect 3 1 2 2;
#X connect 4 0 0 0;
#X connect 4 1 0 1;
#X connect 4 2 0 2;
#X connect 4 3 0 3;
#X connect 5 0 1 2;
#X connect 6 0 9 2;
#X connect 6 1 9 3;
#X connect 6 2 9 4;
#X connect 6 3 9 5;
#X connect 9 0 1 0;
#X connect 9 1 1 1;
#X restore -207 57 pd Kekkonen;
#X obj -26 178 audio_limiter;
#X obj -207 180 audio_limiter;
#X obj -207 147 catch~ \$0-out_1;
#X obj -26 145 catch~ \$0-out_2;
#N canvas 376 285 776 615 Aaltoja 0;
#X obj -279 -39 sea_wave;
#X obj -279 -109 r \$0-wave_energy;
#X obj -147 -109 r \$0-wave_level;
#N canvas 532 22 194 215 delay_at_1 0;
#X obj -11 13 inlet;
#X obj -11 43 select 1;
#X msg -81 131 1;
#X obj 42 163 outlet;
#X obj -81 73 delay 100;
#X connect 0 0 1 0;
#X connect 1 0 4 0;
#X connect 1 1 3 0;
#X connect 2 0 3 0;
#X connect 4 0 2 0;
#X restore 180 162 pd delay_at_1;
#X obj 180 132 r \$0-seawave_onoff;
#X obj -112 202 MIDI_resonant_filter;
#X floatatom 20 333 5 0 0 0 - - -;
#X floatatom 153 333 5 0 0 0 - - -;
#X obj 1 62 expr pow(2 \, $f1);
#X obj 60 -6 hradio 15 1 0 25 empty empty empty 0 -8 0 10 -262144 -1
-1 12;
#X obj 1 32 expr ($f1-12)/12;
#X obj -279 40 stereo_panner;
#X obj -112 -39 r \$0-st_panner_1;
#N canvas 532 22 194 215 delay_at_1 0;
#X obj -11 13 inlet;
#X obj -11 43 select 1;
#X msg -81 131 1;
#X obj 42 163 outlet;
#X obj -81 73 delay 100;
#X connect 0 0 1 0;
#X connect 1 0 4 0;
#X connect 1 1 3 0;
#X connect 2 0 3 0;
#X connect 4 0 2 0;
#X restore -25 -79 pd delay_at_1;
#X obj -25 -109 r \$0-seawave_onoff;
#X msg 125 -78 12;
#X obj 125 -109 loadbang;
#X obj -75 -8 r \$0-RF_note_v_1;
#X obj -279 364 stereo_panner;
#X obj -112 334 r \$0-st_panner_2;
#X obj -279 406 throw~ \$0-out_1;
#X obj -112 406 throw~ \$0-out_2;
#X msg -37 131 12;
#X obj 39 91 loadbang;
#X msg 39 133 0.1 0.2 5000;
#X msg 142 134 0.1;
#X connect 0 0 11 0;
#X connect 1 0 0 0;
#X connect 2 0 0 1;
#X connect 3 0 5 7;
#X connect 3 0 5 6;
#X connect 4 0 3 0;
#X connect 5 0 18 0;
#X connect 5 1 6 0;
#X connect 5 2 7 0;
#X connect 8 0 5 3;
#X connect 9 0 10 0;
#X connect 10 0 8 0;
#X connect 11 0 18 0;
#X connect 11 1 5 0;
#X connect 12 0 11 1;
#X connect 13 0 0 2;
#X connect 14 0 13 0;
#X connect 15 0 9 0;
#X connect 16 0 15 0;
#X connect 17 0 5 1;
#X connect 18 0 20 0;
#X connect 18 1 21 0;
#X connect 19 0 18 1;
#X connect 22 0 5 2;
#X connect 23 0 24 0;
#X connect 23 0 22 0;
#X connect 23 0 25 0;
#X connect 24 0 5 4;
#X connect 25 0 5 5;
#X restore -207 97 pd Aaltoja;
#X obj -216 263 cnv 15 243 40 empty empty empty 20 12 0 14 -191407
-66577 0;
#X obj -214 265 cnv 15 239 36 empty empty empty 20 12 0 14 -262130
-66577 0;
#X obj -212 267 cnv 15 235 32 empty empty empty 20 12 0 14 -128992
-66577 0;
#X obj -207 273 dac~ 1;
#X obj -26 273 dac~ 2;
#X obj -131 267 cnv 15 44 32 empty empty AUDIO 2 16 0 14 -128992 -262130
0;
#X obj -81 267 cnv 15 28 32 empty empty OUT 2 16 0 14 -128992 -262130
0;
#X text -210 24 ------------------------------------------;
#X connect 2 0 11 0;
#X connect 3 0 10 0;
#X connect 4 0 3 0;
#X connect 5 0 2 0;
#X restore 70 101 pd synthesis;
#X obj 306 2 vradio 30 1 0 6 \$0-instrument_select \$0-instrument_select_rcv
empty 0 -8 0 10 -261682 -1 -1 5;
#X text 272 6 none;
#X text 216 67 Marimba with;
#X text 216 36 Marimba solo;
#X text 242 128 Kekkonen;
#X text 249 96 Kantele;
#X text 8 202 Juan Ignacio Mendoza & Anastasios Mavrolampados - 2017
;
#X text 248 158 Aaltoja;
