#N canvas 444 278 736 468 12;
#X obj 16 80 gemhead;
#X obj 16 200 translateXYZ 0 0 2;
#X obj 16 430 rectangle 0.03;
#X obj 16 300 colorRGB 0.6 1 0.4 1;
#X msg 26 360 draw line;
#X obj 16 10 inlet offset_x;
#X obj 246 10 inlet offset_y;
#X obj 136 10 inlet size_x;
#X obj 376 10 inlet size_y;
#X obj 486 10 inlet colour_RGB;
#X obj 486 40 s \$0-colour;
#X obj 50 240 r \$0-colour;
#X obj 16 40 s \$0-o_x;
#X obj 246 40 s \$0-o_y;
#X obj 136 40 s \$0-s_x;
#X obj 376 40 s \$0-s_y;
#X obj 57 160 r \$0-o_x;
#X obj 127 160 r \$0-o_y;
#X obj 63 390 r \$0-s_x;
#X obj 133 390 r \$0-s_y;
#X obj 26 330 loadbang;
#X obj 50 270 unpack f f f;
#X obj 16 120 spigot;
#X obj 616 10 inlet onoff;
#X obj 616 40 s \$0-onoff;
#X obj 85 80 r \$0-onoff;
#X connect 0 0 22 0;
#X connect 1 0 3 0;
#X connect 3 0 2 0;
#X connect 4 0 2 0;
#X connect 5 0 12 0;
#X connect 6 0 13 0;
#X connect 7 0 14 0;
#X connect 8 0 15 0;
#X connect 9 0 10 0;
#X connect 11 0 21 0;
#X connect 16 0 1 1;
#X connect 17 0 1 2;
#X connect 18 0 2 1;
#X connect 19 0 2 2;
#X connect 20 0 4 0;
#X connect 21 0 3 1;
#X connect 21 1 3 2;
#X connect 21 2 3 3;
#X connect 22 0 1 0;
#X connect 23 0 24 0;
#X connect 25 0 22 1;
