#N canvas 415 22 1070 430 12;
#X obj 660 4 inlet colour_RGB;
#X obj -59 4 inlet x;
#X obj 21 4 inlet y;
#X obj -88 162 expr $f1-$f2/2;
#X obj 21 212 +;
#X obj 91 162 expr $f1-$f2/2;
#X obj 200 212 +;
#X obj 440 162 expr ($f1*3.84)-1.92;
#X obj 600 162 * 1.95;
#X obj 230 162 expr ($f1-1)*5.14;
#X obj 370 162 * 2.58;
#X obj 91 44 unpack f f f f;
#X obj -106 272 >=;
#X obj -66 272 <=;
#X obj -106 303 &&;
#X obj 73 303 &&;
#X obj -106 333 &&;
#X obj -59 34 s \$0-x;
#X obj 21 34 s \$0-y;
#X obj -106 363 outlet;
#X obj -66 232 r \$0-x;
#X obj 113 232 r \$0-y;
#X text 17 234 x_right;
#X text -83 194 x_left;
#X text 97 194 y_bottom;
#X text 197 234 y_up;
#X obj 73 272 >=;
#X obj 113 272 <=;
#X text 92 -19 position_x size_x position_y size_y;
#X obj 91 4 inlet positions_sizes;
#X obj 688 34 r ROI_colour;
#X obj 790 4 inlet onoff;
#X obj 544 234 rectangle_display;
#X connect 0 0 32 4;
#X connect 1 0 17 0;
#X connect 2 0 18 0;
#X connect 3 0 4 0;
#X connect 3 0 12 1;
#X connect 4 0 13 1;
#X connect 5 0 6 0;
#X connect 5 0 26 1;
#X connect 6 0 27 1;
#X connect 7 0 32 2;
#X connect 8 0 32 3;
#X connect 9 0 32 0;
#X connect 10 0 32 1;
#X connect 11 0 3 0;
#X connect 11 0 9 0;
#X connect 11 1 3 1;
#X connect 11 1 4 1;
#X connect 11 1 10 0;
#X connect 11 2 5 0;
#X connect 11 2 7 0;
#X connect 11 3 6 1;
#X connect 11 3 5 1;
#X connect 11 3 8 0;
#X connect 12 0 14 0;
#X connect 13 0 14 1;
#X connect 14 0 16 0;
#X connect 15 0 16 1;
#X connect 16 0 19 0;
#X connect 20 0 12 0;
#X connect 20 0 13 0;
#X connect 21 0 26 0;
#X connect 21 0 27 0;
#X connect 26 0 15 0;
#X connect 27 0 15 1;
#X connect 29 0 11 0;
#X connect 30 0 32 4;
#X connect 31 0 32 5;
