#N canvas 0 22 568 356 10;
#X obj 29 44 inlet original signal;
#X obj 29 284 outlet rescaled signal;
#X obj 88 74 inlet original minimum;
#X obj 147 104 inlet original maximum;
#X obj 366 74 inlet desired minimum;
#X obj 396 104 inlet desired maximum;
#X obj 29 243 expr ($f1-$f2)*($f5-$f4)/($f3-$f2) + $f4;
#X text 160 313 Juan Ignacio Mendoza Garay - 2018;
#X obj 167 174 \$1;
#X obj 396 254 outlet desired maximum;
#X obj 366 284 outlet desired minimum;
#X obj 167 134 loadbang;
#X obj 227 174 \$2;
#X msg 117 173 2;
#X msg 58 173 1;
#X text 33 15 output minimum and maximum can also be object arguments
;
#X connect 0 0 6 0;
#X connect 2 0 6 1;
#X connect 3 0 6 2;
#X connect 4 0 6 3;
#X connect 4 0 10 0;
#X connect 5 0 6 4;
#X connect 5 0 9 0;
#X connect 6 0 1 0;
#X connect 8 0 6 3;
#X connect 11 0 8 0;
#X connect 11 0 12 0;
#X connect 11 0 13 0;
#X connect 11 0 14 0;
#X connect 12 0 6 4;
#X connect 13 0 6 2;
#X connect 14 0 6 1;
