#N canvas 1106 23 165 154 12;
#X declare -lib mrpeach;
#X declare -lib Gem;
#X declare -lib iemmatrix;
#X declare -lib hexloader;
#X declare -lib iemmatrix;
#X declare -lib iemmatrix;
#X declare -lib iemmatrix;
#X declare -lib list-abs;
#X declare -lib hexloader;
#X declare -lib iemmatrix;
#X declare -lib smlib;
#X declare -lib iemmatrix;
#X declare -lib iemmatrix;
#X declare -lib iemmatrix;
#X declare -lib iemmatrix;
#X declare -lib iemmatrix;
#X declare -lib iemmatrix;
#X declare -lib iemmatrix;
#X declare -lib hexloader;
#N canvas 115 78 1192 671 control 0;
#X obj 301 -80 tgl 15 0 empty empty empty 17 7 0 10 -262144 -1 -1 0
1;
#X obj 301 -199 loadbang;
#X obj 301 -138 tgl 15 0 empty empty empty 17 7 0 10 -262144 -1 -1
0 1;
#X obj 301 -169 0;
#N canvas 723 473 717 273 Myo_OSC 0;
#X obj 357 59 moses 1;
#X obj 392 9 import mrpeach;
#N canvas 1072 558 353 317 rescale 0;
#X obj 36 6 inlet;
#X obj 36 46 unpack f f f;
#X obj 36 126 /;
#X obj 94 126 /;
#X obj 153 126 /;
#X obj 36 176 +;
#X obj 94 176 +;
#X obj 153 176 +;
#X msg 217 76 10;
#X msg 217 126 0.5;
#X obj 36 276 outlet;
#X obj 94 276 outlet;
#X obj 153 276 outlet;
#X obj 217 46 loadbang;
#X connect 0 0 1 0;
#X connect 1 0 2 0;
#X connect 1 1 3 0;
#X connect 1 2 4 0;
#X connect 2 0 5 0;
#X connect 3 0 6 0;
#X connect 4 0 7 0;
#X connect 5 0 10 0;
#X connect 6 0 11 0;
#X connect 7 0 12 0;
#X connect 8 0 2 1;
#X connect 8 0 3 1;
#X connect 8 0 4 1;
#X connect 8 0 9 0;
#X connect 9 0 5 1;
#X connect 9 0 6 1;
#X connect 9 0 7 1;
#X connect 13 0 8 0;
#X restore 110 159 pd rescale;
#X obj 110 9 inlet;
#N canvas 832 81 495 427 Myo_acc_yaw 0;
#X obj 132 196 unpackOSC;
#X obj 132 226 routeOSC /myo;
#N canvas 521 384 653 187 udp_receive 0;
#X obj 253 55 outlet;
#N canvas 1080 271 270 153 \$0-udp_prov 0;
#X restore 73 26 pd \$0-udp_prov;
#X obj -137 26 s pd-\$0-udp_prov;
#X msg -67 -35 clear \, obj 1 1 udpreceive \$1 \, obj 1 50 send udprecout
\, connect 0 0 1 0;
#X obj 253 26 r udprecout;
#X msg -137 -35 clear;
#X obj -137 -75 inlet;
#X obj -67 -75 inlet;
#X connect 3 0 2 0;
#X connect 4 0 0 0;
#X connect 5 0 2 0;
#X connect 6 0 5 0;
#X connect 7 0 3 0;
#X restore 132 156 pd udp_receive;
#X obj 132 6 inlet on/off;
#X obj 132 86 select 0 1;
#X msg 245 87 7777;
#X obj 227 126 f;
#X obj -24 316 unpack s f f f f;
#X obj 45 356 pack f f f;
#X obj -24 286 routeOSC /accel;
#X obj 132 46 tgl 15 0 empty empty empty 17 7 0 10 -262144 -1 -1 0
1;
#X obj 245 6 loadbang;
#X obj 132 316 unpack s f f f f f f f f;
#X obj 45 386 outlet acc;
#X obj 297 386 outlet yaw;
#X obj 132 286 routeOSC /orientation;
#X connect 0 0 1 0;
#X connect 1 0 9 0;
#X connect 1 0 15 0;
#X connect 2 0 0 0;
#X connect 3 0 10 0;
#X connect 4 0 2 0;
#X connect 4 1 6 0;
#X connect 5 0 6 1;
#X connect 6 0 2 1;
#X connect 7 2 8 0;
#X connect 7 3 8 1;
#X connect 7 4 8 2;
#X connect 8 0 13 0;
#X connect 9 0 7 0;
#X connect 10 0 4 0;
#X connect 11 0 5 0;
#X connect 12 8 14 0;
#X connect 15 0 12 0;
#X restore 110 59 pd Myo_acc_yaw;
#N canvas 191 351 413 309 poller_l_f 0;
#X obj 226 18 inlet period;
#X msg 279 108 1;
#X obj 279 78 t b a;
#X obj 226 48 select 0;
#X msg 226 108 0;
#X obj 279 138 metro;
#X obj -69 208 list;
#X obj -69 238 route bang;
#X obj -44 18 inlet list;
#X obj -2 268 outlet list;
#X obj 101 238 route bang;
#X obj 119 18 inlet float;
#X obj 168 268 outlet float;
#X obj 101 208 f;
#X connect 0 0 3 0;
#X connect 1 0 5 0;
#X connect 2 0 1 0;
#X connect 2 1 5 1;
#X connect 3 0 4 0;
#X connect 3 1 2 0;
#X connect 4 0 5 0;
#X connect 5 0 6 0;
#X connect 5 0 13 0;
#X connect 6 0 7 0;
#X connect 7 1 9 0;
#X connect 8 0 6 1;
#X connect 10 1 12 0;
#X connect 11 0 13 1;
#X connect 13 0 10 0;
#X restore 110 132 pd poller_l_f;
#X obj 120 239 outlet acc_y;
#X obj 220 239 outlet acc_z;
#X obj 330 239 outlet yaw;
#X msg 403 112 100;
#X text 438 112 interval (ms.);
#N canvas 328 339 299 316 autoswitch 0;
#X obj 13 16 inlet;
#X obj 103 116 once;
#X obj 13 116 once;
#X msg 13 156 0;
#X msg 103 156 1;
#X obj 13 46 temperature 1000;
#X obj 13 76 moses 1;
#X obj 13 206 outlet tgl;
#X connect 0 0 5 0;
#X connect 1 0 2 1;
#X connect 1 0 4 0;
#X connect 2 0 1 1;
#X connect 2 0 3 0;
#X connect 3 0 7 0;
#X connect 4 0 7 0;
#X connect 5 0 6 0;
#X connect 6 0 2 0;
#X connect 6 1 1 0;
#X restore 420 196 pd autoswitch;
#X obj 420 239 outlet tgl;
#X obj 20 239 outlet acc_x;
#X connect 0 0 5 2;
#X connect 0 1 9 0;
#X connect 2 0 13 0;
#X connect 2 1 6 0;
#X connect 2 2 7 0;
#X connect 3 0 4 0;
#X connect 3 0 0 0;
#X connect 4 0 5 0;
#X connect 4 1 5 1;
#X connect 4 1 11 0;
#X connect 5 0 2 0;
#X connect 5 1 8 0;
#X connect 9 0 5 2;
#X connect 11 0 12 0;
#X restore 301 -50 pd Myo_OSC;
#X obj 181 340 packOSC;
#X obj 261 420 udpsend;
#X msg 371 340 disconnect;
#X obj 261 450 tgl 15 0 empty empty empty 17 7 0 10 -262144 -1 -1 0
1;
#X obj 871 179 select 0 1;
#X obj 284 91 pack f f f;
#X obj 871 -80 tgl 15 0 empty empty empty 17 7 0 10 -262144 -1 -1 0
1;
#X msg 181 180 send /ringsphere/myo/acc \$1 \$2 \$3;
#X msg 441 180 send /ringsphere/myo/yaw \$1;
#X msg 651 180 send /ringsphere/myo/tgl \$1;
#X obj 181 370 spigot;
#X obj 261 340 tgl 15 0 empty empty empty 17 7 0 10 -262144 -1 -1 0
1;
#X text -197 -83 on/off -->;
#X obj -117 -80 tgl 15 0 empty empty empty 17 7 0 10 -262144 -1 -1
0 1;
#X text -225 -51 controller -->;
#N canvas 433 89 621 644 video_rings 0;
#X obj 153 -9 GUI_RGB;
#X obj 79 -87 r \$0-rp;
#X obj 335 277 s \$0-rp;
#X obj 228 334 l2s;
#X msg 228 364 set \$1;
#X msg 228 394 0.0366667 0.203333 0.37 0.536667 0.703333;
#X obj 305 307 l2s;
#X msg 305 337 set \$1;
#X msg 305 367 0.166667 0.333333 0.5 0.666667 0.833333;
#X msg 396 51 0.1;
#X msg 406 81 0.01;
#X obj 458 117 vradio 15 1 0 2 empty empty empty 0 -8 0 10 -262144
-1 -1 0;
#X text 444 62 step;
#X text 475 114 +;
#X text 475 130 -;
#N canvas 1269 343 424 502 diameter_offset 0;
#X obj -79 -24 inlet current positions;
#X obj -104 431 outlet new positions;
#X obj -55 146 t b a;
#X obj -104 191 list;
#X obj 76 106 confine -1 1;
#X obj -104 221 list-apply +;
#X obj 94 -24 inlet step;
#X obj 76 76 *;
#X obj 174 -24 inlet direction;
#X obj 174 6 select 0;
#X msg 174 32 1;
#X msg 227 32 -1;
#X obj -81 291 list-max;
#X obj -81 321 <= 1;
#X obj -11 291 list-min;
#X obj -11 321 >= 0;
#X obj -29 361 &;
#X obj -104 251 t a a a;
#X obj -104 401 spigot;
#X connect 0 0 3 1;
#X connect 2 0 3 0;
#X connect 2 1 5 2;
#X connect 3 0 5 0;
#X connect 4 0 2 0;
#X connect 5 0 17 0;
#X connect 6 0 7 1;
#X connect 7 0 4 0;
#X connect 8 0 9 0;
#X connect 9 0 10 0;
#X connect 9 1 11 0;
#X connect 10 0 7 0;
#X connect 11 0 7 0;
#X connect 12 0 13 0;
#X connect 13 0 16 0;
#X connect 14 0 15 0;
#X connect 15 0 16 1;
#X connect 16 0 18 1;
#X connect 17 0 18 0;
#X connect 17 1 12 0;
#X connect 17 2 14 0;
#X connect 18 0 1 0;
#X restore 335 157 pd diameter_offset;
#X obj 108 432 outlet;
#X obj 21 -177 inlet source;
#X obj 21 432 outlet;
#X obj 196 432 outlet;
#X obj 153 -57 moses 2;
#X msg 153 -33 \$1 \$1 \$1;
#X obj 153 -87 pipe 1000;
#X msg 345 247 0.036 0.243 0.49 0.756 0.993;
#X obj 345 187 loadbang;
#X msg 108 67 0.05;
#X msg 220 66 0.4;
#X msg 50 67 48;
#X msg 260 66 100 138 144 48;
#X obj 21 121 video_rings;
#X obj 260 -87 select 1;
#X connect 0 0 29 4;
#X connect 1 0 29 2;
#X connect 3 0 4 0;
#X connect 4 0 5 0;
#X connect 6 0 7 0;
#X connect 7 0 8 0;
#X connect 9 0 15 1;
#X connect 10 0 15 1;
#X connect 11 0 15 2;
#X connect 15 0 2 0;
#X connect 15 0 3 0;
#X connect 17 0 27 0;
#X connect 17 0 25 0;
#X connect 17 0 22 0;
#X connect 17 0 29 0;
#X connect 17 0 30 0;
#X connect 20 0 21 0;
#X connect 21 0 0 0;
#X connect 22 0 20 0;
#X connect 23 0 2 0;
#X connect 24 0 23 0;
#X connect 25 0 29 3;
#X connect 26 0 29 5;
#X connect 27 0 29 1;
#X connect 28 0 29 6;
#X connect 29 0 18 0;
#X connect 29 1 16 0;
#X connect 29 2 15 0;
#X connect 29 2 6 0;
#X connect 29 2 19 0;
#X connect 30 0 26 0;
#X connect 30 0 28 0;
#X coords 0 -1 1 1 184 118 2 20 120;
#X restore -117 -50 pd video_rings;
#X msg -117 291 send /ringsphere/video/ridx \$1;
#X msg -29 91 send /ringsphere/video/ridx_st \$1 \$2;
#X msg 479 340 connect 169.254.136.39 8000;
#X connect 0 0 4 0;
#X connect 1 0 3 0;
#X connect 2 0 0 0;
#X connect 2 0 11 0;
#X connect 2 0 18 0;
#X connect 3 0 2 0;
#X connect 4 0 10 0;
#X connect 4 1 10 1;
#X connect 4 2 10 2;
#X connect 4 3 13 0;
#X connect 4 4 14 0;
#X connect 5 0 15 0;
#X connect 6 0 8 0;
#X connect 7 0 6 0;
#X connect 9 0 7 0;
#X connect 9 1 23 0;
#X connect 10 0 12 0;
#X connect 11 0 9 0;
#X connect 12 0 5 0;
#X connect 13 0 5 0;
#X connect 14 0 5 0;
#X connect 15 0 6 0;
#X connect 16 0 15 1;
#X connect 18 0 20 0;
#X connect 20 0 21 0;
#X connect 20 1 22 0;
#X connect 21 0 5 0;
#X connect 22 0 5 0;
#X connect 23 0 6 0;
#X restore 43 59 pd control;
#X text 66 113 2018;
#X text 7 93 Juan Ignacio Mendoza;
#X text 45 2 RINGSPHERE;
#X text 53 22 SENSORS;
