#N canvas 1267 121 165 170 12;
#X declare -lib Gem;
#X declare -lib iemmatrix;
#X declare -lib hexloader;
#X declare -lib iemmatrix;
#X declare -lib iemmatrix;
#X declare -lib iemmatrix;
#X declare -lib list-abs;
#X declare -lib hexloader;
#X declare -lib iemmatrix;
#X declare -lib smlib;
#X declare -lib iemmatrix;
#X declare -lib iemmatrix;
#X declare -lib iemmatrix;
#X declare -lib iemmatrix;
#X declare -lib iemmatrix;
#X declare -lib iemmatrix;
#X declare -lib iemmatrix;
#X declare -lib hexloader;
#X declare -lib mrpeach;
#X declare -lib iemmatrix;
#X declare -lib list-abs;
#X declare -lib iemmatrix;
#X declare -lib list-abs;
#X declare -lib iemmatrix;
#X declare -lib list-abs;
#X declare -lib iemmatrix;
#X declare -lib list-abs;
#X declare -lib iemmatrix;
#X declare -lib list-abs;
#X declare -lib iemmatrix;
#X declare -lib list-abs;
#X declare -lib iemmatrix;
#X declare -lib iemmatrix;
#X declare -lib iemmatrix;
#X declare -lib iemmatrix;
#X declare -lib list-abs;
#X declare -lib iemmatrix;
#X declare -lib smlib;
#X declare -lib hexloader;
#X declare -lib iemmatrix;
#X declare -lib iemgui;
#X declare -lib iemgui -lib vbap -lib iemlib -lib iemmatrix -lib mrpeach
;
#X declare -lib vbap;
#N canvas 378 -661 991 315 control 1;
#X text -207 87 on/off -->;
#X obj -127 90 tgl 15 0 empty empty empty 17 7 0 10 -262144 -1 -1 0
1;
#X text -235 119 controller -->;
#X obj 291 90 tgl 15 0 empty empty empty 17 7 0 10 -262144 -1 -1 1
1;
#X obj 575 90 tgl 15 0 empty empty empty 17 7 0 10 -262144 -1 -1 0
1;
#X obj 291 -29 loadbang;
#X obj 291 32 tgl 15 0 empty empty empty 17 7 0 10 -262144 -1 -1 0
1;
#X obj 291 1 0;
#N canvas 963 407 783 593 video_rings 0;
#X obj 21 121 video_rings;
#X obj 161 11 GUI_RGB;
#X obj 91 -37 r \$0-rp;
#X obj 455 345 s \$0-rp;
#X obj 268 372 l2s;
#X msg 268 402 set \$1;
#X msg 268 432 0.316667 0.483333 0.65 0.816667 0.983333;
#X obj 345 345 l2s;
#X msg 345 375 set \$1;
#X msg 345 405 0.166667 0.333333 0.5 0.666667 0.833333;
#X msg 366 141 0.1;
#X msg 376 171 0.01;
#X obj 428 207 vradio 15 1 0 2 empty empty empty 0 -8 0 10 -262144
-1 -1 0;
#X text 414 152 step;
#X text 445 204 +;
#X text 445 220 -;
#N canvas 1269 343 424 502 diameter_offset 0;
#X obj -79 -24 inlet current positions;
#X obj -104 431 outlet new positions;
#X obj -55 146 t b a;
#X obj -104 191 list;
#X obj 76 106 confine -1 1;
#X obj -104 221 list-apply +;
#X obj 94 -24 inlet step;
#X obj 76 76 *;
#X obj 174 -24 inlet direction;
#X obj 174 6 select 0;
#X msg 174 32 1;
#X msg 227 32 -1;
#X obj -81 291 list-max;
#X obj -81 321 <= 1;
#X obj -11 291 list-min;
#X obj -11 321 >= 0;
#X obj -29 361 &;
#X obj -104 251 t a a a;
#X obj -104 401 spigot;
#X connect 0 0 3 1;
#X connect 2 0 3 0;
#X connect 2 1 5 2;
#X connect 3 0 5 0;
#X connect 4 0 2 0;
#X connect 5 0 17 0;
#X connect 6 0 7 1;
#X connect 7 0 4 0;
#X connect 8 0 9 0;
#X connect 9 0 10 0;
#X connect 9 1 11 0;
#X connect 10 0 7 0;
#X connect 11 0 7 0;
#X connect 12 0 13 0;
#X connect 13 0 16 0;
#X connect 14 0 15 0;
#X connect 15 0 16 1;
#X connect 16 0 18 1;
#X connect 17 0 18 0;
#X connect 17 1 12 0;
#X connect 17 2 14 0;
#X connect 18 0 1 0;
#X restore 305 247 pd diameter_offset;
#X obj 108 432 outlet;
#X obj 21 -117 inlet source;
#X obj 21 432 outlet;
#X obj 196 432 outlet;
#X msg 56 87 52;
#X msg 116 87 0.04;
#X obj 161 -37 moses 2;
#X msg 161 -13 \$1 \$1 \$1;
#X obj 161 -67 pipe 1000;
#X msg 455 315 0.03 0.24 0.5 0.75 0.98;
#X obj 455 285 loadbang;
#X connect 0 0 19 0;
#X connect 0 1 17 0;
#X connect 0 2 16 0;
#X connect 0 2 7 0;
#X connect 0 2 20 0;
#X connect 1 0 0 4;
#X connect 2 0 0 2;
#X connect 4 0 5 0;
#X connect 5 0 6 0;
#X connect 7 0 8 0;
#X connect 8 0 9 0;
#X connect 10 0 16 1;
#X connect 11 0 16 1;
#X connect 12 0 16 2;
#X connect 16 0 3 0;
#X connect 16 0 4 0;
#X connect 18 0 0 0;
#X connect 18 0 21 0;
#X connect 18 0 22 0;
#X connect 18 0 25 0;
#X connect 21 0 0 1;
#X connect 22 0 0 3;
#X connect 23 0 24 0;
#X connect 24 0 1 0;
#X connect 25 0 23 0;
#X connect 26 0 3 0;
#X connect 27 0 26 0;
#X coords 0 -1 1 1 184 118 2 20 120;
#X restore -127 120 pd video_rings;
#X obj -39 250 s \$0-ridx_st;
#X obj -127 250 s \$0-ridx;
#N canvas 989 473 717 273 Myo_OSC 0;
#X obj 357 59 moses 1;
#X obj 392 9 import mrpeach;
#N canvas 1072 558 353 317 rescale 0;
#X obj 36 6 inlet;
#X obj 36 46 unpack f f f;
#X obj 36 126 /;
#X obj 94 126 /;
#X obj 153 126 /;
#X obj 36 176 +;
#X obj 94 176 +;
#X obj 153 176 +;
#X msg 217 76 10;
#X msg 217 126 0.5;
#X obj 36 276 outlet;
#X obj 94 276 outlet;
#X obj 153 276 outlet;
#X obj 217 46 loadbang;
#X obj -44 246 pack f f f;
#X obj -44 276 outlet;
#X connect 0 0 1 0;
#X connect 1 0 2 0;
#X connect 1 1 3 0;
#X connect 1 2 4 0;
#X connect 2 0 5 0;
#X connect 3 0 6 0;
#X connect 4 0 7 0;
#X connect 5 0 10 0;
#X connect 5 0 14 0;
#X connect 6 0 11 0;
#X connect 6 0 14 1;
#X connect 7 0 12 0;
#X connect 7 0 14 2;
#X connect 8 0 2 1;
#X connect 8 0 3 1;
#X connect 8 0 4 1;
#X connect 8 0 9 0;
#X connect 9 0 5 1;
#X connect 9 0 6 1;
#X connect 9 0 7 1;
#X connect 13 0 8 0;
#X connect 14 0 15 0;
#X restore 110 159 pd rescale;
#X obj 110 9 inlet;
#N canvas 832 81 495 427 Myo_acc_yaw 0;
#X obj 132 196 unpackOSC;
#X obj 132 226 routeOSC /myo;
#N canvas 521 384 653 187 udp_receive 0;
#X obj 253 55 outlet;
#N canvas 1080 271 270 153 \$0-udp_prov 0;
#X obj 1 1 udpreceive 7777;
#X obj 1 50 send udprecout;
#X connect 0 0 1 0;
#X restore 73 26 pd \$0-udp_prov;
#X obj -137 26 s pd-\$0-udp_prov;
#X msg -67 -35 clear \, obj 1 1 udpreceive \$1 \, obj 1 50 send udprecout
\, connect 0 0 1 0;
#X obj 253 26 r udprecout;
#X msg -137 -35 clear;
#X obj -137 -75 inlet;
#X obj -67 -75 inlet;
#X connect 3 0 2 0;
#X connect 4 0 0 0;
#X connect 5 0 2 0;
#X connect 6 0 5 0;
#X connect 7 0 3 0;
#X restore 132 156 pd udp_receive;
#X obj 132 6 inlet on/off;
#X obj 132 86 select 0 1;
#X msg 245 87 7777;
#X obj 227 126 f;
#X obj -24 316 unpack s f f f f;
#X obj 45 356 pack f f f;
#X obj -24 286 routeOSC /accel;
#X obj 132 46 tgl 15 0 empty empty empty 17 7 0 10 -262144 -1 -1 1
1;
#X obj 245 6 loadbang;
#X obj 132 316 unpack s f f f f f f f f;
#X obj 45 386 outlet acc;
#X obj 297 386 outlet yaw;
#X obj 132 286 routeOSC /orientation;
#X connect 0 0 1 0;
#X connect 1 0 9 0;
#X connect 1 0 15 0;
#X connect 2 0 0 0;
#X connect 3 0 10 0;
#X connect 4 0 2 0;
#X connect 4 1 6 0;
#X connect 5 0 6 1;
#X connect 6 0 2 1;
#X connect 7 2 8 0;
#X connect 7 3 8 1;
#X connect 7 4 8 2;
#X connect 8 0 13 0;
#X connect 9 0 7 0;
#X connect 10 0 4 0;
#X connect 11 0 5 0;
#X connect 12 8 14 0;
#X connect 15 0 12 0;
#X restore 110 59 pd Myo_acc_yaw;
#N canvas 191 351 413 309 poller_l_f 0;
#X obj 226 18 inlet period;
#X msg 279 108 1;
#X obj 279 78 t b a;
#X obj 226 48 select 0;
#X msg 226 108 0;
#X obj 279 138 metro;
#X obj -69 208 list;
#X obj -69 238 route bang;
#X obj -44 18 inlet list;
#X obj -2 268 outlet list;
#X obj 101 238 route bang;
#X obj 119 18 inlet float;
#X obj 168 268 outlet float;
#X obj 101 208 f;
#X connect 0 0 3 0;
#X connect 1 0 5 0;
#X connect 2 0 1 0;
#X connect 2 1 5 1;
#X connect 3 0 4 0;
#X connect 3 1 2 0;
#X connect 4 0 5 0;
#X connect 5 0 6 0;
#X connect 5 0 13 0;
#X connect 6 0 7 0;
#X connect 7 1 9 0;
#X connect 8 0 6 1;
#X connect 10 1 12 0;
#X connect 11 0 13 1;
#X connect 13 0 10 0;
#X restore 110 132 pd poller_l_f;
#X obj 120 239 outlet acc_y;
#X obj 220 239 outlet acc_z;
#X obj 330 239 outlet yaw;
#X msg 403 112 100;
#X text 438 112 interval (ms.);
#N canvas 328 339 299 316 autoswitch 0;
#X obj 13 16 inlet;
#X obj 103 116 once;
#X obj 13 116 once;
#X msg 13 156 0;
#X msg 103 156 1;
#X obj 13 46 temperature 1000;
#X obj 13 76 moses 1;
#X obj 13 206 outlet tgl;
#X connect 0 0 5 0;
#X connect 1 0 2 1;
#X connect 1 0 4 0;
#X connect 2 0 1 1;
#X connect 2 0 3 0;
#X connect 3 0 7 0;
#X connect 4 0 7 0;
#X connect 5 0 6 0;
#X connect 6 0 2 0;
#X connect 6 1 1 0;
#X restore 420 196 pd autoswitch;
#X obj 420 239 outlet tgl;
#X obj 20 239 outlet acc_x;
#X obj -100 239 outlet acc_xyz;
#X connect 0 0 5 2;
#X connect 0 1 9 0;
#X connect 2 0 14 0;
#X connect 2 1 13 0;
#X connect 2 2 6 0;
#X connect 2 3 7 0;
#X connect 3 0 4 0;
#X connect 3 0 0 0;
#X connect 4 0 5 0;
#X connect 4 1 5 1;
#X connect 4 1 11 0;
#X connect 5 0 2 0;
#X connect 5 1 8 0;
#X connect 9 0 5 2;
#X connect 11 0 12 0;
#X restore 291 120 pd Myo_OSC;
#X obj 402 250 s \$0-m1_w;
#X obj 168 250 s \$0-m1_x;
#X obj 246 250 s \$0-m1_y;
#X obj 324 250 s \$0-m1_z;
#X obj 482 250 s \$0-m1_tgl;
#X obj 73 250 s \$0-m1_xyz;
#X obj 575 250 s \$0-tgl_masterswitch;
#X connect 1 0 8 0;
#X connect 3 0 11 0;
#X connect 4 0 18 0;
#X connect 5 0 7 0;
#X connect 6 0 4 0;
#X connect 6 0 3 0;
#X connect 6 0 1 0;
#X connect 7 0 6 0;
#X connect 8 0 10 0;
#X connect 8 1 9 0;
#X connect 11 0 17 0;
#X connect 11 1 13 0;
#X connect 11 2 14 0;
#X connect 11 3 15 0;
#X connect 11 4 12 0;
#X connect 11 5 16 0;
#X restore 42 29 pd control;
#N canvas 377 -1177 1104 490 mapping 1;
#X obj -176 -276 cnv 15 79 28 empty empty empty 20 12 0 14 -99865 -66577
0;
#X obj -179 62 cnv 15 95 26 empty empty empty 20 12 0 14 -162280 -66577
0;
#X obj -179 62 cnv 15 93 24 empty empty empty 20 12 0 14 -1 -66577
0;
#X obj -180 140 cnv 15 150 28 empty empty empty 20 12 0 14 -4160 -66577
0;
#X obj -178 142 cnv 15 146 24 empty empty empty 20 12 0 14 -228856
-66577 0;
#X obj 219 140 cnv 15 120 28 empty empty empty 20 12 0 14 -128992 -66577
0;
#X obj 221 142 cnv 15 116 24 empty empty empty 20 12 0 14 -262144 -66577
0;
#X text -362 93 ------------------------------------------------------------
;
#X text 59 93 ------------------------------------------------------------
;
#N canvas 713 272 494 123 cart2vbap_yaw_1 0;
#X obj -26 61 s \$0-spat_x;
#X obj 104 62 s \$0-spat_y;
#X obj 315 62 s \$0-cart2vbap_reset;
#N canvas 117 648 304 344 auto_circle 0;
#X obj 98 291 outlet x;
#X obj 178 291 outlet y;
#X obj 24 -9 inlet tgl;
#X obj 24 71 cup;
#X msg -16 41 0;
#X obj 98 191 + 1;
#X obj 98 221 / 2;
#X floatatom 48 261 5 0 0 0 - - -;
#X floatatom 198 261 5 0 0 0 - - -;
#X obj 178 191 + 1;
#X obj 178 221 / 2;
#X obj 24 101 / 10;
#X obj 24 131 select 6.3;
#X obj 98 161 cos;
#X obj 178 161 sin;
#X obj 24 41 metro 50;
#X connect 2 0 15 0;
#X connect 3 0 11 0;
#X connect 4 0 3 0;
#X connect 5 0 6 0;
#X connect 6 0 0 0;
#X connect 6 0 7 0;
#X connect 9 0 10 0;
#X connect 10 0 1 0;
#X connect 10 0 8 0;
#X connect 11 0 12 0;
#X connect 12 0 4 0;
#X connect 12 1 13 0;
#X connect 12 1 14 0;
#X connect 13 0 5 0;
#X connect 14 0 9 0;
#X connect 15 0 3 0;
#X restore -26 31 pd auto_circle;
#X obj -26 2 tgl 15 0 empty empty empty 17 7 0 10 -262144 -1 -1 0 1
;
#X obj 204 2 inlet;
#X obj 204 32 * 57.3;
#X obj 204 62 s \$0-spat_A_1;
#X connect 3 0 0 0;
#X connect 3 1 1 0;
#X connect 4 0 3 0;
#X connect 5 0 6 0;
#X connect 6 0 7 0;
#X restore -170 144 pd cart2vbap_yaw_1;
#X text -204 -202 |;
#X text -204 -191 |;
#X text -204 -180 |;
#X text -204 -169 |;
#X text -204 -158 |;
#X text -204 -147 |;
#X text -204 -136 |;
#X text -204 -125 |;
#X text -204 -114 |;
#X text -204 -103 |;
#X text -204 -92 |;
#X text -204 -81 |;
#X text -204 -70 |;
#X text -204 -59 |;
#X text -204 -48 |;
#X text -204 -37 |;
#X text -204 -26 |;
#X text -204 -15 |;
#X text -204 -4 |;
#X text -204 7 |;
#X text -204 53 |;
#X text -204 64 |;
#X text -204 75 |;
#X text -204 86 |;
#X text -204 -287 |;
#X text -204 -276 |;
#X text -204 -265 |;
#X text -204 -254 |;
#X text -204 -223 |;
#X text -204 -212 |;
#X text -204 -300 |;
#X text -204 -302 |;
#X text -204 -289 |;
#X text -191 -302 PALLO 1;
#X text -351 -302 VIDEO-RENKKAT;
#X obj -170 114 r \$0-yaw_1;
#X obj 108 -276 cnv 15 79 28 empty empty empty 20 12 0 14 -99865 -66577
0;
#X obj 198 -276 cnv 15 79 28 empty empty empty 20 12 0 14 -99865 -66577
0;
#X obj 288 -276 cnv 15 79 28 empty empty empty 20 12 0 14 -99865 -66577
0;
#X obj 200 -274 cnv 15 75 24 empty empty empty 20 12 0 14 -262130 -66577
0;
#X obj -174 -274 cnv 15 75 24 empty empty empty 20 12 0 14 -261682
-66577 0;
#X obj 110 -274 cnv 15 75 24 empty empty empty 20 12 0 14 -261234 -66577
0;
#X obj 290 -274 cnv 15 75 24 empty empty empty 20 12 0 14 -204786 -66577
0;
#X obj -13 62 cnv 15 95 26 empty empty empty 20 12 0 14 -162280 -66577
0;
#X obj -13 62 cnv 15 93 24 empty empty empty 20 12 0 14 -1 -66577 0
;
#X obj 93 62 cnv 15 95 26 empty empty empty 20 12 0 14 -162280 -66577
0;
#X obj 93 62 cnv 15 93 24 empty empty empty 20 12 0 14 -1 -66577 0
;
#X obj 3 -114 vsl 30 128 0.01 1 0 0 empty empty empty 0 -9 0 10 -66577
-232576 -1 0 1;
#X obj 103 -161 novelty_3D;
#N canvas 544 23 192 225 sequencer 0;
#X obj 20 176 outlet;
#X obj 20 6 inlet;
#X obj 20 146 cup;
#X msg 60 106 0;
#X obj 20 106 bng 15 250 50 0 empty empty empty 17 7 0 10 -262144 -1
-1;
#X obj 100 176 select 5;
#X obj 60 76 metro 1000;
#X obj 60 47 tgl 15 0 empty empty empty 17 7 0 10 -262144 -1 -1 0 1
;
#X connect 1 0 4 0;
#X connect 2 0 0 0;
#X connect 2 0 5 0;
#X connect 3 0 2 0;
#X connect 4 0 2 0;
#X connect 5 0 3 0;
#X connect 6 0 4 0;
#X connect 7 0 6 0;
#X restore 103 -30 pd sequencer;
#X floatatom 116 -2 5 0 0 0 - - -;
#X obj 114 -272 r \$0-m1_x;
#X obj 203 -272 r \$0-m1_y;
#X obj 294 -272 r \$0-m1_z;
#X obj -7 64 s \$0-agit_1;
#X obj 103 64 s \$0-seg_1;
#N canvas 889 26 392 519 agitation_3 0;
#X obj -76 149 metro;
#X obj -76 119 tgl 15 0 empty empty empty 17 7 0 10 -262144 -1 -1 0
1;
#X obj 3 11 vsl 15 128 10 10000 0 0 empty empty empty 0 -9 0 10 -262144
-1 -1 0 1;
#X floatatom 3 153 5 0 0 0 - - -;
#X obj -76 179 tgl 15 0 empty empty empty 17 7 0 10 -262144 -1 -1 0
1;
#X obj -76 206 *;
#X obj 53 51 vsl 15 128 1 1000 0 0 empty empty empty 0 -9 0 10 -262144
-1 -1 0 1;
#X floatatom 53 193 5 0 0 0 - - -;
#X text -194 117 TEST ON/OFF --->;
#X obj -201 9 inlet;
#X obj -126 9 inlet;
#X obj -50 9 inlet;
#X msg -266 39 0;
#X obj -266 9 loadbang;
#X obj -201 39 abs;
#X obj -126 39 abs;
#X obj -50 39 abs;
#X obj -201 88 expr ($f1 + $f2 + $f3);
#X obj -201 439 outlet;
#X obj -201 249 shake;
#X obj -201 309 confine;
#X obj -131 409 once;
#X obj -51 408 once;
#X msg -131 439 0.1;
#X obj -90 479 s \$0-QOM_thr;
#X msg -51 438 1;
#X obj -131 349 average 14;
#X obj -131 379 moses 0.2;
#X obj -201 279 * 4;
#X connect 0 0 4 0;
#X connect 1 0 0 0;
#X connect 2 0 3 0;
#X connect 2 0 0 1;
#X connect 4 0 5 0;
#X connect 5 0 19 0;
#X connect 6 0 7 0;
#X connect 6 0 5 1;
#X connect 9 0 14 0;
#X connect 10 0 15 0;
#X connect 11 0 16 0;
#X connect 12 0 17 0;
#X connect 13 0 12 0;
#X connect 14 0 17 0;
#X connect 15 0 17 1;
#X connect 16 0 17 2;
#X connect 17 0 19 0;
#X connect 19 0 28 0;
#X connect 20 0 18 0;
#X connect 20 0 26 0;
#X connect 21 0 23 0;
#X connect 21 0 22 1;
#X connect 22 0 21 1;
#X connect 22 0 25 0;
#X connect 23 0 24 0;
#X connect 25 0 24 0;
#X connect 26 0 27 0;
#X connect 27 0 21 0;
#X connect 27 1 22 0;
#X connect 28 0 20 0;
#X restore -7 -191 pd agitation_3;
#N canvas 244 274 575 323 radisp 0;
#X obj 2 2 cnv 15 104 104 empty empty empty 20 12 0 14 -1 -66577 0
;
#X obj 3 3 cube_sphere 0 51 29 261680 262143 0 28 16;
#X obj 213 -113 import iemgui;
#X obj 123 -113 loadbang;
#X obj 3 -173 inlet;
#X msg 75 -79 0;
#X msg 3 -43 src_dp 1 17 \$1;
#X obj 3 -143 expr ($f1 * 180)/3.14;
#X msg 123 -44 size 100 \, nr_src 0 \, src_font 29 \, src_col 1 22
\, frame_col 0 \, sphere_col 4;
#X connect 3 0 8 0;
#X connect 3 0 5 0;
#X connect 4 0 7 0;
#X connect 5 0 6 0;
#X connect 6 0 1 0;
#X connect 7 0 6 0;
#X connect 8 0 1 0;
#X coords 0 -1 1 1 106 106 2 1 1;
#X restore -160 -99 pd radisp;
#X floatatom -160 -240 5 0 0 0 - - -;
#X obj -170 -272 r \$0-m1_w;
#X obj -170 64 s \$0-yaw_1;
#X obj -345 -276 cnv 15 98 28 empty empty empty 20 12 0 14 -99865 -66577
0;
#X obj -343 -274 cnv 15 94 24 empty empty empty 20 12 0 14 -228856
-66577 0;
#X obj -351 140 cnv 15 140 28 empty empty empty 20 12 0 14 -66577 -66577
0;
#X obj -349 142 cnv 15 136 24 empty empty empty 20 12 0 14 -228856
-66577 0;
#N canvas 185 690 858 279 phasor_synths 0;
#X obj -197 235 s \$0-ring_ctrl_1;
#X obj 488 235 s \$0-psf;
#X obj 568 235 s \$0-psq;
#X obj -167 155 select 1;
#X obj -37 155 select 1;
#X obj 93 155 select 1;
#X obj 223 155 select 1;
#X msg 323 185 39;
#X obj 353 155 select 1;
#X obj -67 235 s \$0-ring_ctrl_2;
#X obj 63 235 s \$0-ring_ctrl_3;
#X obj 193 235 s \$0-ring_ctrl_4;
#X obj 323 235 s \$0-ring_ctrl_5;
#X obj 53 75 route 1 2 3 4 5;
#X msg 193 185 42;
#X msg 63 185 44;
#X msg -67 185 46;
#X msg -197 185 49;
#X obj 53 15 inlet;
#N canvas 830 403 450 300 test_keyboard 0;
#X obj -36 2 inlet;
#X obj -75 12 key;
#X obj -75 102 select 49 50 51 52 53;
#X obj -75 52 spigot;
#X obj -36 32 tgl 15 0 empty empty empty 17 7 0 10 -262144 -1 -1 0
1;
#X obj -285 102 select 113 119 101 114 116;
#X msg -75 144 1;
#X msg -35 144 2;
#X msg 5 144 3;
#X msg 45 144 4;
#X msg 85 144 5;
#X msg -285 144 1;
#X msg -245 144 2;
#X msg -205 144 3;
#X msg -165 144 4;
#X msg -125 144 5;
#X obj -205 202 list 0;
#X obj 5 202 list 1;
#X obj -95 242 outlet;
#X connect 0 0 4 0;
#X connect 1 0 3 0;
#X connect 2 0 6 0;
#X connect 2 1 7 0;
#X connect 2 2 8 0;
#X connect 2 3 9 0;
#X connect 2 4 10 0;
#X connect 3 0 2 0;
#X connect 3 0 5 0;
#X connect 4 0 3 1;
#X connect 5 0 11 0;
#X connect 5 1 12 0;
#X connect 5 2 13 0;
#X connect 5 3 14 0;
#X connect 5 4 15 0;
#X connect 6 0 17 0;
#X connect 7 0 17 0;
#X connect 8 0 17 0;
#X connect 9 0 17 0;
#X connect 10 0 17 0;
#X connect 11 0 16 0;
#X connect 12 0 16 0;
#X connect 13 0 16 0;
#X connect 14 0 16 0;
#X connect 15 0 16 0;
#X connect 16 0 18 0;
#X connect 17 0 18 0;
#X restore 123 45 pd test_keyboard;
#X obj 123 15 tgl 15 0 empty empty empty 17 7 0 10 -262144 -1 -1 0
1;
#X connect 3 0 17 0;
#X connect 3 1 0 0;
#X connect 4 0 16 0;
#X connect 4 1 9 0;
#X connect 5 0 15 0;
#X connect 5 1 10 0;
#X connect 6 0 14 0;
#X connect 6 1 11 0;
#X connect 7 0 12 0;
#X connect 8 0 7 0;
#X connect 8 1 12 0;
#X connect 13 0 3 0;
#X connect 13 1 4 0;
#X connect 13 2 5 0;
#X connect 13 3 6 0;
#X connect 13 4 8 0;
#X connect 14 0 11 0;
#X connect 15 0 10 0;
#X connect 16 0 9 0;
#X connect 17 0 0 0;
#X connect 18 0 13 0;
#X connect 19 0 13 0;
#X connect 20 0 19 0;
#X restore -340 144 pd phasor_synths;
#X obj -340 -272 r \$0-ridx_st;
#X obj -326 -237 cnv 15 79 28 empty empty empty 20 12 0 14 -99865 -66577
0;
#X obj -324 -235 cnv 15 75 24 empty empty empty 20 12 0 14 -191407
-66577 0;
#X obj -320 -233 r \$0-ridx;
#X floatatom -320 -201 5 0 0 0 - - -;
#X obj 228 114 r \$0-agit_1;
#N canvas 911 425 265 327 tempo_detect 0;
#X obj 20 16 inlet;
#X obj 78 16 inlet;
#X obj 137 16 inlet;
#X obj 45 116 list-mag;
#X obj 45 146 expr ($f1 * 100)+1;
#X obj 45 236 peakstempo;
#X obj 45 86 pack f f f;
#X obj 20 46 delta;
#X obj 78 46 delta;
#X obj 137 46 delta;
#X obj 5 276 outlet t;
#X obj 165 276 outlet beat;
#X obj 112 176 loadbang;
#X text 141 205 sensitivity;
#X obj 78 276 outlet bpm;
#X msg 112 206 0.5;
#X connect 0 0 7 0;
#X connect 1 0 8 0;
#X connect 2 0 9 0;
#X connect 3 0 4 0;
#X connect 4 0 5 0;
#X connect 5 0 10 0;
#X connect 5 1 14 0;
#X connect 5 2 11 0;
#X connect 6 0 3 0;
#X connect 7 0 6 0;
#X connect 8 0 6 1;
#X connect 9 0 6 2;
#X connect 12 0 15 0;
#X connect 15 0 5 1;
#X restore 323 -191 pd tempo_detect;
#X obj 311 62 cnv 15 85 26 empty empty empty 20 12 0 14 -162280 -66577
0;
#X obj 311 62 cnv 15 83 24 empty empty empty 20 12 0 14 -1 -66577 0
;
#X obj 323 64 s \$0-t_1;
#X obj 402 -170 bng 30 100 50 0 empty empty empty 17 7 0 10 -99865
-4032 -1;
#X text -204 -244 |;
#X text -204 -234 |;
#X obj 323 114 r \$0-t_1;
#N canvas 577 683 271 202 __chopper_1 0;
#X obj -102 11 inlet;
#X obj -102 161 s \$0-chop_mix;
#X obj 8 161 s \$0-chop_t;
#X obj 8 11 inlet;
#X obj -102 41 * 2;
#X obj -102 71 - 1;
#X obj 8 71 / 2;
#X obj 8 41 average 10;
#X connect 0 0 4 0;
#X connect 3 0 7 0;
#X connect 4 0 5 0;
#X connect 5 0 1 0;
#X connect 6 0 2 0;
#X connect 7 0 6 0;
#X restore 228 144 pd __chopper_1;
#X obj -19 140 cnv 15 147 28 empty empty empty 20 12 0 14 -86277 -66577
0;
#X obj -17 142 cnv 15 143 24 empty empty empty 20 12 0 14 -262130 -66577
0;
#X floatatom 374 -131 5 0 0 1 bpm - -;
#X floatatom 23 -151 5 0 0 0 - - -;
#N canvas 705 632 555 245 novelty_3D_switches_______ 0;
#X obj 20 16 inlet;
#X obj 70 16 inlet;
#X obj 120 16 inlet;
#X obj 20 66 pack f f f;
#X obj 110 66 loadbang;
#X obj 110 96 delay 500;
#X obj 230 16 r \$0-QOM_thr;
#X obj 412 106 select 1;
#X obj 412 16 r \$0-m1_tgl;
#X obj 240 46 select 1;
#X obj 293 76 once;
#X obj 293 106 bang;
#X obj 412 206 outlet reset;
#X obj 110 206 outlet params.;
#X obj 230 206 outlet peak threshold;
#X obj 20 206 outlet xyz;
#X obj 243 176 s \$0-plot_xyz_rs;
#X obj 423 46 s \$0-plot_xyz_as;
#X msg 110 136 1 10 2 0 0.1 0;
#X connect 0 0 3 0;
#X connect 1 0 3 1;
#X connect 2 0 3 2;
#X connect 3 0 15 0;
#X connect 4 0 5 0;
#X connect 5 0 18 0;
#X connect 6 0 9 0;
#X connect 6 0 14 0;
#X connect 7 0 12 0;
#X connect 8 0 7 0;
#X connect 8 0 17 0;
#X connect 9 0 10 1;
#X connect 9 1 10 0;
#X connect 10 0 11 0;
#X connect 11 0 12 0;
#X connect 11 0 16 0;
#X connect 18 0 13 0;
#X restore 103 -191 pd novelty_3D_switches_______;
#N canvas 489 227 746 579 granny_smasher 0;
#X obj 437 521 s \$0-GS_1_randomness;
#X obj 437 281 t b b b b;
#X msg 487 321 0.9;
#X msg 573 321 0.6;
#X obj 437 61 bng 15 250 50 0 empty empty empty 17 7 0 10 -262144 -1
-1;
#X obj 437 1 loadbang;
#X obj 437 31 delay 500;
#N canvas 1270 430 326 499 smooth_n_tail 0;
#X obj 142 36 inlet;
#X obj 103 456 outlet;
#X obj 3 126 < 0;
#X obj 73 126 > 0;
#X obj 103 266 gate 2;
#X obj 142 376 line;
#X msg 3 216 2;
#X msg 73 216 1;
#X obj 3 156 select 1;
#X obj 73 156 select 1;
#X obj 3 86 delta;
#X obj 103 426 average 20;
#X msg 142 346 \$1 \$2;
#X obj 195 36 inlet tail time;
#X obj 142 306 pack f f;
#X connect 0 0 10 0;
#X connect 0 0 4 1;
#X connect 2 0 8 0;
#X connect 3 0 9 0;
#X connect 4 0 11 0;
#X connect 5 0 11 0;
#X connect 6 0 4 0;
#X connect 7 0 4 0;
#X connect 8 0 6 0;
#X connect 9 0 7 0;
#X connect 10 0 2 0;
#X connect 10 0 3 0;
#X connect 11 0 1 0;
#X connect 12 0 5 0;
#X connect 13 0 14 1;
#X connect 14 0 12 0;
#X restore 7 101 pd smooth_n_tail;
#X obj 613 521 s \$0-GS_1_mix;
#X obj 157 521 s \$0-GS_1_levels;
#X floatatom 136 73 5 0 0 0 - - -;
#X msg 136 42 3000;
#X obj 157 491 pack f f f f f f f f f f f f f f;
#X obj 437 491 pack f f f f f f f f f;
#X obj 157 203 bang;
#X msg 258 394 0;
#X msg 293 294 0;
#X obj 136 9 loadbang;
#X obj 7 8 inlet agitation;
#X msg 174 243 1;
#X msg 208 303 0.4;
#X msg 225 333 0.3;
#X msg 242 363 0;
#X msg 523 321 0.3;
#X msg 191 273 0.05;
#X msg 327 354 0.2;
#X msg 378 454 1;
#X msg 360 425 0.1;
#X msg 310 324 0.2;
#X msg 344 384 0.3;
#X msg 273 244 0.1;
#X msg 447 321 0.1;
#X msg 613 321 1;
#X obj 7 521 s \$0-GS_1_master;
#X connect 1 0 13 0;
#X connect 1 1 2 0;
#X connect 1 1 31 0;
#X connect 1 2 23 0;
#X connect 1 3 3 0;
#X connect 2 0 13 2;
#X connect 3 0 13 7;
#X connect 4 0 1 0;
#X connect 4 0 19 0;
#X connect 4 0 16 0;
#X connect 4 0 30 0;
#X connect 4 0 32 0;
#X connect 4 0 14 0;
#X connect 5 0 6 0;
#X connect 6 0 4 0;
#X connect 7 0 33 0;
#X connect 10 0 7 1;
#X connect 11 0 10 0;
#X connect 12 0 9 0;
#X connect 13 0 0 0;
#X connect 14 0 12 0;
#X connect 15 0 12 6;
#X connect 16 0 12 8;
#X connect 16 0 28 0;
#X connect 17 0 11 0;
#X connect 18 0 7 0;
#X connect 19 0 24 0;
#X connect 19 0 12 1;
#X connect 20 0 12 3;
#X connect 20 0 21 0;
#X connect 21 0 12 4;
#X connect 21 0 22 0;
#X connect 22 0 12 5;
#X connect 22 0 15 0;
#X connect 23 0 13 3;
#X connect 24 0 12 2;
#X connect 24 0 20 0;
#X connect 25 0 12 10;
#X connect 25 0 29 0;
#X connect 26 0 12 13;
#X connect 27 0 12 12;
#X connect 27 0 26 0;
#X connect 28 0 12 9;
#X connect 28 0 25 0;
#X connect 29 0 12 11;
#X connect 29 0 27 0;
#X connect 30 0 12 7;
#X connect 31 0 13 1;
#X connect 32 0 8 0;
#X restore -7 144 pd granny_smasher;
#X text 479 93 ----------------------------------;
#X text -204 19 |;
#X text -204 30 |;
#X text -204 41 |;
#X obj 451 140 cnv 15 118 28 empty empty empty 20 12 0 14 -13330 -66577
0;
#X obj 453 142 cnv 15 114 24 empty empty empty 20 12 0 14 -204786 -66577
0;
#N canvas 970 523 695 521 FM_SYNTH_1 0;
#X msg 113 263 0;
#X msg -191 263 0;
#X obj -412 43 select 1 2 3 4 5;
#X msg -412 113 63;
#X msg -372 113 66;
#X msg -332 113 68;
#X msg -292 113 70;
#X obj -412 13 inlet segment;
#N canvas 337 419 479 450 _________________________________________FM_SYNTH_sends_1
0;
#X obj 49 373 s \$0-FM_SYNTH_trig_1;
#X obj 60 343 s \$0-FM_SYNTH_M_1;
#X obj 71 313 s \$0-FM_SYNTH_ec_1;
#X obj 83 283 s \$0-FM_SYNTH_es_1;
#X obj 94 253 s \$0-FM_SYNTH_et_1;
#X obj 106 223 s \$0-FM_SYNTH_ol_1;
#X obj 117 193 s \$0-FM_SYNTH_of_1;
#X obj 128 163 s \$0-FM_SYNTH_cf_1;
#X obj 140 133 s \$0-FM_SYNTH_mf_1;
#X obj 151 103 s \$0-FM_SYNTH_fmd_1;
#X obj 163 73 s \$0-FM_SYNTH_fml_1;
#X obj 174 43 s \$0-FM_SYNTH_nl_1;
#X obj -111 313 inlet;
#X obj -100 283 inlet;
#X obj -89 253 inlet;
#X obj -77 223 inlet;
#X obj -66 193 inlet;
#X obj -54 163 inlet;
#X obj -43 133 inlet;
#X obj -32 103 inlet;
#X obj -20 73 inlet;
#X obj -9 43 inlet;
#X obj 3 13 inlet;
#X obj 14 -17 inlet;
#X connect 12 0 0 0;
#X connect 13 0 1 0;
#X connect 14 0 2 0;
#X connect 15 0 3 0;
#X connect 16 0 4 0;
#X connect 17 0 5 0;
#X connect 18 0 6 0;
#X connect 19 0 7 0;
#X connect 20 0 8 0;
#X connect 21 0 9 0;
#X connect 22 0 10 0;
#X connect 23 0 11 0;
#X restore -304 483 pd _________________________________________FM_SYNTH_sends_1
;
#X obj -85 23 loadbang;
#X obj -85 63 bng 15 250 50 0 empty empty empty 17 7 0 10 -262144 -1
-1;
#X msg -229 263 0.5;
#X msg -252 113 73;
#X obj -412 193 mtof;
#X msg -85 263 0;
#X msg 75 263 1;
#X obj -412 263 trigger b a a a a;
#X obj -412 223 / 2;
#X obj -59 418 * 0.99;
#X obj 2 417 * 0.99;
#X msg -267 263 0.3;
#X text 70 149 stop;
#X obj 138 13 inlet agitation;
#X obj 138 228 s \$0-FM2chop_1;
#X msg -153 263 100 \$1;
#X msg -153 233 1;
#X msg 38 148 0;
#X obj 38 93 once;
#X obj 38 53 moses 0.001;
#X obj 138 53 moses 0.04;
#X obj 205 93 once;
#X obj 205 183 line;
#X msg 205 141 1 50;
#X msg 138 141 0 50;
#X connect 0 0 8 11;
#X connect 1 0 8 3;
#X connect 2 0 3 0;
#X connect 2 1 4 0;
#X connect 2 2 5 0;
#X connect 2 3 6 0;
#X connect 2 4 12 0;
#X connect 3 0 13 0;
#X connect 4 0 13 0;
#X connect 5 0 13 0;
#X connect 6 0 13 0;
#X connect 7 0 2 0;
#X connect 9 0 10 0;
#X connect 10 0 20 0;
#X connect 10 0 1 0;
#X connect 10 0 0 0;
#X connect 10 0 11 0;
#X connect 10 0 14 0;
#X connect 10 0 15 0;
#X connect 10 0 25 0;
#X connect 11 0 8 2;
#X connect 12 0 13 0;
#X connect 13 0 17 0;
#X connect 14 0 8 5;
#X connect 15 0 8 10;
#X connect 16 0 8 0;
#X connect 16 1 8 6;
#X connect 16 2 8 7;
#X connect 16 3 18 0;
#X connect 16 4 19 0;
#X connect 17 0 16 0;
#X connect 18 0 8 8;
#X connect 19 0 8 9;
#X connect 20 0 8 1;
#X connect 22 0 28 0;
#X connect 22 0 29 0;
#X connect 24 0 8 4;
#X connect 25 0 24 0;
#X connect 26 0 24 0;
#X connect 27 0 26 0;
#X connect 28 0 27 0;
#X connect 28 1 27 1;
#X connect 29 0 30 1;
#X connect 29 0 33 0;
#X connect 29 1 30 0;
#X connect 30 0 32 0;
#X connect 31 0 23 0;
#X connect 32 0 31 0;
#X connect 33 0 31 0;
#X restore 463 144 pd FM_SYNTH_1;
#X obj 567 114 r \$0-agit_1;
#X obj 463 114 r \$0-class_1;
#X obj -7 114 r \$0-agit_1;
#X obj 203 -31 s \$0-xyz_filt_1;
#X obj 460 62 cnv 15 95 26 empty empty empty 20 12 0 14 -162280 -66577
0;
#X obj 460 62 cnv 15 93 24 empty empty empty 20 12 0 14 -1 -66577 0
;
#X obj 463 -221 plot_xyz;
#X obj 658 -241 bng 15 250 50 0 empty \$0-plot_xyz_rs reset 17 7 0
10 -203904 -1 -1;
#X obj 633 -241 tgl 15 0 empty \$0-plot_xyz_as autoscale -56 7 0 10
-232576 -1 -1 0 1;
#X obj 582 -111 r \$0-seg_1;
#X obj 463 64 s \$0-class_1;
#X floatatom 582 64 5 0 0 0 - - -;
#X obj 463 -271 r \$0-xyz_filt_1;
#N canvas 928 469 512 296 simple_pose_recognition 0;
#X obj 52 27 vsl 10 60 0 50 0 0 empty empty empty 0 -9 0 10 -262144
-1 -1 5900 1;
#X floatatom 52 92 5 0 0 0 - - -;
#X obj 91 27 vsl 10 60 0 50 0 0 empty empty empty 0 -9 0 10 -262144
-1 -1 5900 1;
#X floatatom 91 92 5 0 0 0 - - -;
#X obj 130 27 vsl 10 60 0 50 0 0 empty empty empty 0 -9 0 10 -262144
-1 -1 5900 1;
#X floatatom 130 92 5 0 0 0 - - -;
#X floatatom 224 57 2 0 0 0 - #0-learned_n #0-learned_n_snd;
#X text 297 -5 gestures learned;
#X text 52 46 1;
#X text 91 46 2;
#X text 130 46 3;
#X floatatom 332 37 2 0 0 0 - #0-class -;
#X text 349 37 class detected;
#X obj 27 27 vsl 10 60 0 50 0 0 \$0-clth \$0-init_clth empty 0 -9 0
10 -228856 -258113 -1 944 0;
#X obj 1 27 vsl 10 60 0 50 0 0 \$0-ukth \$0-init_ukth empty 0 -9 0
10 -191407 -258113 -1 5310 0;
#X text 27 21 c;
#X text 27 36 l;
#X text 27 47 a;
#X text 27 58 s;
#X text 27 70 s;
#X floatatom 1 92 3 0 0 0 - - -;
#X floatatom 27 92 3 0 0 0 - - -;
#X obj 200 -111 inlet segmentation border;
#X obj 52 -111 inlet xyz signal;
#X obj 169 27 vsl 10 60 0 50 0 0 empty empty empty 0 -9 0 10 -262144
-1 -1 5900 1;
#X floatatom 169 92 5 0 0 0 - - -;
#X obj 208 27 vsl 10 60 0 50 0 0 empty empty empty 0 -9 0 10 -262144
-1 -1 5900 1;
#X floatatom 208 92 5 0 0 0 - - -;
#X text 169 46 4;
#X text 1 36 n;
#X text 1 46 e;
#X text 1 57 w;
#X text 208 46 5;
#X obj 332 94 outlet;
#X obj 382 94 outlet;
#X text 247 94 <- classes;
#X obj 432 94 outlet;
#N canvas 770 284 232 330 set 0;
#X obj 15 156 s \$0-init_ukth;
#X obj -25 196 s \$0-init_clth;
#X obj 15 6 loadbang;
#X obj -45 46 bng 15 250 50 0 empty empty empty 17 7 0 10 -262144 -1
-1;
#X obj -45 285 s \$0-set_wl_rcv;
#X obj -45 225 del;
#X msg -45 256 1000;
#X msg 15 126 45;
#X msg -25 166 8;
#X obj -45 6 inlet;
#X obj 15 86 s \$0-onn_reset;
#X connect 2 0 3 0;
#X connect 3 0 7 0;
#X connect 3 0 8 0;
#X connect 3 0 5 0;
#X connect 3 0 10 0;
#X connect 5 0 6 0;
#X connect 6 0 4 0;
#X connect 7 0 0 0;
#X connect 8 0 1 0;
#X connect 9 0 3 0;
#X restore 392 -81 pd set;
#X text 0 5 thres.;
#X obj 58 4 cnv 15 64 16 empty empty SIMPLE 0 10 1 14 -262144 -128992
0;
#X obj 117 4 cnv 15 40 16 empty empty POSE 0 10 1 14 -262144 -128992
0;
#X obj 163 4 cnv 15 40 16 empty empty LEARNING 0 10 1 14 -262144 -128992
0;
#X obj 224 31 bng 16 250 50 0 empty \$0-newg empty 17 7 0 10 -99865
-4034 -1;
#X obj 200 -81 s \$0-segbord;
#N canvas 119 193 844 553 one_nearest_neighbour 0;
#X obj -486 493 outlet;
#X obj -366 493 outlet;
#X obj -246 493 outlet;
#X obj -603 492 s \$0-class;
#X obj -126 493 outlet;
#X obj -6 493 outlet;
#X obj -613 13 inlet;
#X obj -613 53 s \$0-xyz_ml;
#X obj -214 273 cup;
#X obj -186 13 r \$0-m1_tgl;
#X obj -313 133 spigot;
#X msg 83 173 0;
#X obj -289 313 select 1 2 3 4 5;
#X obj -313 223 once;
#X obj -281 193 delay;
#X obj -249 163 r \$0-set_wl_rcv;
#X obj -313 163 t b b;
#N canvas 912 412 359 488 unkown_th 0;
#X obj 45 433 outlet;
#X obj 192 313 r \$0-lastg;
#X msg 192 343 0;
#X obj 242 433 s \$0-unknowng;
#X obj 45 313 spigot;
#X obj 242 393 spigot;
#X msg 72 213 0;
#X msg 122 213 1;
#X obj 45 133 average 10;
#X obj 172 253 trigger b a a;
#N canvas 652 573 133 163 ukth 0;
#X obj 10 42 moses;
#X msg 57 72 1;
#X obj 10 12 inlet;
#X obj 57 122 outlet;
#X msg 10 72 0;
#X obj 57 12 r \$0-ukth;
#X connect 0 0 4 0;
#X connect 0 1 1 0;
#X connect 1 0 3 0;
#X connect 2 0 0 0;
#X connect 4 0 3 0;
#X connect 5 0 0 1;
#X connect 5 0 1 0;
#X restore 7 43 pd ukth;
#X obj 7 13 inlet;
#X obj 182 213 s \$0-init_ukth;
#X obj 182 173 bang;
#X obj 67 13 inlet;
#X obj 127 13 inlet;
#X obj 187 13 inlet;
#X obj 246 13 inlet;
#X obj 45 93 expr $f1+$f2+$f3+$f4+$f5;
#X obj 172 133 r \$0-m1_tgl;
#X obj 45 173 select 5;
#N canvas 652 573 133 163 ukth 0;
#X obj 10 42 moses;
#X msg 57 72 1;
#X obj 10 12 inlet;
#X obj 57 122 outlet;
#X msg 10 72 0;
#X obj 57 12 r \$0-ukth;
#X connect 0 0 4 0;
#X connect 0 1 1 0;
#X connect 1 0 3 0;
#X connect 2 0 0 0;
#X connect 4 0 3 0;
#X connect 5 0 0 1;
#X connect 5 0 1 0;
#X restore 67 43 pd ukth;
#N canvas 652 573 133 163 ukth 0;
#X obj 10 42 moses;
#X msg 57 72 1;
#X obj 10 12 inlet;
#X obj 57 122 outlet;
#X msg 10 72 0;
#X obj 57 12 r \$0-ukth;
#X connect 0 0 4 0;
#X connect 0 1 1 0;
#X connect 1 0 3 0;
#X connect 2 0 0 0;
#X connect 4 0 3 0;
#X connect 5 0 0 1;
#X connect 5 0 1 0;
#X restore 127 43 pd ukth;
#N canvas 652 573 133 163 ukth 0;
#X obj 10 42 moses;
#X msg 57 72 1;
#X obj 10 12 inlet;
#X obj 57 122 outlet;
#X msg 10 72 0;
#X obj 57 12 r \$0-ukth;
#X connect 0 0 4 0;
#X connect 0 1 1 0;
#X connect 1 0 3 0;
#X connect 2 0 0 0;
#X connect 4 0 3 0;
#X connect 5 0 0 1;
#X connect 5 0 1 0;
#X restore 187 43 pd ukth;
#N canvas 652 573 133 163 ukth 0;
#X obj 10 42 moses;
#X msg 57 72 1;
#X obj 10 12 inlet;
#X obj 57 122 outlet;
#X msg 10 72 0;
#X obj 57 12 r \$0-ukth;
#X connect 0 0 4 0;
#X connect 0 1 1 0;
#X connect 1 0 3 0;
#X connect 2 0 0 0;
#X connect 4 0 3 0;
#X connect 5 0 0 1;
#X connect 5 0 1 0;
#X restore 246 43 pd ukth;
#X connect 1 0 2 0;
#X connect 2 0 5 1;
#X connect 4 0 0 0;
#X connect 4 0 5 0;
#X connect 4 0 6 0;
#X connect 5 0 3 0;
#X connect 6 0 4 1;
#X connect 7 0 4 1;
#X connect 8 0 20 0;
#X connect 9 0 4 0;
#X connect 9 1 4 1;
#X connect 9 2 5 1;
#X connect 10 0 18 0;
#X connect 11 0 10 0;
#X connect 13 0 12 0;
#X connect 14 0 21 0;
#X connect 15 0 22 0;
#X connect 16 0 23 0;
#X connect 17 0 24 0;
#X connect 18 0 8 0;
#X connect 19 0 9 0;
#X connect 19 0 13 0;
#X connect 20 0 4 0;
#X connect 20 1 7 0;
#X connect 21 0 18 1;
#X connect 22 0 18 2;
#X connect 23 0 18 3;
#X connect 24 0 18 4;
#X restore 67 463 pd unkown_th;
#X msg -114 223 1;
#X obj -313 13 r \$0-newg;
#X obj 67 493 s \$0-newg;
#X obj -137 313 s \$0-learned_n;
#X msg -274 103 1;
#X obj -186 73 trigger any bang bang;
#N canvas 540 196 393 414 findclass 0;
#X obj 17 23 inlet;
#X obj 77 23 inlet;
#X obj 137 23 inlet;
#X obj 197 23 inlet;
#X obj 256 23 inlet;
#X obj 17 333 outlet;
#X obj 17 273 list-findmin;
#X obj 98 212 loadbang;
#X msg 98 243 5;
#X obj 17 183 pack f f f f f;
#X obj 17 133 moses;
#X obj 77 133 moses;
#X obj 137 133 moses;
#X obj 197 133 moses;
#X obj 256 133 moses;
#X obj 316 53 r \$0-clth;
#X obj 17 303 change;
#X connect 0 0 10 0;
#X connect 1 0 11 0;
#X connect 2 0 12 0;
#X connect 3 0 13 0;
#X connect 4 0 14 0;
#X connect 6 0 16 0;
#X connect 7 0 8 0;
#X connect 8 0 6 1;
#X connect 9 0 6 0;
#X connect 10 0 9 0;
#X connect 11 0 9 1;
#X connect 12 0 9 2;
#X connect 13 0 9 3;
#X connect 14 0 9 4;
#X connect 15 0 14 1;
#X connect 15 0 13 1;
#X connect 15 0 12 1;
#X connect 15 0 11 1;
#X connect 15 0 10 1;
#X connect 16 0 5 0;
#X restore -603 452 pd findclass;
#X obj -486 373 posedist_xyz \$0;
#X obj -366 373 posedist_xyz \$0;
#X obj -246 373 posedist_xyz \$0;
#X obj -126 373 posedist_xyz \$0;
#X obj -6 373 posedist_xyz \$0;
#X obj -86 13 r \$0-onn_reset;
#X msg -86 46 1;
#X connect 6 0 7 0;
#X connect 8 0 12 0;
#X connect 8 0 21 0;
#X connect 9 0 23 0;
#X connect 10 0 16 0;
#X connect 11 0 10 1;
#X connect 11 0 21 0;
#X connect 12 0 25 0;
#X connect 12 1 26 0;
#X connect 12 2 27 0;
#X connect 12 3 28 0;
#X connect 12 4 11 0;
#X connect 12 4 29 0;
#X connect 13 0 8 0;
#X connect 14 0 13 1;
#X connect 15 0 14 1;
#X connect 16 0 13 0;
#X connect 16 1 14 0;
#X connect 17 0 20 0;
#X connect 18 0 8 0;
#X connect 18 0 13 1;
#X connect 19 0 10 0;
#X connect 22 0 10 1;
#X connect 23 0 22 0;
#X connect 23 1 18 0;
#X connect 23 2 11 0;
#X connect 24 0 3 0;
#X connect 25 0 0 0;
#X connect 25 0 17 0;
#X connect 25 0 24 0;
#X connect 26 0 1 0;
#X connect 26 0 17 1;
#X connect 26 0 24 1;
#X connect 27 0 2 0;
#X connect 27 0 17 2;
#X connect 27 0 24 2;
#X connect 28 0 4 0;
#X connect 28 0 17 3;
#X connect 28 0 24 3;
#X connect 29 0 5 0;
#X connect 29 0 17 4;
#X connect 29 0 24 4;
#X connect 30 0 31 0;
#X connect 31 0 23 0;
#X restore 52 -51 pd one_nearest_neighbour;
#X obj 392 -111 inlet reset;
#X connect 0 0 1 0;
#X connect 2 0 3 0;
#X connect 4 0 5 0;
#X connect 11 0 33 0;
#X connect 11 0 34 0;
#X connect 11 0 36 0;
#X connect 13 0 21 0;
#X connect 14 0 20 0;
#X connect 22 0 43 0;
#X connect 23 0 44 0;
#X connect 24 0 25 0;
#X connect 26 0 27 0;
#X connect 44 0 0 0;
#X connect 44 1 2 0;
#X connect 44 2 4 0;
#X connect 44 3 24 0;
#X connect 44 4 26 0;
#X connect 45 0 37 0;
#X coords 0 -1 1 1 245 116 2 0 0;
#X restore 463 -81 pd simple_pose_recognition;
#X obj 701 -107 bng 15 250 50 0 empty \$0-plot_xyz_rs reset -32 7 0
10 -99865 -232576 -1;
#X connect 45 0 9 0;
#X connect 58 0 59 0;
#X connect 58 2 107 0;
#X connect 59 0 60 0;
#X connect 59 0 65 0;
#X connect 61 0 95 0;
#X connect 61 0 66 0;
#X connect 61 0 82 0;
#X connect 62 0 95 1;
#X connect 62 0 66 1;
#X connect 62 0 82 1;
#X connect 63 0 95 2;
#X connect 63 0 66 2;
#X connect 63 0 82 2;
#X connect 66 0 64 0;
#X connect 66 0 57 0;
#X connect 66 0 94 0;
#X connect 69 0 68 0;
#X connect 69 0 67 0;
#X connect 79 0 80 0;
#X connect 81 0 90 0;
#X connect 82 0 85 0;
#X connect 82 1 93 0;
#X connect 82 2 86 0;
#X connect 89 0 90 1;
#X connect 95 0 58 0;
#X connect 95 1 58 1;
#X connect 95 2 58 2;
#X connect 95 3 58 3;
#X connect 104 0 103 1;
#X connect 105 0 103 0;
#X connect 106 0 96 0;
#X connect 110 0 117 0;
#X connect 111 0 110 1;
#X connect 112 0 110 1;
#X connect 113 0 117 1;
#X connect 116 0 110 0;
#X connect 117 0 114 0;
#X connect 117 1 115 0;
#X connect 118 0 117 2;
#X restore 42 61 pd mapping;
#X text 65 143 2018;
#X text 6 123 Juan Ignacio Mendoza;
#X text 44 2 RINGSPHERE;
#N canvas 156 365 1279 500 synthesis 1;
#X obj -563 6 vsl 15 60 0 1 0 0 empty empty empty 0 -9 0 10 -262144
-1 -1 0 1;
#X obj -563 -47 level;
#N canvas 440 312 948 333 phasor_synths 0;
#X obj -217 85 phasor_synth \$0 psf psq;
#X obj 143 275 outlet~;
#X obj -217 55 r \$0-ring_ctrl_1;
#X obj -37 55 r \$0-ring_ctrl_2;
#X obj 143 55 r \$0-ring_ctrl_3;
#X obj 323 55 r \$0-ring_ctrl_4;
#X obj 503 55 r \$0-ring_ctrl_5;
#X obj -37 85 phasor_synth \$0 psf psq;
#X obj 143 85 phasor_synth \$0 psf psq;
#X obj 323 85 phasor_synth \$0 psf psq;
#X obj 503 85 phasor_synth \$0 psf psq;
#X connect 0 0 1 0;
#X connect 2 0 0 0;
#X connect 3 0 7 0;
#X connect 4 0 8 0;
#X connect 5 0 9 0;
#X connect 6 0 10 0;
#X connect 7 0 1 0;
#X connect 8 0 1 0;
#X connect 9 0 1 0;
#X connect 10 0 1 0;
#X restore -588 -135 pd phasor_synths;
#X obj 363 5 master_level_8;
#N canvas 399 120 822 96 catches_8~ 0;
#X obj 18 28 catch~ \$0-M1;
#X obj 118 28 catch~ \$0-M2;
#X obj 218 28 catch~ \$0-M3;
#X obj 318 28 catch~ \$0-M4;
#X obj 418 28 catch~ \$0-M5;
#X obj 518 28 catch~ \$0-M6;
#X obj 618 28 catch~ \$0-M7;
#X obj 718 28 catch~ \$0-M8;
#X obj 18 68 outlet~;
#X obj 118 68 outlet~;
#X obj 218 68 outlet~;
#X obj 318 68 outlet~;
#X obj 418 68 outlet~;
#X obj 518 68 outlet~;
#X obj 618 68 outlet~;
#X obj 718 68 outlet~;
#X connect 0 0 8 0;
#X connect 1 0 9 0;
#X connect 2 0 10 0;
#X connect 3 0 11 0;
#X connect 4 0 12 0;
#X connect 5 0 13 0;
#X connect 6 0 14 0;
#X connect 7 0 15 0;
#X restore 422 -43 pd catches_8~;
#X obj -199 297 cnv 15 854 40 empty empty empty 20 12 0 14 -191407
-66577 0;
#X obj -197 299 cnv 15 850 36 empty empty empty 20 12 0 14 -262130
-66577 0;
#X obj -195 301 cnv 15 846 32 empty empty empty 20 12 0 14 -128992
-66577 0;
#X obj -185 301 cnv 15 44 32 empty empty AUDIO 2 16 0 14 -128992 -262130
0;
#X obj -75 301 cnv 15 28 32 empty empty OUT 2 16 0 14 -128992 -262130
0;
#X obj -36 229 audio_limiter;
#X obj -133 229 audio_limiter;
#X obj 158 229 audio_limiter;
#X obj 61 229 audio_limiter;
#X obj -133 307 dac~ 3;
#X obj -36 307 dac~ 4;
#X obj 61 307 dac~ 5;
#X obj 158 307 dac~ 6;
#X obj 578 -49 bng 30 250 50 0 mute_M empty m 7 12 0 28 -258113 -257985
-257985;
#X obj 578 -9 bng 30 250 50 0 recall_M empty R 7 15 0 28 -204786 -4160
-4160;
#X msg 382 -43 1;
#X text 581 -82 ALL;
#X text 610 -44 mute;
#X text 610 -4 recall;
#X text 439 -81 8-CHANNEL;
#X obj 354 229 audio_limiter;
#X obj 257 229 audio_limiter;
#X obj 548 229 audio_limiter;
#X obj 451 229 audio_limiter;
#X obj 257 307 dac~ 7;
#X obj 354 307 dac~ 8;
#X obj 451 307 dac~ 9;
#X obj 548 307 dac~ 10;
#X obj 323 -58 level;
#N canvas 266 399 162 309 chop_suey 0;
#X obj 56 71 t a a;
#X obj 56 41 r \$0-chop_t;
#X obj 30 161 chopper~;
#X obj 7 231 drywet~;
#X obj 53 201 r \$0-chop_mix;
#X obj 30 11 inlet~;
#X obj 7 261 outlet~;
#X msg 88 131 2 \$1 2;
#X obj 88 102 / 3;
#X connect 0 0 2 1;
#X connect 0 1 8 0;
#X connect 1 0 0 0;
#X connect 2 0 3 1;
#X connect 3 0 6 0;
#X connect 4 0 3 2;
#X connect 5 0 2 0;
#X connect 5 0 3 0;
#X connect 7 0 2 2;
#X connect 8 0 7 0;
#X restore -588 192 pd chop_suey;
#X obj -403 6 vsl 15 60 0 1 0 0 empty empty empty 0 -9 0 10 -262144
-1 -1 0 1;
#X obj -403 -47 level;
#X obj -428 -103 fm_synth;
#N canvas 205 22 899 450 __FM_SYNTH_receives_1__ 0;
#X obj 681 373 outlet;
#X obj 561 313 outlet;
#X obj 500 283 outlet;
#X obj 438 253 outlet;
#X obj 377 223 outlet;
#X obj 316 193 outlet;
#X obj 254 163 outlet;
#X obj 193 133 outlet;
#X obj 131 103 outlet;
#X obj 70 73 outlet;
#X obj 9 43 outlet;
#X obj 9 13 r \$0-FM_SYNTH_trig_1;
#X obj 70 43 r \$0-FM_SYNTH_M_1;
#X obj 131 73 r \$0-FM_SYNTH_ec_1;
#X obj 193 103 r \$0-FM_SYNTH_es_1;
#X obj 254 133 r \$0-FM_SYNTH_et_1;
#X obj 316 163 r \$0-FM_SYNTH_ol_1;
#X obj 377 193 r \$0-FM_SYNTH_of_1;
#X obj 438 223 r \$0-FM_SYNTH_cf_1;
#X obj 500 253 r \$0-FM_SYNTH_mf_1;
#X obj 561 283 r \$0-FM_SYNTH_fmd_1;
#X obj 621 313 r \$0-FM_SYNTH_fml_1;
#X obj 681 343 r \$0-FM_SYNTH_nl_1;
#X obj 621 343 outlet;
#X obj 741 403 outlet;
#X obj 741 373 r \$0-FM_SYNTH_onoff;
#X connect 11 0 10 0;
#X connect 12 0 9 0;
#X connect 13 0 8 0;
#X connect 14 0 7 0;
#X connect 15 0 6 0;
#X connect 16 0 5 0;
#X connect 17 0 4 0;
#X connect 18 0 3 0;
#X connect 19 0 2 0;
#X connect 20 0 1 0;
#X connect 21 0 23 0;
#X connect 22 0 0 0;
#X connect 25 0 24 0;
#X restore -428 -133 pd __FM_SYNTH_receives_1__;
#X msg -504 -32 0.8;
#X msg -344 -32 0.8;
#N canvas 399 120 822 96 throws_8~ 0;
#X obj 18 18 inlet~;
#X obj 18 58 throw~ \$0-M1;
#X obj 118 18 inlet~;
#X obj 218 18 inlet~;
#X obj 318 18 inlet~;
#X obj 418 18 inlet~;
#X obj 518 18 inlet~;
#X obj 618 18 inlet~;
#X obj 718 18 inlet~;
#X obj 118 58 throw~ \$0-M2;
#X obj 218 58 throw~ \$0-M3;
#X obj 318 58 throw~ \$0-M4;
#X obj 418 58 throw~ \$0-M5;
#X obj 518 58 throw~ \$0-M6;
#X obj 618 58 throw~ \$0-M7;
#X obj 718 58 throw~ \$0-M8;
#X connect 0 0 1 0;
#X connect 2 0 9 0;
#X connect 3 0 10 0;
#X connect 4 0 11 0;
#X connect 5 0 12 0;
#X connect 6 0 13 0;
#X connect 7 0 14 0;
#X connect 8 0 15 0;
#X restore 159 97 pd throws_8~;
#X obj 148 -28 cart2vbap_8;
#N canvas 834 560 1086 165 diffusion_yaw_1 0;
#X obj 84 121 outlet x;
#X obj 184 121 outlet y;
#X obj 84 21 r \$0-spat_x;
#X obj 184 21 r \$0-spat_y;
#X obj 575 21 r \$0-cart2vbap_reset;
#X obj 575 121 outlet reset;
#X obj 464 121 outlet spread;
#X msg 585 61 define_loudspeakers 2 -22 22 -67 67 -112 112 -157 157
;
#X obj 555 62 bng 15 250 50 0 empty empty empty 17 7 0 10 -262144 -1
-1;
#X obj 284 121 outlet A;
#X msg 464 91 2;
#X obj -75 121 outlet~;
#X msg 735 31 define_loudspeakers 2 -45 45 -135 135;
#X msg 575 91 define_loudspeakers 2 -22 22 -67 67 -112 112 -157 157
;
#X obj 354 121 outlet A-shift;
#X obj 284 21 r \$0-spat_A_1;
#X obj -75 21 r~ \$0-diffusion_yaw_1;
#X connect 2 0 0 0;
#X connect 3 0 1 0;
#X connect 4 0 13 0;
#X connect 4 0 10 0;
#X connect 8 0 13 0;
#X connect 10 0 6 0;
#X connect 13 0 5 0;
#X connect 15 0 9 0;
#X connect 16 0 11 0;
#X restore 148 -58 pd diffusion_yaw_1;
#X obj -588 300 s~ \$0-diffusion_yaw_1;
#X obj -428 192 granny-smasher;
#N canvas 381 569 752 136 grandma_receives 0;
#X obj 129 24 r \$0-GS_1_levels;
#X obj 269 24 r \$0-GS_1_randomness;
#X obj 439 24 r \$0-GS_1_mix;
#X obj 129 54 outlet;
#X obj 269 54 outlet;
#X obj 439 54 outlet;
#X obj 569 54 outlet;
#X obj 569 24 r \$0-GS_1_onoff;
#X obj -1 54 outlet;
#X obj -1 24 r \$0-GS_1_master;
#X connect 0 0 3 0;
#X connect 1 0 4 0;
#X connect 2 0 5 0;
#X connect 7 0 6 0;
#X connect 9 0 8 0;
#X restore -389 131 pd grandma_receives;
#X obj -428 161 *~ 0.1;
#X obj -538 70 r \$0-FM2chop_1;
#N canvas 1228 354 212 210 init_audio_devices 0;
#X obj 17 47 t a a a;
#X msg 63 77 \; pd dsp \$1;
#X obj 17 155 s \$0-GS_1_onoff;
#X obj 40 125 s \$0-FM_SYNTH_onoff;
#X obj 17 17 r \$0-tgl_masterswitch;
#X connect 0 0 2 0;
#X connect 0 1 3 0;
#X connect 0 2 1 0;
#X connect 4 0 0 0;
#X restore 501 -133 pd init_audio_devices;
#X obj -588 71 *~ 0;
#X obj -428 71 *~ 0;
#X obj -563 161 *~ 0;
#N canvas 399 120 822 96 throws_8~ 0;
#X obj 18 18 inlet~;
#X obj 18 58 throw~ \$0-M1;
#X obj 118 18 inlet~;
#X obj 218 18 inlet~;
#X obj 318 18 inlet~;
#X obj 418 18 inlet~;
#X obj 518 18 inlet~;
#X obj 618 18 inlet~;
#X obj 718 18 inlet~;
#X obj 118 58 throw~ \$0-M2;
#X obj 218 58 throw~ \$0-M3;
#X obj 318 58 throw~ \$0-M4;
#X obj 418 58 throw~ \$0-M5;
#X obj 518 58 throw~ \$0-M6;
#X obj 618 58 throw~ \$0-M7;
#X obj 718 58 throw~ \$0-M8;
#X connect 0 0 1 0;
#X connect 2 0 9 0;
#X connect 3 0 10 0;
#X connect 4 0 11 0;
#X connect 5 0 12 0;
#X connect 6 0 13 0;
#X connect 7 0 14 0;
#X connect 8 0 15 0;
#X restore -402 300 pd throws_8~;
#X obj -203 119 audio_limiter;
#X obj -93 119 audio_limiter;
#X obj -203 197 dac~ 1;
#X obj -93 197 dac~ 2;
#X connect 0 0 50 1;
#X connect 1 0 0 0;
#X connect 1 1 39 0;
#X connect 2 0 50 0;
#X connect 3 0 11 0;
#X connect 3 1 10 0;
#X connect 3 2 13 0;
#X connect 3 3 12 0;
#X connect 3 4 26 0;
#X connect 3 5 25 0;
#X connect 3 6 28 0;
#X connect 3 7 27 0;
#X connect 4 0 3 1;
#X connect 4 0 54 0;
#X connect 4 1 3 2;
#X connect 4 1 55 0;
#X connect 4 2 3 3;
#X connect 4 2 54 0;
#X connect 4 3 3 4;
#X connect 4 3 55 0;
#X connect 4 4 3 5;
#X connect 4 4 54 0;
#X connect 4 5 3 6;
#X connect 4 5 55 0;
#X connect 4 6 3 7;
#X connect 4 6 54 0;
#X connect 4 7 3 8;
#X connect 4 7 55 0;
#X connect 10 0 15 0;
#X connect 11 0 14 0;
#X connect 12 0 17 0;
#X connect 13 0 16 0;
#X connect 20 0 33 1;
#X connect 25 0 30 0;
#X connect 26 0 29 0;
#X connect 27 0 32 0;
#X connect 28 0 31 0;
#X connect 33 0 3 0;
#X connect 33 1 20 0;
#X connect 34 0 44 0;
#X connect 35 0 51 1;
#X connect 36 0 35 0;
#X connect 36 1 40 0;
#X connect 37 0 51 0;
#X connect 38 0 37 0;
#X connect 38 1 37 1;
#X connect 38 2 37 2;
#X connect 38 3 37 3;
#X connect 38 4 37 4;
#X connect 38 5 37 5;
#X connect 38 6 37 6;
#X connect 38 7 37 7;
#X connect 38 8 37 8;
#X connect 38 9 37 9;
#X connect 38 10 37 10;
#X connect 38 11 37 11;
#X connect 38 12 37 12;
#X connect 39 0 1 1;
#X connect 40 0 36 1;
#X connect 42 0 41 0;
#X connect 42 1 41 1;
#X connect 42 2 41 2;
#X connect 42 3 41 3;
#X connect 42 4 41 4;
#X connect 42 5 41 5;
#X connect 42 6 41 6;
#X connect 42 7 41 7;
#X connect 43 0 42 0;
#X connect 43 1 42 1;
#X connect 43 2 42 2;
#X connect 43 3 42 3;
#X connect 43 5 42 5;
#X connect 43 6 42 6;
#X connect 45 0 53 2;
#X connect 45 1 53 5;
#X connect 46 0 47 1;
#X connect 46 1 45 2;
#X connect 46 2 45 3;
#X connect 46 3 45 4;
#X connect 46 4 45 5;
#X connect 47 0 45 0;
#X connect 48 0 52 1;
#X connect 50 0 34 0;
#X connect 51 0 52 0;
#X connect 51 0 47 0;
#X connect 52 0 34 0;
#X connect 54 0 56 0;
#X connect 55 0 57 0;
#X restore 36 94 pd synthesis;
