#N canvas 259 294 356 458 12;
#N canvas 1051 362 389 357 ROI 0;
#X msg 116 99 0.11 0.17 0.7 0.21;
#X obj 58 261 outlet;
#X obj 58 231 select 1;
#X obj -32 69 r \$0-d_x;
#X obj 46 69 r \$0-d_y;
#X obj 116 49 list_set_4_GUI;
#X obj 286 129 list;
#X obj 286 19 list;
#X text 121 26 pos.;
#X text 157 26 size;
#X text 201 26 pos.;
#X text 237 26 size;
#X text 117 6 __________;
#X text 184 15 |;
#X text 114 15 |;
#X text 197 6 __________;
#X text 264 15 |;
#X text 194 15 |;
#X text 149 0 X;
#X text 229 0 Y;
#X obj 58 199 rectangle_ROI;
#X obj 146 159 r \$0-h_3x4_d;
#X connect 0 0 6 0;
#X connect 0 0 20 2;
#X connect 2 0 1 0;
#X connect 3 0 20 0;
#X connect 4 0 20 1;
#X connect 5 0 0 0;
#X connect 6 0 7 0;
#X connect 7 0 5 4;
#X connect 20 0 2 0;
#X connect 21 0 20 4;
#X restore -195 30 pd ROI;
#X obj -158 61 bng 18 250 50 0 empty empty empty 17 7 0 10 -262144
-1 -1;
#X obj -195 90 s \$0-ROI;
#X msg -195 60 1;
#N canvas 635 268 382 263 ROI 0;
#X msg 116 99 0.14 0.18 0.08 0.12;
#X obj 58 231 outlet;
#X obj 58 201 select 1;
#X obj -32 69 r \$0-d_x;
#X obj 46 69 r \$0-d_y;
#X obj 116 49 list_set_4_GUI;
#X obj 286 129 list;
#X obj 286 19 list;
#X text 121 26 pos.;
#X text 157 26 size;
#X text 201 26 pos.;
#X text 237 26 size;
#X text 117 6 __________;
#X text 184 15 |;
#X text 114 15 |;
#X text 197 6 __________;
#X text 264 15 |;
#X text 194 15 |;
#X text 149 0 X;
#X text 229 0 Y;
#X obj 58 169 rectangle_ROI;
#X obj 146 139 r \$0-h_3x4_d;
#X connect 0 0 6 0;
#X connect 0 0 20 2;
#X connect 2 0 1 0;
#X connect 3 0 20 0;
#X connect 4 0 20 1;
#X connect 5 0 0 0;
#X connect 6 0 7 0;
#X connect 7 0 5 4;
#X connect 20 0 2 0;
#X connect 21 0 20 4;
#X restore -195 230 pd ROI;
#X obj -158 261 bng 18 250 50 0 empty empty empty 17 7 0 10 -262144
-1 -1;
#X obj -195 290 s \$0-ROI;
#X msg -195 260 3;
#N canvas 635 268 382 263 ROI 0;
#X msg 116 99 0.37 0.17 0.71 0.2;
#X obj 58 241 outlet;
#X obj 58 211 select 1;
#X obj -32 69 r \$0-d_x;
#X obj 46 69 r \$0-d_y;
#X obj 116 49 list_set_4_GUI;
#X obj 286 129 list;
#X obj 286 19 list;
#X text 121 26 pos.;
#X text 157 26 size;
#X text 201 26 pos.;
#X text 237 26 size;
#X text 117 6 __________;
#X text 184 15 |;
#X text 114 15 |;
#X text 197 6 __________;
#X text 264 15 |;
#X text 194 15 |;
#X text 149 0 X;
#X text 229 0 Y;
#X obj 58 179 rectangle_ROI;
#X obj 146 149 r \$0-h_3x4_d;
#X connect 0 0 6 0;
#X connect 0 0 20 2;
#X connect 2 0 1 0;
#X connect 3 0 20 0;
#X connect 4 0 20 1;
#X connect 5 0 0 0;
#X connect 6 0 7 0;
#X connect 7 0 5 4;
#X connect 20 0 2 0;
#X connect 21 0 20 4;
#X restore -115 30 pd ROI;
#X obj -78 61 bng 18 250 50 0 empty empty empty 17 7 0 10 -262144 -1
-1;
#X obj -115 90 s \$0-ROI;
#N canvas 635 268 382 263 ROI 0;
#X msg 116 99 0.37 0.15 0.07 0.13;
#X obj 58 231 outlet;
#X obj 58 201 select 1;
#X obj -32 69 r \$0-d_x;
#X obj 46 69 r \$0-d_y;
#X obj 116 49 list_set_4_GUI;
#X obj 286 129 list;
#X obj 286 19 list;
#X text 121 26 pos.;
#X text 157 26 size;
#X text 201 26 pos.;
#X text 237 26 size;
#X text 117 6 __________;
#X text 184 15 |;
#X text 114 15 |;
#X text 197 6 __________;
#X text 264 15 |;
#X text 194 15 |;
#X text 149 0 X;
#X text 229 0 Y;
#X obj 58 169 rectangle_ROI;
#X obj 146 143 r \$0-h_3x4_d;
#X connect 0 0 6 0;
#X connect 0 0 20 2;
#X connect 2 0 1 0;
#X connect 3 0 20 0;
#X connect 4 0 20 1;
#X connect 5 0 0 0;
#X connect 6 0 7 0;
#X connect 7 0 5 4;
#X connect 20 0 2 0;
#X connect 21 0 20 4;
#X restore -115 230 pd ROI;
#X obj -78 261 bng 18 250 50 0 empty empty empty 17 7 0 10 -262144
-1 -1;
#X obj -115 290 s \$0-ROI;
#X msg -115 60 4;
#X msg -115 261 6;
#N canvas 635 268 382 263 ROI 0;
#X msg 116 99 0.63 0.16 0.72 0.21;
#X obj 58 231 outlet;
#X obj 58 201 select 1;
#X obj -32 69 r \$0-d_x;
#X obj 46 69 r \$0-d_y;
#X obj 116 49 list_set_4_GUI;
#X obj 286 129 list;
#X obj 286 19 list;
#X text 121 26 pos.;
#X text 157 26 size;
#X text 201 26 pos.;
#X text 237 26 size;
#X text 117 6 __________;
#X text 184 15 |;
#X text 114 15 |;
#X text 197 6 __________;
#X text 264 15 |;
#X text 194 15 |;
#X text 149 0 X;
#X text 229 0 Y;
#X obj 58 169 rectangle_ROI;
#X obj 146 139 r \$0-h_3x4_d;
#X connect 0 0 6 0;
#X connect 0 0 20 2;
#X connect 2 0 1 0;
#X connect 3 0 20 0;
#X connect 4 0 20 1;
#X connect 5 0 0 0;
#X connect 6 0 7 0;
#X connect 7 0 5 4;
#X connect 20 0 2 0;
#X connect 21 0 20 4;
#X restore -35 30 pd ROI;
#X obj 2 61 bng 18 250 50 0 empty empty empty 17 7 0 10 -262144 -1
-1;
#X obj -35 90 s \$0-ROI;
#N canvas 635 268 382 263 ROI 0;
#X msg 116 99 0.62 0.17 0.07 0.13;
#X obj 58 231 outlet;
#X obj 58 201 select 1;
#X obj -32 69 r \$0-d_x;
#X obj 46 69 r \$0-d_y;
#X obj 116 49 list_set_4_GUI;
#X obj 286 129 list;
#X obj 286 19 list;
#X text 121 26 pos.;
#X text 157 26 size;
#X text 201 26 pos.;
#X text 237 26 size;
#X text 117 6 __________;
#X text 184 15 |;
#X text 114 15 |;
#X text 197 6 __________;
#X text 264 15 |;
#X text 194 15 |;
#X text 149 0 X;
#X text 229 0 Y;
#X obj 58 169 rectangle_ROI;
#X obj 146 139 r \$0-h_3x4_d;
#X connect 0 0 6 0;
#X connect 0 0 20 2;
#X connect 2 0 1 0;
#X connect 3 0 20 0;
#X connect 4 0 20 1;
#X connect 5 0 0 0;
#X connect 6 0 7 0;
#X connect 7 0 5 4;
#X connect 20 0 2 0;
#X connect 21 0 20 4;
#X restore -35 230 pd ROI;
#X obj 2 261 bng 18 250 50 0 empty empty empty 17 7 0 10 -262144 -1
-1;
#X obj -35 290 s \$0-ROI;
#X msg -35 60 7;
#X msg -35 261 9;
#N canvas 635 268 382 263 ROI 0;
#X msg 116 99 0.89 0.19 0.68 0.19;
#X obj 58 241 outlet;
#X obj 58 211 select 1;
#X obj -32 69 r \$0-d_x;
#X obj 46 69 r \$0-d_y;
#X obj 116 49 list_set_4_GUI;
#X obj 286 129 list;
#X obj 286 19 list;
#X text 121 26 pos.;
#X text 157 26 size;
#X text 201 26 pos.;
#X text 237 26 size;
#X text 117 6 __________;
#X text 184 15 |;
#X text 114 15 |;
#X text 197 6 __________;
#X text 264 15 |;
#X text 194 15 |;
#X text 149 0 X;
#X text 229 0 Y;
#X obj 58 179 rectangle_ROI;
#X obj 146 149 r \$0-h_3x4_d;
#X connect 0 0 6 0;
#X connect 0 0 20 2;
#X connect 2 0 1 0;
#X connect 3 0 20 0;
#X connect 4 0 20 1;
#X connect 5 0 0 0;
#X connect 6 0 7 0;
#X connect 7 0 5 4;
#X connect 20 0 2 0;
#X connect 21 0 20 4;
#X restore 45 30 pd ROI;
#X obj 82 61 bng 18 250 50 0 empty empty empty 17 7 0 10 -262144 -1
-1;
#X obj 45 90 s \$0-ROI;
#N canvas 635 268 382 263 ROI 0;
#X msg 116 99 0.89 0.18 0.07 0.13;
#X obj 58 231 outlet;
#X obj 58 201 select 1;
#X obj -32 69 r \$0-d_x;
#X obj 46 69 r \$0-d_y;
#X obj 116 49 list_set_4_GUI;
#X obj 286 129 list;
#X obj 286 19 list;
#X text 121 26 pos.;
#X text 157 26 size;
#X text 201 26 pos.;
#X text 237 26 size;
#X text 117 6 __________;
#X text 184 15 |;
#X text 114 15 |;
#X text 197 6 __________;
#X text 264 15 |;
#X text 194 15 |;
#X text 149 0 X;
#X text 229 0 Y;
#X obj 58 169 rectangle_ROI;
#X obj 146 139 r \$0-h_3x4_d;
#X connect 0 0 6 0;
#X connect 0 0 20 2;
#X connect 2 0 1 0;
#X connect 3 0 20 0;
#X connect 4 0 20 1;
#X connect 5 0 0 0;
#X connect 6 0 7 0;
#X connect 7 0 5 4;
#X connect 20 0 2 0;
#X connect 21 0 20 4;
#X restore 45 230 pd ROI;
#X obj 82 261 bng 18 250 50 0 empty empty empty 17 7 0 10 -262144 -1
-1;
#X msg 45 60 10;
#X msg 45 261 12;
#X obj 45 290 s \$0-ROI;
#N canvas 635 268 382 263 ROI 0;
#X msg 116 99 0.12 0.18 0.37 0.22;
#X obj 58 231 outlet;
#X obj 58 201 select 1;
#X obj -32 69 r \$0-d_x;
#X obj 46 69 r \$0-d_y;
#X obj 116 49 list_set_4_GUI;
#X obj 286 129 list;
#X obj 286 19 list;
#X text 121 26 pos.;
#X text 157 26 size;
#X text 201 26 pos.;
#X text 237 26 size;
#X text 117 6 __________;
#X text 184 15 |;
#X text 114 15 |;
#X text 197 6 __________;
#X text 264 15 |;
#X text 194 15 |;
#X text 149 0 X;
#X text 229 0 Y;
#X obj 58 169 rectangle_ROI;
#X obj 146 139 r \$0-h_3x4_d;
#X connect 0 0 6 0;
#X connect 0 0 20 2;
#X connect 2 0 1 0;
#X connect 3 0 20 0;
#X connect 4 0 20 1;
#X connect 5 0 0 0;
#X connect 6 0 7 0;
#X connect 7 0 5 4;
#X connect 20 0 2 0;
#X connect 21 0 20 4;
#X restore -195 130 pd ROI;
#X obj -158 161 bng 18 250 50 0 empty empty empty 17 7 0 10 -262144
-1 -1;
#X obj -195 190 s \$0-ROI;
#X msg -195 160 2;
#N canvas 635 268 382 263 ROI 0;
#X msg 116 99 0.37 0.14 0.35 0.22;
#X obj 58 241 outlet;
#X obj 58 211 select 1;
#X obj -32 69 r \$0-d_x;
#X obj 46 69 r \$0-d_y;
#X obj 116 49 list_set_4_GUI;
#X obj 286 129 list;
#X obj 286 19 list;
#X text 121 26 pos.;
#X text 157 26 size;
#X text 201 26 pos.;
#X text 237 26 size;
#X text 117 6 __________;
#X text 184 15 |;
#X text 114 15 |;
#X text 197 6 __________;
#X text 264 15 |;
#X text 194 15 |;
#X text 149 0 X;
#X text 229 0 Y;
#X obj 58 179 rectangle_ROI;
#X obj 146 149 r \$0-h_3x4_d;
#X connect 0 0 6 0;
#X connect 0 0 20 2;
#X connect 2 0 1 0;
#X connect 3 0 20 0;
#X connect 4 0 20 1;
#X connect 5 0 0 0;
#X connect 6 0 7 0;
#X connect 7 0 5 4;
#X connect 20 0 2 0;
#X connect 21 0 20 4;
#X restore -115 130 pd ROI;
#X obj -78 161 bng 18 250 50 0 empty empty empty 17 7 0 10 -262144
-1 -1;
#X obj -115 190 s \$0-ROI;
#X msg -115 160 5;
#N canvas 635 268 382 263 ROI 0;
#X msg 116 99 0.63 0.16 0.35 0.22;
#X obj 58 231 outlet;
#X obj 58 201 select 1;
#X obj -32 69 r \$0-d_x;
#X obj 46 69 r \$0-d_y;
#X obj 116 49 list_set_4_GUI;
#X obj 286 129 list;
#X obj 286 19 list;
#X text 121 26 pos.;
#X text 157 26 size;
#X text 201 26 pos.;
#X text 237 26 size;
#X text 117 6 __________;
#X text 184 15 |;
#X text 114 15 |;
#X text 197 6 __________;
#X text 264 15 |;
#X text 194 15 |;
#X text 149 0 X;
#X text 229 0 Y;
#X obj 58 169 rectangle_ROI;
#X obj 146 139 r \$0-h_3x4_d;
#X connect 0 0 6 0;
#X connect 0 0 20 2;
#X connect 2 0 1 0;
#X connect 3 0 20 0;
#X connect 4 0 20 1;
#X connect 5 0 0 0;
#X connect 6 0 7 0;
#X connect 7 0 5 4;
#X connect 20 0 2 0;
#X connect 21 0 20 4;
#X restore -35 130 pd ROI;
#X obj 2 161 bng 18 250 50 0 empty empty empty 17 7 0 10 -262144 -1
-1;
#X obj -35 190 s \$0-ROI;
#X msg -35 160 8;
#N canvas 637 268 382 263 ROI 0;
#X msg 116 99 0.89 0.19 0.35 0.23;
#X obj 58 231 outlet;
#X obj 58 201 select 1;
#X obj -32 69 r \$0-d_x;
#X obj 46 69 r \$0-d_y;
#X obj 116 49 list_set_4_GUI;
#X obj 286 129 list;
#X obj 286 19 list;
#X text 121 26 pos.;
#X text 157 26 size;
#X text 201 26 pos.;
#X text 237 26 size;
#X text 117 6 __________;
#X text 184 15 |;
#X text 114 15 |;
#X text 197 6 __________;
#X text 264 15 |;
#X text 194 15 |;
#X text 149 0 X;
#X text 229 0 Y;
#X obj 58 169 rectangle_ROI;
#X obj 146 139 r \$0-h_3x4_d;
#X connect 0 0 6 0;
#X connect 0 0 20 2;
#X connect 2 0 1 0;
#X connect 3 0 20 0;
#X connect 4 0 20 1;
#X connect 5 0 0 0;
#X connect 6 0 7 0;
#X connect 7 0 5 4;
#X connect 20 0 2 0;
#X connect 21 0 20 4;
#X restore 45 130 pd ROI;
#X obj 82 161 bng 18 250 50 0 empty empty empty 17 7 0 10 -262144 -1
-1;
#X obj 45 190 s \$0-ROI;
#X msg 45 160 11;
#X obj -192 -41 inlet x;
#X obj -114 -41 inlet y;
#X obj -192 -11 s \$0-d_x;
#X obj -114 -11 s \$0-d_y;
#X obj -195 330 r \$0-ROI;
#X obj -195 360 outlet;
#X obj -13 -11 s \$0-h_3x4_d;
#X obj -13 -41 inlet onoff;
#X connect 0 0 3 0;
#X connect 0 0 1 0;
#X connect 3 0 2 0;
#X connect 4 0 7 0;
#X connect 4 0 5 0;
#X connect 7 0 6 0;
#X connect 8 0 14 0;
#X connect 8 0 9 0;
#X connect 11 0 15 0;
#X connect 11 0 12 0;
#X connect 14 0 10 0;
#X connect 15 0 13 0;
#X connect 16 0 22 0;
#X connect 16 0 17 0;
#X connect 19 0 23 0;
#X connect 19 0 20 0;
#X connect 22 0 18 0;
#X connect 23 0 21 0;
#X connect 24 0 29 0;
#X connect 24 0 25 0;
#X connect 27 0 30 0;
#X connect 27 0 28 0;
#X connect 29 0 26 0;
#X connect 30 0 31 0;
#X connect 32 0 35 0;
#X connect 32 0 33 0;
#X connect 35 0 34 0;
#X connect 36 0 39 0;
#X connect 36 0 37 0;
#X connect 39 0 38 0;
#X connect 40 0 43 0;
#X connect 40 0 41 0;
#X connect 43 0 42 0;
#X connect 44 0 47 0;
#X connect 44 0 45 0;
#X connect 47 0 46 0;
#X connect 48 0 50 0;
#X connect 49 0 51 0;
#X connect 52 0 53 0;
#X connect 55 0 54 0;
