#N canvas 816 23 474 825 12;
#X msg 269 -289 16;
#X obj 216 -319 select 0;
#X obj 73 2 tgl 98 0 empty empty empty 0 0 0 10 -262144 -262144 -262144
0 1;
#X text 137 270 Juan I. Mendoza - 2018;
#X obj 72 0 cnv 100 100 100 empty \$0-circle_rcv • -18 48 2 388 -262144
-258699 0;
#X msg 216 -289 13;
#X obj 73 -99 moses 1;
#X obj 5 -99 loadbang;
#X obj 119 51 cnv 10 34 28 empty \$0-numdisp_out_rcv empty 4 18 1 24
-258699 -66577 0;
#X obj 90 51 cnv 10 28 28 empty \$0-txt_rcv out: 0 16 1 18 -258699
-66577 0;
#X obj 119 22 cnv 10 34 28 empty \$0-numdisp_in_rcv empty 4 18 1 24
-258699 -66577 0;
#X obj 90 22 cnv 10 28 28 empty \$0-txt_rcv in: 10 16 1 18 -258699
-66577 0;
#X obj 41 -509 inlet notein vel;
#X obj 19 221 outlet noteout vel;
#X obj 11 -409 select;
#X obj 111 -169 pack f f;
#X obj 11 -219 f;
#X obj 111 -139 s \$0-noteout vel;
#X obj 19 191 r \$0-noteout vel;
#X msg 73 -139 \$2;
#X obj 216 -509 inlet set_notein;
#X obj 336 -509 inlet set_noteout;
#X obj 253 161 s \$0-circle_rcv;
#X msg 253 131 color 0 0 \$1;
#X obj 296 -199 pack f s;
#X obj 317 -259 l2s;
#X msg 296 -169 color \$1 0 2 \, label \$2;
#X obj 296 -139 s \$0-numdisp_in_rcv;
#X obj 263 41 pack f s;
#X obj 284 -19 l2s;
#X msg 263 71 color \$1 0 2 \, label \$2;
#X obj 263 101 s \$0-numdisp_out_rcv;
#X obj 239 -259 f;
#X obj 216 -479 s \$0-set_notein;
#X obj 317 -349 r \$0-set_notein;
#X obj 336 -479 s \$0-set_noteout;
#X obj 284 -109 r \$0-set_noteout;
#X obj 29 -249 r \$0-set_noteout;
#X obj 50 -439 r \$0-set_notein;
#X obj 239 221 s \$0-txt_rcv;
#X msg 239 191 color \$1 0 2;
#X obj 317 -229 t b a;
#X obj 284 11 t b a;
#X obj 327 -319 loadbang;
#X obj 294 -79 loadbang;
#X msg 327 -289 symbol;
#X msg 294 -49 symbol;
#X obj 41 -379 r \$0-tgl_snd;
#X obj 41 -479 unpack float float;
#X obj 216 -349 r \$0-tgl_disp;
#X msg 119 -69 1;
#X msg 73 -69 0;
#X obj 73 -39 s \$0-tgl_disp;
#X obj 73 111 s \$0-tgl_snd;
#X obj 41 -349 * 100;
#X obj 41 -309 trigger bang a;
#X connect 0 0 32 0;
#X connect 1 0 5 0;
#X connect 1 1 0 0;
#X connect 2 0 53 0;
#X connect 5 0 32 0;
#X connect 6 0 51 0;
#X connect 6 1 50 0;
#X connect 7 0 51 0;
#X connect 12 0 48 0;
#X connect 14 0 16 0;
#X connect 15 0 17 0;
#X connect 15 0 19 0;
#X connect 16 0 15 0;
#X connect 18 0 13 0;
#X connect 19 0 6 0;
#X connect 20 0 33 0;
#X connect 21 0 35 0;
#X connect 23 0 22 0;
#X connect 24 0 26 0;
#X connect 25 0 41 0;
#X connect 26 0 27 0;
#X connect 28 0 30 0;
#X connect 29 0 42 0;
#X connect 30 0 31 0;
#X connect 32 0 24 0;
#X connect 32 0 28 0;
#X connect 32 0 23 0;
#X connect 32 0 40 0;
#X connect 34 0 25 0;
#X connect 36 0 29 0;
#X connect 37 0 16 1;
#X connect 38 0 14 1;
#X connect 40 0 39 0;
#X connect 41 0 24 0;
#X connect 41 1 24 1;
#X connect 42 0 28 0;
#X connect 42 1 28 1;
#X connect 43 0 45 0;
#X connect 44 0 46 0;
#X connect 45 0 25 0;
#X connect 46 0 29 0;
#X connect 47 0 54 0;
#X connect 48 0 14 0;
#X connect 48 1 15 1;
#X connect 49 0 1 0;
#X connect 50 0 52 0;
#X connect 51 0 52 0;
#X connect 54 0 55 0;
#X connect 55 0 16 0;
#X connect 55 1 15 1;
#X coords 0 -1 1 1 100 100 2 72 0;
