#N canvas 1056 29 162 177 12;
#X declare -lib iemmatrix;
#X declare -lib list-abs;
#X declare -lib iemmatrix;
#X declare -lib list-abs;
#X declare -lib iemmatrix;
#X declare -lib hexloader;
#X declare -lib iemmatrix;
#X declare -lib hexloader;
#X declare -lib iemmatrix;
#X declare -lib iemmatrix;
#X declare -lib iemmatrix;
#X declare -lib iemmatrix;
#X declare -lib list-abs;
#X declare -lib iemmatrix;
#X declare -lib smlib;
#X declare -lib iemmatrix;
#X declare -lib iemmatrix;
#X declare -lib hexloader;
#X declare -lib iemmatrix;
#X declare -lib mrpeach;
#X declare -lib iemmatrix;
#X declare -lib iemmatrix;
#X text 8 123 Juan Ignacio Mendoza;
#X text 66 143 2019;
#X text 36 22 SEGMENTATION;
#X text 19 62 SYNTHETIC SIGNALS;
#X text 70 42 OF;
#X text 36 2 UNSUPERVISED;
#N canvas 500 -921 969 564 open 0;
#X text -335 308 ------------------------------------------------------------
;
#X text -337 48 |;
#X text -337 59 |;
#X text -337 70 |;
#X text -337 81 |;
#X text -337 103 |;
#X text -337 114 |;
#X text -337 125 |;
#X text -337 136 |;
#X text -337 147 |;
#X text -337 158 |;
#X text -337 169 |;
#X text -337 180 |;
#X text -337 191 |;
#X text -337 202 |;
#X text -337 213 |;
#X text -337 224 |;
#X text -337 235 |;
#X text -337 246 |;
#X text -337 257 |;
#X text -337 -67 |;
#X text -337 -56 |;
#X text -337 -45 |;
#X text -337 -34 |;
#X text -337 27 |;
#X text -337 38 |;
#X text -337 -80 |;
#X text -337 -82 |;
#X text -337 -69 |;
#X obj -280 134 novelty_3D;
#X text -337 6 |;
#X text -337 16 |;
#N canvas 657 22 337 225 novelty_3D_switches_______ 0;
#X obj 20 16 inlet;
#X obj 70 16 inlet;
#X obj 120 16 inlet;
#X obj 20 66 pack f f f;
#X obj 110 66 loadbang;
#X obj 110 96 delay 500;
#X obj 222 186 outlet reset;
#X obj 110 186 outlet params.;
#X obj 20 186 outlet xyz;
#X msg 110 136 20 0 0.1;
#X obj 222 16 r \$0-main_reset;
#X connect 0 0 3 0;
#X connect 1 0 3 1;
#X connect 2 0 3 2;
#X connect 3 0 8 0;
#X connect 4 0 5 0;
#X connect 5 0 9 0;
#X connect 9 0 7 0;
#X connect 10 0 6 0;
#X restore -280 104 pd novelty_3D_switches_______;
#X text 599 294 |;
#X text 599 305 |;
#X text 599 281 |;
#X text 599 292 |;
#X text -337 -115 |;
#X text -337 -104 |;
#X text -337 -93 |;
#X text -337 -118 |;
#X text -337 -120 |;
#X text -337 -107 |;
#X text -337 -153 |;
#X text -337 -142 |;
#X text -337 -131 |;
#X text -337 -166 |;
#X text -337 -168 |;
#X text -337 -155 |;
#X text -337 -190 |;
#X text -337 -179 |;
#X obj -10 -111 plot_xyz;
#X obj 202 -211 bng 15 250 50 0 empty \$0-main_reset empty 17 7 0 10
-203904 -1 -1;
#X obj -11 -186 miniplot;
#N canvas 258 204 379 106 novelty_3D_sends__________ 0;
#X obj -40 16 inlet;
#X obj 30 16 inlet;
#X obj 110 16 inlet;
#X obj 30 46 s \$0-bound;
#X obj -40 46 s \$0-nov;
#X obj 200 16 inlet;
#X obj 110 46 s \$0-rs_acc;
#X obj 200 46 s \$0-nov_params;
#X connect 0 0 4 0;
#X connect 1 0 3 0;
#X connect 2 0 6 0;
#X connect 5 0 7 0;
#X restore -280 254 pd novelty_3D_sends__________;
#X obj -11 -216 r \$0-nov;
#X obj -11 -136 r \$0-rs_acc;
#X text 85 308 ------------------------------------------------------------
;
#X floatatom 183 255 5 0 0 0 - - -;
#X msg 202 -21 clear;
#X obj 86 254 s \$0-endseg;
#X text -337 -212 |;
#X text -337 -201 |;
#X obj -10 254 s \$0-segment;
#N canvas 862 22 578 232 get_segment______________ 0;
#X obj 6 16 inlet xyz;
#X obj 146 46 r \$0-nov_params;
#X obj 146 75 unpack f f;
#X text 136 156 N_filt = N_nov * smooth;
#X obj 6 206 outlet xyz;
#X obj 359 206 outlet record/spit;
#X obj 6 176 listlag 0 3;
#X obj 86 16 inlet lag (samples);
#X obj 96 136 i;
#X text 130 136 lag = ((N_nov + N_filt) / 2) + 1;
#X msg 423 136 0;
#X msg 379 136 1;
#X obj 467 136 s \$0-startseg;
#X obj 379 46 r \$0-bound;
#X obj 379 76 trigger b b b;
#X obj 359 16 inlet record/spit/clear;
#X obj 96 106 expr (( $f1 + $f1 * $f2 ) / 2) + 1;
#X obj 96 206 outlet lag;
#X connect 0 0 6 0;
#X connect 1 0 2 0;
#X connect 2 0 16 0;
#X connect 2 1 16 1;
#X connect 6 0 4 0;
#X connect 7 0 6 1;
#X connect 8 0 6 1;
#X connect 8 0 17 0;
#X connect 10 0 5 0;
#X connect 11 0 5 0;
#X connect 13 0 14 0;
#X connect 14 0 11 0;
#X connect 14 1 10 0;
#X connect 14 2 12 0;
#X connect 15 0 5 0;
#X connect 16 0 8 0;
#X restore -10 9 pd get_segment______________;
#X obj 503 9 tgl 20 0 empty \$0-main_reset empty 17 7 0 10 -262144
-1 -1 0 1;
#X msg 442 -66 0.5 0.1 0.9;
#X obj 318 -106 select 1 2 3;
#N canvas 0 22 351 307 number_repeater 0;
#X obj 35 256 outlet number;
#X obj 35 226 f;
#X obj 181 6 inlet repetitions;
#X obj 2 6 inlet number to repeat;
#X obj 62 96 f;
#X obj 227 256 outlet start;
#X obj 142 256 outlet end;
#X obj 62 126 until;
#X obj 142 226 select;
#X obj 2 46 t bang any bang;
#X obj 122 196 cup;
#X msg 122 156 1;
#X obj 62 156 t b b;
#X obj 265 96 delay;
#X connect 1 0 0 0;
#X connect 2 0 11 0;
#X connect 2 0 4 1;
#X connect 2 0 8 1;
#X connect 3 0 9 0;
#X connect 4 0 7 0;
#X connect 7 0 12 0;
#X connect 8 0 6 0;
#X connect 8 0 13 0;
#X connect 9 0 4 0;
#X connect 9 1 1 1;
#X connect 9 2 5 0;
#X connect 10 0 8 0;
#X connect 11 0 10 0;
#X connect 12 0 10 0;
#X connect 12 1 1 0;
#X connect 13 0 11 0;
#X restore 358 -136 pd number_repeater;
#X obj 511 -106 s \$0-startseg;
#X obj 419 -106 s \$0-endseg;
#X msg 318 -166 1;
#X msg 358 -166 2;
#X msg 398 -166 3;
#X obj 345 -21 s \$0-segment;
#X msg 345 -66 0.1 0.1 0.1;
#X msg 481 -166 4;
#X obj 481 -196 loadbang;
#X obj 345 284 s \$0-class;
#X obj 345 119 wekidtw_xyz;
#X text -337 303 |;
#X obj 345 89 wekidtw_xyz_manager;
#N canvas 0 22 474 212 wekidtw_xyz__inputs_ 0;
#X obj 1 168 outlet;
#X obj 61 168 outlet;
#X obj 191 168 outlet;
#X obj 251 168 outlet;
#X obj 1 39 r \$0-segment;
#X msg 261 68 3;
#X obj 61 78 r \$0-startseg;
#X msg 61 108 1;
#X msg 101 138 0;
#X obj 101 108 r \$0-endseg;
#X obj 331 168 outlet;
#X obj 251 138 r \$0-class;
#X obj 331 8 inlet start/stop;
#X obj 191 8 inlet threshold;
#X connect 4 0 0 0;
#X connect 5 0 2 0;
#X connect 6 0 7 0;
#X connect 7 0 1 0;
#X connect 8 0 1 0;
#X connect 9 0 8 0;
#X connect 11 0 3 0;
#X connect 12 0 10 0;
#X connect 13 0 2 0;
#X restore 345 59 pd wekidtw_xyz__inputs_;
#X obj -10 69 snapshot_xyz;
#X msg 248 -66 0.1 0.9 0.8;
#X text -314 289 (*) = check for ports in "pd information" inside wekidtw_xyz
;
#X obj -252 6 vradio 15 1 0 4 empty empty empty 0 -8 0 10 -262144 -1
-1 0;
#X text -281 2 off;
#X text -288 18 sine;
#X text -302 34 square;
#X text -316 49 triangle;
#X obj 212 85 bng 30 250 50 0 empty empty empty 17 7 0 10 -258113 -261234
-1;
#N canvas 266 485 520 277 continuous_signals 0;
#X obj 19 219 outlet acc_y;
#X obj 119 219 outlet acc_z;
#X obj -81 219 outlet acc_x;
#X msg -64 52 0;
#X msg 56 52 saw;
#X msg -24 52 sin;
#X msg 16 52 sqr;
#X obj -4 146 test_signals;
#X msg 345 112 20;
#X msg 116 82 60;
#X msg 76 82 120;
#X msg 156 82 30;
#X obj -4 176 t a a a;
#X obj 345 12 loadbang;
#X obj -44 -18 inlet;
#X obj -44 12 select 0 1 2;
#X text 225 112 sample rate (Hz);
#X text 225 82 frequency (BPM);
#X msg 196 82 10;
#X text 6 -18 start function / stop (0);
#X connect 3 0 7 0;
#X connect 4 0 7 0;
#X connect 5 0 7 0;
#X connect 6 0 7 0;
#X connect 7 0 12 0;
#X connect 8 0 7 2;
#X connect 9 0 7 1;
#X connect 10 0 7 1;
#X connect 11 0 7 1;
#X connect 12 0 2 0;
#X connect 12 1 0 0;
#X connect 12 2 1 0;
#X connect 13 0 8 0;
#X connect 13 0 11 0;
#X connect 14 0 15 0;
#X connect 15 0 3 0;
#X connect 15 1 5 0;
#X connect 15 2 6 0;
#X connect 15 3 4 0;
#X connect 18 0 7 1;
#X restore -252 75 pd continuous_signals;
#X text -337 -25 |;
#X text -337 -14 |;
#X text -337 -4 |;
#X text 432 -187 |;
#X text 303 -187 |;
#X text -337 92 |;
#X text -233 -5 |;
#X text -233 3 |;
#X text -233 11 |;
#X text -233 39 |;
#X text -233 47 |;
#X text -233 55 |;
#X text -236 -15 _;
#X text -236 55 _;
#X text -230 26 >;
#X text -233 20 |;
#X text -233 34 |;
#X text 306 -196 _________;
#X text 372 -196 _________;
#X text 367 -192 ^;
#X text 248 82 reset;
#N canvas 0 22 163 133 reset 0;
#X obj 21 13 inlet;
#X obj 21 83 s \$0-main_reset;
#X msg 21 53 0;
#X connect 0 0 2 0;
#X connect 2 0 1 0;
#X restore 212 125 pd reset;
#X text 219 -221 reset;
#X text 219 -207 plots;
#X text -337 269 |;
#X text -337 279 |;
#X text -337 290 |;
#X text 248 96 everything;
#X text 182 276 size (samples);
#X obj -220 27 cnv 15 170 20 empty empty empty 20 12 0 14 -99865 -66577
0;
#X obj -219 28 cnv 15 168 18 empty empty empty 20 12 0 14 -261682 -66577
0;
#X text -218 27 CONTINUOUS TEST SIGNALS;
#X obj 284 -211 cnv 15 174 20 empty empty empty 20 12 0 14 -99865 -66577
0;
#X obj 285 -210 cnv 15 172 18 empty empty empty 20 12 0 14 -204800
-66577 0;
#X text 286 -211 SIMPLE DISCRETE SEGMENTS;
#X obj 398 27 cnv 15 78 20 empty empty empty 20 12 0 14 -99865 -66577
0;
#X obj 399 28 cnv 15 76 18 empty empty empty 20 12 0 14 -232576 -66577
0;
#X text 400 27 Wekinating;
#X obj 540 122 cnv 15 58 20 empty empty empty 20 12 0 14 -99865 -66577
0;
#X obj 541 123 cnv 15 56 18 empty empty empty 20 12 0 14 -203904 -66577
0;
#X text 514 142 wekidtw_xyz;
#X text 542 122 connect;
#X text -337 -235 |;
#X text -337 -224 |;
#X text 514 122 <--;
#X text 398 7 start/stop -->;
#X text 505 308 --------------;
#X obj -320 -225 cnv 15 288 220 empty empty empty 20 12 0 14 -233017
-66577 0;
#X text -314 -92 4) Either:;
#X text -294 -52 OR;
#X text -314 -222 INSTRUCTIONS:;
#X text -294 -172 at least 10 outputs(*).;
#X text -314 -192 1) Open a Wekinator DTW project with;
#X text -284 -32 Trigger;
#X obj -220 -33 cnv 15 170 20 empty empty empty 20 12 0 14 -99865 -66577
0;
#X obj -219 -32 cnv 15 168 18 empty empty empty 20 12 0 14 -261682
-66577 0;
#X text -218 -33 CONTINUOUS TEST SIGNALS;
#X text -284 -72 Trigger;
#X obj -220 -73 cnv 15 174 20 empty empty empty 20 12 0 14 -99865 -66577
0;
#X obj -219 -72 cnv 15 172 18 empty empty empty 20 12 0 14 -204800
-66577 0;
#X text -218 -73 SIMPLE DISCRETE SEGMENTS;
#X obj -250 -112 cnv 15 78 20 empty empty empty 20 12 0 14 -99865 -66577
0;
#X obj -249 -111 cnv 15 76 18 empty empty empty 20 12 0 14 -232576
-66577 0;
#X text -248 -112 Wekinating;
#X text -314 -112 3) start;
#X obj -292 -142 cnv 15 58 20 empty empty empty 20 12 0 14 -99865 -66577
0;
#X obj -291 -141 cnv 15 56 18 empty empty empty 20 12 0 14 -203904
-66577 0;
#X text -290 -142 connect;
#X text -314 -142 2);
#X text -228 -142 wekitdw_xyz;
#X floatatom 86 39 5 0 0 0 - - -;
#X text 16 46 (samples);
#X text 56 31 lag;
#X connect 29 0 54 0;
#X connect 29 1 54 1;
#X connect 29 2 54 2;
#X connect 29 3 54 3;
#X connect 32 0 29 0;
#X connect 32 1 29 1;
#X connect 32 2 29 2;
#X connect 51 0 64 0;
#X connect 52 0 51 1;
#X connect 52 0 53 1;
#X connect 52 0 59 0;
#X connect 55 0 53 0;
#X connect 56 0 51 0;
#X connect 59 0 64 2;
#X connect 64 0 83 0;
#X connect 64 1 163 0;
#X connect 64 2 83 2;
#X connect 65 0 82 1;
#X connect 66 0 74 0;
#X connect 67 0 84 0;
#X connect 67 1 75 0;
#X connect 67 2 66 0;
#X connect 68 0 67 0;
#X connect 68 1 70 0;
#X connect 68 2 69 0;
#X connect 71 0 68 0;
#X connect 72 0 68 0;
#X connect 73 0 68 0;
#X connect 75 0 74 0;
#X connect 76 0 68 1;
#X connect 77 0 76 0;
#X connect 79 0 78 0;
#X connect 81 0 79 0;
#X connect 81 1 79 1;
#X connect 82 0 81 0;
#X connect 82 1 81 1;
#X connect 82 2 81 2;
#X connect 82 3 81 3;
#X connect 82 4 81 4;
#X connect 83 0 63 0;
#X connect 83 1 60 0;
#X connect 83 2 58 0;
#X connect 84 0 74 0;
#X connect 86 0 92 0;
#X connect 91 0 114 0;
#X connect 92 0 32 0;
#X connect 92 1 32 1;
#X connect 92 2 32 2;
#X restore 38 91 pd open this;
