#N canvas 184 113 627 470 12;
#X declare -lib mrpeach;
#X obj 95 118 Wiimote_OSC;
#X obj 169 158 route /a;
#X obj 169 188 select 1;
#X msg 380 185 1;
#X obj -27 58 key;
#X obj 95 188 select 32;
#X msg 340 185 2;
#X obj 169 298 cup;
#X obj 5 414 select 5;
#X obj 189 58 ctlin;
#X msg 5 188 -1;
#X obj 260 58 metro 1000;
#X obj 260 155 cup;
#X msg 260 118 0;
#X obj 189 118 bang;
#X obj 260 185 select 20;
#X obj 189 88 spigot;
#X obj 33 118 spigot;
#X obj 380 58 loadbang;
#X obj 228 29 t a a;
#X obj 380 -2 inlet length;
#X obj 380 28 s \$0-length;
#X obj 58 388 r \$0-length;
#X obj 169 416 outlet;
#X obj 95 -2 inlet wiimote;
#X obj 228 -2 inlet taction_1;
#X obj -25 -2 inlet keyboard;
#X obj -135 -2 inlet anything;
#X obj -135 28 bang;
#X text -134 -22 next;
#X text 367 -22 output maximum;
#X text -27 -22 controller switches.................................
;
#X connect 0 8 1 0;
#X connect 1 0 2 0;
#X connect 2 0 7 0;
#X connect 3 0 23 0;
#X connect 4 0 17 0;
#X connect 5 0 7 0;
#X connect 6 0 7 0;
#X connect 7 0 8 0;
#X connect 7 0 23 0;
#X connect 8 0 10 0;
#X connect 9 0 16 0;
#X connect 10 0 7 0;
#X connect 11 0 13 0;
#X connect 12 0 15 0;
#X connect 13 0 12 0;
#X connect 14 0 12 0;
#X connect 15 0 7 0;
#X connect 16 0 14 0;
#X connect 17 0 5 0;
#X connect 18 0 13 0;
#X connect 18 0 3 0;
#X connect 18 0 6 0;
#X connect 19 0 16 1;
#X connect 19 1 11 0;
#X connect 20 0 21 0;
#X connect 22 0 8 1;
#X connect 24 0 0 0;
#X connect 25 0 19 0;
#X connect 26 0 17 1;
#X connect 27 0 28 0;
#X connect 28 0 7 0;
#X coords 0 0 1 1 94 72 0;
