#N canvas 860 23 928 997 16;
#X declare -lib mrpeach;
#X declare -lib iemmatrix;
#X declare -lib list-abs;
#X declare -lib iemmatrix;
#X declare -lib list-abs;
#X declare -lib iemmatrix;
#X declare -lib list-abs;
#X declare -lib iemmatrix;
#X declare -lib list-abs;
#X declare -lib iemmatrix;
#X declare -lib list-abs;
#X declare -lib iemmatrix;
#X declare -lib list-abs;
#X declare -lib iemmatrix;
#X declare -lib iemmatrix;
#X declare -lib iemmatrix;
#X declare -lib iemmatrix;
#X declare -lib list-abs;
#X declare -lib iemmatrix;
#X declare -lib smlib;
#X declare -lib hexloader;
#X declare -lib iemmatrix;
#X declare -lib mrpeach;
#X text 400 -59 beat;
#X obj 509 97 tgl 30 0 empty \$0-weki_on/off empty 17 7 0 10 -204786
-1 -1 0 1;
#X obj 607 320 vsl 15 128 0 50 0 0 empty empty empty 0 -9 0 10 -262144
-1 -1 12700 1;
#X floatatom 607 465 5 0 0 0 - - -;
#X obj 676 320 vsl 15 128 0 50 0 0 empty empty empty 0 -9 0 10 -262144
-1 -1 12700 1;
#X floatatom 676 465 5 0 0 0 - - -;
#X obj 745 320 vsl 15 128 0 50 0 0 empty empty empty 0 -9 0 10 -262144
-1 -1 12700 1;
#X floatatom 745 465 5 0 0 0 - - -;
#X obj 814 345 bng 30 400 50 0 empty empty empty 17 7 0 10 -99865 -257985
-1;
#X floatatom 529 240 2 0 0 0 - #0-learnedg -;
#X text 562 238 gestures learned;
#X text 812 392 gesture;
#X text 812 410 detected;
#N canvas 677 503 675 228 DTW_outputs_thresh 0;
#X obj -56 123 unpack s f f f;
#X obj -59 173 outlet;
#X obj 11 173 outlet;
#X obj 81 173 outlet;
#X obj 314 43 r \$0-weki_out;
#X obj 164 173 outlet;
#X msg -56 43 s 50 50 50;
#X obj 314 173 s \$0-class;
#N canvas 681 239 418 302 weki_class 0;
#X obj 9 61 route /output_1 /output_2 /output_3;
#X msg 9 101 1;
#X msg 124 101 2;
#X msg 240 101 3;
#X msg 240 211 0;
#X obj 240 141 r \$0-unknowng;
#X obj 250 171 r \$0-tgl_weki;
#X obj 9 261 outlet;
#X obj 9 11 inlet;
#X connect 0 0 1 0;
#X connect 0 1 2 0;
#X connect 0 2 3 0;
#X connect 1 0 7 0;
#X connect 2 0 7 0;
#X connect 3 0 7 0;
#X connect 4 0 7 0;
#X connect 5 0 4 0;
#X connect 6 0 4 0;
#X connect 8 0 0 0;
#X restore 464 123 pd weki_class;
#X obj -56 73 s \$0-weki_out;
#N canvas 707 289 372 530 unkown_th 0;
#X obj 11 53 unpack s f f f;
#X obj 24 483 outlet;
#X obj 171 363 r \$0-lastg;
#X msg 171 393 0;
#X obj 221 483 s \$0-unknowng;
#X obj 24 363 spigot;
#X obj 221 443 spigot;
#X obj 24 143 expr $f1+$f2+$f3;
#X obj 24 223 select 3;
#X obj 151 183 r \$0-tgl_weki;
#X msg 51 263 0;
#X msg 101 263 1;
#X obj 24 183 average 10;
#X obj 151 303 trigger b a a;
#N canvas 665 224 304 367 ukth 0;
#X obj 237 82 once;
#X obj 160 82 once;
#X msg 237 142 0;
#X msg 160 142 1;
#X obj 10 172 moses;
#X msg 127 282 1;
#X obj 160 12 inlet;
#X obj 74 332 outlet;
#X msg 10 282 0;
#X obj 127 202 spigot;
#X obj 57 142 r \$0-ukth;
#X obj 137 242 r \$0-ukth;
#X obj 160 42 moses 50;
#X text 30 42 block if inf;
#X connect 0 0 1 1;
#X connect 0 0 2 0;
#X connect 1 0 0 1;
#X connect 1 0 3 0;
#X connect 2 0 9 1;
#X connect 3 0 9 1;
#X connect 4 0 8 0;
#X connect 4 1 9 0;
#X connect 5 0 7 0;
#X connect 6 0 12 0;
#X connect 8 0 7 0;
#X connect 9 0 5 0;
#X connect 10 0 4 1;
#X connect 11 0 5 0;
#X connect 12 0 1 0;
#X connect 12 0 4 0;
#X connect 12 1 0 0;
#X restore 24 113 pd ukth;
#N canvas 665 224 304 367 ukth 0;
#X obj 237 82 once;
#X obj 160 82 once;
#X msg 237 142 0;
#X msg 160 142 1;
#X obj 10 172 moses;
#X msg 127 282 1;
#X obj 160 12 inlet;
#X obj 74 332 outlet;
#X msg 10 282 0;
#X obj 127 202 spigot;
#X obj 57 142 r \$0-ukth;
#X obj 137 242 r \$0-ukth;
#X obj 160 42 moses 50;
#X text 30 42 block if inf;
#X connect 0 0 1 1;
#X connect 0 0 2 0;
#X connect 1 0 0 1;
#X connect 1 0 3 0;
#X connect 2 0 9 1;
#X connect 3 0 9 1;
#X connect 4 0 8 0;
#X connect 4 1 9 0;
#X connect 5 0 7 0;
#X connect 6 0 12 0;
#X connect 8 0 7 0;
#X connect 9 0 5 0;
#X connect 10 0 4 1;
#X connect 11 0 5 0;
#X connect 12 0 1 0;
#X connect 12 0 4 0;
#X connect 12 1 0 0;
#X restore 102 113 pd ukth;
#N canvas 665 224 304 367 ukth 0;
#X obj 237 82 once;
#X obj 160 82 once;
#X msg 237 142 0;
#X msg 160 142 1;
#X obj 10 172 moses;
#X msg 127 282 1;
#X obj 160 12 inlet;
#X obj 74 332 outlet;
#X msg 10 282 0;
#X obj 127 202 spigot;
#X obj 57 142 r \$0-ukth;
#X obj 137 242 r \$0-ukth;
#X obj 160 42 moses 50;
#X text 30 42 block if inf;
#X connect 0 0 1 1;
#X connect 0 0 2 0;
#X connect 1 0 0 1;
#X connect 1 0 3 0;
#X connect 2 0 9 1;
#X connect 3 0 9 1;
#X connect 4 0 8 0;
#X connect 4 1 9 0;
#X connect 5 0 7 0;
#X connect 6 0 12 0;
#X connect 8 0 7 0;
#X connect 9 0 5 0;
#X connect 10 0 4 1;
#X connect 11 0 5 0;
#X connect 12 0 1 0;
#X connect 12 0 4 0;
#X connect 12 1 0 0;
#X restore 181 113 pd ukth;
#X obj 11 13 inlet;
#X obj 161 263 s \$0-init_ukth;
#X obj 161 223 bang;
#X connect 0 1 14 0;
#X connect 0 2 15 0;
#X connect 0 3 16 0;
#X connect 2 0 3 0;
#X connect 3 0 6 1;
#X connect 5 0 1 0;
#X connect 5 0 6 0;
#X connect 5 0 10 0;
#X connect 6 0 4 0;
#X connect 7 0 12 0;
#X connect 8 0 5 0;
#X connect 8 1 11 0;
#X connect 9 0 13 0;
#X connect 9 0 19 0;
#X connect 10 0 5 1;
#X connect 11 0 5 1;
#X connect 12 0 8 0;
#X connect 13 0 5 0;
#X connect 13 1 5 1;
#X connect 13 2 6 1;
#X connect 14 0 7 0;
#X connect 15 0 7 1;
#X connect 16 0 7 2;
#X connect 17 0 0 0;
#X connect 19 0 18 0;
#X restore 164 123 pd unkown_th;
#N canvas 340 37 410 459 class_th_2 0;
#X obj 6 -127 unpack s f f f;
#X obj 6 -167 inlet;
#X obj 238 -127 r \$0-clth;
#X obj 51 -57 moses;
#X obj 51 -7 once;
#X obj 121 -57 moses;
#X obj 121 -7 once;
#X obj 191 -57 moses;
#X obj 191 -7 once;
#X msg 51 33 1;
#X msg 121 33 2;
#X msg 191 33 3;
#X msg 191 143 0;
#X obj 191 73 r \$0-unknowng;
#X obj 201 103 r \$0-tgl_weki;
#X obj 51 193 outlet;
#X text 37 -199 select whichever is below threshold;
#X connect 0 1 3 0;
#X connect 0 2 5 0;
#X connect 0 3 7 0;
#X connect 1 0 0 0;
#X connect 2 0 3 1;
#X connect 2 0 5 1;
#X connect 2 0 7 1;
#X connect 3 0 4 0;
#X connect 3 1 4 1;
#X connect 4 0 9 0;
#X connect 5 0 6 0;
#X connect 5 1 6 1;
#X connect 6 0 10 0;
#X connect 7 0 8 0;
#X connect 7 1 8 1;
#X connect 8 0 11 0;
#X connect 9 0 15 0;
#X connect 10 0 15 0;
#X connect 11 0 15 0;
#X connect 12 0 15 0;
#X connect 13 0 12 0;
#X connect 14 0 12 0;
#X restore 464 83 pd class_th_2;
#N canvas 731 202 523 559 class_th_1 0;
#X msg 267 255 0;
#X obj 267 185 r \$0-unknowng;
#X obj 324 215 r \$0-tgl_weki;
#X obj -14 -127 inlet;
#X obj -18 -37 moses;
#X obj 77 -37 moses;
#X obj 179 -37 moses;
#X obj -18 153 +;
#X obj 172 153 +;
#X obj -18 103 >;
#X obj 87 103 >;
#X obj 199 103 >;
#X obj -18 53 t a a;
#X obj 77 53 t a a;
#X obj 179 53 t a a;
#X obj 77 153 >;
#X obj -18 185 == 0;
#X obj 77 185 == 1;
#X obj 172 185 == 2;
#X obj -14 -97 unpack s f f f;
#X obj -18 215 select 1;
#X obj 77 215 select 1;
#X obj 172 215 select 1;
#X msg -18 255 1;
#X msg 77 255 2;
#X msg 172 255 3;
#X text 57 -159 select minimum below threshold;
#X obj 256 -127 r \$0-clth;
#X obj 256 -97 t a a;
#X obj 256 -7 f;
#X obj 323 -97 r \$0-tgl_weki;
#X obj 323 -67 select 1;
#X obj 267 355 outlet;
#X obj 267 315 spigot;
#X obj 344 315 s \$0-init_clth;
#X obj 344 255 bang;
#X connect 0 0 33 0;
#X connect 1 0 0 0;
#X connect 2 0 0 0;
#X connect 2 0 33 1;
#X connect 2 0 35 0;
#X connect 3 0 19 0;
#X connect 4 0 12 0;
#X connect 5 0 13 0;
#X connect 6 0 14 0;
#X connect 7 0 16 0;
#X connect 8 0 18 0;
#X connect 9 0 7 0;
#X connect 9 0 15 0;
#X connect 10 0 7 1;
#X connect 10 0 8 0;
#X connect 11 0 8 1;
#X connect 11 0 15 1;
#X connect 12 0 9 0;
#X connect 12 1 10 0;
#X connect 13 0 9 1;
#X connect 13 1 11 0;
#X connect 14 0 10 1;
#X connect 14 1 11 1;
#X connect 15 0 17 0;
#X connect 16 0 20 0;
#X connect 17 0 21 0;
#X connect 18 0 22 0;
#X connect 19 1 4 0;
#X connect 19 2 5 0;
#X connect 19 3 6 0;
#X connect 20 0 23 0;
#X connect 21 0 24 0;
#X connect 22 0 25 0;
#X connect 23 0 33 0;
#X connect 24 0 33 0;
#X connect 25 0 33 0;
#X connect 27 0 28 0;
#X connect 28 0 4 1;
#X connect 28 0 5 1;
#X connect 28 0 6 1;
#X connect 28 1 29 0;
#X connect 29 0 14 0;
#X connect 29 0 13 0;
#X connect 29 0 12 0;
#X connect 30 0 31 0;
#X connect 31 0 29 0;
#X connect 33 0 32 0;
#X connect 35 0 34 0;
#X restore 314 123 pd class_th_1;
#X obj -56 -17 r \$0-tgl_weki;
#X obj -56 13 del 100;
#X connect 0 1 1 0;
#X connect 0 2 2 0;
#X connect 0 3 3 0;
#X connect 4 0 10 0;
#X connect 4 0 12 0;
#X connect 4 0 0 0;
#X connect 6 0 9 0;
#X connect 10 0 5 0;
#X connect 12 0 7 0;
#X connect 13 0 14 0;
#X connect 14 0 6 0;
#X restore 607 282 pd DTW_outputs_thresh;
#X text 767 316 d;
#X text 767 332 i;
#X text 767 348 s;
#X text 767 364 t;
#X text 767 380 a;
#X text 767 396 n;
#X text 767 412 c;
#X text 767 428 e;
#X text 812 374 unknown;
#X text 608 489 1;
#X text 678 489 2;
#X text 748 489 3;
#X floatatom 509 209 4 0 0 0 - #0-rectime -;
#X obj 521 174 tgl 30 0 empty \$0-rectime empty 17 7 0 10 -66577 -258113
-1 0 0.1;
#X text 563 177 new gesture;
#X text 562 207 time remaining;
#X text 716 195 recording;
#X text 707 202 |;
#X text 707 215 |;
#X text 707 176 |;
#X text 707 189 |;
#X text 702 163 _;
#X text 702 215 _;
#X obj 505 -23 vradio 30 1 1 2 \$0-method \$0-init_method empty 0 -8
0 10 -262144 -1 -1 1;
#X floatatom 366 -12 5 0 0 0 - #0-tempo -;
#X obj 366 -62 bng 30 100 50 0 empty \$0-beat empty 17 7 0 10 -99865
-4032 -1;
#X floatatom 246 -12 5 0 0 0 - - -;
#X obj 229 -34 hsl 122 15 0.1 1 0 0 empty empty beat_sensitivity 4
8 0 12 -66577 -258113 -262144 2689 1;
#X obj 9 -153 vradio 30 1 0 2 empty empty empty 0 -8 0 10 -261682 -1
-1 0;
#X text 43 -152 none;
#X msg 117 -62 50;
#X text 123 -89 v;
#X text 123 -93 |;
#X floatatom 607 525 2 0 0 0 - #0-class -;
#X text 543 101 on/off;
#X obj 506 -134 tgl 30 0 \$0-tgl_keyb_snd \$0-tgl_keyb_rcv empty 17
7 0 10 -262144 -4160 -1 0 1;
#X text 120 -132 period;
#X text 120 -152 polling;
#X text 539 9 manual;
#X text 639 525 class detected;
#X text 772 487 <--- classes;
#X obj 554 320 vsl 15 128 0 50 0 0 \$0-clth \$0-init_clth empty 0 -9
0 10 -228856 -258113 -1 1016 0;
#X text 482 291 thresholds;
#X text 491 271 distance;
#X obj 502 320 vsl 15 128 0 50 0 0 \$0-ukth \$0-init_ukth empty 0 -9
0 10 -191407 -258113 -1 2032 0;
#X text 482 322 u;
#X text 482 338 n;
#X text 482 354 k;
#X text 482 370 n;
#X text 482 386 o;
#X text 482 402 w;
#X text 482 418 n;
#X text 536 335 c;
#X text 536 351 l;
#X text 536 367 a;
#X text 536 383 s;
#X text 536 399 s;
#X floatatom 502 465 3 0 0 0 - - -;
#X floatatom 554 465 3 0 0 0 - - -;
#N canvas 513 39 539 394 init 0;
#X obj 225 136 s \$0-init_method;
#X msg 225 106 0;
#X obj 75 326 outlet;
#X obj 175 176 s \$0-init_ukth;
#X obj 125 216 s \$0-init_clth;
#X obj 75 16 loadbang;
#X obj 75 56 bng 15 250 50 0 empty empty empty 17 7 0 10 -262144 -1
-1;
#X msg 176 146 8;
#X obj -95 325 s \$0-set_wl_rcv;
#X msg -95 296 3000;
#X obj 28 186 t b b;
#X obj -95 265 del;
#X msg 125 186 4;
#X connect 1 0 0 0;
#X connect 5 0 6 0;
#X connect 6 0 1 0;
#X connect 6 0 7 0;
#X connect 6 0 12 0;
#X connect 6 0 10 0;
#X connect 7 0 3 0;
#X connect 9 0 8 0;
#X connect 10 0 11 0;
#X connect 10 1 2 0;
#X connect 11 0 9 0;
#X connect 12 0 4 0;
#X restore 174 -98 pd init;
#X text 491 -75 _________________________________;
#X text 491 -165 _________________________________;
#X text 815 -76 |;
#X text 815 -91 |;
#X text 815 -106 |;
#X text 815 -121 |;
#X text 815 -151 |;
#X text 487 -76 |;
#X text 487 -91 |;
#X text 487 -106 |;
#X text 487 -121 |;
#X text 487 -151 |;
#X text 7 -182 INPUT:;
#X text 420 -28 tempo;
#X text 420 -8 (bpm);
#X text 120 -112 (ms);
#X text 540 -131 keyboard control on/off;
#X text 541 -87 space = teach next gesture;
#X text 487 0 |;
#X text 487 -15 |;
#X text 487 -30 |;
#X text 487 -45 |;
#X text 487 -60 |;
#X text 815 0 |;
#X text 815 -15 |;
#X text 815 -30 |;
#X text 815 -45 |;
#X text 815 -60 |;
#X text 539 -21 automatic (no teaching);
#X text 815 -136 |;
#X text 487 -136 |;
#X text 491 30 _________________________________;
#X text 487 30 |;
#X text 815 30 |;
#X text 502 -49 DTW mode:;
#X text 487 15 |;
#X text 815 15 |;
#N canvas 650 97 940 840 Wekinator_DTW 0;
#N canvas 0 22 534 127 start_rec 0;
#X obj 17 78 outlet;
#X msg 17 48 send /wekinator/control/startDtwRecording \$1;
#X obj 17 20 inlet class;
#X connect 1 0 0 0;
#X connect 2 0 1 0;
#X restore 282 646 pd start_rec;
#N canvas 886 22 534 127 stop_rec 0;
#X obj 17 78 outlet;
#X msg 17 48 send /wekinator/control/stopDtwRecording;
#X obj 17 18 inlet bang;
#X connect 1 0 0 0;
#X connect 2 0 1 0;
#X restore 422 666 pd stop_rec;
#N canvas 0 22 534 127 clear_rec 0;
#X obj 17 78 outlet;
#X msg 17 48 send /wekinator/control/deleteAllExamples;
#X obj 17 18 inlet bang;
#X connect 1 0 0 0;
#X connect 2 0 1 0;
#X restore 35 266 pd clear_rec;
#N canvas 301 459 793 212 run 0;
#X obj 407 169 outlet;
#X obj 330 68 select 0;
#X obj 330 28 inlet toggle;
#X msg 27 119 send /wekinator/control/stopRunning;
#X msg 407 119 send /wekinator/control/startRunning;
#X connect 1 0 3 0;
#X connect 1 1 4 0;
#X connect 2 0 1 0;
#X connect 3 0 0 0;
#X connect 4 0 0 0;
#X restore 55 676 pd run;
#X obj 422 456 del;
#X msg 55 586 1;
#X obj -13 76 select 0 1;
#X msg -13 586 0;
#X obj 422 696 bang;
#X obj 422 726 s \$0-stop_rec;
#X obj 282 376 t a b b;
#X obj 255 206 cup;
#X obj 255 236 moses 4;
#X obj 228 615 f;
#X text 457 294 window;
#X text 457 314 length;
#X text 457 334 (ms);
#X obj 322 266 s \$0-lastg;
#X obj 158 46 r \$0-unknowng;
#X obj 255 166 spigot;
#X obj 580 386 r \$0-tgl_weki;
#X obj 580 426 select 0;
#X obj -13 516 del;
#X obj 55 416 r \$0-stop_rec;
#X obj 112 456 r \$0-tgl_weki;
#X obj 55 486 spigot;
#X obj 422 506 spigot;
#X msg 685 507 1;
#X msg 580 506 0;
#X obj 675 636 select;
#X obj 732 546 / 100;
#X obj 685 476 t b a;
#X obj 632 546 metro 100;
#X obj 602 596 cup;
#X obj 602 666 expr ($f2 - $f1)/10;
#X obj 55 516 del;
#X obj 298 46 r \$0-seuraava;
#X obj 438 46 r \$0-method;
#X obj 255 116 multiplex;
#X obj 365 116 r \$0-tgl_weki;
#X msg 55 116 1;
#X obj -112 -34 inlet DTW on/off;
#X obj -112 756 tgl 15 0 empty empty empty 17 7 0 10 -262144 -1 -1
0 1;
#X obj 580 726 s \$0-rectime;
#X obj 228 726 s \$0-learnedg;
#N canvas 101 269 917 366 connect_Weki 0;
#X obj 293 215 udpsend;
#X obj 293 295 tgl 15 0 empty empty empty 17 7 0 10 -262144 -1 -1 0
1;
#X obj 653 174 packOSC;
#X obj 13 215 udpreceive 12000;
#X obj 13 255 unpackOSC;
#X obj 413 15 import mrpeach;
#X obj 653 144 spigot;
#X obj 293 325 outlet;
#X msg 293 85 disconnect;
#X obj 293 45 select 0;
#X obj 293 15 inlet;
#X obj 13 325 s \$0-weki_out;
#X obj 653 15 inlet;
#X obj 593 265 select 0;
#X msg 593 295 0;
#X obj 13 15 r \$0-sigtoweki;
#X text 15 119 -1 < input < 1;
#X msg 13 84 send /wek/inputs \$1 \$2 \$3;
#X obj 383 325 s \$0-weki_connected;
#X obj 710 114 r \$0-weki_connected;
#X obj 593 325 s \$0-weki_on/off;
#X msg 413 85 connect localhost 6448;
#X connect 0 0 1 0;
#X connect 0 0 13 0;
#X connect 0 0 18 0;
#X connect 1 0 7 0;
#X connect 2 0 0 0;
#X connect 3 0 4 0;
#X connect 4 0 11 0;
#X connect 6 0 2 0;
#X connect 8 0 0 0;
#X connect 9 0 8 0;
#X connect 9 1 21 0;
#X connect 10 0 9 0;
#X connect 12 0 6 0;
#X connect 13 0 14 0;
#X connect 14 0 20 0;
#X connect 15 0 17 0;
#X connect 17 0 6 0;
#X connect 19 0 6 1;
#X connect 21 0 0 0;
#X restore -112 726 pd connect_Weki;
#X text 296 204 gesture class;
#X msg 449 416 3000;
#X msg 449 376 set \$1;
#X obj 449 266 r \$0-set_wl_snd;
#X obj 88 6 s \$0-tgl_weki;
#X obj 88 -34 inlet DTW start/stop;
#X connect 0 0 45 1;
#X connect 1 0 8 0;
#X connect 1 0 45 1;
#X connect 2 0 45 1;
#X connect 3 0 45 1;
#X connect 4 0 26 0;
#X connect 4 0 28 0;
#X connect 5 0 3 0;
#X connect 6 0 2 0;
#X connect 6 0 22 0;
#X connect 6 1 2 0;
#X connect 6 1 40 0;
#X connect 7 0 3 0;
#X connect 7 0 44 0;
#X connect 8 0 9 0;
#X connect 10 0 0 0;
#X connect 10 1 4 0;
#X connect 10 2 47 0;
#X connect 11 0 12 0;
#X connect 12 0 13 1;
#X connect 12 0 10 0;
#X connect 12 1 17 0;
#X connect 13 0 44 0;
#X connect 18 0 38 0;
#X connect 19 0 11 0;
#X connect 20 0 21 0;
#X connect 20 0 26 1;
#X connect 21 0 28 0;
#X connect 22 0 7 0;
#X connect 23 0 25 0;
#X connect 24 0 25 1;
#X connect 25 0 35 0;
#X connect 26 0 1 0;
#X connect 27 0 32 0;
#X connect 28 0 32 0;
#X connect 28 0 1 0;
#X connect 28 0 33 0;
#X connect 28 0 43 0;
#X connect 29 0 28 0;
#X connect 30 0 29 1;
#X connect 30 0 34 1;
#X connect 31 0 27 0;
#X connect 31 1 30 0;
#X connect 32 0 33 0;
#X connect 33 0 29 0;
#X connect 33 0 34 0;
#X connect 34 0 43 0;
#X connect 35 0 5 0;
#X connect 35 0 13 0;
#X connect 36 0 38 1;
#X connect 37 0 38 2;
#X connect 38 0 19 0;
#X connect 39 0 19 1;
#X connect 40 0 11 0;
#X connect 41 0 45 0;
#X connect 45 0 42 0;
#X connect 47 0 4 1;
#X connect 47 0 31 0;
#X connect 48 0 47 0;
#X connect 49 0 48 0;
#X connect 51 0 6 0;
#X connect 51 0 50 0;
#X restore 509 139 pd Wekinator_DTW;
#X text 210 -181 software starting order: Myo \, Wekinator \, Pd;
#X text 43 -122 Myo;
#X floatatom 702 63 5 0 0 0 - #0-set_wl_rcv #0-set_wl_snd;
#X text 514 61 window length (ms);
#X obj 232 311 plot_xyz;
#X obj 9 247 r \$0-acc_xyz;
#X obj 427 291 bng 15 250 50 0 empty \$0-plot_xyz_rs reset 17 7 0 10
-203904 -1 -1;
#X obj 402 271 tgl 15 0 empty \$0-plot_xyz_as autoscale 17 7 0 10 -232576
-1 -1 1 1;
#X obj 9 297 novelty_3D;
#X obj 9 427 s \$0-nov_pk;
#X obj 410 92 bng 30 250 50 0 \$0-plot_xyz_rs empty reset 34 16 0 10
-203904 -1 -1;
#X obj 385 52 tgl 30 0 \$0-plot_xyz_as empty autoscale 34 16 0 10 -232576
-1 -1 1 1;
#X obj 233 191 miniplot;
#X obj 426 151 bng 15 250 50 0 empty \$0-plot_xyz_rs reset 17 7 0 10
-203904 -1 -1;
#X obj 233 107 r \$0-jerk_norm;
#X obj 233 147 autoscale;
#X msg 226 -62 range 0.1 1;
#X msg 174 -62 0.3;
#N canvas 263 177 581 359 QOM 0;
#X obj 169 -3 shake;
#X obj 169 57 confine;
#X obj 169 -43 r \$0-acc_norm;
#X obj 169 27 * 10;
#X obj -91 187 once;
#X obj -11 186 once;
#X msg -91 217 0.1;
#X obj 169 267 outlet;
#X obj 36 267 s \$0-QOM_thr;
#X msg -11 216 1;
#X obj 169 97 average 14;
#X obj -51 137 moses 0.2;
#X connect 0 0 3 0;
#X connect 1 0 10 0;
#X connect 2 0 0 0;
#X connect 3 0 1 0;
#X connect 4 0 6 0;
#X connect 4 0 5 1;
#X connect 5 0 4 1;
#X connect 5 0 9 0;
#X connect 6 0 8 0;
#X connect 9 0 8 0;
#X connect 10 0 7 0;
#X connect 10 0 11 0;
#X connect 11 0 4 0;
#X connect 11 1 5 0;
#X restore 14 107 pd QOM;
#X obj 212 277 bng 15 250 50 0 empty \$0-plot_xyz_rs reset 17 7 0 10
-203904 -1 -1;
#X obj 144 247 r \$0-QOM_thr;
#X obj 9 537 s \$0-sigtoweki;
#X obj 9 477 r \$0-acc_xyz;
#X obj 232 521 plot_xyz;
#X obj 427 501 bng 15 250 50 0 empty \$0-plot_xyz_rs reset 17 7 0 10
-203904 -1 -1;
#X obj 402 481 tgl 15 0 empty \$0-plot_xyz_as autoscale 17 7 0 10 -232576
-1 -1 0 1;
#N canvas 215 276 639 524 input_preprocessing 0;
#X obj 335 -182 inlet sensitivity;
#X obj -101 -142 s \$0-insel;
#X obj -101 -182 inlet input selector;
#X obj 119 -182 inlet polling period;
#X obj 119 -142 s \$0-poll_t;
#N canvas 330 379 516 474 Myo 0;
#X obj 231 205 r \$0-poll_t;
#X obj 137 139 moses 1;
#X obj 204 239 f;
#X obj 204 169 bang;
#X msg 137 79 0;
#X obj -80 2 r \$0-insel;
#X msg -80 79 1;
#X obj 82 5 import mrpeach;
#X obj -80 32 select 1;
#X obj -80 309 poll;
#X obj -80 419 s \$0-acc_xyz;
#N canvas 1072 558 291 302 rescale 0;
#X obj -34 -4 inlet;
#X obj -34 36 unpack f f f;
#X obj -34 116 /;
#X obj 24 116 /;
#X obj 83 116 /;
#X obj -34 206 pack f f f;
#X obj -34 166 +;
#X obj 24 166 +;
#X obj 83 166 +;
#X msg 147 66 10;
#X msg 147 116 0.5;
#X obj -34 236 outlet;
#X obj 147 36 r \$0-insel;
#X connect 0 0 1 0;
#X connect 1 0 2 0;
#X connect 1 1 3 0;
#X connect 1 2 4 0;
#X connect 2 0 6 0;
#X connect 3 0 7 0;
#X connect 4 0 8 0;
#X connect 5 0 11 0;
#X connect 6 0 5 0;
#X connect 7 0 5 1;
#X connect 8 0 5 2;
#X connect 9 0 2 1;
#X connect 9 0 3 1;
#X connect 9 0 4 1;
#X connect 9 0 10 0;
#X connect 10 0 6 1;
#X connect 10 0 7 1;
#X connect 10 0 8 1;
#X connect 12 0 9 0;
#X restore -80 339 pd rescale;
#N canvas 942 142 298 411 Myo_accel 0;
#X obj -24 196 unpackOSC;
#X obj -24 226 routeOSC /myo;
#N canvas 521 384 653 187 udp_receive 0;
#X obj 253 55 outlet;
#N canvas 1080 271 270 153 \$0-udp_prov 0;
#X restore 73 26 pd \$0-udp_prov;
#X obj -137 26 s pd-\$0-udp_prov;
#X msg -67 -35 clear \, obj 1 1 udpreceive \$1 \, obj 1 50 send udprecout
\, connect 0 0 1 0;
#X obj 253 26 r udprecout;
#X msg -137 -35 clear;
#X obj -137 -75 inlet;
#X obj -67 -75 inlet;
#X connect 3 0 2 0;
#X connect 4 0 0 0;
#X connect 5 0 2 0;
#X connect 6 0 5 0;
#X connect 7 0 3 0;
#X restore -24 156 pd udp_receive;
#X obj -24 6 inlet on/off;
#X obj -24 86 select 0 1;
#X msg 160 87 7777;
#X obj 113 126 f;
#X obj -24 296 unpack s f f f f;
#X obj 45 336 pack f f f;
#X obj -24 256 routeOSC /accel;
#X obj 45 366 outlet;
#X obj -24 46 tgl 15 0 empty empty empty 17 7 0 10 -262144 -1 -1 0
1;
#X obj 160 6 loadbang;
#X connect 0 0 1 0;
#X connect 1 0 9 0;
#X connect 2 0 0 0;
#X connect 3 0 11 0;
#X connect 4 0 2 0;
#X connect 4 1 6 0;
#X connect 5 0 6 1;
#X connect 6 0 2 1;
#X connect 7 2 8 0;
#X connect 7 3 8 1;
#X connect 7 4 8 2;
#X connect 8 0 10 0;
#X connect 9 0 7 0;
#X connect 11 0 4 0;
#X connect 12 0 5 0;
#X restore -80 139 pd Myo_accel;
#N canvas 328 339 299 316 autoswitch 0;
#X obj 13 16 inlet;
#X obj 103 116 once;
#X obj 13 116 once;
#X obj 163 116 r \$0-method;
#X obj 13 256 s \$0-onoff;
#X obj 13 226 spigot;
#X obj 163 156 - 1;
#X obj 163 186 abs;
#X msg 13 156 0;
#X msg 103 156 1;
#X obj 13 46 temperature 1000;
#X obj 13 76 moses 1;
#X connect 0 0 10 0;
#X connect 1 0 2 1;
#X connect 1 0 9 0;
#X connect 2 0 1 1;
#X connect 2 0 8 0;
#X connect 3 0 6 0;
#X connect 5 0 4 0;
#X connect 6 0 7 0;
#X connect 7 0 5 1;
#X connect 8 0 5 0;
#X connect 9 0 5 0;
#X connect 10 0 11 0;
#X connect 11 0 2 0;
#X connect 11 1 1 0;
#X restore 270 78 pd autoswitch;
#X connect 0 0 2 1;
#X connect 1 0 9 1;
#X connect 1 1 3 0;
#X connect 2 0 9 1;
#X connect 3 0 2 0;
#X connect 4 0 1 0;
#X connect 4 0 12 0;
#X connect 5 0 8 0;
#X connect 6 0 1 0;
#X connect 6 0 12 0;
#X connect 8 0 6 0;
#X connect 8 1 4 0;
#X connect 9 0 11 0;
#X connect 11 0 10 0;
#X connect 12 0 9 0;
#X restore 119 -103 pd Myo;
#N canvas 805 504 469 222 keyboard_control 0;
#X obj -197 -2 key;
#X obj -197 28 spigot;
#X obj -140 -2 r \$0-tgl_keyb_snd;
#X obj 72 118 s \$0-tgl_keyb_rcv;
#X obj 72 58 r \$0-method;
#X obj -197 58 select 32 115;
#X obj -197 148 s \$0-seuraava;
#X obj -134 118 s \$0-DTW_start/stop;
#X connect 0 0 1 0;
#X connect 1 0 5 0;
#X connect 2 0 1 1;
#X connect 4 0 3 0;
#X connect 5 0 6 0;
#X connect 5 1 7 0;
#X restore -101 -103 pd keyboard_control;
#X obj 79 -63 r \$0-acc_xyz;
#X obj 335 227 s \$0-beat;
#X obj 286 257 s \$0-tempo;
#X obj 238 287 s \$0-period;
#N canvas 768 161 198 202 delta_xyz 0;
#X obj -2 -6 inlet;
#X obj 8 144 outlet;
#X obj -2 24 unpack f f f;
#X obj 8 114 pack f f f;
#X obj -2 64 delta;
#X obj 56 64 delta;
#X obj 115 64 delta;
#X connect 0 0 2 0;
#X connect 2 0 4 0;
#X connect 2 1 5 0;
#X connect 2 2 6 0;
#X connect 3 0 1 0;
#X connect 4 0 3 0;
#X connect 5 0 3 1;
#X connect 6 0 3 2;
#X restore 79 -23 pd delta_xyz;
#X obj 79 17 list-mag;
#X obj 80 287 s \$0-jerk_norm;
#X obj 89 87 expr ($f1 * 100)+1;
#X obj 238 187 peakstempo;
#X obj -90 17 list-mag;
#X obj -90 287 s \$0-acc_norm;
#X connect 0 0 15 1;
#X connect 2 0 1 0;
#X connect 3 0 4 0;
#X connect 7 0 11 0;
#X connect 7 0 16 0;
#X connect 11 0 12 0;
#X connect 12 0 13 0;
#X connect 12 0 14 0;
#X connect 14 0 15 0;
#X connect 15 0 10 0;
#X connect 15 1 9 0;
#X connect 15 2 8 0;
#X connect 16 0 17 0;
#X restore 9 -13 pd input_preprocessing;
#X floatatom 14 147 5 0 0 0 - - -;
#X obj 666 97 tgl 30 0 empty \$0-tgl_DTW empty 17 7 0 10 -4034 -1 -1
0 1;
#X text 700 101 start/stop;
#X text 581 -107 s = DTW start/stop;
#X connect 1 0 111 0;
#X connect 2 0 3 0;
#X connect 4 0 5 0;
#X connect 6 0 7 0;
#X connect 13 0 2 0;
#X connect 13 1 4 0;
#X connect 13 2 6 0;
#X connect 13 3 8 0;
#X connect 41 0 40 0;
#X connect 41 0 138 2;
#X connect 42 0 138 0;
#X connect 44 0 138 1;
#X connect 55 0 72 0;
#X connect 58 0 71 0;
#X connect 73 0 44 0;
#X connect 73 0 129 0;
#X connect 117 0 120 0;
#X connect 118 0 116 1;
#X connect 119 0 116 1;
#X connect 120 0 121 0;
#X connect 120 2 116 0;
#X connect 125 0 124 1;
#X connect 125 0 127 3;
#X connect 126 0 127 0;
#X connect 127 0 124 0;
#X connect 128 0 41 0;
#X connect 129 0 41 0;
#X connect 130 0 139 0;
#X connect 131 0 120 3;
#X connect 132 0 120 2;
#X connect 134 0 135 0;
#X connect 134 0 133 0;
#X connect 136 0 135 1;
#X connect 137 0 135 1;
#X connect 140 0 111 1;
#X coords 0 0 1 1 85 60 0;
