#N canvas 450 -626 215 521 10;
#X obj -4 77 inlet signal;
#X obj -94 461 outlet;
#X obj -94 357 -;
#X obj -94 383 abs;
#X obj -94 137 metro 100;
#X obj -94 197 s \$0-metro;
#X obj -94 413 average 10;
#X obj -4 317 f;
#X obj -94 77 loadbang;
#X msg -94 107 1;
#X obj -4 197 s \$0-inlet;
#X obj 11 287 r \$0-inlet;
#X obj -94 317 f;
#X obj -79 287 r \$0-inlet;
#X text -75 489 Juan Ignacio Mendoza - 2015;
#X floatatom -84 438 5 0 0 0 - - -;
#X obj -30 456 vsl 15 16 0 127 0 0 empty empty empty 0 -9 0 10 -262144
-1 -1 0 1;
#X text -33 357 difference between two;
#X text 2 417 obtain the slope;
#X text 21 432 (derivative).;
#X text -21 341 Measure the absolute;
#X text -57 372 signal values separated by;
#X text -96 32 Outputs level of shaking;
#X text -96 47 from accelerometer data.;
#X text -10 455 <-- test it!;
#X text -26 387 approximately 100 ms.;
#X text -4 401 A crude method to;
#X obj -94 168 tgl 15 0 empty empty empty 17 7 0 10 -262144 -1 -1 0
1;
#X obj -4 227 r \$0-metro;
#X obj -94 227 r \$0-metro;
#X obj -94 257 select 1;
#X obj -4 257 select 0;
#X text -96 7 Shake it!;
#X connect 0 0 10 0;
#X connect 2 0 3 0;
#X connect 3 0 6 0;
#X connect 4 0 27 0;
#X connect 6 0 1 0;
#X connect 7 0 2 1;
#X connect 8 0 9 0;
#X connect 9 0 4 0;
#X connect 11 0 7 1;
#X connect 12 0 2 0;
#X connect 13 0 12 1;
#X connect 15 0 16 0;
#X connect 27 0 5 0;
#X connect 28 0 31 0;
#X connect 29 0 30 0;
#X connect 30 0 12 0;
#X connect 31 0 7 0;
