#N canvas 593 28 210 388 12;
#X obj -3 285 *~;
#X obj 48 215 *~;
#X obj 48 245 *~;
#X obj -3 245 osc~;
#X obj -3 315 outlet~;
#X obj -3 20 inlet;
#X obj -3 80 unpack f f f f;
#X obj 48 185 vline~;
#X obj 48 120 pack f f f;
#X msg 48 155 \$1 \$2 \, 0 \$3 \$2;
#X text 8 50 f \, A \, att.T \, dec.T;
#X text -2 350 Juan I. Mendoza G. - 2021;
#X connect 0 0 4 0;
#X connect 1 0 2 0;
#X connect 1 0 2 1;
#X connect 2 0 0 1;
#X connect 3 0 0 0;
#X connect 5 0 6 0;
#X connect 6 0 3 0;
#X connect 6 1 8 0;
#X connect 6 2 8 1;
#X connect 6 3 8 2;
#X connect 7 0 1 0;
#X connect 7 0 1 1;
#X connect 8 0 9 0;
#X connect 9 0 7 0;
