#N canvas 553 90 730 496 12;
#X text 426 147 Juan Ignacio Mendoza - 2019;
#X obj 263 267 until;
#X obj 263 147 i;
#X obj -7 87 cup;
#X msg 62 267 resize \$1;
#X obj 263 297 cup;
#X obj 263 327 select;
#X msg 498 267 0;
#X obj 263 -23 inlet record/spit;
#X text 397 -23 1 = record;
#X obj 263 97 trigger b b;
#X text 397 -9 0 = spit;
#X obj -81 27 spigot;
#X obj 263 7 select 0;
#X obj 547 437 outlet size;
#X obj 302 367 t a a a;
#X obj 225 407 tabread \$0-x;
#X obj 325 407 tabread \$0-y;
#X obj 425 407 tabread \$0-z;
#N canvas 0 22 450 300 (subpatch) 0;
#X array \$0-x 1000 float 2;
#X coords 0 0 1000 1 200 140 0;
#X restore 283 47 graph;
#N canvas 0 22 450 300 (subpatch) 0;
#X array \$0-y 1000 float 2;
#X coords 0 0 1000 1 200 140 0;
#X restore 333 47 graph;
#N canvas 0 22 450 300 (subpatch) 0;
#X array \$0-z 1000 float 2;
#X coords 0 0 1000 1 200 140 0;
#X restore 383 47 graph;
#X text 296 65 x;
#X text 346 65 y;
#X text 396 65 z;
#X obj 225 437 outlet x;
#X obj 325 437 outlet y;
#X obj 425 437 outlet z;
#X obj -81 -23 inlet xyz;
#X obj -81 57 trigger a b;
#X obj -81 407 tabwrite \$0-x;
#X obj 19 407 tabwrite \$0-y;
#X obj 119 407 tabwrite \$0-z;
#X obj -81 357 unpack f f f;
#X obj 62 177 cup;
#X obj 62 237 * 1000;
#X obj 62 207 + 1;
#X obj 42 357 trigger any any any;
#X obj -7 117 t a a;
#X obj 62 327 s \$0-x;
#X obj 62 297 trigger any any any;
#X obj 127 327 s \$0-y;
#X obj 192 327 s \$0-z;
#X msg 185 47 0;
#X obj 62 147 select 999;
#X obj 263 207 trigger a a;
#X obj 263 177 + 1;
#X obj 263 237 + 1;
#X connect 1 0 5 0;
#X connect 2 0 46 0;
#X connect 3 0 2 1;
#X connect 3 0 38 0;
#X connect 4 0 40 0;
#X connect 5 0 6 0;
#X connect 6 0 43 0;
#X connect 6 1 15 0;
#X connect 7 0 5 0;
#X connect 8 0 12 1;
#X connect 8 0 13 0;
#X connect 10 0 2 0;
#X connect 10 1 7 0;
#X connect 12 0 29 0;
#X connect 13 0 10 0;
#X connect 15 0 16 0;
#X connect 15 1 17 0;
#X connect 15 2 18 0;
#X connect 16 0 25 0;
#X connect 17 0 26 0;
#X connect 18 0 27 0;
#X connect 28 0 12 0;
#X connect 29 0 33 0;
#X connect 29 1 3 0;
#X connect 33 0 30 0;
#X connect 33 1 31 0;
#X connect 33 2 32 0;
#X connect 34 0 36 0;
#X connect 35 0 4 0;
#X connect 35 0 44 1;
#X connect 36 0 35 0;
#X connect 37 0 30 1;
#X connect 37 1 31 1;
#X connect 37 2 32 1;
#X connect 38 0 37 0;
#X connect 38 1 44 0;
#X connect 40 0 39 0;
#X connect 40 1 41 0;
#X connect 40 2 42 0;
#X connect 43 0 3 0;
#X connect 44 0 34 0;
#X connect 45 0 47 0;
#X connect 45 1 6 1;
#X connect 45 1 14 0;
#X connect 46 0 45 0;
#X connect 47 0 1 0;
#X coords 0 0 1 1 200 30 0;
