#N canvas 323 319 772 464 12;
#X text -52 386 Juan Ignacio Mendoza - 2019;
#X obj -81 -23 inlet data;
#X obj 143 247 until;
#X obj 143 137 i;
#X obj -7 97 cup;
#X msg 55 327 resize \$1;
#X obj 55 357 s \$0-array;
#X obj -81 357 tabwrite \$0-array;
#X obj -81 67 trigger f b;
#X obj -7 227 t a a;
#X obj 182 357 tabread \$0-array;
#X obj 143 287 cup;
#N canvas 0 22 450 300 (subpatch) 0;
#X array \$0-array 1 float 3;
#A 0 0.877336;
#X coords 0 0 1 1 200 30 0;
#X restore 198 47 graph;
#X obj 143 327 select;
#X msg 288 247 0;
#X msg 55 67 1;
#X obj 143 167 trigger a a;
#X obj 143 197 + 1;
#X obj 143 -23 inlet record/spit;
#X text 32 -23 1 = record;
#X obj 143 97 trigger b b;
#X text 32 -9 0 = spit;
#X obj -81 37 spigot;
#X obj 143 7 select 0;
#X obj 182 387 outlet data;
#X obj 322 387 outlet size;
#X text 264 107 NOTE: this array should not grow dynamically. Instead
it should preallocate large chunks and spit per counter.;
#X connect 1 0 22 0;
#X connect 2 0 11 0;
#X connect 3 0 16 0;
#X connect 4 0 9 0;
#X connect 4 0 3 1;
#X connect 5 0 6 0;
#X connect 8 0 7 0;
#X connect 8 1 4 0;
#X connect 9 0 7 1;
#X connect 9 1 5 0;
#X connect 10 0 24 0;
#X connect 11 0 13 0;
#X connect 13 0 15 0;
#X connect 13 1 10 0;
#X connect 14 0 11 0;
#X connect 15 0 5 0;
#X connect 15 0 4 0;
#X connect 16 0 17 0;
#X connect 16 1 13 1;
#X connect 16 1 25 0;
#X connect 17 0 2 0;
#X connect 18 0 22 1;
#X connect 18 0 23 0;
#X connect 20 0 3 0;
#X connect 20 1 14 0;
#X connect 22 0 8 0;
#X connect 23 0 20 0;
#X coords 0 0 1 1 200 30 0;
