#N canvas 358 347 464 335 12;
#X obj 5 6 hsl 168 18 -1 1 0 0 \$0-pan_slider_snd \$0-pan_slider_rcv
stereo_panner 40 10 1 14 -1 -257985 -232576 8350 1;
#X obj 200 231 pan~;
#X obj 259 201 * 45;
#X obj 294 292 outlet~ ch2;
#X obj 200 292 outlet~ ch1;
#X text 1 30 -1;
#X text 84 30 0;
#X text 163 30 1;
#X text 74 50 both;
#X text 154 50 ch2;
#X text 0 50 ch1;
#X obj 259 141 s \$0-pan_slider_rcv;
#X obj 259 171 r \$0-pan_slider_snd;
#X obj 200 1 inlet~;
#X obj 389 1 loadbang;
#X obj 259 1 inlet pan level;
#X obj 259 71 unpack f f;
#X obj 200 151 *~;
#X obj 218 121 sig~;
#X text -1 293 Juan Ignacio Mendoza - 2017;
#X msg 389 31 0 1;
#X connect 1 0 4 0;
#X connect 1 1 3 0;
#X connect 2 0 1 1;
#X connect 12 0 2 0;
#X connect 13 0 17 0;
#X connect 14 0 20 0;
#X connect 15 0 16 0;
#X connect 16 0 11 0;
#X connect 16 1 18 0;
#X connect 17 0 1 0;
#X connect 18 0 17 1;
#X connect 20 0 16 0;
#X coords 0 -1 1 1 174 28 2 1 1;
