#N canvas 652 252 380 314 12;
#X obj -268 -34 inlet~;
#X obj -268 216 outlet~;
#X obj 15 4 vsl 20 120 0 1 0 0 empty empty empty 0 -9 0 10 -66577 -262144
-1 0 1;
#X obj -186 63 sig~;
#X obj -268 96 *~;
#X obj -108 -34 inlet~;
#X obj -108 216 outlet~;
#X obj -108 96 *~;
#X obj 39 4 vu 8 120 empty empty -1 -8 0 10 -66577 -1 0 0;
#X obj 3 4 vu 8 120 empty empty -1 -8 0 10 -66577 -1 0 0;
#X obj -80 186 spigot~;
#X obj 17 132 tgl 15 1 empty empty vu 17 7 0 10 -262144 -1 -1 1 1;
#X obj -34 216 pvu~;
#X obj -240 185 spigot~;
#X obj -194 215 pvu~;
#X obj 15 -33 inlet;
#X connect 0 0 4 0;
#X connect 2 0 3 0;
#X connect 3 0 4 1;
#X connect 3 0 7 1;
#X connect 4 0 1 0;
#X connect 4 0 13 0;
#X connect 5 0 7 0;
#X connect 7 0 6 0;
#X connect 7 0 10 0;
#X connect 10 1 12 0;
#X connect 11 0 10 1;
#X connect 11 0 13 1;
#X connect 12 0 8 0;
#X connect 13 1 14 0;
#X connect 14 0 9 0;
#X connect 15 0 2 0;
#X coords 0 -1 1 1 50 150 2 0 0;
