#N canvas 596 361 502 380 12;
#X obj 4 6 hsl 169 19 -1 1 0 0 \$0-pan_slider_snd \$0-pan_slider_rcv
stereo_balance 38 10 1 14 -33289 -257985 -4032 8400 1;
#X obj 290 332 outlet~ ch2;
#X obj 200 332 outlet~ ch1;
#X text 0 30 -1;
#X text 83 30 0;
#X text 162 30 1;
#X text 73 50 both;
#X text 153 50 ch2;
#X text -1 50 ch1;
#X obj 349 101 s \$0-pan_slider_rcv;
#X obj 349 131 r \$0-pan_slider_snd;
#X obj 200 1 inlet~;
#X obj 349 1 inlet control;
#X obj 369 31 loadbang;
#X msg 369 61 0;
#X text -1 333 Juan Ignacio Mendoza - 2017;
#X obj 200 291 *~;
#X obj 290 1 inlet~;
#X obj 290 291 *~;
#X obj 349 161 moses 0;
#X obj 218 261 r \$0-ch1;
#X obj 395 291 s \$0-ch1;
#X obj 395 261 expr -$f1+1;
#X obj 308 261 expr $f1+1;
#X msg 435 191 0;
#X msg 298 191 0;
#X connect 10 0 19 0;
#X connect 11 0 16 0;
#X connect 12 0 9 0;
#X connect 13 0 14 0;
#X connect 14 0 9 0;
#X connect 16 0 2 0;
#X connect 17 0 18 0;
#X connect 18 0 1 0;
#X connect 19 0 23 0;
#X connect 19 0 25 0;
#X connect 19 1 22 0;
#X connect 19 1 24 0;
#X connect 20 0 16 1;
#X connect 22 0 21 0;
#X connect 23 0 18 1;
#X connect 24 0 23 0;
#X connect 25 0 22 0;
#X coords 0 -1 1 1 174 28 2 1 1;
