#N canvas 0 22 557 415 16;
#X msg 114 205 bang;
#X msg 202 205 stop;
#X obj 242 255 delay;
#X obj 114 155 select 1 0;
#X obj 114 115 inlet tgl;
#X obj 289 115 inlet interval;
#X msg 242 295 bang;
#X obj 242 325 outlet;
#X text 174 371 Juan Mendoza - 2021;
#X text 27 31 This metronome may have a period of less than 1 ms.;
#X text 27 61 The first output is one period after the toggle.;
#X connect 0 0 2 0;
#X connect 1 0 2 0;
#X connect 2 0 6 0;
#X connect 3 0 0 0;
#X connect 3 1 1 0;
#X connect 4 0 3 0;
#X connect 5 0 2 1;
#X connect 6 0 0 0;
#X connect 6 0 7 0;
