#N canvas 594 22 477 762 12;
#X obj -8 486 outlet;
#X obj -8 -74 inlet notein vel;
#X obj -8 -44 s \$0-niv;
#X obj -8 456 r \$0-nov;
#X obj 272 -74 inlet noteout_list;
#X obj 122 -74 inlet notein_list;
#N canvas 0 22 187 380 rtgl 0;
#X obj 0 -90 r \$0-niv;
#X obj 0 0 round_tgl;
#X obj 0 110 s \$0-nov;
#X obj 46 -60 r \$0-sni_2;
#X obj 93 -30 r \$0-sno_2;
#X connect 0 0 1 0;
#X connect 1 0 2 0;
#X connect 3 0 1 1;
#X connect 4 0 1 2;
#X coords 0 -1 1 1 100 100 2 0 0;
#X restore 10 222 pd rtgl;
#N canvas 0 22 317 455 notein_list_hub 0;
#X obj 20 21 inlet;
#X obj 20 411 s \$0-sni_1;
#X obj 38 381 s \$0-sni_2;
#X obj 57 351 s \$0-sni_3;
#X obj 76 321 s \$0-sni_4;
#X obj 95 291 s \$0-sni_5;
#X obj 20 51 unpack f f f f f f f f f f f f;
#X obj 114 261 s \$0-sni_6;
#X obj 132 230 s \$0-sni_7;
#X obj 151 201 s \$0-sni_8;
#X obj 170 171 s \$0-sni_9;
#X obj 189 141 s \$0-sni_10;
#X obj 208 111 s \$0-sni_11;
#X obj 227 81 s \$0-sni_12;
#X connect 0 0 6 0;
#X connect 6 0 1 0;
#X connect 6 1 2 0;
#X connect 6 2 3 0;
#X connect 6 3 4 0;
#X connect 6 4 5 0;
#X connect 6 5 7 0;
#X connect 6 6 8 0;
#X connect 6 7 9 0;
#X connect 6 8 10 0;
#X connect 6 9 11 0;
#X connect 6 10 12 0;
#X connect 6 11 13 0;
#X restore 122 -44 pd notein_list_hub;
#N canvas 0 22 317 455 noteout_list_hub 0;
#X obj 20 21 inlet;
#X obj 20 51 unpack f f f f f f f f f f f f;
#X obj 20 411 s \$0-sno_1;
#X obj 38 381 s \$0-sno_2;
#X obj 57 351 s \$0-sno_3;
#X obj 76 321 s \$0-sno_4;
#X obj 95 291 s \$0-sno_5;
#X obj 114 261 s \$0-sno_6;
#X obj 132 230 s \$0-sno_7;
#X obj 151 201 s \$0-sno_8;
#X obj 170 171 s \$0-sno_9;
#X obj 189 141 s \$0-sno_10;
#X obj 208 111 s \$0-sno_11;
#X obj 227 81 s \$0-sno_12;
#X connect 0 0 1 0;
#X connect 1 0 2 0;
#X connect 1 1 3 0;
#X connect 1 2 4 0;
#X connect 1 3 5 0;
#X connect 1 4 6 0;
#X connect 1 5 7 0;
#X connect 1 6 8 0;
#X connect 1 7 9 0;
#X connect 1 8 10 0;
#X connect 1 9 11 0;
#X connect 1 10 12 0;
#X connect 1 11 13 0;
#X restore 272 -44 pd noteout_list_hub;
#N canvas 0 22 187 380 rtgl 0;
#X obj 0 -90 r \$0-niv;
#X obj 0 0 round_tgl;
#X obj 93 -30 r \$0-sno_1;
#X obj 46 -60 r \$0-sni_1;
#X obj 0 110 s \$0-nov;
#X connect 0 0 1 0;
#X connect 1 0 4 0;
#X connect 2 0 1 2;
#X connect 3 0 1 1;
#X coords 0 -1 1 1 100 100 2 0 0;
#X restore 10 112 pd rtgl;
#N canvas 0 22 187 380 rtgl 0;
#X obj 0 -90 r \$0-niv;
#X obj 0 0 round_tgl;
#X obj 0 110 s \$0-nov;
#X obj 46 -60 r \$0-sni_3;
#X obj 93 -30 r \$0-sno_3;
#X connect 0 0 1 0;
#X connect 1 0 2 0;
#X connect 3 0 1 1;
#X connect 4 0 1 2;
#X coords 0 -1 1 1 100 100 2 0 0;
#X restore 120 2 pd rtgl;
#N canvas 0 23 187 380 rtgl 0;
#X obj 0 -90 r \$0-niv;
#X obj 0 0 round_tgl;
#X obj 0 110 s \$0-nov;
#X obj 46 -60 r \$0-sni_4;
#X obj 93 -30 r \$0-sno_4;
#X connect 0 0 1 0;
#X connect 1 0 2 0;
#X connect 3 0 1 1;
#X connect 4 0 1 2;
#X coords 0 -1 1 1 100 100 2 0 0;
#X restore 120 112 pd rtgl;
#N canvas 0 22 198 435 rtgl 1;
#X obj 0 -90 r \$0-niv;
#X obj 0 0 round_tgl;
#X obj 0 110 s \$0-nov;
#X obj 46 -60 r \$0-sni_5;
#X obj 93 -30 r \$0-sno_5;
#X connect 0 0 1 0;
#X connect 1 0 2 0;
#X connect 3 0 1 1;
#X connect 4 0 1 2;
#X coords 0 -1 1 1 100 100 2 0 0;
#X restore 120 222 pd rtgl;
#N canvas 0 22 187 380 rtgl 0;
#X obj 0 -90 r \$0-niv;
#X obj 0 0 round_tgl;
#X obj 0 110 s \$0-nov;
#X obj 46 -60 r \$0-sni_6;
#X obj 93 -30 r \$0-sno_6;
#X connect 0 0 1 0;
#X connect 1 0 2 0;
#X connect 3 0 1 1;
#X connect 4 0 1 2;
#X coords 0 -1 1 1 100 100 2 0 0;
#X restore 120 332 pd rtgl;
#N canvas 0 22 187 380 rtgl 0;
#X obj 0 -90 r \$0-niv;
#X obj 0 0 round_tgl;
#X obj 0 110 s \$0-nov;
#X obj 46 -60 r \$0-sni_7;
#X obj 92 -30 r \$0-sno_7;
#X connect 0 0 1 0;
#X connect 1 0 2 0;
#X connect 3 0 1 1;
#X connect 4 0 1 2;
#X coords 0 -1 1 1 100 100 2 0 0;
#X restore 230 2 pd rtgl;
#N canvas 0 22 187 380 rtgl 0;
#X obj 0 -90 r \$0-niv;
#X obj 0 0 round_tgl;
#X obj 0 110 s \$0-nov;
#X obj 46 -60 r \$0-sni_8;
#X obj 93 -30 r \$0-sno_8;
#X connect 0 0 1 0;
#X connect 1 0 2 0;
#X connect 3 0 1 1;
#X connect 4 0 1 2;
#X coords 0 -1 1 1 100 100 2 0 0;
#X restore 230 112 pd rtgl;
#N canvas 0 22 187 380 rtgl 0;
#X obj 0 -90 r \$0-niv;
#X obj 0 0 round_tgl;
#X obj 0 110 s \$0-nov;
#X obj 46 -60 r \$0-sni_9;
#X obj 93 -30 r \$0-sno_9;
#X connect 0 0 1 0;
#X connect 1 0 2 0;
#X connect 3 0 1 1;
#X connect 4 0 1 2;
#X coords 0 -1 1 1 100 100 2 0 0;
#X restore 230 222 pd rtgl;
#N canvas 0 22 187 380 rtgl 0;
#X obj 0 -90 r \$0-niv;
#X obj 0 0 round_tgl;
#X obj 0 110 s \$0-nov;
#X obj 46 -60 r \$0-sni_10;
#X obj 93 -30 r \$0-sno_10;
#X connect 0 0 1 0;
#X connect 1 0 2 0;
#X connect 3 0 1 1;
#X connect 4 0 1 2;
#X coords 0 -1 1 1 100 100 2 0 0;
#X restore 230 332 pd rtgl;
#N canvas 0 22 187 380 rtgl 0;
#X obj 0 -90 r \$0-niv;
#X obj 0 0 round_tgl;
#X obj 0 110 s \$0-nov;
#X obj 46 -60 r \$0-sni_12;
#X obj 93 -30 r \$0-sno_12;
#X connect 0 0 1 0;
#X connect 1 0 2 0;
#X connect 3 0 1 1;
#X connect 4 0 1 2;
#X coords 0 -1 1 1 100 100 2 0 0;
#X restore 340 222 pd rtgl;
#N canvas 0 22 187 380 rtgl 0;
#X obj 0 -90 r \$0-niv;
#X obj 0 0 round_tgl;
#X obj 0 110 s \$0-nov;
#X obj 46 -60 r \$0-sni_11;
#X obj 93 -30 r \$0-sno_11;
#X connect 0 0 1 0;
#X connect 1 0 2 0;
#X connect 3 0 1 1;
#X connect 4 0 1 2;
#X coords 0 -1 1 1 100 100 2 0 0;
#X restore 340 112 pd rtgl;
#X connect 1 0 2 0;
#X connect 3 0 0 0;
#X connect 4 0 8 0;
#X connect 5 0 7 0;
#X coords 0 -1 1 1 450 450 2 0 0;
