#N canvas 258 212 442 400 12;
#X obj 93 355 outlet;
#X obj 141 225 metro 50;
#X msg 181 185 1;
#X msg 141 185 0;
#X msg 8 225 1;
#X msg 46 225 2;
#X obj 58 75 route 0;
#X obj 46 265 cyclone/gate 3;
#X msg 85 225 3;
#N canvas 114 502 165 307 saw 0;
#X obj 25 79 cup;
#X obj 25 19 inlet;
#X obj 25 239 outlet;
#X obj 90 49 r \$0-ts;
#X msg 45 49 1;
#X obj 25 179 * 0.98;
#X obj 25 209 + 0.01;
#X obj 75 139 select 1;
#X obj 25 109 / 80;
#X obj 90 79 * 4;
#X connect 0 0 8 0;
#X connect 1 0 0 0;
#X connect 3 0 9 0;
#X connect 4 0 0 0;
#X connect 5 0 6 0;
#X connect 6 0 2 0;
#X connect 7 0 4 0;
#X connect 8 0 7 0;
#X connect 8 0 5 0;
#X connect 9 0 8 1;
#X restore 150 305 pd saw;
#N canvas 423 583 216 291 sqr 0;
#X obj -35 104 cup;
#X msg 15 74 0;
#X obj -35 14 inlet;
#X obj -35 234 outlet;
#X obj 38 164 moses 20;
#X msg 38 194 0.99;
#X msg -35 194 0.01;
#X obj -35 134 moses 10;
#X obj 61 74 / 2;
#X obj 91 14 r \$0-ts;
#X obj 91 44 * 16;
#X connect 0 0 7 0;
#X connect 1 0 0 0;
#X connect 2 0 0 0;
#X connect 4 0 5 0;
#X connect 4 1 1 0;
#X connect 5 0 3 0;
#X connect 6 0 3 0;
#X connect 7 0 6 0;
#X connect 7 1 4 0;
#X connect 8 0 7 1;
#X connect 9 0 10 0;
#X connect 10 0 8 0;
#X connect 10 0 4 1;
#X restore 93 305 pd sqr;
#N canvas 345 421 216 286 sin 0;
#X obj 7 68 cup;
#X msg 161 38 0;
#X obj 7 8 inlet;
#X obj 123 248 outlet;
#X obj 123 158 sin;
#X obj 151 8 r \$0-ts;
#X obj 123 188 + 1;
#X obj 123 218 / 2;
#X obj 123 128 moses 6.28;
#X obj 7 98 expr $f1*6.28/($f2);
#X connect 0 0 9 0;
#X connect 1 0 0 0;
#X connect 2 0 0 0;
#X connect 4 0 6 0;
#X connect 5 0 9 1;
#X connect 6 0 7 0;
#X connect 7 0 3 0;
#X connect 8 0 4 0;
#X connect 8 1 1 0;
#X connect 9 0 8 0;
#X restore 36 305 pd sin;
#X obj 8 185 route sin sqr saw;
#X text 193 355 Juan Ignacio Mendoza 2019;
#X obj 58 45 inlet start/stop;
#X text 70 5 0 sin sqr saw;
#X text 347 5 Hz;
#X obj 185 135 s \$0-ts;
#X text 322 176 T (ms);
#X obj 297 155 expr 1000/$f1;
#X text 184 156 T (samples);
#X obj 185 45 inlet f;
#X text 200 5 BPM;
#X obj 297 45 inlet sample rate;
#X text 10 5 input:;
#X text 10 25 default:;
#X text 110 25 0;
#X text 347 25 20;
#X text 204 25 60;
#X obj 185 75 expr 60*$f2/$f1;
#X obj 185 105 floorceil;
#X connect 1 0 7 1;
#X connect 2 0 1 0;
#X connect 3 0 1 0;
#X connect 4 0 7 0;
#X connect 5 0 7 0;
#X connect 6 0 3 0;
#X connect 6 1 2 0;
#X connect 6 1 12 0;
#X connect 7 0 11 0;
#X connect 7 1 10 0;
#X connect 7 2 9 0;
#X connect 8 0 7 0;
#X connect 9 0 0 0;
#X connect 10 0 0 0;
#X connect 11 0 0 0;
#X connect 12 0 4 0;
#X connect 12 1 5 0;
#X connect 12 2 8 0;
#X connect 14 0 6 0;
#X connect 19 0 1 1;
#X connect 21 0 29 0;
#X connect 23 0 19 0;
#X connect 23 0 29 1;
#X connect 29 0 30 0;
#X connect 30 0 17 0;
#X coords 0 0 1 1 166 88 0;
