#N canvas 464 67 449 408 16;
#X obj -187 314 outlet period;
#X text -140 352 Juan Ignacio Mendoza Garay - 2018;
#X text -182 -24 sampling period and frequency of a signal;
#X obj 33 314 outlet frequency;
#X obj -187 34 inlet signal;
#X obj -187 104 realtime;
#X obj -187 74 t b b;
#X obj -187 194 average 80;
#X obj 33 274 /;
#X msg 33 244 1000 \$1;
#X obj 33 34 inlet window;
#X text 11 4 default = 80;
#X obj 33 74 loadbang;
#X obj 33 104 \$1;
#X obj 33 134 route 0;
#X connect 4 0 6 0;
#X connect 5 0 7 0;
#X connect 6 0 5 0;
#X connect 6 1 5 1;
#X connect 7 0 9 0;
#X connect 7 0 0 0;
#X connect 8 0 3 0;
#X connect 9 0 8 0;
#X connect 10 0 7 1;
#X connect 12 0 13 0;
#X connect 13 0 14 0;
#X connect 14 1 7 1;
#X coords 0 0 1 1 48 46 0;
