#N canvas 528 226 669 438 12;
#X obj 73 15 vradio 16 1 0 1 \$0-switch_snd \$0-switch_rcv empty 0
-8 0 10 -262144 -262144 -262144 0;
#X msg 55 266 16;
#X obj -18 56 r \$0-switch_snd;
#X obj -18 336 s \$0-switch_rcv;
#X msg -18 306 color \$1 \$1 \$1;
#X msg 145 226 set \$1;
#X msg -18 266 0;
#X obj -58 386 outlet;
#X obj 145 22 loadbang;
#X text 15 409 Juan I. Mendoza - 2017;
#X obj -18 156 select 0;
#X obj -18 126 tgl 15 0 empty empty empty 17 7 0 10 -262144 -1 -1 0
1;
#X msg 145 156 16;
#X msg 129 336 100;
#X obj -18 86 bang;
#X msg 225 226 set \$1;
#X msg 185 156 100;
#X obj 225 155 unpack f f;
#X obj -90 16 inlet velocity;
#X obj 225 22 inlet set_velocity colour;
#X obj -244 96 select 0;
#X msg -244 186 set 0;
#X msg -151 186 set 1;
#X obj 55 186 t bang bang;
#X obj 22 86 r \$0-tgl_rcv;
#X obj -244 226 s \$0-tgl_rcv;
#X obj -90 56 t a a;
#X obj -151 126 t b b;
#X obj -244 126 t b b;
#X obj -212 156 s \$0-v0;
#X obj -119 156 s \$0-vN;
#X obj 75 226 r \$0-vN;
#X obj -8 226 r \$0-v0;
#X connect 1 0 4 0;
#X connect 2 0 14 0;
#X connect 4 0 3 0;
#X connect 5 0 1 0;
#X connect 6 0 4 0;
#X connect 6 0 7 0;
#X connect 8 0 12 0;
#X connect 8 0 16 0;
#X connect 10 0 6 0;
#X connect 10 1 23 0;
#X connect 11 0 10 0;
#X connect 12 0 5 0;
#X connect 13 0 7 0;
#X connect 14 0 11 0;
#X connect 15 0 13 0;
#X connect 16 0 15 0;
#X connect 17 0 15 0;
#X connect 17 1 5 0;
#X connect 18 0 26 0;
#X connect 19 0 17 0;
#X connect 20 0 28 0;
#X connect 20 1 27 0;
#X connect 21 0 25 0;
#X connect 22 0 25 0;
#X connect 23 0 1 0;
#X connect 23 1 13 0;
#X connect 24 0 11 0;
#X connect 26 0 20 0;
#X connect 26 1 7 0;
#X connect 27 0 22 0;
#X connect 27 1 30 0;
#X connect 28 0 21 0;
#X connect 28 1 29 0;
#X connect 31 0 1 0;
#X connect 32 0 6 0;
#X coords 0 -1 1 1 18 18 2 72 14;
