#N canvas 110 176 1035 259 12;
#X obj 13 14 hsl 995 20 0 6000 0 0 \$0-hbar_snd \$0-hbar_rcv empty
-2 -8 0 10 -262144 -1 -1 0 1;
#N canvas 0 22 748 255 \$0-markers 0;
#X coords 0 0 1 1 1000 20 1;
#X restore 10 14 pd \$0-markers;
#X obj 797 217 s \$0-hbar_rcv;
#X msg 747 170 range 0 \$1;
#X msg 350 171 clear;
#X obj 350 216 s pd-\$0-markers;
#X msg 417 171 donecanvasdialog 1 1 2 0 0 \$1 1 1000 20 0 0;
#X obj 126 186 pointer;
#X obj 125 126 pack \$0;
#X obj 10 216 append marker x y;
#X msg 125 153 traverse pd-\$1-markers \, bang;
#X msg 68 126 0;
#X obj 10 86 t a b b;
#X obj 719 56 struct marker float x float y;
#X obj 719 86 filledpolygon 800 800 0 0 0 10 0 10 1 0 1;
#X obj 557 117 10000;
#X obj 350 56 inlet size/clear;
#X obj 557 86 loadbang;
#X obj 847 170 r \$0-scrollpos;
#X obj 180 86 s \$0-scrollpos;
#X obj 10 56 inlet marker position;
#X obj 180 56 inlet scroll position;
#X obj 350 86 route bang;
#X connect 3 0 2 0;
#X connect 4 0 5 0;
#X connect 6 0 5 0;
#X connect 7 0 9 2;
#X connect 8 0 10 0;
#X connect 10 0 7 0;
#X connect 11 0 9 1;
#X connect 12 0 9 0;
#X connect 12 1 11 0;
#X connect 12 2 8 0;
#X connect 15 0 3 0;
#X connect 15 0 6 0;
#X connect 16 0 22 0;
#X connect 17 0 15 0;
#X connect 18 0 2 0;
#X connect 20 0 12 0;
#X connect 21 0 19 0;
#X connect 22 0 4 0;
#X connect 22 1 15 0;
#X coords 0 -1 1 1 1000 28 2 10 10;
