#N canvas 511 304 254 387 12;
#X text -89 297 Juan Ignacio Mendoza Garay - 2018;
#X obj -79 -12 inlet signal;
#X obj 21 -12 inlet period;
#X obj -79 268 outlet poll;
#X msg 74 138 1;
#X obj 74 108 t b a;
#X obj -79 238 spigot;
#X msg 74 198 1;
#X msg -40 198 0;
#X obj 21 78 select 0;
#X msg 21 138 0;
#X text -78 -55 get one sample of the signal;
#X text -78 -38 at regular intervals;
#X obj 74 168 metro;
#X obj 31 18 loadbang;
#X obj 31 48 \$1;
#X connect 1 0 6 0;
#X connect 2 0 9 0;
#X connect 4 0 13 0;
#X connect 5 0 4 0;
#X connect 5 1 13 1;
#X connect 6 0 8 0;
#X connect 6 0 3 0;
#X connect 7 0 6 1;
#X connect 8 0 6 1;
#X connect 9 0 10 0;
#X connect 9 1 5 0;
#X connect 10 0 13 0;
#X connect 13 0 7 0;
#X connect 14 0 15 0;
#X connect 15 0 9 0;
#X coords 0 0 1 1 48 46 0;
