#N canvas 881 128 501 916 12;
#X obj 155 752 *~;
#X obj 143 489 - 1000;
#X obj 155 710 *~;
#X obj 248 619 line~;
#X obj 28 430 t a a;
#X obj 110 580 pack f f f;
#X obj 60 520 t b a;
#X msg 110 610 \$2 \$3;
#X msg 60 490 \$1 0;
#X obj 28 400 + 2000;
#X obj 182 402 + 800;
#X obj 159 330 * 10;
#X obj 159 360 t a a a;
#X text 78 401 start f;
#X text 188 421 delta f;
#X obj 159 230 metro;
#X obj 159 268 random 101;
#X obj 191 160 / 100;
#X obj 191 200 expr $f2 * $f1;
#X obj 169 300 s \$0-rn;
#X obj 191 130 r \$0-rn;
#X obj 171 10 s \$0-level;
#X obj 250 660 r \$0-level;
#X obj 250 720 moses 2;
#X obj 250 690 expr -log(1-$f1)/4;
#X obj 159 40 select 0;
#X msg 159 71 0;
#X msg 212 71 1;
#X obj 159 101 change;
#X obj 155 782 outlet~;
#X obj 49 230 s \$0-mtgl;
#X text 243 784 Juan Ignacio Mendoza Garay - 2018;
#X obj 0 3 cnv 10 111 48 empty empty empty 50 12 0 10 -161239 -143491
0;
#X obj 4 8 cnv 10 103 40 empty empty empty 50 12 0 10 -262144 -143491
0;
#X obj 10 29 hsl 90 15 0 1 0 0 \$0-L_slider_snd \$0-L_slider_rcv empty
29 8 0 10 -161239 -257985 -262144 0 1;
#X obj 26 11 cnv 10 60 10 empty empty tweeter 8 8 1 14 -262144 -143491
0;
#X msg 248 519 0 \$1;
#X msg 322 519 1 10;
#X obj 248 493 pipe 10;
#X obj 248 462 trigger a b;
#X obj 159 -110 inlet;
#X obj 159 -80 s \$0-L_slider_rcv;
#X obj 159 -40 r \$0-L_slider_snd;
#X obj 92 640 line~;
#X obj 92 670 osc~;
#X text 288 401 duration;
#X obj 248 402 * 0.8;
#X obj 286 8 expr (1 - $f1) * 2000 + 100;
#X connect 0 0 29 0;
#X connect 1 0 5 1;
#X connect 2 0 0 0;
#X connect 3 0 2 1;
#X connect 4 0 1 0;
#X connect 4 1 8 0;
#X connect 5 0 7 0;
#X connect 6 0 5 0;
#X connect 6 1 43 0;
#X connect 7 0 43 0;
#X connect 8 0 6 0;
#X connect 9 0 4 0;
#X connect 10 0 1 1;
#X connect 11 0 12 0;
#X connect 12 0 9 0;
#X connect 12 1 10 0;
#X connect 12 2 46 0;
#X connect 15 0 16 0;
#X connect 16 0 11 0;
#X connect 16 0 19 0;
#X connect 17 0 18 0;
#X connect 18 0 15 1;
#X connect 20 0 17 0;
#X connect 22 0 24 0;
#X connect 23 0 0 1;
#X connect 24 0 23 0;
#X connect 25 0 26 0;
#X connect 25 1 27 0;
#X connect 26 0 28 0;
#X connect 27 0 28 0;
#X connect 28 0 15 0;
#X connect 28 0 30 0;
#X connect 36 0 3 0;
#X connect 37 0 3 0;
#X connect 38 0 36 0;
#X connect 39 0 38 0;
#X connect 39 1 37 0;
#X connect 40 0 41 0;
#X connect 42 0 21 0;
#X connect 42 0 25 0;
#X connect 42 0 47 0;
#X connect 43 0 44 0;
#X connect 44 0 2 0;
#X connect 46 0 5 2;
#X connect 46 0 39 0;
#X connect 47 0 18 1;
#X coords 0 -1 1 1 111 54 2 0 0;
