#N canvas 0 22 666 391 12;
#X obj 103 125 outlet;
#N canvas 1080 271 270 153 \$0-udp_prov 0;
#X restore -17 96 pd \$0-udp_prov;
#X obj -157 96 s pd-\$0-udp_prov;
#X msg -157 35 clear;
#X obj 103 96 r \$0-udprecout;
#X obj -67 -5 pack f \$0;
#X msg -67 35 clear \, obj 1 1 udpreceive \$1 \, obj 1 50 send \$2-udprecout
\, connect 0 0 1 0;
#X obj -67 -35 inlet osc_port;
#X obj -157 -35 inlet reset;
#X connect 3 0 2 0;
#X connect 4 0 0 0;
#X connect 5 0 6 0;
#X connect 6 0 2 0;
#X connect 7 0 5 0;
#X connect 8 0 3 0;
