#N canvas 928 22 444 665 12;
#X text 61 -7 Up-middle-down display;
#N canvas 521 479 450 300 \$0-umd_dynamic 0;
#X obj 1 1 cnv 15 50 50 0 0 . -32 -47 2 350 -1 -128992 0;
#X coords 0 -1 1 1 50 50 2 1 1;
#X restore 1 1 pd \$0-umd_dynamic;
#X obj -169 294 s pd-\$0-umd_dynamic;
#X obj -140 222 s pd-\$0-umd_dynamic;
#X msg -169 262 clear \, obj 1 1 cnv 15 50 50 0 0 v 10 25 1 60 22 16
;
#X obj -111 152 s pd-\$0-umd_dynamic;
#X msg -111 122 clear \, obj 1 1 cnv 15 50 50 0 0 ^ 6 42 1 74 22 17
;
#X text 67 11 1 = Up;
#X text 67 25 0 = middle;
#X text 61 39 -1 = down;
#X msg -140 192 clear \, obj 1 1 cnv 15 50 50 0 0 . -32 -47 2 350 22
11;
#X obj -63 -279 inlet;
#X obj 1 -279 inlet;
#X text -134 -299 signal;
#X text -66 -299 on/off;
#X text -2 -299 hold-time;
#X obj -169 -339 loadbang;
#X msg -169 -279 2;
#X text -154 -313 defaults:;
#X text -55 -313 on;
#X obj -169 31 select -1 0 1;
#X obj -130 -11 spigot;
#X msg -59 -45 1;
#X msg -91 -75 0;
#X obj -91 -179 change;
#X obj -91 -149 t b b;
#X obj -63 -249 + 1;
#X obj -130 -279 inlet;
#X obj -169 -199 gate 2;
#X text 8 -313 200 ms;
#X obj -59 -115 delay 200;
#X obj -49 -85 loadbang;
#X connect 4 0 2 0;
#X connect 6 0 5 0;
#X connect 10 0 3 0;
#X connect 11 0 26 0;
#X connect 12 0 30 1;
#X connect 16 0 17 0;
#X connect 17 0 28 0;
#X connect 20 0 4 0;
#X connect 20 1 10 0;
#X connect 20 2 6 0;
#X connect 21 0 20 0;
#X connect 21 0 24 0;
#X connect 22 0 21 1;
#X connect 23 0 21 1;
#X connect 24 0 25 0;
#X connect 25 0 23 0;
#X connect 25 1 30 0;
#X connect 26 0 28 0;
#X connect 27 0 28 1;
#X connect 28 0 20 0;
#X connect 28 1 21 0;
#X connect 30 0 22 0;
#X connect 31 0 22 0;
#X coords 0 -1 1 1 50 50 2 1 1;
