#N canvas 655 279 376 381 10;
#X text 61 2 Up-middle-down display;
#N canvas 521 479 450 300 \$0-umd_dynamic 0;
#X obj 1 1 cnv 15 50 50 0 0 ^ 6 42 1 74 -1 -44926 0;
#X coords 0 -1 1 1 50 50 2 1 1;
#X restore 1 1 pd \$0-umd_dynamic;
#X obj 1 323 s pd-\$0-umd_dynamic;
#X obj 26 251 s pd-\$0-umd_dynamic;
#X msg 1 291 clear \, obj 1 1 cnv 15 50 50 0 0 v 10 25 1 60 22 16;
#X obj 51 181 s pd-\$0-umd_dynamic;
#X msg 51 151 clear \, obj 1 1 cnv 15 50 50 0 0 ^ 6 42 1 74 22 17;
#X obj 1 80 inlet;
#X text 67 16 1 = Up;
#X text 67 30 0 = middle;
#X text 61 44 -1 = down;
#X obj 1 110 select -1 0 1;
#X msg 26 221 clear \, obj 1 1 cnv 15 50 50 0 0 . -32 -47 2 350 22
11;
#X connect 4 0 2 0;
#X connect 6 0 5 0;
#X connect 7 0 11 0;
#X connect 11 0 4 0;
#X connect 11 1 12 0;
#X connect 11 2 6 0;
#X connect 12 0 3 0;
#X coords 0 -1 1 1 50 50 2 1 1;
