#N canvas 716 45 511 739 12;
#X declare -lib Gem;
#X declare -lib iemmatrix;
#X declare -lib hexloader;
#X declare -lib iemmatrix;
#X text -287 138 controller -->;
#X obj -181 99 video_blob;
#X obj -194 209 s \$0-d_x;
#X obj -116 209 s \$0-d_y;
#N canvas 0 22 248 258 ROI_colour 0;
#X obj -30 195 s ROI_colour;
#X msg -140 155 0.6 1 0.4 1;
#X msg -63 115 0 0.7 0.9;
#X msg 30 114 1 1 0;
#X obj -140 54 select 0 1 2;
#X obj -140 24 inlet;
#X connect 1 0 0 0;
#X connect 2 0 0 0;
#X connect 3 0 0 0;
#X connect 4 0 1 0;
#X connect 4 1 2 0;
#X connect 4 2 3 0;
#X connect 5 0 4 0;
#X restore -23 129 pd ROI_colour;
#X obj -23 99 hradio 15 1 0 3 empty empty empty 0 -8 0 10 -262144 -1
-1 0;
#X text -261 36 on/off -->;
#X obj -181 39 tgl 15 0 empty empty video 17 7 0 10 -262144 -1 -1 1
1;
#X obj -181 -21 loadbang;
#X msg -181 9 1;
#X obj -174 69 s \$0-h_5x1_d;
#X obj -198 378 makenote 64 250;
#X obj -198 678 dac~;
#X obj -198 638 *~;
#X obj 23 401 vsl 15 128 0 1 0 0 empty empty empty 0 -9 0 10 -262144
-1 -1 4600 1;
#X floatatom 23 540 5 0 0 0 - - -;
#X obj -66 458 / 127;
#N canvas 383 416 420 304 ROI_hub_5x1 0;
#N canvas 1051 362 389 357 ROI 0;
#X msg 116 99 0.3 0.2 0.5 0.9;
#X obj 58 261 outlet;
#X obj 58 231 select 1;
#X obj -32 69 r \$0-d_x;
#X obj 46 69 r \$0-d_y;
#X obj 116 49 list_set_4_GUI;
#X obj 286 129 list;
#X obj 286 19 list;
#X text 121 26 pos.;
#X text 157 26 size;
#X text 201 26 pos.;
#X text 237 26 size;
#X text 117 6 __________;
#X text 184 15 |;
#X text 114 15 |;
#X text 197 6 __________;
#X text 264 15 |;
#X text 194 15 |;
#X text 149 0 X;
#X text 229 0 Y;
#X obj 58 199 rectangle_ROI;
#X obj 146 159 r \$0-h_5x1_d;
#X connect 0 0 6 0;
#X connect 0 0 20 2;
#X connect 2 0 1 0;
#X connect 3 0 20 0;
#X connect 4 0 20 1;
#X connect 5 0 0 0;
#X connect 6 0 7 0;
#X connect 7 0 5 4;
#X connect 20 0 2 0;
#X connect 21 0 20 4;
#X restore -125 60 pd ROI;
#X obj -88 91 bng 18 250 50 0 empty empty empty 17 7 0 10 -262144 -1
-1;
#X obj -125 120 s \$0-ROI;
#X msg -125 90 2;
#N canvas 1051 362 389 357 ROI 0;
#X msg 116 99 0.1 0.2 0.5 0.9;
#X obj 58 261 outlet;
#X obj 58 231 select 1;
#X obj -32 69 r \$0-d_x;
#X obj 46 69 r \$0-d_y;
#X obj 116 49 list_set_4_GUI;
#X obj 286 129 list;
#X obj 286 19 list;
#X text 121 26 pos.;
#X text 157 26 size;
#X text 201 26 pos.;
#X text 237 26 size;
#X text 117 6 __________;
#X text 184 15 |;
#X text 114 15 |;
#X text 197 6 __________;
#X text 264 15 |;
#X text 194 15 |;
#X text 149 0 X;
#X text 229 0 Y;
#X obj 58 199 rectangle_ROI;
#X obj 146 159 r \$0-h_5x1_d;
#X connect 0 0 6 0;
#X connect 0 0 20 2;
#X connect 2 0 1 0;
#X connect 3 0 20 0;
#X connect 4 0 20 1;
#X connect 5 0 0 0;
#X connect 6 0 7 0;
#X connect 7 0 5 4;
#X connect 20 0 2 0;
#X connect 21 0 20 4;
#X restore -195 60 pd ROI;
#X obj -158 91 bng 18 250 50 0 empty empty empty 17 7 0 10 -262144
-1 -1;
#X obj -195 120 s \$0-ROI;
#X msg -195 90 1;
#N canvas 1051 362 389 357 ROI 0;
#X msg 116 99 0.5 0.2 0.5 0.9;
#X obj 58 261 outlet;
#X obj 58 231 select 1;
#X obj -32 69 r \$0-d_x;
#X obj 46 69 r \$0-d_y;
#X obj 116 49 list_set_4_GUI;
#X obj 286 129 list;
#X obj 286 19 list;
#X text 121 26 pos.;
#X text 157 26 size;
#X text 201 26 pos.;
#X text 237 26 size;
#X text 117 6 __________;
#X text 184 15 |;
#X text 114 15 |;
#X text 197 6 __________;
#X text 264 15 |;
#X text 194 15 |;
#X text 149 0 X;
#X text 229 0 Y;
#X obj 58 199 rectangle_ROI;
#X obj 146 159 r \$0-h_5x1_d;
#X connect 0 0 6 0;
#X connect 0 0 20 2;
#X connect 2 0 1 0;
#X connect 3 0 20 0;
#X connect 4 0 20 1;
#X connect 5 0 0 0;
#X connect 6 0 7 0;
#X connect 7 0 5 4;
#X connect 20 0 2 0;
#X connect 21 0 20 4;
#X restore -55 60 pd ROI;
#X obj -18 91 bng 18 250 50 0 empty empty empty 17 7 0 10 -262144 -1
-1;
#X obj -55 120 s \$0-ROI;
#X msg -55 90 3;
#N canvas 1051 362 389 357 ROI 0;
#X msg 116 99 0.7 0.2 0.5 0.9;
#X obj 58 261 outlet;
#X obj 58 231 select 1;
#X obj -32 69 r \$0-d_x;
#X obj 46 69 r \$0-d_y;
#X obj 116 49 list_set_4_GUI;
#X obj 286 129 list;
#X obj 286 19 list;
#X text 121 26 pos.;
#X text 157 26 size;
#X text 201 26 pos.;
#X text 237 26 size;
#X text 117 6 __________;
#X text 184 15 |;
#X text 114 15 |;
#X text 197 6 __________;
#X text 264 15 |;
#X text 194 15 |;
#X text 149 0 X;
#X text 229 0 Y;
#X obj 58 199 rectangle_ROI;
#X obj 146 159 r \$0-h_5x1_d;
#X connect 0 0 6 0;
#X connect 0 0 20 2;
#X connect 2 0 1 0;
#X connect 3 0 20 0;
#X connect 4 0 20 1;
#X connect 5 0 0 0;
#X connect 6 0 7 0;
#X connect 7 0 5 4;
#X connect 20 0 2 0;
#X connect 21 0 20 4;
#X restore 15 60 pd ROI;
#X obj 52 91 bng 18 250 50 0 empty empty empty 17 7 0 10 -262144 -1
-1;
#X obj 15 120 s \$0-ROI;
#X msg 15 90 4;
#N canvas 1051 362 389 357 ROI 0;
#X obj 58 261 outlet;
#X obj 58 231 select 1;
#X obj -32 69 r \$0-d_x;
#X obj 46 69 r \$0-d_y;
#X obj 116 49 list_set_4_GUI;
#X obj 286 129 list;
#X obj 286 19 list;
#X text 121 26 pos.;
#X text 157 26 size;
#X text 201 26 pos.;
#X text 237 26 size;
#X text 117 6 __________;
#X text 184 15 |;
#X text 114 15 |;
#X text 197 6 __________;
#X text 264 15 |;
#X text 194 15 |;
#X text 149 0 X;
#X text 229 0 Y;
#X obj 58 199 rectangle_ROI;
#X obj 146 159 r \$0-h_5x1_d;
#X msg 116 99 0.9 0.2 0.5 0.9;
#X connect 1 0 0 0;
#X connect 2 0 19 0;
#X connect 3 0 19 1;
#X connect 4 0 21 0;
#X connect 5 0 6 0;
#X connect 6 0 4 4;
#X connect 19 0 1 0;
#X connect 20 0 19 4;
#X connect 21 0 5 0;
#X connect 21 0 19 2;
#X restore 85 60 pd ROI;
#X obj 122 91 bng 18 250 50 0 empty empty empty 17 7 0 10 -262144 -1
-1;
#X obj 85 120 s \$0-ROI;
#X msg 85 90 5;
#X connect 0 0 3 0;
#X connect 0 0 1 0;
#X connect 3 0 2 0;
#X connect 4 0 7 0;
#X connect 4 0 5 0;
#X connect 7 0 6 0;
#X connect 8 0 11 0;
#X connect 8 0 9 0;
#X connect 11 0 10 0;
#X connect 12 0 15 0;
#X connect 12 0 13 0;
#X connect 15 0 14 0;
#X connect 16 0 19 0;
#X connect 16 0 17 0;
#X connect 19 0 18 0;
#X restore -194 239 pd ROI_hub_5x1;
#X text -308 337 MIDI notes -->;
#X msg -198 338 72;
#X msg -158 338 74;
#X msg -118 338 76;
#X msg -78 338 79;
#X msg -38 338 81;
#X obj -194 300 select 1 2 3 4 5;
#X obj -194 269 r \$0-ROI;
#X obj -66 519 line~;
#X msg -66 488 \$1 100;
#X text -152 679 Juan Ignacio Mendoza - 2022;
#X obj -198 538 add_polysynth;
#X msg -166 505 5;
#X obj -198 468 t a b;
#X obj -198 608 *~;
#N canvas 241 364 450 300 only_one 0;
#X obj 18 19 inlet;
#X obj 168 229 outlet;
#X obj 18 99 spigot;
#X obj 78 19 loadbang;
#X msg 87 60 1;
#X msg 127 60 0;
#X obj 88 129 t b b a;
#X obj 148 179 change;
#X obj 68 179 delay 200;
#X connect 0 0 2 0;
#X connect 2 0 6 0;
#X connect 3 0 4 0;
#X connect 4 0 2 1;
#X connect 5 0 2 1;
#X connect 6 0 5 0;
#X connect 6 1 8 0;
#X connect 6 2 7 0;
#X connect 7 0 1 0;
#X connect 8 0 4 0;
#X restore -198 428 pd only_one;
#X connect 1 0 2 0;
#X connect 1 1 3 0;
#X connect 5 0 4 0;
#X connect 7 0 1 0;
#X connect 7 0 10 0;
#X connect 8 0 9 0;
#X connect 9 0 7 0;
#X connect 11 0 33 0;
#X connect 11 1 16 0;
#X connect 13 0 12 0;
#X connect 13 0 12 1;
#X connect 14 0 13 1;
#X connect 14 0 15 0;
#X connect 16 0 27 0;
#X connect 19 0 11 0;
#X connect 20 0 11 0;
#X connect 21 0 11 0;
#X connect 22 0 11 0;
#X connect 23 0 11 0;
#X connect 24 0 19 0;
#X connect 24 1 20 0;
#X connect 24 2 21 0;
#X connect 24 3 22 0;
#X connect 24 4 23 0;
#X connect 25 0 24 0;
#X connect 26 0 32 1;
#X connect 27 0 26 0;
#X connect 29 0 32 0;
#X connect 30 0 29 1;
#X connect 31 0 29 0;
#X connect 31 1 30 0;
#X connect 32 0 13 0;
#X connect 33 0 31 0;
