#N canvas 639 47 272 566 10;
#X declare -lib iemgui -lib vbap -lib iemlib -lib iemmatrix -lib mrpeach
;
#X declare -lib Gem;
#X declare -lib iemmatrix;
#X obj -93 375 master_level_8;
#X obj -40 -5 noise~;
#X obj -40 235 cart2vbap_8;
#X obj -15 36 video_blob;
#X floatatom -5 185 5 0 0 0 - - -;
#X floatatom 82 185 5 0 0 0 - - -;
#X floatatom 128 185 5 0 0 0 - - -;
#N canvas 687 258 282 249 xy_processor 0;
#X obj 21 211 outlet;
#X obj 21 181 line;
#X obj 111 211 outlet;
#X obj 21 91 t a b;
#X msg 48 151 0;
#X obj 111 181 line;
#X obj 111 91 t a b;
#X msg 138 151 0;
#X obj 21 21 inlet x;
#X obj 111 21 inlet y;
#X obj 201 21 inlet time;
#X msg 201 91 set \$1;
#X obj 111 51 expr 1 - $f1;
#X connect 1 0 0 0;
#X connect 3 0 1 0;
#X connect 3 1 4 0;
#X connect 4 0 1 1;
#X connect 5 0 2 0;
#X connect 6 0 5 0;
#X connect 6 1 7 0;
#X connect 7 0 5 1;
#X connect 8 0 3 0;
#X connect 9 0 12 0;
#X connect 10 0 11 0;
#X connect 11 0 4 0;
#X connect 11 0 7 0;
#X connect 12 0 6 0;
#X restore -15 145 pd xy_processor;
#X obj 128 12 vsl 15 128 0 1000 0 0 empty empty empty 0 -9 0 10 -262144
-1 -1 0 1;
#X connect 1 0 2 0;
#X connect 2 0 0 1;
#X connect 2 1 0 2;
#X connect 2 2 0 3;
#X connect 2 3 0 4;
#X connect 2 4 0 5;
#X connect 2 5 0 6;
#X connect 2 6 0 7;
#X connect 2 7 0 8;
#X connect 3 0 7 0;
#X connect 3 1 7 1;
#X connect 7 0 4 0;
#X connect 7 0 2 1;
#X connect 7 1 5 0;
#X connect 7 1 2 2;
#X connect 8 0 6 0;
#X connect 8 0 7 2;
