#N canvas 803 22 530 755 12;
#X declare -lib zexy;
#X declare -lib motex;
#X obj 24 102 bng 15 250 50 0 empty empty empty 17 7 0 10 -262144 -1
-1;
#X obj 24 122 openpanel;
#X msg 182 102 play document 1;
#X msg 24 212 open file "\$1";
#X msg 182 142 stop document 1;
#X msg 182 222 present document 1;
#X obj 7 4 declare -lib zexy;
#X obj 7 34 declare -lib motex;
#X obj 24 152 s2l /;
#X obj 24 182 l2s :;
#X msg 182 302 get current time of document 1;
#X msg 182 342 get duration of document 1;
#X msg 7 62 osascript -e 'tell application "QuickTime Player" to activate'
&;
#X msg 24 572 osascript -e 'tell application "QuickTime Player" to
\$1' &;
#X obj 7 662 system;
#X obj 7 602 s \$0-messages;
#X obj 7 632 r \$0-messages;
#X obj 94 542 s \$0-messages;
#X obj 94 462 l2s;
#X obj 24 462 l2s;
#X obj 7 722 print MESSAGE FROM QT;
#X msg 182 182 close document 1;
#X text 321 221 <--- fullscreen;
#X msg 182 262 quit;
#X obj 7 692 netreceive 4000 1;
#X msg 94 492 osascript -e 'tell application "QuickTime Player" to
\$1' > /dev/udp/localhost/4000;
#X text 124 462 If it doesn't work then replace localhost with 127.0.0.1
;
#X connect 0 0 1 0;
#X connect 1 0 8 0;
#X connect 2 0 19 0;
#X connect 3 0 19 0;
#X connect 4 0 19 0;
#X connect 5 0 19 0;
#X connect 8 0 9 0;
#X connect 9 0 3 0;
#X connect 10 0 18 0;
#X connect 11 0 18 0;
#X connect 12 0 15 0;
#X connect 13 0 15 0;
#X connect 16 0 14 0;
#X connect 18 0 25 0;
#X connect 19 0 13 0;
#X connect 21 0 19 0;
#X connect 23 0 19 0;
#X connect 24 0 20 0;
#X connect 25 0 17 0;
