#N canvas 635 -941 432 664 12;
#X declare -lib zexy;
#X declare -lib motex;
#X obj 24 102 bng 15 250 50 0 empty empty empty 17 7 0 10 -262144 -1
-1;
#X obj 24 122 openpanel;
#X obj 7 4 declare -lib zexy;
#X obj 7 34 declare -lib motex;
#X obj 24 152 s2l /;
#X obj 24 182 l2s :;
#X obj 7 562 system;
#X obj 7 502 s \$0-messages;
#X obj 7 532 r \$0-messages;
#X obj 94 442 s \$0-messages;
#X obj 94 362 l2s;
#X obj 24 362 l2s;
#X obj 7 592 netreceive 4000 1;
#X msg 7 62 osascript -e 'tell application "VLC" to activate' &;
#X msg 24 472 osascript -e 'tell application "VLC" to \$1' &;
#X msg 24 212 open file "\$1";
#X msg 94 392 osascript -e 'tell application "VLC" to \$1' > /dev/udp/localhost/4000
;
#X obj 7 622 print MESSAGE FROM VLC;
#X msg 182 152 play;
#X text 220 151 <--- play/pause;
#X msg 182 182 stop;
#X text 220 181 <--- stop and close;
#X msg 182 302 get duration of current item;
#X msg 182 272 get current time;
#X msg 182 242 quit;
#X msg 182 212 fullscreen;
#X connect 0 0 1 0;
#X connect 1 0 4 0;
#X connect 4 0 5 0;
#X connect 5 0 15 0;
#X connect 8 0 6 0;
#X connect 10 0 16 0;
#X connect 11 0 14 0;
#X connect 12 0 17 0;
#X connect 13 0 7 0;
#X connect 14 0 7 0;
#X connect 15 0 11 0;
#X connect 16 0 9 0;
#X connect 18 0 11 0;
#X connect 20 0 11 0;
#X connect 22 0 10 0;
#X connect 23 0 10 0;
#X connect 24 0 11 0;
#X connect 25 0 11 0;
