#N canvas 545 493 847 329 16;
#X obj -126 27 inlet;
#X obj 544 27 inlet;
#X obj 94 247 outlet;
#X obj 544 247 outlet;
#X text -47 58 0 = direct;
#X text -47 78 1 = crossed;
#X obj 94 27 inlet;
#X obj -126 117 select 0 1;
#X obj 94 157 spigot;
#X obj 544 157 spigot;
#X obj -56 27 loadbang;
#X msg -106 67 0;
#X obj 151 107 r \$0-dir;
#X obj 601 107 r \$0-dir;
#X obj 244 157 spigot;
#X obj 301 107 r \$0-cro;
#X obj 394 157 spigot;
#X obj 451 107 r \$0-cro;
#X obj 554 67 s \$0-in_2;
#X obj 104 67 s \$0-in_1;
#X obj 244 67 r \$0-in_2;
#X obj 394 67 r \$0-in_1;
#X msg -76 207 0;
#X msg -126 207 1;
#X msg -17 207 0;
#X msg 33 207 1;
#X obj -126 247 s \$0-dir;
#X obj -17 247 s \$0-cro;
#X obj -126 157 t b b;
#X obj -17 157 t b b;
#X text 117 288 Juan Ignacio Mendoza Garay - 2018;
#X connect 0 0 7 0;
#X connect 1 0 9 0;
#X connect 1 0 18 0;
#X connect 6 0 8 0;
#X connect 6 0 19 0;
#X connect 7 0 28 0;
#X connect 7 1 29 0;
#X connect 8 0 2 0;
#X connect 9 0 3 0;
#X connect 10 0 11 0;
#X connect 11 0 7 0;
#X connect 12 0 8 1;
#X connect 13 0 9 1;
#X connect 14 0 2 0;
#X connect 15 0 14 1;
#X connect 16 0 3 0;
#X connect 17 0 16 1;
#X connect 20 0 14 0;
#X connect 21 0 16 0;
#X connect 22 0 26 0;
#X connect 23 0 26 0;
#X connect 24 0 27 0;
#X connect 25 0 27 0;
#X connect 28 0 23 0;
#X connect 28 1 24 0;
#X connect 29 0 25 0;
#X connect 29 1 22 0;
