#N canvas 869 190 571 666 16;
#X obj -199 492 gemhead 1;
#X obj -199 522 s \$0-gemlist;
#X obj 78 125 s \$0-thickness;
#X obj 18 -19 bng 15 250 50 0 empty empty empty 17 7 0 10 -262144 -1
-1;
#X msg -119 402 0 \, destroy;
#X msg -150 82 create \, 1;
#X obj -199 -68 loadbang;
#X msg -199 -28 reset;
#X msg -140 172 fullscreen \$1;
#X obj -130 212 tgl 15 0 empty empty empty 17 7 0 10 -262144 -1 -1
0 1;
#X msg -140 122 0;
#X msg -130 242 menubar \$1;
#X obj -120 272 tgl 15 0 empty empty empty 17 7 0 10 -262144 -1 -1
0 1;
#X msg -120 302 topmost \$1;
#X msg -90 122 1;
#X msg -40 122 2;
#X obj -199 452 gemwin 2;
#X obj -119 342 key;
#X obj -119 372 select 27;
#N canvas 835 179 581 441 dynamic_circles 0;
#X msg 327 302 clear;
#X obj 327 -8 r \$0-tr_clear;
#N canvas 894 625 442 408 \$0-circles 0;
#X obj 0 0 pix_onecircle 2701 3.9 0.6 0.4 1;
#X obj 0 30 pix_onecircle 2701 2.5 0.4 1 0.4;
#X obj 0 60 pix_onecircle 2701 1.2 1 0.5 0.5;
#X obj 0 90 pix_onecircle 2701 1.9 1 1 0.4;
#X obj 0 120 pix_onecircle 2701 3.2 0.4 0.9 1;
#X restore 167 392 pd \$0-circles;
#X obj 167 352 s pd-\$0-circles;
#X obj -79 -8 r \$0-circparam;
#X text 73 207 \$3 = R;
#X text 73 227 \$4 = G;
#X text 73 247 \$5 = B;
#X text 73 267 \$6 = patch's ID;
#X obj 38 122 expr ($f1-1)*30;
#X msg -79 302 obj 0 \$1 pix_onecircle \$6 \$2 \$3 \$4 \$5;
#X obj -79 172 list prepend;
#X obj -79 22 t a b;
#X obj 38 92 cup;
#X msg 226 44 1;
#X text 116 7 \$2 = R;
#X text 116 27 \$3 = G;
#X text 116 47 \$4 = B;
#X text 69 -10 <---;
#X obj -79 242 list \$0;
#X text 73 167 \$1 = sub-patch position;
#X text -4 240 <------;
#X text 73 187 \$2 = diameter;
#X text 116 -13 \$1 = diameter;
#X connect 0 0 3 0;
#X connect 1 0 0 0;
#X connect 1 0 14 0;
#X connect 4 0 12 0;
#X connect 9 0 11 1;
#X connect 10 0 3 0;
#X connect 11 0 19 0;
#X connect 12 0 11 0;
#X connect 12 1 13 0;
#X connect 13 0 9 0;
#X connect 14 0 13 0;
#X connect 19 0 10 0;
#X restore 18 522 pd dynamic_circles;
#N canvas 1391 257 387 528 circle_parameters 1;
#X obj -132 482 s \$0-circparam;
#X obj 85 112 s \$0-tr_clear;
#X obj 38 72 t b b;
#X obj 38 12 inlet;
#X obj 38 42 bng 15 250 50 0 empty empty empty 17 7 0 10 -262144 -1
-1;
#X msg 38 252 2.5 0.4 1 0.4;
#X msg 38 302 1.9 1 1 0.4;
#X msg 38 152 3.9 0.6 0.4 1;
#X msg 38 202 3.2 0.4 0.9 1;
#X msg 38 352 1.2 1 0.5 0.5;
#X connect 2 0 7 0;
#X connect 2 1 1 0;
#X connect 3 0 4 0;
#X connect 4 0 2 0;
#X connect 5 0 0 0;
#X connect 5 0 6 0;
#X connect 6 0 9 0;
#X connect 6 0 0 0;
#X connect 7 0 0 0;
#X connect 7 0 8 0;
#X connect 8 0 5 0;
#X connect 8 0 0 0;
#X connect 9 0 0 0;
#X restore 18 492 pd circle_parameters;
#X text 38 -24 trigger all;
#X obj 98 452 s \$0-translate;
#X obj 98 418 pack f f f;
#X floatatom 98 288 5 0 0 0 - - -;
#X floatatom 188 288 5 0 0 0 - - -;
#X floatatom 278 288 5 0 0 0 - - -;
#X obj 188 318 t b f;
#X obj 268 318 t b f;
#X msg 198 259 0;
#X msg 288 259 0;
#X msg 56 169 set \$1;
#X msg 146 169 set \$1;
#X msg 236 169 set \$1;
#X obj 26 219 bng 15 250 50 0 empty empty empty 17 7 0 10 -262144 -1
-1;
#X msg 108 259 0;
#X obj 78 60 delay 50;
#X msg -169 52 offset 0 0;
#X msg -179 12 dimen 1000 1000;
#X msg 78 95 6;
#X connect 0 0 1 0;
#X connect 3 0 20 0;
#X connect 3 0 36 0;
#X connect 4 0 16 0;
#X connect 5 0 16 0;
#X connect 6 0 7 0;
#X connect 6 0 3 0;
#X connect 7 0 38 0;
#X connect 7 0 16 0;
#X connect 8 0 16 0;
#X connect 9 0 11 0;
#X connect 10 0 8 0;
#X connect 11 0 16 0;
#X connect 12 0 13 0;
#X connect 13 0 16 0;
#X connect 14 0 8 0;
#X connect 15 0 8 0;
#X connect 17 0 18 0;
#X connect 18 0 4 0;
#X connect 23 0 22 0;
#X connect 24 0 23 0;
#X connect 24 0 31 0;
#X connect 25 0 27 0;
#X connect 25 0 32 0;
#X connect 26 0 28 0;
#X connect 26 0 33 0;
#X connect 27 0 23 0;
#X connect 27 1 23 1;
#X connect 28 0 23 0;
#X connect 28 1 23 2;
#X connect 29 0 25 0;
#X connect 30 0 26 0;
#X connect 31 0 35 0;
#X connect 32 0 29 0;
#X connect 33 0 30 0;
#X connect 34 0 35 0;
#X connect 34 0 29 0;
#X connect 34 0 30 0;
#X connect 35 0 24 0;
#X connect 36 0 39 0;
#X connect 37 0 16 0;
#X connect 37 0 5 0;
#X connect 38 0 16 0;
#X connect 38 0 37 0;
#X connect 39 0 2 0;
