#N canvas 594 183 571 666 16;
#X obj -199 492 gemhead 1;
#X obj -199 522 s \$0-gemlist;
#X obj 78 125 s \$0-thickness;
#X obj 18 -19 bng 15 250 50 0 empty empty empty 17 7 0 10 -262144 -1
-1;
#X msg -119 402 0 \, destroy;
#X msg -150 82 create \, 1;
#X obj -199 -68 loadbang;
#X msg -179 42 dimen 400 400;
#X msg -199 2 reset;
#X msg -140 172 fullscreen \$1;
#X obj -130 212 tgl 15 0 empty empty empty 17 7 0 10 -262144 -1 -1
0 1;
#X msg -140 122 0;
#X msg -130 242 menubar \$1;
#X obj -120 272 tgl 15 0 empty empty empty 17 7 0 10 -262144 -1 -1
0 1;
#X msg -120 302 topmost \$1;
#X msg -90 122 1;
#X msg -40 122 2;
#X obj -199 452 gemwin 2;
#X obj -119 342 key;
#X obj -119 372 select 27;
#N canvas 835 179 581 441 dynamic_circles 0;
#X msg 327 302 clear;
#X obj 327 -8 r \$0-tr_clear;
#N canvas 894 625 442 408 \$0-circles 0;
#X obj 0 0 pix_onecircle 2674 1.65 0.8 0.4 0.4;
#X obj 0 30 pix_onecircle 2674 2.025 0.6 0.6 0.4;
#X obj 0 60 pix_onecircle 2674 2.4 0.4 0.8 0.4;
#X obj 0 90 pix_onecircle 2674 2.775 0.4 1 0.4;
#X obj 0 120 pix_onecircle 2674 3.15 0.4 0.8 0.6;
#X obj 0 150 pix_onecircle 2674 3.525 0.4 0.6 0.8;
#X obj 0 180 pix_onecircle 2674 3.9 0.4 0.4 1;
#X restore 167 392 pd \$0-circles;
#X obj 167 352 s pd-\$0-circles;
#X obj -79 -8 r \$0-circparam;
#X obj 38 122 expr ($f1-1)*30;
#X msg -79 302 obj 0 \$1 pix_onecircle \$6 \$2 \$3 \$4 \$5;
#X obj -79 172 list prepend;
#X obj -79 22 t a b;
#X obj 38 92 cup;
#X msg 226 44 1;
#X text 116 7 \$2 = R;
#X text 116 27 \$3 = G;
#X text 116 47 \$4 = B;
#X text 69 -10 <---;
#X obj -79 242 list \$0;
#X text 73 207 \$3 = R;
#X text 73 227 \$4 = G;
#X text 73 247 \$5 = B;
#X text 73 267 \$6 = patch's ID;
#X text 73 167 \$1 = sub-patch position;
#X text -4 240 <------;
#X text 73 187 \$2 = diameter;
#X text 116 -13 \$1 = diameter;
#X connect 0 0 3 0;
#X connect 1 0 0 0;
#X connect 1 0 10 0;
#X connect 4 0 8 0;
#X connect 5 0 7 1;
#X connect 6 0 3 0;
#X connect 7 0 15 0;
#X connect 8 0 7 0;
#X connect 8 1 9 0;
#X connect 9 0 5 0;
#X connect 10 0 9 0;
#X connect 15 0 6 0;
#X restore 18 522 pd dynamic_circles;
#N canvas 796 216 589 713 circle_parameters 0;
#X msg 38 122 3.9 0.4 0.4 1;
#X msg 38 192 3.525 0.4 0.6 0.8;
#X msg 38 262 3.15 0.4 0.8 0.6;
#X msg 38 332 2.775 0.4 1 0.4;
#X msg 38 402 2.4 0.4 0.8 0.4;
#X msg 38 472 2.025 0.6 0.6 0.4;
#X msg 38 542 1.65 0.8 0.4 0.4;
#X msg 38 612 1.275 1 0.4 0.4;
#X obj -132 652 s \$0-circparam;
#X obj 85 82 s \$0-tr_clear;
#X obj 38 42 t b b;
#X obj 38 12 inlet;
#X connect 0 0 1 0;
#X connect 0 0 8 0;
#X connect 1 0 2 0;
#X connect 1 0 8 0;
#X connect 2 0 3 0;
#X connect 2 0 8 0;
#X connect 3 0 4 0;
#X connect 3 0 8 0;
#X connect 4 0 5 0;
#X connect 4 0 8 0;
#X connect 5 0 6 0;
#X connect 5 0 8 0;
#X connect 6 0 7 0;
#X connect 6 0 8 0;
#X connect 10 0 0 0;
#X connect 10 1 9 0;
#X connect 11 0 10 0;
#X restore 18 492 pd circle_parameters;
#X text 38 -24 trigger all;
#X msg 78 95 3;
#X obj 78 60 delay 500;
#X obj 98 452 s \$0-translate;
#X obj 98 418 pack f f f;
#X floatatom 98 288 5 0 0 0 - - -;
#X floatatom 188 288 5 0 0 0 - - -;
#X floatatom 278 288 5 0 0 0 - - -;
#X obj 188 318 t b f;
#X obj 268 318 t b f;
#X msg 198 259 0;
#X msg 288 259 0;
#X msg 56 169 set \$1;
#X msg 146 169 set \$1;
#X msg 236 169 set \$1;
#X obj 26 219 bng 15 250 50 0 empty empty empty 17 7 0 10 -262144 -1
-1;
#X msg 108 259 0;
#X connect 0 0 1 0;
#X connect 3 0 21 0;
#X connect 3 0 24 0;
#X connect 4 0 17 0;
#X connect 5 0 17 0;
#X connect 6 0 8 0;
#X connect 6 0 3 0;
#X connect 7 0 5 0;
#X connect 8 0 7 0;
#X connect 8 0 17 0;
#X connect 9 0 17 0;
#X connect 10 0 12 0;
#X connect 11 0 9 0;
#X connect 12 0 17 0;
#X connect 13 0 14 0;
#X connect 14 0 17 0;
#X connect 15 0 9 0;
#X connect 16 0 9 0;
#X connect 18 0 19 0;
#X connect 19 0 4 0;
#X connect 23 0 2 0;
#X connect 24 0 23 0;
#X connect 26 0 25 0;
#X connect 27 0 26 0;
#X connect 27 0 34 0;
#X connect 28 0 30 0;
#X connect 28 0 35 0;
#X connect 29 0 31 0;
#X connect 29 0 36 0;
#X connect 30 0 26 0;
#X connect 30 1 26 1;
#X connect 31 0 26 0;
#X connect 31 1 26 2;
#X connect 32 0 28 0;
#X connect 33 0 29 0;
#X connect 34 0 38 0;
#X connect 35 0 32 0;
#X connect 36 0 33 0;
#X connect 37 0 38 0;
#X connect 37 0 32 0;
#X connect 37 0 33 0;
#X connect 38 0 27 0;
