#N canvas 555 35 1100 898 16;
#X declare -lib iemmatrix;
#X obj -161 839 gemwin 30;
#X obj 47 368 gemhead;
#X obj 47 649 pix_texture;
#X msg -161 318 destroy;
#X obj 282 38 inlet matrix;
#X obj 47 689 square 4;
#X obj -121 159 select 0 1;
#X msg -73 318 \$1;
#X msg -121 279 0;
#X msg -73 278 1;
#X obj -73 369 select 1;
#X obj 430 38 inlet dimensions;
#X obj 430 208 s \$0-imagesc_dimen;
#X obj 642 78 loadbang;
#X msg 452 128 400 400;
#X obj -83 729 r \$0-imagesc_dimen;
#X msg -120 789 create \, 1 \, color 0 0 0 \, FSAA 2 \, dimen \$1 \$2
;
#X obj -120 759 list;
#X obj 95 38 inlet norm on/off;
#X obj -121 38 inlet display on/off;
#X obj 166 128 route matrix;
#X obj 166 158 list split 2;
#N canvas 302 148 639 445 dynamic_pix_set 0;
#N canvas 113 431 416 155 \$0-pix_set 0;
#X obj 0 60 pix_set 20 20;
#X obj 0 100 s 10414-pix_set_out;
#X obj 0 0 r 10414-pix_set_in1;
#X obj 200 0 r 10414-pix_set_in2;
#X connect 0 0 1 0;
#X connect 2 0 0 0;
#X connect 3 0 0 1;
#X restore 14 287 pd \$0-pix_set;
#X obj 204 23 inlet size;
#X obj 14 247 s pd-\$0-pix_set;
#X obj 14 23 inlet pix_set_in1;
#X obj 14 367 outlet pix_set_out;
#X obj 14 337 r \$0-pix_set_out;
#X obj 14 63 s \$0-pix_set_in1;
#X obj 335 63 s \$0-pix_set_in2;
#X obj 335 23 inlet pix_set_in2;
#X text 14 407 Juan Ignacio Mendoza Garay - 2016;
#X obj 204 103 pack f f \$0;
#X msg 34 173 clear \, obj 0 60 pix_set \$1 \$2 \, obj 0 100 s \$3-pix_set_out
\, obj 0 0 r \$3-pix_set_in1 \, obj 200 0 r \$3-pix_set_in2 \, connect
0 0 1 0 \, connect 2 0 0 0 \, connect 3 0 0 1;
#X obj 204 63 unpack f f;
#X obj 14 103 loadbang;
#X msg 14 133 clear;
#X connect 1 0 12 0;
#X connect 3 0 6 0;
#X connect 5 0 4 0;
#X connect 8 0 7 0;
#X connect 10 0 11 0;
#X connect 11 0 2 0;
#X connect 12 0 10 0;
#X connect 12 1 10 1;
#X connect 13 0 14 0;
#X connect 14 0 2 0;
#X restore 47 598 pd dynamic_pix_set;
#X obj 55 278 change;
#X obj 152 278 change;
#X obj 135 368 pack f f;
#X obj 55 238 unpack f f;
#X obj 260 558 list;
#X obj 152 308 t b f;
#X obj 175 528 bang;
#X obj -2 128 loadbang;
#X obj -2 208 gate 2;
#X msg 60 158 2;
#X msg -2 158 1;
#X obj 145 568 r \$0-ms;
#X obj -2 318 s \$0-ms;
#N canvas 387 88 483 509 normalise_matrix 0;
#X text 16 46 norm = (raw - min(raw)) / (max(raw)-min(raw));
#X obj 299 213 import iemmatrix;
#X obj 389 253 mtx_div;
#X obj 179 298 mtx_minmax;
#X obj 201 108 inlet raw matrix;
#X text 74 469 Juan Ignacio Mendoza Garay - 2016;
#X obj 65 258 t a a;
#X obj 8 108 inlet norm on/off;
#X obj 8 228 gate 2;
#X obj 8 138 + 1;
#X obj 65 328 mtx_sub 1;
#X obj 65 398 mtx_./ 1;
#X obj 8 438 outlet matrix;
#X obj 48 138 loadbang;
#X obj 65 298 mtx;
#X obj 169 368 expr $f2-$f1;
#X text 9 78 default:;
#X text 139 78 on;
#X text 16 16 Normalise it \, don't criticise it.;
#X msg 48 178 2;
#X connect 3 0 10 1;
#X connect 3 0 15 0;
#X connect 3 1 15 1;
#X connect 4 0 8 1;
#X connect 6 0 14 0;
#X connect 6 1 3 0;
#X connect 7 0 9 0;
#X connect 8 0 12 0;
#X connect 8 1 6 0;
#X connect 9 0 8 0;
#X connect 10 0 11 0;
#X connect 11 0 12 0;
#X connect 13 0 19 0;
#X connect 14 0 10 0;
#X connect 15 0 11 1;
#X connect 19 0 8 0;
#X restore 95 78 pd normalise_matrix;
#X text -157 8 default:;
#X text 33 8 off;
#X text 223 8 on;
#X text 504 8 400 400;
#X msg -73 529 quality 0;
#X obj 620 38 inlet quality;
#X msg 620 168 set quality \$1;
#X obj 620 208 s \$0-q;
#X obj -50 419 r \$0-q;
#X obj -50 449 t b a;
#X text 712 8 0;
#X obj -120 419 t b b;
#X text 100 849 Juan Ignacio Mendoza Garay - 2018;
#X msg 642 128 0;
#X msg 87 528 GREY;
#X obj 47 448 color;
#X msg 802 128 1 1 1;
#X obj 790 208 s \$0-RGB;
#X obj 790 38 inlet RGB;
#X text 822 8 1 1 1;
#X obj 310 368 r \$0-RGB;
#X connect 1 0 52 0;
#X connect 2 0 5 0;
#X connect 3 0 0 0;
#X connect 4 0 36 1;
#X connect 6 0 3 0;
#X connect 6 0 8 0;
#X connect 6 1 9 0;
#X connect 7 0 1 0;
#X connect 7 0 10 0;
#X connect 8 0 7 0;
#X connect 9 0 7 0;
#X connect 10 0 48 0;
#X connect 11 0 12 0;
#X connect 13 0 14 0;
#X connect 13 0 50 0;
#X connect 13 0 53 0;
#X connect 14 0 12 0;
#X connect 15 0 17 1;
#X connect 16 0 0 0;
#X connect 17 0 16 0;
#X connect 18 0 36 0;
#X connect 19 0 6 0;
#X connect 20 0 21 0;
#X connect 21 0 31 1;
#X connect 21 1 22 2;
#X connect 21 1 27 1;
#X connect 22 0 2 0;
#X connect 23 0 25 0;
#X connect 24 0 28 0;
#X connect 25 0 22 1;
#X connect 25 0 51 0;
#X connect 25 0 29 0;
#X connect 26 0 23 0;
#X connect 26 0 25 0;
#X connect 26 1 24 0;
#X connect 26 1 28 0;
#X connect 27 0 22 2;
#X connect 28 0 25 0;
#X connect 28 1 25 1;
#X connect 29 0 27 0;
#X connect 30 0 33 0;
#X connect 31 0 32 0;
#X connect 31 0 35 0;
#X connect 31 1 26 0;
#X connect 32 0 31 0;
#X connect 33 0 31 0;
#X connect 34 0 22 1;
#X connect 36 0 20 0;
#X connect 41 0 2 0;
#X connect 42 0 43 0;
#X connect 43 0 44 0;
#X connect 45 0 46 0;
#X connect 46 0 41 0;
#X connect 46 1 41 0;
#X connect 48 0 17 0;
#X connect 48 1 41 0;
#X connect 50 0 43 0;
#X connect 51 0 22 0;
#X connect 52 0 22 0;
#X connect 53 0 54 0;
#X connect 55 0 54 0;
#X connect 57 0 52 1;
