#N canvas 0 22 729 315 16;
#X obj 90 75 > 0;
#X obj 90 35 mtx_frobenius;
#X text 190 66 \$1 = parent patch's ID;
#X text 190 89 \$2 = index;
#X obj 90 -56 r \$1-\$3;
#X obj 0 115 select 1;
#X obj 217 -55 r \$1-\$4;
#X obj 217 -15 route \$4_\$2;
#X obj 0 185 s \$1-\$5;
#X obj 0 145 int \$2;
#X text 190 114 \$3 = receive name for matrix 1;
#X text 190 139 \$4 = receive name for matrix 2 and index prefix;
#X text 190 164 \$5 = send name for index when state is 1 (on);
#X text 190 188 \$6 = send name for index and state;
#X obj 90 185 s \$1-\$6;
#X obj 90 145 pack \$2 f;
#X obj 90 115 t b a;
#X connect 0 0 5 0;
#X connect 0 0 16 0;
#X connect 1 0 0 0;
#X connect 4 0 1 0;
#X connect 5 0 9 0;
#X connect 6 0 7 0;
#X connect 7 0 1 1;
#X connect 9 0 8 0;
#X connect 15 0 14 0;
#X connect 16 0 15 0;
#X connect 16 1 15 1;
