#N canvas 619 184 496 534 16;
#X declare -lib iemmatrix;
#X declare -lib hexloader;
#X text 26 56 norm = (raw - min(raw)) / (max(raw)-min(raw));
#X obj 309 223 import iemmatrix;
#X obj 189 308 mtx_minmax;
#X obj 211 118 inlet raw matrix;
#X obj 75 268 t a a;
#X obj 18 118 inlet norm on/off;
#X obj 18 238 gate 2;
#X obj 18 148 + 1;
#X obj 75 338 mtx_sub 1;
#X obj 75 408 mtx_./ 1;
#X obj 18 448 outlet matrix;
#X obj 58 148 loadbang;
#X obj 75 308 mtx;
#X obj 179 378 expr $f2-$f1;
#X text 19 88 default:;
#X text 149 88 on;
#X text 26 26 Normalise it \, don't criticise it.;
#X msg 58 188 2;
#X text 84 479 Juan Ignacio Mendoza Garay - 2018;
#X obj 309 263 import hexloader;
#X connect 2 0 8 1;
#X connect 2 0 13 0;
#X connect 2 1 13 1;
#X connect 3 0 6 1;
#X connect 4 0 12 0;
#X connect 4 1 2 0;
#X connect 5 0 7 0;
#X connect 6 0 10 0;
#X connect 6 1 4 0;
#X connect 7 0 6 0;
#X connect 8 0 9 0;
#X connect 9 0 10 0;
#X connect 11 0 17 0;
#X connect 12 0 8 0;
#X connect 13 0 9 1;
#X connect 17 0 6 0;
