#N canvas 1117 106 436 667 16;
#X declare -lib iemmatrix;
#X declare -lib list-abs;
#X declare -lib hexloader;
#X declare -lib iemmatrix;
#X declare -lib smlib;
#X obj 2 85 expr ($f1-1)/2;
#X obj 2 145 * -1;
#X obj 2 115 t f f;
#X obj 106 5 inlet size;
#X obj 116 305 mtx_add;
#X obj 250 5 import iemmatrix;
#X obj 250 75 import list-abs;
#X obj 250 35 import hexloader;
#X obj 76 195 mtx_grid;
#X obj 106 45 t f f;
#X obj 183 245 mtx_.^ 2;
#X obj 76 245 mtx_.^ 2;
#X obj 116 335 mtx_.^ 0.5;
#X text 38 641 Juan Ignacio Mendoza Garay - 2018;
#X obj 116 465 trigger a a;
#X obj 116 365 trigger a a;
#X obj 116 425 mtx_sub 0;
#X obj 223 395 mtx_min;
#X obj 223 495 mtx_max;
#X obj 116 605 outlet cone matrix;
#X obj 116 535 mtx_./ 1;
#X obj 116 565 mtx_.* -1;
#X connect 0 0 2 0;
#X connect 1 0 8 0;
#X connect 2 0 1 0;
#X connect 2 1 8 1;
#X connect 3 0 9 0;
#X connect 4 0 12 0;
#X connect 8 0 11 0;
#X connect 8 1 10 0;
#X connect 9 0 0 0;
#X connect 9 1 8 2;
#X connect 10 0 4 0;
#X connect 11 0 4 1;
#X connect 12 0 15 0;
#X connect 14 0 20 0;
#X connect 14 1 18 0;
#X connect 15 0 16 0;
#X connect 15 1 17 0;
#X connect 16 0 14 0;
#X connect 17 0 16 1;
#X connect 18 0 20 1;
#X connect 20 0 21 0;
#X connect 21 0 19 0;
