#N canvas 915 212 763 653 16;
#X declare -lib list-abs;
#X declare -lib iemmatrix;
#X declare -lib list-abs;
#X declare -lib iemmatrix;
#X declare -lib smlib;
#X declare -lib iemmatrix;
#X declare -lib iemmatrix;
#X declare -lib iemmatrix;
#X declare -lib iemmatrix;
#X declare -lib iemmatrix;
#X declare -lib iemmatrix;
#X declare -lib iemmatrix;
#X declare -lib iemmatrix;
#X declare -lib iemmatrix;
#X declare -lib iemmatrix;
#X declare -lib iemmatrix;
#X declare -lib iemmatrix;
#X text -283 601 Juan Ignacio Mendoza Garay - 2018;
#X floatatom -165 54 5 0 0 0 - - -;
#X floatatom -8 335 5 0 0 0 - - -;
#X obj -352 55 vradio 20 1 1 2 empty empty empty 0 -8 0 10 -262144
-1 -1 0;
#X text -329 71 Gaussian bell;
#X obj -252 536 bng 19 250 50 0 empty empty ready 20 10 0 14 -99865
-4034 -1;
#N canvas 415 621 483 300 mtx_trace 0;
#X obj -27 15 inlet x y;
#X obj 243 45 i;
#X obj -26 255 outlet matrix;
#X obj -26 225 mtx;
#X msg 191 143 0;
#X msg 7 143 element \$2 \$1 1;
#X obj -26 45 t b a b;
#X msg 243 143 zeros \$1;
#X obj 243 15 r \$0-img_w;
#X connect 0 0 6 0;
#X connect 1 0 7 0;
#X connect 3 0 2 0;
#X connect 4 0 3 0;
#X connect 5 0 3 0;
#X connect 6 0 3 0;
#X connect 6 1 5 0;
#X connect 6 2 4 0;
#X connect 7 0 3 0;
#X connect 8 0 1 0;
#X restore -312 365 pd mtx_trace;
#X obj -312 294 tgl 15 0 empty empty hiiri -31 7 0 10 -66577 -262144
-1 0 1;
#N canvas 888 172 515 629 mouse 0;
#X obj 80 413 import list-abs;
#X obj -248 -116 inlet;
#X obj -175 455 outlet;
#X obj -248 -26 cursor;
#X obj -248 54 route x y;
#X obj -248 14 route motion button;
#X obj -175 414 pack f f;
#X obj -248 323 autoscale;
#X obj 43 323 autoscale;
#X obj -248 363 i;
#X obj 43 363 i;
#X obj 150 53 1;
#X obj 43 -26 i;
#X obj -108 -116 inlet invert;
#X obj -248 -76 t a b;
#X obj -108 -76 s \$0-m_inv;
#X obj -205 84 s \$0-m_y;
#X obj 43 53 s \$0-m_w;
#X obj -190 243 r \$0-m_w;
#X obj 150 83 s \$0-m_1;
#X obj -219 213 r \$0-m_1;
#X obj 72 213 r \$0-m_w;
#X obj 101 243 r \$0-m_1;
#X obj -108 53 r \$0-m_inv;
#X obj 43 13 trigger a b;
#X obj 43 183 inverter;
#X obj 120 153 r \$0-m_w;
#X obj 81 123 r \$0-m_1;
#X obj -51 93 r \$0-m_y;
#X obj -108 143 gate_2;
#X obj -108 83 + 1;
#X obj 101 273 t a b;
#X obj 43 -116 r \$0-img_w;
#X connect 1 0 14 0;
#X connect 3 0 5 0;
#X connect 4 0 7 0;
#X connect 4 1 16 0;
#X connect 5 0 4 0;
#X connect 6 0 2 0;
#X connect 7 0 9 0;
#X connect 8 0 10 0;
#X connect 9 0 6 0;
#X connect 10 0 6 1;
#X connect 11 0 19 0;
#X connect 12 0 24 0;
#X connect 13 0 15 0;
#X connect 14 0 3 0;
#X connect 14 1 12 0;
#X connect 18 0 7 2;
#X connect 20 0 7 1;
#X connect 21 0 8 1;
#X connect 22 0 31 0;
#X connect 23 0 30 0;
#X connect 24 0 17 0;
#X connect 24 1 11 0;
#X connect 25 0 8 0;
#X connect 26 0 25 2;
#X connect 27 0 25 1;
#X connect 28 0 29 1;
#X connect 29 0 8 0;
#X connect 29 1 25 0;
#X connect 30 0 29 0;
#X connect 31 0 8 2;
#X connect 31 1 8 3;
#X connect 32 0 12 0;
#X restore -312 325 pd mouse;
#X floatatom -312 529 3 0 0 0 - - -;
#X obj -312 559 bng 30 250 50 0 empty empty empty 17 7 0 10 -99865
-204800 -1;
#X obj 66 506 tgl 19 0 empty empty smooth 24 12 0 14 -262144 -1 -1
1 1;
#X obj 38 486 hsl 64 15 0 1 0 0 empty empty x-fade 12 8 0 12 -128992
-262130 -262144 3700 1;
#X obj 150 429 GUI_RGB;
#X obj -292 397 bng 19 100 10 0 empty empty ready 20 10 0 14 -99865
-4034 -1;
#X obj -352 456 i;
#X obj -59 506 tgl 19 0 empty empty on/off -52 10 0 14 -262144 -1 -1
1 1;
#X obj -215 255 bang;
#X obj -262 566 s \$0-c;
#X obj -302 425 s \$0-p;
#X obj -28 426 r \$0-p;
#X obj 3 456 r \$0-c;
#X obj -235 294 tgl 15 0 empty empty invert -38 7 0 10 -66577 -260097
-1 1 1;
#X text -348 21 within one of several rings.;
#X text -104 53 image width;
#N canvas 803 629 790 263 rings_detector 0;
#N canvas 539 718 1082 334 mtx_whichring 0;
#X obj 83 104 inlet positions;
#X text -266 40 Position of each ring is a fraction of radius = 1;
#X obj 502 144 mtx_ring;
#X obj -267 254 outlet detected ring index;
#X obj 300 255 outlet created ring matrix;
#X obj 30 254 outlet created ring index;
#X text -266 64 Width of rings is a fraction of radius = 1;
#X obj 580 255 outlet Gaussian bell;
#X obj -267 224 r \$0-dri;
#X obj 263 104 inlet rings width;
#X obj 30 224 r \$0-rngindx;
#X obj 502 104 r \$0-rngparam;
#X text -265 16 within one of several concentric rings.;
#X obj -267 104 inlet matrix;
#X obj -127 104 inlet matrix width;
#X obj -267 144 s \$0-mtx;
#N canvas 777 127 719 898 rings_parameters_processor 0;
#X text -394 -192 parameters to make several rings;
#X obj -60 -157 inlet rings width;
#X obj -371 53 list-dripslow;
#X obj -371 13 del;
#X obj -97 623 cup;
#X msg -97 593 1;
#X obj -277 -37 t b a b;
#X obj -467 -37 r \$0-tr_nextring;
#X obj -291 213 / 2;
#X obj -561 253 *;
#X obj -20 253 *;
#X obj -561 283 t a a;
#X obj -20 283 t a a;
#X obj 0 413 -;
#X obj -561 413 +;
#X obj -561 453 moses;
#X obj -291 243 t a a;
#X obj -369 523 pack f f f f;
#X obj -370 83 s \$0-rngpos;
#X obj -561 133 r \$0-rngpos;
#X obj -534 213 r \$0-rngN;
#X obj -514 423 r \$0-rngN;
#X obj -244 273 s \$0-rngN;
#X obj -514 323 s \$0-rngN*pos;
#X obj -184 373 r \$0-rngN*pos;
#X obj -330 173 t a a a;
#X obj -277 -77 list;
#X obj -440 -117 r \$0-spitrngs;
#X obj -210 133 s \$0-spitrngs;
#X obj -567 -37 t b a;
#X obj -567 83 s \$0-spitrngs;
#X obj -503 653 s \$0-tr_nextring;
#X obj -60 83 t b b a;
#X obj -27 213 f;
#X obj -277 -117 t b a;
#X msg -291 373 0;
#X msg -252 482 0;
#X obj -184 453 moses 0;
#X obj -291 323 moses 0;
#X obj -369 553 trigger bang any bang;
#X obj -503 623 del;
#X obj -329 653 s \$0-rngparam;
#X obj -97 654 s \$0-rngindx;
#X obj -210 53 s \$0-tr_clear;
#X obj -97 563 r \$0-tr_clear;
#X msg -266 593 \$2 \$3 \$1 \$4;
#X obj -567 -157 inlet matrix width;
#X obj -277 -157 inlet rings positions;
#X obj -520 53 s \$0-mtxw;
#X obj -330 133 r \$0-mtxw;
#X obj -194 323 s \$0-rngw*mtxw;
#X obj -534 373 r \$0-rngw*mtxw;
#X connect 1 0 32 0;
#X connect 2 0 18 0;
#X connect 3 0 2 0;
#X connect 4 0 42 0;
#X connect 5 0 4 0;
#X connect 6 0 3 0;
#X connect 6 1 2 1;
#X connect 6 2 43 0;
#X connect 7 0 2 0;
#X connect 8 0 16 0;
#X connect 9 0 11 0;
#X connect 10 0 12 0;
#X connect 11 0 14 0;
#X connect 11 1 23 0;
#X connect 12 0 50 0;
#X connect 12 1 13 1;
#X connect 13 0 37 0;
#X connect 14 0 15 0;
#X connect 15 0 17 0;
#X connect 16 0 38 0;
#X connect 16 1 22 0;
#X connect 17 0 39 0;
#X connect 19 0 9 0;
#X connect 20 0 9 1;
#X connect 21 0 15 1;
#X connect 24 0 13 0;
#X connect 25 0 17 1;
#X connect 25 1 8 0;
#X connect 25 2 33 0;
#X connect 26 0 6 0;
#X connect 27 0 26 0;
#X connect 29 0 30 0;
#X connect 29 1 48 0;
#X connect 32 0 28 0;
#X connect 32 1 33 0;
#X connect 32 2 10 1;
#X connect 33 0 10 0;
#X connect 34 0 26 0;
#X connect 34 1 26 1;
#X connect 35 0 17 2;
#X connect 36 0 17 3;
#X connect 37 0 36 0;
#X connect 37 1 17 3;
#X connect 38 0 35 0;
#X connect 38 1 17 2;
#X connect 39 0 40 0;
#X connect 39 1 45 0;
#X connect 39 2 4 0;
#X connect 40 0 31 0;
#X connect 44 0 5 0;
#X connect 45 0 41 0;
#X connect 46 0 29 0;
#X connect 47 0 34 0;
#X connect 49 0 25 0;
#X connect 51 0 14 1;
#X restore -60 144 pd rings_parameters_processor;
#X obj 440 225 s \$0-rng_mtx;
#N canvas 652 512 816 316 dynamic_intersectors 0;
#X obj 277 232 s pd-\$0-intersectors;
#X obj 37 122 pack f \$0 f;
#X obj 37 42 trigger a a;
#X msg 477 162 clear;
#X obj -13 82 expr ($f1-1)*30;
#X obj 477 12 r \$0-tr_clear;
#X obj 37 12 r \$0-rngindx;
#N canvas 894 625 442 408 \$0-intersectors 0;
#X obj 0 0 isintersectidx 1079 1 mtx ridx dri;
#X obj 0 30 isintersectidx 1079 2 mtx ridx dri;
#X obj 0 60 isintersectidx 1079 3 mtx ridx dri;
#X obj 0 90 isintersectidx 1079 4 mtx ridx dri;
#X obj 0 120 isintersectidx 1079 5 mtx ridx dri;
#X obj 0 150 isintersectidx 1079 6 mtx ridx dri;
#X obj 0 180 isintersectidx 1079 7 mtx ridx dri;
#X obj 0 210 isintersectidx 1079 8 mtx ridx dri;
#X obj 0 240 isintersectidx 1079 9 mtx ridx dri;
#X restore 277 272 pd \$0-intersectors;
#X msg 37 162 obj 0 \$1 isintersectidx \$2 \$3 mtx ridx dri;
#X obj 547 222 s \$0-ridx;
#X obj 547 162 list prepend;
#X obj 547 192 list trim;
#X msg 664 132 ridx_\$1;
#X obj 664 102 r \$0-rngindx;
#X obj 547 72 r \$0-rng_mtx;
#X connect 1 0 8 0;
#X connect 2 0 4 0;
#X connect 2 1 1 2;
#X connect 3 0 0 0;
#X connect 4 0 1 0;
#X connect 5 0 3 0;
#X connect 6 0 2 0;
#X connect 8 0 0 0;
#X connect 10 0 11 0;
#X connect 11 0 9 0;
#X connect 12 0 10 1;
#X connect 13 0 12 0;
#X connect 14 0 10 0;
#X restore -30 184 pd dynamic_intersectors;
#X text -265 -4 Detects whether nonzero elements of one matrix lie
;
#X connect 0 0 16 1;
#X connect 2 0 17 0;
#X connect 2 0 4 0;
#X connect 2 1 7 0;
#X connect 8 0 3 0;
#X connect 9 0 16 2;
#X connect 10 0 5 0;
#X connect 11 0 2 0;
#X connect 13 0 15 0;
#X connect 14 0 16 0;
#X restore 182 153 pd mtx_whichring;
#X obj 234 55 r \$0-img_w;
#X obj 286 85 r \$0-rings_pos;
#X obj 339 115 r \$0-rings_w;
#X obj 13 224 outlet detected ring index;
#X obj 566 225 outlet Gaussian bell;
#X obj 286 225 outlet created ring matrix;
#X obj 182 15 inlet image matrix;
#X connect 0 0 4 0;
#X connect 0 2 6 0;
#X connect 0 3 5 0;
#X connect 1 0 0 1;
#X connect 2 0 0 2;
#X connect 3 0 0 3;
#X connect 7 0 0 0;
#X restore -312 456 pd rings_detector;
#N canvas 532 658 300 168 rings_control 0;
#X obj 26 15 inlet;
#X obj 96 15 inlet;
#X obj -48 15 inlet;
#X obj -48 115 s \$0-img_w;
#X obj 26 85 s \$0-rings_pos;
#X obj 96 55 s \$0-rings_w;
#X obj -48 85 f;
#X connect 0 0 4 0;
#X connect 1 0 5 0;
#X connect 2 0 6 0;
#X connect 6 0 3 0;
#X restore -165 365 pd rings_control;
#N canvas 0 22 471 432 multiplex 0;
#X obj -12 367 outlet;
#X obj -162 27 inlet control;
#X obj -12 317 spigot;
#X msg -5 283 1;
#X msg 45 283 0;
#X obj 128 317 spigot;
#X msg 135 283 1;
#X msg 185 283 0;
#X obj -12 28 inlet data_0;
#X obj 128 28 inlet data_1;
#X obj -162 67 select 0 1;
#X connect 1 0 10 0;
#X connect 2 0 0 0;
#X connect 3 0 2 1;
#X connect 4 0 2 1;
#X connect 5 0 0 0;
#X connect 6 0 5 1;
#X connect 7 0 5 1;
#X connect 8 0 2 0;
#X connect 9 0 5 0;
#X connect 10 0 3 0;
#X connect 10 0 7 0;
#X connect 10 1 4 0;
#X connect 10 1 6 0;
#X restore -262 506 pd multiplex;
#N canvas 864 343 804 597 multi_display 0;
#X obj -67 31 inlet;
#X obj 48 31 inlet;
#X obj 354 31 inlet;
#X obj 419 31 inlet;
#X text -65 6 mtx 1;
#X obj 484 31 inlet;
#X text 496 5 RGB;
#X text 50 5 mtx 2;
#X obj -111 369 pix_mtx;
#X obj -111 427 color;
#N canvas 185 112 538 364 gemwin 0;
#X obj -141 300 gemwin 30;
#X msg -141 128 destroy;
#X obj -101 49 select 0 1;
#X msg -53 128 \$1;
#X msg -101 89 0;
#X msg -53 88 1;
#X obj -53 159 select 1;
#X obj -53 191 r \$0-imagesc_dimen;
#X msg -120 270 create \, 1 \, color 0 0 0 \, FSAA 2 \, dimen \$1 \$2
;
#X obj -120 240 list;
#X obj -101 6 inlet on/off;
#X connect 1 0 0 0;
#X connect 2 0 1 0;
#X connect 2 0 4 0;
#X connect 2 1 5 0;
#X connect 3 0 6 0;
#X connect 4 0 3 0;
#X connect 5 0 3 0;
#X connect 6 0 9 0;
#X connect 7 0 9 1;
#X connect 8 0 0 0;
#X connect 9 0 8 0;
#X connect 10 0 2 0;
#X restore -173 552 pd gemwin;
#X obj -161 329 gemhead;
#X obj -173 31 inlet;
#X text -174 5 on/off;
#X text 364 5 mix;
#X text 415 5 smooth;
#X obj 287 522 pix_texture;
#X obj 287 552 square 4;
#X obj 287 475 pix_mix;
#X msg 419 475 quality \$1;
#X obj 51 369 pix_mtx;
#X obj -58 329 gemhead;
#X obj 484 321 s \$0-colour;
#X obj -64 399 r \$0-colour;
#X obj -67 281 mtx;
#X obj 48 201 t b a;
#X obj -57 251 del 100;
#X obj 95 281 mtx_add;
#X obj 115 231 t a;
#X msg 162 201 zeros \$1;
#X obj 162 231 mtx;
#X obj 162 31 r \$0-img_w;
#X obj 162 171 f;
#X obj 189 65 r \$0-rings_w;
#X obj 209 95 r \$0-rings_pos;
#X obj 189 135 bang;
#X connect 0 0 24 0;
#X connect 1 0 25 0;
#X connect 2 0 18 2;
#X connect 3 0 19 0;
#X connect 5 0 22 0;
#X connect 8 0 9 0;
#X connect 9 0 18 0;
#X connect 11 0 8 0;
#X connect 12 0 10 0;
#X connect 12 0 11 0;
#X connect 12 0 21 0;
#X connect 16 0 17 0;
#X connect 18 0 16 0;
#X connect 19 0 16 0;
#X connect 20 0 18 1;
#X connect 21 0 20 0;
#X connect 23 0 9 1;
#X connect 24 0 8 2;
#X connect 25 0 26 0;
#X connect 25 1 27 0;
#X connect 26 0 24 0;
#X connect 27 0 20 2;
#X connect 27 0 28 0;
#X connect 28 0 27 1;
#X connect 29 0 30 0;
#X connect 30 0 27 1;
#X connect 31 0 32 0;
#X connect 32 0 29 0;
#X connect 33 0 35 0;
#X connect 34 0 35 0;
#X connect 35 0 32 0;
#X restore -59 566 pd multi_display;
#X msg -27 245 0.3 0.6;
#X msg -7 275 0.5;
#X text -330 52 rings;
#X text -9 313 width of rings as a fraction of radius;
#X text -90 129 position of each ring as a fraction of radius;
#X msg -87 155 0.1 0.2 0.3 0.4 0.5 0.6 0.7 0.8 0.9;
#N canvas 613 413 449 368 make_equally_spaced_rings 0;
#X obj 41 323 outlet;
#X obj 78 113 until;
#X obj 78 193 cup;
#X obj 338 263 t l;
#X obj 41 293 list;
#X obj 78 233 *;
#X obj 78 263 list prepend;
#X msg 148 113 1;
#X obj 145 193 expr 1/($f1+1);
#X obj 41 13 inlet;
#X obj -29 13 inlet;
#X obj 41 64 trigger bang any bang any bang;
#X connect 1 0 2 0;
#X connect 2 0 5 0;
#X connect 3 0 6 1;
#X connect 4 0 0 0;
#X connect 5 0 6 0;
#X connect 6 0 3 0;
#X connect 6 0 4 1;
#X connect 7 0 2 0;
#X connect 8 0 5 1;
#X connect 9 0 11 0;
#X connect 10 0 11 0;
#X connect 11 0 4 0;
#X connect 11 1 1 0;
#X connect 11 2 7 0;
#X connect 11 3 8 0;
#X connect 11 4 3 0;
#X restore -135 95 pd make_equally_spaced_rings;
#X floatatom 142 65 5 0 0 0 - - -;
#X text -348 1 Detects whether nonzero pixels of one image lie;
#X msg -47 215 0.5 0.75;
#X msg -67 185 0.2 0.8 0.9;
#X connect 1 0 26 0;
#X connect 2 0 26 2;
#X connect 3 0 15 0;
#X connect 3 0 17 0;
#X connect 6 0 14 0;
#X connect 6 0 19 0;
#X connect 6 0 25 0;
#X connect 7 0 8 0;
#X connect 8 0 6 0;
#X connect 9 0 10 0;
#X connect 11 0 28 4;
#X connect 12 0 28 3;
#X connect 13 0 28 5;
#X connect 15 0 27 0;
#X connect 16 0 28 0;
#X connect 17 0 26 0;
#X connect 20 0 28 1;
#X connect 21 0 28 2;
#X connect 22 0 8 1;
#X connect 25 0 9 0;
#X connect 25 1 27 1;
#X connect 25 2 27 2;
#X connect 27 0 5 0;
#X connect 27 0 18 0;
#X connect 29 0 26 1;
#X connect 30 0 26 1;
#X connect 34 0 26 1;
#X connect 35 0 26 1;
#X connect 36 0 35 1;
#X connect 38 0 26 1;
#X connect 39 0 26 1;
