#N canvas 971 440 535 541 16;
#X declare -lib list-abs;
#X declare -lib iemmatrix;
#X declare -lib list-abs;
#X declare -lib iemmatrix;
#X declare -lib smlib;
#X declare -lib iemmatrix;
#X declare -lib iemmatrix;
#X declare -lib iemmatrix;
#X declare -lib iemmatrix;
#X text -283 501 Juan Ignacio Mendoza Garay - 2018;
#X floatatom -195 74 5 0 0 0 - - -;
#X floatatom -140 104 5 0 0 0 - - -;
#X floatatom -84 134 5 0 0 0 - - -;
#X floatatom -28 164 5 0 0 0 - - -;
#X text -26 133 hi bound;
#X text 29 163 lo bound;
#N canvas 193 487 348 359 list_trigger_4 0;
#X msg 146 272 \$1 \$2 \$3 \$4;
#X obj 146 15 inlet;
#X obj 146 45 t b a;
#X obj 206 15 inlet;
#X obj 206 45 t b a;
#X obj 266 15 inlet;
#X obj 266 45 t b a;
#X obj 146 315 outlet list;
#X obj 82 15 inlet;
#X obj 82 45 t b a;
#X obj 146 200 pack 2 1 0 1;
#X obj 27 200 s \$0-img_w;
#X connect 0 0 7 0;
#X connect 1 0 2 0;
#X connect 2 0 10 0;
#X connect 2 1 10 1;
#X connect 3 0 4 0;
#X connect 4 0 10 0;
#X connect 4 1 10 2;
#X connect 5 0 6 0;
#X connect 6 0 10 0;
#X connect 6 1 10 3;
#X connect 8 0 9 0;
#X connect 9 0 10 0;
#X connect 9 1 10 0;
#X connect 9 1 11 0;
#X connect 10 0 0 0;
#X restore -195 195 pd list_trigger_4;
#X obj -352 105 vradio 20 1 1 2 empty empty empty 0 -8 0 10 -262144
-1 -1 0;
#X text -330 102 ring;
#X text -329 121 Gaussian bell;
#X obj -262 436 bng 19 250 50 0 empty empty ready 20 10 0 14 -99865
-4034 -1;
#N canvas 415 621 483 300 mtx_trace 0;
#X obj -27 15 inlet x y;
#X obj 243 15 inlet w;
#X obj 243 45 i;
#X obj -26 255 outlet matrix;
#X obj -26 225 mtx;
#X msg 191 143 0;
#X msg 7 143 element \$2 \$1 1;
#X obj -26 45 t b a b;
#X msg 243 143 zeros \$1;
#X connect 0 0 7 0;
#X connect 1 0 2 0;
#X connect 2 0 8 0;
#X connect 4 0 3 0;
#X connect 5 0 4 0;
#X connect 6 0 4 0;
#X connect 7 0 4 0;
#X connect 7 1 6 0;
#X connect 7 2 5 0;
#X connect 8 0 4 0;
#X restore -312 265 pd mtx_trace;
#X obj -312 204 tgl 15 0 empty empty hiiri -31 7 0 10 -66577 -262144
-1 0 1;
#N canvas 888 172 515 629 mouse 0;
#X obj 80 413 import list-abs;
#X obj -248 -116 inlet;
#X obj -175 455 outlet;
#X obj -248 -26 cursor;
#X obj -248 54 route x y;
#X obj -248 14 route motion button;
#X obj -175 414 pack f f;
#X obj 43 -116 inlet w;
#X obj -248 323 autoscale;
#X obj 43 323 autoscale;
#X obj -248 363 i;
#X obj 43 363 i;
#X obj 150 53 1;
#X obj 43 -26 i;
#X obj -108 -116 inlet invert;
#X obj -248 -76 t a b;
#X obj -108 -76 s \$0-m_inv;
#X obj -205 84 s \$0-m_y;
#X obj 43 53 s \$0-m_w;
#X obj -190 243 r \$0-m_w;
#X obj 150 83 s \$0-m_1;
#X obj -219 213 r \$0-m_1;
#X obj 72 213 r \$0-m_w;
#X obj 101 243 r \$0-m_1;
#X obj -108 53 r \$0-m_inv;
#X obj 43 13 trigger a b;
#X obj 43 183 inverter;
#X obj 120 153 r \$0-m_w;
#X obj 81 123 r \$0-m_1;
#X obj -51 93 r \$0-m_y;
#X obj -108 143 gate_2;
#X obj -108 83 + 1;
#X obj 101 273 t a b;
#X connect 1 0 15 0;
#X connect 3 0 5 0;
#X connect 4 0 8 0;
#X connect 4 1 17 0;
#X connect 5 0 4 0;
#X connect 6 0 2 0;
#X connect 7 0 13 0;
#X connect 8 0 10 0;
#X connect 9 0 11 0;
#X connect 10 0 6 0;
#X connect 11 0 6 1;
#X connect 12 0 20 0;
#X connect 13 0 25 0;
#X connect 14 0 16 0;
#X connect 15 0 3 0;
#X connect 15 1 13 0;
#X connect 19 0 8 2;
#X connect 21 0 8 1;
#X connect 22 0 9 1;
#X connect 23 0 32 0;
#X connect 24 0 31 0;
#X connect 25 0 18 0;
#X connect 25 1 12 0;
#X connect 26 0 9 0;
#X connect 27 0 26 2;
#X connect 28 0 26 1;
#X connect 29 0 30 1;
#X connect 30 0 9 0;
#X connect 30 1 26 0;
#X connect 31 0 30 0;
#X connect 32 0 9 2;
#X connect 32 1 9 3;
#X restore -312 225 pd mouse;
#X floatatom -312 429 3 0 0 0 - - -;
#X obj -312 459 bng 30 250 50 0 empty empty empty 17 7 0 10 -99865
-204800 -1;
#X obj 4 326 tgl 19 0 empty empty smooth 24 12 0 14 -262144 -1 -1 0
1;
#X obj -16 306 hsl 64 15 0 1 0 0 empty empty x-fade 12 8 0 12 -128992
-262130 -262144 3300 1;
#X obj 78 249 GUI_RGB;
#X obj -195 225 t a a;
#X obj -292 297 bng 19 100 10 0 empty empty ready 20 10 0 14 -99865
-4034 -1;
#X obj -352 356 i;
#X obj -89 326 tgl 19 0 empty empty on/off -52 10 0 14 -262144 -1 -1
0 1;
#X obj -245 165 bang;
#X obj -272 466 s \$0-c;
#X obj -302 325 s \$0-p;
#X obj -66 246 r \$0-p;
#X obj -43 276 r \$0-c;
#X obj -274 204 tgl 15 0 empty empty invert 17 7 0 10 -66577 -260097
-1 0 1;
#X text -348 1 Detects wether nonzero pixels of one image lie;
#X text -81 103 rings N;
#X text -347 21 within an area defined by a hi-bound ring and;
#X text -134 73 image width;
#X text -347 41 a lo-bound ring.;
#N canvas 1080 393 508 289 ring_detector 0;
#X obj 116 226 outlet ring;
#X obj 256 226 outlet bell;
#X msg -67 196 1;
#X obj -67 15 inlet image;
#X obj -67 225 outlet ring index;
#X obj 60 15 inlet w N hib lob;
#X obj 60 45 mtx_ring;
#X obj -67 135 > 0;
#X obj -67 165 select 1;
#X obj -67 95 mtx_frobenius;
#X connect 2 0 4 0;
#X connect 3 0 9 0;
#X connect 5 0 6 0;
#X connect 6 0 9 1;
#X connect 6 0 0 0;
#X connect 6 1 1 0;
#X connect 7 0 8 0;
#X connect 8 0 2 0;
#X connect 9 0 7 0;
#X restore -312 356 pd ring_detector;
#N canvas 0 22 471 432 multiplex 0;
#X obj -12 367 outlet;
#X obj -162 27 inlet control;
#X obj -12 317 spigot;
#X msg -5 283 1;
#X msg 45 283 0;
#X obj 128 317 spigot;
#X msg 135 283 1;
#X msg 185 283 0;
#X obj -162 67 select 0 1;
#X obj -12 28 inlet data_0;
#X obj 128 28 inlet data_1;
#X connect 1 0 8 0;
#X connect 2 0 0 0;
#X connect 3 0 2 1;
#X connect 4 0 2 1;
#X connect 5 0 0 0;
#X connect 6 0 5 1;
#X connect 7 0 5 1;
#X connect 8 0 3 0;
#X connect 8 0 7 0;
#X connect 8 1 4 0;
#X connect 8 1 6 0;
#X connect 9 0 2 0;
#X connect 10 0 5 0;
#X restore -272 406 pd multiplex;
#N canvas 973 37 882 400 display_3 0;
#X obj 53 11 inlet;
#X obj 215 11 inlet;
#X obj 284 11 inlet;
#X obj 349 11 inlet;
#X text 55 -14 mtx 1;
#X obj 414 11 inlet;
#X text 426 -15 RGB;
#X text 217 -15 mtx 2;
#X obj 9 109 pix_mtx;
#X obj 9 177 color;
#N canvas 185 112 538 364 gemwin 0;
#X obj -141 300 gemwin 30;
#X msg -141 128 destroy;
#X obj -101 49 select 0 1;
#X msg -53 128 \$1;
#X msg -101 89 0;
#X msg -53 88 1;
#X obj -53 159 select 1;
#X obj -53 191 r \$0-imagesc_dimen;
#X msg -120 270 create \, 1 \, color 0 0 0 \, FSAA 2 \, dimen \$1 \$2
;
#X obj -120 240 list;
#X obj -101 6 inlet on/off;
#X connect 1 0 0 0;
#X connect 2 0 1 0;
#X connect 2 0 4 0;
#X connect 2 1 5 0;
#X connect 3 0 6 0;
#X connect 4 0 3 0;
#X connect 5 0 3 0;
#X connect 6 0 9 0;
#X connect 7 0 9 1;
#X connect 8 0 0 0;
#X connect 9 0 8 0;
#X connect 10 0 2 0;
#X restore -303 342 pd gemwin;
#X obj -71 69 gemhead;
#X text -304 -15 on/off;
#X text 294 -15 mix;
#X text 345 -15 smooth;
#X obj 138 312 pix_texture;
#X obj 138 342 square 4;
#X obj 138 265 pix_mix;
#X msg 349 225 quality \$1;
#X obj 171 109 pix_mtx;
#X obj 62 69 gemhead;
#X obj 414 51 s \$0-colour;
#X obj 56 139 r \$0-colour;
#X obj -303 11 inlet;
#X obj -193 69 gemhead;
#X obj -94 167 pix_mix;
#X obj -193 110 pix_video;
#X obj -193 312 pix_texture;
#X obj -193 342 rectangle 4 3;
#X obj -193 230 alpha;
#X connect 0 0 8 2;
#X connect 1 0 19 2;
#X connect 2 0 17 2;
#X connect 3 0 18 0;
#X connect 5 0 21 0;
#X connect 8 0 9 0;
#X connect 9 0 17 0;
#X connect 11 0 8 0;
#X connect 15 0 16 0;
#X connect 17 0 15 0;
#X connect 18 0 15 0;
#X connect 19 0 17 1;
#X connect 20 0 19 0;
#X connect 22 0 9 1;
#X connect 23 0 10 0;
#X connect 23 0 11 0;
#X connect 23 0 20 0;
#X connect 23 0 24 0;
#X connect 23 0 29 1;
#X connect 24 0 26 0;
#X connect 26 0 29 0;
#X connect 27 0 28 0;
#X connect 29 0 27 0;
#X restore -89 406 pd display_3;
#X connect 1 0 7 0;
#X connect 2 0 7 1;
#X connect 3 0 7 2;
#X connect 4 0 7 3;
#X connect 7 0 14 2;
#X connect 7 0 20 0;
#X connect 8 0 22 0;
#X connect 8 0 24 0;
#X connect 12 0 21 0;
#X connect 12 0 26 0;
#X connect 12 0 35 0;
#X connect 13 0 14 0;
#X connect 14 0 12 0;
#X connect 15 0 16 0;
#X connect 17 0 37 4;
#X connect 18 0 37 3;
#X connect 19 0 37 5;
#X connect 20 0 12 1;
#X connect 20 1 35 1;
#X connect 22 0 36 0;
#X connect 23 0 37 0;
#X connect 24 0 7 0;
#X connect 27 0 37 1;
#X connect 28 0 37 2;
#X connect 29 0 14 1;
#X connect 35 0 15 0;
#X connect 35 1 36 1;
#X connect 35 2 36 2;
#X connect 36 0 25 0;
#X connect 36 0 11 0;
