#N canvas 613 274 548 651 16;
#X declare -lib iemmatrix;
#X declare -lib hexloader;
#X obj 252 28 inlet matrix;
#X obj 65 28 inlet norm on/off;
#X obj 218 118 route matrix;
#X obj 218 148 list split 2;
#X obj 17 268 change;
#X obj 114 268 change;
#X obj 17 338 pack f f;
#X obj 17 228 unpack f f;
#X obj 114 298 t b f;
#X obj -70 118 loadbang;
#X obj -70 198 gate 2;
#X msg -8 148 2;
#X msg -70 148 1;
#X obj 66 465 r \$0-ms;
#X obj -70 378 s \$0-ms;
#X text 63 -2 default:;
#X text 193 -2 on;
#X text -1 609 Juan Ignacio Mendoza Garay - 2018;
#X msg -51 468 GREY;
#X obj -81 578 outlet;
#X obj -81 548 dynamic_pix_set;
#X obj 65 68 mtx_normalise;
#X obj -81 26 inlet gemlist;
#X obj 276 235 s \$0-pix_set_in2;
#X obj 66 505 r \$0-pix_set_in2;
#X obj 17 378 t b a;
#X connect 0 0 21 1;
#X connect 1 0 21 0;
#X connect 2 0 3 0;
#X connect 3 0 10 1;
#X connect 3 1 23 0;
#X connect 4 0 6 0;
#X connect 5 0 8 0;
#X connect 6 0 25 0;
#X connect 7 0 4 0;
#X connect 7 1 5 0;
#X connect 8 0 6 0;
#X connect 8 1 6 1;
#X connect 9 0 12 0;
#X connect 10 0 11 0;
#X connect 10 0 14 0;
#X connect 10 1 7 0;
#X connect 11 0 10 0;
#X connect 12 0 10 0;
#X connect 13 0 20 1;
#X connect 18 0 20 0;
#X connect 20 0 19 0;
#X connect 21 0 2 0;
#X connect 22 0 20 0;
#X connect 24 0 20 2;
#X connect 25 0 18 0;
#X connect 25 1 20 1;
