#N canvas 831 175 386 432 16;
#X text -131 379 Juan Ignacio Mendoza Garay - 2018;
#X msg 21 252 draw line \, width \$1;
#X obj 21 342 outlet;
#X obj -149 92 polygon_smooth;
#X msg -49 42 1;
#X obj -149 42 separator;
#X obj -149 2 r \$1-gemlist;
#X obj 21 2 r \$1-thickness;
#X obj 21 301 circle \$2;
#X obj -149 132 color \$3 \$4 \$5;
#X text 57 90 \$1 = parent's ID;
#X text 57 130 \$3 = R;
#X text 57 150 \$4 = G;
#X text 57 170 \$5 = B;
#X obj -149 252 translateXYZ;
#X obj -129 212 unpack f f f;
#X obj -129 172 r \$1-translate;
#X text 57 110 \$2 = diameter;
#X connect 1 0 8 0;
#X connect 3 0 9 0;
#X connect 4 0 3 0;
#X connect 5 0 3 0;
#X connect 6 0 5 0;
#X connect 7 0 1 0;
#X connect 7 0 4 0;
#X connect 8 0 2 0;
#X connect 9 0 14 0;
#X connect 14 0 8 0;
#X connect 15 0 14 1;
#X connect 15 1 14 2;
#X connect 15 2 14 3;
#X connect 16 0 15 0;
