#N canvas 615 60 539 442 16;
#X declare -lib iemmatrix;
#X declare -lib iemmatrix;
#X declare -lib iemmatrix;
#X declare -lib list-abs;
#X declare -lib hexloader;
#X declare -lib iemmatrix;
#X declare -lib smlib;
#X text -292 411 Juan Ignacio Mendoza Garay - 2018;
#X floatatom -217 14 5 0 0 0 - - -;
#X floatatom -162 44 5 0 0 0 - - -;
#X floatatom -106 74 5 0 0 0 - - -;
#X floatatom -50 104 5 0 0 0 - - -;
#X text -156 13 width;
#X text -103 43 rings N;
#X text -48 73 hi bound;
#X text 7 103 lo bound;
#N canvas 74 49 319 356 list_trigger_4 0;
#X msg 106 272 \$1 \$2 \$3 \$4;
#X obj 106 240 pack 20 5 4 3;
#X obj 106 15 inlet;
#X obj 106 45 t b a;
#X obj 166 15 inlet;
#X obj 166 45 t b a;
#X obj 226 15 inlet;
#X obj 226 45 t b a;
#X obj 106 315 outlet list;
#X obj 42 15 inlet;
#X connect 0 0 8 0;
#X connect 1 0 0 0;
#X connect 2 0 3 0;
#X connect 3 0 1 0;
#X connect 3 1 1 1;
#X connect 4 0 5 0;
#X connect 5 0 1 0;
#X connect 5 1 1 2;
#X connect 6 0 7 0;
#X connect 7 0 1 0;
#X connect 7 1 1 3;
#X connect 9 0 1 0;
#X restore -217 135 pd list_trigger_4;
#X obj -345 376 heatmap;
#X obj -345 326 tgl 19 0 empty empty on/off -56 12 0 14 -262144 -1
-1 1 1;
#X obj -366 15 vradio 20 1 1 2 empty empty empty 0 -8 0 10 -262144
-1 -1 1;
#X text -345 12 ring;
#X obj -292 326 tgl 19 0 empty empty smooth 24 12 0 14 -262144 -1 -1
0 1;
#X obj -292 276 bng 19 250 50 0 empty empty ready 20 10 0 14 -99865
-4034 -1;
#X obj -98 177 vsl 15 128 0 1 0 0 empty empty empty 0 -9 0 10 -258113
-1 -1 12700 1;
#X obj -78 177 vsl 15 128 0 1 0 0 empty empty empty 0 -9 0 10 -4034
-1 -1 12700 1;
#X obj -58 177 vsl 15 128 0 1 0 0 empty empty empty 0 -9 0 10 -4160
-1 -1 0 1;
#N canvas 74 49 319 356 list_trigger_3 0;
#X obj 106 15 inlet;
#X obj 106 45 t b a;
#X obj 166 15 inlet;
#X obj 166 45 t b a;
#X obj 106 315 outlet list;
#X obj 42 15 inlet;
#X obj 106 240 pack 0 0 0;
#X msg 106 272 \$1 \$2 \$3;
#X connect 0 0 1 0;
#X connect 1 0 6 0;
#X connect 1 1 6 1;
#X connect 2 0 3 0;
#X connect 3 0 6 0;
#X connect 3 1 6 2;
#X connect 5 0 6 0;
#X connect 6 0 7 0;
#X connect 7 0 4 0;
#X restore -161 326 pd list_trigger_3;
#X obj -217 175 mtx_ring;
#N canvas 826 525 471 432 multiplex 0;
#X obj -12 367 outlet;
#X obj -162 27 inlet control;
#X obj -12 317 spigot;
#X msg -5 283 1;
#X msg 45 283 0;
#X obj 128 317 spigot;
#X msg 135 283 1;
#X msg 185 283 0;
#X obj -162 67 select 0 1;
#X obj -12 28 inlet data_0;
#X obj 128 28 inlet data_1;
#X connect 1 0 8 0;
#X connect 2 0 0 0;
#X connect 3 0 2 1;
#X connect 4 0 2 1;
#X connect 5 0 0 0;
#X connect 6 0 5 1;
#X connect 7 0 5 1;
#X connect 8 0 3 0;
#X connect 8 0 7 0;
#X connect 8 1 4 0;
#X connect 8 1 6 0;
#X connect 9 0 2 0;
#X connect 10 0 5 0;
#X restore -319 246 pd multiplex;
#X text -344 32 cone;
#X obj -366 70 t b a;
#X connect 1 0 9 0;
#X connect 2 0 9 1;
#X connect 3 0 9 2;
#X connect 4 0 9 3;
#X connect 9 0 20 0;
#X connect 11 0 10 0;
#X connect 12 0 23 0;
#X connect 14 0 10 4;
#X connect 16 0 19 0;
#X connect 17 0 19 1;
#X connect 18 0 19 2;
#X connect 19 0 10 5;
#X connect 20 0 21 1;
#X connect 20 1 21 2;
#X connect 21 0 15 0;
#X connect 21 0 10 2;
#X connect 23 0 9 0;
#X connect 23 1 21 0;
