#N canvas 659 505 1063 230 12;
#X declare -lib Gem;
#X declare -lib iemmatrix;
#X declare -lib hexloader;
#X declare -lib iemmatrix;
#X declare -lib iemmatrix;
#X declare -lib iemmatrix;
#X declare -lib list-abs;
#X declare -lib hexloader;
#X declare -lib iemmatrix;
#X declare -lib smlib;
#X declare -lib iemmatrix;
#X declare -lib iemmatrix;
#X declare -lib iemmatrix;
#X declare -lib iemmatrix;
#X declare -lib iemmatrix;
#X declare -lib iemmatrix;
#X declare -lib iemmatrix;
#X declare -lib hexloader;
#X obj 0 4 cnv 15 182 108 empty empty empty 20 12 0 14 -162280 -66577
0;
#X obj 0 151 import Gem;
#N canvas 948 396 388 476 movement_hyperpix 0;
#X obj 54 268 pix_dump;
#X obj 5 368 list split 3;
#X msg -48 298 GREY;
#X obj 5 338 mtx_eq 0;
#X obj 46 8 inlet gemlist;
#X obj 107 338 mtx_gt 0;
#X obj -57 428 outlet gemlist neg;
#X obj 54 238 t b a;
#X obj 162 368 import iemmatrix;
#X obj 162 398 import hexloader;
#X obj 107 428 outlet logical matrix;
#X obj 146 238 r \$0-img_w;
#X msg 146 268 zeros \$1;
#X obj 107 298 matrix;
#X obj -57 398 dynamic_pix_set;
#X obj -38 238 r \$0-img_w;
#X msg -6 298 \$1 \$1;
#X obj -38 268 t b a;
#X obj 54 148 pix_grey;
#X obj 54 178 pix_movement 0.26;
#X obj 170 148 r \$0-thresh;
#X obj 54 208 pix_resize;
#X msg -24 78 dimen \$1 \$1;
#X obj 46 48 r \$0-img_w;
#X obj 166 108 pix_flip;
#X msg 96 78 vertical;
#X obj -57 48 separator;
#X obj 166 48 separator;
#X connect 0 1 13 0;
#X connect 1 1 14 2;
#X connect 2 0 14 0;
#X connect 3 0 1 0;
#X connect 4 0 26 0;
#X connect 4 0 27 0;
#X connect 5 0 10 0;
#X connect 7 0 0 0;
#X connect 7 1 0 0;
#X connect 11 0 12 0;
#X connect 12 0 13 0;
#X connect 13 0 5 0;
#X connect 13 0 3 0;
#X connect 14 0 6 0;
#X connect 15 0 17 0;
#X connect 16 0 14 1;
#X connect 17 0 2 0;
#X connect 17 1 16 0;
#X connect 18 0 19 0;
#X connect 19 0 21 0;
#X connect 20 0 19 1;
#X connect 21 0 7 0;
#X connect 22 0 21 0;
#X connect 23 0 22 0;
#X connect 23 0 25 0;
#X connect 24 0 18 0;
#X connect 25 0 24 0;
#X connect 26 0 14 0;
#X connect 27 0 24 0;
#X restore 693 161 pd movement_hyperpix;
#N canvas 828 438 757 483 video_source 0;
#X obj 212 444 outlet gemlist;
#X obj 212 264 pix_film;
#X obj 172 74 openpanel;
#X msg 212 104 open \$1;
#X obj 467 344 cup;
#X obj 467 284 metro;
#X obj 514 224 expr 1000/$f1;
#X msg 514 194 30;
#X text 553 192 <-- fps;
#X obj 514 124 pipe 100;
#X msg 232 144 1;
#X obj 232 204 s \$0-playtgl_rcv;
#X obj 514 254 i;
#X obj 238 324 unpack f f f;
#X obj 238 354 s \$0-movie_length;
#X obj 467 384 moses;
#X obj 514 414 s \$0-reset_movie;
#X obj 514 344 r \$0-movie_length;
#X msg 391 204 setbang 0;
#X floatatom 634 264 5 0 0 0 goto - -;
#X msg 594 304 setbang \$1;
#X obj -45 204 moses 1;
#X obj 271 74 r \$0-reset_movie;
#X msg 634 224 set \$1;
#X obj -45 25 r \$0-src_select_snd;
#X obj 514 24 r \$0-playtgl_snd;
#X obj 391 24 r \$0-vreset_snd;
#X obj 172 24 r \$0-vload_snd;
#X msg 11 344 dialog;
#X obj 57 145 s \$0-playtgl_rcv;
#X msg 40 115 0;
#X obj 1 374 create_pix_video;
#X obj -45 56 t a a;
#X obj -13 85 select 1;
#X obj 11 315 t b a;
#X obj -13 145 s \$0-pv1;
#X msg -13 115 1;
#X obj 11 285 r \$0-videocam_tgl;
#X obj 1 235 gate_2;
#X obj 40 204 gemhead 110;
#X obj 212 414 pix_cropsqr;
#X obj 286 384 r \$0-src_select_snd;
#X obj 40 175 r \$0-videocam_tgl;
#X connect 1 0 40 0;
#X connect 1 1 13 0;
#X connect 2 0 3 0;
#X connect 3 0 1 0;
#X connect 3 0 18 0;
#X connect 3 0 10 0;
#X connect 4 0 15 0;
#X connect 4 0 1 1;
#X connect 4 0 23 0;
#X connect 5 0 4 0;
#X connect 6 0 12 0;
#X connect 7 0 6 0;
#X connect 9 0 5 0;
#X connect 9 0 7 0;
#X connect 10 0 11 0;
#X connect 12 0 5 1;
#X connect 13 0 14 0;
#X connect 15 1 16 0;
#X connect 17 0 15 1;
#X connect 18 0 4 0;
#X connect 19 0 20 0;
#X connect 20 0 4 0;
#X connect 21 1 38 0;
#X connect 22 0 18 0;
#X connect 23 0 19 0;
#X connect 24 0 32 0;
#X connect 25 0 9 0;
#X connect 26 0 18 0;
#X connect 27 0 2 0;
#X connect 28 0 31 0;
#X connect 30 0 29 0;
#X connect 31 0 40 0;
#X connect 32 0 21 0;
#X connect 32 1 33 0;
#X connect 33 0 36 0;
#X connect 33 1 30 0;
#X connect 34 0 28 0;
#X connect 34 1 31 1;
#X connect 36 0 35 0;
#X connect 37 0 34 0;
#X connect 38 0 31 0;
#X connect 38 1 1 0;
#X connect 39 0 38 1;
#X connect 40 0 0 0;
#X connect 41 0 40 1;
#X connect 42 0 39 0;
#X restore 843 71 pd video_source;
#N canvas 326 371 390 397 gemwin_control 0;
#X msg 231 198 0 \, destroy;
#X obj 83 349 gemwin;
#X msg 51 168 create \, 1;
#X obj 51 138 delay 200;
#X obj 231 348 s \$0-playtgl_rcv;
#X msg 231 318 0;
#X obj 5 48 moses 1;
#X obj 51 198 t a b;
#X obj 5 8 r \$0-src_select_snd;
#X obj 231 8 r \$0-video_close_snd;
#X msg 83 228 dimen 620 300;
#X connect 0 0 1 0;
#X connect 0 0 5 0;
#X connect 2 0 7 0;
#X connect 3 0 2 0;
#X connect 5 0 4 0;
#X connect 6 0 0 0;
#X connect 6 1 3 0;
#X connect 7 0 1 0;
#X connect 7 1 10 0;
#X connect 8 0 6 0;
#X connect 9 0 0 0;
#X connect 10 0 1 0;
#X restore 195 81 pd gemwin_control;
#X obj 0 121 import iemmatrix;
#X obj 195 41 s \$0-src_select_rcv;
#X obj 195 1 inlet select_source;
#N canvas 617 536 183 304 display_raw 0;
#X obj 9 232 pix_texture;
#X obj 9 12 inlet;
#X obj 9 201 alpha;
#X obj 41 161 r \$0-tgl_disp_rngs;
#X obj 9 262 square 4;
#X obj 9 132 translate;
#X msg 39 102 1;
#X obj 39 72 t b a;
#X obj 39 42 r \$0-trans_raw;
#X connect 0 0 4 0;
#X connect 1 0 5 0;
#X connect 2 0 0 0;
#X connect 3 0 2 0;
#X connect 3 0 2 1;
#X connect 5 0 2 0;
#X connect 6 0 5 1;
#X connect 7 0 6 0;
#X connect 7 1 5 2;
#X connect 8 0 7 0;
#X restore 875 161 pd display_raw;
#N canvas 556 22 193 117 \$0-video_file_GUI 0;
#N canvas 678 22 196 132 video_file_console 0;
#X obj 1 1 cnv 15 182 90 empty empty empty 20 12 0 14 -99865 -66577
0;
#X obj 3 3 cnv 15 178 86 empty empty empty 20 12 0 14 -233017 -66577
0;
#X obj 27 56 bng 23 250 50 0 \$0-vload_snd \$0-vload_rcv empty 0 -6
0 8 -260097 -66577 -1;
#X obj 101 56 tgl 23 0 \$0-playtgl_snd \$0-playtgl_rcv empty 17 7 0
10 -66577 -4034 -1 0 1;
#X text 18 31 load;
#X text 93 31 play;
#X obj 68 60 bng 15 250 50 0 \$0-vreset_snd \$0-vreset_rcv reset -7
-8 0 10 -262144 -1 -1;
#X obj 142 60 bng 15 250 50 0 \$0-video_close_snd \$0-video_close_rcv
close -7 -8 0 10 -262144 -1 -1;
#X text 56 7 VIDEO FILE;
#X coords 0 -1 1 1 184 92 2 0 0;
#X restore -20 6 pd video_file_console;
#X coords 0 0 1 1 184 92 0;
#X restore 525 81 pd \$0-video_file_GUI;
#X obj 913 41 s \$0-thresh;
#X text -1 173 Tested in Puredata Extended 0.42.5;
#X text 0 192 Juan Ignacio Mendoza Garay - 2018;
#X obj 913 1 inlet threshold;
#N canvas 1123 586 233 284 rings_detector 0;
#X obj 42 55 r \$0-img_w;
#X obj 71 85 r \$0-rings_pos;
#X obj 101 115 r \$0-rings_w;
#X obj 13 15 inlet image matrix;
#X obj 13 153 mtx_whichring;
#X obj 79 185 s \$0-rng_mtx;
#X obj 13 245 s \$0-dri;
#X obj 35 215 s \$0-dri_st;
#X connect 0 0 4 1;
#X connect 1 0 4 2;
#X connect 2 0 4 3;
#X connect 3 0 4 0;
#X connect 4 0 6 0;
#X connect 4 1 7 0;
#X connect 4 3 5 0;
#X restore 854 192 pd rings_detector;
#X obj 641 1 inlet rings width;
#X obj 341 1 inlet matrix width;
#X obj 481 1 inlet rings positions;
#X obj 2 6 cnv 15 178 104 empty empty empty 20 12 0 14 -228856 -66577
0;
#X obj 7 12 cnv 15 80 92 empty empty empty 20 12 0 14 -262144 -66577
0;
#X obj 94 11 cnv 15 80 92 empty empty empty 20 12 0 14 -262144 -66577
0;
#X obj 54 33 vradio 15 1 0 3 \$0-src_select_snd \$0-src_select_rcv
empty 0 -8 0 10 -262130 -1 -1 0;
#X text 20 32 none;
#X text 6 46 camera;
#X text 20 60 file;
#X floatatom 54 81 4 0 0 0 - #0-img_w_set #0-img_w;
#X floatatom 100 32 3 0 0 0 - #0-rings_n_rcv #0-rings_n_snd;
#X text 125 35 amount;
#X floatatom 100 56 4 0 0 0 - #0-rings_w_set #0-rings_w;
#X text 132 57 width;
#X floatatom 100 80 3 0 0 0 - #0-dri #0-dri_foo;
#X text 131 80 match;
#X obj 44 7 cnv 15 90 20 empty empty video_rings 4 12 1 16 -228856
-1 0;
#X text 10 81 resol.;
#N canvas 959 542 508 388 rings_parameters_processor 0;
#X obj 256 -15 inlet;
#X obj -108 -15 inlet;
#X obj 6 334 s \$0-rings_pos;
#X obj -108 335 s \$0-img_w_set;
#X obj 256 335 s \$0-rings_w_set;
#X obj 56 235 s \$0-rings_n_rcv;
#X obj 16 265 r \$0-rings_n_snd;
#N canvas 613 413 449 368 make_equally_spaced_rings 0;
#X obj 41 323 outlet;
#X obj 92 113 until;
#X obj 92 193 cup;
#X obj 338 263 t l;
#X obj 41 293 list;
#X obj 92 233 *;
#X obj 92 263 list prepend;
#X msg 144 113 1;
#X obj 196 193 expr 1/($f1+1);
#X obj 41 13 inlet;
#X obj 41 64 trigger bang any bang any bang;
#X connect 1 0 2 0;
#X connect 2 0 5 0;
#X connect 3 0 6 1;
#X connect 4 0 0 0;
#X connect 5 0 6 0;
#X connect 6 0 3 0;
#X connect 6 0 4 1;
#X connect 7 0 2 0;
#X connect 8 0 5 1;
#X connect 9 0 10 0;
#X connect 10 0 4 0;
#X connect 10 1 1 0;
#X connect 10 2 7 0;
#X connect 10 3 8 0;
#X connect 10 4 3 0;
#X restore 16 298 pd make_equally_spaced_rings;
#X obj -80 165 list length;
#X msg -80 195 set \$1;
#X obj 6 -15 inlet;
#X obj 6 125 list;
#X obj 126 165 s \$0-rngs_RGB;
#X msg 126 95 1 1 1;
#X obj 56 45 t b b b b;
#X obj 56 -15 loadbang;
#X obj 56 15 del;
#X msg -84 95 200;
#X msg 216 95 0.02;
#X msg 56 95 5;
#X connect 0 0 4 0;
#X connect 1 0 3 0;
#X connect 6 0 7 0;
#X connect 7 0 2 0;
#X connect 8 0 9 0;
#X connect 9 0 5 0;
#X connect 10 0 11 0;
#X connect 11 0 2 0;
#X connect 11 0 8 0;
#X connect 13 0 12 0;
#X connect 14 0 19 0;
#X connect 14 1 17 0;
#X connect 14 2 13 0;
#X connect 14 3 18 0;
#X connect 15 0 16 0;
#X connect 16 0 14 0;
#X connect 17 0 3 0;
#X connect 18 0 4 0;
#X connect 19 0 5 0;
#X restore 381 41 pd rings_parameters_processor;
#N canvas 167 351 427 240 video_selector_processor 0;
#X msg 234 95 1;
#X msg 194 178 \; pd-\$2-video_file_GUI vis \$1;
#X obj 194 147 pack f \$0;
#X obj 54 147 s \$0-videocam_tgl;
#X msg 154 95 1;
#X msg 114 95 0;
#X obj 127 7 r \$0-src_select_snd;
#X obj 127 37 select 0 1 2;
#X msg 194 95 0;
#X obj 14 177 s \$0-tgl_disp_rngs_set;
#X msg 14 95 0;
#X connect 0 0 2 0;
#X connect 2 0 1 0;
#X connect 4 0 3 0;
#X connect 5 0 3 0;
#X connect 6 0 7 0;
#X connect 7 0 5 0;
#X connect 7 0 8 0;
#X connect 7 0 10 0;
#X connect 7 1 4 0;
#X connect 7 1 8 0;
#X connect 7 2 0 0;
#X connect 7 2 5 0;
#X connect 8 0 2 0;
#X connect 10 0 9 0;
#X restore 325 81 pd video_selector_processor;
#X obj 146 17 tgl 15 0 \$0-tgl_disp_rngs \$0-tgl_disp_rngs_set empty
17 7 0 10 -204786 -13381 -1 0 1;
#X obj 771 1 inlet rings colour;
#X obj 771 41 s \$0-rngs_RGB;
#X obj 875 131 separator;
#X obj 843 101 t a a;
#N canvas 516 388 392 401 translate_control 0;
#X msg 196 112 \$1 \$2 \$3;
#X obj 196 82 pack f f f;
#X floatatom 184 -38 5 0 0 0 - - -;
#X floatatom 244 -38 5 0 0 0 - - -;
#X floatatom 304 -38 5 0 0 0 - - -;
#X obj 244 -8 t b f;
#X obj 304 -8 t b f;
#X obj 244 -107 bng 15 250 50 0 empty empty empty 17 7 0 10 -262144
-1 -1;
#X msg 244 -77 0;
#X msg 184 -77 4.2;
#X obj 196 142 s \$0-trans_hp;
#X msg -4 112 \$1 \$2 \$3;
#X obj -4 82 pack f f f;
#X floatatom -16 -38 5 0 0 0 - - -;
#X floatatom 44 -38 5 0 0 0 - - -;
#X floatatom 104 -38 5 0 0 0 - - -;
#X obj 44 -8 t b f;
#X obj 104 -8 t b f;
#X obj 44 -107 bng 15 250 50 0 empty empty empty 17 7 0 10 -262144
-1 -1;
#X obj 144 -178 loadbang;
#X msg 44 -77 0;
#X obj -4 142 s \$0-trans_raw;
#X msg -16 -77 -4;
#X obj 144 -147 bng 15 250 50 0 empty empty empty 17 7 0 10 -262144
-1 -1;
#X msg 104 -77 -0.12;
#X msg 304 -77 -0.12;
#X connect 0 0 10 0;
#X connect 1 0 0 0;
#X connect 2 0 1 0;
#X connect 3 0 5 0;
#X connect 4 0 6 0;
#X connect 5 0 1 0;
#X connect 5 1 1 1;
#X connect 6 0 1 0;
#X connect 6 1 1 2;
#X connect 7 0 9 0;
#X connect 7 0 8 0;
#X connect 7 0 25 0;
#X connect 8 0 3 0;
#X connect 9 0 2 0;
#X connect 11 0 21 0;
#X connect 12 0 11 0;
#X connect 13 0 12 0;
#X connect 14 0 16 0;
#X connect 15 0 17 0;
#X connect 16 0 12 0;
#X connect 16 1 12 1;
#X connect 17 0 12 0;
#X connect 17 1 12 2;
#X connect 18 0 22 0;
#X connect 18 0 20 0;
#X connect 18 0 24 0;
#X connect 19 0 23 0;
#X connect 20 0 14 0;
#X connect 22 0 13 0;
#X connect 23 0 7 0;
#X connect 23 0 18 0;
#X connect 24 0 15 0;
#X connect 25 0 4 0;
#X coords 0 0 1 1 184 92 0;
#X restore 675 81 pd translate_control;
#X obj 501 160 r \$0-rings_pos;
#X obj 501 191 outlet rings positions;
#X obj 260 191 outlet index;
#X obj 360 191 outlet index state;
#X text 259 139 --------- detected ring ---------;
#X obj 260 161 r \$0-dri;
#X obj 360 161 r \$0-dri_st;
#N canvas 388 329 321 488 display_rings_hyperpix 1;
#X obj -44 414 pix_texture;
#X obj -44 444 square 4;
#X obj -44 384 pix_mix;
#X obj 122 204 select 1;
#X msg 2 334 0.5;
#X obj 76 414 s \$0-tgl_disp_rngs_set;
#X obj 76 334 loadbang;
#X msg 76 384 0;
#X obj -44 134 translate;
#X obj -16 44 r \$0-trans_hp;
#X msg -16 104 1;
#X obj -16 74 t b a;
#X obj -44 14 inlet hyperpix matrix;
#X obj -21 174 gemhead 100;
#N canvas 301 479 357 574 process_rings 0;
#X obj -57 -48 inlet gemlist;
#X obj -63 442 pix_texture;
#X obj 82 162 mtx_add;
#X obj 102 132 t a;
#X msg 149 102 zeros \$1;
#X obj 149 132 mtx;
#X obj 149 -48 r \$0-img_w;
#X obj 149 72 f;
#X obj 159 -18 r \$0-rings_w;
#X obj 179 12 r \$0-rings_pos;
#X obj 159 42 bang;
#X obj 55 42 r \$0-rng_mtx;
#X obj 36 192 pix_mtx;
#X obj 36 252 color;
#X obj 68 222 r \$0-rngs_RGB;
#X obj -63 472 square 4;
#X obj -5 -18 r \$0-tgl_disp_rngs;
#X obj -5 12 select 1;
#X obj -63 292 separator;
#X obj 127 292 separator;
#X obj -63 412 translate;
#X msg -33 382 1;
#X obj -33 352 t b a;
#X obj -33 322 r \$0-trans_raw;
#X obj 127 412 translate;
#X msg 157 382 1;
#X obj 157 352 t b a;
#X obj 157 322 r \$0-trans_hp;
#X obj 127 442 outlet;
#X connect 0 0 12 0;
#X connect 1 0 15 0;
#X connect 2 0 3 0;
#X connect 2 0 12 2;
#X connect 3 0 2 1;
#X connect 4 0 5 0;
#X connect 5 0 2 1;
#X connect 6 0 7 0;
#X connect 7 0 4 0;
#X connect 8 0 10 0;
#X connect 9 0 10 0;
#X connect 10 0 7 0;
#X connect 11 0 2 0;
#X connect 12 0 13 0;
#X connect 13 0 18 0;
#X connect 13 0 19 0;
#X connect 14 0 13 1;
#X connect 16 0 17 0;
#X connect 17 0 2 0;
#X connect 18 0 20 0;
#X connect 19 0 24 0;
#X connect 20 0 1 0;
#X connect 21 0 20 1;
#X connect 22 0 21 0;
#X connect 22 1 20 2;
#X connect 23 0 22 0;
#X connect 24 0 28 0;
#X connect 25 0 24 1;
#X connect 26 0 25 0;
#X connect 26 1 24 2;
#X connect 27 0 26 0;
#X restore -21 204 pd process_rings;
#X obj 90 104 r \$0-tgl_disp_rngs;
#X obj 90 134 t a a;
#X connect 0 0 1 0;
#X connect 2 0 0 0;
#X connect 3 0 4 0;
#X connect 3 1 2 2;
#X connect 4 0 2 2;
#X connect 6 0 7 0;
#X connect 7 0 5 0;
#X connect 8 0 2 0;
#X connect 9 0 11 0;
#X connect 10 0 8 1;
#X connect 11 0 10 0;
#X connect 11 1 8 2;
#X connect 12 0 8 0;
#X connect 13 0 14 0;
#X connect 14 0 2 1;
#X connect 15 0 16 0;
#X connect 16 0 13 0;
#X connect 16 1 3 0;
#X restore 670 191 pd display_rings_hyperpix;
#X connect 2 0 49 0;
#X connect 2 1 14 0;
#X connect 3 0 40 0;
#X connect 7 0 6 0;
#X connect 13 0 10 0;
#X connect 15 0 34 2;
#X connect 16 0 34 0;
#X connect 17 0 34 1;
#X connect 37 0 38 0;
#X connect 39 0 8 0;
#X connect 40 0 2 0;
#X connect 40 1 39 0;
#X connect 42 0 43 0;
#X connect 47 0 44 0;
#X connect 48 0 45 0;
#X coords 0 -1 1 1 182 116 1 0 0;
