#N canvas 627 23 627 319 12;
#N canvas 635 51 618 724 control_panel 0;
#N canvas 0 23 1093 488 elapsed_frames_display 0;
#X msg 18 428 \; elapsed_frames_54321 label \$1;
#X msg 891 427 \; elapsed_frames_1 label \$1;
#X obj 944 358 expr $f2 - $f1*10;
#N canvas 555 448 221 209 null_manager 0;
#X obj 113 16 inlet current;
#X obj 11 156 outlet symbol to display;
#X obj 113 111 ftos;
#X msg 11 111 symbol;
#X obj 21 46 r reset_bang;
#X obj 21 76 delay 250;
#X obj 11 16 inlet iszero;
#X connect 0 0 2 0;
#X connect 2 0 1 0;
#X connect 3 0 1 0;
#X connect 4 0 5 0;
#X connect 5 0 3 0;
#X connect 6 0 3 0;
#X restore 891 397 pd null_manager;
#X msg 680 427 \; elapsed_frames_21 label \$1;
#X obj 733 358 expr $f2 - $f1*10;
#X obj 680 198 div 10;
#X msg 471 428 \; elapsed_frames_321 label \$1;
#X obj 524 358 expr $f2 - $f1*10;
#X obj 471 198 div 100;
#X msg 250 428 \; elapsed_frames_4321 label \$1;
#X obj 303 358 expr $f2 - $f1*10;
#X obj 250 198 div 1000;
#X obj 18 198 div 10000;
#X obj 944 319 int;
#X obj 733 319 int;
#X obj 524 318 int;
#X obj 303 318 int;
#X obj 891 228 select 0;
#X obj 680 228 select 0;
#N canvas 555 448 221 209 null_manager 0;
#X obj 113 16 inlet current;
#X obj 11 156 outlet symbol to display;
#X obj 113 111 ftos;
#X msg 11 111 symbol;
#X obj 21 46 r reset_bang;
#X obj 21 76 delay 250;
#X obj 11 16 inlet iszero;
#X connect 0 0 2 0;
#X connect 2 0 1 0;
#X connect 3 0 1 0;
#X connect 4 0 5 0;
#X connect 5 0 3 0;
#X connect 6 0 3 0;
#X restore 680 398 pd null_manager;
#X obj 471 228 select 0;
#N canvas 555 448 221 209 null_manager 0;
#X obj 113 16 inlet current;
#X obj 11 156 outlet symbol to display;
#X obj 113 111 ftos;
#X msg 11 111 symbol;
#X obj 21 46 r reset_bang;
#X obj 21 76 delay 250;
#X obj 11 16 inlet iszero;
#X connect 0 0 2 0;
#X connect 2 0 1 0;
#X connect 3 0 1 0;
#X connect 4 0 5 0;
#X connect 5 0 3 0;
#X connect 6 0 3 0;
#X restore 471 398 pd null_manager;
#X obj 250 228 select 0;
#N canvas 555 448 221 209 null_manager 0;
#X obj 113 16 inlet current;
#X obj 11 156 outlet symbol to display;
#X obj 113 111 ftos;
#X msg 11 111 symbol;
#X obj 21 46 r reset_bang;
#X obj 21 76 delay 250;
#X obj 11 16 inlet iszero;
#X connect 0 0 2 0;
#X connect 2 0 1 0;
#X connect 3 0 1 0;
#X connect 4 0 5 0;
#X connect 5 0 3 0;
#X connect 6 0 3 0;
#X restore 250 398 pd null_manager;
#X obj 18 228 select 0;
#N canvas 555 448 221 209 null_manager 0;
#X obj 113 16 inlet current;
#X obj 11 156 outlet symbol to display;
#X obj 113 111 ftos;
#X msg 11 111 symbol;
#X obj 21 46 r reset_bang;
#X obj 21 76 delay 250;
#X obj 11 16 inlet iszero;
#X connect 0 0 2 0;
#X connect 2 0 1 0;
#X connect 3 0 1 0;
#X connect 4 0 5 0;
#X connect 5 0 3 0;
#X connect 6 0 3 0;
#X restore 18 398 pd null_manager;
#X obj 944 268 t b f;
#X obj 303 258 t b f;
#X obj 524 258 t b f;
#X obj 733 258 t b f;
#X obj 560 8 r current_frame;
#X obj 560 118 t f f f f f;
#X obj 560 88 spigot;
#X obj 760 8 r current_mode;
#X msg 831 108 0;
#X msg 760 78 1;
#X obj 760 38 select 3 2 1 0;
#X connect 2 0 3 1;
#X connect 3 0 1 0;
#X connect 5 0 20 1;
#X connect 6 0 19 0;
#X connect 6 0 14 1;
#X connect 8 0 22 1;
#X connect 9 0 21 0;
#X connect 9 0 15 1;
#X connect 11 0 24 1;
#X connect 12 0 23 0;
#X connect 12 0 16 1;
#X connect 13 0 25 0;
#X connect 13 0 17 1;
#X connect 14 0 2 0;
#X connect 15 0 5 0;
#X connect 16 0 8 0;
#X connect 17 0 11 0;
#X connect 18 0 3 0;
#X connect 18 1 27 0;
#X connect 19 0 20 0;
#X connect 19 1 30 0;
#X connect 20 0 4 0;
#X connect 21 0 22 0;
#X connect 21 1 29 0;
#X connect 22 0 7 0;
#X connect 23 0 24 0;
#X connect 23 1 28 0;
#X connect 24 0 10 0;
#X connect 25 0 26 0;
#X connect 25 1 26 1;
#X connect 26 0 0 0;
#X connect 27 0 14 0;
#X connect 27 1 2 1;
#X connect 28 0 17 0;
#X connect 28 1 11 1;
#X connect 29 0 16 0;
#X connect 29 1 8 1;
#X connect 30 0 15 0;
#X connect 30 1 5 1;
#X connect 31 0 33 0;
#X connect 32 0 18 0;
#X connect 32 1 6 0;
#X connect 32 2 9 0;
#X connect 32 3 12 0;
#X connect 32 4 13 0;
#X connect 33 0 32 0;
#X connect 34 0 37 0;
#X connect 35 0 33 1;
#X connect 36 0 33 1;
#X connect 37 0 36 0;
#X connect 37 1 36 0;
#X connect 37 2 35 0;
#X connect 37 3 35 0;
#X restore 216 327 pd elapsed_frames_display;
#N canvas 4 96 920 726 elapsed_time_display 0;
#X obj 570 248 expr $f2 - $f1*10;
#X obj 570 198 t b f;
#X obj 570 168 div 10;
#X obj 424 168 div 100;
#X obj 424 248 expr $f2 - $f1*10;
#X obj 424 198 t b f;
#X obj 714 248 expr $f2 - $f1*10;
#X obj 714 208 t b f;
#X obj 424 278 ftos;
#X obj 570 278 ftos;
#X obj 714 278 ftos;
#X obj 284 248 expr $f2 - $f1*10;
#X obj 284 198 t b f;
#X obj 284 278 ftos;
#X obj 284 168 div 1000;
#X obj 144 198 t b f;
#X obj 144 278 ftos;
#X obj 570 88 *;
#X obj 4 248 expr $f2 - $f1*10;
#X obj 4 198 t b f;
#X obj 4 278 ftos;
#X obj 4 168 div 60000;
#X obj 144 168 div 10000;
#X obj 144 248 expr $f2 - $f1*6;
#X obj 530 38 - 1;
#X obj 530 8 r current_frame;
#X msg 714 428 \; elapsed_time_XXms label \$1;
#X msg 570 478 \; elapsed_time_XmsX label \$1;
#X msg 424 528 \; elapsed_time_msXX label \$1;
#X msg 284 578 \; elapsed_time_Xs label \$1;
#X msg 144 628 \; elapsed_time_sX label \$1;
#X msg 4 678 \; elapsed_time_m label \$1;
#X msg 22 372 symbol;
#X obj 22 312 r reset_bang;
#X obj 650 38 expr 1000/$f1;
#X obj 650 8 r fps_snd;
#X connect 0 0 9 0;
#X connect 1 0 0 0;
#X connect 1 1 0 1;
#X connect 2 0 1 0;
#X connect 2 0 6 0;
#X connect 3 0 5 0;
#X connect 3 0 0 0;
#X connect 4 0 8 0;
#X connect 5 0 4 0;
#X connect 5 1 4 1;
#X connect 6 0 10 0;
#X connect 7 0 6 0;
#X connect 7 1 6 1;
#X connect 8 0 28 0;
#X connect 9 0 27 0;
#X connect 10 0 26 0;
#X connect 11 0 13 0;
#X connect 12 0 11 0;
#X connect 12 1 11 1;
#X connect 13 0 29 0;
#X connect 14 0 12 0;
#X connect 14 0 4 0;
#X connect 15 0 23 0;
#X connect 15 1 23 1;
#X connect 16 0 30 0;
#X connect 17 0 21 0;
#X connect 17 0 14 0;
#X connect 17 0 3 0;
#X connect 17 0 2 0;
#X connect 17 0 7 0;
#X connect 17 0 22 0;
#X connect 18 0 20 0;
#X connect 19 0 18 0;
#X connect 19 1 18 1;
#X connect 20 0 31 0;
#X connect 21 0 19 0;
#X connect 21 0 23 0;
#X connect 22 0 15 0;
#X connect 22 0 11 0;
#X connect 23 0 16 0;
#X connect 24 0 17 0;
#X connect 25 0 24 0;
#X connect 32 0 31 0;
#X connect 32 0 30 0;
#X connect 32 0 29 0;
#X connect 32 0 28 0;
#X connect 32 0 27 0;
#X connect 32 0 26 0;
#X connect 33 0 32 0;
#X connect 34 0 17 1;
#X connect 35 0 34 0;
#X restore 223 387 pd elapsed_time_display;
#N canvas 15 221 1084 421 total_frames_display 0;
#X msg 774 307 \; total_frames_1 label \$1;
#X msg 563 307 \; total_frames_21 label \$1;
#X msg 354 308 \; total_frames_321 label \$1;
#X msg -99 308 \; total_frames_54321 label \$1;
#X obj 443 -32 r total_frames;
#X msg 133 308 \; total_frames_4321 label \$1;
#X obj 827 238 expr $f2 - $f1*10;
#N canvas 555 448 221 209 null_manager 0;
#X obj 113 16 inlet current;
#X obj 11 156 outlet symbol to display;
#X obj 113 111 ftos;
#X msg 11 111 symbol;
#X obj 21 46 r reset_bang;
#X obj 21 76 delay 250;
#X obj 11 16 inlet iszero;
#X connect 0 0 2 0;
#X connect 2 0 1 0;
#X connect 3 0 1 0;
#X connect 4 0 5 0;
#X connect 5 0 3 0;
#X connect 6 0 3 0;
#X restore 774 277 pd null_manager;
#X obj 616 238 expr $f2 - $f1*10;
#X obj 563 78 div 10;
#X obj 407 238 expr $f2 - $f1*10;
#X obj 354 78 div 100;
#X obj 186 238 expr $f2 - $f1*10;
#X obj 133 78 div 1000;
#X obj -99 78 div 10000;
#X obj 827 199 int;
#X obj 616 199 int;
#X obj 407 198 int;
#X obj 186 198 int;
#X obj 774 108 select 0;
#X obj 563 108 select 0;
#N canvas 555 448 221 209 null_manager 0;
#X obj 113 16 inlet current;
#X obj 11 156 outlet symbol to display;
#X obj 113 111 ftos;
#X msg 11 111 symbol;
#X obj 21 46 r reset_bang;
#X obj 21 76 delay 250;
#X obj 11 16 inlet iszero;
#X connect 0 0 2 0;
#X connect 2 0 1 0;
#X connect 3 0 1 0;
#X connect 4 0 5 0;
#X connect 5 0 3 0;
#X connect 6 0 3 0;
#X restore 563 278 pd null_manager;
#X obj 354 108 select 0;
#N canvas 555 448 221 209 null_manager 0;
#X obj 113 16 inlet current;
#X obj 11 156 outlet symbol to display;
#X obj 113 111 ftos;
#X msg 11 111 symbol;
#X obj 21 46 r reset_bang;
#X obj 21 76 delay 250;
#X obj 11 16 inlet iszero;
#X connect 0 0 2 0;
#X connect 2 0 1 0;
#X connect 3 0 1 0;
#X connect 4 0 5 0;
#X connect 5 0 3 0;
#X connect 6 0 3 0;
#X restore 354 278 pd null_manager;
#X obj 133 108 select 0;
#N canvas 555 448 221 209 null_manager 0;
#X obj 113 16 inlet current;
#X obj 11 156 outlet symbol to display;
#X obj 113 111 ftos;
#X msg 11 111 symbol;
#X obj 21 46 r reset_bang;
#X obj 21 76 delay 250;
#X obj 11 16 inlet iszero;
#X connect 0 0 2 0;
#X connect 2 0 1 0;
#X connect 3 0 1 0;
#X connect 4 0 5 0;
#X connect 5 0 3 0;
#X connect 6 0 3 0;
#X restore 133 278 pd null_manager;
#X obj -99 108 select 0;
#N canvas 555 448 221 209 null_manager 0;
#X obj 113 16 inlet current;
#X obj 11 156 outlet symbol to display;
#X obj 113 111 ftos;
#X msg 11 111 symbol;
#X obj 21 46 r reset_bang;
#X obj 21 76 delay 250;
#X obj 11 16 inlet iszero;
#X connect 0 0 2 0;
#X connect 2 0 1 0;
#X connect 3 0 1 0;
#X connect 4 0 5 0;
#X connect 5 0 3 0;
#X connect 6 0 3 0;
#X restore -99 278 pd null_manager;
#X obj 827 148 t b f;
#X obj 186 138 t b f;
#X obj 407 138 t b f;
#X obj 616 138 t b f;
#X obj 443 -2 t f f f f f;
#X connect 4 0 32 0;
#X connect 6 0 7 1;
#X connect 7 0 0 0;
#X connect 8 0 21 1;
#X connect 9 0 20 0;
#X connect 9 0 15 1;
#X connect 10 0 23 1;
#X connect 11 0 22 0;
#X connect 11 0 16 1;
#X connect 12 0 25 1;
#X connect 13 0 24 0;
#X connect 13 0 17 1;
#X connect 14 0 26 0;
#X connect 14 0 18 1;
#X connect 15 0 6 0;
#X connect 16 0 8 0;
#X connect 17 0 10 0;
#X connect 18 0 12 0;
#X connect 19 0 7 0;
#X connect 19 1 28 0;
#X connect 20 0 21 0;
#X connect 20 1 31 0;
#X connect 21 0 1 0;
#X connect 22 0 23 0;
#X connect 22 1 30 0;
#X connect 23 0 2 0;
#X connect 24 0 25 0;
#X connect 24 1 29 0;
#X connect 25 0 5 0;
#X connect 26 0 27 0;
#X connect 26 1 27 1;
#X connect 27 0 3 0;
#X connect 28 0 15 0;
#X connect 28 1 6 1;
#X connect 29 0 18 0;
#X connect 29 1 12 1;
#X connect 30 0 17 0;
#X connect 30 1 10 1;
#X connect 31 0 16 0;
#X connect 31 1 8 1;
#X connect 32 0 19 0;
#X connect 32 1 9 0;
#X connect 32 2 11 0;
#X connect 32 3 13 0;
#X connect 32 4 14 0;
#X restore 223 357 pd total_frames_display;
#N canvas 282 71 903 723 total_time_display 0;
#X obj 570 298 expr $f2 - $f1*10;
#X obj 570 248 t b f;
#X obj 570 218 div 10;
#X obj 424 218 div 100;
#X obj 424 298 expr $f2 - $f1*10;
#X obj 424 248 t b f;
#X obj 714 298 expr $f2 - $f1*10;
#X obj 714 258 t b f;
#X obj 424 328 ftos;
#X obj 570 328 ftos;
#X obj 714 328 ftos;
#X obj 284 298 expr $f2 - $f1*10;
#X obj 284 248 t b f;
#X obj 284 328 ftos;
#X obj 284 218 div 1000;
#X obj 144 248 t b f;
#X obj 144 328 ftos;
#X obj 570 128 *;
#X obj 4 298 expr $f2 - $f1*10;
#X obj 4 248 t b f;
#X obj 4 328 ftos;
#X obj 4 218 div 60000;
#X obj 144 218 div 10000;
#X obj 144 298 expr $f2 - $f1*6;
#X msg 714 419 \; total_time_XXms label \$1;
#X msg 570 468 \; total_time_XmsX label \$1;
#X msg 424 518 \; total_time_msXX label \$1;
#X msg 284 568 \; total_time_Xs label \$1;
#X msg 144 618 \; total_time_sX label \$1;
#X msg 4 668 \; total_time_m label \$1;
#X obj 530 8 r total_frames;
#X msg 24 388 symbol;
#X obj 24 358 r reset_bang;
#X obj 530 88 - 1;
#X obj 682 78 expr 1000/$f1;
#X obj 650 38 t b f;
#X obj 650 8 r fps_snd;
#X connect 0 0 9 0;
#X connect 1 0 0 0;
#X connect 1 1 0 1;
#X connect 2 0 1 0;
#X connect 2 0 6 0;
#X connect 3 0 5 0;
#X connect 3 0 0 0;
#X connect 4 0 8 0;
#X connect 5 0 4 0;
#X connect 5 1 4 1;
#X connect 6 0 10 0;
#X connect 7 0 6 0;
#X connect 7 1 6 1;
#X connect 8 0 26 0;
#X connect 9 0 25 0;
#X connect 10 0 24 0;
#X connect 11 0 13 0;
#X connect 12 0 11 0;
#X connect 12 1 11 1;
#X connect 13 0 27 0;
#X connect 14 0 12 0;
#X connect 14 0 4 0;
#X connect 15 0 23 0;
#X connect 15 1 23 1;
#X connect 16 0 28 0;
#X connect 17 0 21 0;
#X connect 17 0 14 0;
#X connect 17 0 3 0;
#X connect 17 0 2 0;
#X connect 17 0 7 0;
#X connect 17 0 22 0;
#X connect 18 0 20 0;
#X connect 19 0 18 0;
#X connect 19 1 18 1;
#X connect 20 0 29 0;
#X connect 21 0 19 0;
#X connect 21 0 23 0;
#X connect 22 0 15 0;
#X connect 22 0 11 0;
#X connect 23 0 16 0;
#X connect 30 0 33 0;
#X connect 31 0 29 0;
#X connect 31 0 24 0;
#X connect 31 0 28 0;
#X connect 31 0 27 0;
#X connect 31 0 26 0;
#X connect 31 0 25 0;
#X connect 32 0 31 0;
#X connect 33 0 17 0;
#X connect 34 0 17 1;
#X connect 35 0 33 0;
#X connect 35 1 34 0;
#X connect 36 0 35 0;
#X restore 230 417 pd total_time_display;
#X obj 1 1 cnv 15 608 294 empty empty empty 18 40 0 12 -191407 -262144
0;
#N canvas 34 33 625 723 video_playback 0;
#X obj -20 401 metro;
#X obj 22 551 cup;
#X msg 42 511 1;
#X obj 22 331 int;
#X obj 168 301 int;
#X obj 42 461 r movie_end;
#X obj 40 301 r current_frame;
#X obj 22 671 s play_frame;
#X obj 267 -19 r speedplay_snd;
#X obj 223 533 int;
#X obj 241 503 r current_frame;
#X obj 61 641 expr $f2 - $f1;
#X obj 22 611 gate 2;
#X msg 140 413 1;
#X msg 200 433 2;
#X obj 200 463 t f b b;
#X obj 140 463 t f b;
#X obj 200 373 r play_forward;
#X obj 200 403 r play_backward;
#X obj 206 141 spigot;
#X msg 206 111 1;
#X obj 12 41 select 1;
#X obj 336 141 t b f;
#X obj -20 11 t f f;
#X obj -20 191 t f b;
#X msg 245 111 0;
#X msg 285 111 1;
#X msg 268 301 1;
#X obj 168 331 expr 1000/($f1 * $f2);
#X obj 386 51 moses 0;
#X obj 336 111 abs;
#X obj 386 261 spigot;
#X msg 425 231 0;
#X msg 465 231 1;
#X obj 386 291 s play_backward;
#X obj 432 161 s play_forward;
#X obj 432 131 spigot;
#X msg 471 101 0;
#X msg 511 101 1;
#X obj 290 51 route 0;
#X obj 78 111 s play_forward;
#X obj 12 81 t b b b;
#X obj 267 11 t f f f;
#X msg 290 81 0.02;
#X obj -20 -19 r startstop_video;
#X obj 465 201 r startstop_video;
#X obj 465 51 r startstop_video;
#X obj 186 -19 r fps_rcv;
#X connect 0 0 1 0;
#X connect 1 0 12 1;
#X connect 2 0 1 0;
#X connect 3 0 1 0;
#X connect 4 0 28 0;
#X connect 5 0 2 0;
#X connect 6 0 3 1;
#X connect 8 0 42 0;
#X connect 9 0 11 1;
#X connect 10 0 9 1;
#X connect 11 0 7 0;
#X connect 12 0 7 0;
#X connect 12 1 11 0;
#X connect 13 0 16 0;
#X connect 14 0 15 0;
#X connect 15 0 12 0;
#X connect 15 1 9 0;
#X connect 15 2 2 0;
#X connect 16 0 12 0;
#X connect 16 1 3 0;
#X connect 17 0 13 0;
#X connect 18 0 14 0;
#X connect 19 0 24 0;
#X connect 19 0 25 0;
#X connect 20 0 19 0;
#X connect 21 0 41 0;
#X connect 21 1 26 0;
#X connect 22 0 4 0;
#X connect 22 1 28 1;
#X connect 23 0 24 0;
#X connect 23 1 21 0;
#X connect 24 0 0 0;
#X connect 24 1 3 0;
#X connect 25 0 19 1;
#X connect 26 0 19 1;
#X connect 27 0 28 1;
#X connect 28 0 0 1;
#X connect 29 0 31 0;
#X connect 29 1 36 0;
#X connect 30 0 22 0;
#X connect 31 0 32 0;
#X connect 31 0 34 0;
#X connect 31 0 38 0;
#X connect 32 0 31 1;
#X connect 33 0 31 1;
#X connect 36 0 37 0;
#X connect 36 0 35 0;
#X connect 36 0 33 0;
#X connect 37 0 36 1;
#X connect 38 0 36 1;
#X connect 39 0 43 0;
#X connect 39 1 30 0;
#X connect 41 0 4 0;
#X connect 41 1 27 0;
#X connect 41 2 40 0;
#X connect 42 0 20 0;
#X connect 42 1 39 0;
#X connect 42 2 29 0;
#X connect 43 0 30 0;
#X connect 44 0 23 0;
#X connect 45 0 33 0;
#X connect 46 0 38 0;
#X connect 47 0 4 1;
#X restore 487 327 pd video_playback;
#N canvas 891 428 198 236 fps_select 0;
#X obj 30 11 r select_fps;
#X obj 57 201 s fps_rcv;
#X obj 30 61 select 0 1 2;
#X msg 17 111 30;
#X msg 57 151 25;
#X msg 147 111 24;
#X obj 67 111 loadbang;
#X connect 0 0 2 0;
#X connect 2 0 3 0;
#X connect 2 1 4 0;
#X connect 2 2 5 0;
#X connect 3 0 1 0;
#X connect 4 0 1 0;
#X connect 5 0 1 0;
#X connect 6 0 4 0;
#X restore 515 387 pd fps_select;
#X text 209 655 Juan Ignacio Mendoza - 2016;
#N canvas 392 145 187 556 settings_window 0;
#N canvas 813 49 225 668 settings_panel 0;
#X obj 1 1 cnv 15 158 536 empty empty empty 8 46 0 12 -99865 -262144
0;
#X obj 3 4 cnv 15 154 530 empty empty SETTINGS 36 14 0 16 -162280 -204786
0;
#X obj 10 347 cnv 15 139 82 empty empty empty 18 40 0 12 -1 -262144
0;
#X obj 30 399 cnv 10 116 12 empty empty original 2 5 0 12 -162280 -262144
0;
#X obj 30 384 cnv 10 116 12 empty empty half 2 5 0 12 -162280 -262144
0;
#X obj 30 414 cnv 10 116 12 empty empty double 2 5 0 12 -162280 -262144
0;
#X obj 12 367 vradio 15 1 0 4 screen_scale \$0-screen_scale_rcv empty
0 -8 0 10 -262130 -1 -1 2;
#X obj 26 347 cnv 15 54 14 empty empty screen 4 8 0 12 -1 -262144 0
;
#X obj 76 347 cnv 15 54 14 empty empty scaling 4 8 0 12 -1 -262144
0;
#X obj 10 151 cnv 15 139 95 empty empty empty 18 40 0 12 -1 -262144
0;
#X obj 12 171 vradio 15 1 1 3 select_fps no_rcv empty 0 -8 0 10 -204800
-1 -1 1;
#X obj 30 173 cnv 10 116 12 empty empty 30 2 5 0 12 -162280 -262144
0;
#X obj 30 188 cnv 10 116 12 empty empty 25 2 5 0 12 -162280 -262144
0;
#X obj 30 203 cnv 10 116 12 empty empty 24 2 5 0 12 -162280 -262144
0;
#X obj 60 227 cnv 10 86 12 empty empty other 2 5 0 12 -162280 -262144
0;
#X obj 10 65 cnv 15 139 18 empty empty empty 18 40 0 12 -1 -262144
0;
#X obj 13 67 bng 14 250 50 0 open_video no_rcv open 19 7 0 12 -262144
-4034 -262144;
#X obj 64 69 cnv 10 80 12 empty empty video 2 5 0 12 -1 -262144 0;
#X obj 105 69 cnv 10 40 12 empty empty file 2 5 0 12 -33289 -262144
0;
#X obj 10 505 cnv 15 139 18 empty empty empty 18 40 0 12 -1 -262144
0;
#X obj 13 507 bng 14 250 50 0 close_files no_rcv close 19 7 0 12 -262144
-258113 -262144;
#X obj 73 509 cnv 10 32 12 empty empty files 2 5 0 12 -33289 -262144
0;
#X obj 30 369 cnv 10 116 12 empty empty screen 2 5 0 12 -162280 -262144
0;
#X obj 80 369 cnv 10 10 12 empty empty 2 2 5 0 12 -162280 -262144 0
;
#X obj 94 399 cnv 10 40 12 empty empty (def.) 2 5 0 12 -162280 -262144
0;
#X obj 10 440 cnv 15 139 54 empty empty empty 18 40 0 12 -1 -262144
0;
#X obj 16 440 cnv 15 54 14 empty empty screen 4 8 0 12 -1 -262144 0
;
#X obj 14 462 hsl 131 14 1 20 0 0 adjust_v_snd adjust_v_rcv vertical
38 7 0 12 -162280 -261682 -262144 1368 1;
#X obj 14 478 hsl 131 14 1 20 0 0 adjust_h_snd adjust_h_rcv horizontal
31 7 0 12 -162280 -261234 -262144 2965 1;
#X msg 0 604 \; pd-settings_window vis 1 \;;
#X obj 0 574 r open_settings_window_snd;
#X obj 22 154 cnv 10 40 12 empty empty video 2 5 0 12 -1 -262144 0
;
#X obj 62 151 cnv 15 54 14 empty empty frame 4 8 0 12 -1 -262144 0
;
#X obj 104 151 cnv 15 30 14 empty empty rate 4 8 0 12 -1 -262144 0
;
#X obj 10 36 cnv 15 139 18 empty empty empty 18 40 0 12 -1 -262144
0;
#X obj 13 38 bng 14 250 50 0 open_audio no_rcv open 19 7 0 12 -262144
-4034 -262144;
#X obj 64 40 cnv 10 80 12 empty empty audio 2 5 0 12 -1 -262144 0;
#X obj 105 40 cnv 10 40 12 empty empty file 2 5 0 12 -33289 -262144
0;
#X obj 10 94 cnv 15 139 46 empty empty empty 18 40 0 12 -1 -262144
0;
#X obj 38 94 cnv 15 54 14 empty empty video 4 8 0 12 -1 -262144 0;
#X obj 13 117 cnv 15 133 19 empty empty empty 18 40 0 12 -228856 -262144
0;
#X floatatom 13 117 4 0 0 1 _miliseconds latency_offset_rcv latency_offset_snd
;
#X obj 13 223 cnv 15 42 19 empty empty empty 18 40 0 12 -228856 -262144
0;
#X floatatom 13 223 2 0 0 1 fps fps_rcv fps_snd;
#X obj 45 128 cnv 6 6 4 empty empty empty 18 40 0 12 -228856 -262144
0;
#X obj 67 440 cnv 15 54 14 empty empty dimensions 4 8 0 12 -1 -262144
0;
#X obj 83 97 cnv 10 40 12 empty empty offset 2 5 0 12 -1 -262144 0
;
#X obj 10 257 cnv 15 139 82 empty empty empty 18 40 0 12 -1 -262144
0;
#X obj 30 309 cnv 10 116 12 empty empty 256 2 5 0 12 -162280 -262144
0;
#X obj 30 294 cnv 10 116 12 empty empty 128 2 5 0 12 -162280 -262144
0;
#X obj 30 324 cnv 10 116 12 empty empty 512 2 5 0 12 -162280 -262144
0;
#X obj 12 277 vradio 15 1 0 4 \$0-block_size_snd \$0-block_size_rcv
empty 0 -8 0 10 -204786 -1 -1 0;
#X obj 39 257 cnv 15 54 14 empty empty block 4 8 0 12 -1 -262144 0
;
#X obj 82 257 cnv 15 54 14 empty empty size 4 8 0 12 -1 -262144 0;
#X obj 30 279 cnv 10 116 12 empty empty 64 2 5 0 12 -162280 -262144
0;
#X obj 64 279 cnv 10 80 12 empty empty (default) 0 5 0 12 -162280 -262144
0;
#X obj 64 188 cnv 10 80 12 empty empty (default) 0 5 0 12 -162280 -262144
0;
#X connect 30 0 29 0;
#X coords 0 -1 1 1 160 538 1 0 0;
#X restore 12 -145 pd settings_panel;
#X restore 241 447 pd settings_window;
#N canvas 0 22 534 592 scroll 0;
#X obj 97 184 - 1;
#X obj 97 154 int;
#X obj -3 59 int;
#X msg 97 424 set \$1;
#X obj 247 154 int;
#X obj 247 184 + 1;
#X obj 97 464 s scroll_rcv;
#X obj 417 24 r play_frame;
#X obj 247 24 r 1_frame_forward_snd;
#X obj 97 24 r 1_frame_back_snd;
#X obj 217 544 s current_frame;
#X obj -3 464 moses 1;
#X obj -3 24 r scroll_snd;
#X obj 217 314 r beginning;
#X obj 217 344 t b b;
#X msg 249 374 0;
#X msg 217 374 1;
#X obj 249 404 s playstop_rcv;
#N canvas 127 22 628 591 scrollplay 0;
#X obj 10 378 cursor;
#X obj 10 408 route button;
#X obj 10 438 unpack f f;
#X obj 137 448 select 0;
#X msg 49 132 0;
#X obj 10 202 spigot;
#X msg 109 162 1;
#X msg 10 338 1;
#X obj 109 132 loadbang;
#X obj 30 278 s playstop_rcv;
#X obj 10 72 r scroll_snd;
#X obj 137 518 s playstop_rcv;
#X msg 77 308 0;
#X msg 137 478 1;
#X msg 30 252 0;
#X obj 109 102 r playstop_snd;
#X text 210 553 Juan Ignacio Mendoza - 2016;
#X text 217 329 |;
#X text 217 338 |;
#X text 217 338 |;
#X text 207 319 __;
#X text 217 347 |;
#X text 217 356 |;
#X text 217 356 |;
#X text 217 390 |;
#X text 217 426 |;
#X text 217 426 |;
#X text 217 435 |;
#X text 217 444 |;
#X text 217 444 |;
#X text 217 445 |;
#X text 217 454 |;
#X text 217 454 |;
#X text 207 453 __;
#X text 217 364 |;
#X text 217 364 |;
#X text 217 372 |;
#X text 217 372 |;
#X text 217 408 |;
#X text 217 399 |;
#X text 217 399 |;
#X text 11 16 "scrollplay" allows to scroll when playing back so that
after scrillong playback will resume;
#X text 218 102 <-- play/stop (1/0) activates/deactivates scrollplay
;
#X text 250 200 allows only one datum from scroll bar to pass \,;
#X text 250 214 preventing continuous data passing while scrolling
;
#X text 60 200 <-------------------------;
#X text 60 250 <------------------------- stop playback;
#X text 249 307 stop mouse button detection when button is released
;
#X text 110 307 <------------------;
#X text 217 417 |;
#X text 217 417 |;
#X text 217 381 |;
#X text 217 381 |;
#X text 219 386 comment;
#X text 219 390 --- detect release of the mouse button;
#X text 180 477 <--------;
#X text 248 476 upon release of the mouse button trigger playback;
#X text 248 490 thus activating scrollplay;
#X text 102 72 <------------------- data from scroll bar;
#X connect 0 0 1 0;
#X connect 1 0 2 0;
#X connect 2 1 3 0;
#X connect 3 0 12 0;
#X connect 3 0 13 0;
#X connect 4 0 5 1;
#X connect 5 0 4 0;
#X connect 5 0 14 0;
#X connect 5 0 7 0;
#X connect 6 0 5 1;
#X connect 7 0 0 0;
#X connect 8 0 6 0;
#X connect 10 0 5 0;
#X connect 12 0 0 0;
#X connect 13 0 11 0;
#X connect 14 0 9 0;
#X connect 15 0 5 1;
#X restore 411 113 pd scrollplay;
#X connect 0 0 3 0;
#X connect 0 0 1 1;
#X connect 0 0 4 1;
#X connect 0 0 11 0;
#X connect 1 0 0 0;
#X connect 2 0 1 1;
#X connect 2 0 4 1;
#X connect 2 0 11 0;
#X connect 3 0 6 0;
#X connect 4 0 5 0;
#X connect 5 0 4 1;
#X connect 5 0 3 0;
#X connect 5 0 1 1;
#X connect 5 0 11 0;
#X connect 7 0 3 0;
#X connect 7 0 4 1;
#X connect 7 0 1 1;
#X connect 7 0 11 0;
#X connect 8 0 4 0;
#X connect 9 0 1 0;
#X connect 11 1 10 0;
#X connect 12 0 2 0;
#X connect 13 0 14 0;
#X connect 14 0 16 0;
#X connect 14 1 15 0;
#X connect 15 0 17 0;
#X connect 16 0 3 0;
#X connect 16 0 10 0;
#X restore 273 597 pd scroll;
#N canvas 1041 22 273 784 video_display 0;
#X msg -28 717 0 \, destroy;
#X obj -36 113 gemhead;
#X msg -46 73 open \$1;
#X obj 54 33 openpanel;
#X msg -20 483 range 1 \$1;
#X obj -46 747 gemwin 50;
#X obj -20 513 s scroll_rcv;
#X obj 7 303 r current_frame;
#X obj 62 747 s reset_bang;
#X msg 24 73 1;
#X obj -28 677 loadbang;
#X obj 62 717 delay 250;
#X obj 0 453 s total_frames;
#X obj 61 393 s original_height;
#X obj 20 423 s original_width;
#X obj -20 363 unpack f f f;
#X obj 94 573 r adjust_v_snd;
#X obj -16 573 r adjust_h_snd;
#X obj -46 333 pix_film;
#X obj -46 543 pix_texture;
#N canvas 379 23 693 717 screen_scaling 0;
#X obj 80 338 / 1;
#X obj -100 338 / 1;
#X msg 30 208 0.5;
#X msg -7 208 1;
#X msg -47 208 2;
#X obj 339 -42 r screen_scale;
#X obj -100 508 pack f f;
#X obj -70 158 select 0 1 2 3;
#X msg 226 148 0 \, destroy;
#X obj 245 510 pack f f;
#X obj -100 298 int;
#X obj 80 298 int;
#X obj 30 248 t b b f;
#X obj 245 338 int;
#X obj 194 108 t f b;
#X msg 245 540 reset \, dimen \$2 \$1 \, fullscreen 2 \, create \,
1;
#X obj 226 610 outlet to gemwin;
#X obj 298 338 int;
#X obj 245 228 t b b;
#X obj 341 298 r original_width;
#X obj 323 268 r original_height;
#X obj -50 338 /;
#X obj -50 448 *;
#X obj -50 368 t b f;
#X msg -50 398 3;
#X obj 44 490 s adjust_h_snd;
#X obj 44 440 s adjust_v_snd;
#X msg 171 390 3.05;
#X msg 171 440 7.1;
#X msg -100 540 reset \, dimen \$1 \$2 \, create \, 1;
#X obj 318 380 r adjust_v_snd;
#X obj 428 380 r adjust_h_snd;
#X obj 318 440 s adjust_v_rcv;
#X obj 428 440 s adjust_h_rcv;
#X msg 318 410 set \$1;
#X msg 428 410 set \$1;
#X obj 279 68 i;
#X obj 339 -12 t b f;
#X obj 299 18 gate;
#X msg 299 -12 1;
#N canvas 415 22 325 391 receive_original_video_dimensions_and_trigger____
0;
#X msg -45 71 1;
#X obj -82 201 select 1;
#X msg 13 171 0;
#X obj -45 101 t b f;
#X obj -82 171 ==;
#X msg -82 71 1;
#X msg 13 141 2;
#X obj 16 28 t b f;
#X obj -146 28 t b f;
#X obj -146 -29 r original_width;
#X obj 16 -29 r original_height;
#X obj -114 301 outlet;
#X obj 48 301 outlet;
#X obj 106 301 outlet;
#X connect 0 0 3 0;
#X connect 1 0 6 0;
#X connect 1 0 13 0;
#X connect 2 0 4 1;
#X connect 3 0 4 0;
#X connect 3 1 4 1;
#X connect 4 0 1 0;
#X connect 5 0 4 0;
#X connect 6 0 4 0;
#X connect 6 0 2 0;
#X connect 7 0 0 0;
#X connect 7 1 12 0;
#X connect 8 0 5 0;
#X connect 8 1 11 0;
#X connect 9 0 8 0;
#X connect 10 0 7 0;
#X restore -82 -52 pd receive_original_video_dimensions_and_trigger____
;
#X connect 0 0 6 1;
#X connect 1 0 6 0;
#X connect 2 0 12 0;
#X connect 3 0 12 0;
#X connect 4 0 12 0;
#X connect 5 0 37 0;
#X connect 6 0 29 0;
#X connect 7 0 18 0;
#X connect 7 1 4 0;
#X connect 7 2 3 0;
#X connect 7 3 2 0;
#X connect 8 0 16 0;
#X connect 9 0 15 0;
#X connect 10 0 21 0;
#X connect 10 0 1 0;
#X connect 11 0 0 0;
#X connect 11 0 21 1;
#X connect 12 0 10 0;
#X connect 12 1 11 0;
#X connect 12 2 0 1;
#X connect 12 2 1 1;
#X connect 13 0 9 0;
#X connect 13 0 27 0;
#X connect 14 0 7 0;
#X connect 14 1 8 0;
#X connect 15 0 16 0;
#X connect 17 0 9 1;
#X connect 17 0 28 0;
#X connect 18 0 13 0;
#X connect 18 1 17 0;
#X connect 19 0 17 1;
#X connect 20 0 13 1;
#X connect 21 0 23 0;
#X connect 22 0 25 0;
#X connect 23 0 24 0;
#X connect 23 1 22 1;
#X connect 24 0 22 0;
#X connect 24 0 26 0;
#X connect 27 0 26 0;
#X connect 28 0 25 0;
#X connect 29 0 16 0;
#X connect 30 0 34 0;
#X connect 31 0 35 0;
#X connect 34 0 32 0;
#X connect 35 0 33 0;
#X connect 36 0 14 0;
#X connect 37 0 38 1;
#X connect 37 1 36 1;
#X connect 38 0 36 0;
#X connect 39 0 38 0;
#X connect 40 0 10 1;
#X connect 40 1 11 1;
#X connect 40 2 36 0;
#X connect 40 2 39 0;
#X restore -46 643 pd screen_scaling;
#X obj -46 613 rectangle;
#X obj 83 173 s beginning;
#X obj 73 73 bang;
#X obj 93 143 r reset_bang;
#X obj 62 677 r close_files;
#X obj 54 3 r open_video;
#X obj 74 213 split_path;
#X obj -16 173 loadbang;
#X msg -16 213 symbol;
#X msg -16 253 \; video_filename_display label \$1;
#X obj 87 363 s video_end;
#X obj 93 113 s video_iscalled;
#X obj -31 143 r close_files;
#X connect 0 0 5 0;
#X connect 1 0 18 0;
#X connect 2 0 18 0;
#X connect 3 0 2 0;
#X connect 3 0 9 0;
#X connect 3 0 23 0;
#X connect 3 0 27 0;
#X connect 4 0 6 0;
#X connect 7 0 18 1;
#X connect 9 0 1 0;
#X connect 10 0 0 0;
#X connect 10 0 11 0;
#X connect 11 0 8 0;
#X connect 15 0 4 0;
#X connect 15 0 12 0;
#X connect 15 1 14 0;
#X connect 15 2 13 0;
#X connect 16 0 21 2;
#X connect 17 0 21 1;
#X connect 18 0 19 0;
#X connect 18 1 15 0;
#X connect 18 2 31 0;
#X connect 19 0 21 0;
#X connect 20 0 5 0;
#X connect 23 0 22 0;
#X connect 23 0 32 0;
#X connect 24 0 22 0;
#X connect 25 0 0 0;
#X connect 25 0 11 0;
#X connect 26 0 3 0;
#X connect 27 1 30 0;
#X connect 28 0 29 0;
#X connect 29 0 30 0;
#X connect 33 0 29 0;
#X restore 494 357 pd video_display;
#N canvas 527 348 159 211 loop 0;
#X obj 44 30 r loop_snd;
#X obj 5 160 s playstop_rcv;
#X obj 5 130 spigot;
#X msg 5 90 0;
#X obj 44 60 select 1;
#X msg 44 90 0;
#X msg 97 90 1;
#X obj 5 0 r video_end;
#X connect 0 0 4 0;
#X connect 2 0 1 0;
#X connect 3 0 2 0;
#X connect 4 0 5 0;
#X connect 4 1 6 0;
#X connect 5 0 2 1;
#X connect 6 0 2 1;
#X connect 7 0 3 0;
#X restore 280 627 pd loop;
#N canvas 156 315 287 532 speedplay 0;
#X obj 6 211 cursor;
#X obj 6 241 route button;
#X obj 6 271 unpack f f;
#X obj 73 301 select 0;
#X obj 73 491 s speedplay_rcv;
#X obj 6 11 r speedplay_snd;
#X msg 45 41 0;
#X obj 73 421 line;
#X obj 73 361 int;
#X obj 6 91 spigot;
#X msg 165 41 1;
#X msg 73 391 \$1 \, 0 200;
#X msg 163 141 0;
#X msg 6 181 1;
#X msg 73 461 set \$1;
#X obj 91 331 r speedplay_snd;
#X obj 163 201 s playstop_snd;
#X obj 163 391 r reset_bang;
#X obj 153 361 loadbang;
#X msg 153 421 0;
#X obj 165 11 loadbang;
#X obj 16 151 s playstop_rcv;
#X msg 16 121 0;
#X connect 0 0 1 0;
#X connect 1 0 2 0;
#X connect 2 1 3 0;
#X connect 3 0 8 0;
#X connect 3 0 10 0;
#X connect 3 0 12 0;
#X connect 5 0 9 0;
#X connect 6 0 9 1;
#X connect 7 0 14 0;
#X connect 8 0 11 0;
#X connect 9 0 6 0;
#X connect 9 0 13 0;
#X connect 9 0 22 0;
#X connect 10 0 9 1;
#X connect 11 0 7 0;
#X connect 12 0 0 0;
#X connect 12 0 16 0;
#X connect 13 0 0 0;
#X connect 14 0 4 0;
#X connect 15 0 8 1;
#X connect 17 0 19 0;
#X connect 18 0 19 0;
#X connect 19 0 14 0;
#X connect 20 0 10 0;
#X connect 22 0 21 0;
#X restore 262 537 pd speedplay;
#X obj 5 5 cnv 15 600 286 empty empty empty 18 40 0 12 -66577 -262144
0;
#X obj 173 86 cnv 15 266 172 empty empty empty 18 40 0 12 -228856 -262144
0;
#X obj 177 102 cnv 15 104 50 empty empty empty 25 40 0 12 -162280 -262144
0;
#X obj 294 102 cnv 20 141 50 empty empty empty 22 40 0 12 -162280 -262144
0;
#X obj 181 106 cnv 15 25 28 empty elapsed_frames_54321 empty 11 14
0 20 -66577 -4034 0;
#X obj 207 106 cnv 15 16 28 empty elapsed_frames_4321 empty 2 14 0
20 -66577 -4034 0;
#X obj 224 106 cnv 15 16 28 empty elapsed_frames_321 empty 2 14 0 20
-66577 -4034 0;
#X obj 241 106 cnv 15 16 28 empty elapsed_frames_21 empty 2 14 0 20
-66577 -4034 0;
#X obj 258 106 cnv 15 19 28 empty elapsed_frames_1 empty 2 14 0 20
-66577 -4034 0;
#X obj 298 106 cnv 15 19 28 empty elapsed_time_m empty 5 14 0 20 -66577
-261234 0;
#X obj 318 106 cnv 15 12 28 empty empty : 0 14 0 20 -66577 -261234
0;
#X obj 331 106 cnv 15 16 28 empty elapsed_time_sX empty 2 14 0 20 -66577
-261234 0;
#X obj 348 106 cnv 15 16 28 empty elapsed_time_Xs empty 2 14 0 20 -66577
-261234 0;
#X obj 365 106 cnv 15 12 28 empty empty : 0 14 0 20 -66577 -261234
0;
#X obj 378 106 cnv 15 16 28 empty elapsed_time_msXX empty 2 14 0 20
-66577 -261234 0;
#X obj 395 106 cnv 15 16 28 empty elapsed_time_XmsX empty 2 14 0 20
-66577 -261234 0;
#X obj 412 106 cnv 15 19 28 empty elapsed_time_XXms empty 2 14 0 20
-66577 -261234 0;
#X obj 11 41 cnv 15 590 44 empty empty empty 2 40 0 12 -228856 -262144
0;
#X obj 450 100 cnv 15 24 144 empty empty empty 18 40 0 12 -228856 -262144
0;
#X obj 452 102 bng 20 250 50 0 1_frame_back_snd empty frame_backward
28 10 0 14 -261682 -1 -262144;
#X obj 452 132 bng 20 250 50 0 1_frame_forward_snd empty frame_forward
28 12 0 14 -261682 -13381 -262144;
#X obj 452 192 tgl 20 0 playstop_snd playstop_rcv play/stop 28 9 0
14 -4034 -13381 -262144 0 1;
#X obj 452 162 bng 20 250 50 0 beginning empty beginning 28 9 0 14
-204800 -4160 -262144;
#X obj 179 135 cnv 15 58 14 empty empty elapsed 2 8 0 12 -162280 -262144
0;
#X obj 234 135 cnv 15 34 14 empty empty frames 2 8 0 12 -162280 -262144
0;
#X obj 319 135 cnv 15 58 14 empty empty elapsed 2 8 0 12 -162280 -262144
0;
#X obj 375 135 cnv 15 34 14 empty empty time 2 8 0 12 -162280 -262144
0;
#X obj 177 162 cnv 15 104 50 empty empty empty 25 40 0 12 -162280 -262144
0;
#X obj 181 166 cnv 15 25 28 empty total_frames_54321 empty 11 14 0
20 -66577 -4032 0;
#X obj 207 166 cnv 15 16 28 empty total_frames_4321 empty 2 14 0 20
-66577 -4032 0;
#X obj 224 166 cnv 15 16 28 empty total_frames_321 empty 2 14 0 20
-66577 -4032 0;
#X obj 241 166 cnv 15 16 28 empty total_frames_21 empty 2 14 0 20 -66577
-4032 0;
#X obj 258 166 cnv 15 19 28 empty total_frames_1 empty 2 14 0 20 -66577
-4032 0;
#X obj 186 195 cnv 15 58 14 empty empty total 2 8 0 12 -162280 -262144
0;
#X obj 227 195 cnv 15 34 14 empty empty frames 2 8 0 12 -162280 -262144
0;
#X obj 294 162 cnv 20 141 50 empty empty empty 22 40 0 12 -162280 -262144
0;
#X obj 298 166 cnv 15 19 28 empty total_time_m empty 5 14 0 20 -66577
-260097 0;
#X obj 318 166 cnv 15 12 28 empty empty : 0 14 0 20 -66577 -260097
0;
#X obj 331 166 cnv 15 16 28 empty total_time_sX empty 2 14 0 20 -66577
-260097 0;
#X obj 348 166 cnv 15 16 28 empty total_time_Xs empty 2 14 0 20 -66577
-260097 0;
#X obj 365 166 cnv 15 12 28 empty empty : 0 14 0 20 -66577 -260097
0;
#X obj 378 166 cnv 15 16 28 empty total_time_msXX empty 2 14 0 20 -66577
-260097 0;
#X obj 395 166 cnv 15 16 28 empty total_time_XmsX empty 2 14 0 20 -66577
-260097 0;
#X obj 412 166 cnv 15 19 28 empty total_time_XXms empty 2 14 0 20 -66577
-260097 0;
#X obj 327 195 cnv 15 58 14 empty empty total 2 8 0 12 -162280 -262144
0;
#X obj 367 195 cnv 15 34 14 empty empty time 2 8 0 12 -162280 -262144
0;
#X obj 177 222 cnv 15 258 28 empty empty empty 25 40 0 12 -162280 -262144
0;
#X obj 184 226 hsl 245 20 -3 3 0 0 speedplay_snd speedplay_rcv -3x..-2x..-1x...0...+1x..+2x..+3x
6 10 0 12 -204800 -1 -1 12200 1;
#X obj 11 12 cnv 15 590 28 empty empty empty 18 40 0 12 -228856 -262144
0;
#X obj 15 16 cnv 15 582 20 empty empty empty 18 40 0 12 -162280 -262144
0;
#X obj 318 16 cnv 15 70 20 empty empty Player 20 9 0 16 -162280 -204786
0;
#X obj 138 220 cnv 15 24 24 empty empty empty 18 40 0 12 -228856 -262144
0;
#X obj 140 222 bng 20 250 50 0 open_settings_window_snd no_rcv settings
-72 10 0 14 -162280 -204786 -262144;
#X obj 452 222 tgl 20 0 loop_snd no_rcv loop 28 9 0 14 -262130 -13381
-262144 0 1;
#X obj 520 117 cnv 8 8 4 empty empty empty 18 40 0 12 -66577 -262144
0;
#X obj 520 149 cnv 8 8 4 empty empty empty 18 40 0 12 -66577 -262144
0;
#X obj 519 16 cnv 15 70 20 empty empty v0.2 20 9 0 16 -162280 -204786
0;
#X obj 198 16 cnv 15 70 20 empty empty Audio-Video 20 9 0 16 -162280
-204786 0;
#X text 43 301 AUDIO;
#X text 279 301 CONTROL;
#X text 530 301 VIDEO;
#X obj 11 257 cnv 15 590 28 empty empty empty 18 40 0 12 -228856 -262144
0;
#X obj 17 261 hsl 579 20 1 7189 0 0 scroll_snd scroll_rcv <---scroll--->
240 10 0 12 -204786 -13381 -1 0 1;
#X obj 96 63 cnv 15 501 18 empty video_filename_display empty 4 9 0
12 -66577 -262144 0;
#X obj 15 63 cnv 15 50 18 empty empty video 4 9 0 12 -66577 -204786
0;
#X obj 55 63 cnv 15 40 18 empty empty file: 4 9 0 12 -66577 -204786
0;
#N canvas 100 23 386 834 audio_playback 0;
#X msg 6 506 open \$1 \$2;
#X obj 6 9 r playstop_snd;
#X obj 65 189 split_path;
#X obj 45 159 openpanel;
#X obj 150 129 loadbang;
#X obj 45 129 r open_audio;
#X msg 132 219 \; audio_filename_display label \$1;
#X msg 150 189 symbol;
#X obj 6 296 symbol;
#X obj 160 159 r close_files;
#X obj 77 356 r current_frame;
#X obj 148 386 r \$0samplerate;
#X obj 59 416 int;
#X obj 238 416 r fps_snd;
#X obj 59 446 expr (($f1-1) * $f2) / $f3;
#X obj 6 476 pack s 0;
#X obj 6 69 t b b;
#X obj 6 39 sel 1;
#X obj 38 99 s trig_sample_pos;
#X obj 59 326 r trig_sample_pos;
#X obj 166 636 s playstop_rcv;
#X obj 65 295 s beginning;
#X obj 65 233 bang;
#X obj 85 265 s audio_iscalled;
#X obj 6 725 *~;
#X obj 57 725 *~;
#X obj 85 695 line;
#X msg 85 665 \$1 30;
#X obj 85 635 r \$0level;
#N canvas 106 88 198 149 VU 0;
#X obj -48 -14 inlet~;
#X obj 61 -14 inlet~;
#X obj -48 46 expr ($f1+$f2)/2;
#X obj -48 16 env~;
#X obj 61 16 env~;
#X obj -48 106 s \$0VU;
#X obj -48 77 expr (($f1-98)/100)*112;
#X connect 0 0 3 0;
#X connect 1 0 4 0;
#X connect 2 0 6 0;
#X connect 3 0 2 0;
#X connect 4 0 2 1;
#X connect 6 0 5 0;
#X restore 26 765 pd VU;
#X obj 16 566 r startstop_audio;
#X obj 16 536 s audio_isopen;
#X obj 6 596 readsf~ 2 2e+08;
#X obj 270 159 block~;
#X msg 270 129 set \$1;
#X msg 210 89 64;
#X msg 250 89 128;
#X msg 290 89 256;
#X obj 6 796 outlet~;
#X obj 107 796 outlet~;
#X obj 166 566 r close_files;
#X msg 166 596 0;
#X obj 236 39 select 0 1 2 3;
#X msg 330 89 512;
#X obj 236 9 r \$0-block_size_snd;
#X connect 0 0 31 0;
#X connect 0 0 32 0;
#X connect 1 0 17 0;
#X connect 2 1 6 0;
#X connect 3 0 2 0;
#X connect 3 0 8 1;
#X connect 3 0 22 0;
#X connect 4 0 7 0;
#X connect 5 0 3 0;
#X connect 7 0 6 0;
#X connect 8 0 15 0;
#X connect 9 0 7 0;
#X connect 10 0 12 1;
#X connect 11 0 14 1;
#X connect 12 0 14 0;
#X connect 13 0 14 2;
#X connect 14 0 15 1;
#X connect 15 0 0 0;
#X connect 16 0 8 0;
#X connect 16 1 18 0;
#X connect 17 0 16 0;
#X connect 19 0 12 0;
#X connect 22 0 21 0;
#X connect 22 0 23 0;
#X connect 24 0 29 0;
#X connect 24 0 38 0;
#X connect 25 0 29 1;
#X connect 25 0 39 0;
#X connect 26 0 24 1;
#X connect 26 0 25 1;
#X connect 27 0 26 0;
#X connect 28 0 27 0;
#X connect 30 0 32 0;
#X connect 32 0 24 0;
#X connect 32 1 25 0;
#X connect 32 2 20 0;
#X connect 34 0 33 0;
#X connect 35 0 34 0;
#X connect 36 0 34 0;
#X connect 37 0 34 0;
#X connect 40 0 41 0;
#X connect 41 0 20 0;
#X connect 42 0 35 0;
#X connect 42 1 36 0;
#X connect 42 2 37 0;
#X connect 42 3 43 0;
#X connect 43 0 34 0;
#X connect 44 0 42 0;
#X restore 1 357 pd audio_playback;
#X obj 96 41 cnv 15 501 18 empty audio_filename_display empty 4 9 0
12 -66577 -262144 0;
#X obj 15 41 cnv 15 50 18 empty empty audio 4 9 0 12 -66577 -204786
0;
#X obj 55 41 cnv 15 40 18 empty empty file: 4 9 0 12 -66577 -204786
0;
#N canvas 602 447 498 422 playstop 0;
#X obj 252 14 r playstop_snd;
#X obj 10 94 spigot;
#X obj 10 154 delay 500;
#X obj 133 154 sel 0;
#X msg 133 184 0;
#X obj 10 124 bang;
#X obj 126 14 r current_mode;
#X obj 10 14 r audio_isopen;
#X msg 10 190 1;
#X obj 10 254 s startstop_audio;
#X obj 213 124 gate 2;
#X msg 213 74 0;
#X msg 126 74 2;
#X msg 169 74 1;
#X obj 126 44 select 2 3 1 0;
#X obj 352 384 s startstop_video;
#X obj 252 324 delay;
#X obj 284 294 r latency_offset_snd;
#X obj 352 354 int;
#X obj 252 254 t b f;
#X connect 0 0 10 1;
#X connect 1 0 5 0;
#X connect 2 0 8 0;
#X connect 3 0 4 0;
#X connect 4 0 9 0;
#X connect 4 0 19 0;
#X connect 5 0 2 0;
#X connect 6 0 14 0;
#X connect 7 0 1 0;
#X connect 8 0 9 0;
#X connect 8 0 19 0;
#X connect 10 0 1 1;
#X connect 10 0 3 0;
#X connect 10 1 19 0;
#X connect 11 0 10 0;
#X connect 12 0 10 0;
#X connect 13 0 10 0;
#X connect 14 0 12 0;
#X connect 14 1 13 0;
#X connect 14 2 13 0;
#X connect 14 3 11 0;
#X connect 16 0 18 0;
#X connect 17 0 16 1;
#X connect 18 0 15 0;
#X connect 19 0 16 0;
#X connect 19 1 18 1;
#X restore 266 567 pd playstop;
#N canvas 0 23 365 200 current_mode 0;
#X obj 96 5 r audio_iscalled;
#X obj 226 5 r video_iscalled;
#X obj 96 165 s current_mode;
#X msg 96 35 1;
#X msg 226 37 2;
#X obj 96 135 +;
#X obj 226 67 t b f;
#X obj -10 5 r close_files;
#X msg -10 35 0;
#X obj -10 65 t f f;
#X text 201 106 0 = none;
#X text 201 118 1 = only audio;
#X text 201 130 2 = only video;
#X text 201 142 3 = audio and video;
#X connect 0 0 3 0;
#X connect 1 0 4 0;
#X connect 3 0 5 0;
#X connect 4 0 6 0;
#X connect 5 0 2 0;
#X connect 6 0 5 0;
#X connect 6 1 5 1;
#X connect 7 0 8 0;
#X connect 8 0 9 0;
#X connect 9 0 5 0;
#X connect 9 1 5 1;
#X restore 252 477 pd current_mode;
#X obj 107 100 cnv 15 55 120 empty empty empty 8 101 0 12 -228856 -262144
0;
#X obj 109 102 cnv 15 51 110 empty empty level 8 101 0 12 -162280 -262144
0;
#X obj 141 107 vu 14 80 \$0VU empty -1 -8 0 10 -66577 -1 0 0;
#X obj 113 107 vsl 16 80 0 1 0 0 \$0level no_rcv empty 0 -9 0 10 -203904
-1 -1 0 1;
#N canvas 541 196 166 225 init_audio_engine 0;
#X obj 8 144 samplerate~;
#X obj 8 12 loadbang;
#X obj 8 174 s \$0samplerate;
#X msg 18 54 \; pd dsp 1;
#X obj 18 114 r audio_iscalled;
#X connect 0 0 2 0;
#X connect 1 0 0 0;
#X connect 1 0 3 0;
#X connect 4 0 0 0;
#X restore 1 327 pd init_audio_engine;
#N canvas 0 22 185 131 audio_out_2-ch 0;
#X obj 10 8 inlet~;
#X obj 80 8 inlet~;
#X obj 10 58 dac~ 1;
#X obj 80 58 dac~ 2;
#X connect 0 0 2 0;
#X connect 1 0 3 0;
#X restore 1 387 pd audio_out_2-ch;
#N canvas 955 140 450 300 A/V_presets 0;
#X obj 92 102 s latency_offset_rcv;
#X msg 92 72 0;
#X obj 52 142 s \$0-block_size_rcv;
#X msg 52 112 0;
#X text 92 42 AUDIO:;
#X obj 12 242 s \$0-screen_scale_rcv;
#X text 22 182 VIDEO:;
#X text 20 172 --------------------------------------;
#X text 90 32 --------------------------------------;
#X obj 12 12 loadbang;
#X obj 12 42 bng 15 250 50 0 empty empty empty 17 7 0 10 -262144 -1
-1;
#X msg 12 212 2;
#X connect 1 0 0 0;
#X connect 3 0 2 0;
#X connect 9 0 10 0;
#X connect 10 0 1 0;
#X connect 10 0 3 0;
#X connect 10 0 11 0;
#X connect 11 0 5 0;
#X restore 256 507 pd A/V_presets;
#X connect 79 0 90 0;
#X connect 79 1 90 1;
#X coords 0 -1 1 1 610 296 1 0 0;
#X restore 7 -216 pd control_panel;
#X coords 0 319 1 318 610 250 0;
